<svg width="691" height="651" viewBox="0 0 691 651" fill="none" xmlns="http://www.w3.org/2000/svg">
<path d="M571.155 24.1784C571.074 23.8986 570.995 23.6205 570.9 23.3474C570.802 23.0642 570.69 22.7895 570.578 22.513C570.49 22.2973 570.404 22.0832 570.308 21.8725C570.171 21.5779 570.025 21.2873 569.871 21.0011C569.774 20.8157 569.676 20.6303 569.571 20.4482C569.408 20.1668 569.234 19.8954 569.055 19.6257C568.934 19.4437 568.814 19.2599 568.684 19.0796C568.51 18.8386 568.326 18.6043 568.139 18.3733C567.98 18.1744 567.822 17.9789 567.653 17.7901C567.481 17.5946 567.301 17.4075 567.12 17.2204C566.92 17.0114 566.715 16.8074 566.505 16.6086C566.338 16.4518 566.162 16.3035 565.988 16.1535C565.75 15.9477 565.507 15.7482 565.258 15.5551C565.084 15.4219 564.907 15.2989 564.728 15.1742C564.469 14.9902 564.206 14.8132 563.937 14.6432C563.733 14.5168 563.522 14.4005 563.313 14.2825C563.06 14.1409 562.809 13.9976 562.549 13.8695C562.281 13.7364 562.006 13.6201 561.731 13.5004C561.517 13.4077 561.306 13.3116 561.085 13.229C560.732 13.0973 560.375 12.9775 560.014 12.87C559.884 12.8313 559.761 12.779 559.629 12.7419L559.442 12.693L559.197 12.6273C452.404 -17.0552 335.589 5.99128 230.216 77.5564C126.423 148.058 45.8306 257.786 2.84967 386.877C1.85247 388.353 1.09952 389.979 0.619742 391.694C-1.81934 400.415 3.15666 409.44 11.7592 412.106C11.879 412.148 11.992 412.2 12.1135 412.241C12.5149 412.372 12.9181 412.468 13.3212 412.568L151.103 451.057C153.214 451.649 155.422 451.818 157.6 451.556C159.777 451.294 161.882 450.606 163.793 449.53C165.704 448.455 167.384 447.014 168.737 445.289C170.091 443.565 171.09 441.59 171.68 439.479C186.707 385.763 208.023 335.444 234.285 289.851L590.806 646.113C593.938 649.242 598.185 651 602.614 651C607.042 651 611.289 649.242 614.421 646.113L686.109 574.477C687.66 572.927 688.89 571.088 689.729 569.063C690.568 567.039 691 564.869 691 562.678C691 560.487 690.568 558.317 689.729 556.292C688.89 554.268 687.66 552.429 686.109 550.879L315.262 180.302C384.137 107.274 468.482 58.5619 557.355 45.3607L557.367 45.359L557.58 45.3253C558.199 45.2326 558.801 45.1028 559.393 44.9494C559.545 44.909 559.688 44.8567 559.838 44.8112C561.059 44.4569 562.234 43.9625 563.34 43.338L563.575 43.2116C564.17 42.8627 564.744 42.4818 565.287 42.0671L565.418 41.9592C565.889 41.5901 566.333 41.1974 566.761 40.7827C566.823 40.7237 566.896 40.6715 566.957 40.6108C567.027 40.54 567.088 40.4557 567.157 40.3833C567.48 40.0478 567.785 39.6989 568.078 39.3382C568.193 39.1966 568.314 39.0618 568.424 38.9151C568.802 38.4162 569.158 37.8988 569.48 37.3611C569.537 37.2633 569.586 37.1605 569.642 37.061C569.994 36.4414 570.305 35.7996 570.573 35.1395C570.796 34.6001 570.99 34.049 571.155 33.486C571.172 33.4287 571.199 33.3747 571.214 33.3157C571.221 33.2888 571.224 33.2618 571.233 33.2365C571.349 32.8134 571.442 32.3803 571.524 31.9471C571.548 31.8257 571.578 31.7044 571.599 31.583C571.659 31.2189 571.696 30.8481 571.732 30.4756C571.752 30.2801 571.779 30.0845 571.793 29.889C571.809 29.6261 571.804 29.3614 571.809 29.0968C571.815 28.7917 571.825 28.485 571.813 28.1799C571.806 28.0012 571.784 27.8208 571.771 27.6388C571.744 27.2545 571.713 26.8702 571.659 26.4893L571.649 26.378C571.629 26.2364 571.59 26.1033 571.565 25.9634C571.501 25.5993 571.435 25.2369 571.347 24.8796C571.295 24.6419 571.223 24.411 571.155 24.1784ZM650.688 562.683L602.615 610.721L252.229 260.59C264.75 241.387 278.388 222.934 293.071 205.326L650.688 562.683ZM144.226 414.489L38.8085 385.043C114.397 173.102 295.437 30.6475 471.891 33.5365C325.153 89.158 199.899 232.366 144.226 414.489Z" fill="#2C2C2C"/>
</svg>
