<svg width="289" height="107" viewBox="0 0 289 107" fill="none" xmlns="http://www.w3.org/2000/svg">
<rect width="289" height="107" fill="#191A1D"/>
<g filter="url(#filter0_d_6407_42902)">
<path d="M234.908 48.1887C234.908 46.2628 236.47 44.7015 238.395 44.7015C240.321 44.7015 241.883 46.2628 241.883 48.1887V58.0337C241.883 59.9596 240.321 61.5209 238.395 61.5209C236.47 61.5209 234.908 59.9596 234.908 58.0337V48.1887Z" fill="#BFFF3C"/>
<path d="M245.467 41.6626C245.467 39.7367 247.028 38.1754 248.954 38.1754C250.88 38.1754 252.441 39.7367 252.441 41.6626V58.0289C252.441 59.9548 250.88 61.5161 248.954 61.5161C247.028 61.5161 245.467 59.9548 245.467 58.0289V41.6626Z" fill="#7FF8D5"/>
<path d="M256.025 34.0572C256.025 32.1313 257.586 30.5701 259.512 30.5701C261.438 30.5701 262.999 32.1313 262.999 34.0572V58.0313C262.999 59.9572 261.438 61.5184 259.512 61.5184C257.586 61.5184 256.025 59.9572 256.025 58.0313V34.0572Z" fill="#BFFF3C"/>
<path d="M262.091 16.7503C263.333 16.7821 264.314 17.815 264.282 19.0572L263.763 39.3006C263.731 40.5428 262.698 41.524 261.456 41.4921C260.214 41.4603 259.233 40.4274 259.265 39.1852L259.644 24.3721L246.636 36.7304L239.794 33.1543L231.652 41.9862L228.344 38.9361L238.823 27.5689L245.869 31.2519L256.545 21.1096L241.732 20.7297C240.49 20.6979 239.509 19.665 239.54 18.4228C239.572 17.1806 240.605 16.1994 241.847 16.2312L262.091 16.7503Z" fill="#E156FF"/>
<path d="M262.091 16.7503C263.333 16.7821 264.314 17.815 264.282 19.0572L263.763 39.3006C263.731 40.5428 262.698 41.524 261.456 41.4921C260.214 41.4603 259.233 40.4274 259.265 39.1852L259.644 24.3721L246.636 36.7304L239.794 33.1543L231.652 41.9862L228.344 38.9361L238.823 27.5689L245.869 31.2519L256.545 21.1096L241.732 20.7297C240.49 20.6979 239.509 19.665 239.54 18.4228C239.572 17.1806 240.605 16.1994 241.847 16.2312L262.091 16.7503Z" fill="#7FF8D5"/>
</g>
<defs>
<filter id="filter0_d_6407_42902" x="222.644" y="10.5305" width="49.3375" height="58.6891" filterUnits="userSpaceOnUse" color-interpolation-filters="sRGB">
<feFlood flood-opacity="0" result="BackgroundImageFix"/>
<feColorMatrix in="SourceAlpha" type="matrix" values="0 0 0 0 0 0 0 0 0 0 0 0 0 0 0 0 0 0 127 0" result="hardAlpha"/>
<feOffset dx="1" dy="1"/>
<feGaussianBlur stdDeviation="3.35"/>
<feComposite in2="hardAlpha" operator="out"/>
<feColorMatrix type="matrix" values="0 0 0 0 0.498039 0 0 0 0 0.972549 0 0 0 0 0.835294 0 0 0 0.6 0"/>
<feBlend mode="normal" in2="BackgroundImageFix" result="effect1_dropShadow_6407_42902"/>
<feBlend mode="normal" in="SourceGraphic" in2="effect1_dropShadow_6407_42902" result="shape"/>
</filter>
</defs>
</svg>
