<svg width="284" height="107" viewBox="0 0 284 107" fill="none" xmlns="http://www.w3.org/2000/svg">
<g clip-path="url(#clip0_5979_39797)">
<path d="M-1 8C-1 3.58172 2.58172 0 7 0H275C279.418 0 283 3.58172 283 8V107H-1V8Z" fill="#151515"/>
<path d="M259.783 18.9995L258.968 16.8573C258.922 16.7364 258.99 16.6022 259.115 16.5679L-nan -nanL-nan -nanL259.115 16.5679C259.239 16.5337 259.367 16.6143 259.389 16.7417L259.783 18.9995Z" fill="#2A2A2A"/>
<path d="M260.098 18.7022L260.305 17.4281C260.319 17.3412 260.406 17.286 260.491 17.3099L-nan -nanL-nan -nanL260.491 17.3099C260.575 17.3337 260.62 17.426 260.587 17.5074L260.098 18.7022Z" fill="url(#paint0_linear_5979_39797)"/>
<path d="M260.678 19.7941L261.851 17.1805C261.917 17.033 262.096 16.9745 262.237 17.0545L-nan -nanL-nan -nanL262.237 17.0545C262.377 17.1344 262.418 17.318 262.325 17.4503L260.678 19.7941Z" fill="#2A2A2A"/>
<path d="M261.221 19.812L262.53 18.8686C262.619 18.8043 262.744 18.8321 262.798 18.928L-nan -nanL-nan -nanL262.798 18.928C262.852 19.024 262.81 19.1453 262.708 19.1879L261.221 19.812Z" fill="url(#paint1_linear_5979_39797)"/>
<path d="M261.105 20.4232L263.783 19.4046C263.934 19.3471 264.102 19.4323 264.145 19.5882L-nan -nanL-nan -nanL264.145 19.5882C264.187 19.7441 264.087 19.903 263.927 19.9308L261.105 20.4232Z" fill="#2A2A2A"/>
<path d="M261.478 20.8188L263.07 21.0774C263.179 21.0951 263.248 21.2033 263.218 21.3091L-nan -nanL-nan -nanL263.218 21.3091C263.188 21.415 263.073 21.4713 262.971 21.4296L261.478 20.8188Z" fill="url(#paint2_linear_5979_39797)"/>
<path d="M260.968 21.1719L263.581 22.3451C263.729 22.4113 263.787 22.5902 263.707 22.7307L-nan -nanL-nan -nanL263.707 22.7307C263.627 22.8712 263.444 22.9123 263.311 22.8194L260.968 21.1719Z" fill="#2A2A2A"/>
<path d="M260.95 21.7147L261.893 23.0237C261.957 23.113 261.93 23.2383 261.834 23.292L-nan -nanL-nan -nanL261.834 23.292C261.738 23.3458 261.616 23.304 261.574 23.2026L260.95 21.7147Z" fill="url(#paint3_linear_5979_39797)"/>
<path d="M260.34 21.5993L261.359 24.277C261.417 24.4281 261.331 24.5959 261.175 24.6387L-nan -nanL-nan -nanL261.175 24.6387C261.02 24.6815 260.861 24.5808 260.833 24.4215L260.34 21.5993Z" fill="#2A2A2A"/>
<path d="M259.943 21.9718L259.684 23.5645C259.667 23.6731 259.558 23.7421 259.453 23.7123L-nan -nanL-nan -nanL259.453 23.7123C259.347 23.6824 259.29 23.5671 259.332 23.4653L259.943 21.9718Z" fill="url(#paint4_linear_5979_39797)"/>
<path d="M259.592 21.4598L258.419 24.0734C258.352 24.2209 258.174 24.2794 258.033 24.1994L-nan -nanL-nan -nanL258.033 24.1994C257.892 24.1195 257.851 23.9359 257.944 23.8036L259.592 21.4598Z" fill="#2A2A2A"/>
<path d="M259.049 21.4419L257.74 22.3853C257.651 22.4496 257.525 22.4218 257.472 22.3259L-nan -nanL-nan -nanL257.472 22.3259C257.418 22.23 257.46 22.1086 257.561 22.0661L259.049 21.4419Z" fill="url(#paint5_linear_5979_39797)"/>
<path d="M259.164 20.8268L256.487 21.8454C256.336 21.9029 256.168 21.8177 256.125 21.6618L-nan -nanL-nan -nanL256.125 21.6618C256.082 21.5059 256.183 21.347 256.342 21.3192L259.164 20.8268Z" fill="#2A2A2A"/>
<path d="M258.792 20.4312L257.199 20.1726C257.091 20.1549 257.022 20.0467 257.051 19.9409L-nan -nanL-nan -nanL257.051 19.9409C257.081 19.835 257.197 19.7787 257.298 19.8204L258.792 20.4312Z" fill="url(#paint6_linear_5979_39797)"/>
<path d="M259.302 20.0781L256.688 18.9049C256.541 18.8387 256.482 18.6598 256.562 18.5193L-nan -nanL-nan -nanL256.562 18.5193C256.642 18.3788 256.826 18.3377 256.958 18.4306L259.302 20.0781Z" fill="#2A2A2A"/>
<path d="M259.32 19.5353L258.376 18.2263C258.312 18.137 258.34 18.0117 258.436 17.958L-nan -nanL-nan -nanL258.436 17.958C258.532 17.9042 258.653 17.946 258.696 18.0474L259.32 19.5353Z" fill="url(#paint7_linear_5979_39797)"/>
<g opacity="0.8">
<path d="M216.074 9.3356L215.531 7.90749C215.5 7.8269 215.545 7.73741 215.629 7.71457L-nan -nanL-nan -nanL215.629 7.71457C215.712 7.69173 215.796 7.74545 215.811 7.8304L216.074 9.3356Z" fill="#2A2A2A"/>
<path d="M216.286 9.13743L216.424 8.28798C216.434 8.23009 216.491 8.19329 216.548 8.20919L-nan -nanL-nan -nanL216.548 8.20919C216.604 8.22509 216.634 8.28661 216.612 8.3409L216.286 9.13743Z" fill="url(#paint8_linear_5979_39797)"/>
<path d="M216.671 9.86667L217.453 8.12422C217.498 8.02589 217.617 7.98693 217.71 8.04024L-nan -nanL-nan -nanL217.71 8.04024C217.804 8.09354 217.832 8.21594 217.77 8.30412L216.671 9.86667Z" fill="#2A2A2A"/>
<path d="M217.032 9.87727L217.904 9.24837C217.964 9.2055 218.048 9.22399 218.083 9.28795L-nan -nanL-nan -nanL218.083 9.28795C218.119 9.35191 218.091 9.43281 218.024 9.46117L217.032 9.87727Z" fill="url(#paint9_linear_5979_39797)"/>
<path d="M216.957 10.2847L218.743 9.60569C218.843 9.56736 218.955 9.62413 218.984 9.72806L-nan -nanL-nan -nanL218.984 9.72806C219.012 9.832 218.945 9.93794 218.839 9.95646L216.957 10.2847Z" fill="#2A2A2A"/>
<path d="M217.205 10.5498L218.267 10.7222C218.339 10.7339 218.385 10.8061 218.365 10.8767L-nan -nanL-nan -nanL218.365 10.8767C218.346 10.9472 218.269 10.9848 218.201 10.957L217.205 10.5498Z" fill="url(#paint10_linear_5979_39797)"/>
<path d="M216.864 10.7826L218.606 11.5647C218.705 11.6088 218.744 11.7281 218.69 11.8218L-nan -nanL-nan -nanL218.69 11.8218C218.637 11.9154 218.515 11.9429 218.426 11.8809L216.864 10.7826Z" fill="#2A2A2A"/>
<path d="M216.853 11.147L217.482 12.0197C217.525 12.0792 217.506 12.1628 217.443 12.1986L-nan -nanL-nan -nanL217.443 12.1986C217.379 12.2344 217.298 12.2066 217.269 12.139L216.853 11.147Z" fill="url(#paint11_linear_5979_39797)"/>
<path d="M216.448 11.0688L217.127 12.8539C217.165 12.9547 217.108 13.0665 217.004 13.0951L-nan -nanL-nan -nanL217.004 13.0951C216.9 13.1236 216.794 13.0565 216.776 12.9503L216.448 11.0688Z" fill="#2A2A2A"/>
<path d="M216.183 11.3184L216.01 12.3803C215.998 12.4526 215.926 12.4986 215.856 12.4787L-nan -nanL-nan -nanL215.856 12.4787C215.785 12.4589 215.748 12.382 215.775 12.3141L216.183 11.3184Z" fill="url(#paint12_linear_5979_39797)"/>
<path d="M215.948 10.9732L215.166 12.7156C215.122 12.814 215.002 12.8529 214.909 12.7996L-nan -nanL-nan -nanL214.909 12.7996C214.815 12.7463 214.788 12.6239 214.85 12.5357L215.948 10.9732Z" fill="#2A2A2A"/>
<path d="M215.587 10.9626L214.715 11.5915C214.655 11.6343 214.572 11.6159 214.536 11.5519L-nan -nanL-nan -nanL214.536 11.5519C214.5 11.4879 214.528 11.407 214.595 11.3787L215.587 10.9626Z" fill="url(#paint13_linear_5979_39797)"/>
<path d="M215.662 10.5551L213.877 11.2342C213.776 11.2725 213.664 11.2157 213.635 11.1118L-nan -nanL-nan -nanL213.635 11.1118C213.607 11.0078 213.674 10.9019 213.78 10.8834L215.662 10.5551Z" fill="#2A2A2A"/>
<path d="M215.414 10.2901L214.352 10.1176C214.28 10.1059 214.234 10.0337 214.254 9.96318L-nan -nanL-nan -nanL214.254 9.96318C214.274 9.89261 214.35 9.85509 214.418 9.88284L215.414 10.2901Z" fill="url(#paint14_linear_5979_39797)"/>
<path d="M215.755 10.0573L214.013 9.27514C213.915 9.231 213.876 9.11177 213.929 9.01809L-nan -nanL-nan -nanL213.929 9.01809C213.982 8.9244 214.105 8.89698 214.193 8.95896L215.755 10.0573Z" fill="#2A2A2A"/>
<path d="M215.766 9.69284L215.137 8.82011C215.094 8.76063 215.113 8.67709 215.177 8.64125L-nan -nanL-nan -nanL215.177 8.64125C215.241 8.60541 215.321 8.63325 215.35 8.70086L215.766 9.69284Z" fill="url(#paint15_linear_5979_39797)"/>
</g>
<g opacity="0.8">
<path d="M185.362 17.3195L184.004 13.7492C183.928 13.5477 184.041 13.324 184.249 13.2669L-nan -nanL-nan -nanL184.249 13.2669C184.457 13.2098 184.669 13.3441 184.706 13.5565L185.362 17.3195Z" fill="#2A2A2A"/>
<path d="M185.891 16.824L186.235 14.7004C186.259 14.5557 186.403 14.4637 186.544 14.5034L-nan -nanL-nan -nanL186.544 14.5034C186.685 14.5432 186.761 14.697 186.705 14.8327L185.891 16.824Z" fill="url(#paint16_linear_5979_39797)"/>
<path d="M186.36 17.5068L187.924 14.0219C188.013 13.8252 188.251 13.7473 188.438 13.8539L-nan -nanL-nan -nanL188.438 13.8539C188.626 13.9605 188.681 14.2053 188.557 14.3817L186.36 17.5068Z" fill="#2A2A2A"/>
<path d="M187.085 17.528L188.83 16.2702C188.949 16.1844 189.117 16.2214 189.188 16.3493L-nan -nanL-nan -nanL189.188 16.3493C189.26 16.4772 189.204 16.6391 189.069 16.6958L187.085 17.528Z" fill="url(#paint17_linear_5979_39797)"/>
<path d="M186.932 18.339L190.503 16.9809C190.704 16.9043 190.928 17.0178 190.985 17.2257L-nan -nanL-nan -nanL190.985 17.2257C191.042 17.4335 190.908 17.6454 190.695 17.6825L186.932 18.339Z" fill="#2A2A2A"/>
<path d="M187.428 18.8691L189.552 19.2139C189.696 19.2374 189.788 19.3817 189.749 19.5229L-nan -nanL-nan -nanL189.749 19.5229C189.709 19.664 189.555 19.739 189.419 19.6835L187.428 18.8691Z" fill="url(#paint18_linear_5979_39797)"/>
<path d="M186.747 19.3386L190.232 20.9028C190.429 20.9911 190.507 21.2296 190.4 21.417L-nan -nanL-nan -nanL190.4 21.417C190.293 21.6043 190.049 21.6592 189.872 21.5352L186.747 19.3386Z" fill="#2A2A2A"/>
<path d="M186.722 20.0596L187.98 21.8051C188.066 21.924 188.029 22.0911 187.901 22.1628L-nan -nanL-nan -nanL187.901 22.1628C187.773 22.2345 187.611 22.1788 187.554 22.0436L186.722 20.0596Z" fill="url(#paint19_linear_5979_39797)"/>
<path d="M185.909 19.911L187.267 23.4813C187.344 23.6828 187.23 23.9065 187.022 23.9636L-nan -nanL-nan -nanL187.022 23.9636C186.815 24.0207 186.603 23.8864 186.566 23.674L185.909 19.911Z" fill="#2A2A2A"/>
<path d="M185.381 20.4064L185.036 22.53C185.013 22.6748 184.868 22.7668 184.727 22.727L-nan -nanL-nan -nanL184.727 22.727C184.586 22.6873 184.511 22.5335 184.566 22.3977L185.381 20.4064Z" fill="url(#paint20_linear_5979_39797)"/>
<path d="M184.913 19.7237L183.349 23.2086C183.261 23.4053 183.022 23.4832 182.835 23.3766L-nan -nanL-nan -nanL182.835 23.3766C182.648 23.27 182.593 23.0252 182.717 22.8488L184.913 19.7237Z" fill="#2A2A2A"/>
<path d="M184.188 19.7025L182.443 20.9603C182.324 21.046 182.157 21.009 182.085 20.8811L-nan -nanL-nan -nanL182.085 20.8811C182.014 20.7532 182.069 20.5914 182.204 20.5347L184.188 19.7025Z" fill="url(#paint21_linear_5979_39797)"/>
<path d="M184.341 18.8876L180.771 20.2457C180.569 20.3223 180.345 20.2088 180.288 20.0009L-nan -nanL-nan -nanL180.288 20.0009C180.231 19.793 180.366 19.5812 180.578 19.5441L184.341 18.8876Z" fill="#2A2A2A"/>
<path d="M183.846 18.3575L181.722 18.0126C181.577 17.9891 181.485 17.8448 181.525 17.7037L-nan -nanL-nan -nanL181.525 17.7037C181.565 17.5626 181.718 17.4875 181.854 17.543L183.846 18.3575Z" fill="url(#paint22_linear_5979_39797)"/>
<path d="M184.526 17.8919L181.041 16.3276C180.845 16.2393 180.767 16.0009 180.873 15.8135L-nan -nanL-nan -nanL180.873 15.8135C180.98 15.6261 181.225 15.5713 181.401 15.6953L184.526 17.8919Z" fill="#2A2A2A"/>
<path d="M184.551 17.1708L183.294 15.4254C183.208 15.3064 183.245 15.1393 183.373 15.0677L-nan -nanL-nan -nanL183.373 15.0677C183.501 14.996 183.663 15.0516 183.719 15.1869L184.551 17.1708Z" fill="url(#paint23_linear_5979_39797)"/>
</g>
<g opacity="0.5">
<path d="M205.81 22.7164L205.131 20.9312C205.093 20.8305 205.15 20.7186 205.253 20.6901L-nan -nanL-nan -nanL205.253 20.6901C205.357 20.6615 205.463 20.7287 205.482 20.8349L205.81 22.7164Z" fill="#2A2A2A"/>
<path d="M206.075 22.4667L206.248 21.4049C206.259 21.3325 206.331 21.2865 206.402 21.3064L-nan -nanL-nan -nanL206.402 21.3064C206.473 21.3263 206.51 21.4032 206.482 21.471L206.075 22.4667Z" fill="url(#paint24_linear_5979_39797)"/>
<path d="M206.555 23.3714L207.533 21.1934C207.588 21.0704 207.737 21.0218 207.854 21.0884L-nan -nanL-nan -nanL207.854 21.0884C207.971 21.155 208.006 21.308 207.928 21.4182L206.555 23.3714Z" fill="#2A2A2A"/>
<path d="M207.009 23.3856L208.1 22.5995C208.174 22.5459 208.279 22.5691 208.323 22.649L-nan -nanL-nan -nanL208.323 22.649C208.368 22.7289 208.333 22.8301 208.249 22.8655L207.009 23.3856Z" fill="url(#paint25_linear_5979_39797)"/>
<path d="M206.914 23.8969L209.146 23.0481C209.271 23.0002 209.411 23.0712 209.447 23.2011L-nan -nanL-nan -nanL209.447 23.2011C209.483 23.331 209.399 23.4634 209.266 23.4866L206.914 23.8969Z" fill="#2A2A2A"/>
<path d="M207.223 24.2273L208.551 24.4428C208.641 24.4575 208.698 24.5477 208.674 24.6359L-nan -nanL-nan -nanL208.674 24.6359C208.649 24.7241 208.553 24.771 208.468 24.7363L207.223 24.2273Z" fill="url(#paint26_linear_5979_39797)"/>
<path d="M206.799 24.5202L208.977 25.4979C209.099 25.553 209.148 25.7021 209.082 25.8192L-nan -nanL-nan -nanL209.082 25.8192C209.015 25.9363 208.862 25.9706 208.752 25.8931L206.799 24.5202Z" fill="#2A2A2A"/>
<path d="M206.784 24.9718L207.57 26.0627C207.624 26.1371 207.601 26.2415 207.521 26.2863L-nan -nanL-nan -nanL207.521 26.2863C207.441 26.3311 207.34 26.2963 207.304 26.2118L206.784 24.9718Z" fill="url(#paint27_linear_5979_39797)"/>
<path d="M206.275 24.877L207.124 27.1084C207.172 27.2343 207.101 27.3742 206.971 27.4099L-nan -nanL-nan -nanL206.971 27.4099C206.841 27.4455 206.708 27.3616 206.685 27.2289L206.275 24.877Z" fill="#2A2A2A"/>
<path d="M205.945 25.1861L205.729 26.5134C205.714 26.6039 205.624 26.6614 205.536 26.6365L-nan -nanL-nan -nanL205.536 26.6365C205.448 26.6117 205.401 26.5155 205.436 26.4307L205.945 25.1861Z" fill="url(#paint28_linear_5979_39797)"/>
<path d="M205.654 24.7614L204.676 26.9394C204.621 27.0624 204.472 27.1111 204.355 27.0444L-nan -nanL-nan -nanL204.355 27.0444C204.238 26.9778 204.203 26.8248 204.281 26.7146L205.654 24.7614Z" fill="#2A2A2A"/>
<path d="M205.2 24.7472L204.109 25.5333C204.035 25.5869 203.93 25.5638 203.886 25.4838L-nan -nanL-nan -nanL203.886 25.4838C203.841 25.4039 203.876 25.3027 203.96 25.2673L205.2 24.7472Z" fill="url(#paint29_linear_5979_39797)"/>
<path d="M205.295 24.2359L203.063 25.0847C202.938 25.1326 202.798 25.0616 202.762 24.9317L-nan -nanL-nan -nanL202.762 24.9317C202.726 24.8018 202.81 24.6694 202.943 24.6462L205.295 24.2359Z" fill="#2A2A2A"/>
<path d="M204.986 23.9055L203.658 23.69C203.568 23.6753 203.511 23.5852 203.535 23.4969L-nan -nanL-nan -nanL203.535 23.4969C203.56 23.4087 203.656 23.3618 203.741 23.3965L204.986 23.9055Z" fill="url(#paint30_linear_5979_39797)"/>
<path d="M205.41 23.6126L203.232 22.6349C203.11 22.5798 203.061 22.4307 203.127 22.3136L-nan -nanL-nan -nanL203.127 22.3136C203.194 22.1965 203.347 22.1622 203.457 22.2397L205.41 23.6126Z" fill="#2A2A2A"/>
<path d="M205.425 23.161L204.639 22.0701C204.585 21.9957 204.608 21.8913 204.688 21.8465L-nan -nanL-nan -nanL204.688 21.8465C204.768 21.8017 204.869 21.8365 204.905 21.921L205.425 23.161Z" fill="url(#paint31_linear_5979_39797)"/>
</g>
<g opacity="0.8">
<path d="M266.776 32.4288L265.418 28.8586C265.342 28.6571 265.455 28.4334 265.663 28.3763L-nan -nanL-nan -nanL265.663 28.3763C265.871 28.3192 266.083 28.4535 266.12 28.6658L266.776 32.4288Z" fill="#2A2A2A"/>
<path d="M267.305 31.9334L267.649 29.8098C267.673 29.6651 267.817 29.5731 267.958 29.6128L-nan -nanL-nan -nanL267.958 29.6128C268.1 29.6526 268.175 29.8064 268.119 29.9421L267.305 31.9334Z" fill="url(#paint32_linear_5979_39797)"/>
<path d="M267.774 32.6161L269.338 29.1313C269.427 28.9346 269.665 28.8567 269.852 28.9633L-nan -nanL-nan -nanL269.852 28.9633C270.04 29.0699 270.095 29.3147 269.971 29.491L267.774 32.6161Z" fill="#2A2A2A"/>
<path d="M268.499 32.6373L270.245 31.3795C270.363 31.2938 270.531 31.3308 270.602 31.4587L-nan -nanL-nan -nanL270.602 31.4587C270.674 31.5866 270.618 31.7484 270.483 31.8052L268.499 32.6373Z" fill="url(#paint33_linear_5979_39797)"/>
<path d="M268.347 33.4484L271.917 32.0903C272.118 32.0136 272.342 32.1272 272.399 32.335L-nan -nanL-nan -nanL272.399 32.335C272.456 32.5429 272.322 32.7548 272.11 32.7918L268.347 33.4484Z" fill="#2A2A2A"/>
<path d="M268.842 33.9785L270.966 34.3233C271.11 34.3468 271.202 34.4911 271.163 34.6322L-nan -nanL-nan -nanL271.163 34.6322C271.123 34.7734 270.969 34.8484 270.833 34.7929L268.842 33.9785Z" fill="url(#paint34_linear_5979_39797)"/>
<path d="M268.161 34.448L271.646 36.0122C271.843 36.1005 271.921 36.339 271.814 36.5263L-nan -nanL-nan -nanL271.814 36.5263C271.707 36.7137 271.463 36.7685 271.286 36.6446L268.161 34.448Z" fill="#2A2A2A"/>
<path d="M268.136 35.169L269.394 36.9145C269.48 37.0334 269.443 37.2005 269.315 37.2722L-nan -nanL-nan -nanL269.315 37.2722C269.187 37.3439 269.025 37.2882 268.968 37.153L268.136 35.169Z" fill="url(#paint35_linear_5979_39797)"/>
<path d="M267.323 35.0204L268.681 38.5906C268.758 38.7921 268.644 39.0158 268.436 39.0729L-nan -nanL-nan -nanL268.436 39.0729C268.229 39.1301 268.017 38.9957 267.98 38.7834L267.323 35.0204Z" fill="#2A2A2A"/>
<path d="M266.795 35.5158L266.45 37.6394C266.427 37.7842 266.282 37.8762 266.141 37.8364L-nan -nanL-nan -nanL266.141 37.8364C266 37.7966 265.925 37.6428 265.981 37.5071L266.795 35.5158Z" fill="url(#paint36_linear_5979_39797)"/>
<path d="M266.327 34.8331L264.763 38.318C264.675 38.5146 264.436 38.5925 264.249 38.4859L-nan -nanL-nan -nanL264.249 38.4859C264.062 38.3793 264.007 38.1345 264.131 37.9582L266.327 34.8331Z" fill="#2A2A2A"/>
<path d="M265.602 34.8119L263.857 36.0697C263.738 36.1554 263.571 36.1184 263.499 35.9905L-nan -nanL-nan -nanL263.499 35.9905C263.428 35.8626 263.483 35.7008 263.619 35.6441L265.602 34.8119Z" fill="url(#paint37_linear_5979_39797)"/>
<path d="M265.755 33.9969L262.185 35.355C261.983 35.4317 261.76 35.3182 261.702 35.1103L-nan -nanL-nan -nanL261.702 35.1103C261.645 34.9024 261.78 34.6905 261.992 34.6535L265.755 33.9969Z" fill="#2A2A2A"/>
<path d="M265.26 33.4668L263.136 33.122C262.991 33.0985 262.899 32.9542 262.939 32.8131L-nan -nanL-nan -nanL262.939 32.8131C262.979 32.6719 263.133 32.5969 263.268 32.6524L265.26 33.4668Z" fill="url(#paint38_linear_5979_39797)"/>
<path d="M265.94 33.0012L262.455 31.437C262.259 31.3487 262.181 31.1103 262.288 30.9229L-nan -nanL-nan -nanL262.288 30.9229C262.394 30.7355 262.639 30.6807 262.815 30.8046L265.94 33.0012Z" fill="#2A2A2A"/>
<path d="M265.965 32.2802L264.708 30.5348C264.622 30.4158 264.659 30.2487 264.787 30.177L-nan -nanL-nan -nanL264.787 30.177C264.915 30.1053 265.077 30.161 265.133 30.2962L265.965 32.2802Z" fill="url(#paint39_linear_5979_39797)"/>
</g>
<path d="M200.81 30.8086L201.051 31.9914L202.236 32.2353L201.073 32.5061L200.81 33.6621L200.524 32.5061L199.383 32.2353L200.524 31.9914L200.81 30.8086Z" fill="url(#paint40_linear_5979_39797)"/>
<path d="M210.184 16.8633L210.576 18.7827L212.5 19.1785L210.612 19.6178L210.184 21.4938L209.721 19.6178L207.869 19.1785L209.721 18.7827L210.184 16.8633Z" fill="url(#paint41_linear_5979_39797)"/>
<path d="M251.038 17.5234L251.585 14.8446L254.269 14.2921L251.634 13.679L251.038 11.0609L250.392 13.679L247.807 14.2921L250.392 14.8446L251.038 17.5234Z" fill="url(#paint42_linear_5979_39797)"/>
<path d="M216.684 65.5352L217.076 67.4545L219 67.8504L217.112 68.2897L216.684 70.1657L216.221 68.2897L214.369 67.8504L216.221 67.4545L216.684 65.5352Z" fill="url(#paint43_linear_5979_39797)"/>
<rect x="-4.59999e-09" y="0.077175" width="35.6432" height="35.6432" rx="4.03882" transform="matrix(0.866025 0.5 -0.866025 0.5 227.428 34.4097)" fill="#202020" stroke="url(#paint44_linear_5979_39797)" stroke-width="0.15435"/>
<path d="M198.846 51.5402L198.868 42.0346H255.672L255.65 51.5402H198.846Z" stroke="url(#paint45_linear_5979_39797)" stroke-width="0.5145"/>
<mask id="path-89-inside-1_5979_39797" fill="white">
<path d="M198.68 41.2734H198.902L198.902 51.8502H198.68L198.68 41.2734Z"/>
</mask>
<path d="M198.68 41.2734V40.7589H198.165L198.165 41.2734L198.68 41.2734ZM198.902 41.2734L199.417 41.2734L199.417 40.7589H198.902V41.2734ZM198.902 51.8502V52.3647H199.417L199.417 51.8502L198.902 51.8502ZM198.68 51.8502L198.165 51.8502L198.165 52.3647H198.68V51.8502ZM198.68 41.7879H198.902V40.7589H198.68V41.7879ZM198.388 41.2734L198.388 51.8502L199.417 51.8502L199.417 41.2734L198.388 41.2734ZM198.902 51.3357H198.68V52.3647H198.902V51.3357ZM199.194 51.8502L199.194 41.2734L198.165 41.2734L198.165 51.8502L199.194 51.8502Z" fill="#202020" mask="url(#path-89-inside-1_5979_39797)"/>
<mask id="path-91-inside-2_5979_39797" fill="white">
<path d="M255.924 41.7773H256.062L256.062 52.1035H255.924L255.924 41.7773Z"/>
</mask>
<path d="M255.924 41.7773V41.2628H255.409L255.409 41.7773L255.924 41.7773ZM256.062 41.7773L256.576 41.7773L256.576 41.2628H256.062V41.7773ZM256.062 52.1035V52.618H256.576L256.576 52.1035L256.062 52.1035ZM255.924 52.1035L255.409 52.1035L255.409 52.618H255.924V52.1035ZM255.924 42.2918H256.062V41.2628H255.924V42.2918ZM255.547 41.7773L255.547 52.1035L256.576 52.1035L256.576 41.7773L255.547 41.7773ZM256.062 51.589H255.924V52.618H256.062V51.589ZM256.438 52.1035L256.438 41.7773L255.409 41.7773L255.409 52.1035L256.438 52.1035Z" fill="#202020" mask="url(#path-91-inside-2_5979_39797)"/>
<rect x="-4.59999e-09" y="0.077175" width="35.6432" height="35.6432" rx="4.03882" transform="matrix(0.866025 0.5 -0.866025 0.5 227.428 23.855)" fill="#202020" stroke="url(#paint46_linear_5979_39797)" stroke-width="0.15435"/>
<rect x="-4.59999e-09" y="0.077175" width="29.4266" height="29.4266" rx="4.03882" transform="matrix(0.866025 0.5 -0.866025 0.5 227.397 27.0659)" fill="url(#paint47_linear_5979_39797)"/>
<rect x="-4.59999e-09" y="0.077175" width="29.4266" height="29.4266" rx="4.03882" transform="matrix(0.866025 0.5 -0.866025 0.5 227.397 27.0659)" stroke="#202020" stroke-width="0.15435"/>
<rect x="-4.59999e-09" y="0.077175" width="29.4266" height="29.4266" rx="4.03882" transform="matrix(0.866025 0.5 -0.866025 0.5 227.397 27.0659)" stroke="#202020" stroke-width="0.15435"/>
<rect x="-4.59999e-09" y="0.077175" width="29.4266" height="29.4266" rx="4.03882" transform="matrix(0.866025 0.5 -0.866025 0.5 227.397 27.0659)" stroke="#202020" stroke-width="0.15435"/>
<rect x="-4.59999e-09" y="0.077175" width="27.1798" height="27.1798" rx="1.98082" transform="matrix(0.866025 0.5 -0.866025 0.5 227.397 29.312)" fill="#202020" stroke="url(#paint48_linear_5979_39797)" stroke-width="0.15435"/>
<rect x="226.988" y="29.8157" width="0.0688415" height="13.2405" stroke="#202020" stroke-width="0.0688415"/>
<mask id="path-97-inside-3_5979_39797" fill="white">
<path d="M226.953 43.0273L227.023 42.9086L238.988 49.9615L238.727 49.9329L226.953 43.0273Z"/>
</mask>
<path d="M226.953 43.0273L226.509 42.767L226.249 43.2108L226.693 43.4711L226.953 43.0273ZM227.023 42.9086L227.284 42.4653L226.84 42.2035L226.579 42.6483L227.023 42.9086ZM238.988 49.9615L238.932 50.473L239.249 49.5183L238.988 49.9615ZM238.727 49.9329L238.467 50.3767L238.562 50.4324L238.671 50.4444L238.727 49.9329ZM227.397 43.2876L227.467 43.1689L226.579 42.6483L226.509 42.767L227.397 43.2876ZM226.762 43.3518L238.727 50.4047L239.249 49.5183L227.284 42.4653L226.762 43.3518ZM239.044 49.45L238.783 49.4215L238.671 50.4444L238.932 50.473L239.044 49.45ZM238.987 49.4891L227.213 42.5835L226.693 43.4711L238.467 50.3767L238.987 49.4891Z" fill="#202020" mask="url(#path-97-inside-3_5979_39797)"/>
<mask id="path-99-inside-4_5979_39797" fill="white">
<path d="M227.111 43.1445L227.042 43.0258L215.605 49.8073L215.74 49.8073L227.111 43.1445Z"/>
</mask>
<path d="M227.111 43.1445L227.555 42.8842L227.816 43.3282L227.371 43.5884L227.111 43.1445ZM227.042 43.0258L226.779 42.5832L227.224 42.3195L227.485 42.7655L227.042 43.0258ZM215.605 49.8073L215.605 50.3218L213.729 50.3218L215.343 49.3647L215.605 49.8073ZM215.74 49.8073L216 50.2512L215.88 50.3218L215.74 50.3218L215.74 49.8073ZM226.668 43.4048L226.598 43.2861L227.485 42.7655L227.555 42.8842L226.668 43.4048ZM227.304 43.4683L215.868 50.2498L215.343 49.3647L226.779 42.5832L227.304 43.4683ZM215.605 49.2928L215.74 49.2928L215.74 50.3218L215.605 50.3218L215.605 49.2928ZM215.48 49.3634L226.851 42.7006L227.371 43.5884L216 50.2512L215.48 49.3634Z" fill="#202020" mask="url(#path-99-inside-4_5979_39797)"/>
<path d="M229.235 41.3555H226.523C226.471 41.3555 226.423 41.3814 226.394 41.4245L223.274 46.1289C223.206 46.2315 223.28 46.3685 223.403 46.3685H225.414C225.514 46.3685 225.587 46.4611 225.565 46.5579L224.637 50.5424C224.601 50.6981 224.796 50.7994 224.903 50.6802L230.089 44.8711C230.177 44.7716 230.107 44.614 229.974 44.614H228.077C227.962 44.614 227.887 44.4922 227.939 44.3895L229.373 41.58C229.425 41.4773 229.35 41.3555 229.235 41.3555Z" fill="#202020" stroke="url(#paint49_linear_5979_39797)" stroke-width="0.3087"/>
<rect x="0.222785" y="0.385875" width="19.679" height="2.98006" rx="1.49003" transform="matrix(0.866025 0.5 -2.20305e-08 1 203.577 48.666)" stroke="#202020" stroke-width="0.5145"/>
<rect x="0.0668355" y="0.115762" width="20.5134" height="3.05826" rx="1.52913" transform="matrix(0.866025 0.5 -2.20305e-08 1 203.099 49.0252)" fill="#202020" stroke="url(#paint50_linear_5979_39797)" stroke-width="0.15435"/>
<rect x="0.222785" y="0.128625" width="20.209" height="2.83387" rx="1.41694" transform="matrix(0.866025 -0.5 2.20305e-08 1 234.786 58.6114)" stroke="#202020" stroke-width="0.5145"/>
<rect x="0.0668355" y="0.0385875" width="20.0392" height="3.05826" rx="1.52913" transform="matrix(0.866025 -0.5 2.20305e-08 1 235.224 58.7287)" fill="#202020" stroke="url(#paint51_linear_5979_39797)" stroke-width="0.15435"/>
<path d="M244.824 37.7755C239.349 43.9097 230.3 44.7447 224.613 39.669C218.926 34.5933 218.73 25.5077 224.205 19.3735C229.679 13.2394 238.729 12.4044 244.416 17.4801C250.103 22.5558 250.298 31.6414 244.824 37.7755Z" fill="#202020" stroke="url(#paint52_linear_5979_39797)" stroke-width="0.2625"/>
<path fill-rule="evenodd" clip-rule="evenodd" d="M222.976 38.0372L222.744 37.0199L237.446 33.2421L239.394 41.7869C234.403 43.9496 228.609 43.3253 224.524 39.6797C223.953 39.1698 223.437 38.62 222.976 38.0372Z" fill="url(#paint53_linear_5979_39797)"/>
<path d="M242.957 35.6818C237.482 41.8159 228.433 42.6509 222.746 37.5752C217.058 32.4995 216.863 23.4139 222.338 17.2798C227.812 11.1456 236.861 10.3106 242.549 15.3863C248.236 20.462 248.431 29.5477 242.957 35.6818Z" fill="#202020" stroke="url(#paint54_linear_5979_39797)" stroke-width="0.2625"/>
<path fill-rule="evenodd" clip-rule="evenodd" d="M233.916 24.1729L230.543 17.1992L229.748 18.6722L232.559 24.3783L230.515 24.6879L229.948 25.7381L230.842 27.5854L224.448 28.4932L223.652 29.9665L231.424 28.7897L234.797 35.7634L235.592 34.2903L232.774 28.5853L234.825 28.2747L235.392 27.2245L234.508 25.3969L240.893 24.469L241.688 22.9961L233.916 24.1729ZM233.158 25.5931L233.924 27.1479L232.185 27.3947L231.42 25.8456L233.158 25.5931Z" fill="url(#paint55_linear_5979_39797)"/>
<path d="M219.535 57.7788C219.535 59.3925 218.553 60.8629 216.948 61.9333C215.342 63.0035 213.12 63.6679 210.662 63.6679C208.204 63.6679 205.982 63.0035 204.377 61.9333C202.771 60.8629 201.79 59.3925 201.79 57.7788C201.79 56.1651 202.771 54.6947 204.377 53.6242C205.982 52.5541 208.204 51.8897 210.662 51.8897C213.12 51.8897 215.342 52.5541 216.948 53.6242C218.553 54.6947 219.535 56.1651 219.535 57.7788Z" fill="#202020" stroke="url(#paint56_linear_5979_39797)" stroke-width="0.15435"/>
<mask id="mask0_5979_39797" style="mask-type:alpha" maskUnits="userSpaceOnUse" x="201" y="51" width="19" height="13">
<path d="M219.535 57.7788C219.535 59.3925 218.553 60.8629 216.948 61.9333C215.342 63.0035 213.12 63.6679 210.662 63.6679C208.204 63.6679 205.982 63.0035 204.377 61.9333C202.771 60.8629 201.79 59.3925 201.79 57.7788C201.79 56.1651 202.771 54.6947 204.377 53.6242C205.982 52.5541 208.204 51.8897 210.662 51.8897C213.12 51.8897 215.342 52.5541 216.948 53.6242C218.553 54.6947 219.535 56.1651 219.535 57.7788Z" fill="white" stroke="black" stroke-width="0.15435"/>
</mask>
<g mask="url(#mask0_5979_39797)">
<rect x="199.418" y="55.0234" width="9.17887" height="9.63781" fill="url(#paint57_linear_5979_39797)"/>
</g>
<path d="M219.535 55.0249C219.535 56.6386 218.553 58.109 216.948 59.1794C215.342 60.2496 213.12 60.914 210.662 60.914C208.204 60.914 205.982 60.2496 204.377 59.1794C202.771 58.109 201.79 56.6386 201.79 55.0249C201.79 53.4112 202.771 51.9408 204.377 50.8703C205.982 49.8002 208.204 49.1358 210.662 49.1358C213.12 49.1358 215.342 49.8002 216.948 50.8703C218.553 51.9408 219.535 53.4112 219.535 55.0249Z" fill="#202020" stroke="url(#paint58_linear_5979_39797)" stroke-width="0.15435"/>
<path fill-rule="evenodd" clip-rule="evenodd" d="M215.273 56.5196C214.517 56.8216 213.799 56.8436 213.117 56.5844C213.268 56.9118 213.246 57.2005 213.054 57.4499C212.861 57.6986 212.445 57.9059 211.804 58.071C211.508 58.1496 211.191 58.1989 210.868 58.2167C210.572 58.2304 210.302 58.2148 210.057 58.1681C209.812 58.1213 209.57 58.0436 209.332 57.9344C209.093 57.8249 208.875 57.6997 208.679 57.559C208.458 57.3982 208.255 57.2295 208.07 57.0538L206.393 57.5959L205.854 57.0277L207.504 56.4933C207.317 56.2966 207.177 56.1459 207.083 56.0407L205.426 56.5769L204.886 56.0083L206.562 55.4659C206.496 55.4003 206.421 55.3373 206.34 55.2773C206.234 55.1956 206.159 55.1318 206.114 55.0847L205.413 54.346L206.725 54.0712L207.114 54.4815C207.231 54.6042 207.411 54.6394 207.653 54.5866L210.296 53.7321L210.353 53.7909C210.339 53.7698 210.322 53.7494 210.303 53.7299L212.19 53.1193C212.458 52.991 212.503 52.8328 212.325 52.6458L211.936 52.2363L213.014 51.8876L213.751 52.6723C213.9 52.8298 214.016 52.9483 214.098 53.0283L215.755 52.4921L216.295 53.061L214.671 53.5862C214.871 53.7854 215.018 53.9343 215.112 54.0327L216.723 53.5115L217.263 54.08L215.606 54.6163C215.759 54.8207 215.874 55.0091 215.949 55.1811C216.023 55.3528 216.057 55.5243 216.049 55.6938C216.041 55.8637 215.966 56.0206 215.826 56.1641C215.684 56.308 215.476 56.4345 215.201 56.5427L215.274 56.5192L215.273 56.5196ZM210.936 56.8849C211.093 56.8336 211.215 56.7699 211.303 56.6933C211.387 56.6223 211.446 56.5425 211.477 56.4588C211.504 56.3667 211.504 56.2729 211.475 56.1815C211.451 56.0864 211.415 55.9926 211.367 55.9007C211.311 55.8006 211.245 55.7027 211.167 55.6078C211.034 55.4365 210.882 55.2704 210.712 55.1105L210.538 54.9376L208.316 55.6562C208.335 55.676 208.368 55.7252 208.413 55.8036C208.459 55.882 208.504 55.9445 208.549 55.9915C208.681 56.1286 208.823 56.262 208.976 56.3915C209.044 56.4482 209.129 56.5127 209.231 56.5839C209.334 56.6555 209.43 56.7138 209.518 56.7592C209.607 56.8046 209.709 56.8477 209.822 56.8897C209.937 56.9317 210.049 56.9589 210.159 56.9717C210.269 56.9845 210.384 56.9864 210.508 56.9772C210.638 56.9665 210.762 56.9415 210.876 56.9036L210.935 56.8845L210.936 56.8849ZM214.157 55.4396C214.074 55.5067 213.961 55.5632 213.816 55.6101L213.758 55.6295C213.654 55.6628 213.531 55.688 213.39 55.7045C213.249 55.7215 213.132 55.7156 213.042 55.6864C212.944 55.6557 212.841 55.6293 212.736 55.6075C212.614 55.5805 212.512 55.5316 212.443 55.468C212.374 55.4054 212.288 55.3491 212.19 55.3008C212.089 55.2485 212.011 55.1831 211.962 55.1097C211.918 55.0433 211.854 54.9822 211.773 54.9293C211.697 54.88 211.641 54.8213 211.61 54.7577C211.585 54.7107 211.555 54.6645 211.522 54.6193L213.541 53.9662C213.576 53.9772 213.633 54.0224 213.712 54.1013C213.789 54.181 213.856 54.247 213.908 54.2987C213.961 54.3511 214.022 54.4244 214.094 54.5185C214.167 54.6126 214.222 54.6938 214.257 54.7625C214.294 54.8312 214.323 54.9108 214.343 55.0009C214.362 55.0909 214.357 55.1699 214.326 55.2375C214.296 55.3051 214.24 55.3725 214.157 55.4396Z" fill="url(#paint59_linear_5979_39797)"/>
<path d="M236.671 56.8569C236.671 58.4706 237.652 59.941 239.257 61.0115C240.863 62.0816 243.085 62.746 245.543 62.746C248.001 62.746 250.223 62.0816 251.828 61.0115C253.434 59.941 254.415 58.4706 254.415 56.8569C254.415 55.2432 253.434 53.7728 251.828 52.7023C250.223 51.6322 248.001 50.9678 245.543 50.9678C243.085 50.9678 240.863 51.6322 239.257 52.7023C237.652 53.7728 236.671 55.2432 236.671 56.8569Z" fill="#202020" stroke="url(#paint60_linear_5979_39797)" stroke-width="0.15435"/>
<mask id="mask1_5979_39797" style="mask-type:alpha" maskUnits="userSpaceOnUse" x="236" y="50" width="19" height="13">
<path d="M236.671 56.8569C236.671 58.4706 237.652 59.941 239.257 61.0115C240.863 62.0816 243.085 62.746 245.543 62.746C248.001 62.746 250.223 62.0816 251.828 61.0115C253.434 59.941 254.415 58.4706 254.415 56.8569C254.415 55.2432 253.434 53.7728 251.828 52.7023C250.223 51.6322 248.001 50.9678 245.543 50.9678C243.085 50.9678 240.863 51.6322 239.257 52.7023C237.652 53.7728 236.671 55.2432 236.671 56.8569Z" fill="white" stroke="white" stroke-width="0.15435"/>
</mask>
<g mask="url(#mask1_5979_39797)">
<rect width="9.17887" height="9.63781" transform="matrix(-1 0 0 1 256.787 54.1016)" fill="url(#paint61_linear_5979_39797)"/>
</g>
<path d="M236.671 54.103C236.671 55.7167 237.652 57.1871 239.257 58.2576C240.863 59.3277 243.085 59.9921 245.543 59.9921C248.001 59.9921 250.223 59.3277 251.828 58.2576C253.434 57.1871 254.415 55.7167 254.415 54.103C254.415 52.4893 253.434 51.0189 251.828 49.9484C250.223 48.8783 248.001 48.2139 245.543 48.2139C243.085 48.2139 240.863 48.8783 239.257 49.9484C237.652 51.0189 236.671 52.4893 236.671 54.103Z" fill="#202020" stroke="url(#paint62_linear_5979_39797)" stroke-width="0.15435"/>
<path d="M240.93 51.2082L244.489 53.2632C244.505 53.2719 244.505 53.2893 244.489 53.2981C244.43 53.3858 244.385 53.4645 244.325 53.552C244.25 53.6657 244.16 53.7883 244.1 53.9109L243.831 54.3309L243.606 54.6723L243.337 55.0926C243.262 55.2065 243.187 55.3201 243.112 55.4515C243.052 55.5389 242.993 55.6441 242.933 55.7316C242.918 55.7403 242.933 55.749 242.903 55.749L242.887 55.7578C242.856 55.6875 242.84 55.6259 242.81 55.5559C242.639 55.178 242.483 54.7917 242.312 54.4139C242.127 54.0101 241.955 53.5971 241.769 53.1931C241.599 52.8155 241.428 52.4379 241.273 52.0691C241.148 51.7877 241.04 51.5158 240.9 51.2431C240.93 51.2257 240.915 51.2169 240.93 51.2082C240.915 51.2169 240.93 51.2082 240.93 51.2082V51.2082Z" fill="url(#paint63_linear_5979_39797)"/>
<path d="M248.779 52.3563C248.705 52.5754 248.601 52.7942 248.511 53.0043C248.214 53.6878 247.917 54.3535 247.619 55.0366C247.604 55.0453 247.619 55.0541 247.604 55.0628C247.589 55.0715 247.574 55.0628 247.574 55.0628L244.503 53.29C244.488 53.2812 244.503 53.2725 244.518 53.2638C244.609 53.2464 244.701 53.2294 244.806 53.2032C245.08 53.1516 245.353 53.0824 245.625 53.0305C245.868 52.9787 246.095 52.9356 246.323 52.8747C246.565 52.8229 246.793 52.7798 247.035 52.7279C247.233 52.6848 247.444 52.6327 247.657 52.5983C247.854 52.5552 248.091 52.44 248.303 52.4056C248.455 52.371 248.584 52.4056 248.584 52.4056C248.584 52.4056 248.764 52.3651 248.779 52.3563Z" fill="url(#paint64_linear_5979_39797)"/>
<path d="M250.599 56.7925C250.599 56.7925 250.584 56.8012 250.599 56.7925C250.584 56.8012 250.584 56.8012 250.553 56.801C249.824 56.7287 249.124 56.6562 248.394 56.5837L246.204 56.3663C245.505 56.294 244.79 56.2305 244.075 56.149L243.528 56.0947C243.513 56.0859 243.498 56.0947 243.482 56.0859C243.498 56.0772 243.513 56.0859 243.528 56.0772C244.18 55.9828 244.847 55.8796 245.5 55.7851C246.259 55.6824 247.017 55.562 247.776 55.4591C247.897 55.4419 248.033 55.416 248.155 55.3988C248.17 55.3901 248.185 55.399 248.2 55.4078L250.599 56.7925Z" fill="url(#paint65_linear_5979_39797)"/>
<path d="M242.914 55.7626C242.899 55.7539 242.899 55.7539 242.914 55.7626C242.988 55.6313 243.049 55.3671 243.124 55.2357L243.292 54.7333C243.367 54.602 243.47 54.4761 243.544 54.3447C243.649 54.1608 243.721 54.0426 243.825 53.8587C243.915 53.7361 244.015 53.4951 244.106 53.3727C244.166 53.2852 244.426 53.3907 244.47 53.2942C244.246 53.1297 244.516 53.1358 244.486 53.268L247.601 55.067C247.602 55.0847 247.586 55.0757 247.571 55.0845C247.496 55.0932 247.435 55.1104 247.374 55.1101L242.96 55.7542C242.929 55.7539 242.914 55.7626 242.914 55.7626ZM249.327 52.7132C249.342 52.722 249.342 52.722 249.342 52.7394C249.718 53.9686 250.079 55.1889 250.455 56.4181C250.502 56.5497 250.534 56.6726 250.581 56.8044L248.151 55.402C248.226 55.2181 248.3 55.0341 248.39 54.8592L249.327 52.7307C249.311 52.722 249.327 52.7132 249.327 52.7132Z" fill="url(#paint66_linear_5979_39797)"/>
<path d="M244.506 53.2732L240.947 51.2188L248.706 52.3483C248.736 52.3483 248.766 52.3483 248.782 52.3573C248.691 52.3747 248.599 52.3917 248.494 52.4178C248.387 52.4437 248.266 52.4609 248.16 52.4869C248.1 52.5043 248.024 52.5128 247.948 52.5387C247.842 52.5649 247.705 52.5905 247.599 52.6167C247.538 52.6339 247.463 52.6426 247.402 52.6598L246.947 52.7638C246.856 52.781 246.796 52.7984 246.705 52.8156C246.599 52.8415 246.477 52.8587 246.371 52.8846C246.311 52.9021 246.235 52.9106 246.174 52.928L245.719 53.0317C245.629 53.0491 245.568 53.0663 245.477 53.0835C245.371 53.1097 245.249 53.1267 245.143 53.1526C245.067 53.1613 244.991 53.1872 244.916 53.1959L244.506 53.2735L244.506 53.2732Z" fill="url(#paint67_linear_5979_39797)"/>
<rect x="0.0668355" y="-0.0385875" width="20.5134" height="2.87301" transform="matrix(0.866025 0.5 2.20305e-08 -1 203.099 48.5066)" fill="#202020" stroke="url(#paint68_linear_5979_39797)" stroke-width="0.15435"/>
<rect x="0.0668355" y="-0.0385875" width="20.5134" height="2.7005" rx="0.622825" transform="matrix(0.866025 0.5 2.20305e-08 -1 204.015 45.9168)" fill="#202020" stroke="url(#paint69_linear_5979_39797)" stroke-width="0.15435"/>
<mask id="path-126-inside-5_5979_39797" fill="white">
<path d="M203.889 46.0508L221.905 56.4526L221.905 56.3149L203.889 45.9131L203.889 46.0508Z"/>
</mask>
<path d="M203.889 46.0508L203.889 46.2051L203.755 46.128L203.755 45.9736L203.889 46.0508ZM221.905 56.4526L222.039 56.5298L222.039 56.6841L221.905 56.607L221.905 56.4526ZM221.905 56.3149L221.905 56.1606L222.039 56.2378L222.039 56.3921L221.905 56.3149ZM203.889 45.9131L203.755 45.8359L203.755 45.6816L203.889 45.7587L203.889 45.9131ZM203.889 45.8964L221.905 56.2983L221.905 56.607L203.889 46.2051L203.889 45.8964ZM221.771 56.3754L221.771 56.2378L222.039 56.3921L222.039 56.5298L221.771 56.3754ZM221.905 56.4693L203.889 46.0674L203.889 45.7587L221.905 56.1606L221.905 56.4693ZM204.022 45.9903L204.022 46.128L203.755 45.9736L203.755 45.8359L204.022 45.9903Z" fill="#202020" mask="url(#path-126-inside-5_5979_39797)"/>
<rect x="0.0668355" y="-0.0385875" width="17.3338" height="0.497827" transform="matrix(0.866025 0.5 2.20305e-08 -1 204.933 50.198)" fill="#202020" stroke="url(#paint70_linear_5979_39797)" stroke-width="0.15435"/>
<path d="M252.129 45.3998L252.129 48.3764L234.364 58.6331L234.364 55.5235L252.129 45.3998Z" fill="#202020" stroke="url(#paint71_linear_5979_39797)" stroke-width="0.15435"/>
<rect x="0.0668355" y="0.0385875" width="20.5134" height="2.7005" rx="0.797825" transform="matrix(0.866025 -0.5 2.20305e-08 1 232.929 53.4592)" fill="#202020" stroke="url(#paint72_linear_5979_39797)" stroke-width="0.15435"/>
<path d="M232.18 56.7456L250.063 46.421L250.063 46.4255L232.18 56.7501L232.18 56.7456Z" stroke="url(#paint73_linear_5979_39797)" stroke-width="0.15435"/>
<path d="M236.247 58.1564L236.408 57.5992L251.021 49.1897L251.19 49.5289L236.247 58.1564Z" stroke="#202020" stroke-width="0.15435"/>
<path d="M182.163 48.3237C183.018 50.7915 185.568 52.1396 187.853 51.3476C190.137 50.5556 191.305 47.9182 190.449 45.4504C189.594 42.9825 187.044 41.6344 184.759 42.4264C182.475 43.2184 181.307 45.8558 182.163 48.3237Z" fill="#202020" stroke="url(#paint74_linear_5979_39797)" stroke-width="0.13125"/>
<path fill-rule="evenodd" clip-rule="evenodd" d="M188.548 51.086L188.74 50.8167L184.873 47.8993L183.25 50.1769C184.455 51.426 186.238 51.953 187.888 51.3808C188.12 51.3005 188.34 51.2015 188.548 51.086Z" fill="url(#paint75_linear_5979_39797)"/>
<path d="M182.971 47.937C183.827 50.4048 186.377 51.7529 188.661 50.9609C190.945 50.1689 192.114 47.5315 191.258 45.0636C190.402 42.5958 187.852 41.2477 185.568 42.0397C183.284 42.8317 182.115 45.4691 182.971 47.937Z" fill="#202020" stroke="url(#paint76_linear_5979_39797)" stroke-width="0.13125"/>
<path d="M188.536 44.9311C188.284 44.318 187.692 44.2739 187.021 44.4233L186.752 43.5586L186.256 43.725L186.517 44.5593C186.387 44.6009 186.257 44.6456 186.127 44.6903L185.865 43.8559L185.383 44.0176L185.65 44.8618C185.547 44.8972 185.446 44.9316 185.347 44.9635L185.346 44.9609L184.699 45.1678L184.871 45.7044C184.871 45.7044 185.214 45.5904 185.211 45.5986C185.402 45.5396 185.502 45.6392 185.553 45.7362L185.853 46.68C185.866 46.6764 185.884 46.6718 185.904 46.6692C185.888 46.6738 185.871 46.6784 185.854 46.6836L186.271 47.9945C186.282 48.0602 186.279 48.1706 186.145 48.206C186.152 48.2101 185.803 48.2959 185.803 48.2959L185.897 48.9064L186.511 48.7513C186.627 48.7221 186.741 48.6954 186.854 48.6676L187.115 49.4918L187.601 49.3762L187.342 48.5542C187.477 48.5228 187.608 48.491 187.737 48.4587L187.994 49.2823L188.493 49.1631L188.232 48.3216C189.073 48.0551 189.62 47.6782 189.445 46.8294C189.303 46.1408 188.897 45.9298 188.365 45.9519C188.617 45.709 188.721 45.3783 188.536 44.9311ZM188.387 47.005C188.585 47.6469 187.495 47.8553 187.162 47.9431L186.812 46.8289C187.144 46.7349 188.179 46.3324 188.387 47.005ZM187.651 45.4564C187.833 46.0453 186.927 46.2348 186.65 46.3154L186.329 45.2926C186.606 45.2074 187.46 44.8392 187.651 45.4564Z" fill="url(#paint77_linear_5979_39797)" stroke="#202020" stroke-width="0.00866198" stroke-miterlimit="10"/>
</g>
<defs>
<linearGradient id="paint0_linear_5979_39797" x1="260.098" y1="18.7022" x2="260.491" y2="17.3099" gradientUnits="userSpaceOnUse">
<stop stop-color="#CCFF00"/>
<stop offset="1" stop-color="#70F6FF"/>
</linearGradient>
<linearGradient id="paint1_linear_5979_39797" x1="261.221" y1="19.812" x2="262.798" y2="18.928" gradientUnits="userSpaceOnUse">
<stop stop-color="#CCFF00"/>
<stop offset="1" stop-color="#70F6FF"/>
</linearGradient>
<linearGradient id="paint2_linear_5979_39797" x1="261.478" y1="20.8188" x2="263.218" y2="21.3091" gradientUnits="userSpaceOnUse">
<stop stop-color="#CCFF00"/>
<stop offset="1" stop-color="#70F6FF"/>
</linearGradient>
<linearGradient id="paint3_linear_5979_39797" x1="260.95" y1="21.7147" x2="261.834" y2="23.292" gradientUnits="userSpaceOnUse">
<stop stop-color="#CCFF00"/>
<stop offset="1" stop-color="#70F6FF"/>
</linearGradient>
<linearGradient id="paint4_linear_5979_39797" x1="259.943" y1="21.9718" x2="259.453" y2="23.7123" gradientUnits="userSpaceOnUse">
<stop stop-color="#CCFF00"/>
<stop offset="1" stop-color="#70F6FF"/>
</linearGradient>
<linearGradient id="paint5_linear_5979_39797" x1="259.049" y1="21.4419" x2="257.472" y2="22.3259" gradientUnits="userSpaceOnUse">
<stop stop-color="#CCFF00"/>
<stop offset="1" stop-color="#70F6FF"/>
</linearGradient>
<linearGradient id="paint6_linear_5979_39797" x1="258.792" y1="20.4312" x2="257.051" y2="19.9409" gradientUnits="userSpaceOnUse">
<stop stop-color="#CCFF00"/>
<stop offset="1" stop-color="#70F6FF"/>
</linearGradient>
<linearGradient id="paint7_linear_5979_39797" x1="259.32" y1="19.5353" x2="258.436" y2="17.958" gradientUnits="userSpaceOnUse">
<stop stop-color="#CCFF00"/>
<stop offset="1" stop-color="#70F6FF"/>
</linearGradient>
<linearGradient id="paint8_linear_5979_39797" x1="216.286" y1="9.13743" x2="216.548" y2="8.20919" gradientUnits="userSpaceOnUse">
<stop stop-color="#CCFF00"/>
<stop offset="1" stop-color="#70F6FF"/>
</linearGradient>
<linearGradient id="paint9_linear_5979_39797" x1="217.032" y1="9.87727" x2="218.083" y2="9.28795" gradientUnits="userSpaceOnUse">
<stop stop-color="#CCFF00"/>
<stop offset="1" stop-color="#70F6FF"/>
</linearGradient>
<linearGradient id="paint10_linear_5979_39797" x1="217.205" y1="10.5498" x2="218.365" y2="10.8767" gradientUnits="userSpaceOnUse">
<stop stop-color="#CCFF00"/>
<stop offset="1" stop-color="#70F6FF"/>
</linearGradient>
<linearGradient id="paint11_linear_5979_39797" x1="216.853" y1="11.147" x2="217.443" y2="12.1986" gradientUnits="userSpaceOnUse">
<stop stop-color="#CCFF00"/>
<stop offset="1" stop-color="#70F6FF"/>
</linearGradient>
<linearGradient id="paint12_linear_5979_39797" x1="216.183" y1="11.3184" x2="215.856" y2="12.4787" gradientUnits="userSpaceOnUse">
<stop stop-color="#CCFF00"/>
<stop offset="1" stop-color="#70F6FF"/>
</linearGradient>
<linearGradient id="paint13_linear_5979_39797" x1="215.587" y1="10.9626" x2="214.536" y2="11.5519" gradientUnits="userSpaceOnUse">
<stop stop-color="#CCFF00"/>
<stop offset="1" stop-color="#70F6FF"/>
</linearGradient>
<linearGradient id="paint14_linear_5979_39797" x1="215.414" y1="10.2901" x2="214.254" y2="9.96318" gradientUnits="userSpaceOnUse">
<stop stop-color="#CCFF00"/>
<stop offset="1" stop-color="#70F6FF"/>
</linearGradient>
<linearGradient id="paint15_linear_5979_39797" x1="215.766" y1="9.69284" x2="215.177" y2="8.64125" gradientUnits="userSpaceOnUse">
<stop stop-color="#CCFF00"/>
<stop offset="1" stop-color="#70F6FF"/>
</linearGradient>
<linearGradient id="paint16_linear_5979_39797" x1="185.891" y1="16.824" x2="186.544" y2="14.5034" gradientUnits="userSpaceOnUse">
<stop stop-color="#CCFF00"/>
<stop offset="1" stop-color="#70F6FF"/>
</linearGradient>
<linearGradient id="paint17_linear_5979_39797" x1="187.085" y1="17.528" x2="189.188" y2="16.3493" gradientUnits="userSpaceOnUse">
<stop stop-color="#CCFF00"/>
<stop offset="1" stop-color="#70F6FF"/>
</linearGradient>
<linearGradient id="paint18_linear_5979_39797" x1="187.428" y1="18.8691" x2="189.749" y2="19.5229" gradientUnits="userSpaceOnUse">
<stop stop-color="#CCFF00"/>
<stop offset="1" stop-color="#70F6FF"/>
</linearGradient>
<linearGradient id="paint19_linear_5979_39797" x1="186.722" y1="20.0596" x2="187.901" y2="22.1628" gradientUnits="userSpaceOnUse">
<stop stop-color="#CCFF00"/>
<stop offset="1" stop-color="#70F6FF"/>
</linearGradient>
<linearGradient id="paint20_linear_5979_39797" x1="185.381" y1="20.4064" x2="184.727" y2="22.727" gradientUnits="userSpaceOnUse">
<stop stop-color="#CCFF00"/>
<stop offset="1" stop-color="#70F6FF"/>
</linearGradient>
<linearGradient id="paint21_linear_5979_39797" x1="184.188" y1="19.7025" x2="182.085" y2="20.8811" gradientUnits="userSpaceOnUse">
<stop stop-color="#CCFF00"/>
<stop offset="1" stop-color="#70F6FF"/>
</linearGradient>
<linearGradient id="paint22_linear_5979_39797" x1="183.846" y1="18.3575" x2="181.525" y2="17.7037" gradientUnits="userSpaceOnUse">
<stop stop-color="#CCFF00"/>
<stop offset="1" stop-color="#70F6FF"/>
</linearGradient>
<linearGradient id="paint23_linear_5979_39797" x1="184.551" y1="17.1708" x2="183.373" y2="15.0677" gradientUnits="userSpaceOnUse">
<stop stop-color="#CCFF00"/>
<stop offset="1" stop-color="#70F6FF"/>
</linearGradient>
<linearGradient id="paint24_linear_5979_39797" x1="206.075" y1="22.4667" x2="206.402" y2="21.3064" gradientUnits="userSpaceOnUse">
<stop stop-color="#CCFF00"/>
<stop offset="1" stop-color="#70F6FF"/>
</linearGradient>
<linearGradient id="paint25_linear_5979_39797" x1="207.009" y1="23.3856" x2="208.323" y2="22.649" gradientUnits="userSpaceOnUse">
<stop stop-color="#CCFF00"/>
<stop offset="1" stop-color="#70F6FF"/>
</linearGradient>
<linearGradient id="paint26_linear_5979_39797" x1="207.223" y1="24.2273" x2="208.674" y2="24.6359" gradientUnits="userSpaceOnUse">
<stop stop-color="#CCFF00"/>
<stop offset="1" stop-color="#70F6FF"/>
</linearGradient>
<linearGradient id="paint27_linear_5979_39797" x1="206.784" y1="24.9718" x2="207.521" y2="26.2863" gradientUnits="userSpaceOnUse">
<stop stop-color="#CCFF00"/>
<stop offset="1" stop-color="#70F6FF"/>
</linearGradient>
<linearGradient id="paint28_linear_5979_39797" x1="205.945" y1="25.1861" x2="205.536" y2="26.6365" gradientUnits="userSpaceOnUse">
<stop stop-color="#CCFF00"/>
<stop offset="1" stop-color="#70F6FF"/>
</linearGradient>
<linearGradient id="paint29_linear_5979_39797" x1="205.2" y1="24.7472" x2="203.886" y2="25.4838" gradientUnits="userSpaceOnUse">
<stop stop-color="#CCFF00"/>
<stop offset="1" stop-color="#70F6FF"/>
</linearGradient>
<linearGradient id="paint30_linear_5979_39797" x1="204.986" y1="23.9055" x2="203.535" y2="23.4969" gradientUnits="userSpaceOnUse">
<stop stop-color="#CCFF00"/>
<stop offset="1" stop-color="#70F6FF"/>
</linearGradient>
<linearGradient id="paint31_linear_5979_39797" x1="205.425" y1="23.161" x2="204.688" y2="21.8465" gradientUnits="userSpaceOnUse">
<stop stop-color="#CCFF00"/>
<stop offset="1" stop-color="#70F6FF"/>
</linearGradient>
<linearGradient id="paint32_linear_5979_39797" x1="267.305" y1="31.9334" x2="267.958" y2="29.6128" gradientUnits="userSpaceOnUse">
<stop stop-color="#CCFF00"/>
<stop offset="1" stop-color="#70F6FF"/>
</linearGradient>
<linearGradient id="paint33_linear_5979_39797" x1="268.499" y1="32.6373" x2="270.602" y2="31.4587" gradientUnits="userSpaceOnUse">
<stop stop-color="#CCFF00"/>
<stop offset="1" stop-color="#70F6FF"/>
</linearGradient>
<linearGradient id="paint34_linear_5979_39797" x1="268.842" y1="33.9785" x2="271.163" y2="34.6322" gradientUnits="userSpaceOnUse">
<stop stop-color="#CCFF00"/>
<stop offset="1" stop-color="#70F6FF"/>
</linearGradient>
<linearGradient id="paint35_linear_5979_39797" x1="268.136" y1="35.169" x2="269.315" y2="37.2722" gradientUnits="userSpaceOnUse">
<stop stop-color="#CCFF00"/>
<stop offset="1" stop-color="#70F6FF"/>
</linearGradient>
<linearGradient id="paint36_linear_5979_39797" x1="266.795" y1="35.5158" x2="266.141" y2="37.8364" gradientUnits="userSpaceOnUse">
<stop stop-color="#CCFF00"/>
<stop offset="1" stop-color="#70F6FF"/>
</linearGradient>
<linearGradient id="paint37_linear_5979_39797" x1="265.602" y1="34.8119" x2="263.499" y2="35.9905" gradientUnits="userSpaceOnUse">
<stop stop-color="#CCFF00"/>
<stop offset="1" stop-color="#70F6FF"/>
</linearGradient>
<linearGradient id="paint38_linear_5979_39797" x1="265.26" y1="33.4668" x2="262.939" y2="32.8131" gradientUnits="userSpaceOnUse">
<stop stop-color="#CCFF00"/>
<stop offset="1" stop-color="#70F6FF"/>
</linearGradient>
<linearGradient id="paint39_linear_5979_39797" x1="265.965" y1="32.2802" x2="264.787" y2="30.177" gradientUnits="userSpaceOnUse">
<stop stop-color="#CCFF00"/>
<stop offset="1" stop-color="#70F6FF"/>
</linearGradient>
<linearGradient id="paint40_linear_5979_39797" x1="200.81" y1="30.8086" x2="200.81" y2="33.6621" gradientUnits="userSpaceOnUse">
<stop stop-color="#CCFF00"/>
<stop offset="1" stop-color="#70F6FF"/>
</linearGradient>
<linearGradient id="paint41_linear_5979_39797" x1="210.184" y1="16.8633" x2="210.184" y2="21.4938" gradientUnits="userSpaceOnUse">
<stop stop-color="#CCFF00"/>
<stop offset="1" stop-color="#70F6FF"/>
</linearGradient>
<linearGradient id="paint42_linear_5979_39797" x1="251.038" y1="17.5234" x2="251.038" y2="11.0609" gradientUnits="userSpaceOnUse">
<stop stop-color="#CCFF00"/>
<stop offset="1" stop-color="#70F6FF"/>
</linearGradient>
<linearGradient id="paint43_linear_5979_39797" x1="216.684" y1="65.5352" x2="216.684" y2="70.1657" gradientUnits="userSpaceOnUse">
<stop stop-color="#CCFF00"/>
<stop offset="1" stop-color="#70F6FF"/>
</linearGradient>
<linearGradient id="paint44_linear_5979_39797" x1="17.8988" y1="0" x2="17.8988" y2="35.7976" gradientUnits="userSpaceOnUse">
<stop stop-color="#CCFF00"/>
<stop offset="1" stop-color="#70F6FF"/>
</linearGradient>
<linearGradient id="paint45_linear_5979_39797" x1="227.257" y1="41.7773" x2="227.257" y2="51.7974" gradientUnits="userSpaceOnUse">
<stop stop-color="#CCFF00"/>
<stop offset="1" stop-color="#70F6FF"/>
</linearGradient>
<linearGradient id="paint46_linear_5979_39797" x1="17.8988" y1="0" x2="17.8988" y2="35.7976" gradientUnits="userSpaceOnUse">
<stop stop-color="#CCFF00"/>
<stop offset="1" stop-color="#70F6FF"/>
</linearGradient>
<linearGradient id="paint47_linear_5979_39797" x1="14.7905" y1="0" x2="14.7905" y2="29.581" gradientUnits="userSpaceOnUse">
<stop stop-color="#CCFF00"/>
<stop offset="1" stop-color="#70F6FF"/>
</linearGradient>
<linearGradient id="paint48_linear_5979_39797" x1="13.6671" y1="0" x2="13.6671" y2="27.3341" gradientUnits="userSpaceOnUse">
<stop stop-color="#CCFF00"/>
<stop offset="1" stop-color="#70F6FF"/>
</linearGradient>
<linearGradient id="paint49_linear_5979_39797" x1="226.717" y1="41.3555" x2="226.717" y2="51.131" gradientUnits="userSpaceOnUse">
<stop stop-color="#CCFF00"/>
<stop offset="1" stop-color="#70F6FF"/>
</linearGradient>
<linearGradient id="paint50_linear_5979_39797" x1="10.3339" y1="0" x2="10.3339" y2="3.21261" gradientUnits="userSpaceOnUse">
<stop stop-color="#CCFF00"/>
<stop offset="1" stop-color="#70F6FF"/>
</linearGradient>
<linearGradient id="paint51_linear_5979_39797" x1="10.0968" y1="0" x2="10.0968" y2="3.21261" gradientUnits="userSpaceOnUse">
<stop stop-color="#CCFF00"/>
<stop offset="1" stop-color="#70F6FF"/>
</linearGradient>
<linearGradient id="paint52_linear_5979_39797" x1="244.503" y1="17.3821" x2="224.526" y2="39.7669" gradientUnits="userSpaceOnUse">
<stop stop-color="#CCFF00"/>
<stop offset="1" stop-color="#70F6FF"/>
</linearGradient>
<linearGradient id="paint53_linear_5979_39797" x1="236.957" y1="32.8059" x2="228.03" y2="42.8083" gradientUnits="userSpaceOnUse">
<stop stop-color="#CCFF00"/>
<stop offset="1" stop-color="#70F6FF"/>
</linearGradient>
<linearGradient id="paint54_linear_5979_39797" x1="242.636" y1="15.2884" x2="222.658" y2="37.6732" gradientUnits="userSpaceOnUse">
<stop stop-color="#CCFF00"/>
<stop offset="1" stop-color="#70F6FF"/>
</linearGradient>
<linearGradient id="paint55_linear_5979_39797" x1="236.115" y1="20.0977" x2="229.421" y2="32.9671" gradientUnits="userSpaceOnUse">
<stop stop-color="#CCFF00"/>
<stop offset="1" stop-color="#70F6FF"/>
</linearGradient>
<linearGradient id="paint56_linear_5979_39797" x1="210.662" y1="51.8125" x2="210.662" y2="63.745" gradientUnits="userSpaceOnUse">
<stop stop-color="#CCFF00"/>
<stop offset="1" stop-color="#70F6FF"/>
</linearGradient>
<linearGradient id="paint57_linear_5979_39797" x1="204.007" y1="55.0234" x2="204.007" y2="64.6613" gradientUnits="userSpaceOnUse">
<stop stop-color="#CCFF00"/>
<stop offset="1" stop-color="#70F6FF"/>
</linearGradient>
<linearGradient id="paint58_linear_5979_39797" x1="210.662" y1="49.0586" x2="210.662" y2="60.9911" gradientUnits="userSpaceOnUse">
<stop stop-color="#CCFF00"/>
<stop offset="1" stop-color="#70F6FF"/>
</linearGradient>
<linearGradient id="paint59_linear_5979_39797" x1="215.602" y1="52.404" x2="211.052" y2="60.2856" gradientUnits="userSpaceOnUse">
<stop stop-color="#CCFF00"/>
<stop offset="1" stop-color="#70F6FF"/>
</linearGradient>
<linearGradient id="paint60_linear_5979_39797" x1="245.543" y1="50.8906" x2="245.543" y2="62.8232" gradientUnits="userSpaceOnUse">
<stop stop-color="#CCFF00"/>
<stop offset="1" stop-color="#70F6FF"/>
</linearGradient>
<linearGradient id="paint61_linear_5979_39797" x1="4.58944" y1="0" x2="4.58944" y2="9.63781" gradientUnits="userSpaceOnUse">
<stop stop-color="#CCFF00"/>
<stop offset="1" stop-color="#70F6FF"/>
</linearGradient>
<linearGradient id="paint62_linear_5979_39797" x1="245.543" y1="48.1367" x2="245.543" y2="60.0693" gradientUnits="userSpaceOnUse">
<stop stop-color="#CCFF00"/>
<stop offset="1" stop-color="#70F6FF"/>
</linearGradient>
<linearGradient id="paint63_linear_5979_39797" x1="239.449" y1="52.0631" x2="241.912" y2="56.3286" gradientUnits="userSpaceOnUse">
<stop stop-color="#CCFF00"/>
<stop offset="1" stop-color="#70F6FF"/>
</linearGradient>
<linearGradient id="paint64_linear_5979_39797" x1="245.961" y1="52.4307" x2="247.512" y2="55.1161" gradientUnits="userSpaceOnUse">
<stop stop-color="#CCFF00"/>
<stop offset="1" stop-color="#70F6FF"/>
</linearGradient>
<linearGradient id="paint65_linear_5979_39797" x1="244.956" y1="55.2354" x2="247.041" y2="58.8469" gradientUnits="userSpaceOnUse">
<stop stop-color="#CCFF00"/>
<stop offset="1" stop-color="#70F6FF"/>
</linearGradient>
<linearGradient id="paint66_linear_5979_39797" x1="244.334" y1="53.2066" x2="247.453" y2="58.6099" gradientUnits="userSpaceOnUse">
<stop stop-color="#CCFF00"/>
<stop offset="1" stop-color="#70F6FF"/>
</linearGradient>
<linearGradient id="paint67_linear_5979_39797" x1="242.413" y1="50.3726" x2="244.864" y2="54.6188" gradientUnits="userSpaceOnUse">
<stop stop-color="#CCFF00"/>
<stop offset="1" stop-color="#70F6FF"/>
</linearGradient>
<linearGradient id="paint68_linear_5979_39797" x1="10.3339" y1="0" x2="10.3339" y2="3.02736" gradientUnits="userSpaceOnUse">
<stop stop-color="#CCFF00"/>
<stop offset="1" stop-color="#70F6FF"/>
</linearGradient>
<linearGradient id="paint69_linear_5979_39797" x1="10.3339" y1="0" x2="10.3339" y2="2.85485" gradientUnits="userSpaceOnUse">
<stop stop-color="#CCFF00"/>
<stop offset="1" stop-color="#70F6FF"/>
</linearGradient>
<linearGradient id="paint70_linear_5979_39797" x1="8.74405" y1="0" x2="8.74405" y2="0.652177" gradientUnits="userSpaceOnUse">
<stop stop-color="#CCFF00"/>
<stop offset="1" stop-color="#70F6FF"/>
</linearGradient>
<linearGradient id="paint71_linear_5979_39797" x1="243.246" y1="50.3174" x2="244.66" y2="52.7658" gradientUnits="userSpaceOnUse">
<stop stop-color="#CCFF00"/>
<stop offset="1" stop-color="#70F6FF"/>
</linearGradient>
<linearGradient id="paint72_linear_5979_39797" x1="10.3339" y1="0" x2="10.3339" y2="2.85485" gradientUnits="userSpaceOnUse">
<stop stop-color="#CCFF00"/>
<stop offset="1" stop-color="#70F6FF"/>
</linearGradient>
<linearGradient id="paint73_linear_5979_39797" x1="241.122" y1="51.5061" x2="241.19" y2="51.6253" gradientUnits="userSpaceOnUse">
<stop stop-color="#CCFF00"/>
<stop offset="1" stop-color="#70F6FF"/>
</linearGradient>
<linearGradient id="paint74_linear_5979_39797" x1="184.738" y1="42.3644" x2="187.874" y2="51.4096" gradientUnits="userSpaceOnUse">
<stop stop-color="#CCFF00"/>
<stop offset="1" stop-color="#70F6FF"/>
</linearGradient>
<linearGradient id="paint75_linear_5979_39797" x1="185.071" y1="47.8308" x2="186.472" y2="51.8718" gradientUnits="userSpaceOnUse">
<stop stop-color="#CCFF00"/>
<stop offset="1" stop-color="#70F6FF"/>
</linearGradient>
<linearGradient id="paint76_linear_5979_39797" x1="185.546" y1="41.9777" x2="188.683" y2="51.0229" gradientUnits="userSpaceOnUse">
<stop stop-color="#CCFF00"/>
<stop offset="1" stop-color="#70F6FF"/>
</linearGradient>
<linearGradient id="paint77_linear_5979_39797" x1="187.088" y1="43.5586" x2="187.088" y2="49.4918" gradientUnits="userSpaceOnUse">
<stop stop-color="#CCFF00"/>
<stop offset="1" stop-color="#70F6FF"/>
</linearGradient>
<clipPath id="clip0_5979_39797">
<path d="M0 8C0 3.58172 3.58172 0 8 0H276C280.418 0 284 3.58172 284 8V107H0V8Z" fill="white"/>
</clipPath>
</defs>
</svg>
