<?xml version="1.0" encoding="utf-8"?>
<!-- Generator: Adobe Illustrator 26.4.1, SVG Export Plug-In . SVG Version: 6.00 Build 0)  -->
<svg version="1.1" id="图层_1" xmlns="http://www.w3.org/2000/svg" xmlns:xlink="http://www.w3.org/1999/xlink" x="0px" y="0px"
	 viewBox="0 0 284 100" style="enable-background:new 0 0 284 100;" xml:space="preserve">
<style type="text/css">
	.st0{clip-path:url(#SVGID_00000068662720050558304730000011724505980482044333_);}
	.st1{fill:#151515;}
	.st2{opacity:0.8;}
	.st3{opacity:0.8;fill:#151515;}
	.st4{opacity:0.5;}
	.st5{opacity:0.5;fill:#151515;}
	.st6{fill:url(#SVGID_00000121281083254317721930000002414314412594962818_);}
	.st7{fill:url(#SVGID_00000143604070119438811140000016390206736082030991_);}
	.st8{fill:url(#SVGID_00000091703454589092018480000012862938467922128783_);}
	.st9{fill:url(#SVGID_00000088107391133259244520000013225399304527938204_);}
	.st10{fill:#202020;stroke:url(#SVGID_00000085226148016984709510000010184844044522286005_);stroke-width:0.1543;}
	.st11{fill:none;stroke:url(#SVGID_00000158728668887921688800000014592054286148778143_);stroke-width:0.5145;}
	.st12{fill:#FFFFFF;filter:url(#Adobe_OpacityMaskFilter);}
	.st13{mask:url(#path-89-inside-1_5979_39797_00000003093650298163000960000011145293376236792999_);fill:#202020;}
	.st14{fill:#FFFFFF;filter:url(#Adobe_OpacityMaskFilter_00000017481099356029761830000011972087030753840801_);}
	.st15{mask:url(#path-91-inside-2_5979_39797_00000001640081133517059600000003334045959363342527_);fill:#202020;}
	.st16{fill:#202020;stroke:url(#SVGID_00000165205705971476436880000001031133741449158822_);stroke-width:0.1543;}
	.st17{fill:url(#SVGID_00000049911686688581414940000017916080349288735663_);}
	.st18{fill:none;stroke:#202020;stroke-width:0.1543;}
	.st19{fill:#202020;stroke:url(#SVGID_00000035502551887977706910000012571431490212424582_);stroke-width:0.1543;}
	.st20{fill:none;stroke:#202020;stroke-width:6.884150e-02;}
	.st21{fill:#FFFFFF;filter:url(#Adobe_OpacityMaskFilter_00000066485911601340528150000011890005472898753679_);}
	.st22{mask:url(#path-97-inside-3_5979_39797_00000131363913251616353360000009970454028730522537_);fill:#202020;}
	.st23{fill:#FFFFFF;filter:url(#Adobe_OpacityMaskFilter_00000015356039567487718590000012749247454450151824_);}
	.st24{mask:url(#path-99-inside-4_5979_39797_00000105408719409970821440000013530504467620004530_);fill:#202020;}
	.st25{fill:#202020;stroke:url(#SVGID_00000137133946439337802320000009223976440846493370_);stroke-width:0.3087;}
	.st26{fill:none;stroke:#202020;stroke-width:0.5145;}
	.st27{fill:#202020;stroke:url(#SVGID_00000149353457615666509480000005954780458909446803_);stroke-width:0.1543;}
	.st28{fill:#202020;stroke:url(#SVGID_00000093892671719646895350000016763025956624154296_);stroke-width:0.1543;}
	.st29{fill:#202020;stroke:url(#SVGID_00000039844347118251093780000007236067421072061111_);stroke-width:0.2625;}
	.st30{fill-rule:evenodd;clip-rule:evenodd;fill:url(#SVGID_00000009584094835951385810000015670642950020400566_);}
	.st31{fill:#202020;stroke:url(#SVGID_00000051382348602744905520000005725364548400809130_);stroke-width:0.2625;}
	.st32{fill-rule:evenodd;clip-rule:evenodd;fill:url(#SVGID_00000111170207491429192020000010503094010681707937_);}
	.st33{fill:#202020;stroke:url(#SVGID_00000102516121848816009890000006125213251496908932_);stroke-width:0.1543;}
	
		.st34{fill:#FFFFFF;filter:url(#Adobe_OpacityMaskFilter_00000072959972059377337580000010882874219249007007_);stroke:#000000;stroke-width:0.1543;}
	.st35{mask:url(#mask0_5979_39797_00000141417645357119513890000012011152735897693882_);}
	.st36{fill:url(#SVGID_00000137841584986732108990000012214630414844862135_);}
	.st37{fill:#202020;stroke:url(#SVGID_00000075126236367177280450000002201014286865032378_);stroke-width:0.1543;}
	.st38{fill-rule:evenodd;clip-rule:evenodd;fill:url(#SVGID_00000053524233921517302500000005116046689003867544_);}
	.st39{fill:#202020;stroke:url(#SVGID_00000120533157470453418810000012250151538092178098_);stroke-width:0.1543;}
	
		.st40{fill:#FFFFFF;filter:url(#Adobe_OpacityMaskFilter_00000005231398907993740220000006781233566277878145_);stroke:#FFFFFF;stroke-width:0.1543;}
	.st41{mask:url(#mask1_5979_39797_00000099622937768649604520000016656768114055974074_);}
	.st42{fill:url(#SVGID_00000163790206943247378230000000391419080428482181_);}
	.st43{fill:#202020;stroke:url(#SVGID_00000181777841757158361720000018077365071805709197_);stroke-width:0.1543;}
	.st44{fill:url(#SVGID_00000141414443396740032550000016809275619186057095_);}
	.st45{fill:url(#SVGID_00000085241698983324001330000012842492134443585940_);}
	.st46{fill:url(#SVGID_00000148624678548598278530000009815815030846611115_);}
	.st47{fill:url(#SVGID_00000046319740357741453750000006053622881961030544_);}
	.st48{fill:url(#SVGID_00000013150964904910122060000009717988191574510478_);}
	.st49{fill:#202020;stroke:url(#SVGID_00000145028749394251516690000014846349185309524384_);stroke-width:0.1543;}
	.st50{fill:#202020;stroke:url(#SVGID_00000034793525103823971120000003559321366673576081_);stroke-width:0.1543;}
	.st51{fill:#FFFFFF;filter:url(#Adobe_OpacityMaskFilter_00000078754226189899313880000013596412626495343791_);}
	.st52{mask:url(#path-126-inside-5_5979_39797_00000021808949379965790480000009091710969806987168_);fill:#202020;}
	.st53{fill:#202020;stroke:url(#SVGID_00000118372661443688232910000003259498267360975525_);stroke-width:0.1543;}
	.st54{fill:#202020;stroke:url(#SVGID_00000026135210010461597600000008308448529231156920_);stroke-width:0.1543;}
	.st55{fill:#202020;stroke:url(#SVGID_00000106866533554407235210000000554456015651443873_);stroke-width:0.1543;}
	.st56{fill:none;stroke:url(#SVGID_00000070818260058930678860000011434286254645182127_);stroke-width:0.1543;}
	.st57{fill:#202020;stroke:url(#SVGID_00000000204305866635922180000016519655362055142831_);stroke-width:0.1312;}
	.st58{fill-rule:evenodd;clip-rule:evenodd;fill:url(#SVGID_00000060725623920092489400000002887593396279845306_);}
	.st59{fill:#202020;stroke:url(#SVGID_00000067925312048946268090000003656535685222655116_);stroke-width:0.1312;}
	
		.st60{fill:url(#SVGID_00000070093082468939302850000015410708825585808573_);stroke:#202020;stroke-width:8.661980e-03;stroke-miterlimit:10;}
</style>
<g>
	<defs>
		<path id="SVGID_1_" d="M0,7.9c0-4.4,3.6-8,8-8h268c4.4,0,8,3.6,8,8v92H0V7.9z"/>
	</defs>
	<clipPath id="SVGID_00000176734379284567677020000005582588201865462458_">
		<use xlink:href="#SVGID_1_"  style="overflow:visible;"/>
	</clipPath>
	<g style="clip-path:url(#SVGID_00000176734379284567677020000005582588201865462458_);">
		<path class="st1" d="M0,7.9c0-4.4,3.6-8,8-8h268c4.4,0,8,3.6,8,8v92H0V7.9z"/>
		<path class="st1" d="M1,7.9"/>
		<path class="st1" d="M1,7.9"/>
		<path class="st1" d="M1,7.9"/>
		<path class="st1" d="M1,7.9"/>
		<path class="st1" d="M1,7.9"/>
		<path class="st1" d="M1,7.9"/>
		<path class="st1" d="M1,7.9"/>
		<path class="st1" d="M1,7.9"/>
		<path class="st1" d="M1,7.9"/>
		<path class="st1" d="M1,7.9"/>
		<path class="st1" d="M1,7.9"/>
		<path class="st1" d="M1,7.9"/>
		<path class="st1" d="M1,7.9"/>
		<path class="st1" d="M1,7.9"/>
		<path class="st1" d="M1,7.9"/>
		<path class="st1" d="M1,7.9"/>
		<g class="st2">
			<path class="st3" d="M1,7.9"/>
			<path class="st3" d="M1,7.9"/>
			<path class="st3" d="M1,7.9"/>
			<path class="st3" d="M1,7.9"/>
			<path class="st3" d="M1,7.9"/>
			<path class="st3" d="M1,7.9"/>
			<path class="st3" d="M1,7.9"/>
			<path class="st3" d="M1,7.9"/>
			<path class="st3" d="M1,7.9"/>
			<path class="st3" d="M1,7.9"/>
			<path class="st3" d="M1,7.9"/>
			<path class="st3" d="M1,7.9"/>
			<path class="st3" d="M1,7.9"/>
			<path class="st3" d="M1,7.9"/>
			<path class="st3" d="M1,7.9"/>
			<path class="st3" d="M1,7.9"/>
		</g>
		<g class="st2">
			<path class="st3" d="M1,7.9"/>
			<path class="st3" d="M1,7.9"/>
			<path class="st3" d="M1,7.9"/>
			<path class="st3" d="M1,7.9"/>
			<path class="st3" d="M1,7.9"/>
			<path class="st3" d="M1,7.9"/>
			<path class="st3" d="M1,7.9"/>
			<path class="st3" d="M1,7.9"/>
			<path class="st3" d="M1,7.9"/>
			<path class="st3" d="M1,7.9"/>
			<path class="st3" d="M1,7.9"/>
			<path class="st3" d="M1,7.9"/>
			<path class="st3" d="M1,7.9"/>
			<path class="st3" d="M1,7.9"/>
			<path class="st3" d="M1,7.9"/>
			<path class="st3" d="M1,7.9"/>
		</g>
		<g class="st4">
			<path class="st5" d="M1,7.9"/>
			<path class="st5" d="M1,7.9"/>
			<path class="st5" d="M1,7.9"/>
			<path class="st5" d="M1,7.9"/>
			<path class="st5" d="M1,7.9"/>
			<path class="st5" d="M1,7.9"/>
			<path class="st5" d="M1,7.9"/>
			<path class="st5" d="M1,7.9"/>
			<path class="st5" d="M1,7.9"/>
			<path class="st5" d="M1,7.9"/>
			<path class="st5" d="M1,7.9"/>
			<path class="st5" d="M1,7.9"/>
			<path class="st5" d="M1,7.9"/>
			<path class="st5" d="M1,7.9"/>
			<path class="st5" d="M1,7.9"/>
			<path class="st5" d="M1,7.9"/>
		</g>
		<g class="st2">
			<path class="st3" d="M1,7.9"/>
			<path class="st3" d="M1,7.9"/>
			<path class="st3" d="M1,7.9"/>
			<path class="st3" d="M1,7.9"/>
			<path class="st3" d="M1,7.9"/>
			<path class="st3" d="M1,7.9"/>
			<path class="st3" d="M1,7.9"/>
			<path class="st3" d="M1,7.9"/>
			<path class="st3" d="M1,7.9"/>
			<path class="st3" d="M1,7.9"/>
			<path class="st3" d="M1,7.9"/>
			<path class="st3" d="M1,7.9"/>
			<path class="st3" d="M1,7.9"/>
			<path class="st3" d="M1,7.9"/>
			<path class="st3" d="M1,7.9"/>
			<path class="st3" d="M1,7.9"/>
		</g>
		
			<linearGradient id="SVGID_00000056420747358112286940000018045948273477239706_" gradientUnits="userSpaceOnUse" x1="201.8095" y1="77.0443" x2="201.8095" y2="74.1908" gradientTransform="matrix(1 0 0 -1 0 107.7059)">
			<stop  offset="0" style="stop-color:#CCFF00"/>
			<stop  offset="1" style="stop-color:#70F6FF"/>
		</linearGradient>
		<path style="fill:url(#SVGID_00000056420747358112286940000018045948273477239706_);" d="M201.8,30.7l0.2,1.2l1.2,0.2l-1.2,0.3
			l-0.3,1.2l-0.3-1.2l-1.1-0.3l1.1-0.2L201.8,30.7z"/>
		
			<linearGradient id="SVGID_00000040568285776966444640000004494615375507518890_" gradientUnits="userSpaceOnUse" x1="211.1845" y1="90.9896" x2="211.1845" y2="86.3591" gradientTransform="matrix(1 0 0 -1 0 107.7059)">
			<stop  offset="0" style="stop-color:#CCFF00"/>
			<stop  offset="1" style="stop-color:#70F6FF"/>
		</linearGradient>
		<path style="fill:url(#SVGID_00000040568285776966444640000004494615375507518890_);" d="M211.2,16.7l0.4,1.9l1.9,0.4l-1.9,0.4
			l-0.4,1.9l-0.5-1.9l-1.9-0.4l1.9-0.4L211.2,16.7z"/>
		
			<linearGradient id="SVGID_00000022522515060111432540000003376843718602516913_" gradientUnits="userSpaceOnUse" x1="252.038" y1="90.3295" x2="252.038" y2="96.792" gradientTransform="matrix(1 0 0 -1 0 107.7059)">
			<stop  offset="0" style="stop-color:#CCFF00"/>
			<stop  offset="1" style="stop-color:#70F6FF"/>
		</linearGradient>
		<path style="fill:url(#SVGID_00000022522515060111432540000003376843718602516913_);" d="M252,17.4l0.5-2.7l2.7-0.6l-2.6-0.6
			l-0.6-2.6l-0.6,2.6l-2.6,0.6l2.6,0.6L252,17.4z"/>
		
			<linearGradient id="SVGID_00000178914372537348410960000004596005678296945580_" gradientUnits="userSpaceOnUse" x1="217.6845" y1="42.3177" x2="217.6845" y2="37.6872" gradientTransform="matrix(1 0 0 -1 0 107.7059)">
			<stop  offset="0" style="stop-color:#CCFF00"/>
			<stop  offset="1" style="stop-color:#70F6FF"/>
		</linearGradient>
		<path style="fill:url(#SVGID_00000178914372537348410960000004596005678296945580_);" d="M217.7,65.4l0.4,1.9l1.9,0.4l-1.9,0.4
			l-0.4,1.9l-0.5-1.9l-1.9-0.4l1.9-0.4L217.7,65.4z"/>
		
			<linearGradient id="SVGID_00000101797935373323434160000014626998780471701665_" gradientUnits="userSpaceOnUse" x1="339.2644" y1="290.2957" x2="339.2644" y2="254.4982" gradientTransform="matrix(0.866 0.5 0.866 -0.5 -301.3528 18.6891)">
			<stop  offset="0" style="stop-color:#CCFF00"/>
			<stop  offset="1" style="stop-color:#70F6FF"/>
		</linearGradient>
		<path style="fill:#202020;stroke:url(#SVGID_00000101797935373323434160000014626998780471701665_);stroke-width:0.1543;" d="
			M231.9,36.3l23.9,13.8c1.9,1.1,1.9,2.9,0,4l-23.9,13.8c-1.9,1.1-5.1,1.1-7,0L201,54.1c-1.9-1.1-1.9-2.9,0-4l23.9-13.8
			C226.8,35.2,229.9,35.2,231.9,36.3z"/>
		
			<linearGradient id="SVGID_00000023268309928097956120000000110661161736318139_" gradientUnits="userSpaceOnUse" x1="228.259" y1="66.0756" x2="228.259" y2="56.0555" gradientTransform="matrix(1 0 0 -1 0 107.7059)">
			<stop  offset="0" style="stop-color:#CCFF00"/>
			<stop  offset="1" style="stop-color:#70F6FF"/>
		</linearGradient>
		<path style="fill:none;stroke:url(#SVGID_00000023268309928097956120000000110661161736318139_);stroke-width:0.5145;" d="
			M199.8,51.4l0-9.5h56.8l0,9.5H199.8z"/>
		<defs>
			<filter id="Adobe_OpacityMaskFilter" filterUnits="userSpaceOnUse" x="199.2" y="40.6" width="1.3" height="11.6">
				<feColorMatrix  type="matrix" values="1 0 0 0 0  0 1 0 0 0  0 0 1 0 0  0 0 0 1 0"/>
			</filter>
		</defs>
		
			<mask maskUnits="userSpaceOnUse" x="199.2" y="40.6" width="1.3" height="11.6" id="path-89-inside-1_5979_39797_00000003093650298163000960000011145293376236792999_">
			<path class="st12" d="M199.7,41.1h0.2v10.6h-0.2V41.1z"/>
		</mask>
		<path class="st13" d="M199.7,41.1v-0.5h-0.5v0.5H199.7z M199.9,41.1h0.5v-0.5h-0.5V41.1z M199.9,51.7v0.5h0.5v-0.5H199.9z
			 M199.7,51.7h-0.5v0.5h0.5V51.7z M199.7,41.6h0.2v-1h-0.2V41.6z M199.4,41.1v10.6h1V41.1H199.4z M199.9,51.2h-0.2v1h0.2V51.2z
			 M200.2,51.7V41.1h-1v10.6H200.2z"/>
		<defs>
			
				<filter id="Adobe_OpacityMaskFilter_00000127020310636782740460000012080096422392876187_" filterUnits="userSpaceOnUse" x="256.4" y="41.1" width="1.2" height="11.4">
				<feColorMatrix  type="matrix" values="1 0 0 0 0  0 1 0 0 0  0 0 1 0 0  0 0 0 1 0"/>
			</filter>
		</defs>
		
			<mask maskUnits="userSpaceOnUse" x="256.4" y="41.1" width="1.2" height="11.4" id="path-91-inside-2_5979_39797_00000001640081133517059600000003334045959363342527_">
			<path style="fill:#FFFFFF;filter:url(#Adobe_OpacityMaskFilter_00000127020310636782740460000012080096422392876187_);" d="
				M256.9,41.6h0.1V52h-0.1V41.6z"/>
		</mask>
		<path class="st15" d="M256.9,41.6v-0.5h-0.5v0.5H256.9z M257.1,41.6h0.5v-0.5h-0.5V41.6z M257.1,52v0.5h0.5V52H257.1z M256.9,52
			h-0.5v0.5h0.5V52z M256.9,42.1h0.1v-1h-0.1V42.1z M256.5,41.6V52h1V41.6H256.5z M257.1,51.4h-0.1v1h0.1V51.4z M257.4,52V41.6h-1
			V52H257.4z"/>
		
			<linearGradient id="SVGID_00000013882298940157858380000001861835764756978313_" gradientUnits="userSpaceOnUse" x1="339.2644" y1="290.2957" x2="339.2644" y2="254.4982" gradientTransform="matrix(0.866 0.5 0.866 -0.5 -301.3528 8.1344)">
			<stop  offset="0" style="stop-color:#CCFF00"/>
			<stop  offset="1" style="stop-color:#70F6FF"/>
		</linearGradient>
		<path style="fill:#202020;stroke:url(#SVGID_00000013882298940157858380000001861835764756978313_);stroke-width:0.1543;" d="
			M231.9,25.8l23.9,13.8c1.9,1.1,1.9,2.9,0,4l-23.9,13.8c-1.9,1.1-5.1,1.1-7,0L201,43.6c-1.9-1.1-1.9-2.9,0-4l23.9-13.8
			C226.8,24.7,229.9,24.7,231.9,25.8z"/>
		
			<linearGradient id="SVGID_00000177455733021853253680000004519922841719282100_" gradientUnits="userSpaceOnUse" x1="336.1561" y1="290.2957" x2="336.1561" y2="260.7147" gradientTransform="matrix(0.866 0.5 0.866 -0.5 -301.3838 11.3453)">
			<stop  offset="0" style="stop-color:#CCFF00"/>
			<stop  offset="1" style="stop-color:#70F6FF"/>
		</linearGradient>
		<path style="fill:url(#SVGID_00000177455733021853253680000004519922841719282100_);" d="M231.8,29l18.5,10.7c1.9,1.1,1.9,2.9,0,4
			l-18.5,10.7c-1.9,1.1-5.1,1.1-7,0l-18.5-10.7c-1.9-1.1-1.9-2.9,0-4L224.8,29C226.8,27.9,229.9,27.9,231.8,29z"/>
		<path class="st18" d="M231.8,29l18.5,10.7c1.9,1.1,1.9,2.9,0,4l-18.5,10.7c-1.9,1.1-5.1,1.1-7,0l-18.5-10.7c-1.9-1.1-1.9-2.9,0-4
			L224.8,29C226.8,27.9,229.9,27.9,231.8,29z"/>
		<path class="st18" d="M231.8,29l18.5,10.7c1.9,1.1,1.9,2.9,0,4l-18.5,10.7c-1.9,1.1-5.1,1.1-7,0l-18.5-10.7c-1.9-1.1-1.9-2.9,0-4
			L224.8,29C226.8,27.9,229.9,27.9,231.8,29z"/>
		<path class="st18" d="M231.8,29l18.5,10.7c1.9,1.1,1.9,2.9,0,4l-18.5,10.7c-1.9,1.1-5.1,1.1-7,0l-18.5-10.7c-1.9-1.1-1.9-2.9,0-4
			L224.8,29C226.8,27.9,229.9,27.9,231.8,29z"/>
		
			<linearGradient id="SVGID_00000156560253607106954310000007747595868456519864_" gradientUnits="userSpaceOnUse" x1="335.0327" y1="290.2957" x2="335.0327" y2="262.9615" gradientTransform="matrix(0.866 0.5 0.866 -0.5 -301.3838 13.5914)">
			<stop  offset="0" style="stop-color:#CCFF00"/>
			<stop  offset="1" style="stop-color:#70F6FF"/>
		</linearGradient>
		<path style="fill:#202020;stroke:url(#SVGID_00000156560253607106954310000007747595868456519864_);stroke-width:0.1543;" d="
			M230,30.2l20.1,11.6c0.9,0.5,0.9,1.4,0,2L230,55.4c-0.9,0.5-2.5,0.5-3.4,0l-20.1-11.6c-0.9-0.5-0.9-1.4,0-2l20.1-11.6
			C227.6,29.6,229.1,29.6,230,30.2z"/>
		<rect x="228" y="29.7" class="st20" width="0.1" height="13.2"/>
		<defs>
			
				<filter id="Adobe_OpacityMaskFilter_00000054233573873633192630000001966934563555177861_" filterUnits="userSpaceOnUse" x="227.2" y="42.1" width="13" height="8.3">
				<feColorMatrix  type="matrix" values="1 0 0 0 0  0 1 0 0 0  0 0 1 0 0  0 0 0 1 0"/>
			</filter>
		</defs>
		
			<mask maskUnits="userSpaceOnUse" x="227.2" y="42.1" width="13" height="8.3" id="path-97-inside-3_5979_39797_00000131363913251616353360000009970454028730522537_">
			<path style="fill:#FFFFFF;filter:url(#Adobe_OpacityMaskFilter_00000054233573873633192630000001966934563555177861_);" d="
				M228,42.9l0.1-0.1l12,7.1l-0.3,0L228,42.9z"/>
		</mask>
		<path class="st22" d="M228,42.9l-0.4-0.3l-0.3,0.4l0.4,0.3L228,42.9z M228,42.8l0.3-0.4l-0.4-0.3l-0.3,0.4L228,42.8z M240,49.8
			l-0.1,0.5l0.3-1L240,49.8z M239.7,49.8l-0.3,0.4l0.1,0.1l0.1,0L239.7,49.8z M228.4,43.1l0.1-0.1l-0.9-0.5l-0.1,0.1L228.4,43.1z
			 M227.8,43.2l12,7.1l0.5-0.9l-12-7.1L227.8,43.2z M240,49.3l-0.3,0l-0.1,1l0.3,0L240,49.3z M240,49.3l-11.8-6.9l-0.5,0.9l11.8,6.9
			L240,49.3z"/>
		<defs>
			
				<filter id="Adobe_OpacityMaskFilter_00000183962859980266689010000000592166741492642466_" filterUnits="userSpaceOnUse" x="214.7" y="42.2" width="14.1" height="8">
				<feColorMatrix  type="matrix" values="1 0 0 0 0  0 1 0 0 0  0 0 1 0 0  0 0 0 1 0"/>
			</filter>
		</defs>
		
			<mask maskUnits="userSpaceOnUse" x="214.7" y="42.2" width="14.1" height="8" id="path-99-inside-4_5979_39797_00000105408719409970821440000013530504467620004530_">
			<path style="fill:#FFFFFF;filter:url(#Adobe_OpacityMaskFilter_00000183962859980266689010000000592166741492642466_);" d="
				M228.1,43l-0.1-0.1l-11.4,6.8h0.1L228.1,43z"/>
		</mask>
		<path class="st24" d="M228.1,43l0.4-0.3l0.3,0.4l-0.4,0.3L228.1,43z M228,42.9l-0.3-0.4l0.4-0.3l0.3,0.4L228,42.9z M216.6,49.7
			v0.5h-1.9l1.6-1L216.6,49.7z M216.7,49.7l0.3,0.4l-0.1,0.1h-0.1V49.7z M227.7,43.3l-0.1-0.1l0.9-0.5l0.1,0.1L227.7,43.3z
			 M228.3,43.3l-11.4,6.8l-0.5-0.9l11.4-6.8L228.3,43.3z M216.6,49.1h0.1v1h-0.1V49.1z M216.5,49.2l11.4-6.7l0.5,0.9L217,50.1
			L216.5,49.2z"/>
		
			<linearGradient id="SVGID_00000166671618331799432510000011146111265622052263_" gradientUnits="userSpaceOnUse" x1="227.6881" y1="66.4974" x2="227.6881" y2="56.7219" gradientTransform="matrix(1 0 0 -1 0 107.7059)">
			<stop  offset="0" style="stop-color:#CCFF00"/>
			<stop  offset="1" style="stop-color:#70F6FF"/>
		</linearGradient>
		<path style="fill:#202020;stroke:url(#SVGID_00000166671618331799432510000011146111265622052263_);stroke-width:0.3087;" d="
			M230.2,41.2h-2.7c-0.1,0-0.1,0-0.1,0.1l-3.1,4.7c-0.1,0.1,0,0.2,0.1,0.2h2c0.1,0,0.2,0.1,0.2,0.2l-0.9,4c0,0.2,0.2,0.3,0.3,0.1
			l5.2-5.8c0.1-0.1,0-0.3-0.1-0.3h-1.9c-0.1,0-0.2-0.1-0.1-0.2l1.4-2.8C230.4,41.3,230.4,41.2,230.2,41.2z"/>
		<path class="st26" d="M206.1,49.8l14.5,8.3c0.7,0.4,1.3,1.4,1.3,2.2l0,0c0,0.8-0.6,1.2-1.3,0.7l-14.5-8.3
			c-0.7-0.4-1.3-1.4-1.3-2.2l0,0C204.8,49.7,205.3,49.3,206.1,49.8z"/>
		
			<linearGradient id="SVGID_00000039105841012072508560000013916793799609287839_" gradientUnits="userSpaceOnUse" x1="60.2091" y1="290.2957" x2="60.2091" y2="287.0831" gradientTransform="matrix(0.866 0.5 0 -1 160.8969 314.2311)">
			<stop  offset="0" style="stop-color:#CCFF00"/>
			<stop  offset="1" style="stop-color:#70F6FF"/>
		</linearGradient>
		<path style="fill:#202020;stroke:url(#SVGID_00000039105841012072508560000013916793799609287839_);stroke-width:0.1543;" d="
			M205.5,49.8l15.1,8.7c0.7,0.4,1.3,1.4,1.3,2.3l0,0c0,0.8-0.6,1.2-1.3,0.8l-15.1-8.7c-0.7-0.4-1.3-1.4-1.3-2.3l0,0
			C204.2,49.7,204.7,49.4,205.5,49.8z"/>
		<path class="st26" d="M237.2,57.8l15-8.7c0.7-0.4,1.2-0.1,1.2,0.7l0,0c0,0.8-0.5,1.7-1.2,2.1l-15,8.7c-0.7,0.4-1.2,0.1-1.2-0.7
			l0,0C236,59.1,236.5,58.2,237.2,57.8z"/>
		
			<linearGradient id="SVGID_00000042700740134770991120000003922672127089889417_" gradientUnits="userSpaceOnUse" x1="59.972" y1="-74.5898" x2="59.972" y2="-77.8025" gradientTransform="matrix(0.866 -0.5 0 -1 193.0219 8.9346)">
			<stop  offset="0" style="stop-color:#CCFF00"/>
			<stop  offset="1" style="stop-color:#70F6FF"/>
		</linearGradient>
		<path style="fill:#202020;stroke:url(#SVGID_00000042700740134770991120000003922672127089889417_);stroke-width:0.1543;" d="
			M237.6,57.8l14.7-8.5c0.7-0.4,1.3-0.1,1.3,0.8l0,0c0,0.8-0.6,1.9-1.3,2.3l-14.7,8.5c-0.7,0.4-1.3,0.1-1.3-0.8l0,0
			C236.3,59.3,236.9,58.2,237.6,57.8z"/>
		
			<linearGradient id="SVGID_00000183936146860498172100000003963517245971837327_" gradientUnits="userSpaceOnUse" x1="245.5031" y1="90.471" x2="225.5258" y2="68.0858" gradientTransform="matrix(1 0 0 -1 0 107.7059)">
			<stop  offset="0" style="stop-color:#CCFF00"/>
			<stop  offset="1" style="stop-color:#70F6FF"/>
		</linearGradient>
		<path style="fill:#202020;stroke:url(#SVGID_00000183936146860498172100000003963517245971837327_);stroke-width:0.2625;" d="
			M245.8,37.6c-5.5,6.1-14.5,7-20.2,1.9c-5.7-5.1-5.9-14.2-0.4-20.3c5.5-6.1,14.5-7,20.2-1.9S251.3,31.5,245.8,37.6z"/>
		
			<linearGradient id="SVGID_00000095304116743808608710000015460646063990790071_" gradientUnits="userSpaceOnUse" x1="237.9572" y1="75.0471" x2="229.0299" y2="65.0443" gradientTransform="matrix(1 0 0 -1 0 107.7059)">
			<stop  offset="0" style="stop-color:#CCFF00"/>
			<stop  offset="1" style="stop-color:#70F6FF"/>
		</linearGradient>
		<path style="fill-rule:evenodd;clip-rule:evenodd;fill:url(#SVGID_00000095304116743808608710000015460646063990790071_);" d="
			M224,37.9l-0.2-1l14.7-3.8l1.9,8.5c-5,2.2-10.8,1.5-14.9-2.1C225,39,224.4,38.5,224,37.9z"/>
		
			<linearGradient id="SVGID_00000151541962814271759160000009606928409535088790_" gradientUnits="userSpaceOnUse" x1="243.6365" y1="92.5645" x2="223.6586" y2="70.1798" gradientTransform="matrix(1 0 0 -1 0 107.7059)">
			<stop  offset="0" style="stop-color:#CCFF00"/>
			<stop  offset="1" style="stop-color:#70F6FF"/>
		</linearGradient>
		<path style="fill:#202020;stroke:url(#SVGID_00000151541962814271759160000009606928409535088790_);stroke-width:0.2625;" d="
			M244,35.5c-5.5,6.1-14.5,7-20.2,1.9c-5.7-5.1-5.9-14.2-0.4-20.3c5.5-6.1,14.5-7,20.2-1.9C249.2,20.3,249.4,29.4,244,35.5z"/>
		
			<linearGradient id="SVGID_00000144304020999586215490000013802675768747934601_" gradientUnits="userSpaceOnUse" x1="237.0171" y1="87.8065" x2="230.3229" y2="74.9367" gradientTransform="matrix(1 0 0 -1 0 107.7059)">
			<stop  offset="0" style="stop-color:#CCFF00"/>
			<stop  offset="1" style="stop-color:#70F6FF"/>
		</linearGradient>
		<path style="fill-rule:evenodd;clip-rule:evenodd;fill:url(#SVGID_00000144304020999586215490000013802675768747934601_);" d="
			M234.9,24l-3.4-7l-0.8,1.5l2.8,5.7l-2,0.3l-0.6,1.1l0.9,1.8l-6.4,0.9l-0.8,1.5l7.8-1.2l3.4,7l0.8-1.5l-2.8-5.7l2.1-0.3l0.6-1.1
			l-0.9-1.8l6.4-0.9l0.8-1.5L234.9,24z M234.2,25.4l0.8,1.6l-1.7,0.2l-0.8-1.5L234.2,25.4z"/>
		
			<linearGradient id="SVGID_00000167357773879093865810000009549480174644342409_" gradientUnits="userSpaceOnUse" x1="211.6625" y1="56.0404" x2="211.6625" y2="44.1079" gradientTransform="matrix(1 0 0 -1 0 107.7059)">
			<stop  offset="0" style="stop-color:#CCFF00"/>
			<stop  offset="1" style="stop-color:#70F6FF"/>
		</linearGradient>
		<path style="fill:#202020;stroke:url(#SVGID_00000167357773879093865810000009549480174644342409_);stroke-width:0.1543;" d="
			M220.5,57.6c0,1.6-1,3.1-2.6,4.2c-1.6,1.1-3.8,1.7-6.3,1.7c-2.5,0-4.7-0.7-6.3-1.7c-1.6-1.1-2.6-2.5-2.6-4.2s1-3.1,2.6-4.2
			c1.6-1.1,3.8-1.7,6.3-1.7c2.5,0,4.7,0.7,6.3,1.7C219.6,54.5,220.5,56,220.5,57.6z"/>
		<defs>
			
				<filter id="Adobe_OpacityMaskFilter_00000132798981222038765020000014652147004552024454_" filterUnits="userSpaceOnUse" x="200.4" y="54.9" width="9.2" height="9.6">
				<feColorMatrix  type="matrix" values="1 0 0 0 0  0 1 0 0 0  0 0 1 0 0  0 0 0 1 0"/>
			</filter>
		</defs>
		
			<mask maskUnits="userSpaceOnUse" x="200.4" y="54.9" width="9.2" height="9.6" id="mask0_5979_39797_00000141417645357119513890000012011152735897693882_">
			
				<path style="fill:#FFFFFF;filter:url(#Adobe_OpacityMaskFilter_00000132798981222038765020000014652147004552024454_);stroke:#000000;stroke-width:0.1543;" d="
				M220.5,57.6c0,1.6-1,3.1-2.6,4.2c-1.6,1.1-3.8,1.7-6.3,1.7c-2.5,0-4.7-0.7-6.3-1.7c-1.6-1.1-2.6-2.5-2.6-4.2s1-3.1,2.6-4.2
				c1.6-1.1,3.8-1.7,6.3-1.7c2.5,0,4.7,0.7,6.3,1.7C219.6,54.5,220.5,56,220.5,57.6z"/>
		</mask>
		<g class="st35">
			
				<linearGradient id="SVGID_00000035525225081360799610000003230756857090229413_" gradientUnits="userSpaceOnUse" x1="205.0074" y1="52.8295" x2="205.0074" y2="43.1917" gradientTransform="matrix(1 0 0 -1 0 107.7059)">
				<stop  offset="0" style="stop-color:#CCFF00"/>
				<stop  offset="1" style="stop-color:#70F6FF"/>
			</linearGradient>
			
				<rect x="200.4" y="54.9" style="fill:url(#SVGID_00000035525225081360799610000003230756857090229413_);" width="9.2" height="9.6"/>
		</g>
		
			<linearGradient id="SVGID_00000104702017300343716740000005935994816563864196_" gradientUnits="userSpaceOnUse" x1="211.6625" y1="58.7943" x2="211.6625" y2="46.8618" gradientTransform="matrix(1 0 0 -1 0 107.7059)">
			<stop  offset="0" style="stop-color:#CCFF00"/>
			<stop  offset="1" style="stop-color:#70F6FF"/>
		</linearGradient>
		<path style="fill:#202020;stroke:url(#SVGID_00000104702017300343716740000005935994816563864196_);stroke-width:0.1543;" d="
			M220.5,54.9c0,1.6-1,3.1-2.6,4.2c-1.6,1.1-3.8,1.7-6.3,1.7c-2.5,0-4.7-0.7-6.3-1.7c-1.6-1.1-2.6-2.5-2.6-4.2c0-1.6,1-3.1,2.6-4.2
			c1.6-1.1,3.8-1.7,6.3-1.7c2.5,0,4.7,0.7,6.3,1.7C219.6,51.8,220.5,53.3,220.5,54.9z"/>
		
			<linearGradient id="SVGID_00000121979532099113308550000015773068513356965309_" gradientUnits="userSpaceOnUse" x1="214.1872" y1="56.8432" x2="209.6372" y2="48.9615" gradientTransform="matrix(1 0 0 -1 0 107.7059)">
			<stop  offset="0" style="stop-color:#CCFF00"/>
			<stop  offset="1" style="stop-color:#70F6FF"/>
		</linearGradient>
		<path style="fill-rule:evenodd;clip-rule:evenodd;fill:url(#SVGID_00000121979532099113308550000015773068513356965309_);" d="
			M216.3,56.4c-0.8,0.3-1.5,0.3-2.2,0.1c0.2,0.3,0.1,0.6-0.1,0.9c-0.2,0.2-0.6,0.5-1.2,0.6c-0.3,0.1-0.6,0.1-0.9,0.1
			c-0.3,0-0.6,0-0.8,0c-0.2,0-0.5-0.1-0.7-0.2c-0.2-0.1-0.5-0.2-0.7-0.4c-0.2-0.2-0.4-0.3-0.6-0.5l-1.7,0.5l-0.5-0.6l1.6-0.5
			c-0.2-0.2-0.3-0.3-0.4-0.5l-1.7,0.5l-0.5-0.6l1.7-0.5c-0.1-0.1-0.1-0.1-0.2-0.2c-0.1-0.1-0.2-0.1-0.2-0.2l-0.7-0.7l1.3-0.3
			l0.4,0.4c0.1,0.1,0.3,0.2,0.5,0.1l2.6-0.9l0.1,0.1c0,0,0,0-0.1-0.1l1.9-0.6c0.3-0.1,0.3-0.3,0.1-0.5l-0.4-0.4l1.1-0.3l0.7,0.8
			c0.1,0.2,0.3,0.3,0.3,0.4l1.7-0.5l0.5,0.6l-1.6,0.5c0.2,0.2,0.3,0.3,0.4,0.4l1.6-0.5l0.5,0.6l-1.7,0.5c0.2,0.2,0.3,0.4,0.3,0.6
			c0.1,0.2,0.1,0.3,0.1,0.5c0,0.2-0.1,0.3-0.2,0.5C216.7,56.2,216.5,56.3,216.3,56.4L216.3,56.4L216.3,56.4z M211.9,56.7
			c0.2-0.1,0.3-0.1,0.4-0.2c0.1-0.1,0.1-0.2,0.2-0.2c0-0.1,0-0.2,0-0.3c0-0.1-0.1-0.2-0.1-0.3c-0.1-0.1-0.1-0.2-0.2-0.3
			c-0.1-0.2-0.3-0.3-0.5-0.5l-0.2-0.2l-2.2,0.7c0,0,0.1,0.1,0.1,0.1c0,0.1,0.1,0.1,0.1,0.2c0.1,0.1,0.3,0.3,0.4,0.4
			c0.1,0.1,0.2,0.1,0.3,0.2c0.1,0.1,0.2,0.1,0.3,0.2c0.1,0,0.2,0.1,0.3,0.1c0.1,0,0.2,0.1,0.3,0.1c0.1,0,0.2,0,0.3,0
			C211.6,56.8,211.8,56.8,211.9,56.7L211.9,56.7L211.9,56.7z M215.2,55.3c-0.1,0.1-0.2,0.1-0.3,0.2l-0.1,0c-0.1,0-0.2,0.1-0.4,0.1
			c-0.1,0-0.3,0-0.3,0c-0.1,0-0.2-0.1-0.3-0.1c-0.1,0-0.2-0.1-0.3-0.1c-0.1-0.1-0.2-0.1-0.3-0.2c-0.1-0.1-0.2-0.1-0.2-0.2
			c0-0.1-0.1-0.1-0.2-0.2c-0.1,0-0.1-0.1-0.2-0.2c0,0-0.1-0.1-0.1-0.1l2-0.7c0,0,0.1,0.1,0.2,0.1c0.1,0.1,0.1,0.1,0.2,0.2
			c0.1,0.1,0.1,0.1,0.2,0.2c0.1,0.1,0.1,0.2,0.2,0.2c0,0.1,0.1,0.1,0.1,0.2c0,0.1,0,0.2,0,0.2C215.3,55.2,215.2,55.2,215.2,55.3z"/>
		
			<linearGradient id="SVGID_00000134954959523219466700000014158227452254748575_" gradientUnits="userSpaceOnUse" x1="246.543" y1="56.9623" x2="246.543" y2="45.0298" gradientTransform="matrix(1 0 0 -1 0 107.7059)">
			<stop  offset="0" style="stop-color:#CCFF00"/>
			<stop  offset="1" style="stop-color:#70F6FF"/>
		</linearGradient>
		<path style="fill:#202020;stroke:url(#SVGID_00000134954959523219466700000014158227452254748575_);stroke-width:0.1543;" d="
			M237.7,56.7c0,1.6,1,3.1,2.6,4.2c1.6,1.1,3.8,1.7,6.3,1.7c2.5,0,4.7-0.7,6.3-1.7c1.6-1.1,2.6-2.5,2.6-4.2s-1-3.1-2.6-4.2
			c-1.6-1.1-3.8-1.7-6.3-1.7c-2.5,0-4.7,0.7-6.3,1.7C238.7,53.6,237.7,55.1,237.7,56.7z"/>
		<defs>
			
				<filter id="Adobe_OpacityMaskFilter_00000090264737511747437850000016816085279749320872_" filterUnits="userSpaceOnUse" x="248.6" y="54" width="9.2" height="9.6">
				<feColorMatrix  type="matrix" values="1 0 0 0 0  0 1 0 0 0  0 0 1 0 0  0 0 0 1 0"/>
			</filter>
		</defs>
		
			<mask maskUnits="userSpaceOnUse" x="248.6" y="54" width="9.2" height="9.6" id="mask1_5979_39797_00000099622937768649604520000016656768114055974074_">
			
				<path style="fill:#FFFFFF;filter:url(#Adobe_OpacityMaskFilter_00000090264737511747437850000016816085279749320872_);stroke:#FFFFFF;stroke-width:0.1543;" d="
				M237.7,56.7c0,1.6,1,3.1,2.6,4.2c1.6,1.1,3.8,1.7,6.3,1.7c2.5,0,4.7-0.7,6.3-1.7c1.6-1.1,2.6-2.5,2.6-4.2s-1-3.1-2.6-4.2
				c-1.6-1.1-3.8-1.7-6.3-1.7c-2.5,0-4.7,0.7-6.3,1.7C238.7,53.6,237.7,55.1,237.7,56.7z"/>
		</mask>
		<g class="st41">
			
				<linearGradient id="SVGID_00000123407039996314214470000001766460397279778237_" gradientUnits="userSpaceOnUse" x1="-626.4106" y1="107.8529" x2="-626.4106" y2="98.2151" gradientTransform="matrix(-1 0 0 -1 -373.213 161.8075)">
				<stop  offset="0" style="stop-color:#CCFF00"/>
				<stop  offset="1" style="stop-color:#70F6FF"/>
			</linearGradient>
			
				<rect x="248.6" y="54" style="fill:url(#SVGID_00000123407039996314214470000001766460397279778237_);" width="9.2" height="9.6"/>
		</g>
		
			<linearGradient id="SVGID_00000112620183783362289360000016762018622136412560_" gradientUnits="userSpaceOnUse" x1="246.543" y1="59.7162" x2="246.543" y2="47.7837" gradientTransform="matrix(1 0 0 -1 0 107.7059)">
			<stop  offset="0" style="stop-color:#CCFF00"/>
			<stop  offset="1" style="stop-color:#70F6FF"/>
		</linearGradient>
		<path style="fill:#202020;stroke:url(#SVGID_00000112620183783362289360000016762018622136412560_);stroke-width:0.1543;" d="
			M237.7,54c0,1.6,1,3.1,2.6,4.2c1.6,1.1,3.8,1.7,6.3,1.7c2.5,0,4.7-0.7,6.3-1.7c1.6-1.1,2.6-2.5,2.6-4.2s-1-3.1-2.6-4.2
			c-1.6-1.1-3.8-1.7-6.3-1.7c-2.5,0-4.7,0.7-6.3,1.7C238.7,50.9,237.7,52.3,237.7,54z"/>
		
			<linearGradient id="SVGID_00000020367591803057574660000003564591533054790794_" gradientUnits="userSpaceOnUse" x1="242.57" y1="57.0143" x2="245.0331" y2="52.7488" gradientTransform="matrix(1 0 0 -1 0 107.7059)">
			<stop  offset="0" style="stop-color:#CCFF00"/>
			<stop  offset="1" style="stop-color:#70F6FF"/>
		</linearGradient>
		<path style="fill:url(#SVGID_00000020367591803057574660000003564591533054790794_);" d="M241.9,51.1l3.6,2.1c0,0,0,0,0,0
			c-0.1,0.1-0.1,0.2-0.2,0.3c-0.1,0.1-0.2,0.2-0.2,0.4l-0.3,0.4l-0.2,0.3l-0.3,0.4c-0.1,0.1-0.2,0.2-0.2,0.4
			c-0.1,0.1-0.1,0.2-0.2,0.3c0,0,0,0,0,0l0,0c0-0.1,0-0.1-0.1-0.2c-0.2-0.4-0.3-0.8-0.5-1.1c-0.2-0.4-0.4-0.8-0.5-1.2
			c-0.2-0.4-0.3-0.8-0.5-1.1C242.1,51.6,242,51.4,241.9,51.1C241.9,51.1,241.9,51.1,241.9,51.1C241.9,51.1,241.9,51.1,241.9,51.1
			L241.9,51.1z"/>
		
			<linearGradient id="SVGID_00000074406241814247464730000009709078780919686577_" gradientUnits="userSpaceOnUse" x1="247.2998" y1="55.6182" x2="248.8509" y2="52.9327" gradientTransform="matrix(1 0 0 -1 0 107.7059)">
			<stop  offset="0" style="stop-color:#CCFF00"/>
			<stop  offset="1" style="stop-color:#70F6FF"/>
		</linearGradient>
		<path style="fill:url(#SVGID_00000074406241814247464730000009709078780919686577_);" d="M249.8,52.2c-0.1,0.2-0.2,0.4-0.3,0.6
			c-0.3,0.7-0.6,1.3-0.9,2c0,0,0,0,0,0c0,0,0,0,0,0l-3.1-1.8c0,0,0,0,0,0c0.1,0,0.2,0,0.3-0.1c0.3-0.1,0.5-0.1,0.8-0.2
			c0.2-0.1,0.5-0.1,0.7-0.2c0.2-0.1,0.5-0.1,0.7-0.1c0.2,0,0.4-0.1,0.6-0.1c0.2,0,0.4-0.2,0.6-0.2c0.2,0,0.3,0,0.3,0
			S249.8,52.2,249.8,52.2z"/>
		
			<linearGradient id="SVGID_00000000206750364159157600000000255402639846514077_" gradientUnits="userSpaceOnUse" x1="246.998" y1="53.2196" x2="249.0831" y2="49.6079" gradientTransform="matrix(1 0 0 -1 0 107.7059)">
			<stop  offset="0" style="stop-color:#CCFF00"/>
			<stop  offset="1" style="stop-color:#70F6FF"/>
		</linearGradient>
		<path style="fill:url(#SVGID_00000000206750364159157600000000255402639846514077_);" d="M251.6,56.6
			C251.6,56.6,251.6,56.7,251.6,56.6C251.6,56.7,251.6,56.7,251.6,56.6c-0.8-0.1-1.5-0.1-2.2-0.2l-2.2-0.2c-0.7-0.1-1.4-0.1-2.1-0.2
			l-0.5-0.1c0,0,0,0,0,0c0,0,0,0,0,0c0.7-0.1,1.3-0.2,2-0.3c0.8-0.1,1.5-0.2,2.3-0.3c0.1,0,0.3,0,0.4-0.1c0,0,0,0,0,0L251.6,56.6z"
			/>
		
			<linearGradient id="SVGID_00000063607007766437520980000002056278358405377170_" gradientUnits="userSpaceOnUse" x1="246.2274" y1="55.1622" x2="249.3465" y2="49.7587" gradientTransform="matrix(1 0 0 -1 0 107.7059)">
			<stop  offset="0" style="stop-color:#CCFF00"/>
			<stop  offset="1" style="stop-color:#70F6FF"/>
		</linearGradient>
		<path style="fill:url(#SVGID_00000063607007766437520980000002056278358405377170_);" d="M243.9,55.6
			C243.9,55.6,243.9,55.6,243.9,55.6c0.1-0.1,0.1-0.4,0.2-0.5l0.2-0.5c0.1-0.1,0.2-0.3,0.3-0.4c0.1-0.2,0.2-0.3,0.3-0.5
			c0.1-0.1,0.2-0.4,0.3-0.5c0.1-0.1,0.3,0,0.4-0.1c-0.2-0.2,0-0.2,0,0l3.1,1.8c0,0,0,0,0,0c-0.1,0-0.1,0-0.2,0L243.9,55.6
			C243.9,55.6,243.9,55.6,243.9,55.6z M250.3,52.6C250.3,52.6,250.3,52.6,250.3,52.6c0.4,1.3,0.8,2.5,1.1,3.7c0,0.1,0.1,0.3,0.1,0.4
			l-2.4-1.4c0.1-0.2,0.1-0.4,0.2-0.5L250.3,52.6C250.3,52.6,250.3,52.6,250.3,52.6z"/>
		
			<linearGradient id="SVGID_00000099646460204588590420000015935366431532821418_" gradientUnits="userSpaceOnUse" x1="244.639" y1="58.188" x2="247.09" y2="53.9418" gradientTransform="matrix(1 0 0 -1 0 107.7059)">
			<stop  offset="0" style="stop-color:#CCFF00"/>
			<stop  offset="1" style="stop-color:#70F6FF"/>
		</linearGradient>
		<path style="fill:url(#SVGID_00000099646460204588590420000015935366431532821418_);" d="M245.5,53.1l-3.6-2.1l7.8,1.1
			c0,0,0.1,0,0.1,0c-0.1,0-0.2,0-0.3,0.1c-0.1,0-0.2,0-0.3,0.1c-0.1,0-0.1,0-0.2,0.1c-0.1,0-0.2,0.1-0.3,0.1c-0.1,0-0.1,0-0.2,0
			l-0.5,0.1c-0.1,0-0.2,0-0.2,0.1c-0.1,0-0.2,0-0.3,0.1c-0.1,0-0.1,0-0.2,0l-0.5,0.1c-0.1,0-0.2,0-0.2,0.1c-0.1,0-0.2,0-0.3,0.1
			c-0.1,0-0.2,0-0.2,0L245.5,53.1L245.5,53.1z"/>
		
			<linearGradient id="SVGID_00000023252722181666828970000012266285267908948906_" gradientUnits="userSpaceOnUse" x1="60.2091" y1="833.4102" x2="60.2091" y2="830.3828" gradientTransform="matrix(0.866 0.5 0 1 160.8969 -809.9934)">
			<stop  offset="0" style="stop-color:#CCFF00"/>
			<stop  offset="1" style="stop-color:#70F6FF"/>
		</linearGradient>
		
			<polygon style="fill:#202020;stroke:url(#SVGID_00000023252722181666828970000012266285267908948906_);stroke-width:0.1543;" points="
			204.2,48.4 221.9,58.7 221.9,55.8 204.2,45.6 		"/>
		
			<linearGradient id="SVGID_00000145770321425422451000000013103696688095472062_" gradientUnits="userSpaceOnUse" x1="60.2091" y1="833.4102" x2="60.2091" y2="830.5553" gradientTransform="matrix(0.866 0.5 0 1 161.8129 -812.5832)">
			<stop  offset="0" style="stop-color:#CCFF00"/>
			<stop  offset="1" style="stop-color:#70F6FF"/>
		</linearGradient>
		<path style="fill:#202020;stroke:url(#SVGID_00000145770321425422451000000013103696688095472062_);stroke-width:0.1543;" d="
			M205.6,46.2l16.7,9.6c0.3,0.2,0.5,0,0.5-0.3V54c0-0.3-0.2-0.8-0.5-0.9l-16.7-9.6c-0.3-0.2-0.5,0-0.5,0.3v1.5
			C205.1,45.6,205.3,46,205.6,46.2z"/>
		<defs>
			
				<filter id="Adobe_OpacityMaskFilter_00000172438318283335428580000011134246259842425521_" filterUnits="userSpaceOnUse" x="204.8" y="45.5" width="18.3" height="11">
				<feColorMatrix  type="matrix" values="1 0 0 0 0  0 1 0 0 0  0 0 1 0 0  0 0 0 1 0"/>
			</filter>
		</defs>
		
			<mask maskUnits="userSpaceOnUse" x="204.8" y="45.5" width="18.3" height="11" id="path-126-inside-5_5979_39797_00000021808949379965790480000009091710969806987168_">
			<path style="fill:#FFFFFF;filter:url(#Adobe_OpacityMaskFilter_00000172438318283335428580000011134246259842425521_);" d="
				M204.9,45.9l18,10.4v-0.1l-18-10.4V45.9z"/>
		</mask>
		<path class="st52" d="M204.9,45.9v0.2l-0.1-0.1v-0.2L204.9,45.9z M222.9,56.3l0.1,0.1v0.2l-0.1-0.1V56.3z M222.9,56.2V56l0.1,0.1
			v0.2L222.9,56.2z M204.9,45.8l-0.1-0.1v-0.2l0.1,0.1V45.8z M204.9,45.7l18,10.4v0.3l-18-10.4V45.7z M222.8,56.2v-0.1l0.3,0.2v0.1
			L222.8,56.2z M222.9,56.3l-18-10.4v-0.3l18,10.4V56.3z M205,45.8V46l-0.3-0.2v-0.1L205,45.8z"/>
		
			<linearGradient id="SVGID_00000094582782215130534850000005218121508425988525_" gradientUnits="userSpaceOnUse" x1="58.6193" y1="833.4102" x2="58.6193" y2="832.758" gradientTransform="matrix(0.866 0.5 0 1 162.7309 -808.302)">
			<stop  offset="0" style="stop-color:#CCFF00"/>
			<stop  offset="1" style="stop-color:#70F6FF"/>
		</linearGradient>
		
			<polygon style="fill:#202020;stroke:url(#SVGID_00000094582782215130534850000005218121508425988525_);stroke-width:0.1543;" points="
			206,50.1 221,58.8 221,58.3 206,49.6 		"/>
		
			<linearGradient id="SVGID_00000057832247678080601030000012831317773037722526_" gradientUnits="userSpaceOnUse" x1="243.5104" y1="57.1107" x2="244.9244" y2="54.6623" gradientTransform="matrix(1 0 0 -1 0 107.7059)">
			<stop  offset="0" style="stop-color:#CCFF00"/>
			<stop  offset="1" style="stop-color:#70F6FF"/>
		</linearGradient>
		<path style="fill:#202020;stroke:url(#SVGID_00000057832247678080601030000012831317773037722526_);stroke-width:0.1543;" d="
			M253.1,45.3v3l-17.8,10.3v-3.1L253.1,45.3z"/>
		
			<linearGradient id="SVGID_00000030486104424158895170000009595804098338429620_" gradientUnits="userSpaceOnUse" x1="60.2091" y1="-74.5898" x2="60.2091" y2="-77.4447" gradientTransform="matrix(0.866 -0.5 0 -1 190.7269 3.6651)">
			<stop  offset="0" style="stop-color:#CCFF00"/>
			<stop  offset="1" style="stop-color:#70F6FF"/>
		</linearGradient>
		<path style="fill:#202020;stroke:url(#SVGID_00000030486104424158895170000009595804098338429620_);stroke-width:0.1543;" d="
			M234.7,52.9l16.4-9.5c0.4-0.2,0.7,0,0.7,0.4V45c0,0.4-0.3,1-0.7,1.2l-16.4,9.5c-0.4,0.2-0.7,0-0.7-0.4v-1.1
			C234,53.7,234.3,53.1,234.7,52.9z"/>
		
			<linearGradient id="SVGID_00000167381415683494244370000005468791659395587729_" gradientUnits="userSpaceOnUse" x1="242.0874" y1="56.3271" x2="242.1554" y2="56.2079" gradientTransform="matrix(1 0 0 -1 0 107.7059)">
			<stop  offset="0" style="stop-color:#CCFF00"/>
			<stop  offset="1" style="stop-color:#70F6FF"/>
		</linearGradient>
		<path style="fill:none;stroke:url(#SVGID_00000167381415683494244370000005468791659395587729_);stroke-width:0.1543;" d="
			M233.2,56.6l17.9-10.3v0L233.2,56.6L233.2,56.6z"/>
		<path class="st18" d="M237.2,58l0.2-0.6L252,49l0.2,0.3L237.2,58z"/>
		
			<linearGradient id="SVGID_00000013167714562923627520000004323960312703195032_" gradientUnits="userSpaceOnUse" x1="185.7379" y1="65.4887" x2="188.874" y2="56.4432" gradientTransform="matrix(1 0 0 -1 0 107.7059)">
			<stop  offset="0" style="stop-color:#CCFF00"/>
			<stop  offset="1" style="stop-color:#70F6FF"/>
		</linearGradient>
		<path style="fill:#202020;stroke:url(#SVGID_00000013167714562923627520000004323960312703195032_);stroke-width:0.1312;" d="
			M183.2,48.2c0.9,2.5,3.4,3.8,5.7,3c2.3-0.8,3.5-3.4,2.6-5.9c-0.9-2.5-3.4-3.8-5.7-3C183.5,43.1,182.3,45.7,183.2,48.2z"/>
		
			<linearGradient id="SVGID_00000051348079709583905860000011074082881102695839_" gradientUnits="userSpaceOnUse" x1="186.0707" y1="60.0222" x2="187.4717" y2="55.9811" gradientTransform="matrix(1 0 0 -1 0 107.7059)">
			<stop  offset="0" style="stop-color:#CCFF00"/>
			<stop  offset="1" style="stop-color:#70F6FF"/>
		</linearGradient>
		<path style="fill-rule:evenodd;clip-rule:evenodd;fill:url(#SVGID_00000051348079709583905860000011074082881102695839_);" d="
			M189.5,50.9l0.2-0.3l-3.9-2.9l-1.6,2.3c1.2,1.2,3,1.8,4.6,1.2C189.1,51.2,189.3,51.1,189.5,50.9z"/>
		
			<linearGradient id="SVGID_00000165220482622573786780000001176863118934535809_" gradientUnits="userSpaceOnUse" x1="186.5461" y1="65.8751" x2="189.6829" y2="56.8302" gradientTransform="matrix(1 0 0 -1 0 107.7059)">
			<stop  offset="0" style="stop-color:#CCFF00"/>
			<stop  offset="1" style="stop-color:#70F6FF"/>
		</linearGradient>
		<path style="fill:#202020;stroke:url(#SVGID_00000165220482622573786780000001176863118934535809_);stroke-width:0.1312;" d="
			M184,47.8c0.9,2.5,3.4,3.8,5.7,3c2.3-0.8,3.5-3.4,2.6-5.9c-0.9-2.5-3.4-3.8-5.7-3C184.3,42.7,183.1,45.3,184,47.8z"/>
		
			<linearGradient id="SVGID_00000044174941779760892050000007375949971416338598_" gradientUnits="userSpaceOnUse" x1="188.0883" y1="64.2943" x2="188.0883" y2="58.3611" gradientTransform="matrix(1 0 0 -1 0 107.7059)">
			<stop  offset="0" style="stop-color:#CCFF00"/>
			<stop  offset="1" style="stop-color:#70F6FF"/>
		</linearGradient>
		
			<path style="fill:url(#SVGID_00000044174941779760892050000007375949971416338598_);stroke:#202020;stroke-width:8.661980e-03;stroke-miterlimit:10;" d="
			M189.5,44.8c-0.3-0.6-0.8-0.7-1.5-0.5l-0.3-0.9l-0.5,0.2l0.3,0.8c-0.1,0-0.3,0.1-0.4,0.1l-0.3-0.8l-0.5,0.2l0.3,0.8
			c-0.1,0-0.2,0.1-0.3,0.1l0,0l-0.6,0.2l0.2,0.5c0,0,0.3-0.1,0.3-0.1c0.2-0.1,0.3,0,0.3,0.1l0.3,0.9c0,0,0,0,0.1,0c0,0,0,0-0.1,0
			l0.4,1.3c0,0.1,0,0.2-0.1,0.2c0,0-0.3,0.1-0.3,0.1l0.1,0.6l0.6-0.2c0.1,0,0.2-0.1,0.3-0.1l0.3,0.8l0.5-0.1l-0.3-0.8
			c0.1,0,0.3-0.1,0.4-0.1l0.3,0.8l0.5-0.1l-0.3-0.8c0.8-0.3,1.4-0.6,1.2-1.5c-0.1-0.7-0.5-0.9-1.1-0.9
			C189.6,45.6,189.7,45.2,189.5,44.8z M189.4,46.9c0.2,0.6-0.9,0.9-1.2,0.9l-0.4-1.1C188.1,46.6,189.2,46.2,189.4,46.9z M188.7,45.3
			c0.2,0.6-0.7,0.8-1,0.9l-0.3-1C187.6,45.1,188.5,44.7,188.7,45.3z"/>
	</g>
</g>
</svg>
