<?xml version="1.0" encoding="UTF-8"?>
<svg id="a" data-name="图层 1" xmlns="http://www.w3.org/2000/svg" viewBox="0 0 23.59776 22.6082">
  <path d="m21.36354,9.36914C21.36354,4.20296,16.57166,0,10.68143,0,4.79187,0,0,4.20296,0,9.36914c0,2.88804,1.53119,5.6295,4.11369,7.39633v2.00439c0,.58616.33635,1.13918.84688,1.40316.23939.12996.50883.19857.77824.19857.32324,0,.63557-.0928.86508-.25227l1.23344-.80802c.02768-.0174.06824-.04316.11386-.08095l.95189-.62648c.59734.08944,1.19481.13452,1.77824.13452,5.89036,0,10.68223-4.20296,10.68223-9.36924h0Zm-10.68196,8.00128c-.5824,0-1.1814-.05149-1.78028-.15311-.15181-.02549-.30769.00728-.43633.09166l-1.16469.76726c-.02359.0154-.04601.0325-.06693.05136.00065-.00091.00065-.00154.00065-.00154-.00114,0-.00894.00522-.02728.01658l-1.20434.78981c-.04017.02715-.2064.07124-.36242-.01338-.11115-.05802-.18917-.18702-.18917-.31422v-2.28824c.00013-.205-.10491-.39593-.27852-.50659-2.35184-1.50032-3.75609-3.90242-3.75609-6.42519C1.41617,4.98184,5.57253,1.39939,10.68131,1.39939c5.10956,0,9.26593,3.58245,9.26593,7.98545s-4.15637,7.98558-9.26567,7.98558h0Zm-3.66377-9.19772c-.57466,0-1.04337.464-1.04337,1.03279,0,.56876.4687,1.03276,1.04337,1.03276.57437,0,1.0431-.464,1.0431-1.03276,0-.56879-.46874-1.03279-1.0431-1.03279h0Zm3.89857,0c-.57437,0-1.0432.464-1.0432,1.03279,0,.56876.46883,1.03276,1.0432,1.03276.57466,0,1.04337-.464,1.04337-1.03276,0-.56879-.4687-1.03279-1.04337-1.03279h0Zm3.89873,0c-.57437,0-1.04323.464-1.04323,1.03279,0,.56876.46887,1.03276,1.04323,1.03276.57463,0,1.04337-.464,1.04337-1.03276,0-.56879-.46874-1.03279-1.04337-1.03279h0Zm8.60077,4.409c-.10952-.44616-.27167-.89371-.48339-1.33004-.14773-.30479-.51331-.43163-.81836-.28377-.30466.14789-.43137.51537-.28361.82016.17347.35847.30681.72353.39476,1.08416.09764.40435.14737.83135.14737,1.26948,0,1.86339-1.01543,3.6592-2.71618,4.8034-.1694.11409-.27098.30502-.27098.50936v1.56523c0,.12733-.0635.24422-.17184.32045-.18953.06105-.31343.05329-.42765-.02369l-.86695-.57071c-.02268-.02066-.04689-.03978-.07228-.05698l-.75385-.50809c-.129-.0868-.28619-.12136-.43979-.09663-1.71041.27659-3.37951.0107-4.82605-.76765-.14316-.07737-.31115-.09444-.46681-.04755-.15589.04706-.28642.15425-.36317.29777-.16023.29856-.0483.67077.24961.83112,1.61773.86999,3.46517,1.19162,5.35927.93411l.49115.33155c.0622.05929.1244.09754.16751.12084l.84538.55606c.26207.17514.56889.26791.88771.26791.219,0,.44449-.04396.68976-.13343.03149-.01149.06193-.02565.09101-.04219.51331-.29027.83213-.83151.83213-1.4129v-1.24631c1.87674-1.37834,2.98717-3.46109,2.98717-5.63169.00013-.53524-.06093-1.05965-.1819-1.55997h0Zm0,0" style="fill: #898989;"/>
</svg>