<svg width="390" height="162" viewBox="0 0 390 162" fill="none" xmlns="http://www.w3.org/2000/svg">
<g clip-path="url(#clip0_423_1443)">
<rect y="10" width="390" height="162" fill="white"/>
<path d="M231 67L232.354 73.6321L239 75L232.477 76.518L231 83L229.4 76.518L223 75L229.4 73.6321L231 67Z" fill="black"/>
<path d="M273.5 42L274.262 45.7306L278 46.5L274.331 47.3538L273.5 51L272.6 47.3538L269 46.5L272.6 45.7306L273.5 42Z" fill="black"/>
<path d="M361.5 25L363.108 32.8757L371 34.5L363.254 36.3026L361.5 44L359.6 36.3026L352 34.5L359.6 32.8757L361.5 25Z" fill="black"/>
<path d="M297.5 133L298.262 136.731L302 137.5L298.331 138.354L297.5 142L296.6 138.354L293 137.5L296.6 136.731L297.5 133Z" fill="black"/>
<path d="M239.714 130.667C235.355 143.238 222.36 150.115 210.711 146.076C199.062 142.037 193.112 128.591 197.471 116.02C201.83 103.449 214.825 96.5722 226.475 100.611C238.124 104.65 244.073 118.096 239.714 130.667Z" fill="white" stroke="black" stroke-width="0.5"/>
<path fill-rule="evenodd" clip-rule="evenodd" d="M207.227 144.682L206.247 143.307L225.884 128.491L234.125 140.057C228.008 146.402 218.952 149.08 210.57 146.174C209.397 145.767 208.281 145.266 207.227 144.682Z" fill="black"/>
<path d="M235.613 128.697C231.254 141.268 218.258 148.145 206.609 144.106C194.96 140.067 189.011 126.621 193.37 114.05C197.728 101.479 210.724 94.6024 222.373 98.6416C234.022 102.681 239.971 116.126 235.613 128.697Z" fill="white" stroke="black" stroke-width="0.5"/>
<path fill-rule="evenodd" clip-rule="evenodd" d="M214.949 117.133L205.557 108.805L205.286 111.503L213.048 118.286L210.184 120.023L209.99 121.948L212.478 124.154L203.48 129.498L203.209 132.197L214.1 125.592L223.493 133.921L223.764 131.221L215.992 124.445L218.866 122.702L219.059 120.777L216.598 118.595L225.57 113.227L225.84 110.528L214.949 117.133ZM214.701 119.73L216.816 121.578L214.369 123.031L212.259 121.191L214.701 119.73Z" fill="black"/>
<path d="M25.08 30.74H28.74V28.74C27.78 28.9 26.8 29 25.84 29.08L25.2 27.16C28.54 26.88 31.2 26.34 33.18 25.56L34.2 27.28C33.12 27.68 32 28.04 30.86 28.32V30.74H34.4V32.76H30.86V33.26C32.08 34.26 33.32 35.36 34.58 36.6L33.36 38.48C32.38 37.22 31.54 36.22 30.86 35.46V44.08H28.74V36.24C27.86 37.84 26.8 39.3 25.52 40.66L24.56 38.2C26.44 36.6 27.84 34.8 28.74 32.8V32.76H25.08V30.74ZM35.64 27.44H37.72V39.66H35.64V27.44ZM40.28 43.9H37.3L36.86 41.88C37.8 41.96 38.7 42 39.56 42C40.02 42 40.26 41.72 40.26 41.16V25.64H42.38V41.7C42.38 43.16 41.68 43.9 40.28 43.9ZM53.1 30.32H59.62V32.16H57.4V34.38H59.34V36.16H57.4V38.78H59.84V40.62H52.98V38.78H55.44V36.16H53.44V34.38H55.44V32.16H53.1V30.32ZM50.22 29H52.28V43.98H50.22V29ZM60.32 43.98H58.58L58.08 42.1L59.92 42.16C60.32 42.16 60.54 41.86 60.54 41.28V28.24H55.86V26.2H62.62V41.88C62.62 43.28 61.84 43.98 60.32 43.98ZM52.18 25.44C53.34 26.32 54.32 27.18 55.12 28.04L53.76 29.38C53.08 28.56 52.12 27.68 50.84 26.74L52.18 25.44ZM46.86 25.72C48.06 26.56 49.1 27.42 49.94 28.28L48.46 29.76C47.74 28.96 46.7 28.08 45.36 27.16L46.86 25.72ZM46.38 30.5C47.62 31.46 48.68 32.44 49.52 33.4L48.04 34.88C47.3 33.98 46.26 33 44.9 31.94L46.38 30.5ZM47.84 35.92L49.68 36.64C48.92 39.18 48.08 41.58 47.16 43.82L45.24 42.96C46.24 40.68 47.12 38.32 47.84 35.92ZM114.806 25.92L116.606 27.02C115.686 28.66 114.746 30.02 113.806 31.06C112.886 32.1 111.566 33.24 109.806 34.5L108.666 32.64C109.906 31.96 111.106 31 112.226 29.74C113.126 28.7 113.986 27.44 114.806 25.92ZM115.346 35.32H111.746V33.3H123.906C123.826 35.9 123.706 37.98 123.506 39.58C123.306 41.18 122.986 42.28 122.506 42.92C122.046 43.52 121.306 43.86 120.286 43.92H116.446L115.886 41.86C117.066 41.9 118.186 41.94 119.226 41.94C120.206 41.94 120.846 41.52 121.166 40.72C121.486 39.88 121.706 38.08 121.786 35.32H117.466C117.006 37.36 116.386 38.98 115.586 40.2C114.546 41.66 113.006 42.98 110.966 44.14L109.606 42.4C111.406 41.44 112.766 40.38 113.686 39.22C114.386 38.22 114.946 36.92 115.346 35.32ZM121.066 25.68C122.146 28.66 124.166 31.02 127.126 32.74L125.706 34.4C122.626 32.42 120.466 29.86 119.246 26.7L121.066 25.68ZM136.026 39.7V41.66C134.026 42.38 131.766 42.98 129.206 43.44L128.946 41.4C131.646 40.98 134.006 40.42 136.026 39.7ZM132.006 25.5L133.966 26.24C133.026 28.58 132.066 30.5 131.106 31.98L132.906 31.74C133.226 31.06 133.586 30.36 133.946 29.6L135.806 30.32C134.266 33.34 132.966 35.56 131.926 36.98C133.146 36.7 134.386 36.34 135.646 35.9V37.76C133.466 38.52 131.406 39.04 129.486 39.3L128.926 37.42C129.306 37.26 129.626 37.06 129.866 36.82C130.426 36.22 131.106 35.14 131.946 33.6C131.066 33.72 130.126 33.86 129.166 34L128.666 32.1C128.986 31.96 129.266 31.7 129.526 31.34C130.486 29.56 131.306 27.62 132.006 25.5ZM145.726 35.48V43.84H143.686V42.96H138.886V43.84H136.886V35.48H145.726ZM138.886 40.98H143.686V37.44H138.886V40.98ZM140.346 25.64H142.266C143.386 27.96 145.086 29.88 147.366 31.42L146.146 33.22C145.546 32.8 145.026 32.36 144.546 31.9V33.58H137.946V31.98C137.446 32.46 136.946 32.9 136.426 33.3L135.206 31.54C137.326 30.02 139.026 28.04 140.346 25.64ZM138.286 31.64H144.306C143.106 30.44 142.106 29.08 141.306 27.56C140.386 29.14 139.386 30.5 138.286 31.64ZM156.866 37.8H151.706C151.446 40.18 150.866 42.26 149.966 44.06L148.506 42.54C149.426 40.62 149.926 38.32 149.966 35.68V27.16C152.486 26.84 154.366 26.32 155.646 25.58L157.026 27.16C155.606 27.88 153.866 28.4 151.826 28.68V30.44H156.866V37.8ZM151.826 32.48V35.9H154.966V32.48H151.826ZM160.006 33.54V36.2C159.966 39.72 159.526 42.36 158.666 44.14L156.766 43.2C157.606 41.52 158.066 39.2 158.106 36.2V26.86C160.986 26.76 163.426 26.32 165.426 25.54L166.486 27.36C164.546 28.04 162.386 28.46 159.986 28.58L160.006 31.52H167.126V33.54H165.066V44.08H163.006V33.54H160.006ZM175.246 33.14V34.74H182.526V33.14H175.246ZM182.526 36.54H175.246V38.1H182.526V36.54ZM182.526 39.9H175.246V44.06H173.286V34.3C172.306 35.42 171.206 36.48 170.006 37.46L168.646 35.68C170.906 33.9 172.686 31.86 174.006 29.58H169.186V27.56H175.006C175.306 26.86 175.566 26.16 175.786 25.44L177.926 25.7C177.726 26.34 177.526 26.96 177.306 27.56H186.846V29.58H176.426C176.106 30.18 175.786 30.76 175.446 31.34H184.486V42.18C184.486 43.34 183.806 43.92 182.466 43.96H180.226L179.726 42.08C180.466 42.14 181.166 42.18 181.806 42.18C182.286 42.18 182.526 41.96 182.526 41.52V39.9ZM198.886 25.6C198.886 27.36 198.826 28.86 198.746 30.1C199.906 35.36 202.766 39.38 207.306 42.16L205.906 44C202.166 41.48 199.526 38.12 197.986 33.9C196.666 37.98 193.926 41.36 189.766 44.04L188.486 42.16C193.846 38.96 196.586 34.48 196.746 28.74C196.746 27.4 196.766 26.36 196.766 25.6H198.886ZM216.246 28.82V42.84H214.246V41.84H211.286V43.42H209.286V28.82H211.206C211.566 27.76 211.826 26.66 211.986 25.52L214.086 25.8C213.866 26.88 213.566 27.9 213.206 28.82H216.246ZM211.286 39.92H214.246V36.14H211.286V39.92ZM211.286 34.28H214.246V30.78H211.286V34.28ZM219.886 33.68C221.166 35.3 222.146 36.72 222.846 37.96L221.166 39.12C220.426 37.8 219.426 36.34 218.186 34.74L219.886 33.68ZM226.546 28.82C226.546 35.82 226.446 40.14 226.246 41.78C226.046 43.18 225.086 43.88 223.366 43.88C222.966 43.88 222.246 43.84 221.206 43.76L220.706 41.86C221.586 41.92 222.366 41.96 223.026 41.96C223.746 41.96 224.166 41.56 224.286 40.78C224.406 39.82 224.466 36.52 224.506 30.86H219.666C219.126 32.06 218.486 33.14 217.746 34.1L216.486 32.44C217.806 30.56 218.686 28.24 219.166 25.5L221.226 25.76C221.026 26.84 220.766 27.86 220.466 28.82H226.546Z" fill="black"/>
<path d="M70 27.44C71.52 27.44 72.74 27.84 73.66 28.66C74.46 29.38 74.88 30.28 74.88 31.36C74.88 32.08 74.72 32.7 74.4 33.2C74.04 33.72 73.52 34.14 72.82 34.42V34.46C73.48 34.64 74.06 35.04 74.54 35.66C75.08 36.34 75.36 37.12 75.36 38C75.36 39.28 74.88 40.3 73.96 41.1C73.02 41.88 71.7 42.28 70 42.28C68.28 42.28 66.96 41.88 66.04 41.1C65.1 40.3 64.64 39.28 64.64 38C64.64 37.12 64.9 36.34 65.46 35.66C65.94 35.04 66.5 34.64 67.18 34.46V34.42C66.46 34.14 65.94 33.72 65.6 33.2C65.28 32.7 65.12 32.08 65.12 31.36C65.12 30.28 65.52 29.38 66.34 28.66C67.24 27.84 68.46 27.44 70 27.44ZM70 29.3C69.16 29.3 68.48 29.52 67.98 29.98C67.54 30.38 67.32 30.86 67.32 31.44C67.32 32.1 67.5 32.62 67.86 33C68.3 33.46 69 33.7 70 33.7C70.98 33.7 71.7 33.46 72.14 33C72.5 32.62 72.68 32.1 72.68 31.44C72.68 30.86 72.46 30.38 72.02 29.98C71.5 29.52 70.84 29.3 70 29.3ZM70 35.44C69 35.44 68.24 35.68 67.72 36.16C67.2 36.62 66.96 37.24 66.96 38C66.96 38.72 67.22 39.3 67.76 39.74C68.28 40.18 69.02 40.4 70 40.4C70.96 40.4 71.72 40.16 72.28 39.72C72.78 39.28 73.04 38.72 73.04 38C73.04 37.24 72.78 36.62 72.3 36.18C71.76 35.68 71 35.44 70 35.44ZM81.9922 27.44C83.6522 27.44 84.9522 28.12 85.8922 29.52C86.7722 30.84 87.2122 32.62 87.2122 34.86C87.2122 37.1 86.7722 38.88 85.8922 40.2C84.9522 41.58 83.6522 42.28 81.9922 42.28C80.3122 42.28 79.0122 41.58 78.0922 40.2C77.2122 38.88 76.7722 37.1 76.7722 34.86C76.7722 32.62 77.2122 30.84 78.0922 29.52C79.0122 28.12 80.3122 27.44 81.9922 27.44ZM81.9922 29.42C80.8522 29.42 80.0522 30.04 79.5922 31.32C79.2722 32.18 79.1122 33.36 79.1122 34.86C79.1122 36.34 79.2722 37.52 79.5922 38.4C80.0522 39.66 80.8522 40.3 81.9922 40.3C83.1122 40.3 83.9122 39.66 84.3922 38.4C84.7122 37.52 84.8722 36.34 84.8722 34.86C84.8722 33.36 84.7122 32.18 84.3922 31.32C83.9122 30.04 83.1122 29.42 81.9922 29.42ZM103.124 34.18C104.244 34.18 105.104 34.56 105.704 35.36C106.224 36.04 106.504 36.96 106.504 38.1C106.504 39.22 106.224 40.14 105.704 40.84C105.104 41.6 104.244 42 103.124 42C102.004 42 101.124 41.6 100.524 40.84C99.9644 40.12 99.7044 39.22 99.7044 38.1C99.7044 36.96 99.9644 36.04 100.524 35.36C101.124 34.56 102.004 34.18 103.124 34.18ZM101.084 27.44H102.824L94.8044 42.28H93.0644L101.084 27.44ZM92.8044 27.72C93.9244 27.72 94.7844 28.1 95.3844 28.9C95.9044 29.58 96.1844 30.5 96.1844 31.64C96.1844 32.76 95.9044 33.68 95.3844 34.38C94.7844 35.14 93.9244 35.54 92.8044 35.54C91.6844 35.54 90.8044 35.14 90.2044 34.38C89.6444 33.66 89.3844 32.76 89.3844 31.64C89.3844 30.5 89.6444 29.58 90.2044 28.9C90.8044 28.1 91.6844 27.72 92.8044 27.72ZM103.124 35.64C102.624 35.64 102.264 35.9 102.064 36.42C101.904 36.82 101.824 37.38 101.824 38.1C101.824 38.8 101.904 39.36 102.064 39.76C102.264 40.28 102.624 40.54 103.124 40.54C103.604 40.54 103.944 40.26 104.164 39.72C104.304 39.32 104.384 38.78 104.384 38.1C104.384 37.38 104.304 36.84 104.144 36.44C103.944 35.9 103.604 35.64 103.124 35.64ZM92.8044 29.18C92.3044 29.18 91.9444 29.44 91.7444 29.96C91.5844 30.36 91.5044 30.92 91.5044 31.64C91.5044 32.34 91.5844 32.9 91.7444 33.3C91.9444 33.82 92.3044 34.08 92.8044 34.08C93.2844 34.08 93.6244 33.8 93.8444 33.26C93.9844 32.86 94.0644 32.32 94.0644 31.64C94.0644 30.92 93.9844 30.38 93.8244 29.98C93.6244 29.44 93.2844 29.18 92.8044 29.18Z" fill="#2EBD85"/>
<rect x="24" y="57" width="113" height="26" rx="6" fill="black"/>
<path d="M41.444 71.664H44.228V70.192H41.78L41.46 68.816C41.908 68.064 42.34 67.12 42.724 65.968H41.348V64.512H43.172C43.316 63.984 43.46 63.44 43.588 62.88L45.06 63.232C44.948 63.68 44.836 64.096 44.724 64.512H47.524V65.968H44.276C43.924 67.008 43.556 67.936 43.156 68.736H44.228V66.752H45.764V68.736H47.364V70.192H45.764V71.664H47.828V73.136H45.764V75.44H44.228V73.136H41.444V71.664ZM39.38 63.104C40.052 64.096 40.58 64.944 40.964 65.68L39.716 66.544C39.332 65.744 38.804 64.848 38.164 63.872L39.38 63.104ZM45.428 75.904C46.324 75.904 47.188 75.888 47.988 75.856L47.556 77.424H45.3C44.82 77.424 44.34 77.408 43.86 77.392C43.156 77.376 42.5 77.28 41.924 77.104C41.38 76.912 40.916 76.608 40.548 76.192C40.34 75.968 40.164 75.872 40.02 75.872C39.812 75.872 39.396 76.464 38.756 77.68L37.796 76.416C38.388 75.488 38.9 74.848 39.332 74.528V69.552H38.276V68.08H40.852V74.672C41.14 75.04 41.524 75.328 41.972 75.552C42.452 75.712 42.996 75.824 43.604 75.872C44.212 75.888 44.82 75.904 45.428 75.904ZM34.612 62.912L36.196 63.248C36.1 63.696 36.004 64.112 35.908 64.512H38.004V66.096H35.46C35.268 66.688 35.06 67.248 34.836 67.76H37.796V69.248H36.676V70.752H38.244V72.288H36.676V75.28C37.028 75.056 37.396 74.8 37.748 74.496L38.036 75.936C37.236 76.496 36.308 76.96 35.252 77.328L34.628 75.952C34.916 75.824 35.076 75.616 35.076 75.328V72.288H33.476V70.752H35.076V69.248H34.5V68.496L34.276 68.944L32.964 68.112C33.748 66.48 34.292 64.752 34.612 62.912ZM54.884 62.864H56.612V67.616H62.532V69.232H56.612V75.488H63.716V77.12H49.332V75.488H54.884V62.864ZM65.364 64.592H71.62C71.364 64.048 71.076 63.536 70.756 63.056L72.628 62.736C72.916 63.296 73.204 63.92 73.476 64.592H79.652V66.176H65.364V64.592ZM75.188 66.272C76.948 67.632 78.452 68.992 79.668 70.352L78.436 71.6C77.412 70.288 75.94 68.88 74.052 67.36L75.188 66.272ZM74.948 69.296L76.484 69.984C75.764 71.36 74.884 72.56 73.86 73.584C75.492 74.688 77.508 75.536 79.876 76.128L78.836 77.696C76.372 77.008 74.276 76.016 72.564 74.736C70.804 76.112 68.708 77.104 66.244 77.744L65.204 76.208C67.572 75.632 69.572 74.752 71.204 73.6C70.148 72.608 69.252 71.472 68.548 70.208L69.988 69.392C70.628 70.576 71.46 71.616 72.5 72.528C73.492 71.584 74.308 70.512 74.948 69.296ZM69.7 66.288L70.916 67.344C69.7 68.944 68.18 70.32 66.388 71.504L65.316 70.096C67.044 69.008 68.516 67.744 69.7 66.288ZM85.364 69.376H83.476V63.344H93.604V69.376H87.316C87.092 69.696 86.852 70.016 86.596 70.304H94.82C94.772 72.064 94.676 73.488 94.532 74.576C94.372 75.648 94.116 76.4 93.78 76.832C93.444 77.248 92.9 77.472 92.132 77.504H89.844L89.428 75.936C90.084 75.984 90.724 76.016 91.332 76.016C92.02 76.016 92.468 75.744 92.692 75.232C92.916 74.688 93.06 73.536 93.124 71.776H91.988C90.612 74.72 88.436 76.688 85.492 77.648L84.548 76.24C87.14 75.44 89.044 73.952 90.26 71.776H88.708C87.588 73.472 85.812 74.816 83.38 75.792L82.324 74.496C84.372 73.776 85.892 72.864 86.884 71.776H84.964C84.196 72.32 83.348 72.816 82.404 73.264L81.492 71.792C83.204 71.152 84.5 70.336 85.364 69.376ZM91.956 67.968V67.008H85.124V67.968H91.956ZM85.124 65.696H91.956V64.752H85.124V65.696ZM103.668 65.536H98.356V63.936H110.692V65.536H105.364V75.104H111.668V76.72H97.348V75.104H103.668V65.536ZM125.556 63.344V73.104H127.668V74.656H124.036C125.3 75.12 126.468 75.648 127.556 76.224L126.628 77.68C125.076 76.736 123.492 76 121.892 75.456L122.436 74.656H118.26L119.044 75.344C117.812 76.24 116.292 77.024 114.484 77.712L113.46 76.368C114.9 75.856 116.148 75.296 117.204 74.656H113.332V73.104H115.444V63.344H125.556ZM117.124 73.104H123.876V72.032H117.124V73.104ZM117.124 70.72H123.876V69.632H117.124V70.72ZM117.124 68.32H123.876V67.216H117.124V68.32ZM117.124 65.92H123.876V64.912H117.124V65.92Z" fill="white"/>
<path d="M30.6719 128.547L35.0469 125.703H24.9297V124.609H36.6875V125.922L31.8203 129.094V133.961C31.9297 135.529 31.1641 136.294 29.5234 136.258C28.6484 136.258 27.9375 136.258 27.3906 136.258C27.3906 136.148 27.3542 135.948 27.2812 135.656C27.2448 135.365 27.2083 135.146 27.1719 135C27.7917 135.036 28.5391 135.055 29.4141 135.055C30.2891 135.128 30.7083 134.745 30.6719 133.906V128.547ZM38.4375 127.344C39.4219 126.286 40.2057 125.047 40.7891 123.625L41.7188 123.898C41.6458 124.044 41.5365 124.263 41.3906 124.555C41.2812 124.737 41.2083 124.865 41.1719 124.938H43.6328V125.758L42.6484 127.18H44.3438V135C44.3802 135.948 43.9245 136.422 42.9766 136.422C42.6484 136.422 42.2656 136.422 41.8281 136.422C41.8281 136.276 41.8099 136.076 41.7734 135.82C41.737 135.638 41.7188 135.529 41.7188 135.492C41.8646 135.529 42.2292 135.547 42.8125 135.547C43.2865 135.583 43.5052 135.365 43.4688 134.891V132.867H42.2656V135H41.3906V132.867H40.2422C40.2422 134.289 39.8776 135.529 39.1484 136.586C38.7839 136.294 38.5469 136.094 38.4375 135.984C39.1302 135.182 39.4401 133.852 39.3672 131.992V127.617C39.2578 127.763 39.112 127.927 38.9297 128.109C38.8568 128 38.7292 127.781 38.5469 127.453C38.474 127.417 38.4375 127.38 38.4375 127.344ZM47.8438 128.766H48.8281V130.188H51.1797V131.117H48.8281V132.977H51.5078V133.906H48.8281V136.586H47.8438V133.906H44.7266V132.977H47.8438V131.117H46.2578C46.1849 131.372 46.0391 131.737 45.8203 132.211C45.7474 132.357 45.6927 132.466 45.6562 132.539C45.3281 132.357 45.0365 132.229 44.7812 132.156C45.2917 131.281 45.6745 130.206 45.9297 128.93L46.9141 129.094C46.8047 129.495 46.6953 129.859 46.5859 130.188H47.8438V128.766ZM44.8359 124.336H50.7969C50.7969 125.102 50.7604 125.885 50.6875 126.688C50.651 127.781 50.0859 128.328 48.9922 128.328C48.4453 128.328 47.9896 128.328 47.625 128.328C47.625 128.219 47.5703 127.891 47.4609 127.344C47.5703 127.344 47.7891 127.344 48.1172 127.344C48.4818 127.38 48.737 127.398 48.8828 127.398C49.4297 127.398 49.7214 127.143 49.7578 126.633C49.7578 126.451 49.776 126.195 49.8125 125.867C49.8125 125.576 49.8125 125.357 49.8125 125.211H47.2969C47.3698 126.924 46.6224 128.201 45.0547 129.039C45.0182 129.003 44.9271 128.893 44.7812 128.711C44.599 128.492 44.4714 128.346 44.3984 128.273C45.7474 127.654 46.3854 126.633 46.3125 125.211H44.8359V124.336ZM40.6797 125.758C40.4245 126.268 40.0964 126.742 39.6953 127.18H41.6094L42.5391 125.758H40.6797ZM42.2656 130.406V132.102H43.4688V130.406H42.2656ZM43.4688 127.945H42.2656V129.641H43.4688V127.945ZM40.2422 130.406V132.102H41.3906V130.406H40.2422ZM40.2422 127.945V129.641H41.3906V127.945H40.2422ZM52.4375 135.711C54.4062 135.31 55.7188 134.945 56.375 134.617C55.7917 134.216 55.1354 133.615 54.4062 132.812L55.2266 132.211C55.8099 132.977 56.4661 133.56 57.1953 133.961C57.7422 133.378 58.0885 132.721 58.2344 131.992H54.0234V126.414H58.5625V125.211H52.9297V124.281H65.0703V125.211H59.5469C59.5469 125.539 59.5469 125.94 59.5469 126.414H64.0859V132.648H63.1016V131.992H59.2734C59.0911 132.977 58.7083 133.797 58.125 134.453C59.6198 134.964 62.1172 135.237 65.6172 135.273C65.5443 135.383 65.4349 135.62 65.2891 135.984C65.2161 136.167 65.1615 136.276 65.125 136.312C61.2604 136.167 58.6719 135.747 57.3594 135.055C56.5573 135.602 55.1172 136.13 53.0391 136.641C52.8568 136.312 52.6562 136.003 52.4375 135.711ZM59.4922 129.641C59.4922 130.188 59.4557 130.661 59.3828 131.062H63.1016V129.641H59.4922ZM63.1016 127.344H59.5469C59.5469 127.854 59.5469 128.328 59.5469 128.766H63.1016V127.344ZM55.0078 127.344V128.766H58.5625C58.5625 128.328 58.5625 127.854 58.5625 127.344H55.0078ZM58.3984 131.062C58.4714 130.661 58.5078 130.188 58.5078 129.641H55.0078V131.062H58.3984ZM74.9688 128.766L75.9531 129.039C75.5521 129.404 75.1328 129.732 74.6953 130.023H78.9609V130.953C76.1901 133.979 72.362 135.875 67.4766 136.641C67.4036 136.422 67.2214 136.13 66.9297 135.766C71.5599 135.073 75.1146 133.469 77.5938 130.953H73.3828C73.0182 131.172 72.6172 131.409 72.1797 131.664C72.2891 131.773 72.4531 131.938 72.6719 132.156C73.0729 132.521 73.3464 132.794 73.4922 132.977L72.6719 133.688C72.4531 133.432 72.0339 132.94 71.4141 132.211C71.3776 132.174 71.3411 132.138 71.3047 132.102C70.3932 132.576 69.3906 133.031 68.2969 133.469C68.1146 133.214 67.9323 132.94 67.75 132.648C71.0312 131.372 73.4375 130.078 74.9688 128.766ZM72.8906 123.461L74.0391 123.625C73.5651 124.099 73.0911 124.536 72.6172 124.938H78.4688V125.812C75.4062 128.182 71.6693 130.005 67.2578 131.281C67.2214 131.172 67.0755 130.953 66.8203 130.625C66.7474 130.516 66.6927 130.443 66.6562 130.406C70.8854 129.24 74.2943 127.727 76.8828 125.867H71.4141C71.3776 125.867 71.3229 125.904 71.25 125.977C71.1406 126.013 71.0677 126.049 71.0312 126.086C71.2865 126.305 71.6328 126.615 72.0703 127.016C72.3255 127.234 72.5078 127.398 72.6172 127.508L71.7969 128.219C71.2865 127.635 70.776 127.089 70.2656 126.578C69.5729 127.016 68.8073 127.417 67.9688 127.781C67.8958 127.672 67.7865 127.544 67.6406 127.398C67.5312 127.289 67.4219 127.161 67.3125 127.016C69.5729 126.068 71.4323 124.883 72.8906 123.461Z" fill="black"/>
<path d="M93 137C89.1339 137 86 133.866 86 130C86 126.134 89.1339 123 93 123C96.8661 123 100 126.134 100 130C100 133.866 96.8661 137 93 137ZM91.7026 127.797L93.9051 130L91.7026 132.203C91.6388 132.269 91.6035 132.357 91.6043 132.449C91.6051 132.541 91.6419 132.628 91.7068 132.693C91.7717 132.758 91.8595 132.795 91.9513 132.796C92.043 132.796 92.1314 132.761 92.1974 132.697L94.6475 130.247C94.7131 130.182 94.7499 130.093 94.7499 130C94.7499 129.907 94.7131 129.818 94.6475 129.753L92.1974 127.303C92.1314 127.239 92.043 127.204 91.9513 127.204C91.8595 127.205 91.7717 127.242 91.7068 127.307C91.6419 127.372 91.6051 127.459 91.6043 127.551C91.6035 127.643 91.6388 127.731 91.7026 127.797Z" fill="black"/>
<rect x="-8.9407e-09" y="0.15" width="69.2775" height="69.2775" rx="7.85" transform="matrix(0.866025 0.5 -0.866025 0.5 318.386 72.4976)" fill="white" stroke="black" stroke-width="0.3"/>
<path d="M262.373 86.8197H373.78L373.734 106.295H262.328L262.373 86.8197Z" fill="white"/>
<path d="M262.511 85.8353H262.943L262.943 106.393H262.51L262.511 85.8353Z" fill="black"/>
<path d="M373.771 86.8197H374.038L374.038 106.89H373.771L373.771 86.8197Z" fill="black"/>
<rect x="-8.9407e-09" y="0.15" width="69.2775" height="69.2775" rx="7.85" transform="matrix(0.866025 0.5 -0.866025 0.5 318.386 51.9811)" fill="white" stroke="black" stroke-width="0.3"/>
<rect x="-8.9407e-09" y="0.15" width="57.1946" height="57.1946" rx="7.85" transform="matrix(0.866025 0.5 -0.866025 0.5 318.325 58.2253)" fill="black"/>
<rect x="-8.9407e-09" y="0.15" width="57.1946" height="57.1946" rx="7.85" transform="matrix(0.866025 0.5 -0.866025 0.5 318.325 58.2253)" fill="black"/>
<rect x="-8.9407e-09" y="0.15" width="57.1946" height="57.1946" rx="7.85" transform="matrix(0.866025 0.5 -0.866025 0.5 318.325 58.2253)" fill="black"/>
<rect x="-8.9407e-09" y="0.15" width="57.1946" height="57.1946" rx="7.85" transform="matrix(0.866025 0.5 -0.866025 0.5 318.325 58.2253)" stroke="black" stroke-width="0.3"/>
<rect x="-8.9407e-09" y="0.15" width="52.8276" height="52.8276" rx="3.85" transform="matrix(0.866025 0.5 -0.866025 0.5 318.325 62.5923)" fill="white" stroke="black" stroke-width="0.3"/>
<rect x="317.465" y="63.5024" width="0.267606" height="25.8685" fill="black"/>
<path d="M317.465 89.2485L317.6 89.0176L340.856 102.726L340.349 102.67L317.465 89.2485Z" fill="black"/>
<path d="M317.771 89.4724L317.636 89.2415L295.408 102.422L295.67 102.422L317.771 89.4724Z" fill="black"/>
<path d="M321.895 86H316.623C316.522 86 316.428 86.0504 316.373 86.1342L310.309 95.2778C310.177 95.4772 310.32 95.7436 310.559 95.7436H314.468C314.661 95.7436 314.804 95.9235 314.761 96.1116L312.958 103.856C312.888 104.159 313.268 104.356 313.474 104.124L323.554 92.8331C323.726 92.6398 323.589 92.3333 323.33 92.3333H319.644C319.42 92.3333 319.275 92.0966 319.376 91.897L322.162 86.4363C322.264 86.2367 322.119 86 321.895 86Z" fill="white" stroke="black" stroke-width="0.6"/>
<rect width="39.2488" height="6.79215" rx="3.39608" transform="matrix(0.866025 0.5 -2.20305e-08 1 271.972 100.419)" fill="black"/>
<rect x="0.129904" y="0.225" width="39.8706" height="5.94413" rx="2.97207" transform="matrix(0.866025 0.5 -2.20305e-08 1 271.097 100.902)" fill="white" stroke="black" stroke-width="0.3"/>
<rect width="40.2788" height="6.50801" rx="3.254" transform="matrix(0.866025 -0.5 2.20305e-08 1 332.629 119.323)" fill="black"/>
<rect x="0.129904" y="0.075" width="38.9488" height="5.94413" rx="2.97207" transform="matrix(0.866025 -0.5 2.20305e-08 1 333.538 119.765)" fill="white" stroke="black" stroke-width="0.3"/>
<path d="M336.724 74.6829C330.828 79.5215 324.165 82.2773 318.165 82.8275C312.163 83.3777 306.842 81.7218 303.591 77.7609C300.341 73.8 299.756 68.2574 301.467 62.4788C303.178 56.7012 307.181 50.7046 313.078 45.866C318.974 41.0275 325.637 38.2717 331.638 37.7215C337.639 37.1713 342.961 38.8272 346.211 42.7881C349.461 46.749 350.046 52.2916 348.335 58.0702C346.624 63.8478 342.621 69.8444 336.724 74.6829Z" fill="white" stroke="black" stroke-width="0.3"/>
<mask id="mask0_423_1443" style="mask-type:alpha" maskUnits="userSpaceOnUse" x="300" y="37" width="50" height="47">
<path d="M336.725 74.6829C330.828 79.5215 324.165 82.2773 318.165 82.8275C312.164 83.3777 306.842 81.7218 303.592 77.7609C300.341 73.8 299.756 68.2574 301.467 62.4788C303.178 56.7012 307.182 50.7046 313.078 45.866C318.975 41.0275 325.637 38.2717 331.638 37.7215C337.639 37.1713 342.961 38.8272 346.211 42.7881C349.461 46.749 350.047 52.2916 348.335 58.0702C346.625 63.8478 342.621 69.8444 336.725 74.6829Z" fill="white" stroke="black" stroke-width="0.3"/>
</mask>
<g mask="url(#mask0_423_1443)">
<rect x="280.439" y="79.0125" width="56.7045" height="22.0111" transform="rotate(-20.7601 280.439 79.0125)" fill="black"/>
</g>
<path d="M332.917 68.9453C327.021 73.7838 320.358 76.5396 314.358 77.0898C308.356 77.64 303.034 75.9841 299.784 72.0232C296.534 68.0623 295.949 62.5197 297.66 56.7411C299.371 50.9635 303.374 44.9669 309.271 40.1284C315.167 35.2898 321.83 32.534 327.83 31.9838C333.832 31.4336 339.154 33.0895 342.404 37.0504C345.654 41.0113 346.239 46.5539 344.528 52.3325C342.817 58.1101 338.814 64.1067 332.917 68.9453Z" fill="white" stroke="black" stroke-width="0.3"/>
<rect width="21.5675" height="5.42467" transform="matrix(-0.88208 -0.471099 -0.705092 0.709116 338.369 51.8118)" fill="black"/>
<rect width="22.116" height="5.96548" transform="matrix(0.705092 -0.709116 -0.88208 -0.471099 313.834 65.8912)" fill="black"/>
<ellipse cx="14.1081" cy="4.49018" rx="14.1081" ry="4.49018" transform="matrix(-0.88208 -0.471099 -0.705092 0.709116 335.728 59.4549)" fill="black"/>
<ellipse cx="12.6973" cy="3.528" rx="12.6973" ry="3.528" transform="matrix(-0.88208 -0.471099 -0.705092 0.709116 334.031 59.245)" fill="white"/>
<path d="M320.389 59.2992L329.429 50.2082L324.166 47.3979L315.046 56.5708C315.046 56.5708 316.646 57.4256 317.677 57.976C318.707 58.5264 320.389 59.2992 320.389 59.2992Z" fill="black"/>
<path d="M303.042 117.916C303.042 121.052 301.135 123.91 298.014 125.991C294.895 128.07 290.576 129.362 285.798 129.362C281.02 129.362 276.701 128.07 273.581 125.991C270.461 123.91 268.554 121.052 268.554 117.916C268.554 114.779 270.461 111.921 273.581 109.841C276.701 107.761 281.02 106.469 285.798 106.469C290.576 106.469 294.895 107.761 298.014 109.841C301.135 111.921 303.042 114.779 303.042 117.916Z" fill="white" stroke="black" stroke-width="0.3"/>
<mask id="mask1_423_1443" style="mask-type:alpha" maskUnits="userSpaceOnUse" x="268" y="106" width="36" height="24">
<path d="M303.042 117.916C303.042 121.052 301.135 123.91 298.014 125.991C294.895 128.07 290.576 129.362 285.798 129.362C281.02 129.362 276.701 128.07 273.581 125.991C270.461 123.91 268.554 121.052 268.554 117.916C268.554 114.779 270.461 111.921 273.581 109.841C276.701 107.761 281.02 106.469 285.798 106.469C290.576 106.469 294.895 107.761 298.014 109.841C301.135 111.921 303.042 114.779 303.042 117.916Z" fill="white" stroke="black" stroke-width="0.3"/>
</mask>
<g mask="url(#mask1_423_1443)">
<rect x="263.943" y="112.563" width="17.8404" height="18.7324" fill="black"/>
</g>
<path d="M303.042 112.563C303.042 115.7 301.135 118.558 298.014 120.638C294.895 122.718 290.576 124.01 285.798 124.01C281.02 124.01 276.701 122.718 273.581 120.638C270.461 118.558 268.554 115.7 268.554 112.563C268.554 109.427 270.461 106.569 273.581 104.488C276.701 102.409 281.02 101.117 285.798 101.117C290.576 101.117 294.895 102.409 298.014 104.488C301.135 106.569 303.042 109.427 303.042 112.563Z" fill="white" stroke="black" stroke-width="0.3"/>
<path fill-rule="evenodd" clip-rule="evenodd" d="M294.762 115.472C293.293 116.059 291.897 116.102 290.572 115.598C290.866 116.235 290.823 116.796 290.448 117.28C290.073 117.764 289.265 118.167 288.02 118.488C287.444 118.64 286.829 118.736 286.201 118.771C285.625 118.798 285.1 118.767 284.624 118.676C284.148 118.585 283.678 118.434 283.215 118.222C282.751 118.009 282.327 117.766 281.946 117.492C281.517 117.18 281.121 116.852 280.763 116.511L277.503 117.564L276.455 116.46L279.662 115.421C279.299 115.039 279.026 114.746 278.844 114.541L275.623 115.584L274.573 114.479L277.832 113.424C277.702 113.297 277.558 113.174 277.4 113.058C277.194 112.899 277.048 112.775 276.96 112.683L275.598 111.248L278.148 110.713L278.905 111.511C279.132 111.749 279.48 111.818 279.952 111.715L285.089 110.054L285.199 110.169C285.172 110.128 285.139 110.088 285.101 110.05L288.77 108.863C289.291 108.614 289.378 108.307 289.032 107.943L288.276 107.147L290.372 106.469L291.803 107.994C292.094 108.301 292.319 108.531 292.478 108.686L295.699 107.644L296.749 108.75L293.592 109.771C293.981 110.158 294.267 110.447 294.448 110.639L297.58 109.626L298.629 110.731L295.409 111.773C295.707 112.17 295.93 112.536 296.076 112.871C296.22 113.204 296.286 113.538 296.271 113.867C296.255 114.197 296.11 114.502 295.836 114.781C295.561 115.061 295.157 115.307 294.622 115.517L294.763 115.472L294.762 115.472ZM286.332 116.182C286.637 116.083 286.875 115.959 287.046 115.81C287.209 115.672 287.324 115.517 287.383 115.354C287.437 115.175 287.436 114.993 287.381 114.815C287.333 114.63 287.263 114.448 287.17 114.269C287.062 114.075 286.932 113.885 286.782 113.7C286.522 113.367 286.227 113.044 285.896 112.734L285.559 112.397L281.24 113.794C281.277 113.833 281.34 113.928 281.428 114.081C281.518 114.233 281.606 114.355 281.693 114.446C281.95 114.712 282.226 114.972 282.523 115.223C282.655 115.333 282.821 115.459 283.019 115.597C283.218 115.737 283.405 115.85 283.577 115.938C283.749 116.026 283.948 116.11 284.168 116.192C284.39 116.273 284.609 116.326 284.821 116.351C285.036 116.376 285.26 116.38 285.501 116.362C285.752 116.341 285.995 116.292 286.216 116.219L286.331 116.182L286.332 116.182ZM292.594 113.373C292.433 113.504 292.211 113.613 291.931 113.705L291.817 113.742C291.616 113.807 291.377 113.856 291.102 113.888C290.829 113.921 290.601 113.91 290.427 113.853C290.235 113.793 290.036 113.742 289.83 113.7C289.595 113.647 289.396 113.552 289.262 113.428C289.127 113.307 288.961 113.197 288.771 113.103C288.574 113.002 288.422 112.875 288.326 112.732C288.241 112.603 288.117 112.484 287.958 112.381C287.811 112.285 287.704 112.171 287.643 112.048C287.593 111.956 287.536 111.867 287.471 111.779L291.396 110.509C291.464 110.531 291.575 110.619 291.728 110.772C291.879 110.927 292.008 111.055 292.108 111.156C292.211 111.257 292.33 111.4 292.471 111.583C292.612 111.766 292.718 111.924 292.788 112.057C292.86 112.191 292.915 112.345 292.954 112.52C292.992 112.695 292.981 112.849 292.922 112.98C292.863 113.112 292.755 113.243 292.594 113.373Z" fill="black"/>
<path d="M336.347 116.132C336.347 119.268 338.254 122.126 341.375 124.207C344.495 126.286 348.814 127.578 353.592 127.578C358.369 127.578 362.688 126.286 365.808 124.207C368.929 122.126 370.836 119.268 370.836 116.132C370.836 112.995 368.929 110.137 365.808 108.057C362.688 105.977 358.369 104.685 353.592 104.685C348.814 104.685 344.495 105.977 341.375 108.057C338.254 110.137 336.347 112.995 336.347 116.132Z" fill="white" stroke="black" stroke-width="0.3"/>
<mask id="mask2_423_1443" style="mask-type:alpha" maskUnits="userSpaceOnUse" x="336" y="104" width="35" height="24">
<path d="M336.347 116.132C336.347 119.268 338.254 122.126 341.375 124.207C344.495 126.286 348.814 127.578 353.592 127.578C358.369 127.578 362.688 126.286 365.808 124.207C368.929 122.126 370.836 119.268 370.836 116.132C370.836 112.995 368.929 110.137 365.808 108.057C362.688 105.977 358.369 104.685 353.592 104.685C348.814 104.685 344.495 105.977 341.375 108.057C338.254 110.137 336.347 112.995 336.347 116.132Z" fill="white" stroke="black" stroke-width="0.3"/>
</mask>
<g mask="url(#mask2_423_1443)">
<rect width="17.8404" height="18.7324" transform="matrix(-1 0 0 1 375.446 110.779)" fill="black"/>
</g>
<path d="M336.347 110.779C336.347 113.916 338.254 116.774 341.375 118.854C344.495 120.934 348.814 122.226 353.591 122.226C358.369 122.226 362.688 120.934 365.808 118.854C368.929 116.774 370.836 113.916 370.836 110.779C370.836 107.643 368.929 104.785 365.808 102.704C362.688 100.625 358.369 99.3332 353.591 99.3332C348.814 99.3332 344.495 100.625 341.375 102.704C338.254 104.785 336.347 107.643 336.347 110.779Z" fill="white" stroke="black" stroke-width="0.3"/>
<path d="M344.629 105.149L351.547 109.143C351.576 109.16 351.576 109.193 351.547 109.21C351.431 109.381 351.344 109.534 351.227 109.704C351.081 109.925 350.907 110.163 350.791 110.402L350.266 111.218L349.83 111.882L349.307 112.698C349.161 112.92 349.015 113.141 348.87 113.396C348.754 113.566 348.638 113.77 348.521 113.94C348.492 113.957 348.521 113.974 348.463 113.974L348.433 113.991C348.373 113.855 348.342 113.735 348.282 113.599C347.95 112.864 347.648 112.114 347.316 111.379C346.955 110.594 346.622 109.792 346.26 109.006C345.929 108.273 345.597 107.539 345.295 106.822C345.053 106.275 344.842 105.746 344.57 105.216C344.629 105.182 344.6 105.165 344.629 105.149C344.629 105.149 344.6 105.165 344.629 105.149Z" fill="black"/>
<path d="M359.886 107.379C359.743 107.805 359.54 108.23 359.366 108.638C358.789 109.966 358.211 111.26 357.633 112.588C357.603 112.605 357.633 112.622 357.603 112.639C357.574 112.656 357.545 112.639 357.545 112.639L351.576 109.193C351.547 109.176 351.576 109.159 351.606 109.142C351.782 109.109 351.96 109.076 352.165 109.025C352.697 108.924 353.227 108.79 353.757 108.689C354.229 108.588 354.671 108.504 355.112 108.386C355.584 108.286 356.026 108.202 356.498 108.101C356.881 108.017 357.293 107.916 357.706 107.849C358.089 107.765 358.549 107.541 358.961 107.474C359.256 107.407 359.507 107.474 359.507 107.474C359.507 107.474 359.857 107.396 359.886 107.379Z" fill="black"/>
<path d="M363.423 115.999C363.394 116.016 363.423 115.999 363.423 115.999C363.394 116.016 363.394 116.016 363.334 116.015C361.916 115.875 360.556 115.734 359.137 115.593L354.882 115.17C353.522 115.03 352.134 114.906 350.743 114.748L349.679 114.642C349.65 114.625 349.621 114.642 349.591 114.625C349.621 114.609 349.65 114.625 349.679 114.609C350.947 114.425 352.244 114.224 353.512 114.041C354.987 113.841 356.461 113.607 357.936 113.407C358.171 113.374 358.437 113.323 358.672 113.29C358.702 113.273 358.732 113.29 358.761 113.307L363.423 115.999Z" fill="black"/>
<path d="M348.485 113.997C348.456 113.98 348.456 113.98 348.485 113.997C348.63 113.742 348.748 113.228 348.893 112.973L349.22 111.996C349.365 111.741 349.566 111.496 349.711 111.241C349.914 110.884 350.053 110.654 350.256 110.296C350.431 110.058 350.626 109.59 350.801 109.352C350.918 109.182 351.424 109.387 351.511 109.199C351.074 108.88 351.599 108.891 351.54 109.148L357.596 112.645C357.597 112.679 357.567 112.662 357.537 112.679C357.391 112.696 357.272 112.729 357.154 112.729L348.574 113.981C348.514 113.98 348.485 113.997 348.485 113.997ZM360.949 108.07C360.978 108.087 360.978 108.087 360.978 108.121C361.71 110.51 362.411 112.882 363.143 115.271C363.234 115.527 363.295 115.766 363.386 116.022L358.665 113.296C358.809 112.939 358.954 112.581 359.128 112.241L360.949 108.104C360.92 108.087 360.949 108.07 360.949 108.07Z" fill="black"/>
<path d="M351.576 109.159L344.66 105.166L359.74 107.362C359.798 107.362 359.857 107.362 359.887 107.379C359.711 107.413 359.533 107.446 359.328 107.497C359.121 107.547 358.885 107.581 358.679 107.631C358.561 107.665 358.414 107.682 358.266 107.732C358.061 107.783 357.795 107.833 357.589 107.884C357.471 107.917 357.324 107.934 357.206 107.967L356.322 108.169C356.145 108.203 356.028 108.237 355.851 108.27C355.644 108.32 355.408 108.354 355.202 108.404C355.084 108.438 354.937 108.455 354.819 108.489L353.935 108.69C353.759 108.724 353.64 108.757 353.463 108.791C353.258 108.842 353.021 108.875 352.815 108.925C352.668 108.942 352.52 108.992 352.374 109.009L351.577 109.16L351.576 109.159Z" fill="black"/>
<rect width="40.1706" height="5.88409" transform="matrix(0.866025 0.5 2.20305e-08 -1 271.08 100.113)" fill="white"/>
<rect width="40.1706" height="5.54878" transform="matrix(0.866025 0.5 2.20305e-08 -1 272.864 95.0778)" fill="white"/>
<path d="M272.635 95.1262L307.652 115.344L307.652 115.076L272.635 94.8586L272.635 95.1262Z" fill="black"/>
<rect width="33.9905" height="1.26759" transform="matrix(0.866025 0.5 2.20305e-08 -1 274.648 103.403)" fill="black"/>
<path d="M331.737 113.455L366.526 93.6307L366.526 99.7151L331.737 119.8L331.737 113.455Z" fill="white"/>
<rect width="40.1706" height="5.54878" transform="matrix(0.866025 -0.5 2.20305e-08 1 329.061 109.456)" fill="white"/>
<path d="M327.494 115.832L362.512 95.615L362.512 95.9238L327.494 116.141L327.494 115.832Z" fill="black"/>
<path d="M335.751 117.47L364.325 101.025L364.771 101.917L335.334 118.913L335.751 117.47Z" fill="black"/>
</g>
<defs>
<clipPath id="clip0_423_1443">
<rect width="390" height="162" fill="white"/>
</clipPath>
</defs>
</svg>
