<svg width="212" height="209" viewBox="0 0 212 209" fill="none" xmlns="http://www.w3.org/2000/svg">
<g id="&#229;&#155;&#190;&#229;&#177;&#130; 1">
<g id="Group">
<path id="Vector" d="M110.544 178.499C141.688 178.499 166.936 171.987 166.936 163.947C166.936 155.907 141.688 149.395 110.544 149.395C79.3999 149.395 54.1519 155.907 54.1519 163.947C54.1519 171.987 79.3999 178.499 110.544 178.499Z" stroke="black" stroke-width="0.8" stroke-miterlimit="10"/>
<path id="Vector_2" d="M54.3297 84.9057L54.5523 84.7955V84.5471V83.7392V83.4988L54.3401 83.386C51.3533 81.7978 48.4304 79.6368 45.5642 76.9056C42.7204 74.1957 40.3326 70.7137 38.4062 66.4576C36.554 62.1525 35.6163 56.9384 35.6163 50.8032V38.7152C35.6163 30.3628 37.0184 23.685 39.7983 18.6608L39.7993 18.659C42.5956 13.5416 46.1022 9.7022 50.3365 7.12069L50.3379 7.11982C54.667 4.45578 59.149 2.69886 63.8012 1.83646L63.8012 1.83648L63.806 1.83554C68.5543 0.895427 72.8238 0.435156 76.6243 0.435156C80.4248 0.435156 84.7582 0.903445 89.4422 1.83547L89.4422 1.83551L89.4483 1.83663C94.164 2.69907 98.6451 4.46374 102.909 7.11871L102.909 7.11876L102.915 7.12232C107.214 9.69694 110.759 13.505 113.546 18.5564L113.546 18.5568C116.326 23.5811 117.728 30.2509 117.728 38.6112V50.6992C117.728 56.8346 116.759 62.0482 114.843 66.3525L114.842 66.3548C112.979 70.6107 110.624 74.0921 107.78 76.8016C104.914 79.5328 101.991 81.6938 99.0045 83.282L98.7923 83.3948V83.6352V84.4432V84.6927L99.0164 84.8024C105.131 87.7965 110.184 92.1119 114.177 97.7698L114.179 97.7718C118.144 103.319 120.144 111.113 120.144 121.211V131.787C120.144 140.616 118.837 147.809 116.253 153.379L116.252 153.382C113.724 158.97 110.34 163.312 106.108 166.417C101.855 169.537 97.1684 171.698 92.0532 172.894C86.9145 174.095 81.7371 174.699 76.5283 174.699H76.3628L76.355 174.707C71.2026 174.694 66.0884 174.09 60.9964 172.902C55.9454 171.706 51.2983 169.577 47.0369 166.521C42.8688 163.408 39.517 159.074 36.9887 153.486C34.4681 147.916 33.2003 140.721 33.2003 131.891V121.315C33.2003 111.218 35.2078 103.423 39.1655 97.876C43.2243 92.2159 48.2781 87.8998 54.3297 84.9057ZM64.8023 25.9158L64.8022 25.9157L64.7997 25.9201C62.5312 29.7691 61.4243 35.2924 61.4243 42.4432V55.0352C61.4243 62.6411 62.597 68.0265 65.0391 71.1L65.0428 71.1045C67.5433 74.1598 71.021 75.6813 75.4163 75.6832C75.419 75.6832 75.4216 75.6832 75.4243 75.6832H77.8323C81.8995 75.6832 85.3032 74.2317 87.9977 71.323C90.7254 68.3784 92.0323 62.87 92.0323 54.9312V42.2432C92.0323 35.1635 90.8532 29.7002 88.4441 25.9121C86.0743 22.007 82.0942 20.0832 76.6243 20.0832C71.1526 20.0832 67.1717 22.0082 64.8023 25.9158ZM75.5811 155.128L75.5536 155.155H76.5203C79.525 155.155 82.3718 154.577 85.0406 153.41L85.048 153.406C87.7589 152.154 89.9372 149.931 91.5773 146.783C93.3026 143.61 94.1443 139.069 94.1443 133.203V114.971C94.1443 107.422 92.7027 101.923 89.7169 98.5873C86.807 95.2011 82.8347 93.5151 77.8323 93.5151H75.3123C70.3028 93.5151 66.3282 95.2703 63.4197 98.7966L63.4188 98.7977C60.5799 102.264 59.2003 107.713 59.2003 115.067V133.299C59.2003 139.164 59.9779 143.701 61.5625 146.87L61.5655 146.876C63.2047 150.024 65.3523 152.219 68.0056 153.401L68.008 153.402C70.3947 154.445 72.9239 155.018 75.5811 155.128Z" fill="white" stroke="black" stroke-width="0.8"/>
<path id="Vector_3" d="M63.1852 171.885C58.1052 171.885 53.0492 171.301 48.0332 170.125C43.0812 168.949 38.5212 166.869 34.3452 163.869C30.2412 160.805 26.9452 156.541 24.4732 151.061C21.9932 145.589 20.7612 138.549 20.7612 129.941V119.677C20.7612 109.837 22.7132 102.181 26.6252 96.7008C30.6012 91.1568 35.5532 86.9248 41.4812 83.9888V83.2048C38.5452 81.6368 35.6812 79.5248 32.8812 76.8528C30.0812 74.1808 27.7292 70.7568 25.8412 66.5888C24.0172 62.3488 23.1052 57.2368 23.1052 51.2368V39.5088C23.1052 31.3648 24.4732 24.8128 27.2092 19.8608C29.9452 14.8448 33.4012 11.0608 37.5692 8.51684C41.8092 5.90884 46.2012 4.18084 50.7692 3.33284C55.3932 2.42084 59.5692 1.96484 63.2812 1.96484C66.9932 1.96484 71.2332 2.42084 75.7932 3.33284C80.4252 4.18084 84.8172 5.90884 88.9932 8.51684C93.2252 11.0608 96.7132 14.8048 99.4572 19.7568C102.193 24.7088 103.561 31.2608 103.561 39.4048V51.1328C103.561 57.1328 102.617 62.2448 100.729 66.4848C98.9052 70.6528 96.5932 74.0768 93.7852 76.7488C90.9852 79.4208 88.1132 81.5408 85.1852 83.1008V83.8848C91.1852 86.8208 96.1372 91.0528 100.049 96.5968C103.961 102.069 105.913 109.733 105.913 119.573V129.837C105.913 138.437 104.641 145.477 102.097 150.957C99.6172 156.429 96.2972 160.701 92.1292 163.765C87.9612 166.829 83.3612 168.949 78.3452 170.117C73.3292 171.293 68.2732 171.877 63.1932 171.877L63.1852 171.885ZM62.1132 75.0048H64.4572C68.3052 75.0048 71.4972 73.6368 74.0412 70.9008C76.5852 68.1648 77.8572 62.9488 77.8572 55.2608V42.9408C77.8572 36.1008 76.7132 30.8848 74.4332 27.3008C72.2172 23.6528 68.5052 21.8288 63.2892 21.8288C58.0732 21.8288 54.3612 23.6528 52.1452 27.3008C49.9932 30.9488 48.9212 36.2288 48.9212 43.1408V55.3648C48.9212 62.7328 50.0572 67.8448 52.3452 70.7168C54.6892 73.5808 57.9532 75.0208 62.1212 75.0208L62.1132 75.0048ZM63.1852 152.141C66.0492 152.141 68.7612 151.589 71.2972 150.477C73.8412 149.301 75.8892 147.221 77.4572 144.221C79.0892 141.221 79.8972 136.893 79.8972 131.221V113.525C79.8972 106.229 78.4972 101.013 75.6972 97.8848C72.9612 94.6928 69.2092 93.0928 64.4572 93.0928H62.0172C57.2572 93.0928 53.5132 94.7568 50.7772 98.0768C48.1052 101.333 46.7692 106.517 46.7692 113.621V131.317C46.7692 136.989 47.5212 141.325 49.0172 144.317C50.5852 147.317 52.6012 149.365 55.0812 150.477C57.6252 151.589 60.3292 152.141 63.1932 152.141H63.1852Z" fill="white"/>
<g id="Group_2">
<path id="Vector_4" d="M34.352 163.867L33.992 164.355H34L34.352 163.867ZM41.488 83.9953L41.76 84.5393L42.096 84.3713V83.9953H41.488ZM41.488 83.2113H42.096V82.8433L41.776 82.6753L41.488 83.2113ZM25.84 66.5953L25.28 66.8353V66.8433L25.832 66.5953H25.84ZM27.208 19.8673L27.736 20.1633L27.2 19.8673H27.208ZM37.576 8.52328L37.888 9.04328L37.568 8.52328H37.576ZM50.768 3.33928L50.88 3.93928L50.76 3.33928H50.768ZM75.8 3.33928L75.68 3.93128H75.688L75.8 3.33928ZM89 8.52328L88.68 9.03528H88.688L89 8.52328ZM100.728 66.4993L100.176 66.2513L100.736 66.4993H100.728ZM85.184 83.1153L84.896 82.5793L84.576 82.7473V83.1073H85.184V83.1153ZM85.184 83.8993H84.576V84.2753L84.92 84.4433L85.184 83.8993ZM74.432 27.2913L73.912 27.6033V27.6113L74.424 27.2833L74.432 27.2913ZM71.304 150.475L71.544 151.035L71.288 150.483L71.304 150.475ZM75.704 97.8833L75.24 98.2753V98.2833L75.696 97.8753L75.704 97.8833ZM50.768 98.0753L50.304 97.6913L50.776 98.0753H50.768ZM49.016 144.315L48.472 144.587L49.008 144.315H49.016ZM55.072 150.475L54.824 151.027L55.064 150.475H55.072ZM63.184 171.275C58.144 171.275 53.144 170.691 48.168 169.531L47.888 170.715C52.952 171.899 58.048 172.491 63.176 172.491V171.275H63.184ZM48.176 169.539C43.296 168.387 38.808 166.331 34.704 163.379L33.992 164.363C38.224 167.411 42.864 169.523 47.896 170.715L48.176 169.531V169.539ZM34.712 163.379C30.704 160.387 27.472 156.203 25.024 150.811L23.92 151.307C26.432 156.859 29.784 161.219 33.984 164.347L34.712 163.371V163.379ZM25.024 150.811C22.592 145.443 21.36 138.499 21.36 129.947H20.144C20.144 138.603 21.392 145.731 23.912 151.315L25.016 150.819L25.024 150.811ZM21.368 129.947V119.683H20.152V129.947H21.368ZM21.368 119.683C21.368 109.915 23.312 102.395 27.12 97.0593L26.136 96.3553C22.128 101.971 20.16 109.771 20.16 119.683H21.376H21.368ZM27.12 97.0593C31.04 91.5953 35.92 87.4273 41.752 84.5393L41.216 83.4513C35.192 86.4273 30.16 90.7313 26.136 96.3473L27.12 97.0513V97.0593ZM42.088 83.9953V83.2113H40.872V83.9953H42.088ZM41.768 82.6833C38.888 81.1473 36.064 79.0673 33.296 76.4273L32.456 77.3073C35.288 80.0113 38.2 82.1633 41.192 83.7553L41.76 82.6833H41.768ZM33.304 76.4193C30.568 73.8113 28.264 70.4593 26.4 66.3393L25.296 66.8433C27.216 71.0753 29.6 74.5633 32.472 77.2993L33.312 76.4193H33.304ZM26.4 66.3553C24.616 62.2113 23.712 57.1873 23.712 51.2433H22.496C22.496 57.2993 23.416 62.4993 25.28 66.8353L26.392 66.3553H26.4ZM23.712 51.2433V39.5153H22.496V51.2433H23.712ZM23.712 39.5153C23.712 31.4273 25.072 24.9873 27.744 20.1553L26.68 19.5713C23.88 24.6433 22.496 31.3073 22.496 39.5153H23.712ZM27.744 20.1553C30.44 15.2113 33.824 11.5233 37.888 9.04328L37.256 8.00328C32.976 10.6113 29.456 14.4753 26.68 19.5713L27.744 20.1553ZM37.896 9.04328C42.072 6.47528 46.4 4.77128 50.888 3.93928L50.664 2.74728C46.024 3.61128 41.552 5.36328 37.256 8.01128L37.888 9.04328H37.896ZM50.888 3.93928C55.488 3.03528 59.616 2.57928 63.288 2.57928V1.36328C59.528 1.36328 55.312 1.82728 50.656 2.74728L50.888 3.93928ZM63.288 2.57928C67.024 2.57928 71.152 3.02728 75.68 3.93928L75.92 2.74728C71.328 1.82728 67.112 1.36328 63.288 1.36328V2.57928ZM75.688 3.93928C80.24 4.77128 84.568 6.46728 88.672 9.03528L89.312 8.00328C85.08 5.35528 80.608 3.60328 75.904 2.73928L75.688 3.93128V3.93928ZM88.688 9.04328C92.816 11.5233 96.232 15.1873 98.928 20.0593L99.992 19.4753C97.208 14.4433 93.656 10.6113 89.312 8.00328L88.688 9.04328ZM98.928 20.0593C101.6 24.8913 102.96 31.3313 102.96 39.4193H104.176C104.176 31.2113 102.8 24.5473 99.992 19.4753L98.928 20.0593ZM102.96 39.4193V51.1473H104.176V39.4193H102.96ZM102.96 51.1473C102.96 57.0833 102.024 62.1073 100.176 66.2513L101.28 66.7473C103.216 62.4113 104.168 57.2113 104.168 51.1553H102.952L102.96 51.1473ZM100.176 66.2513C98.376 70.3633 96.104 73.7153 93.376 76.3233L94.216 77.2033C97.088 74.4673 99.44 70.9713 101.296 66.7393L100.184 66.2513H100.176ZM93.368 76.3233C90.6 78.9633 87.776 81.0433 84.896 82.5793L85.464 83.6513C88.456 82.0593 91.368 79.9073 94.2 77.2033L93.36 76.3233H93.368ZM84.576 83.1153V83.8993H85.792V83.1153H84.576ZM84.92 84.4433C90.824 87.3313 95.696 91.4993 99.552 96.9553L100.544 96.2593C96.576 90.6353 91.544 86.3313 85.456 83.3553L84.92 84.4433ZM99.552 96.9633C103.36 102.299 105.304 109.811 105.304 119.587H106.52C106.52 109.675 104.552 101.875 100.544 96.2593L99.56 96.9633H99.552ZM105.304 119.579V129.843H106.52V119.579H105.304ZM105.304 129.851C105.304 138.403 104.04 145.347 101.544 150.715L102.648 151.227C105.24 145.643 106.52 138.515 106.52 129.859H105.304V129.851ZM101.544 150.715C99.104 156.107 95.84 160.291 91.768 163.283L92.488 164.259C96.76 161.123 100.144 156.771 102.656 151.211L101.552 150.707L101.544 150.715ZM91.768 163.283C87.664 166.299 83.144 168.379 78.2 169.539L78.48 170.723C83.576 169.531 88.248 167.379 92.488 164.267L91.768 163.291V163.283ZM78.2 169.531C73.224 170.691 68.224 171.275 63.184 171.275V172.491C68.312 172.491 73.416 171.899 78.472 170.715L78.192 169.531H78.2ZM62.112 75.6113H64.456V74.3953H62.112V75.6113ZM64.456 75.6113C68.464 75.6113 71.824 74.1793 74.48 71.3073L73.592 70.4833C71.168 73.0913 68.136 74.3953 64.456 74.3953V75.6113ZM74.488 71.3073C77.2 68.3873 78.464 62.9553 78.464 55.2513H77.248C77.248 62.9233 75.968 67.9233 73.6 70.4833L74.488 71.3073ZM78.456 55.2513V42.9313H77.24V55.2513H78.456ZM78.456 42.9393C78.456 36.0433 77.312 30.6993 74.936 26.9713L73.912 27.6193C76.104 31.0673 77.24 36.1473 77.24 42.9393H78.456ZM74.952 26.9793C72.6 23.1073 68.656 21.2113 63.288 21.2113V22.4273C68.344 22.4273 71.832 24.1873 73.912 27.6113L74.952 26.9793ZM63.288 21.2113C57.92 21.2113 53.976 23.1073 51.624 26.9793L52.664 27.6113C54.744 24.1873 58.232 22.4273 63.288 22.4273V21.2113ZM51.616 26.9873C49.384 30.7713 48.304 36.1793 48.304 43.1313H49.52C49.52 36.2673 50.592 31.1153 52.664 27.6033L51.616 26.9873ZM48.304 43.1313V55.3553H49.52V43.1313H48.304ZM48.304 55.3553C48.304 62.7393 49.44 68.0433 51.856 71.0833L52.808 70.3313C50.664 67.6353 49.52 62.7073 49.52 55.3633H48.304V55.3553ZM51.864 71.0833C54.344 74.1073 57.784 75.6033 62.112 75.6033V74.3873C58.096 74.3873 55.024 73.0193 52.808 70.3073L51.872 71.0753L51.864 71.0833ZM63.184 152.747C66.136 152.747 68.92 152.179 71.544 151.035L71.056 149.923C68.592 150.995 65.968 151.531 63.184 151.531V152.747ZM71.56 151.027C74.248 149.787 76.392 147.595 78 144.499L76.928 143.939C75.408 146.843 73.448 148.819 71.048 149.923L71.56 151.027ZM77.992 144.507C79.688 141.379 80.512 136.931 80.512 131.219H79.296C79.296 136.843 78.488 141.059 76.928 143.931L77.992 144.507ZM80.512 131.219V113.523H79.296V131.219H80.512ZM80.512 113.523C80.512 106.179 79.104 100.771 76.152 97.4753L75.248 98.2833C77.904 101.243 79.296 106.267 79.296 113.523H80.512ZM76.16 97.4833C73.288 94.1393 69.368 92.4833 64.456 92.4833V93.6993C69.064 93.6993 72.632 95.2353 75.24 98.2753L76.16 97.4833ZM64.456 92.4833H62.016V93.6993H64.456V92.4833ZM62.016 92.4833C57.096 92.4833 53.168 94.2113 50.304 97.6913L51.24 98.4593C53.848 95.2913 57.416 93.6913 62.016 93.6913V92.4753V92.4833ZM50.304 97.6913C47.496 101.107 46.16 106.467 46.16 113.619H47.376C47.376 106.571 48.704 101.555 51.248 98.4593L50.312 97.6913H50.304ZM46.16 113.619V131.315H47.376V113.619H46.16ZM46.16 131.315C46.16 137.019 46.912 141.467 48.472 144.587L49.56 144.043C48.12 141.171 47.376 136.947 47.376 131.315H46.16ZM48.472 144.595C50.08 147.683 52.192 149.851 54.824 151.027L55.32 149.923C53 148.883 51.064 146.947 49.552 144.035L48.472 144.595ZM54.832 151.035C57.456 152.179 60.24 152.747 63.192 152.747V151.531C60.408 151.531 57.784 150.995 55.32 149.923L54.832 151.035Z" fill="black"/>
</g>
<g id="Clip path group">
<mask id="mask0_5345_409" style="mask-type:luminance" maskUnits="userSpaceOnUse" x="94" y="38" width="104" height="142">
<g id="clippath">
<path id="Vector_5" d="M197.089 38.3945H94.9526V179.555H197.089V38.3945Z" fill="white"/>
</g>
</mask>
<g mask="url(#mask0_5345_409)">
<g id="Group_3">
<g id="Group_4">
<path id="Vector_6" fill-rule="evenodd" clip-rule="evenodd" d="M136.967 61.1252L156.359 61.7412C156.247 61.7412 156.135 61.7412 156.023 61.7412C151.063 61.7412 146.855 63.6212 143.903 67.0052L124.223 66.3812C127.159 62.9972 131.383 61.1172 136.343 61.1172C136.559 61.1172 136.767 61.1172 136.967 61.1252ZM156.647 61.7492C156.551 61.7492 156.455 61.7492 156.359 61.7412H156.647V61.7492ZM139.431 80.5652H139.439L139.351 138.221L119.671 137.597L119.743 79.9412C119.743 79.2292 119.775 78.5412 119.823 77.8612C119.887 77.0212 119.983 76.2132 120.127 75.4212L139.807 76.0452C139.663 76.8292 139.567 77.6372 139.503 78.4772C139.447 79.1572 139.423 79.8452 139.423 80.5572L139.431 80.5652ZM143.903 67.0052L124.223 66.3812C123.751 66.9332 123.303 67.5172 122.895 68.1412L142.575 68.7652C142.983 68.1412 143.431 67.5572 143.903 67.0052ZM122.903 68.1492L142.583 68.7732C142.239 69.3012 141.927 69.8532 141.631 70.4292C141.359 70.9812 141.111 71.5412 140.887 72.1332L124.183 71.6052L140.879 72.1332C140.655 72.7252 140.455 73.3412 140.287 73.9812C140.103 74.6532 139.951 75.3412 139.823 76.0532L120.143 75.4292C120.271 74.7172 120.423 74.0292 120.607 73.3572C120.783 72.7172 120.983 72.1092 121.199 71.5092C121.423 70.9172 121.671 70.3412 121.959 69.8052C122.247 69.2212 122.567 68.6612 122.911 68.1412L122.903 68.1492ZM119.679 137.597L139.359 138.221C139.359 138.525 139.359 138.829 139.367 139.125L119.687 138.501C119.679 138.197 119.679 137.893 119.679 137.597ZM139.367 139.133L119.687 138.509C119.719 139.621 119.815 140.685 119.975 141.701L139.655 142.325C139.495 141.309 139.399 140.245 139.367 139.133ZM119.983 141.701L139.663 142.325C139.863 143.621 140.159 144.837 140.543 145.981C141.295 148.181 142.375 150.077 143.743 151.645L124.063 151.021C122.695 149.461 121.615 147.557 120.863 145.357C120.479 144.213 120.175 142.997 119.983 141.701ZM124.063 151.013L143.743 151.637C144.335 152.317 144.983 152.933 145.671 153.485L125.991 152.861C125.303 152.309 124.655 151.693 124.063 151.013ZM145.671 153.493L125.991 152.869C126.479 153.245 126.983 153.605 127.511 153.925L147.191 154.549C146.663 154.237 146.159 153.877 145.671 153.493ZM127.511 153.925L147.191 154.549C147.655 154.829 148.127 155.085 148.623 155.309C149.087 155.525 149.575 155.717 150.071 155.893L130.391 155.269C129.895 155.109 129.415 154.901 128.951 154.693C128.455 154.469 127.983 154.205 127.519 153.925H127.511ZM130.391 155.285L150.071 155.909C150.551 156.077 151.039 156.221 151.535 156.349H151.591C152.143 156.477 152.703 156.589 153.271 156.661L133.591 156.037C133.031 155.965 132.495 155.861 131.967 155.741H131.911C131.391 155.597 130.879 155.461 130.391 155.285ZM133.591 156.053L153.271 156.677C153.855 156.757 154.455 156.805 155.055 156.829H155.239H155.207L135.527 156.205H135.535C134.863 156.181 134.215 156.133 133.591 156.045V156.053Z" fill="black"/>
<g id="Vector_7">
<path d="M95.3843 79.5617C95.4003 66.4577 100.184 56.2737 107.68 49.3537C115.184 42.4337 125.424 38.7697 136.384 38.7617C147.344 38.7617 157.528 42.4097 164.96 49.3217C172.384 56.2337 177.096 66.4097 177.072 79.5137L176.984 137.754C176.96 150.858 172.224 161.05 164.776 167.97C157.328 174.89 147.136 178.562 136.176 178.562C125.216 178.562 114.984 174.914 107.504 167.994C100.024 161.082 95.2723 150.898 95.2963 137.794L95.3843 79.5537V79.5617ZM119.4 79.9377L119.312 137.594C119.304 143.49 121.032 148.242 124.024 151.522C127.024 154.81 131.264 156.586 136.208 156.578C141.152 156.578 145.344 154.786 148.304 151.498C151.264 148.21 152.952 143.458 152.968 137.57L153.056 79.9137C153.064 74.0177 151.384 69.2257 148.44 65.8977C145.488 62.5617 141.296 60.7377 136.344 60.7457C131.392 60.7457 127.152 62.5857 124.144 65.9217C121.144 69.2497 119.4 74.0497 119.392 79.9457L119.4 79.9377Z" fill="white"/>
<path d="M95.2963 137.794C95.2723 150.898 100.024 161.082 107.504 167.994C114.984 174.914 125.216 178.562 136.176 178.562C147.136 178.562 157.328 174.89 164.776 167.97C172.224 161.05 176.96 150.858 176.984 137.754L177.072 79.5137C177.096 66.4097 172.384 56.2337 164.96 49.3217C157.528 42.4097 147.344 38.7617 136.384 38.7617C125.424 38.7697 115.184 42.4337 107.68 49.3537C100.184 56.2737 95.4003 66.4577 95.3843 79.5617V79.5537L95.2963 137.794ZM95.2963 137.794H94.9683M119.4 79.9377L119.312 137.594C119.304 143.49 121.032 148.242 124.024 151.522C127.024 154.81 131.264 156.586 136.208 156.578C141.152 156.578 145.344 154.786 148.304 151.498C151.264 148.21 152.952 143.458 152.968 137.57L153.056 79.9137C153.064 74.0177 151.384 69.2257 148.44 65.8977C145.488 62.5617 141.296 60.7377 136.344 60.7457C131.392 60.7457 127.152 62.5857 124.144 65.9217C121.144 69.2497 119.4 74.0497 119.392 79.9457L119.4 79.9377Z" stroke="black" stroke-width="0.728"/>
</g>
<path id="Vector_8" d="M177.208 141.66L196.888 142.284C196.768 143.868 196.576 145.412 196.312 146.908L176.632 146.284C176.888 144.788 177.088 143.244 177.208 141.66Z" fill="black"/>
<path id="Vector_9" d="M176.634 146.289L196.314 146.913C196.066 148.313 195.762 149.673 195.402 150.993L175.722 150.369C176.082 149.041 176.386 147.681 176.634 146.297V146.289Z" fill="black"/>
<path id="Vector_10" d="M175.72 150.355L195.4 150.979C195.04 152.275 194.632 153.523 194.176 154.731L174.496 154.107C174.952 152.899 175.36 151.651 175.72 150.355Z" fill="black"/>
<path id="Vector_11" d="M174.489 154.105L194.177 154.729C193.697 155.969 193.169 157.169 192.601 158.329L172.921 157.705C173.497 156.537 174.025 155.345 174.489 154.105Z" fill="black"/>
<path id="Vector_12" d="M172.912 157.715L192.592 158.339C191.952 159.611 191.264 160.819 190.504 161.987L170.824 161.355C171.584 160.203 172.272 158.979 172.912 157.723V157.715Z" fill="black"/>
<path id="Vector_13" d="M170.822 161.348L190.502 161.972C189.566 163.42 188.534 164.772 187.422 166.052L167.742 165.428C168.854 164.156 169.878 162.796 170.822 161.348Z" fill="black"/>
<path id="Vector_14" d="M167.761 165.418L187.441 166.042C179.785 174.85 168.305 179.546 155.865 179.546C155.337 179.546 154.809 179.538 154.281 179.522L134.601 178.898C135.129 178.922 135.657 178.922 136.185 178.922C148.625 178.922 160.097 174.234 167.761 165.418Z" fill="black"/>
<path id="Vector_15" d="M196.646 138.123H196.637V138.523C196.637 139.714 196.591 140.867 196.511 141.999L177.183 141.4C177.272 140.248 177.305 139.073 177.305 137.883L177.395 79.6515V79.6509C177.395 79.0795 177.386 78.5007 177.378 77.9489L177.372 77.5549H177.358C177.287 75.5802 177.095 73.6773 176.809 71.8528L176.809 71.8522C176.388 69.1978 175.76 66.694 174.925 64.3334C173.205 59.4609 170.666 55.2238 167.489 51.6568L167.489 51.6566C165.966 49.95 164.303 48.4056 162.525 47.0231L162.524 47.0223C161.226 46.0202 159.879 45.1072 158.466 44.2672C157.209 43.5154 155.895 42.829 154.55 42.2077L154.548 42.2067C153.251 41.6171 151.921 41.0926 150.568 40.6248L150.505 40.6029H150.495C149.145 40.1518 147.763 39.7555 146.365 39.4218L146.363 39.4214C146.068 39.3525 145.772 39.2861 145.476 39.2224L151.252 39.4027L151.252 39.4027L156.784 39.5707L156.784 39.5709H156.797H156.846C158.541 39.6345 160.204 39.7773 161.858 39.9993C163.367 40.2055 164.852 40.4831 166.313 40.8242C167.716 41.1572 169.087 41.5538 170.435 42.0061L170.497 42.0269H170.505C171.826 42.4731 173.102 42.9884 174.348 43.5583C175.671 44.1694 176.959 44.8347 178.196 45.5778L178.197 45.5782C179.576 46.4029 180.904 47.2976 182.158 48.278L182.266 48.3629H182.282C183.983 49.7027 185.574 51.1861 187.024 52.8129C190.132 56.3019 192.618 60.4485 194.295 65.2234L194.295 65.2243C195.113 67.5365 195.737 69.992 196.134 72.5991L196.186 72.9389H196.204C196.48 74.7458 196.642 76.632 196.703 78.5914L196.703 78.5964C196.727 79.1462 196.727 79.6974 196.727 80.2749L196.646 138.123Z" fill="white" stroke="black" stroke-width="0.8" stroke-miterlimit="10"/>
</g>
</g>
</g>
</g>
<path id="Vector_16" d="M47.7368 106.035C48.6248 92.0751 64.0728 92.0591 70.2168 94.6271C65.9688 100.235 63.7768 100.459 62.8328 118.379C62.0808 132.715 65.2248 147.131 66.8968 152.547C62.7768 151.907 53.9688 150.611 50.9528 146.795C47.1768 142.019 45.8808 135.515 47.7448 106.043L47.7368 106.035Z" fill="black"/>
<path id="Vector_17" opacity="0.7" d="M66.9658 191.292C66.9658 191.292 68.5978 187.844 73.3818 188.428C77.7658 188.964 72.0058 182.812 72.0058 182.812L63.2378 184.356L66.9658 191.292Z" fill="black"/>
<path id="Vector_18" d="M198.029 172.973C197.661 173.037 197.293 173.205 196.925 173.405" stroke="#05052D" stroke-width="0.096" stroke-miterlimit="10"/>
<path id="Vector_19" d="M198.239 172.949C198.167 172.949 198.103 172.965 198.031 172.973" stroke="#05052D" stroke-width="0.096" stroke-miterlimit="10"/>
<path id="Vector_20" d="M85.3429 83.5895C86.2309 83.3415 92.423 78.1655 95.415 75.6055V90.3415C95.311 90.6295 94.495 90.5735 92.039 88.0695C88.967 84.9335 84.2389 83.8935 85.3429 83.5895Z" fill="black"/>
<path id="Vector_21" d="M97.718 106.501C97.678 107.021 97.222 107.405 96.702 107.365C96.19 107.325 95.798 106.869 95.838 106.357L95.886 105.749L94.15 105.613L94.102 106.221C94.062 106.741 93.606 107.125 93.086 107.085C92.566 107.045 92.182 106.589 92.222 106.077L92.27 105.469L90.542 105.333L90.494 105.941C90.454 106.461 89.998 106.845 89.478 106.805C88.958 106.765 88.574 106.309 88.614 105.797L88.662 105.189L86.926 105.053L86.878 105.661C86.838 106.173 86.382 106.565 85.862 106.525C85.35 106.485 84.958 106.029 84.998 105.517L85.046 104.909L83.606 104.797C83.398 107.373 81.15 109.285 78.574 109.077C75.998 108.869 74.086 106.621 74.286 104.045L72.846 103.933L72.798 104.541C72.758 105.053 72.302 105.445 71.782 105.405C71.27 105.365 70.878 104.909 70.918 104.389L70.966 103.781L69.238 103.645L69.19 104.253C69.15 104.765 68.694 105.157 68.174 105.117C67.654 105.077 67.27 104.621 67.31 104.109L67.358 103.501L65.63 103.365L65.582 103.973C65.542 104.493 65.086 104.877 64.566 104.837C64.046 104.797 63.662 104.341 63.702 103.829L63.75 103.221L62.022 103.085L61.974 103.693C61.934 104.213 61.478 104.597 60.958 104.557C60.446 104.517 60.054 104.061 60.094 103.549L60.142 102.941L56.03 102.613L50.23 175.093L96.046 178.757L101.846 106.277L97.734 105.949L97.694 106.541L97.718 106.501Z" fill="#0B0B0B" stroke="#011029" stroke-width="0.344" stroke-miterlimit="10"/>
<path id="Vector_22" d="M49.3252 186.795L53.4212 187.123H53.4292L53.4612 186.699C53.5012 186.219 53.8772 185.811 54.3572 185.795C54.9332 185.771 55.3812 186.251 55.3412 186.811L55.3012 187.275V187.283L57.0212 187.419H57.0292L57.0612 186.995C57.1012 186.515 57.4772 186.107 57.9572 186.091C58.5332 186.067 58.9812 186.547 58.9412 187.107L58.9012 187.571V187.579L60.6212 187.715H60.6292L60.6612 187.291C60.7012 186.811 61.0772 186.403 61.5572 186.387C62.1332 186.363 62.5812 186.843 62.5412 187.403L62.5092 187.867L64.2292 188.003H64.2372L64.2692 187.579C64.3092 187.099 64.6852 186.691 65.1652 186.675C65.7412 186.651 66.1972 187.131 66.1492 187.691L66.1172 188.155V188.163L67.5412 188.275H67.5492C67.7572 185.707 70.0132 183.795 72.5812 183.995C75.1492 184.203 77.0692 186.451 76.8692 189.019L78.2932 189.131H78.3012L78.3332 188.707C78.3732 188.227 78.7492 187.819 79.2292 187.803C79.8052 187.779 80.2612 188.259 80.2132 188.819L80.1812 189.283V189.291L81.9012 189.427H81.9092L81.9412 189.003C81.9812 188.523 82.3572 188.115 82.8372 188.099C83.4132 188.075 83.8692 188.555 83.8212 189.115L83.7812 189.579V189.587L85.4932 189.723H85.5012L85.5332 189.299C85.5732 188.819 85.9492 188.411 86.4292 188.395C87.0052 188.371 87.4532 188.851 87.4132 189.411L87.3732 189.875V189.883L89.0932 190.019H89.1012L89.1332 189.595C89.1732 189.115 89.5492 188.707 90.0292 188.691C90.6052 188.667 91.0612 189.155 91.0132 189.707L90.9732 190.171V190.179L95.0692 190.507H95.0772L96.8372 168.547L51.0212 164.883L49.2612 186.843L49.3252 186.795Z" fill="black" stroke="black" stroke-width="0.344" stroke-miterlimit="10"/>
<path id="Vector_23" d="M102.534 109.555C102.454 110.067 101.966 110.411 101.454 110.331C100.942 110.243 100.598 109.763 100.678 109.251L100.774 108.651L99.0617 108.371L98.9657 108.971C98.8857 109.483 98.3977 109.827 97.8857 109.747C97.3737 109.667 97.0297 109.179 97.1097 108.667L97.2057 108.067L95.4937 107.787L95.3977 108.387C95.3177 108.899 94.8297 109.243 94.3177 109.163C93.8057 109.075 93.4617 108.595 93.5417 108.083L93.6377 107.483L91.9257 107.203L91.8297 107.803C91.7417 108.315 91.2617 108.659 90.7497 108.579C90.2377 108.499 89.8937 108.011 89.9737 107.499L90.0697 106.899L88.6457 106.667C88.2297 109.211 85.8217 110.939 83.2777 110.523C80.7337 110.107 79.0057 107.699 79.4217 105.155L77.9977 104.923L77.9017 105.523C77.8217 106.035 77.3337 106.379 76.8217 106.299C76.3097 106.211 75.9657 105.731 76.0457 105.219L76.1417 104.619L74.4297 104.339L74.3337 104.939C74.2537 105.451 73.7657 105.795 73.2537 105.715C72.7417 105.635 72.3977 105.147 72.4777 104.635L72.5737 104.035L70.8617 103.755L70.7657 104.355C70.6777 104.867 70.1977 105.211 69.6857 105.131C69.1737 105.043 68.8297 104.563 68.9097 104.051L69.0057 103.451L67.2937 103.171L67.1977 103.771C67.1177 104.283 66.6297 104.627 66.1177 104.547C65.6057 104.467 65.2617 103.979 65.3417 103.467L65.4377 102.867L61.3737 102.195L49.5737 173.955L94.9257 181.403L106.726 109.651L102.662 108.979L102.566 109.579L102.534 109.555Z" fill="white" stroke="#011029" stroke-width="0.512" stroke-miterlimit="10"/>
<path id="Vector_24" d="M47.6461 185.564L51.7021 186.228H51.7101L51.7821 185.804C51.8621 185.332 52.2701 184.956 52.7501 184.972C53.3261 184.996 53.7341 185.516 53.6461 186.068L53.5661 186.532V186.54L55.2621 186.82H55.2701L55.3421 186.396C55.4221 185.924 55.8301 185.548 56.3101 185.564C56.8861 185.588 57.2941 186.108 57.2061 186.66L57.1261 187.124V187.132L58.8221 187.412H58.8301L58.9021 186.988C58.9821 186.516 59.3901 186.14 59.8701 186.156C60.4461 186.18 60.8541 186.7 60.7661 187.252L60.6861 187.716V187.724L62.3821 188.004H62.3901L62.4621 187.58C62.5421 187.108 62.9501 186.732 63.4301 186.748C64.0061 186.772 64.4141 187.292 64.3261 187.844L64.2461 188.308V188.316L65.6541 188.548H65.6621C66.0861 186.004 68.4861 184.284 71.0301 184.7C73.5741 185.116 75.3021 187.516 74.8861 190.06V190.068L76.2941 190.3H76.3021L76.3741 189.876C76.4541 189.404 76.8621 189.028 77.3421 189.044C77.9181 189.068 78.3261 189.588 78.2381 190.132L78.1581 190.596V190.604L79.8541 190.884H79.8621L79.9341 190.46C80.0141 189.988 80.4221 189.612 80.9021 189.628C81.4781 189.652 81.8861 190.172 81.7981 190.724L81.7261 191.188V191.196L83.4221 191.476H83.4301L83.5021 191.052C83.5821 190.58 83.9901 190.204 84.4701 190.22C85.0461 190.244 85.4541 190.764 85.3661 191.316L85.2861 191.78V191.788L86.9821 192.068H86.9901L87.0621 191.644C87.1421 191.172 87.5501 190.796 88.0301 190.812C88.6061 190.836 89.0141 191.356 88.9261 191.908L88.8461 192.372V192.38L92.9021 193.044H92.9101L96.4861 171.308L51.1341 163.852L47.5581 185.588V185.612L47.6461 185.564Z" fill="white" stroke="black" stroke-width="0.344" stroke-miterlimit="10"/>
<path id="Vector_25" d="M54.6479 164.301L90.424 170.261" stroke="white" stroke-width="0.68"/>
<path id="Vector_26" d="M55.1362 163.805L91.0802 169.765" stroke="black" stroke-width="0.344"/>
<g id="Group_5" opacity="0.5">
<path id="Vector_27" d="M90.9801 173.355L89.1401 184.651L90.3081 184.843L92.1481 173.547L90.9801 173.355Z" fill="black"/>
<path id="Vector_28" d="M88.5036 172.949L86.6636 184.245L87.8316 184.437L89.6716 173.141L88.5036 172.949Z" fill="black"/>
<path id="Vector_29" d="M86.0114 172.551L84.1714 183.847L85.3394 184.039L87.1794 172.743L86.0114 172.551Z" fill="black"/>
<path id="Vector_30" d="M83.5348 172.141L81.6948 183.437L82.8628 183.629L84.7028 172.333L83.5348 172.141Z" fill="black"/>
<path id="Vector_31" d="M81.0543 171.734L79.2144 183.03L80.3823 183.222L82.2224 171.926L81.0543 171.734Z" fill="black"/>
<path id="Vector_32" d="M78.5661 171.332L76.7261 182.628L77.8941 182.82L79.7341 171.524L78.5661 171.332Z" fill="black"/>
<path id="Vector_33" d="M76.0856 170.934L74.2456 182.23L75.4136 182.422L77.2536 171.126L76.0856 170.934Z" fill="black"/>
<path id="Vector_34" d="M73.6051 170.523L71.7651 181.819L72.9331 182.011L74.7731 170.715L73.6051 170.523Z" fill="black"/>
<path id="Vector_35" d="M71.1247 170.125L69.2847 181.421L70.4527 181.613L72.2927 170.317L71.1247 170.125Z" fill="black"/>
<path id="Vector_36" d="M68.6364 169.715L66.7964 181.011L67.9644 181.203L69.8044 169.907L68.6364 169.715Z" fill="black"/>
<path id="Vector_37" d="M66.1598 169.316L64.3198 180.612L65.4878 180.804L67.3278 169.508L66.1598 169.316Z" fill="black"/>
<path id="Vector_38" d="M63.6794 168.91L61.8394 180.206L63.0074 180.398L64.8474 169.102L63.6794 168.91Z" fill="black"/>
<path id="Vector_39" d="M61.1911 168.508L59.3511 179.804L60.5191 179.996L62.3591 168.7L61.1911 168.508Z" fill="black"/>
<path id="Vector_40" d="M58.7106 168.102L56.8706 179.398L58.0386 179.59L59.8786 168.294L58.7106 168.102Z" fill="black"/>
<path id="Vector_41" d="M56.2301 167.699L54.3901 178.995L55.5581 179.187L57.3981 167.891L56.2301 167.699Z" fill="black"/>
<path id="Vector_42" d="M53.7497 167.293L51.9097 178.589L53.0777 178.781L54.9177 167.485L53.7497 167.293Z" fill="black"/>
</g>
<path id="Vector_43" d="M82.0779 117.73L80.9019 118.57L81.7419 119.746L82.9179 118.906L82.0779 117.73Z" fill="black"/>
<path id="Vector_44" d="M98.622 121.634L84.054 119.242C83.974 119.226 83.926 119.154 83.934 119.074C83.95 118.994 84.022 118.946 84.102 118.954L98.67 121.346C98.75 121.362 98.798 121.434 98.79 121.514C98.774 121.594 98.702 121.642 98.622 121.634Z" fill="black"/>
<path id="Vector_45" d="M79.6298 118.515L65.0618 116.123C64.9818 116.107 64.9338 116.035 64.9418 115.955C64.9578 115.875 65.0298 115.819 65.1098 115.835L79.6778 118.227C79.7578 118.243 79.8058 118.315 79.7978 118.395C79.7818 118.475 79.7098 118.531 79.6298 118.515Z" fill="black"/>
<path id="Vector_46" d="M63.829 136.988L62.605 136.788L63.525 131.156L66.197 131.588C66.453 131.628 66.685 131.708 66.877 131.828C67.069 131.948 67.229 132.1 67.349 132.284C67.477 132.468 67.557 132.668 67.605 132.908C67.653 133.14 67.653 133.396 67.605 133.66C67.541 134.044 67.405 134.364 67.181 134.62C66.965 134.876 66.677 135.044 66.309 135.116L67.053 137.508L65.685 137.284L65.037 135.06L64.157 134.916L63.821 136.98L63.829 136.988ZM65.629 134.1C65.813 134.132 65.965 134.1 66.077 134.036C66.197 133.956 66.277 133.828 66.309 133.644L66.365 133.292C66.397 133.108 66.365 132.964 66.269 132.852C66.181 132.74 66.045 132.668 65.869 132.636L64.581 132.428L64.341 133.9L65.629 134.108V134.1ZM69.613 138.028C69.293 137.972 69.013 137.876 68.773 137.732C68.541 137.58 68.349 137.404 68.197 137.18C68.053 136.956 67.965 136.7 67.917 136.412C67.877 136.124 67.885 135.812 67.941 135.468C67.997 135.132 68.085 134.844 68.221 134.588C68.349 134.324 68.517 134.116 68.717 133.948C68.917 133.78 69.157 133.668 69.421 133.604C69.685 133.54 69.973 133.532 70.293 133.58C70.645 133.636 70.933 133.748 71.157 133.9C71.389 134.06 71.565 134.252 71.693 134.476C71.821 134.7 71.901 134.956 71.925 135.228C71.957 135.5 71.949 135.78 71.901 136.06L71.845 136.412L69.125 135.972V136.036C69.069 136.316 69.109 136.548 69.229 136.74C69.349 136.924 69.573 137.044 69.901 137.1C70.149 137.14 70.357 137.124 70.533 137.052C70.709 136.972 70.869 136.876 71.029 136.764L71.509 137.604C71.285 137.796 71.013 137.924 70.685 137.996C70.365 138.068 70.005 138.076 69.621 138.012L69.613 138.028ZM70.165 134.468C69.925 134.428 69.717 134.476 69.557 134.62C69.397 134.756 69.293 134.956 69.253 135.22V135.284L70.725 135.524V135.452C70.781 135.196 70.757 134.98 70.661 134.804C70.573 134.62 70.413 134.516 70.165 134.476V134.468ZM72.637 134.068L73.789 134.26L73.925 136.036L74.005 137.372H74.037L74.589 136.14L75.349 134.508L76.437 134.684L76.653 136.476L76.789 137.82H76.821L77.325 136.58L78.013 134.94L79.117 135.116L77.253 139.164L76.005 138.964L75.781 137.084L75.661 135.94H75.637L75.165 136.988L74.357 138.692L73.133 138.492L72.637 134.06V134.068ZM82.157 139.972C81.941 139.94 81.773 139.844 81.653 139.684C81.533 139.524 81.477 139.332 81.477 139.1H81.429C81.317 139.356 81.141 139.54 80.901 139.652C80.661 139.756 80.373 139.78 80.053 139.732C79.629 139.66 79.325 139.5 79.133 139.236C78.941 138.972 78.877 138.66 78.941 138.284C79.013 137.836 79.229 137.532 79.589 137.372C79.957 137.204 80.413 137.164 80.973 137.26L81.645 137.372L81.685 137.108C81.717 136.9 81.685 136.732 81.605 136.596C81.517 136.452 81.349 136.364 81.093 136.324C80.853 136.284 80.661 136.308 80.501 136.388C80.341 136.468 80.213 136.564 80.101 136.676L79.493 135.932C79.709 135.708 79.957 135.548 80.237 135.444C80.525 135.34 80.893 135.324 81.341 135.404C81.941 135.5 82.373 135.708 82.629 136.02C82.885 136.332 82.973 136.74 82.893 137.252L82.589 139.108L82.981 139.172L82.829 140.1L82.165 139.996L82.157 139.972ZM80.621 138.964C80.821 138.996 80.997 138.98 81.149 138.916C81.309 138.852 81.405 138.724 81.437 138.532L81.517 138.036L80.933 137.94C80.461 137.86 80.205 137.988 80.149 138.3L80.133 138.42C80.109 138.58 80.133 138.7 80.221 138.788C80.309 138.876 80.437 138.932 80.613 138.956L80.621 138.964ZM83.621 140.212L84.309 135.972L85.501 136.164L85.349 137.084H85.389C85.429 136.98 85.485 136.868 85.557 136.772C85.629 136.668 85.717 136.58 85.813 136.508C85.917 136.436 86.037 136.388 86.165 136.356C86.301 136.324 86.445 136.316 86.613 136.348L86.821 136.38L86.637 137.492L86.341 137.444C85.989 137.388 85.725 137.388 85.533 137.452C85.349 137.516 85.237 137.676 85.197 137.924L84.789 140.404L83.597 140.212H83.621ZM89.565 140.452H89.525C89.477 140.556 89.405 140.652 89.317 140.74C89.229 140.828 89.133 140.9 89.013 140.956C88.901 141.012 88.781 141.044 88.645 141.06C88.517 141.084 88.381 141.084 88.245 141.06C87.709 140.972 87.333 140.716 87.117 140.3C86.909 139.876 86.861 139.3 86.973 138.58C87.085 137.86 87.317 137.332 87.653 137.004C87.989 136.668 88.429 136.548 88.965 136.636C89.237 136.684 89.469 136.796 89.653 136.98C89.845 137.164 89.949 137.38 89.973 137.628H90.013L90.413 135.188L91.605 135.38L90.629 141.348L89.437 141.156L89.549 140.444L89.565 140.452ZM88.813 140.156C89.037 140.196 89.237 140.172 89.397 140.084C89.565 139.996 89.669 139.852 89.701 139.66L89.901 138.412C89.933 138.22 89.885 138.052 89.749 137.924C89.621 137.788 89.445 137.7 89.221 137.66C88.997 137.62 88.797 137.676 88.613 137.812C88.445 137.948 88.333 138.148 88.293 138.412L88.173 139.148C88.133 139.42 88.173 139.644 88.285 139.828C88.413 140.012 88.589 140.116 88.813 140.156ZM93.181 141.868C92.773 141.804 92.437 141.684 92.181 141.508C91.925 141.324 91.701 141.1 91.525 140.82L92.341 140.228C92.461 140.42 92.613 140.58 92.773 140.708C92.941 140.836 93.141 140.916 93.373 140.956C93.613 140.996 93.781 140.988 93.885 140.932C93.989 140.868 94.053 140.78 94.069 140.652C94.101 140.452 93.981 140.308 93.701 140.228L93.253 140.092C92.317 139.82 91.917 139.308 92.037 138.556C92.069 138.348 92.141 138.172 92.237 138.02C92.349 137.86 92.477 137.732 92.637 137.636C92.805 137.54 92.989 137.468 93.197 137.436C93.413 137.396 93.645 137.404 93.901 137.436C94.125 137.476 94.309 137.524 94.477 137.58C94.645 137.636 94.789 137.7 94.909 137.78C95.037 137.852 95.141 137.948 95.237 138.052C95.333 138.148 95.429 138.26 95.525 138.38L94.725 138.972C94.613 138.812 94.477 138.684 94.317 138.58C94.165 138.476 93.997 138.404 93.821 138.372C93.613 138.34 93.469 138.348 93.365 138.396C93.261 138.444 93.213 138.524 93.197 138.636C93.181 138.748 93.197 138.844 93.245 138.916C93.301 138.988 93.413 139.052 93.581 139.1L94.045 139.244C94.957 139.516 95.349 140.02 95.237 140.748C95.205 140.956 95.133 141.132 95.013 141.292C94.901 141.452 94.749 141.58 94.565 141.684C94.389 141.78 94.181 141.852 93.941 141.884C93.709 141.916 93.453 141.916 93.181 141.868Z" fill="black"/>
<path id="Vector_47" d="M74.4997 158.363L73.3237 159.203L74.1637 160.379L75.3397 159.539L74.4997 158.363Z" fill="black"/>
<path id="Vector_48" d="M91.0556 162.267L76.4876 159.875C76.4076 159.859 76.3596 159.787 76.3676 159.707C76.3836 159.627 76.4556 159.579 76.5356 159.587L91.1036 161.979C91.1836 161.995 91.2396 162.067 91.2236 162.147C91.2076 162.227 91.1356 162.275 91.0556 162.267Z" fill="black"/>
<path id="Vector_49" d="M72.0613 159.14L57.4933 156.748C57.4133 156.732 57.3573 156.66 57.3733 156.58C57.3893 156.5 57.4613 156.444 57.5413 156.46L72.1093 158.852C72.1893 158.868 72.2373 158.94 72.2293 159.02C72.2133 159.1 72.1413 159.148 72.0613 159.14Z" fill="black"/>
<path id="Vector_50" d="M146.775 184.321C140.519 202.369 121.863 212.233 105.159 206.441C88.455 200.649 79.903 181.361 86.167 163.305C92.423 145.257 111.079 135.393 127.783 141.185C144.487 146.977 153.039 166.265 146.775 184.321Z" fill="white" stroke="black" stroke-width="0.96"/>
<path id="Vector_51" fill-rule="evenodd" clip-rule="evenodd" d="M100.111 204.554L98.6948 202.57L126.975 181.234L138.839 197.89C130.031 207.034 116.983 210.89 104.911 206.706C103.223 206.122 101.615 205.402 100.103 204.562L100.111 204.554Z" fill="black"/>
<path id="Vector_52" d="M140.873 181.493C134.617 199.541 115.961 209.405 99.2566 203.613C82.5526 197.821 74.0006 178.533 80.2646 160.477C86.5206 142.429 105.177 132.565 121.881 138.357C138.585 144.149 147.137 163.437 140.873 181.493Z" fill="white" stroke="black" stroke-width="0.96"/>
<g id="Group 2042">
<rect id="Rectangle 66" width="29.0954" height="8.17062" transform="matrix(-1.00785 -0.123881 -0.260968 0.937358 130.212 156.698)" fill="black"/>
<rect id="Rectangle 67" width="33.311" height="8.04765" transform="matrix(0.260968 -0.937358 -1.00785 -0.123881 109.765 190.743)" fill="black"/>
<ellipse id="Ellipse 910" cx="19.0323" cy="6.76309" rx="19.0323" ry="6.76309" transform="matrix(-1.00785 -0.123881 -0.260968 0.937358 131.927 169.085)" fill="black"/>
<ellipse id="Ellipse 911" cx="17.1291" cy="5.31385" rx="17.1291" ry="5.31385" transform="matrix(-1.00785 -0.123881 -0.260968 0.937358 129.756 169.755)" fill="white"/>
<path id="Rectangle 68" d="M113.419 177.619L118.458 159.518L110.347 158.522L105.263 176.785C105.263 176.785 107.73 177.088 109.318 177.283C110.907 177.479 113.419 177.619 113.419 177.619Z" fill="black"/>
</g>
<path id="Vector_53" d="M176.456 177.371C179.064 184.891 186.832 189.003 193.8 186.587C200.768 184.171 204.32 176.131 201.712 168.611C199.104 161.091 191.328 156.979 184.368 159.395C177.408 161.811 173.848 169.851 176.456 177.371Z" fill="white" stroke="black" stroke-width="0.4"/>
<path id="Vector_54" fill-rule="evenodd" clip-rule="evenodd" d="M195.901 185.794L196.493 184.97L184.709 176.082L179.765 183.026C183.437 186.834 188.869 188.442 193.901 186.698C194.605 186.458 195.277 186.154 195.909 185.802L195.901 185.794Z" fill="black"/>
<path id="Vector_55" d="M178.917 176.187C181.525 183.707 189.301 187.819 196.261 185.403C203.221 182.987 206.781 174.955 204.173 167.427C201.565 159.907 193.797 155.795 186.829 158.211C179.869 160.627 176.309 168.659 178.917 176.179V176.187Z" fill="white" stroke="black" stroke-width="0.4"/>
<path id="Vector_56" d="M195.871 167.02C195.103 165.156 193.303 165.02 191.255 165.476L190.439 162.844L188.927 163.348L189.719 165.892C189.327 166.02 188.927 166.156 188.535 166.292L187.735 163.748L186.263 164.244L187.079 166.812C186.767 166.916 186.463 167.028 186.159 167.124L184.191 167.748L184.711 169.38C184.711 169.38 185.759 169.036 185.743 169.06C186.327 168.884 186.631 169.188 186.783 169.484L187.695 172.364C187.735 172.356 187.791 172.34 187.847 172.332C187.799 172.348 187.751 172.364 187.695 172.372L188.967 176.364C188.999 176.564 188.991 176.9 188.583 177.012C188.607 177.028 187.543 177.284 187.543 177.284L187.831 179.148L189.703 178.676C190.055 178.588 190.407 178.508 190.751 178.42L191.543 180.932L193.023 180.58L192.239 178.076C192.647 177.98 193.047 177.884 193.439 177.788L194.223 180.3L195.743 179.94L194.943 177.372C197.511 176.564 199.175 175.412 198.639 172.828C198.207 170.732 196.967 170.084 195.351 170.156C196.119 169.412 196.439 168.412 195.871 167.044V167.02ZM195.415 173.34C196.023 175.3 192.695 175.932 191.679 176.196L190.615 172.804C191.631 172.516 194.783 171.292 195.415 173.34ZM193.175 168.628C193.727 170.42 190.967 171.004 190.127 171.244L189.143 168.124C189.991 167.868 192.591 166.74 193.175 168.62V168.628Z" fill="black"/>
<path id="Vector_57" d="M180.742 111.491L176.806 131.043L169.014 129.474L164.102 135.019L163.142 128.299L157.246 127.115L161.182 107.562L180.742 111.491Z" fill="white" stroke="#011029" stroke-width="0.184" stroke-miterlimit="10"/>
<path id="Vector_58" d="M161.175 107.557L180.735 111.485L184.079 109.053L164.599 105.277L161.167 107.557H161.175Z" fill="black" stroke="#011029" stroke-width="0.184" stroke-miterlimit="10"/>
<path id="Vector_59" d="M180.744 111.483L176.808 131.035L180.232 128.755L184.168 109.203L180.736 111.483H180.744Z" fill="white" stroke="#011029" stroke-width="0.184" stroke-miterlimit="10"/>
<path id="Vector_60" d="M164.535 134.797L171.775 130.029L169.023 129.477L164.543 134.797H164.535Z" fill="black" stroke="#011029" stroke-width="0.184" stroke-miterlimit="10"/>
<path id="Vector_61" d="M162.784 117.353C162.368 116.681 162.264 115.865 162.456 114.905C162.648 113.953 163.064 113.241 163.704 112.777C164.344 112.313 165.08 112.169 165.92 112.337C166.752 112.505 167.376 112.929 167.784 113.601C168.192 114.273 168.296 115.089 168.104 116.041C167.912 116.993 167.496 117.705 166.864 118.169C166.232 118.633 165.496 118.785 164.656 118.617C163.824 118.449 163.2 118.033 162.784 117.353ZM165.888 117.001C166.16 116.737 166.352 116.313 166.48 115.713C166.6 115.121 166.584 114.641 166.432 114.297C166.28 113.953 166.024 113.737 165.656 113.665C165.296 113.593 164.976 113.689 164.704 113.953C164.424 114.217 164.224 114.641 164.112 115.233C163.992 115.817 164.016 116.289 164.168 116.641C164.32 116.993 164.576 117.209 164.936 117.281C165.304 117.353 165.624 117.265 165.896 117.001H165.888ZM172.68 113.833L174.616 114.225L164.544 124.049L162.608 123.657L172.68 113.833ZM169.928 124.865C169.552 124.521 169.288 124.089 169.152 123.561C169.008 123.033 169 122.457 169.128 121.833C169.256 121.201 169.488 120.673 169.816 120.241C170.152 119.809 170.56 119.513 171.04 119.345C171.52 119.177 172.032 119.145 172.576 119.257C173.408 119.425 174.032 119.849 174.448 120.521C174.864 121.193 174.968 122.009 174.776 122.969C174.584 123.921 174.168 124.633 173.528 125.097C172.888 125.561 172.144 125.705 171.312 125.537C170.768 125.433 170.304 125.209 169.928 124.865ZM172.544 123.921C172.816 123.657 173.016 123.225 173.128 122.641C173.248 122.057 173.232 121.585 173.08 121.233C172.928 120.881 172.672 120.665 172.304 120.593C171.944 120.521 171.624 120.617 171.352 120.873C171.072 121.129 170.872 121.561 170.752 122.153C170.632 122.745 170.648 123.225 170.808 123.569C170.968 123.913 171.224 124.129 171.576 124.201C171.944 124.281 172.264 124.185 172.544 123.913V123.921Z" fill="black"/>
<path id="Vector_62" d="M49.7106 154.258L26.7026 162.066L32.4866 179.098L55.4946 171.29L49.7106 154.258Z" fill="white" stroke="#011029" stroke-width="0.176" stroke-miterlimit="10"/>
<path id="Vector_63" opacity="0.5" d="M49.7106 154.258L26.7026 162.066L27.1986 163.538L50.2066 155.73L49.7106 154.258Z" fill="black"/>
<path id="Vector_64" d="M38.7414 145.996C40.0694 144.236 42.0774 143.108 44.0294 142.084C46.0134 141.044 47.8214 140.108 49.0614 137.844C49.7014 138.564 49.0934 140.484 49.0934 140.484L51.8134 140.46C51.8134 140.46 50.9014 142.612 45.6374 144.308C43.6934 144.932 41.3094 145.652 39.8054 147.02C38.2454 148.436 38.1974 150.34 37.7414 152.316C36.6134 150.66 37.7094 147.38 38.7494 146.004L38.7414 145.996Z" fill="white" stroke="#011029" stroke-width="0.08" stroke-miterlimit="10"/>
<path id="Vector_65" d="M28.9834 150.329C30.1594 150.441 31.2794 150.873 32.3354 151.401C33.4874 151.985 34.5754 152.697 35.5754 153.513C36.7274 152.673 34.7514 150.073 34.0714 149.273C33.2474 148.297 30.4874 146.345 28.0234 147.913C27.3594 148.337 26.0714 150.265 25.8394 150.993C26.7594 150.409 27.8954 150.217 28.9834 150.321V150.329Z" fill="white" stroke="#011029" stroke-width="0.08" stroke-miterlimit="10"/>
<path id="Vector_66" d="M31.4465 152.635C30.4545 152.347 29.4225 151.835 28.9985 150.891C28.9185 150.707 28.8625 150.515 28.8305 150.315C27.7905 150.243 26.7105 150.443 25.8305 150.995C25.7185 151.339 25.6785 151.691 25.7505 152.059C25.8705 152.683 26.3025 153.219 26.8385 153.563C27.3745 153.907 27.9985 154.091 28.6305 154.195C30.7585 154.555 32.9265 154.139 35.0465 153.723C35.2705 153.675 35.4385 153.603 35.5745 153.507C35.3745 153.347 35.1745 153.187 34.9665 153.035C33.7825 153.099 32.5825 152.963 31.4465 152.635Z" fill="#C4C4C4" stroke="#011029" stroke-width="0.08" stroke-miterlimit="10"/>
<path id="Vector_67" d="M40.5354 146.013C39.7354 146.877 39.1834 147.949 38.7594 149.053C38.2874 150.253 37.9594 151.509 37.7594 152.789C36.3434 152.933 36.0794 149.677 36.0474 148.629C36.0154 147.349 36.7594 144.053 39.6394 143.581C40.4234 143.453 42.6634 144.029 43.3274 144.413C42.2554 144.597 41.2794 145.213 40.5354 146.013Z" fill="white" stroke="#011029" stroke-width="0.08" stroke-miterlimit="10"/>
<path id="Vector_68" d="M40.2412 149.378C40.7852 148.498 41.2092 147.434 40.8972 146.45C40.8332 146.258 40.7452 146.074 40.6332 145.914C41.3612 145.162 42.2972 144.594 43.3212 144.418C43.6332 144.602 43.8972 144.842 44.0892 145.154C44.4172 145.698 44.4492 146.386 44.2892 147.002C44.1212 147.618 43.7772 148.17 43.3852 148.666C42.0412 150.354 40.1532 151.49 38.2972 152.594C38.1052 152.706 37.9212 152.77 37.7612 152.786C37.8012 152.53 37.8492 152.282 37.8972 152.026C38.8172 151.274 39.6172 150.378 40.2492 149.37L40.2412 149.378Z" fill="#C4C4C4" stroke="#011029" stroke-width="0.08" stroke-miterlimit="10"/>
<path id="Vector_69" d="M33.8617 145.205C34.0537 144.429 34.6537 143.789 35.3897 143.477C35.1017 143.413 32.5897 143.733 31.8457 144.637C30.0777 146.757 31.5897 148.557 32.1017 149.197C33.2537 150.637 34.6137 151.797 36.0697 152.957C35.9577 152.869 36.0217 152.541 36.1577 152.165C35.6137 150.957 35.0777 149.741 34.5337 148.525C34.0617 147.477 33.5817 146.333 33.8697 145.213L33.8617 145.205Z" fill="white" stroke="#011029" stroke-width="0.08" stroke-miterlimit="10"/>
<path id="Vector_70" d="M37.3128 144.809C36.8968 144.121 36.1768 143.641 35.3928 143.465C34.7368 143.753 34.1928 144.289 33.9448 144.961C34.6088 145.337 35.1048 145.985 35.4008 146.689C35.7368 147.481 35.8408 148.361 35.8648 149.217C35.8888 149.921 35.8648 150.625 35.7928 151.321C35.9128 151.601 36.0408 151.873 36.1608 152.145C36.3448 151.617 36.6488 150.985 36.7288 150.825C37.1048 149.969 37.3928 149.073 37.5928 148.161C37.8328 147.041 37.9128 145.793 37.3208 144.809H37.3128Z" fill="#C4C4C4" stroke="#011029" stroke-width="0.08" stroke-miterlimit="10"/>
<path id="Vector_71" d="M48.8639 147.34L23.1519 156.06L25.3519 162.532L51.0639 153.812L48.8639 147.34Z" fill="white" stroke="#011029" stroke-width="0.176" stroke-miterlimit="10"/>
<path id="Vector_72" d="M38.2931 150.828L33.9331 152.308L41.9091 175.804L46.2691 174.324L38.2931 150.828Z" fill="white" stroke="#011029" stroke-width="0.08" stroke-miterlimit="10"/>
<path id="Vector_73" d="M7.9571 103.411C9.0691 103.411 9.9811 102.507 9.9811 101.395C9.9811 100.283 9.0771 99.3789 7.9571 99.3789C6.8371 99.3789 5.93311 100.283 5.93311 101.395C5.93311 102.507 6.8371 103.411 7.9571 103.411Z" fill="white"/>
<path id="Vector_74" d="M2.40679 69.4044C3.26279 69.4044 3.95079 68.7164 3.95079 67.8604C3.95079 67.0044 3.25479 66.3164 2.40679 66.3164C1.55879 66.3164 0.862793 67.0124 0.862793 67.8604C0.862793 68.7084 1.55879 69.4044 2.40679 69.4044Z" fill="white"/>
<path id="Vector_75" d="M202.71 48.9476C203.614 48.9476 204.342 48.2196 204.342 47.3156C204.342 46.4116 203.614 45.6836 202.71 45.6836C201.806 45.6836 201.078 46.4116 201.078 47.3156C201.078 48.2196 201.806 48.9476 202.71 48.9476Z" fill="white"/>
<path id="Vector_76" d="M50.287 34.0598C52.431 21.4998 62.871 21.3238 67.823 22.8038C64.375 27.9318 62.695 28.7798 61.927 45.1638C61.311 58.2758 63.863 71.4518 65.215 76.4038C61.871 75.8198 54.567 73.7718 52.119 70.2758C49.055 65.9078 47.599 49.7558 50.279 34.0598H50.287Z" fill="black"/>
<path id="Vector_77" d="M50.054 81.371C52.662 88.891 60.43 93.003 67.398 90.587C74.358 88.171 77.918 80.139 75.31 72.611C72.702 65.091 64.926 60.979 57.966 63.395C51.006 65.811 47.446 73.843 50.054 81.371Z" fill="white" stroke="black" stroke-width="0.4"/>
<path id="Vector_78" fill-rule="evenodd" clip-rule="evenodd" d="M69.5027 89.794L70.0947 88.97L58.3107 80.082L53.3667 87.026C57.0387 90.834 62.4707 92.442 67.5027 90.698C68.2067 90.458 68.8787 90.154 69.5107 89.802L69.5027 89.794Z" fill="black"/>
<path id="Vector_79" d="M52.5188 80.1874C55.1268 87.7074 62.8948 91.8194 69.8628 89.4034C76.8228 86.9874 80.3828 78.9554 77.7748 71.4274C75.1668 63.9074 67.3908 59.7954 60.4308 62.2114C53.4708 64.6274 49.9108 72.6594 52.5188 80.1874Z" fill="white" stroke="black" stroke-width="0.4"/>
<path id="Vector_80" d="M69.4688 71.0198C68.7008 69.1558 66.9008 69.0198 64.8528 69.4758L64.0368 66.8438L62.5248 67.3477L63.3168 69.8917C62.9248 70.0197 62.5248 70.1557 62.1328 70.2917L61.3328 67.7477L59.8608 68.2437L60.6768 70.8198C60.3648 70.9318 60.0528 71.0358 59.7568 71.1318L57.7808 71.7557L58.3088 73.3878C58.3088 73.3878 59.3568 73.0437 59.3408 73.0677C59.9248 72.8917 60.2288 73.1877 60.3808 73.4917L61.2928 76.3718C61.3328 76.3638 61.3888 76.3478 61.4448 76.3398C61.3968 76.3558 61.3488 76.3638 61.2928 76.3878L62.5648 80.3797C62.5968 80.5797 62.5888 80.9158 62.1808 81.0278C62.2048 81.0438 61.1408 81.2998 61.1408 81.2998L61.4288 83.1558L63.3008 82.6838C63.6528 82.5958 64.0048 82.5158 64.3488 82.4278L65.1408 84.9398L66.6208 84.5878L65.8368 82.0838C66.2448 81.9878 66.6448 81.8918 67.0368 81.7958L67.8208 84.3078L69.3408 83.9477L68.5408 81.3797C71.1088 80.5717 72.7728 79.4197 72.2368 76.8357C71.8048 74.7397 70.5648 74.0918 68.9488 74.1638C69.7168 73.4198 70.0368 72.4198 69.4688 71.0518V71.0198ZM69.0128 77.3398C69.6208 79.2918 66.2928 79.9318 65.2768 80.1958L64.2128 76.7958C65.2288 76.5078 68.3808 75.2838 69.0128 77.3318V77.3398ZM66.7728 72.6278C67.3248 74.4198 64.5648 74.9958 63.7248 75.2438L62.7488 72.1237C63.5888 71.8677 66.1968 70.7398 66.7808 72.6198L66.7728 72.6278Z" fill="black"/>
<path id="Vector_81" d="M209.449 158.876C210.385 158.876 211.137 158.116 211.137 157.188C211.137 156.26 210.377 155.5 209.449 155.5C208.521 155.5 207.761 156.26 207.761 157.188C207.761 158.116 208.521 158.876 209.449 158.876Z" fill="white"/>
</g>
</g>
</svg>
