<svg width="390" height="467" viewBox="0 0 390 467" fill="none" xmlns="http://www.w3.org/2000/svg">
<g clip-path="url(#clip0_423_1380)">
<rect width="390" height="478" fill="white"/>
<path d="M61.1142 179.024C53.7251 186.991 42.5919 188.715 36.2456 183.043C29.8992 177.371 30.6066 166.329 37.9956 158.362C45.3847 150.396 56.5179 148.671 62.8643 154.343C69.2106 160.015 68.5032 171.057 61.1142 179.024Z" fill="#AEFFC2" stroke="black" stroke-width="0.5"/>
<path d="M58.6194 176.845C51.2318 184.813 40.1007 186.538 33.7555 180.865C27.4103 175.192 28.1174 164.148 35.5049 156.18C42.8925 148.211 54.0236 146.487 60.3688 152.16C66.714 157.833 66.0069 168.877 58.6194 176.845Z" fill="white" stroke="black" stroke-width="0.5"/>
<path d="M138.285 85.2245C136.221 89.432 133.153 92.6408 129.872 94.4332C126.591 96.2259 123.119 96.5927 120.213 95.167C117.307 93.7412 115.472 90.771 114.881 87.0789C114.291 83.3876 114.951 78.9972 117.015 74.7898C119.079 70.5824 122.147 67.3735 125.427 65.5812C128.709 63.7885 132.181 63.4216 135.087 64.8474C137.993 66.2732 139.828 69.2434 140.419 72.9355C141.009 76.6268 140.349 81.0171 138.285 85.2245Z" fill="#AEFFC2" stroke="black" stroke-width="0.5"/>
<path d="M135.365 84.2933C133.301 88.5007 130.232 91.7096 126.952 93.5019C123.671 95.2947 120.199 95.6615 117.292 94.2357C114.386 92.8099 112.551 89.8398 111.961 86.1476C111.37 82.4563 112.03 78.066 114.094 73.8586C116.158 69.6511 119.227 66.4423 122.507 64.6499C125.788 62.8572 129.26 62.4904 132.167 63.9162C135.073 65.3419 136.908 68.3121 137.498 72.0042C138.089 75.6955 137.429 80.0859 135.365 84.2933Z" fill="white" stroke="black" stroke-width="0.5"/>
<path fill-rule="evenodd" clip-rule="evenodd" d="M132.13 78.6124C131.688 79.8623 130.85 80.4807 129.611 80.467C130.313 81.0496 130.743 81.6866 130.903 82.3756C131.062 83.0631 130.884 83.8391 130.367 84.703C130.13 85.1076 129.824 85.4651 129.459 85.7604C129.12 86.0257 128.767 86.2072 128.396 86.3016C128.024 86.396 127.607 86.4214 127.145 86.3766C126.681 86.3315 126.218 86.2363 125.757 86.0899C125.234 85.9207 124.72 85.7203 124.218 85.4901L123.036 87.9883L121.481 87.1975L122.642 84.7373C122.104 84.4638 121.695 84.2516 121.414 84.1005L120.248 86.5702L118.692 85.7791L119.872 83.2806C119.687 83.193 119.497 83.1167 119.304 83.0524C119.046 82.9615 118.853 82.8844 118.724 82.8192L116.703 81.7911L117.864 80.157L118.986 80.7281C119.322 80.8987 119.596 80.8315 119.807 80.5252L121.669 76.5877L121.831 76.669C121.781 76.6347 121.728 76.6043 121.673 76.578L123.002 73.7654C123.125 73.2768 122.93 72.9015 122.418 72.6414L121.297 72.0719L122.056 70.4653L124.193 71.5639C124.624 71.7833 124.952 71.9456 125.178 72.0522L126.345 69.5826L127.902 70.3739L126.758 72.794C127.316 73.0624 127.73 73.2651 127.999 73.4019L129.134 71.0009L130.69 71.792L129.523 74.2616C130.034 74.5782 130.471 74.8915 130.834 75.2012C131.196 75.5106 131.508 75.852 131.767 76.222C132.026 76.5932 132.183 76.9896 132.239 77.4097C132.295 77.8312 132.242 78.2683 132.079 78.7194L132.13 78.6111L132.13 78.6124ZM127.434 82.8476C127.544 82.6127 127.592 82.3782 127.578 82.1439C127.568 81.9246 127.513 81.7065 127.418 81.5024C127.306 81.2829 127.156 81.0818 126.977 80.9081C126.797 80.7235 126.605 80.5509 126.402 80.3915C126.176 80.2208 125.94 80.0638 125.695 79.9217C125.262 79.6601 124.814 79.4246 124.355 79.2166L123.87 78.9833L122.305 82.294C122.36 82.3212 122.477 82.4012 122.656 82.5337C122.836 82.6651 122.99 82.7633 123.119 82.8285C123.496 83.0178 123.881 83.1909 124.271 83.3476C124.443 83.4152 124.649 83.4858 124.886 83.5577C125.124 83.6298 125.332 83.6786 125.512 83.7055C125.692 83.7323 125.884 83.7434 126.088 83.7436C126.294 83.7428 126.474 83.7116 126.627 83.6523C126.781 83.5919 126.924 83.5042 127.06 83.3858C127.201 83.26 127.313 83.107 127.391 82.9351L127.433 82.8473L127.434 82.8476ZM129.065 77.1816C129.07 77.3916 129.021 77.6034 128.92 77.819L128.88 77.9071C128.806 78.061 128.697 78.2127 128.551 78.3608C128.407 78.5092 128.255 78.5898 128.1 78.5985C127.931 78.6109 127.765 78.6359 127.602 78.6732C127.412 78.7116 127.21 78.688 127.026 78.606C126.842 78.5272 126.649 78.4741 126.454 78.4485C126.248 78.4166 126.049 78.3385 125.873 78.2203C125.715 78.1124 125.541 78.0321 125.358 77.9833C125.188 77.9377 125.028 77.856 124.889 77.7441C124.784 77.6636 124.675 77.588 124.563 77.5174L125.985 74.5088C126.045 74.5042 126.186 74.556 126.406 74.6628C126.627 74.7722 126.812 74.861 126.957 74.9308C127.104 75.0012 127.294 75.1097 127.531 75.2542C127.768 75.3988 127.963 75.5294 128.115 75.6484C128.269 75.7664 128.429 75.9148 128.596 76.0923C128.763 76.2698 128.881 76.4439 128.951 76.6131C129.021 76.7824 129.059 76.9715 129.065 77.1816Z" fill="black"/>
<path d="M273.42 63.145C271.149 66.1887 268.228 68.2857 265.352 69.2232C262.475 70.161 259.665 69.934 257.573 68.3734C255.482 66.8127 254.464 64.1843 254.544 61.1593C254.624 58.1352 255.802 54.7382 258.073 51.6945C260.344 48.6508 263.265 46.5538 266.141 45.6163C269.018 44.6785 271.828 44.9054 273.919 46.4661C276.011 48.0268 277.029 50.6552 276.949 53.6802C276.869 56.7043 275.691 60.1013 273.42 63.145Z" fill="#AEFFC2" stroke="black" stroke-width="0.5"/>
<path d="M271.227 61.9654C268.956 65.0091 266.036 67.1061 263.159 68.0436C260.282 68.9814 257.473 68.7545 255.381 67.1938C253.29 65.6331 252.272 63.0047 252.352 59.9798C252.432 56.9556 253.61 53.5586 255.881 50.5149C258.152 47.4713 261.073 45.3742 263.949 44.4367C266.826 43.4989 269.636 43.7259 271.727 45.2865C273.819 46.8472 274.836 49.4756 274.757 52.5006C274.677 55.5247 273.498 58.9218 271.227 61.9654Z" fill="white" stroke="black" stroke-width="0.5"/>
<path fill-rule="evenodd" clip-rule="evenodd" d="M264.273 54.2481L261.549 48.5234L260.898 49.6384L263.169 54.3257L261.506 54.4427L261.042 55.2377L261.763 56.7541L256.56 57.0721L255.91 58.1872L262.234 57.7427L264.958 63.4674L265.609 62.3524L263.332 57.6655L265.001 57.5481L265.465 56.7531L264.751 55.2529L269.947 54.9184L270.597 53.8035L264.273 54.2481ZM263.653 55.3236L264.271 56.6008L262.857 56.6873L262.239 55.4146L263.653 55.3236Z" fill="black"/>
<path d="M78.742 43.9327C76.4986 46.9395 73.6132 49.0109 70.7721 49.937C67.9302 50.8634 65.1556 50.6391 63.09 49.0978C61.0244 47.5566 60.0193 44.9607 60.098 41.9727C60.1768 38.9855 61.3409 35.6297 63.5843 32.623C65.8278 29.6162 68.7131 27.5448 71.5543 26.6187C74.3962 25.6923 77.1708 25.9166 79.2364 27.4579C81.302 28.9991 82.3071 31.595 82.2283 34.583C82.1496 37.5702 80.9855 40.926 78.742 43.9327Z" fill="#AEFFC2" stroke="black" stroke-width="0.5"/>
<path d="M76.576 42.7673C74.3325 45.774 71.4472 47.8455 68.6061 48.7716C65.7642 49.698 62.9896 49.4736 60.924 47.9324C58.8584 46.3912 57.8532 43.7953 57.932 40.8073C58.0108 37.8201 59.1749 34.4643 61.4183 31.4576C63.6618 28.4508 66.5471 26.3793 69.3883 25.4532C72.2301 24.5269 75.0048 24.7512 77.0704 26.2924C79.136 27.8337 80.1411 30.4296 80.0623 33.4176C79.9836 36.4048 78.8195 39.7605 76.576 42.7673Z" fill="white" stroke="black" stroke-width="0.5"/>
<path fill-rule="evenodd" clip-rule="evenodd" d="M69.7074 35.1442L67.0159 29.4881L66.373 30.5897L68.6167 35.2209L66.9732 35.3365L66.5148 36.1219L67.2278 37.6202L62.0871 37.9344L61.4442 39.0362L67.6926 38.5969L70.3841 44.253L71.027 43.1514L68.7776 38.5206L70.4268 38.4047L70.8851 37.6192L70.1798 36.137L75.3131 35.8065L75.9558 34.705L69.7074 35.1442ZM69.0944 36.2068L69.7057 37.4687L68.3081 37.5542L67.6974 36.2968L69.0944 36.2068Z" fill="black"/>
<path d="M196.265 4.43249C193.201 8.78929 189.186 11.848 185.183 13.2786C181.178 14.7095 177.208 14.5063 174.19 12.3841C171.173 10.262 169.639 6.59415 169.632 2.34176C169.625 -1.90984 171.146 -6.72245 174.21 -11.0793C177.274 -15.4361 181.289 -18.4948 185.293 -19.9254C189.297 -21.3563 193.267 -21.1531 196.285 -19.0309C199.302 -16.9087 200.836 -13.2409 200.843 -8.98852C200.851 -4.73693 199.33 0.0756841 196.265 4.43249Z" fill="#AEFFC2" stroke="black" stroke-width="0.5"/>
<path d="M193.156 2.87034C190.092 7.22714 186.077 10.2859 182.073 11.7165C178.069 13.1473 174.098 12.9442 171.081 10.822C168.063 8.69983 166.53 5.032 166.522 0.779609C166.515 -3.47198 168.036 -8.2846 171.1 -12.6414C174.165 -16.9982 178.179 -20.0569 182.183 -21.4875C186.188 -22.9184 190.158 -22.7152 193.175 -20.5931C196.193 -18.4709 197.726 -14.8031 197.734 -10.5507C197.741 -6.29908 196.22 -1.48646 193.156 2.87034Z" fill="white" stroke="black" stroke-width="0.5"/>
<path d="M317.64 150.489C314.649 155.041 310.644 158.297 306.597 159.888C302.55 161.48 298.485 161.401 295.331 159.328C292.177 157.256 290.491 153.555 290.346 149.209C290.202 144.863 291.601 139.895 294.592 135.344C297.583 130.792 301.588 127.536 305.635 125.944C309.682 124.353 313.747 124.432 316.901 126.504C320.055 128.577 321.741 132.277 321.886 136.624C322.03 140.969 320.631 145.937 317.64 150.489Z" fill="#AEFFC2" stroke="black" stroke-width="0.5"/>
<path d="M314.412 148.993C311.421 153.545 307.416 156.801 303.369 158.392C299.322 159.984 295.257 159.905 292.103 157.832C288.949 155.76 287.263 152.059 287.118 147.713C286.974 143.368 288.373 138.399 291.364 133.848C294.355 129.296 298.36 126.04 302.406 124.448C306.453 122.857 310.519 122.936 313.673 125.008C316.827 127.081 318.513 130.781 318.658 135.128C318.802 139.473 317.403 144.441 314.412 148.993Z" fill="white" stroke="black" stroke-width="0.5"/>
<path fill-rule="evenodd" clip-rule="evenodd" d="M311.33 141.06C310.829 142.48 309.876 143.183 308.468 143.168C309.265 143.83 309.754 144.553 309.936 145.337C310.116 146.118 309.914 147 309.326 147.981C309.058 148.441 308.709 148.847 308.295 149.183C307.91 149.484 307.509 149.691 307.087 149.798C306.664 149.905 306.19 149.934 305.665 149.883C305.138 149.832 304.612 149.724 304.088 149.557C303.494 149.365 302.909 149.137 302.339 148.876L300.996 151.715L299.229 150.816L300.549 148.02C299.937 147.709 299.472 147.468 299.153 147.297L297.827 150.103L296.059 149.204L297.401 146.365C297.19 146.265 296.974 146.179 296.755 146.106C296.461 146.002 296.242 145.915 296.096 145.841L293.799 144.672L295.118 142.815L296.393 143.464C296.776 143.658 297.087 143.582 297.327 143.234L299.443 138.759L299.627 138.852C299.57 138.813 299.51 138.778 299.448 138.748L300.958 135.552C301.097 134.997 300.875 134.57 300.293 134.275L299.019 133.627L299.882 131.802L302.311 133.05C302.8 133.299 303.173 133.484 303.43 133.605L304.756 130.798L306.525 131.698L305.225 134.448C305.86 134.753 306.33 134.983 306.636 135.139L307.926 132.41L309.694 133.309L308.368 136.116C308.948 136.475 309.445 136.832 309.858 137.183C310.269 137.535 310.624 137.923 310.918 138.344C311.212 138.765 311.391 139.216 311.455 139.693C311.518 140.172 311.458 140.669 311.272 141.182L311.33 141.059L311.33 141.06ZM305.994 145.873C306.118 145.606 306.174 145.339 306.158 145.073C306.146 144.824 306.084 144.576 305.975 144.344C305.848 144.095 305.678 143.866 305.475 143.669C305.27 143.459 305.052 143.263 304.821 143.082C304.564 142.888 304.296 142.709 304.018 142.548C303.526 142.251 303.017 141.983 302.495 141.747L301.944 141.481L300.166 145.244C300.228 145.275 300.361 145.366 300.564 145.516C300.769 145.665 300.944 145.777 301.09 145.851C301.519 146.066 301.956 146.263 302.399 146.441C302.595 146.518 302.829 146.598 303.098 146.68C303.368 146.762 303.606 146.817 303.81 146.848C304.014 146.878 304.233 146.891 304.464 146.891C304.698 146.89 304.902 146.855 305.076 146.787C305.252 146.719 305.415 146.619 305.569 146.484C305.729 146.342 305.856 146.168 305.945 145.972L305.992 145.873L305.994 145.873ZM307.847 139.434C307.853 139.673 307.797 139.913 307.682 140.158L307.636 140.258C307.553 140.433 307.429 140.606 307.263 140.774C307.099 140.943 306.926 141.034 306.75 141.044C306.559 141.058 306.37 141.087 306.185 141.129C305.968 141.173 305.739 141.146 305.53 141.053C305.321 140.963 305.102 140.903 304.88 140.874C304.646 140.837 304.42 140.749 304.22 140.614C304.041 140.492 303.842 140.4 303.635 140.345C303.441 140.293 303.259 140.2 303.102 140.073C302.982 139.982 302.858 139.896 302.731 139.816L304.347 136.397C304.416 136.391 304.575 136.45 304.826 136.572C305.076 136.696 305.287 136.797 305.451 136.876C305.618 136.956 305.835 137.079 306.104 137.244C306.373 137.408 306.595 137.556 306.768 137.692C306.943 137.826 307.125 137.994 307.314 138.196C307.504 138.398 307.638 138.596 307.718 138.788C307.797 138.98 307.841 139.195 307.847 139.434Z" fill="black"/>
<path d="M349.576 -2.20911C352.158 0.425983 353.083 4.22378 352.46 8.2582C351.837 12.2927 349.667 16.5469 346.088 20.0542C342.509 23.5615 338.211 25.6442 334.165 26.1851C330.119 26.726 326.341 25.725 323.758 23.0899C321.176 20.4548 320.252 16.657 320.875 12.6226C321.498 8.5881 323.668 4.3339 327.247 0.826618C330.826 -2.68066 335.123 -4.76343 339.17 -5.30432C343.216 -5.84519 346.994 -4.8442 349.576 -2.20911Z" fill="#AEFFC2" stroke="black" stroke-width="0.5"/>
<path d="M347.489 -3.93661C350.072 -1.30152 350.996 2.49628 350.373 6.5307C349.75 10.5652 347.58 14.8194 344.001 18.3267C340.422 21.834 336.125 23.9167 332.078 24.4576C328.032 24.9985 324.254 23.9975 321.672 21.3624C319.089 18.7273 318.165 14.9295 318.788 10.8951C319.411 6.8606 321.581 2.6064 325.16 -0.900883C328.739 -4.40817 333.037 -6.49093 337.083 -7.03182C341.129 -7.57269 344.907 -6.5717 347.489 -3.93661Z" fill="white" stroke="black" stroke-width="0.5"/>
<rect width="16.7181" height="3.53193" transform="matrix(-0.990997 0.133883 -0.307124 0.95167 345.116 0.0347404)" fill="black"/>
<rect width="14.3994" height="4.62415" transform="matrix(0.307124 -0.95167 -0.990997 0.133883 334.117 16.3577)" fill="black"/>
<ellipse cx="10.9359" cy="2.92349" rx="10.9359" ry="2.92349" transform="matrix(-0.990997 0.133883 -0.307124 0.95167 346.269 4.82071)" fill="black"/>
<ellipse cx="9.8423" cy="2.29703" rx="9.8423" ry="2.29703" transform="matrix(-0.990997 0.133883 -0.307124 0.95167 345.056 5.36454)" fill="white"/>
<path d="M335.976 10.5978L338.539 2.65417L333.957 3.27327L331.37 11.2885C331.37 11.2885 332.764 11.1002 333.661 10.979C334.559 10.8577 335.976 10.5978 335.976 10.5978Z" fill="black"/>
<path d="M208.51 124.897C211.91 132.824 207.673 143.841 198.931 149.474C190.188 155.107 180.381 153.139 176.98 145.212C173.579 137.284 177.816 126.267 186.559 120.634C195.302 115.001 205.109 116.969 208.51 124.897Z" fill="#AEFFC2" stroke="black" stroke-width="0.5"/>
<path d="M207.029 122.175C210.429 130.103 206.192 141.12 197.45 146.753C188.707 152.386 178.9 150.418 175.499 142.49C172.098 134.563 176.335 123.546 185.078 117.913C193.821 112.28 203.628 114.248 207.029 122.175Z" fill="white" stroke="black" stroke-width="0.5"/>
<rect width="16.5681" height="4.02767" transform="matrix(-0.981702 -0.190423 -0.490112 0.87166 203.658 125.95)" fill="black"/>
<rect width="16.4205" height="4.58267" transform="matrix(0.490112 -0.87166 -0.981702 -0.190423 188.664 141.012)" fill="black"/>
<ellipse cx="10.8378" cy="3.33383" rx="10.8378" ry="3.33383" transform="matrix(-0.981702 -0.190423 -0.490112 0.87166 203.392 131.884)" fill="black"/>
<ellipse cx="9.754" cy="2.61944" rx="9.754" ry="2.61944" transform="matrix(-0.981702 -0.190423 -0.490112 0.87166 202.095 132.093)" fill="white"/>
<path d="M192.047 134.996L196.712 126.699L192.213 125.826L187.506 134.198C187.506 134.198 188.874 134.464 189.755 134.635C190.637 134.805 192.047 134.996 192.047 134.996Z" fill="black"/>
<rect x="28" y="396" width="334" height="40" rx="20" fill="black"/>
<path d="M155.862 407.066L156.793 406.002C158.351 406.8 160.289 408.054 161.22 408.985L160.213 410.182C159.339 409.232 157.439 407.902 155.862 407.066ZM154.133 415.597H164.184V416.965H154.133V415.597ZM152.784 421.582H165.286V422.95H152.784V421.582ZM153.43 410.144H164.887V411.512H153.43V410.144ZM158.313 410.638H159.776V422.209H158.313V410.638ZM148.851 407.237L149.63 406.192C150.884 406.667 152.48 407.522 153.259 408.187L152.423 409.384C151.663 408.681 150.124 407.788 148.851 407.237ZM147.749 412.424L148.49 411.341C149.763 411.759 151.397 412.5 152.214 413.108L151.454 414.324C150.656 413.697 149.041 412.899 147.749 412.424ZM148.452 422.304C149.478 420.86 150.979 418.352 152.081 416.186L153.107 417.117C152.1 419.131 150.77 421.506 149.649 423.273L148.452 422.304ZM169.675 407.294H173.741V408.624H169.675V407.294ZM166.806 413.602H184.229V414.97H166.806V413.602ZM168.934 407.294H170.302V413.165C170.302 416.262 169.979 420.708 167.832 423.634C167.623 423.349 167.072 422.817 166.787 422.646C168.744 419.891 168.934 416.034 168.934 413.165V407.294ZM173 407.294H174.368V421.734C174.368 422.494 174.197 422.912 173.665 423.14C173.171 423.368 172.316 423.387 170.986 423.387C170.929 423.026 170.72 422.437 170.53 422.095C171.48 422.114 172.354 422.114 172.62 422.095C172.886 422.095 173 422 173 421.734V407.294ZM177.142 407.294H181.341V408.624H177.142V407.294ZM176.363 407.294H177.731V413.184C177.731 416.243 177.465 420.651 175.508 423.577C175.299 423.292 174.71 422.779 174.425 422.589C176.192 419.872 176.363 416.034 176.363 413.184V407.294ZM180.771 407.294H182.177V421.791C182.177 422.608 181.987 423.026 181.474 423.254C180.942 423.501 180.068 423.52 178.7 423.52C178.624 423.159 178.415 422.532 178.225 422.171C179.213 422.209 180.125 422.209 180.391 422.19C180.676 422.171 180.771 422.076 180.771 421.791V407.294ZM193.022 423.349L191.616 422.874L196.974 407.313L198.38 407.788L193.022 423.349ZM210.939 411.341H217.988V412.576H210.939V411.341ZM206.208 421.886H222.757V423.083H206.208V421.886ZM207.348 406.781H212.972V407.978H207.348V406.781ZM212.516 406.781H212.763L213.029 406.705L213.941 407.18C212.516 410.828 209.343 413.545 206.322 414.951C206.132 414.647 205.752 414.153 205.467 413.906C208.26 412.728 211.338 410.068 212.516 407.047V406.781ZM215.727 406.097C217.19 409.327 220.097 412.272 223.384 413.545C223.042 413.83 222.643 414.343 222.415 414.723C219.052 413.203 216.145 410.106 214.53 406.496L215.727 406.097ZM206.835 409.46L207.595 408.681C208.602 409.251 209.78 410.125 210.331 410.809L209.533 411.683C208.963 411.018 207.823 410.068 206.835 409.46ZM219.546 406.211L220.629 406.971C219.641 407.902 218.33 408.928 217.342 409.593L216.468 408.909C217.437 408.206 218.786 407.047 219.546 406.211ZM221.674 408.453L222.738 409.213C221.731 410.163 220.363 411.189 219.318 411.835L218.444 411.151C219.47 410.467 220.876 409.308 221.674 408.453ZM210.597 415.312V417.82H218.292V415.312H210.597ZM209.191 414.134H219.755V418.998H209.191V414.134ZM210.293 419.302L211.604 418.941C212.136 419.758 212.63 420.879 212.82 421.62L211.471 422.038C211.281 421.297 210.806 420.138 210.293 419.302ZM217.361 418.884L218.748 419.264C218.235 420.271 217.665 421.316 217.19 422.057L215.974 421.696C216.449 420.955 217.057 419.72 217.361 418.884ZM225.227 413.241H241.833V414.514H225.227V413.241ZM232.713 413.887H234.176V421.981C234.176 422.798 233.967 423.159 233.359 423.349C232.77 423.558 231.82 423.577 230.338 423.558C230.243 423.197 230.034 422.684 229.844 422.304C230.946 422.361 232.01 422.361 232.333 422.342C232.637 422.323 232.713 422.228 232.713 421.962V413.887ZM234.005 414.704C235.373 417.972 238.28 420.518 242.08 421.544C241.757 421.829 241.339 422.38 241.13 422.779C237.254 421.544 234.404 418.77 232.846 415.046L234.005 414.704ZM239.344 414.97L240.56 415.863C239.287 416.965 237.615 418.162 236.342 418.941L235.354 418.143C236.627 417.345 238.337 415.996 239.344 414.97ZM226.519 415.977L227.469 415.103C228.666 415.768 230.224 416.756 230.984 417.497L229.977 418.485C229.255 417.744 227.754 416.68 226.519 415.977ZM225.265 420.974C227.203 420.252 230.319 418.998 233.207 417.801L233.492 419.017C230.889 420.157 228.096 421.373 226.025 422.247L225.265 420.974ZM227.089 410.182H238.47V411.493H227.089V410.182ZM238.052 407.104H238.204L238.47 407.047L239.591 407.123C239.534 409.156 239.363 411.911 239.173 413.982L237.71 413.906C237.881 411.797 238.014 408.814 238.052 407.294V407.104ZM226.519 407.104H238.451V408.434H226.519V407.104Z" fill="white"/>
<path d="M97.93 370.404C99.783 374.178 103.761 376.456 109.337 377.204C109.048 377.493 108.708 378.054 108.521 378.411C102.843 377.544 98.882 375.096 96.757 370.829L97.93 370.404ZM95.074 369.214H106.158V370.455H95.074V369.214ZM94.292 365.321H108.64V366.596H94.292V365.321ZM100.803 362.737H102.112V369.792H100.803V362.737ZM105.75 369.214H106.039L106.294 369.163L107.161 369.69C105.053 374.926 100.004 377.34 94.36 378.36C94.241 378.037 93.901 377.442 93.663 377.153C99.188 376.286 103.982 374.127 105.75 369.469V369.214ZM117.021 364.93H125.504V366.103H117.021V364.93ZM116.341 371.322H126.201V372.512H116.341V371.322ZM116.137 368.262H126.32V369.435H116.137V368.262ZM120.642 362.805H121.849V368.874H120.642V362.805ZM122.886 369.18H124.11V376.83C124.11 377.595 123.94 377.952 123.43 378.139C122.937 378.343 122.104 378.343 120.829 378.343C120.778 377.986 120.608 377.476 120.455 377.119C121.407 377.153 122.291 377.153 122.546 377.136C122.818 377.119 122.886 377.051 122.886 376.813V369.18ZM117.599 373.549L118.585 372.971C119.333 373.872 120.183 375.096 120.54 375.912L119.469 376.575C119.163 375.742 118.347 374.467 117.599 373.549ZM110.459 371.764C111.802 371.39 113.808 370.778 115.763 370.149L115.933 371.322C114.148 371.917 112.244 372.529 110.799 373.005L110.459 371.764ZM110.697 366.154H115.882V367.344H110.697V366.154ZM112.89 362.737H114.097V376.83C114.097 377.527 113.927 377.884 113.502 378.088C113.111 378.275 112.448 378.326 111.377 378.309C111.326 378.003 111.173 377.476 111.003 377.119C111.751 377.153 112.397 377.153 112.601 377.136C112.805 377.136 112.89 377.068 112.89 376.83V362.737ZM129.329 362.754L130.434 363.043C129.924 364.913 129.091 366.851 128.105 368.126C128.003 367.871 127.663 367.259 127.459 367.004C128.292 365.933 128.955 364.369 129.329 362.754ZM129.346 364.675H132.712V365.797H129.108L129.346 364.675ZM129.567 378.173L129.363 377.068L129.703 376.575L132.389 374.79C132.474 375.096 132.644 375.538 132.763 375.759C130.196 377.544 129.805 377.867 129.567 378.173ZM128.394 367.854H132.406V368.959H128.394V367.854ZM127.799 371.356H132.78V372.478H127.799V371.356ZM129.567 378.173C129.431 377.918 129.091 377.476 128.887 377.272C129.193 377.051 129.72 376.473 129.72 375.64V368.466H130.893V376.575C130.893 376.575 129.567 377.68 129.567 378.173ZM135.67 364.76H143.218V365.865H135.67V364.76ZM139.121 366.664H140.26V376.116H139.121V366.664ZM136.248 370.03C136.18 369.792 136.01 369.231 135.874 368.942C136.129 368.857 136.384 368.432 136.673 367.803C136.945 367.208 137.88 364.828 138.305 362.686L139.529 362.941C138.9 365.253 137.931 367.701 136.996 369.367V369.384C136.996 369.384 136.248 369.792 136.248 370.03ZM136.248 370.03V369.044L136.928 368.721H142.776V369.792H137.574C136.911 369.792 136.401 369.894 136.248 370.03ZM135.823 372.053H143.133V373.192H135.823V372.053ZM135.279 368.772V376.048H134.106V369.945H132.474V368.772H135.279ZM132.967 363.74L133.987 363.383C134.531 364.335 135.126 365.542 135.381 366.358L134.293 366.783C134.038 365.95 133.477 364.675 132.967 363.74ZM134.82 375.249C135.313 375.249 135.687 375.674 136.401 376.116C137.251 376.643 138.254 376.796 139.58 376.796C140.651 376.796 142.385 376.728 143.524 376.592C143.388 376.932 143.218 377.561 143.201 377.918C142.317 377.969 140.583 378.02 139.546 378.02C138.135 378.02 137.098 377.782 136.18 377.221C135.602 376.813 135.143 376.388 134.803 376.388C134.327 376.388 133.596 377.289 132.95 378.207L132.117 377.034C133.052 376.031 134.038 375.249 134.82 375.249ZM151.99 368.228H158.977V369.503H151.99V368.228ZM144.867 376.286H160.133V377.561H144.867V376.286ZM151.259 362.975H152.602V376.966H151.259V362.975ZM169.279 366.698H175.62V367.769H169.279V366.698ZM166.627 376.881C168.191 376.609 170.656 376.116 173.036 375.64L173.121 376.762C170.979 377.255 168.701 377.748 167.052 378.122L166.627 376.881ZM168.548 363.485H169.789V376.983H168.548V363.485ZM169.279 363.485H176.215V371.033H169.279V369.911H174.974V364.607H169.279V363.485ZM172.56 370.302C173.291 373.481 174.838 376.133 177.371 377.255C177.082 377.51 176.708 377.986 176.521 378.309C173.869 376.966 172.288 374.093 171.506 370.506L172.56 370.302ZM175.943 371.424L176.946 372.155C175.994 373.039 174.787 373.991 173.835 374.62L173.036 373.974C173.954 373.311 175.229 372.24 175.943 371.424ZM162.377 363.468H166.729V364.624H163.584V378.377H162.377V363.468ZM166.355 363.468H166.593L166.78 363.417L167.647 363.944C167.103 365.355 166.389 367.106 165.76 368.449C167.137 369.86 167.46 371.067 167.46 372.121C167.46 373.056 167.239 373.753 166.729 374.11C166.474 374.28 166.151 374.382 165.794 374.416C165.403 374.467 164.927 374.467 164.502 374.433C164.485 374.127 164.383 373.617 164.179 373.277C164.621 373.328 164.995 373.328 165.301 373.311C165.522 373.294 165.726 373.243 165.896 373.141C166.185 372.954 166.287 372.512 166.27 371.985C166.27 371.05 165.913 369.928 164.587 368.602C165.267 367.055 165.964 364.998 166.355 363.825V363.468ZM188.421 364.352C187.35 366.256 185.327 368.585 183.134 370.064C182.964 369.741 182.641 369.282 182.386 368.993C184.613 367.582 186.738 365.117 187.758 363.043H188.982C190.325 365.321 192.569 367.633 194.609 368.823C194.354 369.146 194.065 369.605 193.861 369.979C191.804 368.602 189.611 366.324 188.421 364.352ZM190.308 368.925H191.583V378.241H190.308V368.925ZM185.599 368.942H186.84V371.407C186.84 373.413 186.534 376.405 183.78 378.513C183.576 378.241 183.185 377.867 182.862 377.646C185.412 375.827 185.599 373.073 185.599 371.373V368.942ZM182.488 362.788L183.695 363.162C182.573 366.052 180.822 368.925 178.986 370.829C178.85 370.54 178.493 369.86 178.255 369.571C179.938 367.922 181.536 365.372 182.488 362.788ZM180.72 367.174L181.91 365.967L181.944 365.984V378.343H180.72V367.174ZM202.786 366.256H204.112V378.343H202.786V366.256ZM198.757 369.588V371.407H208.328V369.588H198.757ZM198.757 366.749V368.568H208.328V366.749H198.757ZM197.516 365.661H209.637V372.495H197.516V365.661ZM195.901 374.11H211.116V375.3H195.901V374.11ZM198.995 363.315L200.083 362.805C200.763 363.57 201.562 364.624 201.902 365.321L200.763 365.899C200.44 365.202 199.675 364.097 198.995 363.315ZM207.053 362.805L208.43 363.247C207.75 364.335 206.9 365.559 206.254 366.341L205.166 365.916C205.795 365.083 206.611 363.757 207.053 362.805ZM214.669 378.819L214.278 377.935C215.672 377.357 216.437 376.49 216.437 375.215L216.114 373.77L217.032 375.062C216.794 375.368 216.454 375.453 216.131 375.453C215.434 375.453 214.856 375.045 214.856 374.229C214.856 373.43 215.468 373.005 216.148 373.005C217.1 373.005 217.61 373.787 217.61 374.977C217.61 376.813 216.454 378.207 214.669 378.819ZM238.146 368.432H244.368V369.707H238.146V368.432ZM229.816 376.252H245.133V377.51H229.816V376.252ZM237.466 362.771H238.809V376.898H237.466V362.771ZM232.179 366.477H233.488V376.847H232.179V366.477ZM246.765 376.762H262.235V377.884H246.765V376.762ZM247.071 363.604H257.73V364.709H247.071V363.604ZM248.686 372.546H260.331V377.34H259.09V373.583H256.778V377.34H255.588V373.583H253.327V377.34H252.137V373.583H249.876V377.34H248.686V372.546ZM257.373 366.477H260.841V367.565H257.05L257.373 366.477ZM250.777 366.171H254.925V367.157H250.386L250.777 366.171ZM260.399 366.477H261.657C261.657 366.477 261.64 366.834 261.606 367.021C261.351 369.809 261.113 370.965 260.671 371.39C260.365 371.713 260.042 371.815 259.549 371.849C259.124 371.883 258.325 371.866 257.475 371.815C257.441 371.458 257.288 370.999 257.101 370.676C257.934 370.761 258.75 370.761 259.056 370.761C259.328 370.761 259.515 370.761 259.651 370.608C259.974 370.302 260.195 369.265 260.399 366.647V366.477ZM250.607 363.808L251.882 363.978C251.253 367.854 249.859 370.642 247.445 372.41C247.241 372.189 246.748 371.73 246.442 371.543C248.839 369.979 250.097 367.344 250.607 363.808ZM254.602 366.171H254.84L255.044 366.154L255.707 366.375C254.959 369.605 253.157 371.254 250.709 372.121C250.573 371.849 250.199 371.424 249.978 371.22C252.273 370.506 253.973 369.061 254.602 366.358V366.171ZM250.896 368.551L251.644 367.871C253.293 368.568 255.231 369.826 256.2 370.778L255.418 371.56C254.466 370.574 252.579 369.299 250.896 368.551ZM257.356 363.604H258.597C258.308 365.185 257.883 367.174 257.56 368.432L256.37 368.262C256.71 367.038 257.101 365.1 257.356 363.604ZM272.146 368.432H278.368V369.707H272.146V368.432ZM263.816 376.252H279.133V377.51H263.816V376.252ZM271.466 362.771H272.809V376.898H271.466V362.771ZM266.179 366.477H267.488V376.847H266.179V366.477ZM280.493 371.985C281.887 371.611 283.995 370.948 286.052 370.285L286.222 371.441C284.301 372.07 282.278 372.716 280.731 373.209L280.493 371.985ZM280.697 366.154H286.052V367.344H280.697V366.154ZM282.856 362.737H284.114V376.745C284.114 377.476 283.961 377.85 283.519 378.054C283.094 378.258 282.397 378.309 281.292 378.309C281.241 377.969 281.071 377.408 280.901 377.034C281.649 377.068 282.346 377.068 282.55 377.051C282.754 377.051 282.856 376.983 282.856 376.728V362.737ZM288.619 364.352V366.545H293.362V364.352H288.619ZM287.361 363.383H294.654V367.514H287.361V363.383ZM290.404 370.999H291.645V372.699C291.645 374.484 291.016 376.745 286.188 378.275C286.035 377.969 285.695 377.476 285.406 377.204C290.013 375.946 290.404 374.025 290.404 372.682V370.999ZM291.645 375.759L292.41 374.943C293.702 375.708 295.487 376.813 296.388 377.493L295.589 378.428C294.705 377.731 292.954 376.575 291.645 375.759ZM286.902 368.772H295.198V374.892H293.957V369.826H288.109V374.943H286.902V368.772Z" fill="black"/>
<path d="M51.4326 154.935L47.905 163.166C47.89 163.201 47.8401 163.221 47.8052 163.206C47.5148 163.208 47.2598 163.224 46.9699 163.225C46.5951 163.231 46.1849 163.223 45.7947 163.265L44.4149 163.3L43.2897 163.32L41.9094 163.356C41.5342 163.363 41.1594 163.369 40.7343 163.396C40.4443 163.397 40.104 163.419 39.8141 163.42C39.7792 163.405 39.7642 163.44 39.7442 163.39L39.7093 163.375C39.8898 163.243 40.0554 163.146 40.2355 163.015C41.2036 162.301 42.2062 161.602 43.1743 160.887C44.2068 160.118 45.2752 159.363 46.3081 158.593C47.2758 157.879 48.2434 157.165 49.1961 156.486C49.9188 155.958 50.6251 155.468 51.3128 154.925C51.3827 154.955 51.3977 154.92 51.4326 154.935C51.4326 154.935 51.3977 154.92 51.4326 154.935Z" fill="black"/>
<path d="M53.3364 169.215C52.6608 169.344 51.9657 169.422 51.3055 169.514C49.154 169.806 47.0528 170.076 44.9018 170.367C44.8668 170.352 44.8518 170.387 44.8169 170.372C44.782 170.357 44.7969 170.322 44.7969 170.322L47.8402 163.221C47.8552 163.186 47.8902 163.201 47.9251 163.216C48.0349 163.346 48.1439 163.478 48.2886 163.622C48.6168 164.015 48.9953 164.386 49.3239 164.777C49.6325 165.119 49.9062 165.445 50.2302 165.751C50.5388 166.092 50.8125 166.419 51.1211 166.76C51.3748 167.037 51.6639 167.327 51.9026 167.639C52.1564 167.915 52.6422 168.174 52.881 168.485C53.0802 168.696 53.0664 168.949 53.0664 168.949C53.0664 168.949 53.3014 169.2 53.3364 169.215Z" fill="black"/>
<path d="M41.8496 177.296C41.8147 177.281 41.8496 177.296 41.8496 177.296C41.8147 177.281 41.8147 177.281 41.7951 177.23C41.5199 175.943 41.265 174.704 40.9902 173.415L40.1653 169.549C39.9101 168.311 39.6198 167.059 39.3804 165.784L39.1742 164.817C39.1892 164.782 39.1542 164.767 39.1692 164.732C39.2041 164.747 39.1892 164.782 39.2241 164.797C39.9253 165.767 40.6615 166.751 41.3628 167.72C42.158 168.857 43.0035 169.972 43.7992 171.107C43.9285 171.287 44.0928 171.483 44.2222 171.664C44.2571 171.679 44.2417 171.715 44.2267 171.75L41.8496 177.296Z" fill="black"/>
<path d="M39.7183 163.422C39.7332 163.387 39.7332 163.387 39.7183 163.422C40.1434 163.395 40.9392 163.192 41.3644 163.166L42.913 162.869C43.3381 162.842 43.7666 162.868 44.1917 162.841C44.787 162.803 45.1724 162.786 45.7676 162.748C46.1778 162.756 46.9338 162.647 47.3435 162.656C47.6335 162.655 47.5038 163.205 47.8091 163.168C48.1315 162.609 48.2923 163.062 47.894 163.163L44.8058 170.369C44.7554 170.39 44.7708 170.354 44.7359 170.339C44.661 170.225 44.5716 170.144 44.5321 170.043L39.7727 163.488C39.7532 163.437 39.7183 163.422 39.7183 163.422ZM52.6799 170.525C52.6649 170.56 52.6649 170.56 52.615 170.58C49.3468 172.609 46.094 174.601 42.8258 176.63C42.4801 176.857 42.1494 177.05 41.8032 177.279L44.2108 171.661C44.7861 171.573 45.3614 171.485 45.9213 171.433L52.63 170.545C52.6449 170.51 52.6799 170.525 52.6799 170.525Z" fill="black"/>
<path d="M47.89 163.201L51.4167 154.972L53.3112 169.08C53.3312 169.13 53.3511 169.18 53.3357 169.216C53.2259 169.086 53.117 168.954 52.9722 168.81C52.8279 168.664 52.6985 168.483 52.5542 168.337C52.4643 168.258 52.3899 168.142 52.2655 168.046C52.1208 167.901 51.9569 167.704 51.8122 167.56C51.7227 167.479 51.6479 167.364 51.5585 167.283L50.9608 166.651C50.8514 166.52 50.7615 166.441 50.6521 166.31C50.5078 166.164 50.3785 165.983 50.2341 165.838C50.1443 165.758 50.0698 165.642 49.98 165.562L49.3827 164.929C49.2729 164.799 49.1835 164.718 49.0741 164.588C48.9293 164.443 48.8004 164.261 48.6561 164.115C48.5812 164.001 48.4569 163.905 48.382 163.79L47.8895 163.202L47.89 163.201Z" fill="black"/>
<path d="M150.617 190.28C154.721 180.883 168.049 180.883 172.153 190.28L203.351 261.714C206.741 269.476 201.054 278.167 192.583 278.167H130.187C121.716 278.167 116.029 269.476 119.419 261.714L150.617 190.28Z" fill="#AEFFC2" stroke="black" stroke-width="0.5"/>
<path d="M155.639 195.302C159.743 185.905 173.071 185.905 177.175 195.302L208.373 266.736C211.763 274.499 206.076 283.189 197.605 283.189H135.209C126.738 283.189 121.051 274.499 124.441 266.736L155.639 195.302Z" fill="black" stroke="black" stroke-width="0.5"/>
<mask id="path-42-inside-1_423_1380" fill="white">
<path fill-rule="evenodd" clip-rule="evenodd" d="M38.4862 253.127L38 253.215L74.4582 294.615L352.582 244.593L316.124 203.193L47.0487 251.587V244.486H38.0691L38 253.112L38.4862 253.127Z"/>
</mask>
<path fill-rule="evenodd" clip-rule="evenodd" d="M38.4862 253.127L38 253.215L74.4582 294.615L352.582 244.593L316.124 203.193L47.0487 251.587V244.486H38.0691L38 253.112L38.4862 253.127Z" fill="white"/>
<path d="M38 253.215L37.9115 252.723L37.0386 252.88L37.6248 253.545L38 253.215ZM38.4862 253.127L38.5747 253.619L38.5016 252.627L38.4862 253.127ZM74.4582 294.615L74.083 294.945L74.2693 295.157L74.5467 295.107L74.4582 294.615ZM352.582 244.593L352.671 245.085L353.544 244.928L352.957 244.263L352.582 244.593ZM316.124 203.193L316.499 202.862L316.313 202.651L316.035 202.701L316.124 203.193ZM47.0487 251.587H46.5487V252.185L47.1372 252.079L47.0487 251.587ZM47.0487 244.486H47.5487V243.986H47.0487V244.486ZM38.0691 244.486V243.986H37.5731L37.5692 244.482L38.0691 244.486ZM38 253.112L37.5 253.108L37.4961 253.597L37.9846 253.612L38 253.112ZM38.0885 253.707L38.5747 253.619L38.3977 252.635L37.9115 252.723L38.0885 253.707ZM74.8335 294.285L38.3752 252.884L37.6248 253.545L74.083 294.945L74.8335 294.285ZM352.494 244.101L74.3697 294.123L74.5467 295.107L352.671 245.085L352.494 244.101ZM315.749 203.523L352.207 244.924L352.957 244.263L316.499 202.862L315.749 203.523ZM47.1372 252.079L316.212 203.685L316.035 202.701L46.9602 251.095L47.1372 252.079ZM46.5487 244.486V251.587H47.5487V244.486H46.5487ZM38.0691 244.986H47.0487V243.986H38.0691V244.986ZM38.5 253.116L38.5691 244.49L37.5692 244.482L37.5 253.108L38.5 253.116ZM38.5016 252.627L38.0154 252.613L37.9846 253.612L38.4708 253.627L38.5016 252.627Z" fill="black" mask="url(#path-42-inside-1_423_1380)"/>
<mask id="path-44-inside-2_423_1380" fill="white">
<path d="M38 244.299L38.4357 244.486V253.391L38 253.183V244.299Z"/>
</mask>
<path d="M38 244.299L38.4357 244.486V253.391L38 253.183V244.299Z" fill="black"/>
<path d="M38 244.299L38.1976 243.839L37.5 243.539V244.299H38ZM38.4357 244.486H38.9357V244.157L38.6333 244.027L38.4357 244.486ZM38.4357 253.391L38.2203 253.843L38.9357 254.184V253.391H38.4357ZM38 253.183H37.5V253.499L37.7847 253.635L38 253.183ZM37.8024 244.758L38.2381 244.945L38.6333 244.027L38.1976 243.839L37.8024 244.758ZM37.9357 244.486V253.391H38.9357V244.486H37.9357ZM38.651 252.94L38.2153 252.732L37.7847 253.635L38.2203 253.843L38.651 252.94ZM38.5 253.183V244.299H37.5V253.183H38.5Z" fill="black" mask="url(#path-44-inside-2_423_1380)"/>
<rect x="74.1956" y="284.663" width="0.491403" height="9.48628" fill="black"/>
<rect x="344.144" y="235.558" width="8.27773" height="8.90511" fill="white"/>
<path d="M352.144 235.725L352.58 235.642L352.58 244.564L352.007 244.486L352.144 235.725Z" fill="black"/>
<rect x="0.411275" y="0.143367" width="282.087" height="54.6651" transform="matrix(0.984208 -0.177014 0.660892 0.750481 37.9117 244.395)" fill="white" stroke="black" stroke-width="0.5"/>
<path d="M205.303 234.921C209.407 225.525 222.735 225.525 226.839 234.921L258.037 306.355C261.427 314.118 255.739 322.808 247.269 322.808H184.872C176.402 322.808 170.714 314.118 174.105 306.355L205.303 234.921Z" fill="#AEFFC2" stroke="black" stroke-width="0.5"/>
<path d="M210.325 239.943C214.429 230.547 227.757 230.547 231.861 239.943L263.059 311.378C266.449 319.14 260.761 327.83 252.291 327.83H189.894C181.424 327.83 175.736 319.14 179.126 311.378L210.325 239.943Z" fill="black" stroke="black" stroke-width="0.5"/>
<mask id="path-52-inside-3_423_1380" fill="white">
<path fill-rule="evenodd" clip-rule="evenodd" d="M283.86 322.854H286.873V330.281H286.839C286.175 337.456 275.951 343.155 263.437 343.155C250.922 343.155 240.698 337.456 240.034 330.281H240V329.581C240 329.567 240 329.553 240 329.539C240 329.524 240 329.51 240 329.496V322.854H243.014C247.035 318.716 254.674 315.922 263.437 315.922C272.199 315.922 279.839 318.716 283.86 322.854Z"/>
</mask>
<path fill-rule="evenodd" clip-rule="evenodd" d="M283.86 322.854H286.873V330.281H286.839C286.175 337.456 275.951 343.155 263.437 343.155C250.922 343.155 240.698 337.456 240.034 330.281H240V329.581C240 329.567 240 329.553 240 329.539C240 329.524 240 329.51 240 329.496V322.854H243.014C247.035 318.716 254.674 315.922 263.437 315.922C272.199 315.922 279.839 318.716 283.86 322.854Z" fill="black"/>
<path d="M283.86 322.854L283.645 323.063L283.733 323.154H283.86V322.854ZM286.873 322.854H287.173V322.554H286.873V322.854ZM286.873 330.281V330.581H287.173V330.281H286.873ZM286.839 330.281V329.981H286.566L286.54 330.254L286.839 330.281ZM240.034 330.281L240.333 330.254L240.308 329.981H240.034V330.281ZM240 330.281H239.7V330.581H240V330.281ZM240 329.581H240.3L240.3 329.58L240 329.581ZM240 329.496L240.3 329.498V329.496H240ZM240 322.854V322.554H239.7V322.854H240ZM243.014 322.854V323.154H243.14L243.229 323.063L243.014 322.854ZM283.86 323.154H286.873V322.554H283.86V323.154ZM286.573 322.854V330.281H287.173V322.854H286.573ZM286.873 329.981H286.839V330.581H286.873V329.981ZM286.54 330.254C286.221 333.701 283.597 336.849 279.437 339.146C275.285 341.439 269.652 342.855 263.437 342.855V343.455C269.736 343.455 275.473 342.021 279.727 339.671C283.974 337.326 286.793 334.036 287.138 330.309L286.54 330.254ZM263.437 342.855C257.222 342.855 251.588 341.439 247.436 339.146C243.277 336.849 240.652 333.701 240.333 330.254L239.736 330.309C240.08 334.036 242.9 337.326 247.146 339.671C251.401 342.021 257.137 343.455 263.437 343.455V342.855ZM240.034 329.981H240V330.581H240.034V329.981ZM240.3 330.281V329.581H239.7V330.281H240.3ZM240.3 329.58C240.3 329.566 240.3 329.552 240.3 329.539H239.7C239.7 329.553 239.7 329.568 239.7 329.583L240.3 329.58ZM240.3 329.539C240.3 329.525 240.3 329.511 240.3 329.498L239.7 329.494C239.7 329.509 239.7 329.524 239.7 329.539H240.3ZM240.3 329.496V322.854H239.7V329.496H240.3ZM240 323.154H243.014V322.554H240V323.154ZM243.229 323.063C247.175 319.002 254.724 316.222 263.437 316.222V315.622C254.624 315.622 246.895 318.43 242.798 322.645L243.229 323.063ZM263.437 316.222C272.149 316.222 279.698 319.002 283.645 323.063L284.075 322.645C279.979 318.43 272.249 315.622 263.437 315.622V316.222Z" fill="white" mask="url(#path-52-inside-3_423_1380)"/>
<path d="M286.723 321.671C286.723 325.371 284.151 328.748 279.933 331.209C275.719 333.667 269.887 335.193 263.437 335.193C256.987 335.193 251.154 333.667 246.94 331.209C242.722 328.748 240.15 325.371 240.15 321.671C240.15 317.972 242.722 314.594 246.94 312.134C251.154 309.675 256.987 308.15 263.437 308.15C269.887 308.15 275.719 309.675 279.933 312.134C284.151 314.594 286.723 317.972 286.723 321.671Z" fill="black" stroke="white" stroke-width="0.3"/>
<mask id="path-55-inside-4_423_1380" fill="white">
<path fill-rule="evenodd" clip-rule="evenodd" d="M114.954 252.304H117.967V259.731H117.933C117.269 266.906 107.045 272.604 94.5307 272.604C82.0159 272.604 71.7921 266.906 71.1283 259.731H71.0941V259.023C71.094 259.011 71.094 259 71.094 258.988C71.094 258.976 71.094 258.965 71.0941 258.953V252.304H74.1076C78.1287 248.166 85.7681 245.372 94.5307 245.372C103.293 245.372 110.933 248.166 114.954 252.304Z"/>
</mask>
<path fill-rule="evenodd" clip-rule="evenodd" d="M114.954 252.304H117.967V259.731H117.933C117.269 266.906 107.045 272.604 94.5307 272.604C82.0159 272.604 71.7921 266.906 71.1283 259.731H71.0941V259.023C71.094 259.011 71.094 259 71.094 258.988C71.094 258.976 71.094 258.965 71.0941 258.953V252.304H74.1076C78.1287 248.166 85.7681 245.372 94.5307 245.372C103.293 245.372 110.933 248.166 114.954 252.304Z" fill="black"/>
<path d="M114.954 252.304L114.739 252.513L114.827 252.604H114.954V252.304ZM117.967 252.304H118.267V252.004H117.967V252.304ZM117.967 259.731V260.031H118.267V259.731H117.967ZM117.933 259.731V259.431H117.66L117.634 259.703L117.933 259.731ZM71.1283 259.731L71.427 259.703L71.4018 259.431H71.1283V259.731ZM71.0941 259.731H70.7941V260.031H71.0941V259.731ZM71.0941 259.023H71.3941L71.3941 259.022L71.0941 259.023ZM71.0941 258.953L71.3941 258.955V258.953H71.0941ZM71.0941 252.304V252.004H70.7941V252.304H71.0941ZM74.1076 252.304V252.604H74.2344L74.3228 252.513L74.1076 252.304ZM114.954 252.604H117.967V252.004H114.954V252.604ZM117.667 252.304V259.731H118.267V252.304H117.667ZM117.967 259.431H117.933V260.031H117.967V259.431ZM117.634 259.703C117.315 263.151 114.691 266.298 110.531 268.596C106.379 270.889 100.746 272.304 94.5307 272.304V272.904C100.83 272.904 106.567 271.471 110.821 269.121C115.068 266.775 117.887 263.486 118.232 259.758L117.634 259.703ZM94.5307 272.304C88.3156 272.304 82.6824 270.889 78.5304 268.596C74.3706 266.298 71.746 263.151 71.427 259.703L70.8295 259.758C71.1744 263.486 73.9936 266.775 78.2403 269.121C82.4949 271.471 88.231 272.904 94.5307 272.904V272.304ZM71.1283 259.431H71.0941V260.031H71.1283V259.431ZM71.3941 259.731V259.023H70.7941V259.731H71.3941ZM71.3941 259.022C71.394 259.01 71.394 258.999 71.394 258.988H70.794C70.794 259 70.794 259.012 70.7941 259.024L71.3941 259.022ZM71.394 258.988C71.394 258.977 71.394 258.966 71.3941 258.955L70.7941 258.952C70.794 258.964 70.794 258.976 70.794 258.988H71.394ZM71.3941 258.953V252.304H70.7941V258.953H71.3941ZM71.0941 252.604H74.1076V252.004H71.0941V252.604ZM74.3228 252.513C78.2689 248.452 85.8182 245.672 94.5307 245.672V245.072C85.7181 245.072 77.9885 247.879 73.8925 252.095L74.3228 252.513ZM94.5307 245.672C103.243 245.672 110.792 248.452 114.739 252.513L115.169 252.095C111.073 247.879 103.343 245.072 94.5307 245.072V245.672Z" fill="white" mask="url(#path-55-inside-4_423_1380)"/>
<path d="M117.817 251.121C117.817 254.821 115.245 258.198 111.027 260.658C106.813 263.117 100.981 264.642 94.5307 264.642C88.0806 264.642 82.2485 263.117 78.034 260.658C73.8159 258.198 71.244 254.821 71.244 251.121C71.244 247.421 73.8159 244.044 78.034 241.583C82.2485 239.125 88.0806 237.599 94.5307 237.599C100.981 237.599 106.813 239.125 111.027 241.583C115.245 244.044 117.817 247.421 117.817 251.121Z" fill="black" stroke="white" stroke-width="0.3"/>
<mask id="path-58-inside-5_423_1380" fill="white">
<path fill-rule="evenodd" clip-rule="evenodd" d="M123.898 241.57H126.912V248.998H126.877C126.214 256.172 115.99 261.871 103.475 261.871C90.9602 261.871 80.7364 256.172 80.0726 248.998H80.0384V248.291C80.0384 248.279 80.0383 248.267 80.0383 248.255C80.0383 248.243 80.0384 248.231 80.0384 248.218V241.57H83.052C87.0731 237.432 94.7125 234.639 103.475 234.639C112.238 234.639 119.877 237.432 123.898 241.57Z"/>
</mask>
<path fill-rule="evenodd" clip-rule="evenodd" d="M123.898 241.57H126.912V248.998H126.877C126.214 256.172 115.99 261.871 103.475 261.871C90.9602 261.871 80.7364 256.172 80.0726 248.998H80.0384V248.291C80.0384 248.279 80.0383 248.267 80.0383 248.255C80.0383 248.243 80.0384 248.231 80.0384 248.218V241.57H83.052C87.0731 237.432 94.7125 234.639 103.475 234.639C112.238 234.639 119.877 237.432 123.898 241.57Z" fill="black"/>
<path d="M123.898 241.57L123.683 241.78L123.771 241.87H123.898V241.57ZM126.912 241.57H127.212V241.27H126.912V241.57ZM126.912 248.998V249.298H127.212V248.998H126.912ZM126.877 248.998V248.698H126.604L126.579 248.97L126.877 248.998ZM80.0726 248.998L80.3713 248.97L80.3461 248.698H80.0726V248.998ZM80.0384 248.998H79.7384V249.298H80.0384V248.998ZM80.0384 248.291H80.3384L80.3384 248.29L80.0384 248.291ZM80.0384 248.218L80.3384 248.22V248.218H80.0384ZM80.0384 241.57V241.27H79.7384V241.57H80.0384ZM83.052 241.57V241.87H83.1788L83.2672 241.78L83.052 241.57ZM123.898 241.87H126.912V241.27H123.898V241.87ZM126.612 241.57V248.998H127.212V241.57H126.612ZM126.912 248.698H126.877V249.298H126.912V248.698ZM126.579 248.97C126.26 252.417 123.635 255.565 119.475 257.862C115.323 260.156 109.69 261.571 103.475 261.571V262.171C109.775 262.171 115.511 260.737 119.765 258.388C124.012 256.042 126.831 252.752 127.176 249.025L126.579 248.97ZM103.475 261.571C97.2599 261.571 91.6267 260.156 87.4747 257.862C83.3149 255.565 80.6903 252.417 80.3713 248.97L79.7739 249.025C80.1187 252.752 82.9379 256.042 87.1846 258.388C91.4392 260.737 97.1753 262.171 103.475 262.171V261.571ZM80.0726 248.698H80.0384V249.298H80.0726V248.698ZM80.3384 248.998V248.291H79.7384V248.998H80.3384ZM80.3384 248.29C80.3384 248.278 80.3383 248.267 80.3383 248.255H79.7383C79.7383 248.267 79.7384 248.28 79.7384 248.293L80.3384 248.29ZM80.3383 248.255C80.3383 248.243 80.3384 248.232 80.3384 248.22L79.7384 248.217C79.7384 248.23 79.7383 248.242 79.7383 248.255H80.3383ZM80.3384 248.218V241.57H79.7384V248.218H80.3384ZM80.0384 241.87H83.052V241.27H80.0384V241.87ZM83.2672 241.78C87.2133 237.719 94.7626 234.939 103.475 234.939V234.339C94.6624 234.339 86.9329 237.146 82.8369 241.361L83.2672 241.78ZM103.475 234.939C112.187 234.939 119.737 237.719 123.683 241.78L124.113 241.361C120.017 237.146 112.288 234.339 103.475 234.339V234.939Z" fill="white" mask="url(#path-58-inside-5_423_1380)"/>
<path d="M126.762 240.388C126.762 244.087 124.19 247.465 119.972 249.925C115.757 252.384 109.925 253.909 103.475 253.909C97.0249 253.909 91.1928 252.384 86.9784 249.925C82.7602 247.465 80.1883 244.087 80.1883 240.388C80.1883 236.688 82.7602 233.311 86.9784 230.85C91.1928 228.392 97.0249 226.866 103.475 226.866C109.925 226.866 115.757 228.392 119.972 230.85C124.19 233.311 126.762 236.688 126.762 240.388Z" fill="black" stroke="white" stroke-width="0.3"/>
<circle cx="27.2831" cy="27.2831" r="27.1331" transform="matrix(0.866025 0.5 -0.866025 0.5 287.119 195.875)" fill="#AEFFC2" stroke="black" stroke-width="0.3"/>
<circle cx="27.2831" cy="27.2831" r="27.1331" transform="matrix(0.866025 0.5 -0.866025 0.5 287.118 194.185)" fill="#F5F6F6" stroke="black" stroke-width="0.3"/>
<rect width="44.5764" height="6.75692" transform="matrix(0.989651 -0.143493 0.633651 0.773619 263.847 223.025)" fill="black"/>
<path d="M303.628 213.628C303.628 224.554 295.101 233.4 284.594 233.4C274.087 233.4 265.56 224.554 265.56 213.628C265.56 202.703 274.087 193.857 284.594 193.857C295.101 193.857 303.628 202.703 303.628 213.628Z" fill="black" stroke="white" stroke-width="0.3"/>
<path d="M308.055 213.628C308.055 224.554 299.528 233.4 289.021 233.4C278.514 233.4 269.987 224.554 269.987 213.628C269.987 202.703 278.514 193.857 289.021 193.857C299.528 193.857 308.055 202.703 308.055 213.628Z" fill="black" stroke="white" stroke-width="0.3"/>
<path fill-rule="evenodd" clip-rule="evenodd" d="M287.78 210.375L277.216 206.255L277.779 208.545L286.48 211.868L284.522 214.117L284.924 215.75L287.722 216.842L281.536 223.815L282.1 226.105L289.546 217.553L300.111 221.674L299.548 219.383L290.84 216.068L292.805 213.811L292.403 212.178L289.635 211.098L295.791 204.113L295.227 201.823L287.78 210.375ZM288.333 212.575L290.704 213.481L289.022 215.376L286.658 214.476L288.333 212.575Z" fill="white"/>
<rect width="44.5764" height="6.75692" transform="matrix(0.989651 -0.143493 0.633651 0.773619 268.015 228.234)" fill="#F5F6F6"/>
<rect width="44.5462" height="1.21005" transform="matrix(0.989651 -0.143493 0.633651 0.773619 268.134 228.217)" fill="black"/>
<rect width="44.5764" height="6.75692" transform="matrix(0.989651 -0.143493 0.633651 0.773619 267.507 231.54)" fill="#F5F6F6"/>
<mask id="path-70-inside-6_423_1380" fill="white">
<path fill-rule="evenodd" clip-rule="evenodd" d="M293.873 312.572C293.873 312.561 293.873 312.55 293.873 312.539C293.873 312.528 293.873 312.516 293.873 312.505V305.854H290.86C286.839 301.716 279.199 298.922 270.437 298.922C261.674 298.922 254.035 301.716 250.014 305.854H247V313.281H247.034C247.698 320.456 257.922 326.155 270.437 326.155C282.952 326.155 293.175 320.456 293.839 313.281H293.873V312.572Z"/>
</mask>
<path fill-rule="evenodd" clip-rule="evenodd" d="M293.873 312.572C293.873 312.561 293.873 312.55 293.873 312.539C293.873 312.528 293.873 312.516 293.873 312.505V305.854H290.86C286.839 301.716 279.199 298.922 270.437 298.922C261.674 298.922 254.035 301.716 250.014 305.854H247V313.281H247.034C247.698 320.456 257.922 326.155 270.437 326.155C282.952 326.155 293.175 320.456 293.839 313.281H293.873V312.572Z" fill="black"/>
<path d="M293.873 312.572L293.573 312.571V312.572H293.873ZM293.873 312.505H293.573L293.573 312.507L293.873 312.505ZM293.873 305.854H294.173V305.554H293.873V305.854ZM290.86 305.854L290.645 306.063L290.733 306.154H290.86V305.854ZM250.014 305.854V306.154H250.14L250.229 306.063L250.014 305.854ZM247 305.854V305.554H246.7V305.854H247ZM247 313.281H246.7V313.581H247V313.281ZM247.034 313.281L247.333 313.254L247.308 312.981H247.034V313.281ZM293.839 313.281V312.981H293.566L293.54 313.254L293.839 313.281ZM293.873 313.281V313.581H294.173V313.281H293.873ZM293.573 312.539C293.573 312.549 293.573 312.56 293.573 312.571L294.173 312.573C294.173 312.562 294.173 312.55 294.173 312.539H293.573ZM293.573 312.507C293.573 312.517 293.573 312.528 293.573 312.539H294.173C294.173 312.527 294.173 312.516 294.173 312.504L293.573 312.507ZM293.573 305.854V312.505H294.173V305.854H293.573ZM290.86 306.154H293.873V305.554H290.86V306.154ZM270.437 299.222C279.149 299.222 286.698 302.002 290.645 306.063L291.075 305.645C286.979 301.43 279.249 298.622 270.437 298.622V299.222ZM250.229 306.063C254.175 302.002 261.724 299.222 270.437 299.222V298.622C261.624 298.622 253.895 301.43 249.799 305.645L250.229 306.063ZM247 306.154H250.014V305.554H247V306.154ZM247.3 313.281V305.854H246.7V313.281H247.3ZM247.034 312.981H247V313.581H247.034V312.981ZM270.437 325.855C264.222 325.855 258.588 324.439 254.436 322.146C250.277 319.848 247.652 316.701 247.333 313.254L246.736 313.309C247.08 317.036 249.9 320.326 254.146 322.671C258.401 325.021 264.137 326.455 270.437 326.455V325.855ZM293.54 313.254C293.221 316.701 290.597 319.848 286.437 322.146C282.285 324.439 276.652 325.855 270.437 325.855V326.455C276.736 326.455 282.473 325.021 286.727 322.671C290.974 320.326 293.793 317.036 294.138 313.309L293.54 313.254ZM293.873 312.981H293.839V313.581H293.873V312.981ZM293.573 312.572V313.281H294.173V312.572H293.573Z" fill="white" mask="url(#path-70-inside-6_423_1380)"/>
<path d="M293.724 304.671C293.724 308.371 291.152 311.748 286.934 314.209C282.719 316.667 276.887 318.193 270.437 318.193C263.987 318.193 258.155 316.667 253.941 314.209C249.722 311.748 247.15 308.371 247.15 304.671C247.15 300.972 249.722 297.594 253.941 295.134C258.155 292.675 263.987 291.15 270.437 291.15C276.887 291.15 282.719 292.675 286.934 295.134C291.152 297.594 293.724 300.972 293.724 304.671Z" fill="black" stroke="white" stroke-width="0.3"/>
<rect width="19.3265" height="4.08299" transform="matrix(0.987688 -0.156434 0.567556 0.823335 89.5488 233.735)" fill="white"/>
<rect width="16.6461" height="5.34564" transform="matrix(-0.567556 -0.823335 0.987688 -0.156434 107.149 248.157)" fill="white"/>
<ellipse cx="12.6422" cy="3.37963" rx="12.6422" ry="3.37963" transform="matrix(0.987688 -0.156434 0.567556 0.823335 89.8621 239.417)" fill="white"/>
<ellipse cx="11.3779" cy="2.65542" rx="11.3779" ry="2.65542" transform="matrix(0.987688 -0.156434 0.567556 0.823335 91.3848 239.617)" fill="black"/>
<path d="M103.177 242.396L97.7009 234.451L102.981 233.615L108.507 241.631C108.507 241.631 106.901 241.886 105.867 242.049C104.833 242.213 103.177 242.396 103.177 242.396Z" fill="white"/>
<path d="M201.646 303.149H206.038V304.049H201.646V303.149ZM195.766 308.669H206.578V309.557H195.766V308.669ZM201.166 299.153H202.114V309.125H201.166V299.153ZM197.434 301.769H198.358V309.089H197.434V301.769ZM207.73 309.029H218.65V309.821H207.73V309.029ZM207.946 299.741H215.47V300.521H207.946V299.741ZM209.086 306.053H217.306V309.437H216.43V306.785H214.798V309.437H213.958V306.785H212.362V309.437H211.522V306.785H209.926V309.437H209.086V306.053ZM215.218 301.769H217.666V302.537H214.99L215.218 301.769ZM210.562 301.553H213.49V302.249H210.286L210.562 301.553ZM217.354 301.769H218.242C218.242 301.769 218.23 302.021 218.206 302.153C218.026 304.121 217.858 304.937 217.546 305.237C217.33 305.465 217.102 305.537 216.754 305.561C216.454 305.585 215.89 305.573 215.29 305.537C215.266 305.285 215.158 304.961 215.026 304.733C215.614 304.793 216.19 304.793 216.406 304.793C216.598 304.793 216.73 304.793 216.826 304.685C217.054 304.469 217.21 303.737 217.354 301.889V301.769ZM210.442 299.885L211.342 300.005C210.898 302.741 209.914 304.709 208.21 305.957C208.066 305.801 207.718 305.477 207.502 305.345C209.194 304.241 210.082 302.381 210.442 299.885ZM213.262 301.553H213.43L213.574 301.541L214.042 301.697C213.514 303.977 212.242 305.141 210.514 305.753C210.418 305.561 210.154 305.261 209.998 305.117C211.618 304.613 212.818 303.593 213.262 301.685V301.553ZM210.646 303.233L211.174 302.753C212.338 303.245 213.706 304.133 214.39 304.805L213.838 305.357C213.166 304.661 211.834 303.761 210.646 303.233ZM215.206 299.741H216.082C215.878 300.857 215.578 302.261 215.35 303.149L214.51 303.029C214.75 302.165 215.026 300.797 215.206 299.741ZM225.646 303.149H230.038V304.049H225.646V303.149ZM219.766 308.669H230.578V309.557H219.766V308.669ZM225.166 299.153H226.114V309.125H225.166V299.153ZM221.434 301.769H222.358V309.089H221.434V301.769ZM231.538 305.657C232.522 305.393 234.01 304.925 235.462 304.457L235.582 305.273C234.226 305.717 232.798 306.173 231.706 306.521L231.538 305.657ZM231.682 301.541H235.462V302.381H231.682V301.541ZM233.206 299.129H234.094V309.017C234.094 309.533 233.986 309.797 233.674 309.941C233.374 310.085 232.882 310.121 232.102 310.121C232.066 309.881 231.946 309.485 231.826 309.221C232.354 309.245 232.846 309.245 232.99 309.233C233.134 309.233 233.206 309.185 233.206 309.005V299.129ZM237.274 300.269V301.817H240.622V300.269H237.274ZM236.386 299.585H241.534V302.501H236.386V299.585ZM238.534 304.961H239.41V306.161C239.41 307.421 238.966 309.017 235.558 310.097C235.45 309.881 235.21 309.533 235.006 309.341C238.258 308.453 238.534 307.097 238.534 306.149V304.961ZM239.41 308.321L239.95 307.745C240.862 308.285 242.122 309.065 242.758 309.545L242.194 310.205C241.57 309.713 240.334 308.897 239.41 308.321ZM236.062 303.389H241.918V307.709H241.042V304.133H236.914V307.745H236.062V303.389Z" fill="white"/>
<path fill-rule="evenodd" clip-rule="evenodd" d="M269.001 301.795L260 298.839L260.434 300.601L267.849 302.981L266.112 304.768L266.421 306.024L268.806 306.807L263.324 312.35L263.758 314.112L270.36 307.318L279.362 310.273L278.928 308.511L271.507 306.138L273.249 304.344L272.94 303.088L270.581 302.313L276.037 296.762L275.604 295L269.001 301.795ZM269.428 303.487L271.448 304.136L269.958 305.642L267.943 304.998L269.428 303.487Z" fill="white"/>
<path d="M215.427 253.465H225.471L223.885 280.808H217.013L215.427 253.465Z" fill="white"/>
<circle cx="220.449" cy="287.504" r="3.90611" fill="white"/>
</g>
<defs>
<clipPath id="clip0_423_1380">
<rect width="390" height="467" fill="white"/>
</clipPath>
</defs>
</svg>
