<svg width="17" height="17" viewBox="0 0 17 17" fill="none" xmlns="http://www.w3.org/2000/svg">
<g id="alert-triangle">
<path id="Solid" fill-rule="evenodd" clip-rule="evenodd" d="M8.87504 1.61221C8.53016 1.45885 8.13645 1.45885 7.79157 1.61221C7.52522 1.73064 7.3522 1.93925 7.2318 2.10924C7.11342 2.27636 6.98668 2.49531 6.8473 2.73611L1.33586 12.2559C1.19592 12.4975 1.06875 12.7172 0.982527 12.9035C0.894894 13.093 0.799824 13.3476 0.830124 13.6382C0.869331 14.0143 1.06636 14.356 1.37217 14.5784C1.6085 14.7502 1.8765 14.7955 2.08434 14.8146C2.28883 14.8333 2.54261 14.8333 2.82186 14.8333H13.8447C14.124 14.8333 14.3778 14.8333 14.5823 14.8146C14.7901 14.7955 15.0581 14.7502 15.2944 14.5784C15.6003 14.356 15.7973 14.0143 15.8365 13.6382C15.8668 13.3476 15.7717 13.093 15.6841 12.9035C15.5979 12.7172 15.4707 12.4976 15.3308 12.2559L9.8193 2.73608C9.67992 2.4953 9.55318 2.27635 9.43481 2.10924C9.31441 1.93925 9.14139 1.73064 8.87504 1.61221ZM8.99999 6.49996C8.99999 6.13177 8.70151 5.83329 8.33332 5.83329C7.96513 5.83329 7.66666 6.13177 7.66666 6.49996V9.16663C7.66666 9.53481 7.96513 9.83329 8.33332 9.83329C8.70151 9.83329 8.99999 9.53481 8.99999 9.16663V6.49996ZM8.33332 11.1666C7.96513 11.1666 7.66666 11.4651 7.66666 11.8333C7.66666 12.2015 7.96513 12.5 8.33332 12.5H8.33999C8.70818 12.5 9.00666 12.2015 9.00666 11.8333C9.00666 11.4651 8.70818 11.1666 8.33999 11.1666H8.33332Z" fill="#FF9900"/>
</g>
</svg>
