<svg width="21" height="20" viewBox="0 0 21 20" fill="none" xmlns="http://www.w3.org/2000/svg">
  <path d="M3.28833 1.96924C3.34 2.9234 4.28083 3.54174 5.2025 3.2559C8.66083 2.18424 12.3875 3.40424 14.1275 6.41841C15.8675 9.43257 15.0608 13.2701 12.4033 15.7292C11.695 16.3842 11.76 17.5084 12.56 18.0309" stroke="#17B26A" stroke-width="1.25" stroke-linecap="round"/>
  <path fill-rule="evenodd" clip-rule="evenodd" d="M17.8468 6.42167C18.956 5.78084 19.1468 4.02751 18.9276 3.64751C18.7085 3.26834 17.0943 2.55584 15.9851 3.19667C15.5643 3.44001 15.3618 4.05667 15.6293 4.52001C15.7735 4.76917 16.0076 4.94167 16.2651 5.00167C16.391 5.03084 16.461 5.15251 16.4235 5.27584C16.3468 5.52834 16.3801 5.81834 16.5235 6.06834C16.7901 6.53167 17.426 6.66501 17.8468 6.42167V6.42167Z" stroke="#17B26A" stroke-width="1.25" stroke-linecap="round" stroke-linejoin="round"/>
  <path fill-rule="evenodd" clip-rule="evenodd" d="M4.16499 14.3118L7.36166 12.4668L7.70333 10.1276L5.52333 9.24512L2.32666 11.091L4.50666 11.9735L4.16499 14.3118Z" stroke="#17B26A" stroke-width="1.25" stroke-linecap="round" stroke-linejoin="round"/>
  <path d="M16.4083 5.1001L7.69995 10.1251" stroke="#17B26A" stroke-width="1.25" stroke-linecap="round"/>
  <path d="M4.36662 3.2666V9.9166" stroke="#17B26A" stroke-width="1.25" stroke-linecap="round"/>
  <path d="M11.9668 16.4833L6.2251 13.125" stroke="#17B26A" stroke-width="1.25" stroke-linecap="round"/>
  </svg>
  