<svg width="20" height="20" viewBox="0 0 20 20" fill="none" xmlns="http://www.w3.org/2000/svg">
<g id="shield-tick">
<path id="Icon" d="M7.49998 9.58339L9.16665 11.2501L12.9166 7.50006M16.6666 10.0001C16.6666 14.0904 12.205 17.0654 10.5816 18.0125C10.3971 18.1201 10.3049 18.1739 10.1747 18.2018C10.0737 18.2235 9.92628 18.2235 9.82525 18.2018C9.69506 18.1739 9.60281 18.1201 9.41832 18.0125C7.79495 17.0654 3.33331 14.0904 3.33331 10.0001V6.01472C3.33331 5.34846 3.33331 5.01533 3.44228 4.72898C3.53854 4.47601 3.69497 4.25029 3.89803 4.07133C4.12789 3.86875 4.43981 3.75178 5.06365 3.51785L9.53181 1.84228C9.70506 1.77732 9.79168 1.74483 9.8808 1.73196C9.95984 1.72053 10.0401 1.72053 10.1192 1.73196C10.2083 1.74483 10.2949 1.77732 10.4681 1.84228L14.9363 3.51785C15.5601 3.75178 15.8721 3.86875 16.1019 4.07133C16.305 4.25029 16.4614 4.47601 16.5577 4.72898C16.6666 5.01533 16.6666 5.34846 16.6666 6.01472V10.0001Z" stroke="black" stroke-width="1.5" stroke-linecap="round" stroke-linejoin="round"/>
</g>
</svg>
