<svg width="21" height="20" viewBox="0 0 21 20" fill="none" xmlns="http://www.w3.org/2000/svg">
  <path fill-rule="evenodd" clip-rule="evenodd" d="M14.2515 7.40387V7.40387C13.2261 9.45465 11.6166 11.156 9.62582 12.2936V12.2936C7.87101 13.2964 5.88489 13.8238 3.86378 13.8238H3.71419C3.33355 13.8238 2.99368 14.0622 2.8641 14.4201C2.73453 14.778 2.843 15.1787 3.13542 15.4224V15.4224C5.04523 17.0139 7.52949 17.7423 9.99631 17.4339L9.99979 17.4335C11.7472 17.2151 13.3918 16.4875 14.7288 15.3415V15.3415C17.026 13.3725 18.1769 10.3788 17.7903 7.37802V7.37802C17.6576 6.3481 17.5911 5.31073 17.5911 4.27229V3.36615C17.5911 2.90572 17.2178 2.53247 16.7574 2.53247H15.9687C15.5082 2.53247 15.135 2.90572 15.135 3.36615V3.66114C15.135 4.96038 14.8325 6.24179 14.2515 7.40387Z" stroke="#FF9900" stroke-width="1.25" stroke-linecap="round" stroke-linejoin="round"/>
  <path d="M7.7244 13.1596L7.46596 13.1013C5.81642 12.7364 4.39006 11.7081 3.52265 10.2584C3.36829 10.0013 3.36336 9.68122 3.50974 9.41947C3.65611 9.15771 3.9314 8.99433 4.23128 8.99123C4.32786 8.99231 4.42361 9.00921 4.51473 9.04125C5.83516 9.50867 7.25468 9.62361 8.63311 9.37472L8.88322 9.3247C10.6291 9.00796 12.242 8.18119 13.5185 6.94871C14.2117 6.28687 14.7473 5.47772 15.0858 4.58105" stroke="#FF9900" stroke-width="1.25" stroke-linecap="round" stroke-linejoin="round"/>
  </svg>
  