<svg xmlns="http://www.w3.org/2000/svg" width="16px" height="16px" fill="#a0a0a0" viewBox="0 0 16 16"><g clip-path="url(#clip0_7327_2237)"><path fill-rule="evenodd" clip-rule="evenodd" d="M4.053 2A2.053 2.053 0 002 4.053v7.894C2 13.081 2.919 14 4.053 14h7.894A2.053 2.053 0 0014 11.947V4.053A2.053 2.053 0 0011.947 2H4.053zM7 7.5a1.5 1.5 0 11-3 0 1.5 1.5 0 013 0zm5 0a1.5 1.5 0 11-3 0 1.5 1.5 0 013 0z"></path><path d="M3 15.5a.5.5 0 01.5-.5h9a.5.5 0 010 1h-9a.5.5 0 01-.5-.5z"></path><rect x="11" width="1" height="3" rx=".5"></rect><rect x="15" y="6" width="1" height="5" rx=".5"></rect><rect y="6" width="1" height="5" rx=".5"></rect><rect width="1" height="3" rx=".5" transform="matrix(-1 0 0 1 5 0)"></rect></g><defs><clipPath id="clip0_7327_2237"><rect width="16" height="16"></rect></clipPath></defs></svg>