<svg width="12" height="13" viewBox="0 0 12 13" fill="none" xmlns="http://www.w3.org/2000/svg">
<g id="calendar-date">
<path id="Icon" d="M10.5 5.5H1.5M8 1.5V3.5M4 1.5V3.5M5.25 7.5L6 7V9.5M5.375 9.5H6.625M3.9 11.5H8.1C8.94008 11.5 9.36012 11.5 9.68099 11.3365C9.96323 11.1927 10.1927 10.9632 10.3365 10.681C10.5 10.3601 10.5 9.94008 10.5 9.1V4.9C10.5 4.05992 10.5 3.63988 10.3365 3.31901C10.1927 3.03677 9.96323 2.8073 9.68099 2.66349C9.36012 2.5 8.94008 2.5 8.1 2.5H3.9C3.05992 2.5 2.63988 2.5 2.31901 2.66349C2.03677 2.8073 1.8073 3.03677 1.66349 3.31901C1.5 3.63988 1.5 4.05992 1.5 4.9V9.1C1.5 9.94008 1.5 10.3601 1.66349 10.681C1.8073 10.9632 2.03677 11.1927 2.31901 11.3365C2.63988 11.5 3.05992 11.5 3.9 11.5Z" stroke="#828282" stroke-linecap="round" stroke-linejoin="round"/>
</g>
</svg>
