<svg width="120" height="121" viewBox="0 0 120 121" fill="none" xmlns="http://www.w3.org/2000/svg">
<path d="M0 60.5C0 27.3629 26.8629 0.5 60 0.5C93.1371 0.5 120 27.3629 120 60.5C120 93.6371 93.1371 120.5 60 120.5C26.8629 120.5 0 93.6371 0 60.5Z" fill="#F2F2F2"/>
<path fill-rule="evenodd" clip-rule="evenodd" d="M85.482 37.4502L49.682 72.0002L40.182 61.8502C38.432 60.2002 35.682 60.1002 33.682 61.5002C31.732 62.9502 31.182 65.5002 32.382 67.5502L43.632 85.8502C44.732 87.5502 46.632 88.6002 48.782 88.6002C50.832 88.6002 52.782 87.5502 53.882 85.8502C55.682 83.5002 90.032 42.5502 90.032 42.5502C94.532 37.9502 89.082 33.9002 85.482 37.4002V37.4502Z" fill="#202020"/>
</svg>
