<svg width="12" height="13" viewBox="0 0 12 13" fill="none" xmlns="http://www.w3.org/2000/svg">
<path id="Vector" d="M0.75 2C0.75 1.17266 1.42266 0.5 2.25 0.5H6C6.82734 0.5 7.5 1.17266 7.5 2V6.5H7.6875C8.82656 6.5 9.75 7.42344 9.75 8.5625V9.3125C9.75 9.62422 10.0008 9.875 10.3125 9.875C10.6242 9.875 10.875 9.62422 10.875 9.3125V5.70312C10.2281 5.53672 9.75 4.94844 9.75 4.25V2.75L9 2C8.79375 1.79375 8.79375 1.45625 9 1.25C9.20625 1.04375 9.54375 1.04375 9.75 1.25L11.5617 3.06172C11.843 3.34297 12 3.725 12 4.12344V9.3125C12 10.2453 11.2453 11 10.3125 11C9.37969 11 8.625 10.2453 8.625 9.3125V8.5625C8.625 8.04453 8.20547 7.625 7.6875 7.625H7.5V11C7.91484 11 8.25 11.3352 8.25 11.75C8.25 12.1648 7.91484 12.5 7.5 12.5H0.75C0.335156 12.5 0 12.1648 0 11.75C0 11.3352 0.335156 11 0.75 11V2ZM2.25 2.375V4.625C2.25 4.83125 2.41875 5 2.625 5H5.625C5.83125 5 6 4.83125 6 4.625V2.375C6 2.16875 5.83125 2 5.625 2H2.625C2.41875 2 2.25 2.16875 2.25 2.375Z" fill="#9C9C9C"/>
</svg>
