<svg width="12" height="13" viewBox="0 0 12 13" fill="none" xmlns="http://www.w3.org/2000/svg">
<g id="Phosphoricons fill" clip-path="url(#clip0_4962_5269)">
<path id="Vector" d="M10.8761 6.59862C10.7964 7.52486 10.4539 8.40907 9.88875 9.14724C9.32362 9.88541 8.55942 10.4468 7.68606 10.7654C6.8127 11.084 5.86651 11.1466 4.95882 10.9457C4.05112 10.7448 3.21968 10.2888 2.56232 9.63147C1.90495 8.9741 1.449 8.14266 1.24812 7.23497C1.04723 6.32727 1.10977 5.38109 1.42837 4.50773C1.74697 3.63437 2.30838 2.87017 3.04655 2.30504C3.78472 1.7399 4.66893 1.39735 5.59517 1.31768C5.64442 1.31362 5.69398 1.31929 5.74103 1.33439C5.78808 1.34948 5.8317 1.37369 5.8694 1.40564C5.90709 1.43759 5.93812 1.47665 5.96072 1.52059C5.98332 1.56453 5.99705 1.6125 6.00111 1.66174C6.00517 1.71099 5.99949 1.76055 5.9844 1.8076C5.96931 1.85466 5.9451 1.89827 5.91315 1.93597C5.8812 1.97366 5.84214 2.0047 5.7982 2.0273C5.75425 2.04989 5.70629 2.06362 5.65705 2.06768C4.8731 2.13504 4.1247 2.4249 3.49991 2.90316C2.87511 3.38143 2.39992 4.02819 2.13023 4.76736C1.86054 5.50653 1.80758 6.30736 1.97758 7.0756C2.14759 7.84385 2.53348 8.54756 3.08985 9.10394C3.64623 9.66031 4.34994 10.0462 5.11818 10.2162C5.88643 10.3862 6.68725 10.3332 7.42642 10.0636C8.16559 9.79387 8.81236 9.31867 9.29062 8.69388C9.76889 8.06908 10.0588 7.32069 10.1261 6.53674C10.1343 6.43729 10.1817 6.34516 10.2578 6.28064C10.3339 6.21611 10.4326 6.18447 10.532 6.19268C10.6315 6.20089 10.7236 6.24826 10.7881 6.32439C10.8527 6.40052 10.8843 6.49916 10.8761 6.59862ZM7.50111 2.44268C7.61236 2.44268 7.72111 2.40969 7.81362 2.34788C7.90612 2.28607 7.97822 2.19822 8.02079 2.09544C8.06336 1.99266 8.0745 1.87956 8.0528 1.77044C8.0311 1.66133 7.97752 1.5611 7.89886 1.48243C7.82019 1.40377 7.71996 1.35019 7.61085 1.32849C7.50173 1.30678 7.38863 1.31792 7.28585 1.3605C7.18307 1.40307 7.09521 1.47517 7.03341 1.56767C6.9716 1.66017 6.93861 1.76893 6.93861 1.88018C6.93861 2.02936 6.99787 2.17244 7.10336 2.27793C7.20885 2.38342 7.35192 2.44268 7.50111 2.44268ZM9.18861 3.56768C9.29986 3.56768 9.40861 3.53469 9.50112 3.47288C9.59362 3.41107 9.66572 3.32322 9.70829 3.22044C9.75086 3.11766 9.762 3.00456 9.7403 2.89544C9.7186 2.78633 9.66502 2.6861 9.58636 2.60743C9.50769 2.52877 9.40746 2.47519 9.29835 2.45349C9.18923 2.43178 9.07613 2.44292 8.97335 2.4855C8.87057 2.52807 8.78271 2.60017 8.72091 2.69267C8.6591 2.78517 8.62611 2.89393 8.62611 3.00518C8.62611 3.15436 8.68537 3.29744 8.79086 3.40293C8.89635 3.50842 9.03942 3.56768 9.18861 3.56768ZM10.3136 5.25518C10.4249 5.25518 10.5336 5.22219 10.6261 5.16038C10.7186 5.09857 10.7907 5.01072 10.8333 4.90794C10.8759 4.80516 10.887 4.69206 10.8653 4.58294C10.8436 4.47383 10.79 4.3736 10.7114 4.29493C10.6327 4.21627 10.5325 4.16269 10.4233 4.14099C10.3142 4.11928 10.2011 4.13042 10.0983 4.173C9.99557 4.21557 9.90771 4.28767 9.84591 4.38017C9.7841 4.47267 9.75111 4.58143 9.75111 4.69268C9.75111 4.84186 9.81037 4.98494 9.91586 5.09043C10.0213 5.19592 10.1644 5.25518 10.3136 5.25518ZM6.00111 2.81768C6.66862 2.81768 7.32114 3.01562 7.87616 3.38647C8.43117 3.75732 8.86376 4.28442 9.1192 4.90112C9.37465 5.51782 9.44148 6.19642 9.31126 6.85111C9.18103 7.5058 8.85959 8.10716 8.38759 8.57917C7.91559 9.05117 7.31422 9.37261 6.65954 9.50283C6.00485 9.63306 5.32625 9.56622 4.70955 9.31077C4.09285 9.05533 3.56575 8.62275 3.1949 8.06773C2.82405 7.51271 2.62611 6.86019 2.62611 6.19268C2.6271 5.29788 2.983 4.44001 3.61572 3.80729C4.24844 3.17457 5.10631 2.81867 6.00111 2.81768ZM5.62611 6.19268C5.62611 6.29214 5.66562 6.38752 5.73594 6.45785C5.80627 6.52817 5.90165 6.56768 6.00111 6.56768H8.25111C8.35056 6.56768 8.44595 6.52817 8.51627 6.45785C8.5866 6.38752 8.62611 6.29214 8.62611 6.19268C8.62611 6.09322 8.5866 5.99784 8.51627 5.92752C8.44595 5.85719 8.35056 5.81768 8.25111 5.81768H6.37611V3.94268C6.37611 3.84322 6.3366 3.74784 6.26627 3.67752C6.19595 3.60719 6.10056 3.56768 6.00111 3.56768C5.90165 3.56768 5.80627 3.60719 5.73594 3.67752C5.66562 3.74784 5.62611 3.84322 5.62611 3.94268V6.19268Z" fill="#2EBD85"/>
</g>
<defs>
<clipPath id="clip0_4962_5269">
<rect width="12" height="12" fill="white" transform="translate(0 0.193359)"/>
</clipPath>
</defs>
</svg>
