<svg width="33" height="32" viewBox="0 0 33 32" fill="none" xmlns="http://www.w3.org/2000/svg">
<g id="coins-swap-01">
<path id="Icon" d="M8.15365 8.0013L10.8203 5.33464M10.8203 5.33464L8.15365 2.66797M10.8203 5.33464H8.15365C5.20813 5.33464 2.82031 7.72245 2.82031 10.668M24.1536 24.0013L21.487 26.668M21.487 26.668L24.1536 29.3346M21.487 26.668H24.1536C27.0992 26.668 29.487 24.2802 29.487 21.3346M18.0432 17.8909C19.0862 18.389 20.254 18.668 21.487 18.668C25.9053 18.668 29.487 15.0862 29.487 10.668C29.487 6.24969 25.9053 2.66797 21.487 2.66797C17.0687 2.66797 13.487 6.24969 13.487 10.668C13.487 11.9009 13.7659 13.0687 14.2641 14.1117M18.8203 21.3346C18.8203 25.7529 15.2386 29.3346 10.8203 29.3346C6.40203 29.3346 2.82031 25.7529 2.82031 21.3346C2.82031 16.9164 6.40203 13.3346 10.8203 13.3346C15.2386 13.3346 18.8203 16.9164 18.8203 21.3346Z" stroke="#F5F5F5" stroke-width="2" stroke-linecap="round" stroke-linejoin="round"/>
</g>
</svg>
