<svg width="16" height="16" viewBox="0 0 16 16" fill="none" xmlns="http://www.w3.org/2000/svg">
<g id="Arbitrum 1" clip-path="url(#clip0_1337_20535)">
<path id="Vector" d="M8 16C10.1217 16 12.1566 15.1571 13.6569 13.6569C15.1571 12.1566 16 10.1217 16 8C16 5.87827 15.1571 3.84344 13.6569 2.34315C12.1566 0.842855 10.1217 0 8 0C5.87827 0 3.84344 0.842855 2.34315 2.34315C0.842855 3.84344 0 5.87827 0 8C0 10.1217 0.842855 12.1566 2.34315 13.6569C3.84344 15.1571 5.87827 16 8 16Z" fill="#2D374B"/>
<path id="Vector_2" d="M7.46602 2.27304C7.79602 2.08704 8.20302 2.08704 8.53302 2.27304L12.799 4.68504C13.129 4.87104 13.333 5.21505 13.333 5.58905V10.411C13.333 10.784 13.129 11.129 12.799 11.316L8.53302 13.726C8.20302 13.913 7.79602 13.913 7.46602 13.726L3.19902 11.316C3.03786 11.2261 2.90355 11.0948 2.80988 10.9358C2.71621 10.7767 2.66656 10.5956 2.66602 10.411V5.59004C2.66602 5.21704 2.86902 4.87204 3.19902 4.68604L7.46602 2.27404V2.27304Z" fill="#96BEDC"/>
<path id="Vector_3" d="M7.84003 2.89904C7.89422 2.86855 7.95535 2.85254 8.01753 2.85254C8.0797 2.85254 8.14083 2.86855 8.19503 2.89904L12.417 5.28604C12.527 5.34804 12.595 5.46304 12.595 5.58604V10.361C12.595 10.485 12.527 10.601 12.417 10.662L8.19503 13.05C8.14071 13.0807 8.0794 13.0968 8.01703 13.0968C7.95465 13.0968 7.89334 13.0807 7.83903 13.05L3.61703 10.663C3.56337 10.6331 3.51861 10.5895 3.48734 10.5366C3.45606 10.4837 3.43939 10.4235 3.43903 10.362V5.58704C3.43903 5.46304 3.50703 5.34704 3.61703 5.28604L7.84003 2.89904Z" fill="#2D374B"/>
<path id="Vector_4" d="M3.83702 11.676L3.07602 11.246C2.9516 11.1758 2.84807 11.0738 2.77603 10.9504C2.70398 10.8271 2.66602 10.6868 2.66602 10.544L5.52602 6.26097C5.68206 6.0296 5.8927 5.84022 6.13932 5.70959C6.38594 5.57895 6.66094 5.51108 6.94002 5.51197H7.76402L3.83702 11.676ZM5.65402 12.703L4.28502 11.929L8.27502 5.51197H10.004L5.65402 12.703Z" fill="white"/>
<path id="Vector_5" d="M11.215 11.3431L9.69698 12.2001L8.04498 9.67012L9.05798 8.01012L11.215 11.3441V11.3431ZM12.596 9.62612V10.3611C12.596 10.4851 12.528 10.6011 12.418 10.6621L11.648 11.0981L9.35198 7.49112L10.232 6.04712L12.596 9.62712V9.62612Z" fill="#28A0F0"/>
</g>
<defs>
<clipPath id="clip0_1337_20535">
<rect width="16" height="16" fill="white"/>
</clipPath>
</defs>
</svg>
