<svg width="18" height="18" viewBox="0 0 18 18" fill="none" xmlns="http://www.w3.org/2000/svg">
<g id="coins-swap-01" clip-path="url(#clip0_3055_24611)">
<path id="Icon" d="M4.5 4.5L6 3M6 3L4.5 1.5M6 3H4.5C2.84315 3 1.5 4.34315 1.5 6M13.5 13.5L12 15M12 15L13.5 16.5M12 15H13.5C15.1569 15 16.5 13.6569 16.5 12M10.0629 10.0629C10.6496 10.3431 11.3065 10.5 12 10.5C14.4853 10.5 16.5 8.48528 16.5 6C16.5 3.51472 14.4853 1.5 12 1.5C9.51472 1.5 7.5 3.51472 7.5 6C7.5 6.69354 7.65689 7.35043 7.93712 7.93712M10.5 12C10.5 14.4853 8.48528 16.5 6 16.5C3.51472 16.5 1.5 14.4853 1.5 12C1.5 9.51472 3.51472 7.5 6 7.5C8.48528 7.5 10.5 9.51472 10.5 12Z" stroke="#2AE6F2" stroke-width="1.6" stroke-linecap="round" stroke-linejoin="round"/>
</g>
<defs>
<clipPath id="clip0_3055_24611">
<rect width="18" height="18" fill="white"/>
</clipPath>
</defs>
</svg>
