<svg width="32" height="32" viewBox="0 0 32 32" fill="none" xmlns="http://www.w3.org/2000/svg">
<g id="BTC 1">
<rect width="32" height="32" rx="8" fill="#F7931A"/>
<g id="Layer_x0020_1">
<g id="_1421344023328">
<path id="Vector" d="M23.9582 13.4422C24.291 11.2356 22.5967 10.0494 20.2799 9.25818L21.0315 6.26913L19.1964 5.81575L18.4647 8.7261C17.9823 8.60679 17.4869 8.49438 16.9945 8.38294L17.7315 5.45338L15.8975 5L15.1455 7.98807C14.7463 7.89795 14.3542 7.80888 13.9738 7.71502L13.9759 7.70562L11.4453 7.07904L10.9571 9.02241C10.9571 9.02241 12.3186 9.33185 12.2899 9.35089C13.033 9.53479 13.1674 10.0225 13.1451 10.4091L12.2889 13.8144C12.3401 13.8273 12.4065 13.8459 12.4797 13.8751C12.4185 13.86 12.3533 13.8435 12.2857 13.8275L11.0857 18.5977C10.9949 18.8216 10.7644 19.1575 10.2448 19.03C10.2632 19.0564 8.91108 18.6999 8.91108 18.6999L8 20.7827L10.388 21.373C10.8323 21.4834 11.2677 21.599 11.6964 21.7077L10.937 24.731L12.77 25.1844L13.522 22.1932C14.0227 22.328 14.5087 22.4523 14.9844 22.5695L14.2349 25.5466L16.0701 26L16.8294 22.9823C19.9586 23.5695 22.3115 23.3328 23.3018 20.5264C24.0999 18.267 23.2621 16.9637 21.6158 16.1139C22.8149 15.8397 23.718 15.0577 23.9589 13.4424L23.9583 13.442L23.9582 13.4422ZM19.7655 19.2716C19.1984 21.5311 15.3616 20.3097 14.1177 20.0034L15.1254 15.998C16.3692 16.3059 20.3582 16.9153 19.7656 19.2716H19.7655ZM20.333 13.4094C19.8157 15.4647 16.6223 14.4205 15.5864 14.1645L16.5 10.5318C17.5359 10.7879 20.8719 11.2657 20.3332 13.4094H20.333Z" fill="white"/>
</g>
</g>
</g>
</svg>
