<svg width="18" height="18" viewBox="0 0 18 18" fill="none" xmlns="http://www.w3.org/2000/svg">
<g id="credit-card-download">
<path id="Icon" d="M6.75 12.75L9 15M9 15L11.25 12.75M9 15V9.75M16.5 6.75H1.5M4.125 13.5H3.9C3.05992 13.5 2.63988 13.5 2.31901 13.3365C2.03677 13.1927 1.8073 12.9632 1.66349 12.681C1.5 12.3601 1.5 11.9401 1.5 11.1V5.4C1.5 4.55992 1.5 4.13988 1.66349 3.81901C1.8073 3.53677 2.03677 3.3073 2.31901 3.16349C2.63988 3 3.05992 3 3.9 3H14.1C14.9401 3 15.3601 3 15.681 3.16349C15.9632 3.3073 16.1927 3.53677 16.3365 3.81902C16.5 4.13988 16.5 4.55992 16.5 5.4V11.1C16.5 11.9401 16.5 12.3601 16.3365 12.681C16.1927 12.9632 15.9632 13.1927 15.681 13.3365C15.3601 13.5 14.9401 13.5 14.1 13.5H13.875" stroke="#2EBD85" stroke-width="1.6" stroke-linecap="round" stroke-linejoin="round"/>
</g>
</svg>
