<svg width="14" height="15" viewBox="0 0 14 15" fill="none" xmlns="http://www.w3.org/2000/svg">
<g id="8899 1" clip-path="url(#clip0_5038_47387)">
<g id="Clip path group">
<mask id="mask0_5038_47387" style="mask-type:luminance" maskUnits="userSpaceOnUse" x="0" y="0" width="14" height="15">
<g id="clip0_9436_2400">
<path id="Vector" d="M14 0.806641H0V14.8066H14V0.806641Z" fill="white"/>
</g>
</mask>
<g mask="url(#mask0_5038_47387)">
<g id="Group">
<path id="Vector_2" d="M3.252 5.08685L1.75 6.59085L3.5 8.34085L5.25 6.59085L3.747 5.08885C3.7145 5.05635 3.67591 5.03057 3.63345 5.01297C3.59098 4.99538 3.54547 4.98633 3.4995 4.98633C3.45353 4.98633 3.40802 4.99538 3.36555 5.01297C3.32309 5.03057 3.2845 5.05635 3.252 5.08885V5.08685Z" fill="url(#paint0_linear_5038_47387)"/>
<path id="Vector_3" d="M10.253 5.08685L8.75 6.59085L10.5 8.34085L12.25 6.59085L10.748 5.08885C10.7155 5.05635 10.6769 5.03057 10.6344 5.01297C10.592 4.99538 10.5465 4.98633 10.5005 4.98633C10.4545 4.98633 10.409 4.99538 10.3666 5.01297C10.3241 5.03057 10.2855 5.05635 10.253 5.08885V5.08685Z" fill="url(#paint1_linear_5038_47387)"/>
<path id="Vector_4" d="M0.487427 5.32326C0.370427 4.66326 1.22843 4.30026 1.61943 4.84526L2.89943 6.62626C2.95006 6.69663 3.01634 6.75427 3.09304 6.79466C3.16974 6.83506 3.25478 6.85709 3.34144 6.85903C3.42811 6.86097 3.51404 6.84276 3.59247 6.80584C3.67091 6.76892 3.7397 6.71429 3.79343 6.64626L6.50543 3.21426C6.5644 3.13956 6.63952 3.07919 6.72517 3.03768C6.81082 2.99617 6.90475 2.97461 6.99993 2.97461C7.0951 2.97461 7.18904 2.99617 7.27468 3.03768C7.36033 3.07919 7.43546 3.13956 7.49443 3.21426L10.2054 6.64726C10.2592 6.71529 10.3279 6.76992 10.4064 6.80684C10.4848 6.84376 10.5707 6.86197 10.6574 6.86003C10.7441 6.85809 10.8291 6.83606 10.9058 6.79566C10.9825 6.75527 11.0488 6.69763 11.0994 6.62726L12.3794 4.84526C12.7704 4.30026 13.6294 4.66226 13.5114 5.32326L12.4554 11.2343C12.3977 11.5578 12.228 11.8506 11.9761 12.0616C11.7241 12.2726 11.406 12.3882 11.0774 12.3883H2.92143C2.59283 12.3882 2.27471 12.2726 2.02278 12.0616C1.77086 11.8506 1.60117 11.5578 1.54343 11.2343L0.487427 5.32326Z" fill="url(#paint2_linear_5038_47387)"/>
</g>
</g>
</g>
</g>
<defs>
<linearGradient id="paint0_linear_5038_47387" x1="1.75" y1="4.98633" x2="5.1015" y2="8.48318" gradientUnits="userSpaceOnUse">
<stop stop-color="#F0FF00"/>
<stop offset="1" stop-color="#58CFFB"/>
</linearGradient>
<linearGradient id="paint1_linear_5038_47387" x1="8.75" y1="4.98633" x2="12.1015" y2="8.48318" gradientUnits="userSpaceOnUse">
<stop stop-color="#F0FF00"/>
<stop offset="1" stop-color="#58CFFB"/>
</linearGradient>
<linearGradient id="paint2_linear_5038_47387" x1="6.99951" y1="2.97461" x2="6.99951" y2="12.3883" gradientUnits="userSpaceOnUse">
<stop stop-color="#CCFF00"/>
<stop offset="1" stop-color="#70F6FF"/>
</linearGradient>
<clipPath id="clip0_5038_47387">
<rect width="14" height="14" fill="white" transform="translate(0 0.806641)"/>
</clipPath>
</defs>
</svg>
