<svg xmlns="http://www.w3.org/2000/svg" width="14" height="14" fill="#E89F13" viewBox="0 0 14 14"><g clip-path="url(#clip0_9436_2400)"><path d="M3.252 4.28L1.75 5.784l1.75 1.75 1.75-1.75-1.503-1.502a.35.35 0 00-.495 0z"></path><path d="M10.253 4.28L8.75 5.784l1.75 1.75 1.75-1.75-1.502-1.502a.35.35 0 00-.495 0z"></path><path d="M.488 4.516c-.117-.66.741-1.023 1.132-.478L2.9 5.819a.56.56 0 00.894.02l2.712-3.432a.63.63 0 01.989 0l2.711 3.433a.56.56 0 00.894-.02l1.28-1.782c.391-.545 1.25-.183 1.132.478l-1.056 5.911a1.4 1.4 0 01-1.378 1.154H2.922a1.4 1.4 0 01-1.378-1.154L.488 4.516z"></path></g><defs><clipPath id="clip0_9436_2400"><rect width="14" height="14"></rect></clipPath></defs></svg>