<svg width="14" height="12" viewBox="0 0 14 12" fill="none" xmlns="http://www.w3.org/2000/svg">
<path id="Vector" d="M11.7937 1.6368C11.7899 1.62937 11.7835 1.62356 11.7758 1.62039C10.8823 1.21044 9.93936 0.918106 8.97064 0.750717C8.96184 0.749081 8.95275 0.750261 8.94466 0.75409C8.93657 0.757919 8.92989 0.764202 8.92557 0.772045C8.79718 1.00508 8.68062 1.24445 8.57636 1.48923C7.53213 1.33072 6.46997 1.33072 5.42575 1.48923C5.32079 1.24383 5.20237 1.0044 5.07102 0.772045C5.06652 0.764373 5.0598 0.758234 5.05176 0.75443C5.04372 0.750626 5.03472 0.749332 5.02593 0.750717C4.05711 0.917754 3.11414 1.21011 2.22074 1.62041C2.21309 1.62365 2.20664 1.62919 2.20227 1.63626C0.415653 4.30433 -0.0737689 6.90681 0.166325 9.47706C0.167 9.48336 0.168936 9.48946 0.172016 9.49499C0.175096 9.50053 0.179258 9.50539 0.184255 9.50929C1.22459 10.2796 2.38821 10.8675 3.62547 11.2481C3.63418 11.2507 3.64348 11.2506 3.65213 11.2478C3.66077 11.2449 3.66834 11.2395 3.67382 11.2322C3.93955 10.8707 4.17502 10.4878 4.37781 10.0875C4.3806 10.082 4.38219 10.076 4.38248 10.0698C4.38277 10.0637 4.38175 10.0576 4.37949 10.0518C4.37724 10.0461 4.37379 10.0409 4.36939 10.0366C4.36498 10.0323 4.35971 10.029 4.35393 10.0269C3.98262 9.88479 3.62315 9.71352 3.2789 9.51468C3.27264 9.511 3.26739 9.50584 3.2636 9.49965C3.25982 9.49347 3.25761 9.48644 3.25718 9.4792C3.25675 9.47196 3.25811 9.46472 3.26115 9.45813C3.26418 9.45154 3.26878 9.4458 3.27456 9.44141C3.347 9.3873 3.41818 9.33153 3.48805 9.27414C3.49418 9.26909 3.5016 9.26585 3.50946 9.2648C3.51733 9.26373 3.52534 9.26489 3.53258 9.26814C5.78795 10.2974 8.22969 10.2974 10.4584 9.26814C10.4656 9.26469 10.4737 9.26337 10.4817 9.26433C10.4897 9.2653 10.4972 9.26851 10.5035 9.2736C10.5734 9.33129 10.6448 9.38725 10.7175 9.44141C10.7233 9.44576 10.7279 9.45146 10.731 9.45803C10.7341 9.46459 10.7355 9.47182 10.7351 9.47906C10.7348 9.4863 10.7326 9.49334 10.7289 9.49955C10.7251 9.50576 10.7199 9.51096 10.7137 9.51468C10.3702 9.7152 10.0104 9.88635 9.63815 10.0263C9.63236 10.0285 9.62711 10.0319 9.62273 10.0363C9.61836 10.0407 9.61495 10.0459 9.61274 10.0517C9.61052 10.0574 9.60956 10.0636 9.6099 10.0698C9.61024 10.076 9.61187 10.082 9.61471 10.0875C9.8209 10.4856 10.056 10.868 10.3182 11.2316C10.3235 11.2391 10.331 11.2447 10.3397 11.2476C10.3484 11.2506 10.3577 11.2507 10.3665 11.248C11.606 10.8688 12.7716 10.2807 13.8133 9.50929C13.8184 9.50558 13.8226 9.50084 13.8257 9.49538C13.8288 9.48991 13.8306 9.48385 13.8312 9.4776C14.1186 6.50612 13.35 3.92497 11.7937 1.6368ZM4.71463 7.91204C4.0356 7.91204 3.4761 7.28891 3.4761 6.52363C3.4761 5.75835 4.02475 5.13517 4.71463 5.13517C5.4099 5.13517 5.96399 5.76376 5.95314 6.52358C5.95314 7.28891 5.40447 7.91204 4.71463 7.91204ZM9.29385 7.91204C8.61484 7.91204 8.05534 7.28891 8.05534 6.52363C8.05534 5.75835 8.60399 5.13517 9.29385 5.13517C9.98917 5.13517 10.5432 5.76376 10.5324 6.52358C10.5324 7.28891 9.98917 7.91204 9.29385 7.91204Z" fill="#F2F2F2"/>
</svg>
