<svg width="24" height="24" viewBox="0 0 24 24" fill="none" xmlns="http://www.w3.org/2000/svg">
<g id="Group">
<rect id="Rectangle" x="3" y="3" width="18" height="18" rx="5" stroke="#828282" stroke-width="1.5" stroke-linecap="round" stroke-linejoin="round"/>
<path id="Path" fill-rule="evenodd" clip-rule="evenodd" d="M7.85688 8.63685C7.97176 8.44362 8.14657 8.29317 8.35476 8.20836C10.6931 7.26356 13.3069 7.26356 15.6453 8.20836C15.8535 8.29317 16.0283 8.44362 16.1432 8.63685C17.1986 10.4253 17.6576 12.5033 17.4537 14.5699C17.4225 14.8803 17.2464 15.1577 16.9788 15.318C16.5948 15.5457 16.1956 15.7466 15.7841 15.9194C15.307 16.1223 14.7537 15.9334 14.5003 15.4811C14.3461 15.2021 14.2047 14.9155 14.0759 14.6211C12.7084 14.9227 11.2916 14.9227 9.92417 14.6211C9.79522 14.915 9.65376 15.2016 9.49979 15.4811C9.24634 15.9334 8.69304 16.1222 8.21598 15.9194C7.80442 15.7466 7.40525 15.5457 7.02129 15.318C6.75368 15.1577 6.5776 14.8803 6.54637 14.5699C6.34247 12.5033 6.80145 10.4253 7.85688 8.63685Z" stroke="#828282" stroke-width="1.5" stroke-linecap="round" stroke-linejoin="round"/>
<path id="Path_2" d="M13.625 11.9004C13.6247 11.9694 13.5687 12.0251 13.4997 12.0249C13.4307 12.0247 13.3749 11.9687 13.375 11.8997C13.3751 11.8308 13.431 11.7749 13.5 11.7749C13.5333 11.7747 13.5653 11.7879 13.5888 11.8115C13.6122 11.8351 13.6253 11.8671 13.625 11.9004" stroke="#828282" stroke-width="1.5" stroke-linecap="round" stroke-linejoin="round"/>
<path id="Path_3" d="M10.625 11.9004C10.6247 11.9694 10.5687 12.0251 10.4997 12.0249C10.4307 12.0247 10.3749 11.9687 10.375 11.8997C10.3751 11.8308 10.431 11.7749 10.5 11.7749C10.5333 11.7747 10.5653 11.7879 10.5888 11.8115C10.6122 11.8351 10.6253 11.8671 10.625 11.9004" stroke="#828282" stroke-width="1.5" stroke-linecap="round" stroke-linejoin="round"/>
</g>
</svg>
