<svg width="15" height="15" viewBox="0 0 15 15" fill="none" xmlns="http://www.w3.org/2000/svg">
<g id="&#230;&#181;&#183;&#232;&#177;&#154;_dolphin 1">
<path id="Vector" d="M7.50001 2.18751C4.44689 0.504074 3.02689 2.69751 2.50001 3.43751C0.730015 3.81814 1.60814 4.47626 2.18751 4.68751C2.56689 4.81439 3.48314 5.10095 4.06252 5.31251C4.18908 6.32751 4.5822 7.23564 4.68751 7.50001C4.68751 7.24626 5.10189 6.36032 5.31251 5.93751C7.84126 6.95251 9.62408 9.56314 10.625 10.9375C10.2456 11.6988 9.84564 12.9088 9.68752 13.4375L11.5625 12.5L13.75 13.125C13.75 12.11 12.4547 11.0478 11.875 10.625C12.1281 6.56501 10.2219 4.12501 9.06252 3.43751C9.18908 2.93001 9.42408 2.08657 9.68752 1.87501C8.67595 1.36751 7.86876 1.92314 7.50001 2.18751Z" fill="#2E90FA"/>
<path id="Vector_2" d="M4.375 3.4375C4.37499 3.51959 4.39114 3.60087 4.42255 3.67671C4.45395 3.75255 4.49999 3.82146 4.55802 3.87951C4.61606 3.93755 4.68497 3.9836 4.7608 4.01502C4.83664 4.04643 4.91792 4.0626 5 4.0626C5.08208 4.0626 5.16336 4.04643 5.2392 4.01502C5.31503 3.9836 5.38394 3.93755 5.44198 3.87951C5.50001 3.82146 5.54605 3.75255 5.57745 3.67671C5.60886 3.60087 5.62501 3.51959 5.625 3.4375C5.62501 3.35542 5.60886 3.27414 5.57745 3.1983C5.54605 3.12246 5.50001 3.05355 5.44198 2.9955C5.38394 2.93745 5.31503 2.89141 5.2392 2.85999C5.16336 2.82858 5.08208 2.81241 5 2.81241C4.91792 2.81241 4.83664 2.82858 4.7608 2.85999C4.68497 2.89141 4.61606 2.93745 4.55802 2.9955C4.49999 3.05355 4.45395 3.12246 4.42255 3.1983C4.39114 3.27414 4.37499 3.35542 4.375 3.4375Z" fill="#2E90FA"/>
</g>
</svg>
