<svg width="12" height="13" viewBox="0 0 12 13" fill="none" xmlns="http://www.w3.org/2000/svg">
<g clip-path="url(#clip0_1514_8229)">
<path d="M2.49488 6.21361C2.49487 6.14659 2.5081 6.08024 2.53381 6.01835C2.55952 5.95646 2.5972 5.90027 2.64469 5.85299C2.69219 5.80571 2.74855 5.76828 2.81055 5.74285C2.87255 5.71742 2.93897 5.70449 3.00598 5.7048L3.85333 5.70758C3.98843 5.70758 4.11801 5.76125 4.21354 5.85678C4.30908 5.95232 4.36275 6.08189 4.36275 6.217V9.42112C4.4582 9.39284 4.58062 9.36269 4.71473 9.33122C4.80785 9.30931 4.89083 9.25659 4.95023 9.1816C5.00963 9.10662 5.04197 9.01377 5.04199 8.91811V4.94367C5.04199 4.87676 5.05516 4.8105 5.08076 4.74869C5.10636 4.68687 5.14388 4.6307 5.19119 4.58338C5.2385 4.53607 5.29466 4.49853 5.35648 4.47292C5.41829 4.44731 5.48454 4.43413 5.55145 4.43412H6.40047C6.53557 4.43415 6.66514 4.48782 6.76067 4.58335C6.8562 4.67888 6.90987 4.80845 6.9099 4.94355V8.63249C6.9099 8.63249 7.12238 8.54644 7.3295 8.45903C7.40642 8.4265 7.47205 8.37204 7.51821 8.30244C7.56437 8.23285 7.58903 8.15121 7.5891 8.0677V3.66989C7.58909 3.60299 7.60226 3.53675 7.62786 3.47495C7.65346 3.41314 7.69098 3.35698 7.73828 3.30968C7.78558 3.26237 7.84173 3.22485 7.90354 3.19925C7.96534 3.17365 8.03158 3.16047 8.09848 3.16047H8.9475C9.08261 3.16047 9.21219 3.21414 9.30773 3.30967C9.40327 3.40521 9.45695 3.53478 9.45696 3.66989V7.29125C10.193 6.7578 10.9391 6.11615 11.5311 5.34464C11.6169 5.23265 11.6738 5.10114 11.6965 4.96185C11.7192 4.82255 11.7071 4.6798 11.6612 4.54633C11.2606 3.37896 10.5093 2.36381 9.50987 1.63968C8.51046 0.915555 7.31177 0.517794 6.07771 0.500788C2.74998 0.456086 -0.000206548 3.17252 0.000120347 6.50066C-0.00314707 7.55379 0.271717 8.58911 0.796921 9.50194C0.869351 9.6268 0.975907 9.72839 1.10407 9.79478C1.23224 9.86118 1.37669 9.88962 1.52046 9.87677C1.72019 9.85898 1.91966 9.8383 2.11879 9.81474C2.22227 9.80296 2.3178 9.75354 2.38719 9.67588C2.45658 9.59823 2.49498 9.49776 2.49509 9.39362V6.21361" fill="#828282"/>
<path d="M2.47636 11.3522C3.37131 12.0032 4.42891 12.394 5.53217 12.4813C6.63543 12.5686 7.74133 12.349 8.72753 11.8468C9.71373 11.3446 10.5418 10.5793 11.1201 9.63571C11.6983 8.69211 12.0043 7.60692 12.0041 6.50022C12.0041 6.36206 11.9977 6.22546 11.9885 6.0896C9.79659 9.35853 5.7495 10.8868 2.47632 11.3523" fill="#828282"/>
</g>
<defs>
<clipPath id="clip0_1514_8229">
<rect width="12" height="12" fill="white" transform="translate(0 0.5)"/>
</clipPath>
</defs>
</svg>
