<svg width="12" height="13" viewBox="0 0 12 13" fill="none" xmlns="http://www.w3.org/2000/svg">
<g id="filter-funnel-01">
<path id="Icon" d="M1 2.8C1 2.51997 1 2.37996 1.0545 2.273C1.10243 2.17892 1.17892 2.10243 1.273 2.0545C1.37996 2 1.51997 2 1.8 2H10.2C10.48 2 10.62 2 10.727 2.0545C10.8211 2.10243 10.8976 2.17892 10.9455 2.273C11 2.37996 11 2.51997 11 2.8V3.1347C11 3.2691 11 3.33629 10.9836 3.39878C10.969 3.45415 10.9451 3.50662 10.9128 3.55388C10.8763 3.60722 10.8255 3.65123 10.7239 3.73925L7.52606 6.51075C7.42449 6.59877 7.37371 6.64278 7.33725 6.69612C7.30493 6.74338 7.28098 6.79585 7.26642 6.85122C7.25 6.91371 7.25 6.9809 7.25 7.1153V9.72919C7.25 9.82697 7.25 9.87586 7.23423 9.91813C7.22029 9.95548 7.19763 9.98895 7.16813 10.0158C7.13474 10.0461 7.08934 10.0643 6.99856 10.1006L5.29856 10.7806C5.11478 10.8541 5.0229 10.8908 4.94914 10.8755C4.88463 10.8621 4.82803 10.8238 4.79163 10.7689C4.75 10.7061 4.75 10.6071 4.75 10.4092V7.1153C4.75 6.9809 4.75 6.91371 4.73358 6.85122C4.71902 6.79585 4.69507 6.74338 4.66275 6.69612C4.62629 6.64278 4.57551 6.59877 4.47394 6.51075L1.27606 3.73925C1.17449 3.65123 1.12371 3.60722 1.08725 3.55388C1.05493 3.50662 1.03098 3.45415 1.01642 3.39878C1 3.33629 1 3.2691 1 3.1347V2.8Z" stroke="#828282" stroke-linecap="round" stroke-linejoin="round"/>
</g>
</svg>
