<svg width="15" height="15" viewBox="0 0 15 15" fill="none" xmlns="http://www.w3.org/2000/svg">
<g id="filter-funnel-01">
<path id="Icon" d="M1.25 2.875C1.25 2.52497 1.25 2.34995 1.31812 2.21626C1.37804 2.09865 1.47365 2.00304 1.59126 1.94312C1.72495 1.875 1.89997 1.875 2.25 1.875H12.75C13.1 1.875 13.275 1.875 13.4087 1.94312C13.5263 2.00304 13.622 2.09865 13.6819 2.21626C13.75 2.34995 13.75 2.52497 13.75 2.875V3.29337C13.75 3.46137 13.75 3.54537 13.7295 3.62348C13.7113 3.69269 13.6813 3.75827 13.6409 3.81735C13.5954 3.88402 13.5319 3.93903 13.4049 4.04906L9.40757 7.51344C9.28062 7.62347 9.21714 7.67848 9.17156 7.74515C9.13117 7.80423 9.10122 7.86981 9.08303 7.93902C9.0625 8.01713 9.0625 8.10113 9.0625 8.26913V11.5365C9.0625 11.6587 9.0625 11.7198 9.04279 11.7727C9.02537 11.8193 8.99704 11.8612 8.96016 11.8947C8.91842 11.9326 8.86168 11.9553 8.7482 12.0007L6.6232 12.8507C6.39348 12.9426 6.27862 12.9886 6.18642 12.9694C6.10579 12.9526 6.03503 12.9047 5.98953 12.8361C5.9375 12.7576 5.9375 12.6339 5.9375 12.3865V8.26913C5.9375 8.10113 5.9375 8.01713 5.91697 7.93902C5.89878 7.86981 5.86883 7.80423 5.82844 7.74515C5.78286 7.67848 5.71938 7.62347 5.59243 7.51344L1.59507 4.04906C1.46812 3.93903 1.40464 3.88402 1.35906 3.81735C1.31867 3.75827 1.28872 3.69269 1.27053 3.62348C1.25 3.54537 1.25 3.46137 1.25 3.29337V2.875Z" stroke="#E0E0E0" stroke-linecap="round" stroke-linejoin="round"/>
</g>
</svg>
