<svg width="13" height="14" viewBox="0 0 13 14" fill="none" xmlns="http://www.w3.org/2000/svg">
<path d="M8.23387 13.4991C8.17088 13.5011 8.10854 13.486 8.0535 13.4553C7.99971 13.4254 7.95548 13.3809 7.92594 13.3269C7.91296 13.299 7.90577 13.2688 7.90479 13.2381C7.90381 13.2074 7.90907 13.1768 7.92025 13.1481C7.94378 13.089 7.98958 13.0414 8.04781 13.0157C8.5991 12.6984 9.06113 12.2467 9.39087 11.7027C9.71587 11.1648 9.89137 10.5571 9.90275 9.93633C9.91169 8.91421 9.46806 7.36721 7.39944 5.62114C7.4248 7.06139 7.04775 8.48015 6.31069 9.71777C6.27102 9.77277 6.21627 9.8151 6.15306 9.83964C6.08836 9.86448 6.01798 9.87068 5.94994 9.85752C5.88414 9.85146 5.82204 9.8244 5.77281 9.78033C5.72447 9.73741 5.69234 9.67918 5.68181 9.61539C5.59587 9.01525 5.3146 8.46014 4.8815 8.03589C4.72768 8.43054 4.54688 8.81414 4.34037 9.18396C3.96495 9.76771 3.76034 10.4449 3.74969 11.1388C3.74969 11.7848 4.39887 12.5371 5.02775 12.9369C5.0765 12.9564 5.11956 12.9897 5.14962 13.032C5.17965 13.0735 5.19662 13.123 5.19837 13.1741C5.19381 13.2121 5.18177 13.2489 5.16294 13.2822C5.14411 13.3155 5.11888 13.3448 5.08869 13.3683C5.02546 13.4169 4.94633 13.4401 4.86687 13.4333H4.85712C4.82097 13.4336 4.78493 13.4292 4.74987 13.4203C2.21244 12.7232 0.8125 11.3021 0.8125 9.42039C0.8125 7.82302 1.72981 6.53602 2.69587 5.17508C3.74764 3.84491 4.54329 2.33103 5.04237 0.710393C5.05797 0.661363 5.08628 0.617346 5.12444 0.582831C5.16355 0.547162 5.21108 0.522001 5.26256 0.509706C5.3182 0.496009 5.37613 0.494359 5.43246 0.504869C5.48879 0.515378 5.54223 0.537804 5.58919 0.570643C10.1855 3.96283 12.5125 6.26221 12.5125 9.39277C12.5125 11.4508 10.6925 13.2156 8.28262 13.4991H8.23387Z" fill="#EA3943"/>
</svg>
