<svg width="13" height="13" viewBox="0 0 13 13" fill="none" xmlns="http://www.w3.org/2000/svg">
<g id="SVG">
<g id="Clip path group">
<mask id="mask0_5641_35434" style="mask-type:luminance" maskUnits="userSpaceOnUse" x="0" y="0" width="13" height="13">
<g id="clip0_8426_2251">
<path id="Vector" d="M12.5 0.5H0.5V12.5H12.5V0.5Z" fill="white"/>
</g>
</mask>
<g mask="url(#mask0_5641_35434)">
<g id="Group">
<path id="Vector_2" d="M4.99 12.5C4.91406 11.3341 4.41663 10.2357 3.59048 9.40952C2.76433 8.58337 1.66588 8.08594 0.5 8.01L0.5 7.99C1.66588 7.91406 2.76433 7.41663 3.59048 6.59048C4.41663 5.76433 4.91406 4.66588 4.99 3.5H5.01C5.08594 4.66588 5.58337 5.76433 6.40952 6.59048C7.23567 7.41663 8.33412 7.91406 9.5 7.99V8.01C8.33412 8.08594 7.23567 8.58337 6.40952 9.40952C5.58337 10.2357 5.08594 11.3341 5.01 12.5H4.99Z" fill="#FFD039"/>
<path id="Vector_3" d="M9.87 5.75C9.82579 5.06965 9.53556 4.42863 9.05347 3.94653C8.57137 3.46444 7.93035 3.17421 7.25 3.13V3.12C7.93035 3.07579 8.57137 2.78556 9.05347 2.30347C9.53556 1.82137 9.82579 1.18035 9.87 0.5L9.88 0.5C9.92421 1.18035 10.2144 1.82137 10.6965 2.30347C11.1786 2.78556 11.8197 3.07579 12.5 3.12V3.13C11.8197 3.17421 11.1786 3.46444 10.6965 3.94653C10.2144 4.42863 9.92421 5.06965 9.88 5.75H9.87Z" fill="#FFD039"/>
</g>
</g>
</g>
</g>
</svg>
