<svg width="12px" height="12px" viewBox="0 0 16 16" xmlns="http://www.w3.org/2000/svg" fill="#F04866" color="#F04866"><path d="M10.7572 1.14429C9.68279 1.14429 8.7079 1.54683 7.89501 2.31776C7.07787 1.53833 6.11871 1.14429 5.03339 1.14429C2.44151 1.14429 0.332825 3.40194 0.332825 6.17696C0.332825 7.80202 1.05769 8.93241 1.58922 9.76131C2.83343 11.7183 5.4083 13.7488 6.83252 14.7849L6.89857 14.8331C7.18205 15.0535 7.52365 15.1703 7.88679 15.1703C8.22881 15.1703 8.56275 15.0593 8.85261 14.8498L8.87118 14.8361C8.88295 14.8271 8.90619 14.8101 8.93979 14.7858C10.3636 13.7475 12.9393 11.7145 14.1951 9.75762C14.7242 8.93226 15.4491 7.80202 15.4491 6.17681C15.449 3.40194 13.3443 1.14429 10.7572 1.14429Z"></path></svg>