<svg width="29" height="28" viewBox="0 0 29 28" fill="none" xmlns="http://www.w3.org/2000/svg">
<g id="book-closed">
<path id="Icon" d="M23.8333 22.1667V18.6667H8.66666C6.73366 18.6667 5.16666 20.2337 5.16666 22.1667M10.7667 25.6667H20.1C21.4068 25.6667 22.0602 25.6667 22.5593 25.4123C22.9983 25.1886 23.3553 24.8317 23.579 24.3926C23.8333 23.8935 23.8333 23.2401 23.8333 21.9333V6.06666C23.8333 4.75987 23.8333 4.10648 23.579 3.60735C23.3553 3.16831 22.9983 2.81135 22.5593 2.58765C22.0602 2.33333 21.4068 2.33333 20.1 2.33333H10.7667C8.80647 2.33333 7.82638 2.33333 7.07769 2.71481C6.41912 3.05036 5.88369 3.58579 5.54813 4.24436C5.16666 4.99305 5.16666 5.97314 5.16666 7.93333V20.0667C5.16666 22.0268 5.16666 23.0069 5.54813 23.7556C5.88369 24.4142 6.41912 24.9496 7.07769 25.2852C7.82638 25.6667 8.80647 25.6667 10.7667 25.6667Z" stroke="#3F3F3F" stroke-width="1.5" stroke-linecap="round" stroke-linejoin="round"/>
</g>
</svg>
