<svg width="22" height="22" viewBox="0 0 22 22" fill="none" xmlns="http://www.w3.org/2000/svg">
<g id="create_wallet" clip-path="url(#clip0_2154_5459)">
<path id="Vector" d="M9.77407 19.7996H3.29021C1.85194 19.7996 0.686615 18.6616 0.686615 17.2577V7.4846C0.686615 6.08079 1.85195 4.94272 3.29021 4.94272H17.8793C19.3176 4.94272 20.4829 6.08079 20.4829 7.4846V10.5962" stroke="#3F3F3F" stroke-width="1.4149" stroke-linecap="round"/>
<path id="Vector_2" d="M16.3082 21.3116C19.0725 21.3116 21.3134 19.1238 21.3134 16.425C21.3134 13.7263 19.0725 11.5385 16.3082 11.5385C13.5439 11.5385 11.303 13.7263 11.303 16.425C11.303 19.1238 13.5439 21.3116 16.3082 21.3116Z" stroke="#3F3F3F" stroke-width="1.41487"/>
<path id="Vector_3" d="M16.7571 14.4529H15.8144V19.2299H16.7571V14.4529Z" fill="#3F3F3F"/>
<path id="Vector_4" d="M18.7323 16.425H13.8393V17.3454H18.7323V16.425Z" fill="#3F3F3F"/>
<path id="Vector_5" fill-rule="evenodd" clip-rule="evenodd" d="M17.3694 4.94271L16.1322 2.84943C15.2883 1.42404 13.4227 0.935644 11.9629 1.75869L6.31395 4.94271H3.53079L11.2662 0.58206C13.3922 -0.616135 16.1107 0.094888 17.3371 2.17013L18.9764 4.94271H17.3694Z" fill="#3F3F3F"/>
</g>
<defs>
<clipPath id="clip0_2154_5459">
<rect width="22" height="22" fill="white"/>
</clipPath>
</defs>
</svg>
