<svg width="25" height="25" viewBox="0 0 25 25" fill="none" xmlns="http://www.w3.org/2000/svg">
<path d="M24.1655 8.16785L12.6184 0.121948C12.5037 0.0414482 12.3669 0 12.2266 0C12.0862 0 11.9491 0.0414382 11.8345 0.121948L0.287109 8.16785C0.198399 8.22882 0.126092 8.31171 0.0761719 8.40686C0.0262519 8.50201 0 8.60682 0 8.71423V23.4647C0 23.5525 0.0176478 23.6379 0.0517578 23.7208C0.0858578 23.8013 0.135965 23.8744 0.198975 23.9379C0.261985 24.0012 0.336904 24.05 0.419434 24.0842C0.501724 24.1159 0.590233 24.1355 0.679443 24.1355H8.15088C8.33102 24.1355 8.50384 24.0647 8.63135 23.9379C8.75861 23.811 8.83032 23.6428 8.83032 23.4647V15.4187H15.6228V23.4647C15.6228 23.6428 15.6943 23.811 15.8218 23.9379C15.949 24.0647 16.1219 24.1355 16.302 24.1355H23.7737C23.9538 24.1355 24.1266 24.0647 24.2542 23.9379C24.3814 23.811 24.4529 23.6428 24.4529 23.4647V8.71423C24.4529 8.60681 24.4269 8.50201 24.377 8.40686C24.3268 8.31171 24.2542 8.22882 24.1655 8.16785Z" fill="#202020"/>
</svg>
