<svg width="27" height="27" viewBox="0 0 27 27" fill="none" xmlns="http://www.w3.org/2000/svg">
<path d="M13.4697 0.00012207C16.1336 0.00012207 18.7382 0.780485 20.9548 2.24146C23.1689 3.69993 24.8962 5.77788 25.9143 8.20703C26.9349 10.6362 27.2016 13.3092 26.6802 15.8871C26.1613 18.4675 24.8788 20.8356 22.9958 22.6941C21.1104 24.555 18.7111 25.8207 16.0967 26.3329C13.4847 26.8475 10.7764 26.5843 8.31519 25.5769C5.85399 24.5722 3.75093 22.8672 2.27075 20.6794C0.790542 18.4942 0 15.9237 0 13.2946C0 9.7679 1.41837 6.38758 3.94629 3.89258C6.47177 1.39996 9.89654 0.00012207 13.4697 0.00012207ZM18.1897 6.94116L11.3447 9.38013C10.9271 9.52887 10.5441 9.76783 10.2302 10.08C9.91391 10.3922 9.67173 10.7678 9.521 11.1824L7.03271 17.9382C6.94623 18.1747 6.92877 18.4333 6.9856 18.6797C7.03996 18.926 7.16605 19.1503 7.34644 19.3285C7.5293 19.5089 7.75652 19.6308 8.0061 19.6869C8.25568 19.7406 8.51513 19.726 8.75732 19.6381L15.6099 17.209C16.0299 17.0579 16.4105 16.8188 16.7268 16.509C17.0431 16.1968 17.2828 15.8212 17.436 15.4066L19.8972 8.64355C19.9862 8.40454 20.0009 8.14837 19.9465 7.9021C19.8897 7.65571 19.7661 7.4314 19.5833 7.25098C19.4029 7.07294 19.1756 6.94849 18.926 6.89478C18.6764 6.83869 18.4145 6.85578 18.1748 6.94116H18.1897ZM13.4697 14.9554C13.8033 14.9603 14.1297 14.8651 14.4089 14.6847C14.6882 14.5018 14.9079 14.2457 15.0364 13.9408C15.1674 13.6384 15.2019 13.3043 15.1377 12.9799C15.0759 12.6555 14.9179 12.358 14.6807 12.1239C14.4459 11.8898 14.147 11.7311 13.8208 11.6653C13.4921 11.5994 13.1536 11.6312 12.8447 11.7581C12.5358 11.8824 12.2713 12.0969 12.0859 12.3701C11.9006 12.6433 11.8018 12.9653 11.8018 13.2946C11.8018 13.736 11.9798 14.158 12.2961 14.4701C12.61 14.7823 13.0398 14.9554 13.4846 14.9554H13.4697Z" fill="#202020"/>
</svg>
