<svg width="28" height="28" viewBox="0 0 28 28" fill="none" xmlns="http://www.w3.org/2000/svg">
<path d="M14 8.63693C14 8.63693 9.38259 1.77028 6.30272 3.98631C6.30272 3.98631 3.69414 6.08648 8.10865 8.63691L14 8.63693Z" stroke="#3F3F3F" stroke-width="1.3" stroke-linejoin="round"/>
<path d="M14 8.63693C14 8.63693 18.6174 1.77028 21.6973 3.98631C21.6973 3.98631 24.3059 6.08648 19.8914 8.63691L14 8.63693Z" stroke="#3F3F3F" stroke-width="1.3" stroke-linejoin="round"/>
<path d="M24.234 8.63693H3.76593C3.10123 8.63693 2.56238 9.15993 2.56238 9.80507V11.7505C2.56238 12.3956 3.10123 12.9186 3.76593 12.9186H24.234C24.8987 12.9186 25.4376 12.3956 25.4376 11.7505V9.80507C25.4376 9.15993 24.8987 8.63693 24.234 8.63693Z" stroke="#3F3F3F" stroke-width="1.3" stroke-miterlimit="10"/>
<path d="M23.9251 12.9186V23.3158C23.9251 23.9445 23.3996 24.4541 22.7514 24.4541H5.24859C4.60038 24.4541 4.07489 23.9445 4.07489 23.3158V12.9186" stroke="#3F3F3F" stroke-width="1.3" stroke-miterlimit="10"/>
<path d="M14 7.17426V12.6237" stroke="#3F3F3F" stroke-width="1.3" stroke-miterlimit="10"/>
</svg>
