<svg width="25" height="25" viewBox="0 0 25 25" fill="none" xmlns="http://www.w3.org/2000/svg">
<path d="M0 1.84143C0 1.22194 0.502557 0.719479 1.12305 0.719479H9.00903C9.62926 0.719479 10.1318 1.22194 10.1318 1.84143V9.724C10.1318 10.3435 9.62952 10.8458 9.00903 10.8458H1.12305C0.502797 10.8458 0 10.3435 0 9.724V1.84143ZM16.9597 0.32922C17.3983 -0.10974 18.109 -0.10974 18.5479 0.32922L24.1243 5.90222C24.5626 6.33879 24.5629 7.05092 24.1243 7.48999L18.5479 13.0604C18.1092 13.4994 17.3986 13.4994 16.9597 13.0604L11.3835 7.48999C10.9452 7.05091 10.9447 6.34129 11.3835 5.90222L16.9597 0.32922ZM12.8909 15.131C12.8909 14.5116 13.3932 14.0092 14.0139 14.0092H21.8997C22.5199 14.0092 23.0225 14.5116 23.0225 15.131V23.0111C23.0225 23.6306 22.5204 24.1356 21.8997 24.1356H14.0139C13.3937 24.1356 12.8909 23.6331 12.8909 23.0111V15.131ZM0 15.131C0 14.5116 0.502557 14.0092 1.12305 14.0092H9.00903C9.62926 14.0092 10.1318 14.5116 10.1318 15.131V23.0111C10.1318 23.6306 9.62952 24.1356 9.00903 24.1356H1.12305C0.502797 24.1356 0 23.6331 0 23.0111V15.131Z" fill="#202020"/>
</svg>
