<svg width="23" height="22" viewBox="0 0 23 22" fill="none" xmlns="http://www.w3.org/2000/svg">
<g id="service" clip-path="url(#clip0_2154_5457)">
<path id="Vector" d="M20.4171 9.11709C20.4171 4.08989 15.9496 0 10.4582 0C4.96742 0 0.5 4.08989 0.5 9.11709C0.5 11.9274 1.92752 14.5951 4.33516 16.3144V18.2649C4.33516 18.8353 4.64874 19.3735 5.1247 19.6303C5.34788 19.7568 5.59908 19.8236 5.85025 19.8236C6.1516 19.8236 6.44278 19.7333 6.65675 19.5781L7.80668 18.7918C7.83248 18.7749 7.8703 18.7498 7.91283 18.713L8.80027 18.1034C9.35716 18.1904 9.91418 18.2343 10.4581 18.2343C15.9496 18.2343 20.4171 14.1444 20.4171 9.11709ZM10.4584 16.9031C9.91538 16.9031 9.35694 16.853 8.79861 16.7541C8.65708 16.7293 8.51175 16.7612 8.39182 16.8433L7.30599 17.5899C7.284 17.6049 7.2631 17.6216 7.24359 17.6399C7.2442 17.639 7.2442 17.6384 7.2442 17.6384C7.24314 17.6384 7.23586 17.6435 7.21877 17.6546L6.09597 18.4231C6.05852 18.4495 5.90354 18.4924 5.75809 18.4101C5.65446 18.3536 5.58173 18.2281 5.58173 18.1043V15.8777C5.58185 15.6782 5.48392 15.4924 5.32206 15.3847C3.12946 13.9247 1.82029 11.5873 1.82029 9.13235C1.82028 4.84782 5.69522 1.36174 10.4581 1.36174C15.2217 1.36174 19.0967 4.84782 19.0967 9.13237C19.0967 13.4169 15.2217 16.9031 10.4584 16.9031ZM7.04265 7.95284C6.5069 7.95284 6.06992 8.40436 6.06992 8.95785C6.06992 9.51131 6.50689 9.96282 7.04265 9.96282C7.57813 9.96282 8.01512 9.51131 8.01512 8.95785C8.01512 8.40436 7.57812 7.95284 7.04265 7.95284ZM10.6773 7.95284C10.1418 7.95284 9.70469 8.40436 9.70469 8.95785C9.70469 9.51131 10.1418 9.96282 10.6773 9.96282C11.213 9.96282 11.65 9.51131 11.65 8.95785C11.65 8.40436 11.213 7.95284 10.6773 7.95284ZM14.312 7.95284C13.7765 7.95284 13.3394 8.40436 13.3394 8.95785C13.3394 9.51131 13.7765 9.96282 14.312 9.96282C14.8477 9.96282 15.2847 9.51131 15.2847 8.95785C15.2847 8.40436 14.8477 7.95284 14.312 7.95284ZM22.3304 12.2432C22.2283 11.8091 22.0772 11.3736 21.8798 10.949C21.742 10.6524 21.4012 10.529 21.1168 10.6728C20.8328 10.8167 20.7147 11.1743 20.8524 11.4709C21.0141 11.8198 21.1385 12.175 21.2204 12.5259C21.3115 12.9194 21.3578 13.3349 21.3578 13.7613C21.3578 15.5745 20.4112 17.322 18.8256 18.4354C18.6676 18.5465 18.5729 18.7322 18.5729 18.9311V20.4542C18.5729 20.5781 18.5137 20.6919 18.4127 20.766C18.236 20.8255 18.1205 20.8179 18.014 20.743L17.2058 20.1876C17.1846 20.1675 17.1621 20.1489 17.1384 20.1322L16.4356 19.6378C16.3153 19.5533 16.1688 19.5197 16.0256 19.5437C14.431 19.8129 12.8749 19.5541 11.5263 18.7967C11.3928 18.7214 11.2362 18.7048 11.0911 18.7505C10.9458 18.7963 10.8241 18.9006 10.7525 19.0402C10.6031 19.3308 10.7075 19.6929 10.9852 19.849C12.4934 20.6956 14.2158 21.0085 15.9816 20.758L16.4395 21.0806C16.4975 21.1383 16.5555 21.1755 16.5957 21.1982L17.3838 21.7393C17.6281 21.9097 17.9142 22 18.2114 22C18.4156 22 18.6258 21.9572 18.8545 21.8701C18.8838 21.859 18.9122 21.8452 18.9393 21.8291C19.4179 21.5466 19.7151 21.02 19.7151 20.4542V19.2414C21.4648 17.9002 22.5 15.8734 22.5 13.7612C22.5002 13.2404 22.4432 12.7301 22.3304 12.2432Z" fill="#3F3F3F"/>
</g>
<defs>
<clipPath id="clip0_2154_5457">
<rect width="22" height="22" fill="white" transform="translate(0.5)"/>
</clipPath>
</defs>
</svg>
