<svg width="22" height="22" viewBox="0 0 22 22" fill="none" xmlns="http://www.w3.org/2000/svg">
<g id="settings-01">
<g id="Icon">
<path d="M11 13.75C12.5188 13.75 13.75 12.5188 13.75 11C13.75 9.48123 12.5188 8.25001 11 8.25001C9.4812 8.25001 8.24998 9.48123 8.24998 11C8.24998 12.5188 9.4812 13.75 11 13.75Z" stroke="#3F3F3F" stroke-width="1.5" stroke-linecap="round" stroke-linejoin="round"/>
<path d="M17.1666 13.5C17.0557 13.7514 17.0226 14.0302 17.0716 14.3005C17.1207 14.5708 17.2495 14.8203 17.4416 15.0167L17.4916 15.0667C17.6466 15.2215 17.7695 15.4053 17.8534 15.6076C17.9373 15.8099 17.9805 16.0268 17.9805 16.2458C17.9805 16.4649 17.9373 16.6817 17.8534 16.8841C17.7695 17.0864 17.6466 17.2702 17.4916 17.425C17.3369 17.58 17.153 17.7029 16.9507 17.7868C16.7484 17.8707 16.5315 17.9138 16.3125 17.9138C16.0935 17.9138 15.8766 17.8707 15.6742 17.7868C15.4719 17.7029 15.2881 17.58 15.1333 17.425L15.0833 17.375C14.8869 17.1829 14.6375 17.054 14.3671 17.005C14.0968 16.956 13.818 16.9891 13.5666 17.1C13.3202 17.2056 13.11 17.381 12.9619 17.6046C12.8138 17.8282 12.7344 18.0902 12.7333 18.3583V18.5C12.7333 18.942 12.5577 19.366 12.2452 19.6785C11.9326 19.9911 11.5087 20.1667 11.0666 20.1667C10.6246 20.1667 10.2007 19.9911 9.88813 19.6785C9.57557 19.366 9.39998 18.942 9.39998 18.5V18.425C9.39353 18.1492 9.30425 17.8817 9.14374 17.6573C8.98323 17.4328 8.75893 17.2619 8.49998 17.1667C8.24863 17.0557 7.96982 17.0227 7.69949 17.0717C7.42916 17.1207 7.17971 17.2496 6.98331 17.4417L6.93331 17.4917C6.77852 17.6466 6.59471 17.7696 6.39238 17.8534C6.19005 17.9373 5.97317 17.9805 5.75415 17.9805C5.53512 17.9805 5.31824 17.9373 5.11591 17.8534C4.91358 17.7696 4.72977 17.6466 4.57498 17.4917C4.42002 17.3369 4.29709 17.1531 4.21321 16.9507C4.12934 16.7484 4.08617 16.5315 4.08617 16.3125C4.08617 16.0935 4.12934 15.8766 4.21321 15.6743C4.29709 15.4719 4.42002 15.2881 4.57498 15.1333L4.62498 15.0833C4.81709 14.8869 4.94597 14.6375 4.99498 14.3672C5.044 14.0968 5.01091 13.818 4.89998 13.5667C4.79434 13.3202 4.61894 13.11 4.39537 12.9619C4.17179 12.8139 3.9098 12.7344 3.64165 12.7333H3.49998C3.05795 12.7333 2.63403 12.5577 2.32147 12.2452C2.00891 11.9326 1.83331 11.5087 1.83331 11.0667C1.83331 10.6246 2.00891 10.2007 2.32147 9.88817C2.63403 9.5756 3.05795 9.40001 3.49998 9.40001H3.57498C3.85081 9.39356 4.11832 9.30428 4.34273 9.14377C4.56714 8.98326 4.73808 8.75896 4.83331 8.50001C4.94424 8.24866 4.97733 7.96985 4.92832 7.69952C4.8793 7.42919 4.75043 7.17974 4.55831 6.98334L4.50831 6.93334C4.35335 6.77855 4.23042 6.59474 4.14655 6.39241C4.06267 6.19008 4.0195 5.9732 4.0195 5.75418C4.0195 5.53515 4.06267 5.31827 4.14655 5.11594C4.23042 4.91361 4.35335 4.7298 4.50831 4.57501C4.6631 4.42005 4.84692 4.29712 5.04925 4.21324C5.25158 4.12937 5.46845 4.0862 5.68748 4.0862C5.90651 4.0862 6.12338 4.12937 6.32571 4.21324C6.52804 4.29712 6.71186 4.42005 6.86665 4.57501L6.91665 4.62501C7.11305 4.81712 7.36249 4.946 7.63282 4.99501C7.90315 5.04403 8.18197 5.01094 8.43331 4.90001H8.49998C8.74645 4.79437 8.95666 4.61897 9.10472 4.3954C9.25279 4.17182 9.33224 3.90983 9.33331 3.64168V3.50001C9.33331 3.05798 9.50891 2.63406 9.82147 2.3215C10.134 2.00894 10.558 1.83334 11 1.83334C11.442 1.83334 11.8659 2.00894 12.1785 2.3215C12.4911 2.63406 12.6666 3.05798 12.6666 3.50001V3.57501C12.6677 3.84317 12.7472 4.10516 12.8952 4.32873C13.0433 4.55231 13.2535 4.72771 13.5 4.83334C13.7513 4.94427 14.0301 4.97736 14.3005 4.92835C14.5708 4.87933 14.8202 4.75046 15.0166 4.55834L15.0666 4.50834C15.2214 4.35338 15.4052 4.23045 15.6076 4.14658C15.8099 4.0627 16.0268 4.01953 16.2458 4.01953C16.4648 4.01953 16.6817 4.0627 16.884 4.14658C17.0864 4.23045 17.2702 4.35338 17.425 4.50834C17.5799 4.66313 17.7029 4.84695 17.7867 5.04928C17.8706 5.25161 17.9138 5.46848 17.9138 5.68751C17.9138 5.90654 17.8706 6.12341 17.7867 6.32574C17.7029 6.52807 17.5799 6.71189 17.425 6.86668L17.375 6.91668C17.1829 7.11308 17.054 7.36252 17.005 7.63285C16.956 7.90318 16.989 8.182 17.1 8.43334V8.50001C17.2056 8.74648 17.381 8.95669 17.6046 9.10475C17.8282 9.25282 18.0902 9.33227 18.3583 9.33334H18.5C18.942 9.33334 19.3659 9.50894 19.6785 9.8215C19.9911 10.1341 20.1666 10.558 20.1666 11C20.1666 11.442 19.9911 11.866 19.6785 12.1785C19.3659 12.4911 18.942 12.6667 18.5 12.6667H18.425C18.1568 12.6677 17.8948 12.7472 17.6713 12.8953C17.4477 13.0433 17.2723 13.2535 17.1666 13.5Z" stroke="#3F3F3F" stroke-width="1.5" stroke-linecap="round" stroke-linejoin="round"/>
</g>
</g>
</svg>
