<svg width="29" height="28" viewBox="0 0 29 28" fill="none" xmlns="http://www.w3.org/2000/svg">
<g id="shield-tick">
<path id="Icon" d="M10.75 13.4167L13.0834 15.75L18.3334 10.5M23.5834 14C23.5834 19.7265 17.3371 23.8915 15.0643 25.2174C14.8061 25.368 14.6769 25.4434 14.4946 25.4825C14.3532 25.5128 14.1468 25.5128 14.0054 25.4825C13.8231 25.4434 13.694 25.368 13.4357 25.2174C11.163 23.8915 4.91669 19.7265 4.91669 14V8.42054C4.91669 7.48778 4.91669 7.0214 5.06924 6.6205C5.20401 6.26634 5.423 5.95033 5.70729 5.69979C6.0291 5.41619 6.46579 5.25243 7.33916 4.92491L13.5946 2.57913C13.8371 2.48817 13.9584 2.4427 14.0832 2.42467C14.1938 2.40868 14.3062 2.40868 14.4169 2.42467C14.5416 2.4427 14.6629 2.48817 14.9055 2.57913L21.1609 4.92491C22.0343 5.25243 22.4709 5.41619 22.7928 5.69979C23.077 5.95033 23.296 6.26634 23.4308 6.6205C23.5834 7.0214 23.5834 7.48778 23.5834 8.42054V14Z" stroke="#3F3F3F" stroke-width="1.5" stroke-linecap="round" stroke-linejoin="round"/>
</g>
</svg>
