<svg width="29" height="28" viewBox="0 0 29 28" fill="none" xmlns="http://www.w3.org/2000/svg">
<g id="target-03">
<path id="Icon" d="M26.1666 14H21.5M7.49998 14H2.83331M14.5 6.99999V2.33333M14.5 25.6667V21M23.8333 14C23.8333 19.1547 19.6546 23.3333 14.5 23.3333C9.34532 23.3333 5.16665 19.1547 5.16665 14C5.16665 8.84534 9.34532 4.66666 14.5 4.66666C19.6546 4.66666 23.8333 8.84534 23.8333 14ZM18 14C18 15.933 16.433 17.5 14.5 17.5C12.567 17.5 11 15.933 11 14C11 12.067 12.567 10.5 14.5 10.5C16.433 10.5 18 12.067 18 14Z" stroke="#3F3F3F" stroke-width="1.5" stroke-linecap="round" stroke-linejoin="round"/>
</g>
</svg>
