<svg width="29" height="28" viewBox="0 0 29 28" fill="none" xmlns="http://www.w3.org/2000/svg">
<mask id="path-1-inside-1_2154_5270" fill="white">
<path fill-rule="evenodd" clip-rule="evenodd" d="M15 10.1674L3.5 4V6.03017L13.1072 11.1825L10.5 12.5807V14.4193L13.1072 15.8175L3.5 20.9698V23L15 16.8326L26.5 23V20.9698L16.8928 15.8175L19.5 14.4193V12.5807L16.8928 11.1825L26.5 6.03017V4L15 10.1674ZM15 12.1975L12.5714 13.5L15 14.8024L17.4286 13.5L15 12.1975Z"/>
</mask>
<path fill-rule="evenodd" clip-rule="evenodd" d="M15 10.1674L3.5 4V6.03017L13.1072 11.1825L10.5 12.5807V14.4193L13.1072 15.8175L3.5 20.9698V23L15 16.8326L26.5 23V20.9698L16.8928 15.8175L19.5 14.4193V12.5807L16.8928 11.1825L26.5 6.03017V4L15 10.1674ZM15 12.1975L12.5714 13.5L15 14.8024L17.4286 13.5L15 12.1975Z" fill="#3F3F3F"/>
<path d="M3.5 4L3.59452 3.82375L3.3 3.6658V4H3.5ZM15 10.1674L14.9055 10.3436L15 10.3943L15.0945 10.3436L15 10.1674ZM3.5 6.03017H3.3V6.14986L3.40548 6.20642L3.5 6.03017ZM13.1072 11.1825L13.2017 11.3587L13.5304 11.1825L13.2017 11.0062L13.1072 11.1825ZM10.5 12.5807L10.4055 12.4044L10.3 12.461V12.5807H10.5ZM10.5 14.4193H10.3V14.539L10.4055 14.5956L10.5 14.4193ZM13.1072 15.8175L13.2017 15.9938L13.5304 15.8175L13.2017 15.6413L13.1072 15.8175ZM3.5 20.9698L3.40548 20.7936L3.3 20.8501V20.9698H3.5ZM3.5 23H3.3V23.3342L3.59452 23.1763L3.5 23ZM15 16.8326L15.0945 16.6564L15 16.6057L14.9055 16.6564L15 16.8326ZM26.5 23L26.4055 23.1763L26.7 23.3342V23H26.5ZM26.5 20.9698H26.7V20.8501L26.5945 20.7936L26.5 20.9698ZM16.8928 15.8175L16.7983 15.6413L16.4696 15.8175L16.7983 15.9938L16.8928 15.8175ZM19.5 14.4193L19.5945 14.5956L19.7 14.539V14.4193H19.5ZM19.5 12.5807H19.7V12.461L19.5945 12.4044L19.5 12.5807ZM16.8928 11.1825L16.7983 11.0062L16.4696 11.1825L16.7983 11.3587L16.8928 11.1825ZM26.5 6.03017L26.5945 6.20642L26.7 6.14986V6.03017H26.5ZM26.5 4H26.7V3.6658L26.4055 3.82375L26.5 4ZM12.5714 13.5L12.4769 13.3237L12.1482 13.5L12.4769 13.6762L12.5714 13.5ZM15 12.1975L15.0945 12.0213L15 11.9706L14.9055 12.0213L15 12.1975ZM15 14.8024L14.9055 14.9787L15 15.0294L15.0945 14.9787L15 14.8024ZM17.4286 13.5L17.5231 13.6762L17.8518 13.5L17.5231 13.3237L17.4286 13.5ZM3.40548 4.17625L14.9055 10.3436L15.0945 9.99112L3.59452 3.82375L3.40548 4.17625ZM3.7 6.03017V4H3.3V6.03017H3.7ZM13.2017 11.0062L3.59452 5.85392L3.40548 6.20642L13.0127 11.3587L13.2017 11.0062ZM13.0127 11.0062L10.4055 12.4044L10.5945 12.7569L13.2017 11.3587L13.0127 11.0062ZM10.3 12.5807V14.4193H10.7V12.5807H10.3ZM10.4055 14.5956L13.0127 15.9938L13.2017 15.6413L10.5945 14.243L10.4055 14.5956ZM3.59452 21.1461L13.2017 15.9938L13.0127 15.6413L3.40548 20.7936L3.59452 21.1461ZM3.7 23V20.9698H3.3V23H3.7ZM14.9055 16.6564L3.40548 22.8237L3.59452 23.1763L15.0945 17.0089L14.9055 16.6564ZM14.9055 17.0089L26.4055 23.1763L26.5945 22.8237L15.0945 16.6564L14.9055 17.0089ZM26.7 23V20.9698H26.3V23H26.7ZM26.5945 20.7936L16.9873 15.6413L16.7983 15.9938L26.4055 21.1461L26.5945 20.7936ZM19.4055 14.243L16.7983 15.6413L16.9873 15.9938L19.5945 14.5956L19.4055 14.243ZM19.3 12.5807V14.4193H19.7V12.5807H19.3ZM16.7983 11.3587L19.4055 12.7569L19.5945 12.4044L16.9873 11.0062L16.7983 11.3587ZM16.9873 11.3587L26.5945 6.20642L26.4055 5.85392L16.7983 11.0062L16.9873 11.3587ZM26.7 6.03017V4H26.3V6.03017H26.7ZM26.4055 3.82375L14.9055 9.99112L15.0945 10.3436L26.5945 4.17625L26.4055 3.82375ZM12.6659 13.6762L15.0945 12.3738L14.9055 12.0213L12.4769 13.3237L12.6659 13.6762ZM15.0945 14.6262L12.6659 13.3237L12.4769 13.6762L14.9055 14.9787L15.0945 14.6262ZM15.0945 14.9787L17.5231 13.6762L17.3341 13.3237L14.9055 14.6262L15.0945 14.9787ZM17.5231 13.3237L15.0945 12.0213L14.9055 12.3738L17.3341 13.6762L17.5231 13.3237Z" fill="white" mask="url(#path-1-inside-1_2154_5270)"/>
</svg>
