<svg width="27" height="27" viewBox="0 0 27 27" fill="none" xmlns="http://www.w3.org/2000/svg">
<path d="M26.9401 13.295C26.9401 10.6659 26.1493 8.09529 24.6691 5.90753C23.1889 3.72227 21.0861 2.01738 18.6249 1.01263C16.1637 0.00527227 13.4553 -0.258041 10.8434 0.256529C8.22896 0.768729 5.82937 2.03452 3.9464 3.893C2.06144 5.75386 0.778579 8.122 0.258899 10.6999C-0.261021 13.2803 0.00593042 15.9534 1.0255 18.3825C2.04508 20.8117 3.7711 22.8872 5.98766 24.3481C8.20178 25.8091 10.8062 26.5894 13.4701 26.5894C15.2394 26.5894 16.9915 26.2456 18.6249 25.5773C20.2583 24.9091 21.7433 23.931 22.9962 22.6945C24.2466 21.4604 25.2373 19.9947 25.9144 18.3825C26.5915 16.7704 26.9401 15.0413 26.9401 13.295ZM17.5104 5.98309L22.2252 10.6365L17.5104 15.29V11.9656H12.1234V9.30731H17.5104V5.98309ZM9.4298 20.6067L4.71495 15.9533L9.4298 11.2999V14.6242H14.8168V17.2827H9.4298V20.6067Z" fill="#9A9A9A"/>
</svg>
