<svg width="18" height="21" viewBox="0 0 18 21" fill="none" xmlns="http://www.w3.org/2000/svg">
<path id="Vector" d="M17.3279 15.6108L15.6458 13.0854V9.16667C15.6449 7.84811 15.2524 6.55953 14.518 5.46444C13.7836 4.36934 12.7404 3.51709 11.5208 3.01582C11.5208 2.34726 11.2553 1.70607 10.7825 1.23333C10.3098 0.760581 9.66858 0.494995 9.00001 0.494995C8.33145 0.494995 7.69026 0.760581 7.21752 1.23333C6.74477 1.70607 6.47918 2.34726 6.47918 3.01582C5.25962 3.51709 4.21646 4.36934 3.48204 5.46444C2.74763 6.55953 2.35507 7.84811 2.35418 9.16667V13.0854L0.667511 15.6108C0.50646 15.8527 0.414115 16.1337 0.400335 16.4239C0.386555 16.7141 0.451858 17.0027 0.589271 17.2587C0.726685 17.5147 0.931048 17.7286 1.18054 17.8775C1.43003 18.0264 1.71528 18.1047 2.00584 18.1042H15.9942C16.2843 18.1039 16.569 18.025 16.8178 17.8757C17.0667 17.7265 17.2704 17.5125 17.4073 17.2567C17.5441 17.0008 17.609 16.7126 17.5951 16.4228C17.5811 16.1329 17.4888 15.8523 17.3279 15.6108ZM9.00001 2.0625C9.19344 2.0626 9.38367 2.11187 9.55283 2.20567C9.722 2.29947 9.86454 2.43473 9.96709 2.59875C9.32662 2.49406 8.6734 2.49406 8.03293 2.59875C8.13548 2.43473 8.27802 2.29947 8.44719 2.20567C8.61635 2.11187 8.80658 2.0626 9.00001 2.0625ZM16.1958 16.61C16.1769 16.6468 16.1479 16.6776 16.1122 16.6987C16.0765 16.7197 16.0356 16.7303 15.9942 16.7292H2.00584C1.96401 16.7297 1.92285 16.7187 1.88682 16.6974C1.85079 16.6762 1.82125 16.6455 1.80142 16.6087C1.78159 16.5718 1.77222 16.5303 1.77432 16.4885C1.77642 16.4467 1.78991 16.4063 1.81334 16.3717L3.61459 13.6721C3.68939 13.5593 3.72925 13.427 3.72918 13.2917V9.16667C3.73069 8.16382 4.01826 7.1822 4.55813 6.33707C5.09801 5.49194 5.86778 4.81836 6.77709 4.39542C7.47323 4.07094 8.23196 3.90279 9.00001 3.90279C9.76806 3.90279 10.5268 4.07094 11.2229 4.39542C12.1322 4.81836 12.902 5.49194 13.4419 6.33707C13.9818 7.1822 14.2693 8.16382 14.2708 9.16667V13.2917C14.2708 13.427 14.3106 13.5593 14.3854 13.6721L16.1867 16.3717C16.211 16.4063 16.2247 16.4472 16.2264 16.4895C16.228 16.5318 16.2174 16.5736 16.1958 16.61ZM12.2083 19.4792H5.79168C5.60935 19.4792 5.43448 19.5516 5.30555 19.6805C5.17662 19.8095 5.10418 19.9843 5.10418 20.1667C5.10418 20.349 5.17662 20.5239 5.30555 20.6528C5.43448 20.7817 5.60935 20.8542 5.79168 20.8542H12.2083C12.3907 20.8542 12.5655 20.7817 12.6945 20.6528C12.8234 20.5239 12.8958 20.349 12.8958 20.1667C12.8958 19.9843 12.8234 19.8095 12.6945 19.6805C12.5655 19.5516 12.3907 19.4792 12.2083 19.4792Z" fill="#3F3F3F"/>
</svg>
