<svg width="29" height="24" viewBox="0 0 29 24" fill="none" xmlns="http://www.w3.org/2000/svg">
<path d="M15.1355 11.5604C15.3035 8.92882 17.5028 6.94116 20.0159 6.94116H23.6311C23.7547 6.94116 23.878 6.91669 23.9917 6.86548C24.1079 6.81665 24.2118 6.74353 24.3008 6.65088C24.3873 6.56061 24.4564 6.4508 24.5034 6.32886C24.5528 6.20942 24.5774 6.08014 24.5774 5.95093V1.98279C24.5774 0.892538 23.7249 0 22.687 0H1.89038C0.850031 0 0 0.892538 0 1.98279V21.8209C0 22.9112 0.850031 23.8037 1.89038 23.8037H22.687C23.7249 23.8037 24.5774 22.9112 24.5774 21.8209V17.8528C24.5774 17.7236 24.5528 17.5942 24.5034 17.4723C24.4564 17.3529 24.3873 17.243 24.3008 17.1504C24.2118 17.0601 24.1079 16.987 23.9917 16.9358C23.878 16.887 23.7547 16.8601 23.6311 16.8601H19.8503C17.1371 16.8601 14.9502 14.4481 15.1355 11.5604Z" fill="#9A9A9A"/>
<path d="M25.5208 8.92627H19.8496C19.0984 8.92627 18.3768 9.2386 17.843 9.79712C17.3118 10.3556 17.0127 11.1116 17.0127 11.9019C17.0127 12.6896 17.3118 13.4481 17.843 14.0066C18.3768 14.5627 19.0984 14.8773 19.8496 14.8773H25.5208C26.2719 14.8773 26.9934 14.5627 27.5247 14.0066C28.0584 13.4481 28.3574 12.6896 28.3574 11.9019C28.3574 11.1116 28.0584 10.3556 27.5247 9.79712C26.9934 9.2386 26.2719 8.92627 25.5208 8.92627Z" fill="#9A9A9A"/>
</svg>
