<svg width="14" height="14" viewBox="0 0 14 14" fill="none" xmlns="http://www.w3.org/2000/svg">
<g id="ic_lock" opacity="0.4">
<path id="Union" fill-rule="evenodd" clip-rule="evenodd" d="M5.3902 4.69092H8.3902V3.91016C8.3902 3.08173 7.71863 2.41016 6.8902 2.41016C6.06177 2.41016 5.3902 3.08173 5.3902 3.91016V4.69092ZM3.8902 4.69092H3.0902C2.42746 4.69092 1.8902 5.22818 1.8902 5.89092V11.4909C1.8902 12.1537 2.42746 12.6909 3.0902 12.6909H10.6902C11.3529 12.6909 11.8902 12.1537 11.8902 11.4909V5.89092C11.8902 5.22818 11.3529 4.69092 10.6902 4.69092H9.8902V3.91016C9.8902 2.2533 8.54705 0.910156 6.8902 0.910156C5.23334 0.910156 3.8902 2.2533 3.8902 3.91016V4.69092ZM5.8902 8.31067C5.8902 7.75838 6.33791 7.31067 6.8902 7.31067C7.44248 7.31067 7.8902 7.75838 7.8902 8.31067V9.07129C7.8902 9.62357 7.44248 10.0713 6.8902 10.0713C6.33791 10.0713 5.8902 9.62357 5.8902 9.07129V8.31067Z" fill="#F2F2F2"/>
</g>
</svg>
