<svg width="48" height="48" viewBox="0 0 48 48" fill="none" xmlns="http://www.w3.org/2000/svg">
<g id="Frame">
<path id="Vector" d="M6.3271 33.3819H3.05437V42.7637C3.05437 43.6364 3.70891 44.5091 4.79982 44.5091H15.4907V41.2364H6.3271V33.3819ZM6.3271 6.76369H15.4907V3.49097H4.79982C3.70891 3.49097 3.05437 4.36369 3.05437 5.23642V15.0546H6.3271V6.76369ZM41.6726 41.2364H32.5089V44.5091H43.1998C44.0726 44.5091 44.9453 43.8546 44.9453 42.7637V33.3819H41.6726V41.2364ZM41.6726 14.8364H44.9453V5.23642C44.9453 4.36369 44.2907 3.49097 43.1998 3.49097H32.5089V6.76369H41.6726V14.8364ZM2.18164 22.2546H45.818V25.5273H2.18164V22.2546Z" fill="white"/>
</g>
</svg>
