<svg data-v-b2c484b4="" fill="currentColor" xmlns="http://www.w3.org/2000/svg" width="21" height="21" viewBox="0 0 21 21"><g clip-path="url(#uicons-lyq6y0f8rt)"><path d="M2.60145 11.6739C2.62978 11.6156 2.71562 11.6214 2.76812 11.6572C4.76895 12.9156 5.64728 14.1781 5.95978 14.6406C6.03478 14.7522 6.13728 14.8589 6.10478 14.9939C6.07145 15.1222 5.92145 15.1539 5.85311 15.0489C4.53645 13.0422 3.06395 12.0156 2.66562 11.7847C2.61312 11.7489 2.57145 11.7322 2.60145 11.6739ZM0.782282 10.5031C0.540615 10.4947 0.422282 10.8306 0.590615 11.0281C0.965615 11.4614 1.45895 12.1322 1.66228 12.8481C2.06978 14.4122 2.87478 15.2272 3.97478 15.6797C4.73312 15.9889 5.51061 15.7822 5.91145 15.6381C6.08645 15.5731 6.26812 15.6597 6.35811 15.8339L6.65728 16.4172C6.72645 16.5539 6.87061 16.6297 6.98728 16.5489C7.04585 16.5044 7.08613 16.44 7.10055 16.3679C7.11498 16.2958 7.10255 16.2209 7.06561 16.1572C6.91395 15.8906 6.67311 15.4822 6.56978 15.3156C6.41228 15.0556 6.45145 14.7872 6.44311 14.6089C6.28228 11.0131 2.74145 10.5556 0.782282 10.5031Z" fill="#1CD645"></path><path d="M15.7744 6.53027C15.8477 6.65777 15.7544 6.69944 15.6361 6.78527C14.7444 7.34027 11.4586 9.78527 8.63606 14.4044C8.49023 14.6461 8.13939 14.5894 8.05023 14.3053C7.96189 14.0078 8.18689 13.7594 8.34773 13.5028C9.01939 12.4361 10.9111 9.5236 15.3869 6.5111C15.5052 6.4236 15.7019 6.40277 15.7744 6.53027ZM19.8402 3.73027C15.3361 4.04277 7.23189 5.42194 7.23189 13.4803C7.23189 13.8786 7.34856 14.4744 7.01189 15.0719C6.79273 15.4561 6.28106 16.3936 5.95939 17.0053C5.79856 17.3178 5.90023 17.7019 6.17856 17.8719C6.45606 18.0428 6.77856 17.8578 6.92523 17.5453L7.55356 16.2103C7.74356 15.8119 8.15356 15.5994 8.56189 15.7269C9.49856 16.0103 11.3119 16.3953 13.0236 15.6286C15.5102 14.5053 17.2802 12.6019 18.0552 9.06277C18.4511 7.44194 19.5186 5.89277 20.3369 4.88444C20.7036 4.42694 20.3961 3.68777 19.8402 3.73027Z" fill="#1CD645"></path></g><defs><clipPath id="uicons-lyq6y0f8rt"><rect width="20" height="20" fill="white" transform="translate(0.496094 0.834961)"></rect></clipPath></defs></svg>