<svg width="20" height="20" viewBox="0 0 20 20" fill="none" xmlns="http://www.w3.org/2000/svg">
<g id="Interface essential/Tag">
<g id="Icon">
<path d="M6.31613 7.56692C7.00648 7.56692 7.56613 7.00727 7.56613 6.31692C7.56613 5.62656 7.00648 5.06692 6.31613 5.06692C5.62577 5.06692 5.06613 5.62656 5.06613 6.31692C5.06613 7.00727 5.62577 7.56692 6.31613 7.56692Z" fill="black"/>
<path fill-rule="evenodd" clip-rule="evenodd" d="M9.29946 1.68359H9.23279L4.23279 2.04192C3.06826 2.14612 2.14533 3.06905 2.04113 4.23359L1.67446 9.23359C1.62842 9.69366 1.78687 10.1507 2.10779 10.4836L9.14113 17.5169C9.4382 17.8031 9.83707 17.959 10.2495 17.9503C10.8804 17.9447 11.482 17.6831 11.9161 17.2253L17.2245 11.9253C18.049 11.2416 18.1784 10.0254 17.5161 9.18359L10.4411 2.10025C10.1426 1.81642 9.74469 1.66086 9.33279 1.66692L9.29946 1.68359ZM9.3328 3.02525C9.38162 3.0099 9.43397 3.0099 9.4828 3.02525L16.5245 10.0669C16.5926 10.3792 16.476 10.703 16.2245 10.9003L10.8995 16.2253C10.724 16.4156 10.4826 16.5318 10.2245 16.5503H10.0828L3.06613 9.47525C3.04372 9.4162 3.04372 9.35097 3.06613 9.29192L3.4328 4.29192C3.49821 3.83843 3.84802 3.47854 4.29946 3.40025L9.29946 3.04192L9.3328 3.02525Z" fill="black"/>
<path d="M6.31613 7.56692C7.00648 7.56692 7.56613 7.00727 7.56613 6.31692C7.56613 5.62656 7.00648 5.06692 6.31613 5.06692C5.62577 5.06692 5.06613 5.62656 5.06613 6.31692C5.06613 7.00727 5.62577 7.56692 6.31613 7.56692Z" stroke="black" stroke-width="0.6"/>
<path fill-rule="evenodd" clip-rule="evenodd" d="M9.29946 1.68359H9.23279L4.23279 2.04192C3.06826 2.14612 2.14533 3.06905 2.04113 4.23359L1.67446 9.23359C1.62842 9.69366 1.78687 10.1507 2.10779 10.4836L9.14113 17.5169C9.4382 17.8031 9.83707 17.959 10.2495 17.9503C10.8804 17.9447 11.482 17.6831 11.9161 17.2253L17.2245 11.9253C18.049 11.2416 18.1784 10.0254 17.5161 9.18359L10.4411 2.10025C10.1426 1.81642 9.74469 1.66086 9.33279 1.66692L9.29946 1.68359ZM9.3328 3.02525C9.38162 3.0099 9.43397 3.0099 9.4828 3.02525L16.5245 10.0669C16.5926 10.3792 16.476 10.703 16.2245 10.9003L10.8995 16.2253C10.724 16.4156 10.4826 16.5318 10.2245 16.5503H10.0828L3.06613 9.47525C3.04372 9.4162 3.04372 9.35097 3.06613 9.29192L3.4328 4.29192C3.49821 3.83843 3.84802 3.47854 4.29946 3.40025L9.29946 3.04192L9.3328 3.02525Z" stroke="black" stroke-width="0.6"/>
</g>
</g>
</svg>
