<svg data-v-511e5ca1="" fill="currentColor" xmlns="http://www.w3.org/2000/svg" width="24" height="24" viewBox="0 0 24 24"><path d="M12.3702 8.57041C12.1947 8.3109 11.8114 8.31451 11.6408 8.57726L10.0596 11.0131C9.80442 11.4062 10.2624 11.8711 10.6593 11.6218L19.8505 5.8488C19.978 5.76875 20.0553 5.62881 20.0553 5.47831V1.86872C20.0553 1.31644 19.6076 0.868727 19.0553 0.868727H12.0003H4.94531C4.39303 0.868727 3.94531 1.31644 3.94531 1.86873V5.47686C3.94531 5.62815 4.02348 5.7687 4.152 5.84852L13.4052 11.5951C13.8061 11.8441 14.2628 11.3694 13.9984 10.9784L12.3702 8.57041Z" fill="url(#uicons-so6hjrpv1k)"></path><path d="M9.07031 0.868164H14.9285V10.0673H9.07031V0.868164Z" fill="url(#uicons-0jrdayx41p)"></path><path d="M11.1753 5.41024C11.6858 5.1155 12.3148 5.1155 12.8253 5.41024L18.8803 8.9061C19.3908 9.20085 19.7053 9.74556 19.7053 10.335V17.3268C19.7053 17.9163 19.3908 18.461 18.8803 18.7557L12.8253 22.2516C12.3148 22.5463 11.6858 22.5463 11.1753 22.2516L5.12031 18.7557C4.6098 18.461 4.29531 17.9163 4.29531 17.3268V10.335C4.29531 9.74556 4.6098 9.20085 5.12031 8.9061L11.1753 5.41024Z" fill="url(#uicons-a7sbwl2dkv)" stroke="url(#uicons-0d9bu7au8b)" stroke-width="0.7"></path><path d="M11.5015 7.73273C11.8089 7.55705 12.1864 7.55705 12.4938 7.73273L17.0774 10.3519C17.3889 10.53 17.5812 10.8613 17.5812 11.2202V16.4408C17.5812 16.7996 17.3889 17.131 17.0774 17.309L12.4938 19.9282C12.1864 20.1039 11.8089 20.1039 11.5015 19.9282L6.91792 17.309C6.60635 17.131 6.41406 16.7996 6.41406 16.4408V11.2202C6.41406 10.8613 6.60635 10.53 6.91792 10.3519L11.5015 7.73273Z" fill="url(#uicons-fyuuqc1ilv)"></path><path fill-rule="evenodd" clip-rule="evenodd" d="M19.4875 9.07898L14.6239 11.887C12.9996 12.8248 10.9983 12.8248 9.37394 11.887L4.39062 9.00984V8.87267L11.0001 5.1004C11.6188 4.74729 12.3786 4.74992 12.9948 5.1073L19.4875 8.87267V9.07898Z" fill="url(#uicons-m64w8sxpxh)"></path><path d="M9 12.9668V11.2068L11.519 9.79883H12.993V17.8618H11.09V11.8118L9 12.9668Z" fill="#644710"></path><defs><linearGradient id="uicons-so6hjrpv1k" x1="20.0552" y1="7.09331" x2="3.98402" y2="0.0485312" gradientUnits="userSpaceOnUse"><stop offset="0.168929" stop-color="#424242"></stop><stop offset="0.696361" stop-color="#8B8B8B"></stop><stop offset="1" stop-color="#D7D7D7"></stop></linearGradient><linearGradient id="uicons-0jrdayx41p" x1="9.07031" y1="-0.0471778" x2="11.9994" y2="6.54328" gradientUnits="userSpaceOnUse"><stop stop-color="#FFE2A2"></stop><stop offset="1" stop-color="#CF9B2C"></stop></linearGradient><linearGradient id="uicons-a7sbwl2dkv" x1="6.87441" y1="7.09274" x2="17.1262" y2="19.9075" gradientUnits="userSpaceOnUse"><stop stop-color="#FFF1A6"></stop><stop offset="1" stop-color="#F7C545"></stop></linearGradient><linearGradient id="uicons-0d9bu7au8b" x1="7.97282" y1="8.19115" x2="17.1262" y2="20.2737" gradientUnits="userSpaceOnUse"><stop stop-opacity="0.12"></stop><stop offset="1"></stop></linearGradient><linearGradient id="uicons-fyuuqc1ilv" x1="8.44446" y1="9.20759" x2="15.4617" y2="18.07" gradientUnits="userSpaceOnUse"><stop stop-color="#FFDF6B"></stop><stop offset="1" stop-color="#F0B92A"></stop></linearGradient><linearGradient id="uicons-m64w8sxpxh" x1="8.16484" y1="6.64232" x2="15.0443" y2="11.4375" gradientUnits="userSpaceOnUse"><stop stop-color="white"></stop><stop offset="1" stop-color="white" stop-opacity="0"></stop></linearGradient></defs></svg>