<svg xmlns="http://www.w3.org/2000/svg" width="14px" height="14px" fill="currentColor" viewBox="0 0 20 20"><path d="M3.403 9.744A5 5 0 018.243 6h3.514a5 5 0 014.84 3.744l.779 3C18.198 15.91 15.808 19 12.536 19H7.464c-3.272 0-5.662-3.09-4.84-6.256l.78-3z" fill="#52D48F"></path><path d="M5.724 2.447A1 1 0 016.618 1h6.764a1 1 0 01.894 1.447l-1 2a1 1 0 01-.894.553H7.618a1 1 0 01-.894-.553l-1-2z" fill="#52D48F"></path><path fill-rule="evenodd" clip-rule="evenodd" d="M7.044 10.784a1.96 1.96 0 011.96-1.96h3.952v1.69H8.99a.256.256 0 00-.115.483l3.015 1.514a1.936 1.936 0 01-.868 3.665H7.044v-1.69h3.97a.253.253 0 00.112-.478L8.14 12.543a1.96 1.96 0 01-1.096-1.76z" fill="#111"></path></svg>