<svg width="11" height="10" viewBox="0 0 11 10" fill="#f5f5f5" xmlns="http://www.w3.org/2000/svg">
<path id="Subtract" fill-rule="evenodd" clip-rule="evenodd" d="M10.7767 4.66366C10.7141 4.76579 10.6266 4.85331 10.4515 5.02834L6.57113 8.90873L6.57112 8.90874C5.96996 9.5099 5.66938 9.81048 5.32277 9.9231C5.01789 10.0222 4.68947 10.0222 4.38458 9.9231C4.03797 9.81048 3.73739 9.5099 3.13623 8.90874L3.13622 8.90873L2.01705 7.78956C1.41589 7.18839 1.1153 6.88781 1.00268 6.5412C0.903621 6.23631 0.903621 5.90789 1.00268 5.60301C1.1153 5.2564 1.41589 4.95582 2.01705 4.35465L5.89744 0.474261L5.89745 0.474258C6.07247 0.29923 6.15999 0.211715 6.26212 0.149131C6.35266 0.0936431 6.45138 0.0527532 6.55464 0.0279621C6.67111 0 6.79488 0 7.04241 0H9.30655C9.87334 0 10.1567 0 10.3732 0.110303C10.5636 0.207329 10.7185 0.362148 10.8155 0.552571C10.9258 0.769054 10.9258 1.05244 10.9258 1.61923V3.88337C10.9258 4.1309 10.9258 4.25467 10.8978 4.37114C10.873 4.4744 10.8321 4.57312 10.7767 4.66366ZM8.36551 3.27324C7.97097 3.27324 7.65114 2.95341 7.65114 2.55888C7.65114 2.16435 7.97097 1.84451 8.36551 1.84451C8.76004 1.84451 9.07987 2.16435 9.07987 2.55888C9.07987 2.95341 8.76004 3.27324 8.36551 3.27324Z"/>
</svg>
