<svg width="15" height="15" viewBox="0 0 15 15" fill="none" xmlns="http://www.w3.org/2000/svg">
<g id="gift-01" clip-path="url(#clip0_5056_16213)">
<path id="Icon" d="M7.5013 4.30599V13.6393M7.5013 4.30599H5.4388C5.13491 4.30599 4.84346 4.18307 4.62858 3.96428C4.41369 3.74549 4.29297 3.44874 4.29297 3.13932C4.29297 2.8299 4.41369 2.53316 4.62858 2.31437C4.84346 2.09557 5.13491 1.97266 5.4388 1.97266C7.04297 1.97266 7.5013 4.30599 7.5013 4.30599ZM7.5013 4.30599H9.5638C9.8677 4.30599 10.1591 4.18307 10.374 3.96428C10.5889 3.74549 10.7096 3.44874 10.7096 3.13932C10.7096 2.8299 10.5889 2.53316 10.374 2.31437C10.1591 2.09557 9.8677 1.97266 9.5638 1.97266C7.95964 1.97266 7.5013 4.30599 7.5013 4.30599ZM12.168 7.22266V11.7727C12.168 12.4261 12.168 12.7527 12.0408 13.0023C11.929 13.2218 11.7505 13.4003 11.531 13.5122C11.2814 13.6393 10.9547 13.6393 10.3013 13.6393L4.7013 13.6393C4.04791 13.6393 3.72121 13.6393 3.47165 13.5122C3.25212 13.4003 3.07365 13.2218 2.96179 13.0023C2.83464 12.7527 2.83464 12.426 2.83464 11.7727V7.22266M1.66797 5.23932L1.66797 6.28932C1.66797 6.61602 1.66797 6.77937 1.73155 6.90415C1.78747 7.01391 1.87671 7.10315 1.98647 7.15908C2.11126 7.22266 2.2746 7.22266 2.6013 7.22266L12.4013 7.22266C12.728 7.22266 12.8913 7.22266 13.0161 7.15908C13.1259 7.10315 13.2151 7.01391 13.2711 6.90415C13.3346 6.77937 13.3346 6.61602 13.3346 6.28932V5.23932C13.3346 4.91263 13.3346 4.74928 13.2711 4.6245C13.2151 4.51473 13.1259 4.4255 13.0161 4.36957C12.8913 4.30599 12.728 4.30599 12.4013 4.30599L2.6013 4.30599C2.2746 4.30599 2.11126 4.30599 1.98647 4.36957C1.87671 4.4255 1.78747 4.51473 1.73155 4.6245C1.66797 4.74928 1.66797 4.91263 1.66797 5.23932Z" stroke="#F5F5F5" stroke-linecap="round" stroke-linejoin="round"/>
</g>
<defs>
<clipPath id="clip0_5056_16213">
<rect width="14" height="14" fill="white" transform="translate(0.5 0.806641)"/>
</clipPath>
</defs>
</svg>
