<svg xmlns="http://www.w3.org/2000/svg" width="25" height="25" viewBox="0 0 25 25" fill="none" class="color-[var(--Gray-100)]"><g clip-path="url(#uicons-ydvycclu2w)"><path fill-rule="evenodd" clip-rule="evenodd" d="M12.5 2.75C9.32436 2.75 6.75 5.32436 6.75 8.5V10.5H5.5C4.39543 10.5 3.5 11.3954 3.5 12.5V18.5C3.5 20.7091 5.29086 22.5 7.5 22.5H17.5C19.7091 22.5 21.5 20.7091 21.5 18.5V12.5C21.5 11.3954 20.6046 10.5 19.5 10.5H18.25V8.5C18.25 5.32436 15.6756 2.75 12.5 2.75ZM16.75 10.5V8.5C16.75 6.15279 14.8472 4.25 12.5 4.25C10.1528 4.25 8.25 6.15279 8.25 8.5V10.5H16.75ZM12.5 13.75C12.9142 13.75 13.25 14.0858 13.25 14.5V16.5C13.25 16.9142 12.9142 17.25 12.5 17.25C12.0858 17.25 11.75 16.9142 11.75 16.5V14.5C11.75 14.0858 12.0858 13.75 12.5 13.75Z" fill="#ECEEF3"></path></g><defs><clipPath id="uicons-ydvycclu2w"><rect width="24" height="24" fill="white" transform="translate(0.5 0.5)"></rect></clipPath></defs></svg>