<svg width="21" height="21" viewBox="0 0 21 21" fill="none" xmlns="http://www.w3.org/2000/svg">
<g id="Link &#226;&#134;&#146; SVG">
<g id="Clip path group">
<mask id="mask0_5531_22987" style="mask-type:luminance" maskUnits="userSpaceOnUse" x="0" y="0" width="21" height="21">
<g id="clip0_6347_11888">
<path id="Vector" d="M20.5 0.5H0.5V20.5H20.5V0.5Z" fill="white"/>
</g>
</mask>
<g mask="url(#mask0_5531_22987)">
<g id="Group">
<path id="Vector_2" d="M13.77 15.087L15.41 7.353C15.556 6.673 15.165 6.404 14.719 6.571L5.076 10.288C4.417 10.544 4.429 10.913 4.964 11.08L7.431 11.85L13.156 8.245C13.424 8.066 13.67 8.167 13.469 8.345L8.838 12.531L8.659 15.076C8.916 15.076 9.028 14.964 9.161 14.83L10.366 13.67L12.866 15.51C13.324 15.767 13.648 15.634 13.771 15.086L13.77 15.087ZM20.5 10.5C20.5 16.024 16.024 20.5 10.5 20.5C4.976 20.5 0.5 16.024 0.5 10.5C0.5 4.976 4.976 0.5 10.5 0.5C16.024 0.5 20.5 4.976 20.5 10.5Z" fill="#5D89E5"/>
</g>
</g>
</g>
</g>
</svg>
