<svg width="44" height="41" viewBox="0 0 44 41" fill="none" xmlns="http://www.w3.org/2000/svg">
<g id="mm-logo-white 1">
<path id="Vector" d="M40.8576 1.95312L24.9375 13.7329L27.898 6.79069L40.8576 1.95312Z" fill="#E17726" stroke="#E17726" stroke-width="0.25" stroke-linecap="round" stroke-linejoin="round"/>
<path id="Vector_2" d="M4.13867 1.95312L19.917 13.8428L17.0984 6.79068L4.13867 1.95312Z" fill="#E27625" stroke="#E27625" stroke-width="0.25" stroke-linecap="round" stroke-linejoin="round"/>
<path id="Vector_3" d="M35.1265 29.2656L30.8906 35.7367L39.9608 38.234L42.5591 29.4071L35.1265 29.2656Z" fill="#E27625" stroke="#E27625" stroke-width="0.25" stroke-linecap="round" stroke-linejoin="round"/>
<path id="Vector_4" d="M2.45312 29.4071L5.0356 38.234L14.0901 35.7367L9.86989 29.2656L2.45312 29.4071Z" fill="#E27625" stroke="#E27625" stroke-width="0.25" stroke-linecap="round" stroke-linejoin="round"/>
<path id="Vector_5" d="M13.5995 18.3368L11.0801 22.1377L20.0558 22.5461L19.7566 12.8867L13.5995 18.3368Z" fill="#E27625" stroke="#E27625" stroke-width="0.25" stroke-linecap="round" stroke-linejoin="round"/>
<path id="Vector_6" d="M31.3936 18.3354L25.1422 12.7754L24.9375 22.5447L33.9131 22.1364L31.3936 18.3354Z" fill="#E27625" stroke="#E27625" stroke-width="0.25" stroke-linecap="round" stroke-linejoin="round"/>
<path id="Vector_7" d="M14.0918 35.7375L19.5244 33.1146L14.8477 29.4707L14.0918 35.7375Z" fill="#E27625" stroke="#E27625" stroke-width="0.25" stroke-linecap="round" stroke-linejoin="round"/>
<path id="Vector_8" d="M25.4727 33.1146L30.8895 35.7375L30.1494 29.4707L25.4727 33.1146Z" fill="#E27625" stroke="#E27625" stroke-width="0.25" stroke-linecap="round" stroke-linejoin="round"/>
<path id="Vector_9" d="M30.8895 35.7381L25.4727 33.1152L25.9135 36.6334L25.8662 38.1255L30.8895 35.7381Z" fill="#D5BFB2" stroke="#D5BFB2" stroke-width="0.25" stroke-linecap="round" stroke-linejoin="round"/>
<path id="Vector_10" d="M14.0918 35.7381L19.1308 38.1255L19.0993 36.6334L19.5244 33.1152L14.0918 35.7381Z" fill="#D5BFB2" stroke="#D5BFB2" stroke-width="0.25" stroke-linecap="round" stroke-linejoin="round"/>
<path id="Vector_11" d="M19.2243 27.1452L14.7207 25.826L17.9016 24.3652L19.2243 27.1452Z" fill="#233447" stroke="#233447" stroke-width="0.25" stroke-linecap="round" stroke-linejoin="round"/>
<path id="Vector_12" d="M25.7715 27.1452L27.0943 24.3652L30.2909 25.826L25.7715 27.1452Z" fill="#233447" stroke="#233447" stroke-width="0.25" stroke-linecap="round" stroke-linejoin="round"/>
<path id="Vector_13" d="M14.0873 35.7367L14.8747 29.2656L9.86719 29.4071L14.0873 35.7367Z" fill="#CC6228" stroke="#CC6228" stroke-width="0.25" stroke-linecap="round" stroke-linejoin="round"/>
<path id="Vector_14" d="M30.1191 29.2656L30.8908 35.7367L35.1267 29.4071L30.1191 29.2656Z" fill="#CC6228" stroke="#CC6228" stroke-width="0.25" stroke-linecap="round" stroke-linejoin="round"/>
<path id="Vector_15" d="M33.9131 22.1367L24.9375 22.5451L25.772 27.1471L27.0948 24.367L30.2914 25.8277L33.9131 22.1367Z" fill="#CC6228" stroke="#CC6228" stroke-width="0.25" stroke-linecap="round" stroke-linejoin="round"/>
<path id="Vector_16" d="M14.7176 25.8277L17.8984 24.367L19.2212 27.1471L20.0558 22.5451L11.0801 22.1367L14.7176 25.8277Z" fill="#CC6228" stroke="#CC6228" stroke-width="0.25" stroke-linecap="round" stroke-linejoin="round"/>
<path id="Vector_17" d="M11.0801 22.1367L14.8436 29.4716L14.7175 25.8277L11.0801 22.1367Z" fill="#E27525" stroke="#E27525" stroke-width="0.25" stroke-linecap="round" stroke-linejoin="round"/>
<path id="Vector_18" d="M30.294 25.8277L30.1523 29.4716L33.9159 22.1367L30.294 25.8277Z" fill="#E27525" stroke="#E27525" stroke-width="0.25" stroke-linecap="round" stroke-linejoin="round"/>
<path id="Vector_19" d="M20.0573 22.5449L19.2227 27.147L20.2777 32.5813L20.5139 25.4192L20.0573 22.5449Z" fill="#E27525" stroke="#E27525" stroke-width="0.25" stroke-linecap="round" stroke-linejoin="round"/>
<path id="Vector_20" d="M24.939 22.5449L24.498 25.4036L24.7185 32.5813L25.7736 27.147L24.939 22.5449Z" fill="#E27525" stroke="#E27525" stroke-width="0.25" stroke-linecap="round" stroke-linejoin="round"/>
<path id="Vector_21" d="M25.7718 27.1456L24.7168 32.5799L25.4727 33.1139L30.1495 29.47L30.2912 25.8262L25.7718 27.1456Z" fill="#F5841F" stroke="#F5841F" stroke-width="0.25" stroke-linecap="round" stroke-linejoin="round"/>
<path id="Vector_22" d="M14.7207 25.8262L14.8468 29.47L19.5235 33.1139L20.2794 32.5799L19.2243 27.1456L14.7207 25.8262Z" fill="#F5841F" stroke="#F5841F" stroke-width="0.25" stroke-linecap="round" stroke-linejoin="round"/>
<path id="Vector_23" d="M25.8705 38.1257L25.9176 36.6336L25.5083 36.288H19.493L19.0993 36.6336L19.1308 38.1257L14.0918 35.7383L15.8554 37.1832L19.43 39.6492H25.5554L29.1457 37.1832L30.8936 35.7383L25.8705 38.1257Z" fill="#C0AC9D" stroke="#C0AC9D" stroke-width="0.25" stroke-linecap="round" stroke-linejoin="round"/>
<path id="Vector_24" d="M25.4732 33.114L24.7173 32.5801H20.2767L19.5209 33.114L19.0957 36.6323L19.4894 36.2867H25.5047L25.9141 36.6323L25.4732 33.114Z" fill="#161616" stroke="#161616" stroke-width="0.25" stroke-linecap="round" stroke-linejoin="round"/>
<path id="Vector_25" d="M41.5344 14.5025L42.8729 8.00007L40.8573 1.95312L25.4727 13.3403L31.3934 18.3348L39.755 20.7694L41.5974 18.6176L40.7944 18.0364L42.0697 16.8742L41.0935 16.1203L42.369 15.1465L41.5344 14.5025Z" fill="#763E1A" stroke="#763E1A" stroke-width="0.25" stroke-linecap="round" stroke-linejoin="round"/>
<path id="Vector_26" d="M2.12109 8.00007L3.47532 14.5025L2.60925 15.1465L3.90049 16.1203L2.92418 16.8742L4.19968 18.0364L3.39658 18.6176L5.23897 20.7694L13.6006 18.3348L19.5213 13.3403L4.13669 1.95312L2.12109 8.00007Z" fill="#763E1A" stroke="#763E1A" stroke-width="0.25" stroke-linecap="round" stroke-linejoin="round"/>
<path id="Vector_27" d="M39.7579 20.7704L31.3963 18.3359L33.9159 22.1369L30.1523 29.4717L35.1283 29.4089H42.5608L39.7579 20.7704Z" fill="#F5841F" stroke="#F5841F" stroke-width="0.25" stroke-linecap="round" stroke-linejoin="round"/>
<path id="Vector_28" d="M13.6018 18.3359L5.24031 20.7704L2.45312 29.4089H9.86989L14.8458 29.4717L11.0824 22.1369L13.6018 18.3359Z" fill="#F5841F" stroke="#F5841F" stroke-width="0.25" stroke-linecap="round" stroke-linejoin="round"/>
<path id="Vector_29" d="M24.9396 22.5445L25.475 13.3405L27.9 6.79102H17.0977L19.5226 13.3405L20.058 22.5445L20.2627 25.4344L20.2785 32.5809H24.7191L24.7349 25.4344L24.9396 22.5445Z" fill="#F5841F" stroke="#F5841F" stroke-width="0.25" stroke-linecap="round" stroke-linejoin="round"/>
</g>
</svg>
