<svg fill="currentColor" xmlns="http://www.w3.org/2000/svg" width="24" height="25" viewBox="0 0 24 25"><path d="M16.3424 15.0075H7.66054C7.37271 15.0075 7.09668 15.1219 6.89316 15.3254C6.68964 15.529 6.5753 15.8051 6.5753 16.093C6.5753 16.3808 6.68964 16.6569 6.89316 16.8605C7.09668 17.064 7.37271 17.1784 7.66054 17.1784H16.3424C16.6302 17.1784 16.9062 17.064 17.1098 16.8605C17.3133 16.6569 17.4276 16.3808 17.4276 16.093C17.4276 15.8051 17.3133 15.529 17.1098 15.3254C16.9062 15.1219 16.6302 15.0075 16.3424 15.0075ZM16.3424 10.6658H9.831C9.54318 10.6658 9.26715 10.7802 9.06363 10.9837C8.86011 11.1873 8.74577 11.4634 8.74577 11.7513C8.74577 12.0391 8.86011 12.3152 9.06363 12.5188C9.26715 12.7223 9.54318 12.8367 9.831 12.8367H16.3424C16.6302 12.8367 16.9062 12.7223 17.1098 12.5188C17.3133 12.3152 17.4276 12.0391 17.4276 11.7513C17.4276 11.4634 17.3133 11.1873 17.1098 10.9837C16.9062 10.7802 16.6302 10.6658 16.3424 10.6658ZM20.6833 4.15327H17.4276V3.06785C17.4276 2.77997 17.3133 2.50389 17.1098 2.30034C16.9062 2.09678 16.6302 1.98242 16.3424 1.98242C16.0546 1.98242 15.7785 2.09678 15.575 2.30034C15.3715 2.50389 15.2572 2.77997 15.2572 3.06785V4.15327H13.0867V3.06785C13.0867 2.77997 12.9724 2.50389 12.7688 2.30034C12.5653 2.09678 12.2893 1.98242 12.0015 1.98242C11.7136 1.98242 11.4376 2.09678 11.2341 2.30034C11.0306 2.50389 10.9162 2.77997 10.9162 3.06785V4.15327H8.74577V3.06785C8.74577 2.77997 8.63143 2.50389 8.42791 2.30034C8.22439 2.09678 7.94836 1.98242 7.66054 1.98242C7.37271 1.98242 7.09668 2.09678 6.89316 2.30034C6.68964 2.50389 6.5753 2.77997 6.5753 3.06785V4.15327H3.31961C3.03179 4.15327 2.75575 4.26763 2.55223 4.47119C2.34871 4.67474 2.23438 4.95083 2.23438 5.2387V20.7073C2.23438 21.571 2.57739 22.1265 3.18795 22.7372C3.79851 23.3479 4.62661 23.6909 5.49007 23.6909H18.5129C19.3763 23.6909 20.2044 23.3479 20.815 22.7372C21.4255 22.1265 21.7686 21.571 21.7686 20.7073V5.2387C21.7686 4.95083 21.6542 4.67474 21.4507 4.47119C21.2472 4.26763 20.9711 4.15327 20.6833 4.15327ZM20.059 20.7073C20.059 20.9952 19.9447 21.2713 19.7411 21.4749C19.5376 21.6784 19.2616 21.7928 18.9738 21.7928H4.98062C4.69279 21.7928 4.41676 21.6784 4.21324 21.4749C4.00972 21.2713 3.89538 20.9952 3.89538 20.7073V5.81376H6.5753V7.40955C6.5753 7.69742 6.68964 7.9735 6.89316 8.17706C7.09668 8.38062 7.37271 8.49498 7.66054 8.49498C7.94836 8.49498 8.22439 8.38062 8.42791 8.17706C8.63143 7.9735 8.74577 7.69742 8.74577 7.40955V5.81376H10.9162V7.40955C10.9162 7.69742 11.0306 7.9735 11.2341 8.17706C11.4376 8.38062 11.7136 8.49498 12.0015 8.49498C12.2893 8.49498 12.5653 8.38062 12.7688 8.17706C12.9724 7.9735 13.0867 7.69742 13.0867 7.40955V5.81376H15.2572V7.40955C15.2572 7.69742 15.3715 7.9735 15.575 8.17706C15.7785 8.38062 16.0546 8.49498 16.3424 8.49498C16.6302 8.49498 16.9062 8.38062 17.1098 8.17706C17.3133 7.9735 17.4276 7.69742 17.4276 7.40955V5.81376H20.059V20.7073Z"></path></svg>