<svg width="21" height="21" viewBox="0 0 21 21" fill="none" xmlns="http://www.w3.org/2000/svg">
<g id="gg 1" clip-path="url(#clip0_5470_27282)">
<g id="Clip path group">
<mask id="mask0_5470_27282" style="mask-type:luminance" maskUnits="userSpaceOnUse" x="-1" y="-1" width="23" height="23">
<g id="master_svg0_1805_02488">
<path id="Vector" d="M21.6969 -0.699219H-0.703125V21.7008H21.6969V-0.699219Z" fill="white"/>
</g>
</mask>
<g mask="url(#mask0_5470_27282)">
<g id="Group">
<g id="Group_2">
<path id="Vector_2" d="M5.20781 15.5248C5.20781 16.0366 5.62563 16.4544 6.13968 16.4544H7.205V19.0882C7.205 19.7555 7.74093 20.3001 8.39938 20.3001C9.06 20.3001 9.59375 19.7576 9.59375 19.0882V16.4523H11.4531V19.086C11.4531 19.7532 11.9891 20.298 12.6475 20.298C13.3081 20.298 13.8419 19.7555 13.8419 19.086V16.4523H14.9072C15.4212 16.4523 15.8391 16.0344 15.8391 15.5226V6.87759H5.20781V15.5248ZM13.0194 2.39759L14.0016 0.975716C14.0584 0.892591 14.0453 0.781029 13.9687 0.726341C13.8922 0.673841 13.7828 0.700091 13.7259 0.783216L12.7066 2.26197C12.035 1.99728 11.2869 1.85072 10.5016 1.85072C9.71625 1.85072 8.96813 1.99728 8.29656 2.26197L7.27719 0.785403C7.22031 0.702278 7.11094 0.673841 7.03438 0.728528C6.95781 0.781028 6.94469 0.890403 7.00156 0.977903L7.98375 2.39978C6.42188 3.12603 5.32813 4.50197 5.18813 6.10978H15.8194C15.675 4.49978 14.5791 3.12384 13.0194 2.39759ZM8.25718 4.63978C7.93343 4.63978 7.66875 4.37728 7.66875 4.05134C7.66875 3.72759 7.93125 3.4629 8.25718 3.4629C8.58093 3.4629 8.84563 3.7254 8.84563 4.05134C8.84343 4.37728 8.58093 4.63978 8.25718 4.63978ZM12.8159 4.63978C12.4922 4.63978 12.2275 4.37728 12.2275 4.05134C12.2275 3.72759 12.49 3.4629 12.8159 3.4629C13.1397 3.4629 13.4044 3.7254 13.4044 4.05134C13.4022 4.37728 13.1397 4.63978 12.8159 4.63978ZM17.7027 6.84259C17.0422 6.84259 16.5084 7.38509 16.5084 8.05447V12.7882C16.5084 13.4554 17.0443 14.0001 17.7027 14.0001C18.3634 14.0001 18.8972 13.4576 18.8972 12.7882V8.05227C18.8993 7.3829 18.3656 6.84259 17.7027 6.84259ZM3.29594 6.84259C2.63531 6.84259 2.10156 7.38509 2.10156 8.05447V12.7882C2.10156 13.4554 2.6375 14.0001 3.29594 14.0001C3.95656 14.0001 4.49031 13.4576 4.49031 12.7882V8.05227C4.49031 7.3829 3.95438 6.84259 3.29594 6.84259Z" fill="#49C47D"/>
</g>
</g>
</g>
</g>
</g>
<defs>
<clipPath id="clip0_5470_27282">
<rect width="20" height="20" fill="white" transform="translate(0.5 0.5)"/>
</clipPath>
</defs>
</svg>
