<svg width="12" height="13" viewBox="0 0 12 13" fill="none" xmlns="http://www.w3.org/2000/svg">
<g id="&#228;&#184;&#139;&#232;&#189;&#189; (7)" clip-path="url(#clip0_4962_5295)">
<path id="Vector" d="M2.90648 5.01344L2.90604 8.59129C2.90604 9.36183 3.21214 10.1008 3.75699 10.6457C4.30184 11.1905 5.04082 11.4966 5.81136 11.4966C6.58191 11.4966 7.32089 11.1905 7.86574 10.6457C8.41059 10.1008 8.71669 9.36183 8.71669 8.59129L8.71625 5.01344L2.90648 5.01344Z" fill="#2EBD85"/>
<path id="Vector_2" d="M3.20631 3.91834C3.2064 2.47967 4.37269 1.31344 5.81136 1.31344C7.25004 1.31344 8.41633 2.47967 8.41642 3.91834L8.41669 8.59129C8.41669 8.59129 8.41669 8.5913 8.41669 8.5913C8.41668 9.28227 8.1422 9.94494 7.65361 10.4335C7.16501 10.9221 6.50234 11.1966 5.81136 11.1966C5.12039 11.1966 4.45771 10.9221 3.96912 10.4335C3.48053 9.94494 3.20604 9.28227 3.20604 8.5913C3.20604 8.5913 3.20604 8.59129 3.20604 8.59129L3.20631 3.91834Z" stroke="#2EBD85" stroke-width="0.6"/>
</g>
<defs>
<clipPath id="clip0_4962_5295">
<rect width="12" height="12" fill="white" transform="translate(0 0.193359)"/>
</clipPath>
</defs>
</svg>
