<svg width="18" height="18" viewBox="0 0 18 18" fill="none" xmlns="http://www.w3.org/2000/svg">
<g id="icon/clever">
<path id="Vector" d="M10.7312 15.9907C10.7032 16.0682 10.6516 16.1351 10.5836 16.1818C10.5157 16.2285 10.4348 16.2528 10.3523 16.2513C10.2447 16.2527 10.1395 16.2831 10.0477 16.3394C9.95598 16.3957 9.88114 16.4757 9.83113 16.571C9.76508 16.6994 9.66515 16.8072 9.54218 16.8828C9.4192 16.9585 9.27788 16.999 9.13352 17H8.57823C8.43251 17.0004 8.28949 16.9606 8.16497 16.8849C8.04046 16.8092 7.93928 16.7006 7.8726 16.571C7.82259 16.4757 7.74775 16.3957 7.65601 16.3394C7.56426 16.2831 7.45902 16.2527 7.3514 16.2513C7.26894 16.2528 7.18806 16.2285 7.12011 16.1818C7.05217 16.1351 7.00055 16.0682 6.97252 15.9907C6.95217 15.9333 6.94598 15.8718 6.95449 15.8115C6.96299 15.7513 6.98594 15.6939 7.02137 15.6444C7.05681 15.5949 7.10368 15.5547 7.158 15.5272C7.21232 15.4997 7.27248 15.4857 7.33335 15.4865H10.3864C10.4473 15.4857 10.5075 15.4997 10.5618 15.5272C10.6161 15.5547 10.663 15.5949 10.6984 15.6444C10.7338 15.6939 10.7568 15.7513 10.7653 15.8115C10.7738 15.8718 10.7676 15.9333 10.7472 15.9907H10.7312ZM4.8456 11.7448L3.72702 12.8294C3.69135 12.8645 3.66302 12.9064 3.64369 12.9526C3.62436 12.9988 3.6144 13.0484 3.6144 13.0985C3.6144 13.1486 3.62436 13.1981 3.64369 13.2443C3.66302 13.2905 3.69135 13.3324 3.72702 13.3676C3.79718 13.4408 3.8954 13.4809 3.99664 13.4779C4.04891 13.4739 4.09978 13.4591 4.14602 13.4344C4.19227 13.4098 4.23288 13.3757 4.26526 13.3345L5.34175 12.2921C5.37769 12.2562 5.40621 12.2135 5.42566 12.1666C5.44511 12.1196 5.45512 12.0693 5.45512 12.0185C5.45512 11.9677 5.44511 11.9173 5.42566 11.8704C5.40621 11.8234 5.37769 11.7808 5.34175 11.7448C5.26866 11.6768 5.1725 11.6389 5.07263 11.6389C4.97276 11.6389 4.87659 11.6768 4.8035 11.7448H4.8456ZM3.88739 8.28986C3.88741 8.18862 3.84775 8.09141 3.77692 8.01908C3.70609 7.94675 3.60972 7.90506 3.50851 7.90296H1.98699C1.88502 7.90501 1.7878 7.94643 1.71569 8.01855C1.64357 8.09067 1.60215 8.18789 1.6001 8.28986C1.60511 8.50034 1.77651 8.66773 1.98699 8.66773H3.50851C3.55822 8.66786 3.60746 8.65818 3.65342 8.63925C3.69939 8.62032 3.74116 8.59251 3.77636 8.55741C3.81155 8.52231 3.83947 8.4806 3.85853 8.43469C3.87758 8.38878 3.88739 8.33956 3.88739 8.28986ZM8.84786 3.32838C8.89748 3.32838 8.94662 3.31861 8.99246 3.29962C9.03831 3.28063 9.07996 3.2528 9.11505 3.21771C9.15014 3.18262 9.17798 3.14096 9.19697 3.09512C9.21595 3.04927 9.22573 3.00013 9.22573 2.95051V1.38689C9.22576 1.28583 9.18624 1.18876 9.11562 1.11646C9.045 1.04416 8.94889 1.00236 8.84786 1C8.74589 1.00205 8.64867 1.04347 8.57655 1.11559C8.50443 1.1877 8.46301 1.28493 8.46096 1.38689V2.90841C8.46497 3.1189 8.63737 3.28729 8.84786 3.28729V3.32939V3.32838ZM12.6146 4.892C12.6645 4.89399 12.7142 4.88537 12.7605 4.86671C12.8068 4.84805 12.8486 4.81977 12.8832 4.78375L13.9677 3.66516C14.0358 3.59207 14.0736 3.49591 14.0736 3.39604C14.0736 3.29617 14.0358 3.20001 13.9677 3.12692C13.9325 3.09125 13.8906 3.06292 13.8444 3.04359C13.7982 3.02426 13.7487 3.0143 13.6986 3.0143C13.6485 3.0143 13.5989 3.02426 13.5527 3.04359C13.5065 3.06292 13.4646 3.09125 13.4295 3.12692L12.3449 4.20341C12.2769 4.2765 12.239 4.37266 12.239 4.47253C12.239 4.5724 12.2769 4.66856 12.3449 4.74165C12.4171 4.81181 12.5133 4.85191 12.6146 4.8509V4.893V4.892ZM4.8035 4.74165C4.83864 4.77697 4.88054 4.80485 4.92669 4.82362C4.97285 4.84239 5.02231 4.85167 5.07213 4.8509C5.14757 4.85188 5.22158 4.83026 5.28463 4.7888C5.34767 4.74735 5.39687 4.68798 5.42587 4.61832C5.45488 4.54867 5.46236 4.47193 5.44737 4.39798C5.43238 4.32403 5.39559 4.25626 5.34175 4.20341L4.26526 3.12692C4.23044 3.0893 4.18839 3.0591 4.14163 3.03812C4.09486 3.01714 4.04434 3.00582 3.99309 3.00483C3.94184 3.00384 3.89093 3.0132 3.84338 3.03236C3.79584 3.05151 3.75265 3.08007 3.71641 3.11631C3.68017 3.15256 3.65161 3.19574 3.63245 3.24329C3.6133 3.29083 3.60393 3.34175 3.60492 3.39299C3.60591 3.44424 3.61724 3.49476 3.63822 3.54153C3.6592 3.58829 3.6894 3.63035 3.72702 3.66516L4.8035 4.74165ZM15.7328 7.86086H14.1772C14.076 7.86296 13.9796 7.90465 13.9088 7.97698C13.8379 8.04931 13.7983 8.14652 13.7983 8.24776C13.7983 8.29747 13.8081 8.34668 13.8272 8.3926C13.8462 8.43851 13.8741 8.48021 13.9093 8.51531C13.9445 8.55041 13.9863 8.57823 14.0323 8.59716C14.0782 8.61609 14.1275 8.62576 14.1772 8.62563H15.7067C15.7564 8.62576 15.8057 8.61609 15.8516 8.59716C15.8976 8.57823 15.9394 8.55041 15.9746 8.51531C16.0098 8.48021 16.0377 8.43851 16.0567 8.3926C16.0758 8.34668 16.0856 8.29747 16.0856 8.24776C16.0856 8.14652 16.046 8.04931 15.9751 7.97698C15.9043 7.90465 15.8079 7.86296 15.7067 7.86086H15.7328ZM12.9072 11.7448C12.8342 11.6768 12.738 11.6389 12.6381 11.6389C12.5382 11.6389 12.4421 11.6768 12.369 11.7448C12.3006 11.8194 12.2627 11.9168 12.2627 12.018C12.2627 12.1191 12.3006 12.2166 12.369 12.2911L13.4284 13.3335C13.4986 13.4077 13.5968 13.4468 13.6981 13.4438C13.7983 13.4438 13.8955 13.4047 13.9667 13.3335C14.0345 13.2605 14.0721 13.1645 14.0721 13.0649C14.0721 12.9653 14.0345 12.8693 13.9667 12.7963L12.9072 11.7448ZM10.3854 14.5363H7.31732C7.21697 14.5363 7.12072 14.5762 7.04977 14.6471C6.97881 14.7181 6.93894 14.8143 6.93894 14.9147C6.93894 15.015 6.97881 15.1113 7.04977 15.1822C7.12072 15.2532 7.21697 15.293 7.31732 15.293H10.3694C10.4697 15.293 10.566 15.2532 10.6369 15.1822C10.7079 15.1113 10.7477 15.015 10.7477 14.9147C10.7477 14.8143 10.7079 14.7181 10.6369 14.6471C10.566 14.5762 10.4697 14.5363 10.3694 14.5363H10.3864H10.3854ZM10.7633 13.965C10.7633 14.0146 10.7535 14.0637 10.7345 14.1096C10.7155 14.1554 10.6877 14.1971 10.6526 14.2322C10.6175 14.2673 10.5759 14.2951 10.53 14.3141C10.4842 14.3331 10.435 14.3429 10.3854 14.3429H7.31732C7.21697 14.3429 7.12072 14.303 7.04977 14.232C6.97881 14.1611 6.93894 14.0648 6.93894 13.9645C6.93894 13.8641 6.97881 13.7679 7.04977 13.6969C7.12072 13.626 7.21697 13.5861 7.31732 13.5861C7.07375 11.4421 4.86164 10.963 4.86164 8.43218C4.86164 7.37072 5.2833 6.35273 6.03387 5.60216C6.78444 4.8516 7.80243 4.42993 8.86389 4.42993C9.92536 4.42993 10.9433 4.8516 11.6939 5.60216C12.4445 6.35273 12.8661 7.37072 12.8661 8.43218C12.8661 10.955 10.647 11.4421 10.4105 13.5861C10.5066 13.5922 10.5968 13.6349 10.6626 13.7053C10.7284 13.7757 10.7647 13.8686 10.7643 13.965H10.7633ZM10.3684 7.44891C10.2687 7.19438 10.1004 6.97243 9.88229 6.80771C9.66414 6.64299 9.40461 6.54194 9.13251 6.51575V6.06972C9.13484 6.0308 9.12917 5.99181 9.11586 5.95516C9.10255 5.91852 9.08188 5.88498 9.05512 5.85662C9.02836 5.82826 8.99607 5.80569 8.96025 5.79028C8.92444 5.77487 8.88584 5.76695 8.84685 5.76702C8.77163 5.76904 8.70003 5.79975 8.64673 5.85286C8.59343 5.90598 8.56247 5.97747 8.56019 6.05268V6.52377C8.28027 6.57335 8.02343 6.71086 7.82697 6.91633C7.63051 7.12181 7.50465 7.38455 7.46766 7.66641C7.40853 8.20566 7.72827 8.91129 8.78772 9.13882C9.36806 9.25609 9.70383 9.58385 9.62866 9.97976C9.59928 10.1762 9.49548 10.3538 9.33875 10.4759C9.18202 10.5979 8.98437 10.655 8.78671 10.6353C8.58735 10.659 8.38567 10.6177 8.2116 10.5177C8.03754 10.4177 7.90037 10.2642 7.82048 10.08C7.79535 10.0069 7.74249 9.94657 7.6733 9.91208C7.60412 9.87757 7.52414 9.87165 7.45062 9.89557C7.38104 9.92226 7.32416 9.97432 7.29142 10.0413C7.25869 10.1082 7.25254 10.1851 7.27422 10.2564C7.46766 10.7796 7.94577 11.1435 8.50206 11.1906V11.6516C8.50206 11.7274 8.53215 11.8 8.58572 11.8536C8.6393 11.9072 8.71195 11.9373 8.78772 11.9373C8.86348 11.9373 8.93614 11.9072 8.98971 11.8536C9.04328 11.8 9.07338 11.7274 9.07338 11.6516V11.1815C9.35606 11.1363 9.61636 11.0004 9.81505 10.7943C10.0137 10.5882 10.14 10.323 10.1749 10.0389C10.225 9.50065 9.91432 8.79402 8.84685 8.5665C8.26551 8.44922 7.93875 8.12147 8.00491 7.72655C8.03192 7.52894 8.13507 7.3497 8.29236 7.22706C8.44964 7.10442 8.64862 7.04807 8.84685 7.07003C9.04715 7.04831 9.2492 7.09028 9.42428 7.18996C9.59936 7.28965 9.73856 7.44199 9.82211 7.62532C9.8455 7.69776 9.89671 7.75794 9.96448 7.79262C10.0322 7.8273 10.111 7.83364 10.1834 7.81025C10.2559 7.78685 10.3161 7.73564 10.3507 7.66788C10.3854 7.60011 10.3918 7.52135 10.3684 7.44891Z" fill="white"/>
</g>
</svg>
