<svg width="92" height="6" viewBox="0 0 92 6" fill="none" xmlns="http://www.w3.org/2000/svg">
<path id="Line 13" d="M0.833333 3C0.833333 4.47276 2.02724 5.66667 3.5 5.66667C4.97276 5.66667 6.16667 4.47276 6.16667 3C6.16667 1.52724 4.97276 0.333333 3.5 0.333333C2.02724 0.333333 0.833333 1.52724 0.833333 3ZM85.8333 3C85.8333 4.47276 87.0272 5.66667 88.5 5.66667C89.9728 5.66667 91.1667 4.47276 91.1667 3C91.1667 1.52724 89.9728 0.333333 88.5 0.333333C87.0272 0.333333 85.8333 1.52724 85.8333 3ZM3.5 3.5H5.43182V2.5H3.5V3.5ZM9.29545 3.5H13.1591V2.5H9.29545V3.5ZM17.0227 3.5H20.8864V2.5H17.0227V3.5ZM24.75 3.5H28.6136V2.5H24.75V3.5ZM32.4773 3.5H36.3409V2.5H32.4773V3.5ZM40.2045 3.5H44.0682V2.5H40.2045V3.5ZM47.9318 3.5H51.7955V2.5H47.9318V3.5ZM55.6591 3.5H59.5227V2.5H55.6591V3.5ZM63.3864 3.5H67.25V2.5H63.3864V3.5ZM71.1136 3.5H74.9773V2.5H71.1136V3.5ZM78.8409 3.5H82.7046V2.5H78.8409V3.5ZM86.5682 3.5H88.5V2.5H86.5682V3.5Z" fill="#828282"/>
</svg>
