<svg width="24" height="21" viewBox="0 0 24 21" fill="none" xmlns="http://www.w3.org/2000/svg">
<path id="Vector" d="M24 7.5V12.501C24 12.645 23.955 12.768 23.859 12.858C23.763 12.948 23.646 12.999 23.502 12.999H22.002V19.5C22.002 19.917 21.858 20.271 21.564 20.562C21.273 20.853 20.916 21 20.502 21H3.498C3.081 21 2.727 20.856 2.436 20.562C2.145 20.271 1.998 19.914 1.998 19.5V13.002H0.498C0.354 13.002 0.231 12.957 0.141 12.861C0.0449999 12.765 0 12.648 0 12.504V7.5C0 7.356 0.0449999 7.233 0.141 7.143C0.237 7.047 0.354 7.002 0.498 7.002H7.374C6.405 7.002 5.58 6.66 4.896 5.979C4.212 5.295 3.873 4.47 3.873 3.501C3.873 2.532 4.215 1.707 4.896 1.023C5.58 0.339 6.405 0 7.374 0C8.487 0 9.363 0.402 9.999 1.203L12 3.783L14.001 1.203C14.634 0.402 15.513 0 16.626 0C17.595 0 18.42 0.342 19.104 1.023C19.788 1.707 20.127 2.532 20.127 3.501C20.127 4.47 19.785 5.295 19.104 5.979C18.42 6.663 17.595 7.002 16.626 7.002H23.502C23.646 7.002 23.769 7.047 23.859 7.143C23.952 7.236 24 7.356 24 7.5ZM7.374 5.001H10.419L8.451 2.484C8.181 2.163 7.821 2.001 7.374 2.001C6.957 2.001 6.603 2.145 6.312 2.439C6.021 2.73 5.874 3.087 5.874 3.501C5.874 3.918 6.018 4.272 6.312 4.563C6.603 4.854 6.957 5.001 7.374 5.001ZM14.499 18.189V6.999H9.498V18.183C9.498 18.444 9.594 18.642 9.78 18.783C9.966 18.924 10.206 18.993 10.5 18.993H13.5C13.791 18.993 14.031 18.924 14.22 18.783C14.403 18.651 14.499 18.45 14.499 18.189ZM17.688 4.563C17.979 4.272 18.126 3.915 18.126 3.501C18.126 3.084 17.982 2.73 17.688 2.439C17.397 2.148 17.04 2.001 16.626 2.001C16.179 2.001 15.819 2.163 15.549 2.484L13.596 5.001H16.626C17.04 5.001 17.394 4.854 17.688 4.563Z" fill="#6D727D"/>
</svg>
