<svg width="15" height="15" viewBox="0 0 15 15" fill="none" xmlns="http://www.w3.org/2000/svg">
<g id="wallet-03">
<path id="Icon" d="M10.125 8.97331H10.1308M2.25 3.72331V11.89C2.25 12.5343 2.77233 13.0566 3.41667 13.0566H11.5833C12.2277 13.0566 12.75 12.5343 12.75 11.89V6.05664C12.75 5.41231 12.2277 4.88997 11.5833 4.88997L3.41667 4.88997C2.77233 4.88997 2.25 4.36764 2.25 3.72331ZM2.25 3.72331C2.25 3.07897 2.77233 2.55664 3.41667 2.55664H10.4167M10.4167 8.97331C10.4167 9.13439 10.2861 9.26497 10.125 9.26497C9.96392 9.26497 9.83333 9.13439 9.83333 8.97331C9.83333 8.81222 9.96392 8.68164 10.125 8.68164C10.2861 8.68164 10.4167 8.81222 10.4167 8.97331Z" stroke="#F5F5F5" stroke-linecap="round" stroke-linejoin="round"/>
</g>
</svg>
