<svg data-v-7b2df2c7="" fill="currentColor" xmlns="http://www.w3.org/2000/svg" width="25" height="25" viewBox="0 0 25 25" class="w-24px h-24px color-[var(--Gray-100)]"><path fill-rule="evenodd" clip-rule="evenodd" d="M8.68872 10.26C8.68872 8.03726 10.483 6.22998 12.7187 6.22998C14.9429 6.22998 16.7487 8.03577 16.7487 10.26V10.2642C16.7365 12.4326 15.0309 14.2057 12.8643 14.2795C12.8203 14.281 12.7762 14.2787 12.7327 14.2724C12.737 14.2731 12.7378 14.273 12.735 14.2728C12.7337 14.2727 12.732 14.2727 12.7299 14.2726C12.7278 14.2725 12.7253 14.2725 12.7225 14.2725C12.7102 14.2725 12.6988 14.2733 12.6917 14.2742C12.6524 14.2791 12.6128 14.2809 12.5732 14.2795C10.4103 14.2058 8.68872 12.4354 8.68872 10.26ZM12.7187 7.72998C11.3144 7.72998 10.1887 8.8627 10.1887 10.26C10.1887 11.6088 11.2424 12.7085 12.5774 12.7784C12.6693 12.7709 12.7674 12.7702 12.8627 12.7782C14.1919 12.7072 15.24 11.6118 15.2487 10.2579C15.2476 8.86305 14.1138 7.72998 12.7187 7.72998Z"></path><path fill-rule="evenodd" clip-rule="evenodd" d="M10.6718 23.3054C5.71375 22.3495 1.96875 17.9871 1.96875 12.75C1.96875 6.81294 6.78169 2 12.7188 2C18.6558 2 23.4688 6.81294 23.4688 12.75C23.4688 17.9759 19.7398 22.3308 14.7976 23.2991C14.1253 23.431 13.4303 23.5001 12.7188 23.5001C12.0184 23.5001 11.3342 23.4332 10.6718 23.3054ZM3.46875 12.75C3.46875 7.64137 7.61012 3.5 12.7188 3.5C17.8274 3.5 21.9688 7.64137 21.9688 12.75C21.9688 15.0236 21.1485 17.1056 19.7877 18.7162C19.4254 18.037 18.8498 17.4273 18.1075 16.9278L18.1058 16.9267C16.5961 15.9166 14.6421 15.4351 12.7263 15.4351C10.8102 15.4351 8.85235 15.9166 7.33379 16.9253L7.33006 16.9278C6.58775 17.4273 6.01212 18.037 5.6498 18.7163C4.28904 17.1056 3.46875 15.0236 3.46875 12.75ZM15.376 21.6126C14.5344 21.8646 13.6424 22 12.7188 22C11.7998 22 10.9122 21.866 10.0743 21.6165C8.85848 21.2538 7.74838 20.6466 6.79714 19.8501C6.9649 19.2859 7.39541 18.6923 8.16561 18.1736C9.38686 17.363 11.0382 16.9351 12.7263 16.9351C14.415 16.9351 16.0606 17.3634 17.2709 18.1728C18.0417 18.6918 18.4726 19.2857 18.6404 19.8501C17.6925 20.6438 16.5868 21.2495 15.376 21.6126Z"></path></svg>