<svg width="20" height="15" viewBox="0 0 20 15" fill="none" xmlns="http://www.w3.org/2000/svg">
<g id="Frame 2131327710">
<path id="Vector" d="M16.6198 1.48198C15.3668 0.908336 14.0441 0.501371 12.6853 0.271484C12.4994 0.603867 12.3312 0.945844 12.1813 1.29598C10.734 1.07789 9.26216 1.07789 7.81483 1.29598C7.66492 0.94588 7.49668 0.603907 7.31083 0.271484C5.95121 0.503312 4.62758 0.911244 3.37333 1.48498C0.883329 5.16898 0.208329 8.76148 0.545829 12.303C2.00404 13.3804 3.63618 14.1997 5.37133 14.7255C5.76203 14.2 6.10776 13.6425 6.40483 13.059C5.84058 12.8482 5.29598 12.5882 4.77733 12.282C4.91383 12.183 5.04733 12.081 5.17633 11.982C6.68548 12.6917 8.33263 13.0597 10.0003 13.0597C11.668 13.0597 13.3152 12.6917 14.8243 11.982C14.9548 12.0885 15.0883 12.1905 15.2233 12.282C14.7037 12.5887 14.1581 12.8492 13.5928 13.0605C13.8895 13.6438 14.2353 14.2008 14.6263 14.7255C16.363 14.2019 17.9964 13.3829 19.4548 12.3045C19.8508 8.19748 18.7783 4.63798 16.6198 1.48198ZM6.83233 10.125C5.89183 10.125 5.11483 9.27148 5.11483 8.22148C5.11483 7.17148 5.86483 6.31048 6.82933 6.31048C7.79383 6.31048 8.56483 7.17148 8.54833 8.22148C8.53183 9.27148 7.79083 10.125 6.83233 10.125ZM13.1683 10.125C12.2263 10.125 11.4523 9.27148 11.4523 8.22148C11.4523 7.17148 12.2023 6.31048 13.1683 6.31048C14.1343 6.31048 14.8993 7.17148 14.8828 8.22148C14.8663 9.27148 14.1268 10.125 13.1683 10.125Z" fill="#5865F2"/>
</g>
</svg>
