<svg fill="currentColor" xmlns="http://www.w3.org/2000/svg" width="33" height="33" viewBox="0 0 33 33" class="w-28px h-28px"><path fill-rule="evenodd" clip-rule="evenodd" d="M29.8346 16.6706C29.8346 15.7251 29.7481 14.8161 29.5873 13.9433H16.7734V19.1009H24.0956C23.7802 20.7676 22.8216 22.1797 21.3807 23.1251V26.4706H25.7777C28.3504 24.1494 29.8346 20.7312 29.8346 16.6706Z" fill="#4285F4"></path><path fill-rule="evenodd" clip-rule="evenodd" d="M16.7734 29.7008C20.4469 29.7008 23.5267 28.507 25.7777 26.4706L21.3807 23.1251C20.1624 23.9251 18.604 24.3978 16.7734 24.3978C13.2298 24.3978 10.2304 22.0523 9.16056 18.9008H4.6151V22.3554C6.85381 26.7129 11.4549 29.7008 16.7734 29.7008Z" fill="#34A853"></path><path fill-rule="evenodd" clip-rule="evenodd" d="M9.16056 18.9008C8.88845 18.1008 8.73383 17.2464 8.73383 16.3676C8.73383 15.4888 8.88844 14.6342 9.16055 13.8342V10.3797H4.61509C3.69363 12.1797 3.16797 14.2161 3.16797 16.3676C3.16797 18.5191 3.69364 20.5554 4.6151 22.3554L9.16056 18.9008Z" fill="#FBBC05"></path><path fill-rule="evenodd" clip-rule="evenodd" d="M16.7734 8.3372C18.771 8.3372 20.5644 9.00993 21.9744 10.3311L25.8767 6.5069C23.5205 4.35539 20.4407 3.03418 16.7734 3.03418C11.4549 3.03418 6.85381 6.02212 4.61509 10.3797L9.16055 13.8342C10.2304 10.6827 13.2298 8.3372 16.7734 8.3372Z" fill="#EA4335"></path></svg>