<svg width="43" height="43" viewBox="0 0 43 43" fill="none" xmlns="http://www.w3.org/2000/svg">
<g id="Frame 1912056819">
<g id="Group 1312319606">
<path id="Vector" d="M26.7059 15.5H16.3059C15.8641 15.5 15.5059 15.8581 15.5059 16.2999V26.7C15.5059 27.1419 15.8641 27.5001 16.3059 27.5001H26.7059C27.1477 27.5001 27.506 27.1419 27.506 26.7V16.2999C27.506 15.8581 27.1477 15.5 26.7059 15.5Z" fill="white"/>
<path id="Vector_2" d="M14.7 3.5H4.30006C3.85825 3.5 3.5 3.85808 3.5 4.30006V14.7C3.5 15.1419 3.85825 15.5001 4.30006 15.5001H14.7C15.142 15.5001 15.5001 15.1419 15.5001 14.7V4.30006C15.5001 3.85808 15.142 3.5 14.7 3.5Z" fill="white"/>
<path id="Vector_3" d="M38.7022 3.5H28.302C27.8602 3.5 27.502 3.85808 27.502 4.30006V14.7C27.502 15.1419 27.8602 15.5001 28.302 15.5001H38.7022C39.144 15.5001 39.5021 15.1419 39.5021 14.7V4.30006C39.5021 3.85808 39.144 3.5 38.7022 3.5Z" fill="white"/>
<path id="Vector_4" d="M14.7 27.5H4.30006C3.85825 27.5 3.5 27.8581 3.5 28.2999V38.7C3.5 39.1419 3.85825 39.5001 4.30006 39.5001H14.7C15.142 39.5001 15.5001 39.1419 15.5001 38.7V28.2999C15.5001 27.8581 15.142 27.5 14.7 27.5Z" fill="white"/>
<path id="Vector_5" d="M38.7022 27.5H28.302C27.8602 27.5 27.502 27.8581 27.502 28.2999V38.7C27.502 39.1419 27.8602 39.5001 28.302 39.5001H38.7022C39.144 39.5001 39.5021 39.1419 39.5021 38.7V28.2999C39.5021 27.8581 39.144 27.5 38.7022 27.5Z" fill="white"/>
</g>
</g>
</svg>
