<svg width="10" height="12" viewBox="0 0 10 12" fill="#464646" xmlns="http://www.w3.org/2000/svg">
<g id="Group 1420070309">
<path id="Vector" d="M4.88229 11.5886L8.99872 5.41274C9.05155 5.33336 9.08191 5.24117 9.08657 5.14593C9.09124 5.05069 9.07003 4.95597 9.02521 4.87181C8.98039 4.78765 8.91363 4.71719 8.832 4.66791C8.75038 4.61862 8.65693 4.59236 8.56158 4.59189H5.32308V0.703744C5.32303 0.590387 5.28651 0.480054 5.21892 0.389051C5.15133 0.298047 5.05626 0.231201 4.94775 0.198391C4.83925 0.165581 4.72307 0.168547 4.61638 0.206852C4.50969 0.245156 4.41815 0.316767 4.3553 0.411101L0.238866 6.58696C0.185925 6.66651 0.155557 6.75893 0.150993 6.85438C0.14643 6.94982 0.167844 7.04472 0.212953 7.12896C0.258063 7.2132 0.325179 7.28362 0.407151 7.33273C0.489124 7.38183 0.582881 7.40779 0.678437 7.40782H3.91451V11.296C3.91495 11.409 3.95163 11.5189 4.01915 11.6095C4.08668 11.7001 4.18149 11.7667 4.28966 11.7995C4.39782 11.8322 4.51364 11.8294 4.6201 11.7914C4.72655 11.7535 4.81924 11.6824 4.88229 11.5886Z"/>
</g>
</svg>
