<svg width="16px" height="16px" viewBox="0 0 16 16" xmlns="http://www.w3.org/2000/svg" fill="#676E70" color="#676E70"><path d="M8 15C9.10449 15 10 14.5527 10 14H6C6 14.2598 6.19824 14.4961 6.52246 14.6738C6.8877 14.875 7.41406 15 8 15Z"></path><path fill-rule="evenodd" clip-rule="evenodd" d="M12.2005 13.3333L13.8848 15.0176L15.0161 13.8862L2.13137 1.00144L1 2.13281L2.84149 3.9743C2.72749 4.40819 2.66678 4.86367 2.66678 5.33333V10.6667L1.3658 11.9676C0.861829 12.4716 1.21876 13.3333 1.93149 13.3333H12.2005ZM13.3334 10.2034L4.46759 1.33754C5.40836 0.505219 6.64524 0 8.00012 0C10.9456 0 13.3334 2.38781 13.3334 5.33333V10.2034Z"></path></svg>