<svg width="14" height="16" viewBox="0 0 14 16" fill="none" xmlns="http://www.w3.org/2000/svg">
<path id="Vector" d="M6.99995 0C9.37813 0 11.3025 0.450679 13.3361 1.25196C13.7226 1.38546 14 1.76946 14 2.22848V8.76366C14 12.2024 9.10086 15.0903 7.45382 15.8915C7.31935 15.9667 7.13447 16 6.99995 16C6.8656 16 6.6891 15.9583 6.54624 15.8915C4.89918 15.0903 0 12.2108 0 8.76366V2.22848C0 1.77779 0.277309 1.39384 0.663876 1.25198C2.68903 0.450679 4.62189 0 6.99995 0ZM10.1973 4.47245L5.90377 8.73687L3.78352 6.63104C3.42425 6.27418 2.84166 6.27418 2.48231 6.63104C2.12302 6.98796 2.12302 7.56654 2.48231 7.92345L5.25315 10.6755C5.61246 11.0324 6.19507 11.0324 6.5544 10.6755L11.4985 5.76487C11.8578 5.408 11.8578 4.82936 11.4985 4.47245C11.1392 4.11559 10.5566 4.11559 10.1973 4.47245Z" fill="white"/>
</svg>
