<svg width="33" height="33" viewBox="0 0 33 33" fill="none" xmlns="http://www.w3.org/2000/svg">
<g id="Sol">
<path id="Vector" d="M6.81929 22.7643C6.99896 22.5776 7.24265 22.4727 7.49678 22.4727H30.8388C31.2645 22.4727 31.4784 23.0073 31.1776 23.322L26.5644 28.1103C26.385 28.2955 26.1422 28.3995 25.8892 28.3995H2.54712C2.45283 28.3991 2.36077 28.3697 2.28247 28.3151C2.20418 28.2606 2.14312 28.1832 2.10696 28.0928C2.07079 28.0024 2.06112 27.9029 2.07917 27.8068C2.09721 27.7107 2.14216 27.6222 2.20838 27.5525L6.82152 22.7619L6.81929 22.7643Z" fill="#B04BEC"/>
<path id="Vector_2" d="M6.82244 4.8873C7.00358 4.70297 7.24633 4.59849 7.49993 4.5957H30.842C31.2676 4.5957 31.4816 5.1303 31.1807 5.44505L26.5676 10.2333C26.3881 10.4185 26.1454 10.5225 25.8923 10.5226H2.55027C2.4555 10.5232 2.36271 10.4945 2.28372 10.4401C2.20473 10.3858 2.14313 10.3082 2.10679 10.2173C2.07044 10.1264 2.06099 10.0263 2.07964 9.92985C2.0983 9.83336 2.14421 9.74483 2.21153 9.67556L6.82467 4.88499L6.82244 4.8873Z" fill="#30CDB7"/>
<path id="Vector_3" d="M26.5698 13.7756C26.3898 13.5898 26.1461 13.4858 25.8923 13.4863H2.55027C2.4555 13.4857 2.36271 13.5144 2.28372 13.5688C2.20473 13.6232 2.14313 13.7007 2.10679 13.7916C2.07044 13.8825 2.06099 13.9826 2.07964 14.0791C2.0983 14.1756 2.14421 14.2641 2.21153 14.3334L6.82467 19.1216C7.00415 19.3069 7.24689 19.4108 7.49993 19.4109H30.842C30.9368 19.4115 31.0295 19.3828 31.1085 19.3285C31.1875 19.2741 31.2491 19.1965 31.2855 19.1056C31.3218 19.0147 31.3313 18.9147 31.3126 18.8182C31.294 18.7217 31.248 18.6332 31.1807 18.5639L26.5676 13.7733L26.5698 13.7756Z" fill="#718CD2"/>
</g>
</svg>
