<svg data-v-b2c484b4="" fill="currentColor" xmlns="http://www.w3.org/2000/svg" width="21" height="21" viewBox="0 0 21 21"><path d="M9.14805 10.8354C8.7731 10.3828 8.33835 9.98321 7.85574 9.64769C6.93389 8.98443 6.18704 8.10708 5.67948 7.09116C5.17193 6.07523 4.91887 4.95118 4.9421 3.81576H4.50744C4.34557 3.80195 4.19479 3.72789 4.08491 3.60824C3.97503 3.48858 3.91406 3.33205 3.91406 3.1696C3.91406 3.00715 3.97503 2.85061 4.08491 2.73096C4.19479 2.61131 4.34557 2.53725 4.50744 2.52344H16.4908C16.6526 2.53725 16.8034 2.61131 16.9133 2.73096C17.0232 2.85061 17.0842 3.00715 17.0842 3.1696C17.0842 3.33205 17.0232 3.48858 16.9133 3.60824C16.8034 3.72789 16.6526 3.80195 16.4908 3.81576H16.0561C16.0859 4.95224 15.8358 6.07861 15.3277 7.09563C14.8196 8.11264 14.0692 8.98907 13.1425 9.64767C12.6827 10.0108 12.2507 10.4078 11.8502 10.8354C12.2507 11.2627 12.6827 11.6593 13.1425 12.022C14.0791 12.6709 14.8371 13.5454 15.3464 14.5647C15.8556 15.5841 16.0997 16.7153 16.0561 17.8539H16.4908C16.6526 17.8678 16.8034 17.9418 16.9132 18.0615C17.0231 18.1811 17.084 18.3376 17.084 18.5001C17.084 18.6625 17.0231 18.819 16.9132 18.9387C16.8034 19.0583 16.6526 19.1324 16.4908 19.1462H4.50742C4.34558 19.1324 4.19482 19.0583 4.08496 18.9387C3.9751 18.819 3.91414 18.6625 3.91414 18.5001C3.91414 18.3376 3.9751 18.1811 4.08496 18.0615C4.19482 17.9418 4.34558 17.8678 4.50742 17.8539H4.9421C4.90998 16.7171 5.15912 15.5899 5.66741 14.5725C6.17569 13.5551 6.92739 12.679 7.85571 12.022C8.33799 11.687 8.77271 11.2882 9.14803 10.8366L9.14805 10.8354ZM6.23446 17.8539H6.77487L10.2289 14.3987C10.3093 14.3464 10.4032 14.3186 10.4991 14.3186C10.5951 14.3186 10.6889 14.3464 10.7694 14.3987L14.2234 17.8539H14.7638C14.7873 16.9005 14.5717 15.9563 14.1367 15.1075C13.7016 14.2587 13.061 13.5324 12.2731 12.9948C11.6513 12.4707 11.0773 11.8924 10.5579 11.2666C9.99842 11.8991 9.38089 12.4777 8.71338 12.9948C7.92926 13.5353 7.29206 14.2625 6.85928 15.1108C6.4265 15.9591 6.21177 16.9019 6.23447 17.8539H6.23446ZM7.31531 7.1629H13.8944C14.5831 6.18692 14.9263 5.00894 14.8695 3.81577H6.23444C6.20628 5.02155 6.58725 6.20132 7.31529 7.1629H7.31531Z" fill="#F7A903"></path></svg><svg data-v-b2c484b4="" fill="currentColor" xmlns="http://www.w3.org/2000/svg" width="21" height="21" viewBox="0 0 21 21"><path d="M10.4694 19.6653C5.57938 19.6653 1.60938 15.6953 1.60938 10.8053C1.60938 5.91531 5.57938 1.94531 10.4694 1.94531C15.3594 1.94531 19.3294 5.91531 19.3294 10.8053C19.3294 15.6953 15.3594 19.6653 10.4694 19.6653ZM10.4694 3.50531C6.43938 3.50531 3.15938 6.78531 3.15938 10.8153C3.15938 14.8453 6.43938 18.1253 10.4694 18.1253C14.4994 18.1253 17.7794 14.8453 17.7794 10.8153C17.7794 6.78531 14.4994 3.50531 10.4694 3.50531Z" fill="#FF4A60"></path><path d="M10.7216 9.36461L10.4416 7.97461L10.1916 9.36461C9.91156 9.42461 9.63156 9.55461 9.41156 9.78461C8.83156 10.3646 8.83156 11.2846 9.41156 11.8646C9.99156 12.4446 10.9116 12.4446 11.4916 11.8646C12.0716 11.2846 12.0716 10.3646 11.4916 9.78461C11.2816 9.52461 11.0016 9.41461 10.7216 9.36461Z" fill="#FF4A60"></path><path d="M14.7206 6.52512C13.5806 5.35512 12.0506 4.74512 10.4406 4.74512C8.83063 4.74512 7.30062 5.38512 6.16062 6.52512C5.03062 7.66512 4.39062 9.19512 4.39062 10.8051C4.39062 12.4151 5.03062 13.9451 6.17062 15.0851C7.31062 16.2251 8.84063 16.8651 10.4506 16.8651C12.0606 16.8651 13.5906 16.2251 14.7306 15.0851C15.8706 13.9451 16.5106 12.4151 16.5106 10.8051C16.5006 9.19512 15.8606 7.66512 14.7206 6.52512ZM14.3106 14.6451L11.8706 12.2251C11.6206 12.4751 11.2906 12.6651 10.9506 12.7551L11.8406 16.0651C11.4006 16.1751 10.9206 16.2551 10.4206 16.2551C9.92062 16.2551 9.48063 16.1951 9.00063 16.0651L9.89062 12.7551C9.56063 12.6751 9.25063 12.5051 8.97062 12.2251L6.55063 14.6451C5.86063 13.9551 5.38063 13.0851 5.13063 12.2051L8.44063 11.3151C8.36063 10.9851 8.36063 10.6251 8.44063 10.2551L5.13063 9.36512C5.38063 8.47512 5.82063 7.61512 6.55063 6.92512L8.97062 9.33512C9.22062 9.08512 9.55063 8.89512 9.89062 8.80512L9.00063 5.50512C9.44063 5.39512 9.92062 5.31512 10.4206 5.31512C10.8906 5.31512 11.3606 5.37512 11.8406 5.50512L10.9506 8.81512C11.2806 8.89512 11.5906 9.06512 11.8706 9.34512L14.2906 6.92512C14.9806 7.61512 15.4606 8.45512 15.7106 9.36512L12.4006 10.2851C12.4806 10.6151 12.4806 10.9751 12.4006 11.3451L15.7106 12.2351C15.4706 13.1151 14.9706 13.9751 14.3106 14.6451Z" fill="#FF4A60"></path></svg>