<svg width="15" height="15" viewBox="0 0 15 15" fill="none" xmlns="http://www.w3.org/2000/svg">
<g id="coins-stacked-02">
<path id="Icon" d="M8.08464 3.72331C8.08464 4.36764 6.64822 4.88997 4.8763 4.88997C3.10439 4.88997 1.66797 4.36764 1.66797 3.72331M8.08464 3.72331C8.08464 3.07898 6.64822 2.55664 4.8763 2.55664C3.10439 2.55664 1.66797 3.07898 1.66797 3.72331M8.08464 3.72331V6.32331C7.37209 6.5373 6.91797 6.86102 6.91797 7.22331M1.66797 3.72331V10.7233C1.66797 11.3676 3.10439 11.89 4.8763 11.89C5.65192 11.89 6.36325 11.7899 6.91797 11.6233V7.22331M1.66797 6.05664C1.66797 6.70097 3.10439 7.22331 4.8763 7.22331C5.65192 7.22331 6.36325 7.12322 6.91797 6.95664M1.66797 8.38997C1.66797 9.03431 3.10439 9.55664 4.8763 9.55664C5.65192 9.55664 6.36325 9.45656 6.91797 9.28997M13.3346 7.22331C13.3346 7.86764 11.8982 8.38997 10.1263 8.38997C8.35439 8.38997 6.91797 7.86764 6.91797 7.22331M13.3346 7.22331C13.3346 6.57897 11.8982 6.05664 10.1263 6.05664C8.35439 6.05664 6.91797 6.57897 6.91797 7.22331M13.3346 7.22331V11.89C13.3346 12.5343 11.8982 13.0566 10.1263 13.0566C8.35439 13.0566 6.91797 12.5343 6.91797 11.89V7.22331M13.3346 9.55664C13.3346 10.201 11.8982 10.7233 10.1263 10.7233C8.35439 10.7233 6.91797 10.201 6.91797 9.55664" stroke="#F5F5F5" stroke-linecap="round" stroke-linejoin="round"/>
</g>
</svg>
