<svg width="21" height="21" viewBox="0 0 21 21" fill="none" xmlns="http://www.w3.org/2000/svg">
<g id="gg 1">
<path id="Vector" d="M17.3862 7.74229C16.824 8.08917 16.3584 8.57413 16.0328 9.15178C15.7073 9.72942 15.5324 10.3809 15.5247 11.0452C15.5269 11.7928 15.7467 12.5234 16.1568 13.1464C16.567 13.7694 17.1494 14.2575 17.832 14.5501C17.5629 15.4253 17.1646 16.2547 16.6505 17.0104C15.9149 18.0776 15.1457 19.1448 13.9753 19.1448C12.805 19.1448 12.504 18.4595 11.1553 18.4595C9.83999 18.4595 9.37181 19.1673 8.30174 19.1673C7.23166 19.1673 6.48493 18.1787 5.6266 16.9654C4.49282 15.2658 3.86971 13.2726 3.83203 11.2249C3.83203 7.85465 6.00564 6.0685 8.14568 6.0685C9.28266 6.0685 10.2301 6.82109 10.9435 6.82109C11.6234 6.82109 12.6824 6.02347 13.9753 6.02347C14.6401 6.00618 15.2989 6.15391 15.8937 6.45364C16.4885 6.75337 17.001 7.19592 17.3862 7.74229ZM13.3623 4.59681C13.9323 3.92107 14.2549 3.06869 14.2763 2.18206C14.2773 2.06517 14.2661 1.94851 14.2429 1.83398C13.2639 1.93037 12.3585 2.40066 11.7126 3.14839C11.1371 3.7972 10.8024 4.62682 10.7651 5.49625C10.7656 5.60198 10.7768 5.70739 10.7986 5.81082C10.8758 5.82552 10.9541 5.83306 11.0327 5.83333C11.4839 5.79715 11.9231 5.66887 12.3235 5.4563C12.724 5.24373 13.0775 4.95131 13.3623 4.59681Z" fill="white"/>
</g>
</svg>
