<svg width="21" height="21" viewBox="0 0 21 21" fill="none" xmlns="http://www.w3.org/2000/svg">
<g id="gg 1">
<g id="Group">
<path id="Vector" d="M16.5778 19.3197H4.42632C3.65836 19.3169 3.03767 18.6928 3.03906 17.9249V3.07451C3.03906 2.30591 3.6615 1.67969 4.42632 1.67969H12.5369V6.42863C12.5369 7.17833 13.1443 7.78565 13.894 7.78565H17.965V17.9249C17.965 18.6935 17.3426 19.3197 16.5778 19.3197ZM14.5731 9.82181H6.43098C6.0566 9.82181 5.7531 10.1253 5.7531 10.4997C5.7531 10.8741 6.0566 11.1776 6.43098 11.1776H14.5718C14.9302 11.156 15.2099 10.8593 15.2103 10.5003C15.2106 10.1413 14.9314 9.844 14.5731 9.82181ZM14.5731 12.5346H6.43098C6.05626 12.5346 5.75247 12.8384 5.75247 13.2131C5.75247 13.5878 6.05626 13.8916 6.43098 13.8916H14.5718C14.9352 13.8763 15.222 13.5774 15.2224 13.2137C15.2227 12.85 14.9365 12.5506 14.5731 12.5346ZM14.5731 15.2486H6.43098C6.0566 15.2486 5.7531 15.5522 5.7531 15.9265C5.7531 16.3009 6.0566 16.6044 6.43098 16.6044H14.5718C14.9302 16.5828 15.2099 16.2861 15.2103 15.9271C15.2106 15.568 14.9314 15.2708 14.5731 15.2486ZM13.894 5.75075V2.35883L17.2859 6.42989H14.5718C14.1915 6.44332 13.8798 6.13103 13.894 5.75075Z" fill="white"/>
</g>
</g>
</svg>
