<svg data-v-511e5ca1="" class="v-middle" xmlns="http://www.w3.org/2000/svg" width="25" height="24" viewBox="0 0 25 24" fill="none"><path data-v-511e5ca1="" d="M4.75092 6.75C4.75092 4.13 6.88092 2 9.50092 2C12.1209 2 14.2509 4.13 14.2509 6.75C14.2409 9.32 12.2309 11.4 9.67092 11.49H9.60092C9.54092 11.48 9.46092 11.48 9.38092 11.49C6.76092 11.4 4.75092 9.32 4.75092 6.75Z" fill="#22AFFF"></path><path data-v-511e5ca1="" d="M4.43094 14.1499C7.24094 12.2899 11.7909 12.2899 14.5809 14.1499C15.8409 14.9899 16.5309 16.1299 16.5409 17.3599C16.5409 18.5999 15.8409 19.7399 14.5809 20.5899C13.1809 21.5299 11.3409 21.9999 9.50094 21.9999C7.66094 21.9999 5.82094 21.5299 4.42094 20.5899C3.16094 19.7499 2.46094 18.6099 2.46094 17.3799C2.46094 16.1499 3.16094 14.9999 4.43094 14.1499Z" fill="#22AFFF"></path><path data-v-511e5ca1="" d="M20.4909 7.3401C20.6509 9.2801 19.2709 10.9801 17.3609 11.2101H17.3109C17.2509 11.2101 17.1909 11.2101 17.1409 11.2301C16.1709 11.2801 15.2809 10.9701 14.6109 10.4001C15.6409 9.4801 16.2309 8.1001 16.1109 6.6001C16.0409 5.7901 15.7609 5.0501 15.3409 4.4201C15.7209 4.2301 16.1609 4.1101 16.6109 4.0701C18.5709 3.9001 20.3209 5.3601 20.4909 7.3401Z" fill="#22AFFF"></path><path data-v-511e5ca1="" d="M20.7509 18.9699C21.7909 18.3999 22.4109 17.5599 22.4909 16.5899C22.5809 15.6299 22.1109 14.6999 21.1909 13.9599C19.4809 12.5799 16.7009 12.1499 14.4909 12.7899C15.3409 13.0999 16.1209 13.5199 16.7909 14.0499C17.9709 14.9999 18.5609 16.1899 18.4609 17.4299C18.3809 18.2899 17.9609 19.0999 17.2409 19.7499C18.4909 19.7799 19.7509 19.5199 20.7509 18.9699Z" fill="#22AFFF"></path></svg>