<svg width="489" height="313" viewBox="0 0 489 313" fill="none" xmlns="http://www.w3.org/2000/svg">
<path d="M181.027 25.6752C185.131 16.2788 198.459 16.2788 202.563 25.6751L261.225 159.993C264.615 167.755 258.928 176.445 250.457 176.445H133.133C124.663 176.445 118.975 167.755 122.365 159.993L181.027 25.6752Z" fill="#AEFFC2" stroke="black" stroke-width="0.5"/>
<path d="M188.833 33.4818C192.937 24.0855 206.265 24.0855 210.369 33.4818L269.031 167.799C272.421 175.562 266.733 184.252 258.263 184.252H140.939C132.469 184.252 126.781 175.562 130.171 167.799L188.833 33.4818Z" fill="black" stroke="black" stroke-width="0.5"/>
<path d="M182.291 76.3685L188.168 75.3311L188.343 76.3237L182.466 77.3611L182.291 76.3685ZM181.499 86.2404C182.904 85.7325 185.108 84.8722 187.236 84.0417L187.498 85.0677C185.593 85.8751 183.563 86.7047 182.096 87.3211L181.499 86.2404ZM181.087 73.5101L182.238 73.3071L184.446 85.8177L183.296 86.0207L181.087 73.5101ZM181.765 73.3905L188.194 72.2558L189.428 79.2516L183 80.3863L182.816 79.3464L188.095 78.4147L187.227 73.4987L181.949 74.4304L181.765 73.3905ZM185.921 79.172C187.119 81.9989 188.987 84.2038 191.518 84.8293C191.292 85.113 191.023 85.6153 190.902 85.9453C188.225 85.1344 186.289 82.7302 184.978 79.5336L185.921 79.172ZM189.24 79.6585L190.29 80.1719C189.552 81.147 188.589 82.2269 187.809 82.9656L186.963 82.4976C187.706 81.7329 188.712 80.5316 189.24 79.6585ZM175.365 74.5039L179.399 73.7919L179.588 74.8634L176.673 75.3779L178.923 88.1248L177.804 88.3223L175.365 74.5039ZM179.052 73.8531L179.273 73.8142L179.438 73.7363L180.327 74.0829C180.054 75.4797 179.679 77.2194 179.316 78.5671C180.823 79.6496 181.319 80.7154 181.492 81.6923C181.645 82.5589 181.554 83.2411 181.14 83.6554C180.931 83.8547 180.649 84.0021 180.323 84.092C179.969 84.2033 179.528 84.2811 179.129 84.3192C179.063 84.0383 178.885 83.5823 178.64 83.3006C179.058 83.2755 179.405 83.2143 179.686 83.1485C179.888 83.0966 180.068 83.016 180.209 82.8936C180.446 82.673 180.469 82.2466 180.367 81.761C180.214 80.8944 179.699 79.9129 178.253 78.9008C178.631 77.3557 178.94 75.3352 179.111 74.184L179.052 73.8531ZM199.649 71.0624C198.967 73.0024 197.473 75.492 195.683 77.2215C195.472 76.95 195.098 76.5774 194.814 76.3513C196.648 74.6791 198.214 72.0468 198.82 69.9577L199.954 69.7574C201.572 71.6491 204.03 73.4248 206.115 74.194C205.932 74.5351 205.739 75.0078 205.611 75.3878C203.479 74.4481 201.074 72.6955 199.649 71.0624ZM202.146 74.9922L203.327 74.7836L204.852 83.4181L203.67 83.6267L202.146 74.9922ZM197.784 75.7783L198.934 75.5753L199.337 77.86C199.666 79.7193 199.871 82.5424 197.664 84.9468C197.43 84.7281 197.007 84.4454 196.671 84.2934C198.737 82.1903 198.46 79.6072 198.182 78.0315L197.784 75.7783ZM193.894 70.5835L195.074 70.7327C194.506 73.5948 193.354 76.5441 191.963 78.6092C191.79 78.3636 191.348 77.7917 191.08 77.5628C192.37 75.7591 193.434 73.1342 193.894 70.5835ZM192.973 74.9379L193.878 73.6245L193.912 73.6347L195.934 85.0896L194.8 85.2899L192.973 74.9379ZM213.274 70.477L214.503 70.2601L216.481 81.4629L215.252 81.6798L213.274 70.477ZM210.085 74.2244L210.383 75.9104L219.254 74.3446L218.956 72.6586L210.085 74.2244ZM209.621 71.5931L209.918 73.279L218.789 71.7132L218.491 70.0273L209.621 71.5931ZM208.292 70.7877L219.527 68.8047L220.645 75.1388L209.41 77.1218L208.292 70.7877ZM208.178 78.8829L222.28 76.3937L222.475 77.4967L208.373 79.9858L208.178 78.8829ZM209.279 68.3714L210.204 67.7207C210.96 68.3185 211.873 69.1647 212.302 69.755L211.341 70.4771C210.927 69.8839 210.038 68.9849 209.279 68.3714ZM216.665 66.5804L218.013 66.7648C217.561 67.8844 216.973 69.158 216.502 69.9884L215.425 69.7725C215.871 68.8976 216.411 67.5351 216.665 66.5804Z" fill="white"/>
<mask id="path-4-inside-1_3712_4519" fill="white">
<path fill-rule="evenodd" clip-rule="evenodd" d="M0.750441 137.387L0 137.522L56.6722 201.877L489 124.121L432.328 59.7661L14.0657 134.992V123.955H0.107467L0 137.364L0.750441 137.387Z"/>
</mask>
<path fill-rule="evenodd" clip-rule="evenodd" d="M0.750441 137.387L0 137.522L56.6722 201.877L489 124.121L432.328 59.7661L14.0657 134.992V123.955H0.107467L0 137.364L0.750441 137.387Z" fill="black"/>
<path d="M0 137.522L-0.0885081 137.03L-0.961353 137.187L-0.37524 137.853L0 137.522ZM0.750441 137.387L0.838949 137.879L0.765846 136.887L0.750441 137.387ZM56.6722 201.877L56.297 202.207L56.4833 202.419L56.7607 202.369L56.6722 201.877ZM489 124.121L489.088 124.613L489.961 124.456L489.375 123.79L489 124.121ZM432.328 59.7661L432.703 59.4357L432.517 59.2241L432.239 59.274L432.328 59.7661ZM14.0657 134.992H13.5657V135.59L14.1542 135.485L14.0657 134.992ZM14.0657 123.955H14.5657V123.455H14.0657V123.955ZM0.107467 123.955V123.455H-0.388542L-0.392517 123.951L0.107467 123.955ZM0 137.364L-0.499984 137.36L-0.503901 137.849L-0.0154052 137.864L0 137.364ZM0.0885081 138.014L0.838949 137.879L0.661933 136.895L-0.0885081 137.03L0.0885081 138.014ZM57.0474 201.546L0.37524 137.192L-0.37524 137.853L56.297 202.207L57.0474 201.546ZM488.911 123.628L56.5837 201.385L56.7607 202.369L489.088 124.613L488.911 123.628ZM431.953 60.0966L488.625 124.451L489.375 123.79L432.703 59.4357L431.953 60.0966ZM14.1542 135.485L432.416 60.2582L432.239 59.274L13.9772 134.5L14.1542 135.485ZM13.5657 123.955V134.992H14.5657V123.955H13.5657ZM0.107467 124.455H14.0657V123.455H0.107467V124.455ZM0.499984 137.368L0.60745 123.959L-0.392517 123.951L-0.499984 137.36L0.499984 137.368ZM0.765846 136.887L0.0154052 136.864L-0.0154052 137.864L0.735036 137.887L0.765846 136.887Z" fill="white" mask="url(#path-4-inside-1_3712_4519)"/>
<path d="M0 123.663L0.677224 123.954V137.796L0 137.473V123.663Z" fill="white"/>
<rect x="56.2639" y="186.406" width="0.763858" height="14.7459" fill="black"/>
<rect x="475.883" y="110.076" width="12.8673" height="13.8425" fill="black"/>
<path d="M488.319 110.336L488.996 110.206L488.997 124.075L488.105 123.954L488.319 110.336Z" fill="white"/>
<rect x="0.411275" y="0.143367" width="438.765" height="85.251" transform="matrix(0.984208 -0.177014 0.660892 0.750481 -0.0882552 123.754)" fill="black" stroke="white" stroke-width="0.5"/>
<path d="M266.032 95.0697C270.136 85.6734 283.464 85.6734 287.568 95.0697L346.23 229.387C349.62 237.149 343.932 245.84 335.462 245.84H218.138C209.668 245.84 203.98 237.15 207.37 229.387L266.032 95.0697Z" fill="#AEFFC2" stroke="black" stroke-width="0.5"/>
<path d="M273.839 102.877C277.943 93.4805 291.271 93.4805 295.375 102.877L354.037 237.194C357.427 244.957 351.739 253.647 343.269 253.647H225.945C217.474 253.647 211.787 244.957 215.177 237.194L273.839 102.877Z" fill="black" stroke="black" stroke-width="0.5"/>
<mask id="path-13-inside-2_3712_4519" fill="white">
<path fill-rule="evenodd" clip-rule="evenodd" d="M386.861 256.229C386.861 256.207 386.861 256.185 386.861 256.163C386.861 256.141 386.861 256.119 386.861 256.097V245.772H382.176C375.926 239.34 364.051 234.997 350.43 234.997C336.81 234.997 324.935 239.34 318.684 245.772H313.999V257.317H314.053C315.084 268.47 330.977 277.329 350.43 277.329C369.884 277.329 385.777 268.47 386.808 257.317H386.861V256.229Z"/>
</mask>
<path fill-rule="evenodd" clip-rule="evenodd" d="M386.861 256.229C386.861 256.207 386.861 256.185 386.861 256.163C386.861 256.141 386.861 256.119 386.861 256.097V245.772H382.176C375.926 239.34 364.051 234.997 350.43 234.997C336.81 234.997 324.935 239.34 318.684 245.772H313.999V257.317H314.053C315.084 268.47 330.977 277.329 350.43 277.329C369.884 277.329 385.777 268.47 386.808 257.317H386.861V256.229Z" fill="black"/>
<path d="M386.861 256.229L386.361 256.227V256.229H386.861ZM386.861 256.097H386.361L386.361 256.099L386.861 256.097ZM386.861 245.772H387.361V245.272H386.861V245.772ZM382.176 245.772L381.818 246.121L381.965 246.272H382.176V245.772ZM318.684 245.772V246.272H318.896L319.043 246.121L318.684 245.772ZM313.999 245.772V245.272H313.499V245.772H313.999ZM313.999 257.317H313.499V257.817H313.999V257.317ZM314.053 257.317L314.55 257.271L314.508 256.817H314.053V257.317ZM386.808 257.317V256.817H386.352L386.31 257.271L386.808 257.317ZM386.861 257.317V257.817H387.361V257.317H386.861ZM386.361 256.163C386.361 256.184 386.361 256.205 386.361 256.227L387.361 256.232C387.361 256.209 387.361 256.186 387.361 256.163H386.361ZM386.361 256.099C386.361 256.12 386.361 256.142 386.361 256.163H387.361C387.361 256.14 387.361 256.117 387.361 256.094L386.361 256.099ZM386.361 245.772V256.097H387.361V245.772H386.361ZM382.176 246.272H386.861V245.272H382.176V246.272ZM350.43 235.497C363.967 235.497 375.692 239.817 381.818 246.121L382.535 245.424C376.159 238.863 364.134 234.497 350.43 234.497V235.497ZM319.043 246.121C325.169 239.817 336.893 235.497 350.43 235.497V234.497C336.726 234.497 324.701 238.863 318.326 245.424L319.043 246.121ZM313.999 246.272H318.684V245.272H313.999V246.272ZM314.499 257.317V245.772H313.499V257.317H314.499ZM314.053 256.817H313.999V257.817H314.053V256.817ZM350.43 276.829C340.774 276.829 332.023 274.629 325.575 271.068C319.113 267.499 315.045 262.614 314.55 257.271L313.555 257.363C314.092 263.173 318.485 268.294 325.091 271.943C331.711 275.599 340.633 277.829 350.43 277.829V276.829ZM386.31 257.271C385.816 262.614 381.747 267.499 375.286 271.068C368.837 274.629 360.087 276.829 350.43 276.829V277.829C360.228 277.829 369.15 275.599 375.769 271.943C382.375 268.294 386.769 263.173 387.306 257.363L386.31 257.271ZM386.861 256.817H386.808V257.817H386.861V256.817ZM386.361 256.229V257.317H387.361V256.229H386.361Z" fill="white" mask="url(#path-13-inside-2_3712_4519)"/>
<path d="M386.61 243.933C386.61 249.675 382.618 254.92 376.064 258.744C369.515 262.563 360.453 264.934 350.429 264.934C340.405 264.934 331.342 262.563 324.794 258.744C318.24 254.92 314.248 249.675 314.248 243.933C314.248 238.19 318.24 232.945 324.794 229.121C331.342 225.302 340.405 222.931 350.429 222.931C360.453 222.931 369.515 225.302 376.064 229.121C382.618 232.945 386.61 238.19 386.61 243.933Z" fill="black" stroke="white" stroke-width="0.5"/>
<mask id="path-16-inside-3_3712_4519" fill="white">
<path fill-rule="evenodd" clip-rule="evenodd" d="M124.305 146.553C124.305 146.534 124.305 146.515 124.305 146.495C124.305 146.476 124.305 146.457 124.305 146.438V136.106H119.621C113.371 129.673 101.495 125.33 87.8742 125.33C74.253 125.33 62.3777 129.673 56.1272 136.106H51.4431V147.651H51.4966C52.5289 158.803 68.421 167.661 87.8742 167.661C107.327 167.661 123.22 158.803 124.252 147.651H124.305V146.553Z"/>
</mask>
<path fill-rule="evenodd" clip-rule="evenodd" d="M124.305 146.553C124.305 146.534 124.305 146.515 124.305 146.495C124.305 146.476 124.305 146.457 124.305 146.438V136.106H119.621C113.371 129.673 101.495 125.33 87.8742 125.33C74.253 125.33 62.3777 129.673 56.1272 136.106H51.4431V147.651H51.4966C52.5289 158.803 68.421 167.661 87.8742 167.661C107.327 167.661 123.22 158.803 124.252 147.651H124.305V146.553Z" fill="black"/>
<path d="M124.305 146.553L123.805 146.55V146.553H124.305ZM124.305 146.438H123.805L123.805 146.441L124.305 146.438ZM124.305 136.106H124.805V135.606H124.305V136.106ZM119.621 136.106L119.263 136.454L119.41 136.606H119.621V136.106ZM56.1272 136.106V136.606H56.3386L56.4858 136.454L56.1272 136.106ZM51.4431 136.106V135.606H50.9431V136.106H51.4431ZM51.4431 147.651H50.9431V148.151H51.4431V147.651ZM51.4966 147.651L51.9944 147.604L51.9524 147.151H51.4966V147.651ZM124.252 147.651V147.151H123.796L123.754 147.604L124.252 147.651ZM124.305 147.651V148.151H124.805V147.651H124.305ZM123.805 146.495C123.805 146.514 123.805 146.532 123.805 146.55L124.805 146.555C124.805 146.535 124.805 146.515 124.805 146.495H123.805ZM123.805 146.441C123.805 146.459 123.805 146.477 123.805 146.495H124.805C124.805 146.476 124.805 146.456 124.805 146.436L123.805 146.441ZM123.805 136.106V146.438H124.805V136.106H123.805ZM119.621 136.606H124.305V135.606H119.621V136.606ZM87.8742 125.83C101.412 125.83 113.137 130.15 119.263 136.454L119.98 135.757C113.604 129.196 101.579 124.83 87.8742 124.83V125.83ZM56.4858 136.454C62.6114 130.15 74.3364 125.83 87.8742 125.83V124.83C74.1695 124.83 62.144 129.196 55.7686 135.757L56.4858 136.454ZM51.4431 136.606H56.1272V135.606H51.4431V136.606ZM51.9431 147.651V136.106H50.9431V147.651H51.9431ZM51.4966 147.151H51.4431V148.151H51.4966V147.151ZM87.8742 167.161C78.2181 167.161 69.4676 164.962 63.0193 161.4C56.558 157.832 52.489 152.948 51.9944 147.604L50.9987 147.697C51.5365 153.506 55.9298 158.627 62.5358 162.276C69.155 165.932 78.0772 168.161 87.8742 168.161V167.161ZM123.754 147.604C123.259 152.948 119.19 157.832 112.729 161.4C106.281 164.962 97.5304 167.161 87.8742 167.161V168.161C97.6713 168.161 106.593 165.932 113.213 162.276C119.819 158.627 124.212 153.506 124.75 147.697L123.754 147.604ZM124.305 147.151H124.252V148.151H124.305V147.151ZM123.805 146.553V147.651H124.805V146.553H123.805Z" fill="white" mask="url(#path-16-inside-3_3712_4519)"/>
<path d="M124.055 134.266C124.055 140.008 120.063 145.253 113.509 149.077C106.961 152.896 97.8981 155.267 87.8742 155.267C77.8504 155.267 68.7877 152.896 62.2396 149.077C55.6853 145.253 51.6932 140.008 51.6932 134.266C51.6932 128.523 55.6853 123.278 62.2396 119.454C68.7877 115.635 77.8504 113.264 87.8742 113.264C97.8981 113.264 106.961 115.635 113.509 119.454C120.063 123.278 124.055 128.523 124.055 134.266Z" fill="black" stroke="white" stroke-width="0.5"/>
<mask id="path-19-inside-4_3712_4519" fill="white">
<path fill-rule="evenodd" clip-rule="evenodd" d="M133.525 119.421H138.209V130.966H138.156C137.123 142.119 121.231 150.977 101.778 150.977C82.325 150.977 66.4331 142.119 65.4003 130.966H65.347V129.861C65.347 129.844 65.3469 129.828 65.3469 129.811C65.3469 129.794 65.347 129.778 65.347 129.761V119.421H70.0304C76.2808 112.988 88.1563 108.645 101.778 108.645C115.4 108.645 127.275 112.988 133.525 119.421Z"/>
</mask>
<path fill-rule="evenodd" clip-rule="evenodd" d="M133.525 119.421H138.209V130.966H138.156C137.123 142.119 121.231 150.977 101.778 150.977C82.325 150.977 66.4331 142.119 65.4003 130.966H65.347V129.861C65.347 129.844 65.3469 129.828 65.3469 129.811C65.3469 129.794 65.347 129.778 65.347 129.761V119.421H70.0304C76.2808 112.988 88.1563 108.645 101.778 108.645C115.4 108.645 127.275 112.988 133.525 119.421Z" fill="black"/>
<path d="M133.525 119.421L133.167 119.77L133.314 119.921H133.525V119.421ZM138.209 119.421H138.709V118.921H138.209V119.421ZM138.209 130.966V131.466H138.709V130.966H138.209ZM138.156 130.966V130.466H137.7L137.658 130.92L138.156 130.966ZM65.4003 130.966L65.8982 130.92L65.8561 130.466H65.4003V130.966ZM65.347 130.966H64.847V131.466H65.347V130.966ZM65.347 129.861H65.847L65.847 129.859L65.347 129.861ZM65.347 129.761L65.847 129.763V129.761H65.347ZM65.347 119.421V118.921H64.847V119.421H65.347ZM70.0304 119.421V119.921H70.2418L70.389 119.77L70.0304 119.421ZM133.525 119.921H138.209V118.921H133.525V119.921ZM137.709 119.421V130.966H138.709V119.421H137.709ZM138.209 130.466H138.156V131.466H138.209V130.466ZM137.658 130.92C137.163 136.263 133.094 141.147 126.633 144.716C120.184 148.277 111.434 150.477 101.778 150.477V151.477C111.575 151.477 120.497 149.247 127.116 145.591C133.722 141.943 138.115 136.822 138.653 131.013L137.658 130.92ZM101.778 150.477C92.1219 150.477 83.3715 148.277 76.9233 144.716C70.462 141.147 66.393 136.263 65.8982 130.92L64.9024 131.013C65.4404 136.822 69.8338 141.943 76.4398 145.591C83.0589 149.247 91.981 151.477 101.778 151.477V150.477ZM65.4003 130.466H65.347V131.466H65.4003V130.466ZM65.847 130.966V129.861H64.847V130.966H65.847ZM65.847 129.859C65.847 129.843 65.8469 129.827 65.8469 129.811H64.8469C64.8469 129.828 64.847 129.846 64.847 129.863L65.847 129.859ZM65.8469 129.811C65.8469 129.795 65.847 129.779 65.847 129.763L64.847 129.759C64.847 129.776 64.8469 129.794 64.8469 129.811H65.8469ZM65.847 129.761V119.421H64.847V129.761H65.847ZM65.347 119.921H70.0304V118.921H65.347V119.921ZM70.389 119.77C76.5144 113.465 88.2397 109.145 101.778 109.145V108.145C88.0729 108.145 76.0471 112.511 69.6718 119.073L70.389 119.77ZM101.778 109.145C115.316 109.145 127.041 113.465 133.167 119.77L133.884 119.073C127.509 112.511 115.483 108.145 101.778 108.145V109.145Z" fill="white" mask="url(#path-19-inside-4_3712_4519)"/>
<path d="M137.959 117.582C137.959 123.325 133.967 128.57 127.412 132.393C120.864 136.213 111.802 138.583 101.778 138.583C91.754 138.583 82.6913 136.213 76.1432 132.393C69.5889 128.57 65.5968 123.325 65.5968 117.582C65.5968 111.839 69.5889 106.594 76.1432 102.771C82.6913 98.9512 91.754 96.5806 101.778 96.5806C111.802 96.5806 120.864 98.9512 127.412 102.771C133.967 106.594 137.959 111.839 137.959 117.582Z" fill="black" stroke="white" stroke-width="0.5"/>
<circle cx="42.4099" cy="42.4099" r="42.1599" transform="matrix(0.866025 0.5 -0.866025 0.5 387.242 48.3882)" fill="#AEFFC2" stroke="black" stroke-width="0.5"/>
<circle cx="42.4099" cy="42.4099" r="42.1599" transform="matrix(0.866025 0.5 -0.866025 0.5 387.239 45.7627)" fill="#F5F6F6" stroke="black" stroke-width="0.5"/>
<rect width="69.2915" height="10.5032" transform="matrix(0.989651 -0.143493 0.633651 0.773619 351.067 90.5928)" fill="black"/>
<path d="M412.887 75.9873C412.887 92.961 399.639 106.705 383.316 106.705C366.994 106.705 353.746 92.961 353.746 75.9873C353.746 59.0136 366.994 45.27 383.316 45.27C399.639 45.27 412.887 59.0136 412.887 75.9873Z" fill="black" stroke="white" stroke-width="0.5"/>
<path d="M419.768 75.9873C419.768 92.961 406.52 106.705 390.198 106.705C373.875 106.705 360.627 92.961 360.627 75.9873C360.627 59.0136 373.875 45.27 390.198 45.27C406.52 45.27 419.768 59.0136 419.768 75.9873Z" fill="black" stroke="white" stroke-width="0.5"/>
<path fill-rule="evenodd" clip-rule="evenodd" d="M388.269 70.929L371.847 64.5239L372.723 68.084L386.248 73.2493L383.204 76.746L383.828 79.2844L388.178 80.981L378.563 91.8202L379.439 95.3807L391.014 82.087L407.437 88.492L406.561 84.9317L393.024 79.7787L396.079 76.27L395.455 73.7317L391.151 72.0531L400.72 61.195L399.844 57.6352L388.269 70.929ZM389.128 74.3489L392.813 75.7564L390.199 78.7032L386.524 77.3039L389.128 74.3489Z" fill="white"/>
<rect width="69.2915" height="10.5032" transform="matrix(0.989651 -0.143493 0.633651 0.773619 357.545 98.6895)" fill="#F5F6F6"/>
<rect width="69.2444" height="1.88096" transform="matrix(0.989651 -0.143493 0.633651 0.773619 357.731 98.6631)" fill="black"/>
<rect width="69.2915" height="10.5032" transform="matrix(0.989651 -0.143493 0.633651 0.773619 356.755 103.828)" fill="#F5F6F6"/>
<mask id="path-31-inside-5_3712_4519" fill="white">
<path fill-rule="evenodd" clip-rule="evenodd" d="M393.056 219.348H397.741V230.893H397.687C396.656 242.045 380.763 250.904 361.31 250.904C341.856 250.904 325.964 242.045 324.932 230.893H324.879V229.791C324.879 229.774 324.879 229.756 324.879 229.738C324.879 229.72 324.879 229.703 324.879 229.685V219.348H329.563C335.814 212.915 347.689 208.572 361.31 208.572C374.931 208.572 386.806 212.915 393.056 219.348Z"/>
</mask>
<path fill-rule="evenodd" clip-rule="evenodd" d="M393.056 219.348H397.741V230.893H397.687C396.656 242.045 380.763 250.904 361.31 250.904C341.856 250.904 325.964 242.045 324.932 230.893H324.879V229.791C324.879 229.774 324.879 229.756 324.879 229.738C324.879 229.72 324.879 229.703 324.879 229.685V219.348H329.563C335.814 212.915 347.689 208.572 361.31 208.572C374.931 208.572 386.806 212.915 393.056 219.348Z" fill="black"/>
<path d="M393.056 219.348L392.698 219.696L392.845 219.848H393.056V219.348ZM397.741 219.348H398.241V218.848H397.741V219.348ZM397.741 230.893V231.393H398.241V230.893H397.741ZM397.687 230.893V230.393H397.232L397.19 230.847L397.687 230.893ZM324.932 230.893L325.43 230.847L325.388 230.393H324.932V230.893ZM324.879 230.893H324.379V231.393H324.879V230.893ZM324.879 229.791H325.379L325.379 229.789L324.879 229.791ZM324.879 229.685L325.379 229.687V229.685H324.879ZM324.879 219.348V218.848H324.379V219.348H324.879ZM329.563 219.348V219.848H329.775L329.922 219.696L329.563 219.348ZM393.056 219.848H397.741V218.848H393.056V219.848ZM397.241 219.348V230.893H398.241V219.348H397.241ZM397.741 230.393H397.687V231.393H397.741V230.393ZM397.19 230.847C396.695 236.19 392.626 241.074 386.165 244.643C379.717 248.205 370.966 250.404 361.31 250.404V251.404C371.107 251.404 380.029 249.174 386.649 245.518C393.255 241.87 397.648 236.748 398.185 230.939L397.19 230.847ZM361.31 250.404C351.653 250.404 342.903 248.205 336.455 244.643C329.993 241.074 325.924 236.19 325.43 230.847L324.434 230.939C324.972 236.748 329.365 241.87 335.971 245.518C342.59 249.174 351.513 251.404 361.31 251.404V250.404ZM324.932 230.393H324.879V231.393H324.932V230.393ZM325.379 230.893V229.791H324.379V230.893H325.379ZM325.379 229.789C325.379 229.772 325.379 229.755 325.379 229.738H324.379C324.379 229.757 324.379 229.775 324.379 229.793L325.379 229.789ZM325.379 229.738C325.379 229.721 325.379 229.704 325.379 229.687L324.379 229.683C324.379 229.701 324.379 229.72 324.379 229.738H325.379ZM325.379 229.685V219.348H324.379V229.685H325.379ZM324.879 219.848H329.563V218.848H324.879V219.848ZM329.922 219.696C336.048 213.392 347.772 209.072 361.31 209.072V208.072C347.605 208.072 335.58 212.438 329.205 218.999L329.922 219.696ZM361.31 209.072C374.847 209.072 386.572 213.392 392.698 219.696L393.415 218.999C387.039 212.438 375.014 208.072 361.31 208.072V209.072Z" fill="white" mask="url(#path-31-inside-5_3712_4519)"/>
<path d="M397.492 217.507C397.492 223.25 393.5 228.495 386.945 232.318C380.397 236.138 371.335 238.509 361.311 238.509C351.287 238.509 342.224 236.138 335.676 232.318C329.122 228.495 325.13 223.25 325.13 217.507C325.13 211.765 329.122 206.52 335.676 202.696C342.224 198.876 351.287 196.506 361.311 196.506C371.335 196.506 380.397 198.876 386.945 202.696C393.5 206.52 397.492 211.765 397.492 217.507Z" fill="black" stroke="white" stroke-width="0.5"/>
<rect width="30.042" height="6.34678" transform="matrix(0.987688 -0.156434 0.567556 0.823335 80.1295 107.239)" fill="white"/>
<rect width="25.8753" height="8.30949" transform="matrix(-0.567556 -0.823335 0.987688 -0.156434 107.489 129.658)" fill="white"/>
<ellipse cx="19.6515" cy="5.25344" rx="19.6515" ry="5.25344" transform="matrix(0.987688 -0.156434 0.567556 0.823335 80.6173 116.071)" fill="white"/>
<ellipse cx="17.6864" cy="4.1277" rx="17.6864" ry="4.1277" transform="matrix(0.987688 -0.156434 0.567556 0.823335 82.9836 116.382)" fill="black"/>
<path d="M101.315 120.703L92.8022 108.354L101.009 107.054L109.599 119.515C109.599 119.515 107.103 119.91 105.496 120.165C103.888 120.419 101.315 120.703 101.315 120.703Z" fill="white"/>
<path d="M254.027 215.261H260.615V216.611H254.027V215.261ZM245.207 223.541H261.425V224.873H245.207V223.541ZM253.307 209.267H254.729V224.225H253.307V209.267ZM247.709 213.191H249.095V224.171H247.709V213.191ZM263.153 224.081H279.533V225.269H263.153V224.081ZM263.477 210.149H274.763V211.319H263.477V210.149ZM265.187 219.617H277.517V224.693H276.203V220.715H273.755V224.693H272.495V220.715H270.101V224.693H268.841V220.715H266.447V224.693H265.187V219.617ZM274.385 213.191H278.057V214.343H274.043L274.385 213.191ZM267.401 212.867H271.793V213.911H266.987L267.401 212.867ZM277.589 213.191H278.921C278.921 213.191 278.903 213.569 278.867 213.767C278.597 216.719 278.345 217.943 277.877 218.393C277.553 218.735 277.211 218.843 276.689 218.879C276.239 218.915 275.393 218.897 274.493 218.843C274.457 218.465 274.295 217.979 274.097 217.637C274.979 217.727 275.843 217.727 276.167 217.727C276.455 217.727 276.653 217.727 276.797 217.565C277.139 217.241 277.373 216.143 277.589 213.371V213.191ZM267.221 210.365L268.571 210.545C267.905 214.649 266.429 217.601 263.873 219.473C263.657 219.239 263.135 218.753 262.811 218.555C265.349 216.899 266.681 214.109 267.221 210.365ZM271.451 212.867H271.703L271.919 212.849L272.621 213.083C271.829 216.503 269.921 218.249 267.329 219.167C267.185 218.879 266.789 218.429 266.555 218.213C268.985 217.457 270.785 215.927 271.451 213.065V212.867ZM267.527 215.387L268.319 214.667C270.065 215.405 272.117 216.737 273.143 217.745L272.315 218.573C271.307 217.529 269.309 216.179 267.527 215.387ZM274.367 210.149H275.681C275.375 211.823 274.925 213.929 274.583 215.261L273.323 215.081C273.683 213.785 274.097 211.733 274.367 210.149ZM290.027 215.261H296.615V216.611H290.027V215.261ZM281.207 223.541H297.425V224.873H281.207V223.541ZM289.307 209.267H290.729V224.225H289.307V209.267ZM283.709 213.191H285.095V224.171H283.709V213.191ZM298.865 219.023C300.341 218.627 302.573 217.925 304.751 217.223L304.931 218.447C302.897 219.113 300.755 219.797 299.117 220.319L298.865 219.023ZM299.081 212.849H304.751V214.109H299.081V212.849ZM301.367 209.231H302.699V224.063C302.699 224.837 302.537 225.233 302.069 225.449C301.619 225.665 300.881 225.719 299.711 225.719C299.657 225.359 299.477 224.765 299.297 224.369C300.089 224.405 300.827 224.405 301.043 224.387C301.259 224.387 301.367 224.315 301.367 224.045V209.231ZM307.469 210.941V213.263H312.491V210.941H307.469ZM306.137 209.915H313.859V214.289H306.137V209.915ZM309.359 217.979H310.673V219.779C310.673 221.669 310.007 224.063 304.895 225.683C304.733 225.359 304.373 224.837 304.067 224.549C308.945 223.217 309.359 221.183 309.359 219.761V217.979ZM310.673 223.019L311.483 222.155C312.851 222.965 314.741 224.135 315.695 224.855L314.849 225.845C313.913 225.107 312.059 223.883 310.673 223.019ZM305.651 215.621H314.435V222.101H313.121V216.737H306.929V222.155H305.651V215.621Z" fill="white"/>
<path fill-rule="evenodd" clip-rule="evenodd" d="M359.078 213.036L345.086 208.441L345.76 211.181L357.287 214.879L354.587 217.657L355.068 219.61L358.774 220.827L350.253 229.443L350.927 232.183L361.191 221.621L375.183 226.215L374.509 223.475L362.973 219.787L365.681 216.999L365.201 215.046L361.534 213.842L370.015 205.212L369.341 202.474L359.078 213.036ZM359.741 215.667L362.881 216.674L360.565 219.017L357.433 218.015L359.741 215.667Z" fill="white"/>
<path d="M275.8 137.91H291.413L288.948 180.413H278.265L275.8 137.91Z" fill="white"/>
<circle cx="283.607" cy="190.821" r="6.07183" fill="white"/>
</svg>
