<svg data-v-b2c484b4="" fill="currentColor" xmlns="http://www.w3.org/2000/svg" width="21" height="21" viewBox="0 0 21 21"><path d="M10.4694 19.6653C5.57938 19.6653 1.60938 15.6953 1.60938 10.8053C1.60938 5.91531 5.57938 1.94531 10.4694 1.94531C15.3594 1.94531 19.3294 5.91531 19.3294 10.8053C19.3294 15.6953 15.3594 19.6653 10.4694 19.6653ZM10.4694 3.50531C6.43938 3.50531 3.15938 6.78531 3.15938 10.8153C3.15938 14.8453 6.43938 18.1253 10.4694 18.1253C14.4994 18.1253 17.7794 14.8453 17.7794 10.8153C17.7794 6.78531 14.4994 3.50531 10.4694 3.50531Z" fill="#FF4A60"></path><path d="M10.7216 9.36461L10.4416 7.97461L10.1916 9.36461C9.91156 9.42461 9.63156 9.55461 9.41156 9.78461C8.83156 10.3646 8.83156 11.2846 9.41156 11.8646C9.99156 12.4446 10.9116 12.4446 11.4916 11.8646C12.0716 11.2846 12.0716 10.3646 11.4916 9.78461C11.2816 9.52461 11.0016 9.41461 10.7216 9.36461Z" fill="#FF4A60"></path><path d="M14.7206 6.52512C13.5806 5.35512 12.0506 4.74512 10.4406 4.74512C8.83063 4.74512 7.30062 5.38512 6.16062 6.52512C5.03062 7.66512 4.39062 9.19512 4.39062 10.8051C4.39062 12.4151 5.03062 13.9451 6.17062 15.0851C7.31062 16.2251 8.84063 16.8651 10.4506 16.8651C12.0606 16.8651 13.5906 16.2251 14.7306 15.0851C15.8706 13.9451 16.5106 12.4151 16.5106 10.8051C16.5006 9.19512 15.8606 7.66512 14.7206 6.52512ZM14.3106 14.6451L11.8706 12.2251C11.6206 12.4751 11.2906 12.6651 10.9506 12.7551L11.8406 16.0651C11.4006 16.1751 10.9206 16.2551 10.4206 16.2551C9.92062 16.2551 9.48063 16.1951 9.00063 16.0651L9.89062 12.7551C9.56063 12.6751 9.25063 12.5051 8.97062 12.2251L6.55063 14.6451C5.86063 13.9551 5.38063 13.0851 5.13063 12.2051L8.44063 11.3151C8.36063 10.9851 8.36063 10.6251 8.44063 10.2551L5.13063 9.36512C5.38063 8.47512 5.82063 7.61512 6.55063 6.92512L8.97062 9.33512C9.22062 9.08512 9.55063 8.89512 9.89062 8.80512L9.00063 5.50512C9.44063 5.39512 9.92062 5.31512 10.4206 5.31512C10.8906 5.31512 11.3606 5.37512 11.8406 5.50512L10.9506 8.81512C11.2806 8.89512 11.5906 9.06512 11.8706 9.34512L14.2906 6.92512C14.9806 7.61512 15.4606 8.45512 15.7106 9.36512L12.4006 10.2851C12.4806 10.6151 12.4806 10.9751 12.4006 11.3451L15.7106 12.2351C15.4706 13.1151 14.9706 13.9751 14.3106 14.6451Z" fill="#FF4A60"></path></svg>