<svg fill="currentColor" xmlns="http://www.w3.org/2000/svg" width="49" height="49" viewBox="0 0 49 49"><circle cx="24.5" cy="24.1465" r="24" fill="#ECEEF3"></circle><path fill-rule="evenodd" clip-rule="evenodd" d="M17.5 12.1465C13.634 12.1465 10.5 15.1313 10.5 18.8132V29.4798C10.5 33.1617 13.634 36.1465 17.5 36.1465H31.5C35.366 36.1465 38.5 33.1617 38.5 29.4798V18.8132C38.5 15.1313 35.366 12.1465 31.5 12.1465H17.5ZM16.6825 17.981C16.2 17.6747 15.5481 17.7989 15.2265 18.2584C14.9048 18.7179 15.0352 19.3388 15.5177 19.6451L20.8114 23.0062C23.0451 24.4245 25.9551 24.4245 28.1889 23.0062L33.4825 19.6451C33.9651 19.3388 34.0954 18.7179 33.7738 18.2584C33.4521 17.7989 32.8002 17.6747 32.3177 17.981L27.024 21.3421C25.4957 22.3125 23.5046 22.3125 21.9762 21.3421L16.6825 17.981Z" fill="#212530"></path></svg>