<svg width="13" height="12" viewBox="0 0 13 12" fill="none" xmlns="http://www.w3.org/2000/svg">
<g id="Frame">
<path id="Vector" d="M2.26953 7.59766V8.23633C2.27188 9.40117 4.10352 10.3469 6.36406 10.3469C8.62344 10.3469 10.4563 9.40234 10.4586 8.23633V7.59766C9.69336 8.43672 8.16523 8.99805 6.36406 8.99805C4.56289 8.99805 3.03359 8.43672 2.26953 7.59766Z" fill="#FFCF39"/>
<path id="Vector_2" d="M9.72852 6.30742C9.71797 6.31328 9.70625 6.31914 9.69687 6.325C9.59023 6.38828 9.47773 6.44805 9.35938 6.50547C9.30078 6.53359 9.23867 6.55937 9.17773 6.58633C9.09102 6.62383 9.00312 6.66016 8.91172 6.69414C8.84844 6.71758 8.78516 6.74102 8.71953 6.76328C8.59766 6.8043 8.47227 6.84063 8.34453 6.87461C8.30117 6.88633 8.26016 6.89922 8.21562 6.90977C8.05625 6.94844 7.88984 6.98242 7.72109 7.01055C7.6625 7.02109 7.60273 7.02812 7.54297 7.0375C7.40938 7.05742 7.27461 7.07266 7.13633 7.08555C7.07773 7.09141 7.01914 7.09727 6.95938 7.10078C6.76484 7.11484 6.56797 7.12422 6.36523 7.12422C6.16367 7.12422 5.96562 7.11484 5.77109 7.10078C5.71133 7.09609 5.65273 7.09023 5.59414 7.08555C5.45586 7.07266 5.32109 7.05625 5.1875 7.0375C5.12773 7.0293 5.06797 7.02109 5.0082 7.01055C4.84063 6.98242 4.67539 6.94844 4.51719 6.90977C4.47148 6.89805 4.42813 6.88516 4.38359 6.87344C4.25586 6.83945 4.13047 6.80312 4.00977 6.76211C3.94414 6.73984 3.88086 6.71641 3.81758 6.69297C3.72617 6.65898 3.63828 6.62266 3.55156 6.58516C3.49063 6.5582 3.42852 6.53242 3.36992 6.5043C3.25273 6.44805 3.13906 6.38711 3.03242 6.32383C3.02188 6.31797 3.01016 6.31211 2.99961 6.30625C2.7125 6.13281 2.46523 5.93711 2.26953 5.72266V6.3625C2.26953 6.6168 2.36211 6.86055 2.52266 7.08555C2.52734 7.09258 2.53203 7.09844 2.53672 7.10547C2.57188 7.15352 2.61055 7.20156 2.65273 7.24844C2.65742 7.2543 2.66328 7.26016 2.66797 7.26484C2.84492 7.45703 3.07461 7.63164 3.35 7.78633C3.36875 7.79688 3.38633 7.80742 3.40625 7.81797C3.46133 7.84727 3.51758 7.87539 3.57617 7.90352C3.60664 7.91875 3.63828 7.93281 3.66992 7.94688C3.725 7.97148 3.78008 7.99609 3.83633 8.01836C3.87617 8.03477 3.91602 8.05 3.95703 8.06523C4.01094 8.08516 4.06484 8.10625 4.12109 8.125C4.17617 8.14375 4.23242 8.16016 4.28867 8.17773C4.3543 8.19766 4.42109 8.21758 4.49023 8.23633C4.57109 8.25859 4.6543 8.27852 4.73867 8.29844C4.7832 8.30781 4.82891 8.31719 4.87344 8.32539C4.94375 8.33945 5.01523 8.35352 5.08789 8.36641C5.13477 8.37461 5.18281 8.38164 5.23086 8.38867C5.30586 8.39922 5.38086 8.40977 5.45703 8.41914C5.50391 8.425 5.55078 8.42969 5.59883 8.43438C5.68203 8.44258 5.76758 8.44844 5.85312 8.4543C5.89414 8.45664 5.93516 8.46016 5.97617 8.4625C6.10391 8.46836 6.23281 8.47305 6.36289 8.47305C6.49414 8.47305 6.62187 8.46953 6.74961 8.4625C6.79062 8.46016 6.83164 8.45664 6.87266 8.4543C6.9582 8.44844 7.04258 8.44258 7.12695 8.43438C7.175 8.42969 7.22187 8.42383 7.26875 8.41914C7.34492 8.40977 7.41992 8.40039 7.49492 8.38867C7.54297 8.38164 7.59102 8.37461 7.63789 8.36641C7.71055 8.35469 7.78203 8.34063 7.85234 8.32539C7.89805 8.31602 7.94375 8.30781 7.98711 8.29844C8.07148 8.27969 8.15352 8.25859 8.23555 8.23633C8.30352 8.21758 8.37031 8.19883 8.43711 8.17773C8.49336 8.16016 8.55078 8.14375 8.60469 8.125C8.66094 8.10625 8.71484 8.08516 8.76875 8.06523C8.80977 8.05 8.84961 8.03477 8.88945 8.01836C8.94687 7.99492 9.00195 7.97148 9.05586 7.94688C9.0875 7.93281 9.11797 7.91758 9.14961 7.90352C9.20703 7.87539 9.26445 7.84727 9.31953 7.81797L9.37578 7.78633C9.65117 7.63164 9.88086 7.45703 10.0578 7.26484C10.0637 7.25898 10.0684 7.25313 10.0742 7.24727C10.1164 7.20039 10.1551 7.15352 10.1902 7.10547C10.1949 7.09844 10.1996 7.09141 10.2043 7.08555C10.3648 6.85938 10.4574 6.6168 10.4574 6.3625V5.72383C10.2629 5.93945 10.0168 6.13516 9.72852 6.30742Z" fill="#FFCF39"/>
<path id="Vector_3" d="M10.4586 3.76133C10.4586 2.59414 8.62578 1.64844 6.36406 1.64844C4.10234 1.64844 2.26953 2.59414 2.26953 3.76133V4.48906C2.26953 4.74336 2.36211 4.98711 2.52266 5.21211C2.52734 5.21914 2.53203 5.225 2.53672 5.23203C2.57188 5.28008 2.61055 5.32812 2.65273 5.375C2.65742 5.38086 2.66328 5.38672 2.66797 5.39141C2.84492 5.58359 3.07461 5.7582 3.35 5.91289L3.40625 5.94453C3.46133 5.97383 3.51758 6.00195 3.57617 6.03008C3.60664 6.04531 3.63711 6.05938 3.66875 6.07344C3.72383 6.09805 3.77891 6.12266 3.83633 6.14609C3.875 6.1625 3.91602 6.17656 3.95586 6.1918C4.01094 6.21289 4.06484 6.23281 4.12109 6.25273C4.175 6.27148 4.23125 6.28789 4.2875 6.3043C4.33906 6.31953 4.38828 6.33594 4.44102 6.35C4.44336 6.35 4.44453 6.35117 4.44688 6.35117C4.46211 6.35586 4.47852 6.35937 4.49492 6.36289C4.57461 6.38398 4.65547 6.40508 4.73867 6.42383C4.75625 6.42734 4.77383 6.43203 4.79258 6.43555L4.83125 6.44258C4.84531 6.44492 4.85938 6.44727 4.87344 6.45078C4.94375 6.46484 5.01523 6.47891 5.08789 6.4918C5.1125 6.49648 5.13594 6.50117 5.16172 6.50469C5.18516 6.5082 5.20977 6.51055 5.2332 6.51406C5.30703 6.52461 5.38203 6.53516 5.45703 6.54336C5.4875 6.54687 5.5168 6.55156 5.54727 6.55508C5.56602 6.55742 5.58477 6.55742 5.60352 6.55977C5.68555 6.56797 5.76875 6.57383 5.85312 6.57969C5.88594 6.58203 5.91641 6.58555 5.94922 6.58672C5.95977 6.58672 5.96914 6.58672 5.97969 6.58789C6.10625 6.59375 6.23398 6.59727 6.36406 6.59727C6.49414 6.59727 6.62188 6.59375 6.74844 6.58789C6.75898 6.58789 6.76836 6.58789 6.77891 6.58672C6.81172 6.58555 6.84219 6.58203 6.875 6.57969C6.95937 6.57383 7.04258 6.56797 7.12461 6.55977C7.14336 6.55742 7.16211 6.55742 7.18086 6.55508C7.21133 6.55156 7.24062 6.54687 7.27109 6.54336C7.34609 6.53398 7.42109 6.52461 7.49492 6.51406C7.51836 6.51055 7.54297 6.5082 7.56641 6.50469C7.59102 6.50117 7.61562 6.49531 7.64023 6.4918C7.71289 6.48008 7.78437 6.46601 7.85469 6.45078C7.86875 6.44844 7.88281 6.44609 7.8957 6.44258C7.90859 6.44023 7.92266 6.43789 7.93672 6.43437C7.9543 6.43086 7.97188 6.42617 7.99063 6.42266C8.07383 6.40391 8.15469 6.38281 8.23438 6.36172C8.24961 6.35703 8.26719 6.35352 8.28242 6.35C8.28477 6.35 8.28594 6.34883 8.28828 6.34883C8.34102 6.33477 8.39023 6.31836 8.4418 6.30312C8.49805 6.28555 8.5543 6.26914 8.6082 6.25156C8.66445 6.23281 8.71836 6.21172 8.77344 6.19063C8.81328 6.17539 8.8543 6.16016 8.89297 6.14492C8.95039 6.12148 9.00547 6.09687 9.06055 6.07227C9.09219 6.0582 9.12266 6.04297 9.15312 6.02891C9.21055 6.00078 9.26797 5.97266 9.32305 5.94336C9.34297 5.93281 9.36055 5.92227 9.3793 5.91172C9.65469 5.75703 9.88437 5.58242 10.0613 5.39023C10.0672 5.38437 10.0719 5.37852 10.0777 5.37266C10.1199 5.32578 10.1586 5.27891 10.1938 5.23086C10.1984 5.22383 10.2031 5.2168 10.2078 5.21094C10.3684 4.98477 10.4609 4.74219 10.4609 4.48789V3.76133H10.4586Z" fill="#FFCF39"/>
</g>
</svg>
