<svg data-v-735c024a="" fill="currentColor" xmlns="http://www.w3.org/2000/svg" width="21" height="20" viewBox="0 0 21 20"><path d="M14.2347 12.4337C16.8347 12.042 18.8347 9.80033 18.8347 7.08366C18.8347 4.09199 16.4097 1.66699 13.418 1.66699C10.7014 1.66699 8.4597 3.66699 8.06803 6.26699H8.09303C11.3514 6.52533 13.9764 9.15033 14.2347 12.3837V12.4337Z" fill="#fff"></path><path fill-rule="evenodd" clip-rule="evenodd" d="M8.01797 7.51699C10.6596 7.72533 12.7763 9.84199 12.9846 12.4837C12.993 12.6253 13.0013 12.7753 13.0013 12.917C13.0013 15.9087 10.5763 18.3337 7.58464 18.3337C4.59297 18.3337 2.16797 15.9087 2.16797 12.917C2.16797 9.92533 4.59297 7.50033 7.58464 7.50033C7.7263 7.50033 7.8763 7.50866 8.01797 7.51699ZM7.58464 15.0003L8.31797 13.6503L9.66797 12.917L8.31797 12.1837L7.58464 10.8337L6.8513 12.1837L5.5013 12.917L6.8513 13.6503L7.58464 15.0003Z" fill="#fff"></path></svg>