<svg width="20" height="20" viewBox="0 0 20 20" fill="none" xmlns="http://www.w3.org/2000/svg">
<g id="Interface essential/Tag">
<g id="Icon">
<path d="M6.31649 7.56667C7.00685 7.56667 7.56649 7.00703 7.56649 6.31667C7.56649 5.62632 7.00685 5.06667 6.31649 5.06667C5.62614 5.06667 5.06649 5.62632 5.06649 6.31667C5.06649 7.00703 5.62614 7.56667 6.31649 7.56667Z" fill="white"/>
<path fill-rule="evenodd" clip-rule="evenodd" d="M9.29983 1.68334H9.23316L4.23316 2.04167C3.06862 2.14588 2.1457 3.0688 2.04149 4.23334L1.67483 9.23334C1.62879 9.69341 1.78724 10.1505 2.10816 10.4833L9.14149 17.5167C9.43856 17.8028 9.83744 17.9588 10.2498 17.95C10.8807 17.9445 11.4823 17.6828 11.9165 17.225L17.2248 11.925C18.0494 11.2414 18.1788 10.0251 17.5165 9.18334L10.4415 2.10001C10.1429 1.81618 9.74506 1.66062 9.33316 1.66667L9.29983 1.68334ZM9.33316 3.02501C9.38198 3.00965 9.43434 3.00965 9.48316 3.02501L16.5248 10.0667C16.5929 10.379 16.4764 10.7028 16.2248 10.9L10.8998 16.225C10.7244 16.4153 10.483 16.5315 10.2248 16.55H10.0832L3.0665 9.47501C3.04408 9.41595 3.04408 9.35073 3.0665 9.29167L3.43316 4.29167C3.49858 3.83819 3.84838 3.47829 4.29983 3.40001L9.29983 3.04167L9.33316 3.02501Z" fill="white"/>
<path d="M6.31649 7.56667C7.00685 7.56667 7.56649 7.00703 7.56649 6.31667C7.56649 5.62632 7.00685 5.06667 6.31649 5.06667C5.62614 5.06667 5.06649 5.62632 5.06649 6.31667C5.06649 7.00703 5.62614 7.56667 6.31649 7.56667Z" stroke="white" stroke-width="0.6"/>
<path fill-rule="evenodd" clip-rule="evenodd" d="M9.29983 1.68334H9.23316L4.23316 2.04167C3.06862 2.14588 2.1457 3.0688 2.04149 4.23334L1.67483 9.23334C1.62879 9.69341 1.78724 10.1505 2.10816 10.4833L9.14149 17.5167C9.43856 17.8028 9.83744 17.9588 10.2498 17.95C10.8807 17.9445 11.4823 17.6828 11.9165 17.225L17.2248 11.925C18.0494 11.2414 18.1788 10.0251 17.5165 9.18334L10.4415 2.10001C10.1429 1.81618 9.74506 1.66062 9.33316 1.66667L9.29983 1.68334ZM9.33316 3.02501C9.38198 3.00965 9.43434 3.00965 9.48316 3.02501L16.5248 10.0667C16.5929 10.379 16.4764 10.7028 16.2248 10.9L10.8998 16.225C10.7244 16.4153 10.483 16.5315 10.2248 16.55H10.0832L3.0665 9.47501C3.04408 9.41595 3.04408 9.35073 3.0665 9.29167L3.43316 4.29167C3.49858 3.83819 3.84838 3.47829 4.29983 3.40001L9.29983 3.04167L9.33316 3.02501Z" stroke="white" stroke-width="0.6"/>
</g>
</g>
</svg>
