<svg width="15" height="15" viewBox="0 0 15 15" fill="none" xmlns="http://www.w3.org/2000/svg">
<g id="&#229;&#174;&#185;&#229;&#153;&#168; (20) 1" clip-path="url(#clip0_5056_16220)">
<g id="Clip path group">
<mask id="mask0_5056_16220" style="mask-type:luminance" maskUnits="userSpaceOnUse" x="0" y="0" width="15" height="15">
<g id="master_svg0_1801_02488">
<path id="Vector" d="M14.5 0.806641H0.5V14.8066H14.5V0.806641Z" fill="white"/>
</g>
</mask>
<g mask="url(#mask0_5056_16220)">
<g id="Group">
<g id="Group_2">
<path id="Vector_2" d="M7.50029 0.689798L13.5319 3.5391V8.42948C13.5319 11.0475 11.3825 13.7969 7.96317 14.7702L7.82014 14.8098L7.50029 14.8925L7.17665 14.8087C3.78486 13.9016 1.59903 11.2368 1.47392 8.63455L1.46978 8.52322L1.46875 3.53944L7.50029 0.689798ZM7.49995 1.83337L2.50238 4.19395L2.50376 8.50978C2.55684 10.6036 4.32597 12.8615 7.16218 13.7293L7.30005 13.7703L7.43998 13.8089L7.49961 13.8244L7.55682 13.8099C10.515 13.0186 12.3806 10.7542 12.4923 8.6311L12.4964 8.53012L12.4979 8.42948V4.19395L7.49995 1.83337ZM9.19154 5.66462L9.92256 6.39564L6.63244 9.68576L4.31736 7.37068L5.04838 6.63966L6.6321 8.22372L9.19154 5.66462Z" fill="#F5F5F5"/>
</g>
</g>
</g>
</g>
</g>
<defs>
<clipPath id="clip0_5056_16220">
<rect width="14" height="14" fill="white" transform="translate(0.5 0.806641)"/>
</clipPath>
</defs>
</svg>
