<svg width="18" height="18" viewBox="0 0 18 18" fill="none" xmlns="http://www.w3.org/2000/svg">

<path id="Vector" d="M12.3031 4.04492H5.13521C4.71736 4.04634 4.31711 4.21958 4.02227 4.52664C3.72744 4.83371 3.56209 5.24951 3.5625 5.68285V10.0287C3.5625 10.4618 3.72803 10.8772 4.02282 11.1839C4.31761 11.4906 4.71763 11.6636 5.13521 11.665H8.30898V12.7089H6.29024C6.18084 12.7089 6.07591 12.7539 5.99855 12.8342C5.92119 12.9144 5.87773 13.0232 5.87773 13.1367C5.87773 13.2501 5.92119 13.3589 5.99855 13.4392C6.07591 13.5194 6.18084 13.5645 6.29024 13.5645H11.1522C11.2616 13.5645 11.3666 13.5194 11.4439 13.4392C11.5213 13.3589 11.5647 13.2501 11.5647 13.1367C11.5647 13.0232 11.5213 12.9144 11.4439 12.8342C11.3666 12.7539 11.2616 12.7089 11.1522 12.7089H9.13091V11.665H12.3052C12.7224 11.6631 13.1218 11.4898 13.4161 11.1831C13.7103 10.8764 13.8755 10.4614 13.8753 10.0287V5.68285C13.8759 5.24956 13.7106 4.83375 13.4159 4.52668C13.1211 4.2196 12.7209 4.04634 12.3031 4.04492ZM13.0555 10.0287C13.0559 10.2361 12.9769 10.4352 12.8358 10.5822C12.6947 10.7292 12.5031 10.8121 12.3031 10.8127H5.13521C5.03614 10.8124 4.93808 10.792 4.84663 10.7525C4.75519 10.713 4.67214 10.6552 4.60223 10.5824C4.53232 10.5096 4.47693 10.4232 4.4392 10.3282C4.40148 10.2332 4.38217 10.1315 4.38237 10.0287V5.68285C4.3821 5.47545 4.46124 5.27643 4.60241 5.12953C4.74358 4.98263 4.93522 4.89987 5.13521 4.89944H12.3026C12.5026 4.89987 12.6942 4.98263 12.8354 5.12953C12.9766 5.27643 13.0557 5.47545 13.0555 5.68285V10.0287Z" fill="#959A9F"/>

</svg>
