<svg width="18" height="17" viewBox="0 0 18 17" fill="none" xmlns="http://www.w3.org/2000/svg">
<path id="Vector" d="M12.509 6.47528C11.0528 6.47528 9.6573 7.01966 8.62584 7.98427C7.59438 8.94888 7.01798 10.2669 7.01798 11.6421C7.01798 13.0174 7.59438 14.3354 8.62584 15.3C9.6573 16.2646 11.0528 16.809 12.509 16.809C13.9652 16.809 15.3607 16.2646 16.3921 15.3C17.4236 14.3354 18 13.0174 18 11.6421C18 8.79607 15.5427 6.47528 12.509 6.47528ZM15.0169 13.2657C14.936 13.7719 14.6427 14.8607 13.0348 14.9657V15.9303H11.9022V14.9753C11.2449 14.8798 10.5978 14.727 9.97079 14.5169L10.3146 13.2657C10.8202 13.4567 11.4978 13.6478 12.0742 13.7146C12.873 13.8006 13.4191 13.6478 13.4596 13.1034C13.5809 12.1483 10.0112 11.986 10.0517 10.2573C10.0112 8.98708 10.982 8.4427 11.9528 8.36629V7.37303H13.0854V8.32809C13.6517 8.32809 14.218 8.45225 14.7337 8.67191L14.4202 9.85618C13.9247 9.67472 13.409 9.51236 12.8124 9.51236C12.418 9.51236 11.5888 9.51236 11.5584 10.0185C11.5584 10.9067 13.1258 10.9449 13.6416 11.1551C14.0157 11.3079 14.2787 11.4511 14.5517 11.6994C15.0169 12.1292 15.1079 12.6927 15.0169 13.2657ZM6.75506 0C3.0236 0 0 1.41348 0 3.15169C0 4.88989 3.0236 6.30337 6.75506 6.30337C10.4865 6.30337 13.5101 4.88989 13.5101 3.15169C13.5101 1.41348 10.4966 0 6.75506 0ZM9.84944 4.14494C9.74831 4.45056 9.38427 5.1191 7.41236 5.18596V5.76854H6.01685V5.18596C5.21798 5.12865 4.4191 5.0427 3.63034 4.90899L4.04494 4.14494C4.6618 4.25955 5.49101 4.38371 6.20899 4.41236C7.18989 4.46011 7.8573 4.37416 7.91798 4.03989C8.05955 3.4573 3.6809 3.35225 3.71124 2.30169C3.66067 1.52809 4.86405 1.19382 6.06742 1.14607V0.544382H7.46292V1.12697C8.14045 1.12697 8.82809 1.20337 9.48539 1.33708L9.10112 2.06292C8.48427 1.94831 7.8573 1.85281 7.10899 1.85281C6.6236 1.85281 5.60225 1.85281 5.57191 2.16798C5.57191 2.70281 7.49326 2.74101 8.14045 2.86517C8.60562 2.96067 8.92921 3.05618 9.26292 3.19944C9.84944 3.44775 9.96067 3.79157 9.84944 4.14494ZM8.88877 7.12472C8.1809 7.22978 7.47303 7.28708 6.75506 7.28708C3.53933 7.28708 0.849438 6.23652 0.17191 4.83258C0.0606741 5.05225 0 5.29101 0 5.53933C0 7.27753 3.0236 8.69101 6.75506 8.69101C6.93708 8.69101 7.1191 8.68146 7.29101 8.68146C7.71573 8.06067 8.25169 7.53539 8.88877 7.12472ZM13.3382 6.25562C13.4596 6.0264 13.5202 5.78764 13.5303 5.52978C13.5303 5.29101 13.4697 5.05225 13.3584 4.83258C13.1157 5.33876 12.6101 5.78764 11.9225 6.16966C12.0236 6.16011 12.1146 6.15056 12.2056 6.15056C12.5899 6.15056 12.964 6.18876 13.3382 6.25562ZM6.75506 9.3691C3.53933 9.3691 0.849438 8.31854 0.17191 6.91461C0.0606741 7.13427 0 7.37303 0 7.6118C0 9.30225 2.8618 10.6871 6.44157 10.7635C6.53258 10.2669 6.68427 9.79888 6.89663 9.3691H6.75506ZM6.37079 11.432C3.32697 11.3556 0.829214 10.3337 0.17191 8.98708C0.0606741 9.20674 0 9.44551 0 9.69382C0 11.3938 2.89213 12.7787 6.50225 12.8455C6.41124 12.4539 6.36068 12.0528 6.36068 11.6517C6.36068 11.5753 6.37079 11.5084 6.37079 11.432ZM0.17191 11.0691C0.0606741 11.2888 0.0101124 11.5275 0 11.7663C0 13.5045 3.0236 14.918 6.75506 14.918C7.00787 14.918 7.25056 14.9084 7.49326 14.8989C7.16966 14.4787 6.90674 14.0107 6.71461 13.514C3.5191 13.514 0.859551 12.4635 0.17191 11.0691ZM8.08989 15.5388C7.65506 15.577 7.22023 15.5961 6.75506 15.5961C3.53933 15.5961 0.849438 14.5455 0.17191 13.1416C0.0606741 13.3612 0 13.6 0 13.8483C0 15.5865 3.0236 17 6.75506 17C7.8573 17 8.88876 16.8758 9.80899 16.6562C9.17191 16.3792 8.59551 15.9972 8.08989 15.5388Z" fill="black"/>
</svg>
