<svg width="14" height="15" viewBox="0 0 14 15" fill="none" xmlns="http://www.w3.org/2000/svg">
<g id="SVG">
<g id="Clip path group">
<mask id="mask0_5633_33856" style="mask-type:luminance" maskUnits="userSpaceOnUse" x="0" y="0" width="14" height="15">
<g id="clip0_9738_1914">
<path id="Vector" d="M14 0.5H0V14.5H14V0.5Z" fill="white"/>
</g>
</mask>
<g mask="url(#mask0_5633_33856)">
<g id="Group">
<g id="Clip path group_2">
<mask id="mask1_5633_33856" style="mask-type:luminance" maskUnits="userSpaceOnUse" x="0" y="0" width="14" height="14">
<g id="clip1_9738_1914">
<path id="Vector_2" d="M13.999 0.5H0.792969V13.706H13.999V0.5Z" fill="white"/>
</g>
</mask>
<g mask="url(#mask1_5633_33856)">
<g id="Group_2">
<path id="Vector_3" fill-rule="evenodd" clip-rule="evenodd" d="M8.29873 10.1858C6.80373 10.3158 4.35773 9.8928 2.69873 8.2328C0.378732 5.9128 0.631732 1.8998 1.11973 1.4108C1.60773 0.922797 5.62273 0.669797 7.94273 2.9888C9.60173 4.6488 10.0237 7.0948 9.89473 8.5888C10.7787 8.5088 11.9187 8.6418 12.6347 9.3578C13.0887 9.8118 13.3227 10.4228 13.4147 11.0318C12.6417 11.0118 11.6187 11.4818 11.4047 11.6958C11.1907 11.9098 10.7207 12.9328 10.7407 13.7058C10.1317 13.6138 9.52073 13.3798 9.06673 12.9258C8.35073 12.2088 8.21873 11.0688 8.29873 10.1858ZM3.52873 3.8188C3.45797 3.89766 3.37189 3.96128 3.27573 4.00577C3.17957 4.05026 3.07536 4.0747 2.96945 4.07759C2.86353 4.08048 2.75814 4.06176 2.6597 4.02258C2.56126 3.98339 2.47184 3.92456 2.39688 3.84967C2.32193 3.77479 2.26302 3.68542 2.22374 3.58701C2.18447 3.48861 2.16565 3.38323 2.16845 3.27732C2.17124 3.1714 2.19558 3.06717 2.23999 2.97097C2.2844 2.87477 2.34794 2.78863 2.42673 2.7178C2.5752 2.58434 2.76918 2.51289 2.96874 2.51815C3.1683 2.52341 3.35825 2.60499 3.49947 2.74609C3.64069 2.88718 3.72244 3.07705 3.72789 3.27661C3.73333 3.47617 3.66205 3.67021 3.52873 3.8188Z" fill="#F5F5F5"/>
</g>
</g>
</g>
</g>
</g>
</g>
</g>
</svg>
