<svg xmlns="http://www.w3.org/2000/svg" width="16px" height="16px" fill="#88D693" viewBox="0 0 16 16"><g clip-path="url(#clip0_9339_171)"><path d="M3.229 9.046L9.756 0 8.452 6.637h3.757a.2.2 0 01.162.317L5.844 16 7.03 9.363H3.39a.2.2 0 01-.161-.317z"></path><path fill-rule="evenodd" clip-rule="evenodd" d="M1.5 8a6.5 6.5 0 017.933-6.341L9.63.678A7.5 7.5 0 004.9 14.832l.187-1.02A6.5 6.5 0 011.5 8zm4.663 6.237l-.174.99a7.5 7.5 0 004.781-14.2l-.231.987a6.502 6.502 0 01-4.376 12.223z"></path><path fill-rule="evenodd" clip-rule="evenodd" d="M6.711 1.63c.508-.133 1.013.827.681 1.602-.335.78.978-.978 1.497-1.866L7.023.813l-.312.818zm1.575 10.985c-.345.54-.673 1.897.343 1.85 1.052-.049-.925.19-2.074.124 0 0 2.075-2.513 1.73-1.974z"></path></g><defs><clipPath id="clip0_9339_171"><rect width="16" height="16"></rect></clipPath></defs></svg>