<svg width="12" height="12" viewBox="0 0 12 12" fill="none" xmlns="http://www.w3.org/2000/svg">
<g id="Frame">
<path id="Vector" d="M9.94495 8.25466C9.76264 7.22082 9.27803 6.17774 8.47518 5.53159C8.43058 5.49589 8.37443 5.47781 8.31738 5.48079C8.26033 5.48376 8.20636 5.50759 8.16572 5.54774C7.59502 6.11037 6.82559 6.42544 6.02418 6.42466C5.22262 6.42624 4.45289 6.11105 3.88264 5.54774C3.84156 5.50762 3.78727 5.48385 3.72992 5.48087C3.67258 5.4779 3.61612 5.49593 3.57111 5.53159C2.76803 6.17774 2.28341 7.22082 2.10111 8.25466C1.64649 10.8277 10.3998 10.8277 9.94495 8.25466ZM6.48341 8.7162C6.48363 8.77759 6.47173 8.83841 6.44841 8.89519C6.42509 8.95197 6.39079 9.0036 6.34749 9.04711C6.3042 9.09062 6.25274 9.12517 6.19608 9.14877C6.13941 9.17238 6.07864 9.18457 6.01726 9.18466C5.95588 9.18457 5.89511 9.17238 5.83844 9.14877C5.78178 9.12517 5.73032 9.09062 5.68703 9.04711C5.64373 9.0036 5.60943 8.95197 5.58611 8.89519C5.56279 8.83841 5.55089 8.77759 5.55111 8.7162V7.6362C5.55089 7.57482 5.56279 7.51399 5.58611 7.45721C5.60943 7.40043 5.64373 7.3488 5.68703 7.30529C5.73032 7.26178 5.78178 7.22723 5.83844 7.20363C5.89511 7.18003 5.95588 7.16783 6.01726 7.16774C6.07864 7.16783 6.13941 7.18003 6.19608 7.20363C6.25274 7.22723 6.3042 7.26178 6.34749 7.30529C6.39079 7.3488 6.42509 7.40043 6.44841 7.45721C6.47173 7.51399 6.48363 7.57482 6.48341 7.6362V8.7162Z" fill="#FFCF39"/>
<path id="Vector_2" d="M7.44082 5.10658C7.04683 5.45218 6.54061 5.64271 6.01652 5.64265C5.49233 5.64283 4.986 5.45229 4.59198 5.10658C4.35998 4.903 4.1741 4.65225 4.04676 4.3711C3.91941 4.08994 3.85353 3.78484 3.85352 3.47619C3.85455 2.90278 4.08275 2.35315 4.48815 1.94762C4.89354 1.54209 5.44311 1.31372 6.01652 1.3125C6.59008 1.31348 7.13988 1.54174 7.54548 1.9473C7.95108 2.35285 8.1794 2.90262 8.18044 3.47619C8.18028 3.78493 8.11422 4.09008 7.98667 4.37124C7.85913 4.65241 7.67303 4.9031 7.44082 5.10658Z" fill="#FFCF39"/>
</g>
</svg>
