<svg width="15" height="15" viewBox="0 0 15 15" fill="none" xmlns="http://www.w3.org/2000/svg">
<g id="SVG">
<path id="Vector" fill-rule="evenodd" clip-rule="evenodd" d="M1.80078 3.80742C1.80078 3.09134 2.08524 2.40458 2.59159 1.89823C3.09794 1.39189 3.7847 1.10742 4.50078 1.10742H11.5008V2.50742H4.50078C4.156 2.50742 3.82534 2.64439 3.58154 2.88818C3.33775 3.13198 3.20078 3.46264 3.20078 3.80742V11.8074C3.20078 12.1522 3.33775 12.4829 3.58154 12.7267C3.82534 12.9705 4.156 13.1074 4.50078 13.1074H11.5008V14.5074H4.50078C4.14621 14.5074 3.79511 14.4376 3.46754 14.3019C3.13996 14.1662 2.84231 13.9673 2.59159 13.7166C2.34087 13.4659 2.14199 13.1682 2.00631 12.8407C1.87062 12.5131 1.80078 12.162 1.80078 11.8074V3.80742Z" fill="#F5F5F5"/>
<path id="Vector_2" fill-rule="evenodd" clip-rule="evenodd" d="M10.995 4.3125L13.995 7.3125C14.06 7.3775 14.1116 7.45467 14.1468 7.53961C14.1819 7.62454 14.2001 7.71557 14.2001 7.8075C14.2001 7.89943 14.1819 7.99046 14.1468 8.07539C14.1116 8.16033 14.06 8.2375 13.995 8.3025L10.995 11.3025L10.005 10.3125L11.81 8.5075H7V7.1075H11.81L10.005 5.3025L10.995 4.3125Z" fill="#F5F5F5"/>
</g>
</svg>
