<svg width="25" height="21" viewBox="0 0 25 21" fill="none" xmlns="http://www.w3.org/2000/svg">
<g id="gmgn344396 1" clip-path="url(#clip0_5405_24287)">
<g id="Clip path group">
<mask id="mask0_5405_24287" style="mask-type:luminance" maskUnits="userSpaceOnUse" x="0" y="0" width="25" height="21">
<g id="clip0_2764_34799">
<path id="Vector" d="M24.5 0.599609H0.5V20.5996H24.5V0.599609Z" fill="white"/>
</g>
</mask>
<g mask="url(#mask0_5405_24287)">
<g id="Group">
<path id="Vector_2" d="M14.4879 5.56818H9.09809C5.74337 5.56818 3.02384 8.3543 3.02384 11.7911C3.02384 15.2279 5.74337 18.014 9.09809 18.014H9.78249H10.4242H13.0549C13.7283 18.014 14.274 17.4548 14.274 16.765C14.274 16.0753 13.7283 15.5161 13.0549 15.5161H10.467H10.4242H9.5686C7.34905 15.5161 5.54768 13.8588 5.54768 11.8024C5.54768 9.74591 7.34905 8.06161 9.5686 8.06161L12.2983 8.0703L12.2984 8.06545H15.6849C15.6849 9.51816 14.4331 10.6957 12.8888 10.6957C12.8371 10.6957 12.7885 10.6942 12.7421 10.6916V10.6955H9.16224C8.55988 10.6955 8.07152 11.1958 8.07152 11.813C8.07152 12.4301 8.55988 12.9305 9.16224 12.9305H10.2103H10.4242H10.467H13.0549C15.1221 12.9305 16.7978 14.6473 16.7978 16.765C16.7978 18.8828 15.1221 20.5996 13.0549 20.5996H10.4242H9.09809C4.34952 20.5996 0.5 16.6559 0.5 11.7911C0.5 6.92632 4.34952 2.98259 9.09809 2.98259H11.9214H14.4879H16.9689C16.9689 4.39587 15.862 5.54361 14.4879 5.56712V5.56818ZM23.5842 4.23531H22.1129V5.87626C22.1129 6.01728 22.0014 6.1316 21.8638 6.1316H20.5352C20.3977 6.1316 20.2861 6.01728 20.2861 5.87626V4.23531H18.8512C18.7135 4.23531 18.602 4.12098 18.602 3.97996V2.7459C18.602 2.60488 18.7135 2.49068 18.8512 2.49068H20.2861V0.854952C20.2861 0.713934 20.3977 0.599609 20.5352 0.599609H21.8638C22.0014 0.599609 22.1129 0.713934 22.1129 0.854952V2.49068H23.5842C23.7218 2.49068 23.8333 2.60488 23.8333 2.7459V3.97996C23.8333 4.12098 23.7218 4.23531 23.5842 4.23531Z" fill="#00D198"/>
</g>
</g>
</g>
</g>
<defs>
<clipPath id="clip0_5405_24287">
<rect width="24" height="20" fill="white" transform="translate(0.5 0.599609)"/>
</clipPath>
</defs>
</svg>
