<svg width="32" height="32" viewBox="0 0 32 32" fill="none" xmlns="http://www.w3.org/2000/svg">
<g id="image-user-right">
<path id="Icon" d="M25.3307 10.668L29.3307 6.66797M29.3307 6.66797L25.3307 2.66797M29.3307 6.66797L21.3307 6.66797M29.3307 16.0013V22.9346C29.3307 25.1748 29.3307 26.295 28.8948 27.1506C28.5113 27.9032 27.8993 28.5152 27.1467 28.8987C26.291 29.3346 25.1709 29.3346 22.9307 29.3346H9.06406C6.82385 29.3346 5.70375 29.3346 4.8481 28.8987C4.09545 28.5152 3.48353 27.9032 3.10004 27.1506C2.66406 26.295 2.66406 25.1748 2.66406 22.9346V9.06797C2.66406 6.82776 2.66406 5.70765 3.10004 4.85201C3.48353 4.09936 4.09545 3.48744 4.8481 3.10394C5.70375 2.66797 6.82385 2.66797 9.06406 2.66797H15.9974M2.85807 26.5697C3.4836 24.3194 5.54748 22.668 7.99709 22.668H17.3304C18.5695 22.668 19.189 22.668 19.7042 22.7704C21.8199 23.1913 23.4738 24.8451 23.8946 26.9608C23.9971 27.476 23.9971 28.0956 23.9971 29.3346M18.6641 12.668C18.6641 15.6135 16.2762 18.0013 13.3307 18.0013C10.3852 18.0013 7.9974 15.6135 7.9974 12.668C7.9974 9.72245 10.3852 7.33464 13.3307 7.33464C16.2762 7.33464 18.6641 9.72245 18.6641 12.668Z" stroke="#F5F5F5" stroke-width="2" stroke-linecap="round" stroke-linejoin="round"/>
</g>
</svg>
