<svg width="20" height="20" viewBox="0 0 20 20" fill="none" xmlns="http://www.w3.org/2000/svg">
  <path fill-rule="evenodd" clip-rule="evenodd" d="M6.66659 2.5H13.3333C15.1742 2.5 16.6666 3.99238 16.6666 5.83333V10.8333C16.6666 14.5152 13.6818 17.5 9.99992 17.5V17.5C6.31802 17.5 3.33325 14.5152 3.33325 10.8333V5.83333C3.33325 3.99238 4.82564 2.5 6.66659 2.5Z" stroke="#FF9900" stroke-width="1.25" stroke-linecap="round" stroke-linejoin="round"/>
  <rect x="5.83325" y="6.66675" width="8.33333" height="3.33333" rx="0.833333" stroke="#FF9900" stroke-width="1.25" stroke-linecap="round" stroke-linejoin="round"/>
  <path d="M16.6667 5.83325H18.3334C18.7937 5.83325 19.1667 6.20635 19.1667 6.66659V9.16659C19.1667 9.62682 18.7937 9.99992 18.3334 9.99992H16.6667" stroke="#FF9900" stroke-width="1.25" stroke-linecap="round" stroke-linejoin="round"/>
  <path d="M3.33325 9.99992H1.66659C1.20635 9.99992 0.833252 9.62682 0.833252 9.16659V6.66659C0.833252 6.20635 1.20635 5.83325 1.66659 5.83325H3.33325" stroke="#FF9900" stroke-width="1.25" stroke-linecap="round" stroke-linejoin="round"/>
  </svg>
  