<svg width="14" height="14" viewBox="0 0 14 14" fill="none" xmlns="http://www.w3.org/2000/svg">
<rect width="14" height="14" fill="#333333"/>
<g id="K&#231;&#186;&#191;&#233;&#161;&#181;&#233;&#157;&#162;" clip-path="url(#clip0_0_1)">
<rect width="390" height="1388" transform="translate(-23 -177)" fill="#121212"/>
<g id="&#228;&#187;&#163;&#229;&#184;&#129;&#232;&#175;&#166;&#230;&#131;&#133;">
<rect width="390" height="88" transform="translate(-23 -67)" fill="#121212"/>
<g id="Frame 665">
<g id="Frame 664">
<g id="link_website">
<rect x="-6.5" y="-6.5" width="27" height="27" rx="3.5" stroke="#202020"/>
<path id="Vector" d="M12.6701 2.40809C11.1125 0.484338 8.29012 0.187619 6.3659 1.74574L4.88981 2.94106L5.62715 3.85184L7.10325 2.65653C7.4411 2.38293 7.82954 2.17857 8.24637 2.0551C8.66321 1.93162 9.10029 1.89146 9.53265 1.9369C9.965 1.98235 10.3842 2.1125 10.7662 2.31994C11.1483 2.52738 11.4857 2.80804 11.7593 3.1459C12.0329 3.48376 12.2373 3.87219 12.3608 4.28903C12.4842 4.70587 12.5244 5.14294 12.479 5.5753C12.4335 6.00766 12.3034 6.42683 12.0959 6.80889C11.8885 7.19095 11.6078 7.5284 11.27 7.80199L9.6884 9.08262L10.4257 9.9934L12.0073 8.71278C12.4649 8.34236 12.8449 7.88544 13.1259 7.36812C13.4068 6.85079 13.5831 6.28319 13.6447 5.69772C13.7062 5.11226 13.6518 4.52041 13.4846 3.95597C13.3174 3.39153 13.0406 2.86556 12.6701 2.40809ZM6.89653 11.3439C6.55867 11.6175 6.17023 11.8218 5.7534 11.9453C5.33656 12.0688 4.89949 12.1089 4.46713 12.0635C4.03477 12.018 3.61559 11.8879 3.23354 11.6805C2.85148 11.473 2.51402 11.1924 2.24043 10.8545C1.96684 10.5166 1.76248 10.1282 1.639 9.71137C1.51553 9.29453 1.47537 8.85745 1.52081 8.4251C1.56625 7.99274 1.69641 7.57356 1.90385 7.19151C2.11129 6.80945 2.39195 6.47199 2.72981 6.1984L4.35543 4.88215L3.61809 3.97137L1.99246 5.28762C0.0687135 6.84528 -0.228005 9.66809 1.32965 11.5918C2.88731 13.5156 5.71012 13.8123 7.63387 12.2547L9.17371 11.0078L8.43637 10.097L6.89653 11.3439Z" fill="#F2F2F2"/>
<path id="Vector_2" d="M9.8082 4.28741L10.6838 5.33741L4.8125 10.2303L3.9375 9.18031L9.8082 4.28741Z" fill="#F2F2F2"/>
</g>
</g>
</g>
</g>
</g>
<defs>
<clipPath id="clip0_0_1">
<rect width="390" height="1388" fill="white" transform="translate(-23 -177)"/>
</clipPath>
</defs>
</svg>
