<svg width="322" height="11" viewBox="0 0 322 11" fill="none" xmlns="http://www.w3.org/2000/svg">
<path d="M35.9628 10.1656C35.054 10.1656 34.2776 9.70503 34.207 9.09287C34.1276 8.45156 34.8512 7.88604 35.8217 7.83357C90.401 4.87188 145.598 3.29192 200.865 3.11119C175.473 2.74972 150.195 2.6098 125.243 2.46404C84.6219 2.23667 42.6154 1.99764 1.94122 4.70864C0.961865 4.77277 0.105974 4.30635 0.00892101 3.66504C-0.0881324 3.02373 0.617745 2.45238 1.58828 2.38825C42.4566 -0.340239 84.5602 -0.101202 125.278 0.132002C189.034 0.493469 254.959 0.866596 319.491 4.86022C320.444 4.91852 321.159 5.47238 321.088 6.10203C321.017 6.73168 320.188 7.20975 319.244 7.1806C224.846 4.07898 129.584 5.08176 36.1128 10.154C36.0599 10.154 36.0157 10.154 35.9628 10.154V10.1656Z" fill="#C1C1C1" fill-opacity="0.16"/>
</svg>
