<svg width="18" height="18" viewBox="0 0 18 18" fill="none" xmlns="http://www.w3.org/2000/svg">
<g id="line-chart-up-04">
<path id="Icon" d="M15.75 6.75L10.9136 10.2046C10.7667 10.3095 10.6932 10.362 10.6145 10.3778C10.5451 10.3918 10.4733 10.3858 10.4071 10.3607C10.3321 10.3321 10.2683 10.2683 10.1406 10.1406L7.85941 7.85941C7.73172 7.73172 7.66788 7.66788 7.59287 7.63932C7.52674 7.61416 7.45485 7.60821 7.38549 7.62216C7.30681 7.63799 7.23334 7.69047 7.0864 7.79543L2.25 11.25M5.85 15.75H12.15C13.4101 15.75 14.0402 15.75 14.5215 15.5048C14.9448 15.289 15.289 14.9448 15.5048 14.5215C15.75 14.0402 15.75 13.4101 15.75 12.15V5.85C15.75 4.58988 15.75 3.95982 15.5048 3.47852C15.289 3.05516 14.9448 2.71095 14.5215 2.49524C14.0402 2.25 13.4101 2.25 12.15 2.25H5.85C4.58988 2.25 3.95982 2.25 3.47852 2.49524C3.05516 2.71095 2.71095 3.05516 2.49524 3.47852C2.25 3.95982 2.25 4.58988 2.25 5.85V12.15C2.25 13.4101 2.25 14.0402 2.49524 14.5215C2.71095 14.9448 3.05516 15.289 3.47852 15.5048C3.95982 15.75 4.58988 15.75 5.85 15.75Z" stroke="#C157D2" stroke-width="1.6" stroke-linecap="round" stroke-linejoin="round"/>
</g>
</svg>
