<svg width="18" height="18" viewBox="0 0 18 18" fill="none" xmlns="http://www.w3.org/2000/svg">
<g id="line-chart-down-02">
<path id="Icon" d="M15.75 15.75H3.45C3.02996 15.75 2.81994 15.75 2.65951 15.6683C2.51839 15.5964 2.40365 15.4816 2.33175 15.3405C2.25 15.1801 2.25 14.97 2.25 14.55V2.25M15.75 11.25L11.6743 7.17426C11.5258 7.02576 11.4515 6.9515 11.3659 6.92368C11.2906 6.89921 11.2094 6.89921 11.1341 6.92368C11.0485 6.9515 10.9742 7.02576 10.8257 7.17426L9.42426 8.57574C9.27576 8.72424 9.2015 8.7985 9.11588 8.82632C9.04057 8.85079 8.95943 8.85079 8.88412 8.82632C8.7985 8.7985 8.72424 8.72424 8.57574 8.57574L5.25 5.25M15.75 11.25H12.75M15.75 11.25V8.25" stroke="#828282" stroke-width="1.6" stroke-linecap="round" stroke-linejoin="round"/>
</g>
</svg>
