<svg width="512" height="512" viewBox="0 0 512 512" fill="none" xmlns="http://www.w3.org/2000/svg">
<rect width="512" height="512" rx="256" fill="black"/>
<rect width="9.53812" height="9.53812" transform="matrix(-0.737179 0.675697 0.675697 0.737179 210.312 67.8643)" fill="black"/>
<rect width="9.53812" height="9.53812" transform="matrix(-0.737179 0.675697 0.675697 0.737179 203.27 74.3135)" fill="black"/>
<rect width="9.53812" height="9.53812" transform="matrix(-0.737179 0.675697 0.675697 0.737179 196.229 80.75)" fill="black"/>
<rect width="9.53812" height="9.53812" transform="matrix(-0.737179 0.675697 0.675697 0.737179 189.229 87.208)" fill="black"/>
<rect width="9.53812" height="9.53812" transform="matrix(-0.737179 0.675697 0.675697 0.737179 182.188 93.6436)" fill="black"/>
<rect width="9.53812" height="9.53812" transform="matrix(-0.737179 0.675697 0.675697 0.737179 175.125 100.094)" fill="black"/>
<rect width="9.53812" height="9.53812" transform="matrix(-0.737179 0.675697 0.675697 0.737179 168.125 106.531)" fill="black"/>
<rect width="9.53812" height="9.53812" transform="matrix(-0.737179 0.675697 0.675697 0.737179 161.084 113)" fill="black"/>
<rect width="9.53812" height="9.53812" transform="matrix(-0.737179 0.675697 0.675697 0.737179 251.916 42.667)" fill="black"/>
<rect width="9.53812" height="9.53812" transform="matrix(-0.737179 0.675697 0.675697 0.737179 244.854 49.125)" fill="black"/>
<rect width="9.53812" height="9.53812" transform="matrix(-0.737179 0.675697 0.675697 0.737179 237.854 55.5518)" fill="black"/>
<rect width="9.53812" height="9.53812" transform="matrix(-0.737179 0.675697 0.675697 0.737179 230.793 62.0186)" fill="black"/>
<rect width="9.53812" height="9.53812" transform="matrix(-0.737179 0.675697 0.675697 0.737179 223.771 68.458)" fill="black"/>
<rect width="9.53812" height="9.53812" transform="matrix(-0.737179 0.675697 0.675697 0.737179 216.771 74.8857)" fill="black"/>
<rect width="9.53812" height="9.53812" transform="matrix(-0.737179 0.675697 0.675697 0.737179 209.709 81.333)" fill="#FAFCF8"/>
<rect width="9.53812" height="9.53812" transform="matrix(-0.737179 0.675697 0.675697 0.737179 202.666 87.7812)" fill="#FAFCF8"/>
<rect width="9.53812" height="9.53812" transform="matrix(-0.737179 0.675697 0.675697 0.737179 195.666 94.2393)" fill="#FAFCF8"/>
<rect width="9.53812" height="9.53812" transform="matrix(-0.737179 0.675697 0.675697 0.737179 188.627 100.679)" fill="#FAFCF8"/>
<rect width="9.53812" height="9.53812" transform="matrix(-0.737179 0.675697 0.675697 0.737179 181.584 107.125)" fill="#FAFCF8"/>
<rect width="9.53812" height="9.53812" transform="matrix(-0.737179 0.675697 0.675697 0.737179 174.562 113.562)" fill="#FAFCF8"/>
<rect width="9.53812" height="9.53812" transform="matrix(-0.737179 0.675697 0.675697 0.737179 167.521 120.009)" fill="#FAFCF8"/>
<rect width="9.53812" height="9.53812" transform="matrix(-0.737179 0.675697 0.675697 0.737179 160.5 126.448)" fill="black"/>
<rect width="9.53812" height="9.53812" transform="matrix(-0.737179 0.675697 0.675697 0.737179 153.459 132.906)" fill="black"/>
<rect width="9.53812" height="9.53812" transform="matrix(-0.737179 0.675697 0.675697 0.737179 146.438 139.344)" fill="black"/>
<rect width="9.53812" height="9.53812" transform="matrix(-0.737179 0.675697 0.675697 0.737179 139.416 145.802)" fill="black"/>
<rect width="9.53812" height="9.53812" transform="matrix(-0.737179 0.675697 0.675697 0.737179 132.375 152.229)" fill="black"/>
<rect width="9.53812" height="9.53812" transform="matrix(-0.737179 0.675697 0.675697 0.737179 216.166 88.375)" fill="#FAFCF8"/>
<rect width="9.53812" height="9.53812" transform="matrix(-0.737179 0.675697 0.675697 0.737179 209.104 94.8232)" fill="black"/>
<rect width="9.53812" height="9.53812" transform="matrix(-0.737179 0.675697 0.675697 0.737179 202.104 101.261)" fill="black"/>
<rect width="9.53812" height="9.53812" transform="matrix(-0.737179 0.675697 0.675697 0.737179 195.062 107.729)" fill="black"/>
<rect width="9.53812" height="9.53812" transform="matrix(-0.737179 0.675697 0.675697 0.737179 188.021 114.156)" fill="black"/>
<rect width="9.53812" height="9.53812" transform="matrix(-0.737179 0.675697 0.675697 0.737179 181 120.604)" fill="#EBD4EE"/>
<rect width="9.53812" height="9.53812" transform="matrix(-0.737179 0.675697 0.675697 0.737179 173.979 127.042)" fill="#A7EAC3"/>
<rect width="9.53812" height="9.53812" transform="matrix(-0.737179 0.675697 0.675697 0.737179 166.938 133.489)" fill="#B0ECCA"/>
<rect width="9.53812" height="9.53812" transform="matrix(-0.737179 0.675697 0.675697 0.737179 159.916 139.938)" fill="#D3F5E3"/>
<rect width="9.53812" height="9.53812" transform="matrix(-0.737179 0.675697 0.675697 0.737179 152.855 146.363)" fill="#FAFCF8"/>
<rect width="9.53812" height="9.53812" transform="matrix(-0.737179 0.675697 0.675697 0.737179 145.834 152.823)" fill="#FAFCF8"/>
<rect width="9.53812" height="9.53812" transform="matrix(-0.737179 0.675697 0.675697 0.737179 138.834 159.261)" fill="#FAFCF8"/>
<rect width="9.53812" height="9.53812" transform="matrix(-0.737179 0.675697 0.675697 0.737179 131.791 165.719)" fill="black"/>
<rect width="9.53812" height="9.53812" transform="matrix(-0.737179 0.675697 0.675697 0.737179 124.75 172.146)" fill="black"/>
<rect width="9.53812" height="9.53812" transform="matrix(-0.737179 0.675697 0.675697 0.737179 117.729 178.594)" fill="black"/>
<rect width="9.53812" height="9.53812" transform="matrix(-0.737179 0.675697 0.675697 0.737179 187.459 127.636)" fill="black"/>
<rect width="9.53812" height="9.53812" transform="matrix(-0.737179 0.675697 0.675697 0.737179 180.396 134.083)" fill="black"/>
<rect width="9.53812" height="9.53812" transform="matrix(-0.737179 0.675697 0.675697 0.737179 173.396 140.531)" fill="black"/>
<rect width="9.53812" height="9.53812" transform="matrix(-0.737179 0.675697 0.675697 0.737179 166.352 146.958)" fill="#F5E4EF"/>
<rect width="9.53812" height="9.53812" transform="matrix(-0.737179 0.675697 0.675697 0.737179 159.312 153.406)" fill="#AEECC8"/>
<rect width="9.53812" height="9.53812" transform="matrix(-0.737179 0.675697 0.675697 0.737179 152.312 159.844)" fill="#B3EECC"/>
<rect width="9.53812" height="9.53812" transform="matrix(-0.737179 0.675697 0.675697 0.737179 145.25 166.312)" fill="#B0ECCA"/>
<rect width="9.53812" height="9.53812" transform="matrix(-0.737179 0.675697 0.675697 0.737179 138.229 172.739)" fill="#FAFCF8"/>
<rect width="9.53812" height="9.53812" transform="matrix(-0.737179 0.675697 0.675697 0.737179 131.209 179.198)" fill="#FAFCF8"/>
<rect width="9.53812" height="9.53812" transform="matrix(-0.737179 0.675697 0.675697 0.737179 124.166 185.625)" fill="#0E1208"/>
<rect width="9.53812" height="9.53812" transform="matrix(-0.737179 0.675697 0.675697 0.737179 117.146 192.083)" fill="black"/>
<rect width="9.53812" height="9.53812" transform="matrix(-0.737179 0.675697 0.675697 0.737179 110.084 198.531)" fill="black"/>
<rect width="9.53812" height="9.53812" transform="matrix(-0.737179 0.675697 0.675697 0.737179 172.791 153.989)" fill="black"/>
<rect width="9.53812" height="9.53812" transform="matrix(-0.737179 0.675697 0.675697 0.737179 165.771 160.448)" fill="black"/>
<rect width="9.53812" height="9.53812" transform="matrix(-0.737179 0.675697 0.675697 0.737179 158.729 166.875)" fill="#FAFCF8"/>
<rect width="9.53812" height="9.53812" transform="matrix(-0.737179 0.675697 0.675697 0.737179 151.709 173.335)" fill="#B2E5CA"/>
<rect width="9.53812" height="9.53812" transform="matrix(-0.737179 0.675697 0.675697 0.737179 144.688 179.771)" fill="black"/>
<rect width="9.53812" height="9.53812" transform="matrix(-0.737179 0.675697 0.675697 0.737179 137.646 186.229)" fill="#B2EDCB"/>
<rect width="9.53812" height="9.53812" transform="matrix(-0.737179 0.675697 0.675697 0.737179 130.604 192.665)" fill="#BBEFCE"/>
<rect width="9.53812" height="9.53812" transform="matrix(-0.737179 0.675697 0.675697 0.737179 123.562 199.114)" fill="#FAFCF8"/>
<rect width="9.53812" height="9.53812" transform="matrix(-0.737179 0.675697 0.675697 0.737179 116.562 205.542)" fill="black"/>
<rect width="9.53812" height="9.53812" transform="matrix(-0.737179 0.675697 0.675697 0.737179 109.541 212.011)" fill="black"/>
<rect width="9.53812" height="9.53812" transform="matrix(-0.737179 0.675697 0.675697 0.737179 165.209 173.906)" fill="black"/>
<rect width="9.53812" height="9.53812" transform="matrix(-0.737179 0.675697 0.675697 0.737179 158.125 180.354)" fill="#67295F"/>
<rect width="9.53812" height="9.53812" transform="matrix(-0.737179 0.675697 0.675697 0.737179 151.104 186.802)" fill="#B3EECC"/>
<rect width="9.53812" height="9.53812" transform="matrix(-0.737179 0.675697 0.675697 0.737179 144.104 193.261)" fill="black"/>
<rect width="9.53812" height="9.53812" transform="matrix(-0.737179 0.675697 0.675697 0.737179 137.043 199.688)" fill="black"/>
<rect width="9.53812" height="9.53812" transform="matrix(-0.737179 0.675697 0.675697 0.737179 130.021 206.136)" fill="#AFEDC9"/>
<rect width="9.53812" height="9.53812" transform="matrix(-0.737179 0.675697 0.675697 0.737179 123 212.583)" fill="black"/>
<rect width="9.53812" height="9.53812" transform="matrix(-0.737179 0.675697 0.675697 0.737179 115.959 219.029)" fill="black"/>
<rect width="9.53812" height="9.53812" transform="matrix(-0.737179 0.675697 0.675697 0.737179 164.584 187.396)" fill="black"/>
<rect width="9.53812" height="9.53812" transform="matrix(-0.737179 0.675697 0.675697 0.737179 157.584 193.844)" fill="#FAFCF8"/>
<rect width="9.53812" height="9.53812" transform="matrix(-0.737179 0.675697 0.675697 0.737179 150.521 200.271)" fill="black"/>
<rect width="9.53812" height="9.53812" transform="matrix(-0.737179 0.675697 0.675697 0.737179 143.5 206.75)" fill="black"/>
<rect width="9.53812" height="9.53812" transform="matrix(-0.737179 0.675697 0.675697 0.737179 136.479 213.177)" fill="black"/>
<rect width="9.53812" height="9.53812" transform="matrix(-0.737179 0.675697 0.675697 0.737179 129.438 219.625)" fill="#FAFCF8"/>
<rect width="9.53812" height="9.53812" transform="matrix(-0.737179 0.675697 0.675697 0.737179 122.416 226.062)" fill="#FAFCF8"/>
<rect width="9.53812" height="9.53812" transform="matrix(-0.737179 0.675697 0.675697 0.737179 115.416 232.489)" fill="black"/>
<rect width="9.53812" height="9.53812" transform="matrix(-0.737179 0.675697 0.675697 0.737179 101.312 245.396)" fill="black"/>
<rect width="9.53812" height="9.53812" transform="matrix(-0.737179 0.675697 0.675697 0.737179 178.062 187.989)" fill="#72903E"/>
<rect width="9.53812" height="9.53812" transform="matrix(-0.737179 0.675697 0.675697 0.737179 171.041 194.417)" fill="black"/>
<rect width="9.53812" height="9.53812" transform="matrix(-0.737179 0.675697 0.675697 0.737179 164 200.864)" fill="#FAFCF8"/>
<rect width="9.53812" height="9.53812" transform="matrix(-0.737179 0.675697 0.675697 0.737179 156.979 207.312)" fill="#B3EECC"/>
<rect width="9.53812" height="9.53812" transform="matrix(-0.737179 0.675697 0.675697 0.737179 149.959 213.761)" fill="black"/>
<rect width="9.53812" height="9.53812" transform="matrix(-0.737179 0.675697 0.675697 0.737179 142.938 220.198)" fill="black"/>
<rect width="9.53812" height="9.53812" transform="matrix(-0.737179 0.675697 0.675697 0.737179 135.875 226.656)" fill="#FAFCF8"/>
<rect width="9.53812" height="9.53812" transform="matrix(-0.737179 0.675697 0.675697 0.737179 128.834 233.094)" fill="#FAFCF8"/>
<rect width="9.53812" height="9.53812" transform="matrix(-0.737179 0.675697 0.675697 0.737179 121.834 239.542)" fill="black"/>
<rect width="9.53812" height="9.53812" transform="matrix(-0.737179 0.675697 0.675697 0.737179 114.791 245.979)" fill="black"/>
<rect width="9.53812" height="9.53812" transform="matrix(-0.737179 0.675697 0.675697 0.737179 107.75 252.427)" fill="#293416"/>
<rect width="9.53812" height="9.53812" transform="matrix(-0.737179 0.675697 0.675697 0.737179 191.541 188.573)" fill="black"/>
<rect width="9.53812" height="9.53812" transform="matrix(-0.737179 0.675697 0.675697 0.737179 184.521 195)" fill="black"/>
<rect width="9.53812" height="9.53812" transform="matrix(-0.737179 0.675697 0.675697 0.737179 177.479 201.469)" fill="black"/>
<rect width="9.53812" height="9.53812" transform="matrix(-0.737179 0.675697 0.675697 0.737179 170.459 207.906)" fill="#FAFCF8"/>
<rect width="9.53812" height="9.53812" transform="matrix(-0.737179 0.675697 0.675697 0.737179 163.42 214.344)" fill="#77306B"/>
<rect width="9.53812" height="9.53812" transform="matrix(-0.737179 0.675697 0.675697 0.737179 156.375 220.792)" fill="black"/>
<rect width="9.53812" height="9.53812" transform="matrix(-0.737179 0.675697 0.675697 0.737179 149.375 227.219)" fill="black"/>
<rect width="9.53812" height="9.53812" transform="matrix(-0.737179 0.675697 0.675697 0.737179 142.312 233.677)" fill="black"/>
<rect width="9.53812" height="9.53812" transform="matrix(-0.737179 0.675697 0.675697 0.737179 135.291 240.114)" fill="#74FF04"/>
<rect width="9.53812" height="9.53812" transform="matrix(-0.737179 0.675697 0.675697 0.737179 128.271 246.573)" fill="#A6F800"/>
<rect width="9.53812" height="9.53812" transform="matrix(-0.737179 0.675697 0.675697 0.737179 121.229 253.011)" fill="black"/>
<rect width="9.53812" height="9.53812" transform="matrix(-0.737179 0.675697 0.675697 0.737179 219.084 176.261)" fill="black"/>
<rect width="9.53812" height="9.53812" transform="matrix(-0.737179 0.675697 0.675697 0.737179 212.041 182.708)" fill="black"/>
<rect width="9.53812" height="9.53812" transform="matrix(-0.737179 0.675697 0.675697 0.737179 205.041 189.146)" fill="black"/>
<rect width="9.53812" height="9.53812" transform="matrix(-0.737179 0.675697 0.675697 0.737179 198 195.604)" fill="black"/>
<rect width="9.53812" height="9.53812" transform="matrix(-0.737179 0.675697 0.675697 0.737179 190.938 202.042)" fill="#A6F800"/>
<rect width="9.53812" height="9.53812" transform="matrix(-0.737179 0.675697 0.675697 0.737179 183.938 208.489)" fill="black"/>
<rect width="9.53812" height="9.53812" transform="matrix(-0.737179 0.675697 0.675697 0.737179 176.916 214.928)" fill="black"/>
<rect width="9.53812" height="9.53812" transform="matrix(-0.737179 0.675697 0.675697 0.737179 169.854 221.386)" fill="#AFFF01"/>
<rect width="9.53812" height="9.53812" transform="matrix(-0.737179 0.675697 0.675697 0.737179 162.854 227.823)" fill="#A2EC00"/>
<rect width="9.53812" height="9.53812" transform="matrix(-0.737179 0.675697 0.675697 0.737179 155.811 234.269)" fill="#A8FD00"/>
<rect width="9.53812" height="9.53812" transform="matrix(-0.737179 0.675697 0.675697 0.737179 148.771 240.708)" fill="#94C700"/>
<rect width="9.53812" height="9.53812" transform="matrix(-0.737179 0.675697 0.675697 0.737179 141.75 247.156)" fill="#95C900"/>
<rect width="9.53812" height="9.53812" transform="matrix(-0.737179 0.675697 0.675697 0.737179 134.709 253.594)" fill="#95CB00"/>
<rect width="9.53812" height="9.53812" transform="matrix(-0.737179 0.675697 0.675697 0.737179 127.688 260.062)" fill="black"/>
<rect width="9.53812" height="9.53812" transform="matrix(-0.737179 0.675697 0.675697 0.737179 359.146 60.8232)" fill="black"/>
<rect width="9.53812" height="9.53812" transform="matrix(-0.737179 0.675697 0.675697 0.737179 352.084 67.292)" fill="#0E1208"/>
<rect width="9.53812" height="9.53812" transform="matrix(-0.737179 0.675697 0.675697 0.737179 232.584 176.854)" fill="black"/>
<rect width="9.53812" height="9.53812" transform="matrix(-0.737179 0.675697 0.675697 0.737179 225.521 183.28)" fill="#73FA01"/>
<rect width="9.53812" height="9.53812" transform="matrix(-0.737179 0.675697 0.675697 0.737179 218.479 189.729)" fill="#A6F800"/>
<rect width="9.53812" height="9.53812" transform="matrix(-0.737179 0.675697 0.675697 0.737179 211.479 196.167)" fill="#A6F800"/>
<rect width="9.53812" height="9.53812" transform="matrix(-0.737179 0.675697 0.675697 0.737179 204.439 202.633)" fill="black"/>
<rect width="9.53812" height="9.53812" transform="matrix(-0.737179 0.675697 0.675697 0.737179 197.396 209.073)" fill="black"/>
<rect width="9.53812" height="9.53812" transform="matrix(-0.737179 0.675697 0.675697 0.737179 190.396 215.521)" fill="black"/>
<rect width="9.53812" height="9.53812" transform="matrix(-0.737179 0.675697 0.675697 0.737179 183.354 221.948)" fill="#9EFF2A"/>
<rect width="9.53812" height="9.53812" transform="matrix(-0.737179 0.675697 0.675697 0.737179 176.312 228.406)" fill="#94C700"/>
<rect width="9.53812" height="9.53812" transform="matrix(-0.737179 0.675697 0.675697 0.737179 169.271 234.844)" fill="black"/>
<rect width="9.53812" height="9.53812" transform="matrix(-0.737179 0.675697 0.675697 0.737179 162.25 241.304)" fill="black"/>
<rect width="9.53812" height="9.53812" transform="matrix(-0.737179 0.675697 0.675697 0.737179 155.229 247.739)" fill="black"/>
<rect width="9.53812" height="9.53812" transform="matrix(-0.737179 0.675697 0.675697 0.737179 148.188 254.198)" fill="#95CB00"/>
<rect width="9.53812" height="9.53812" transform="matrix(-0.737179 0.675697 0.675697 0.737179 141.145 260.623)" fill="#AAFB00"/>
<rect width="9.53812" height="9.53812" transform="matrix(-0.737179 0.675697 0.675697 0.737179 134.104 267.073)" fill="black"/>
<rect width="9.53812" height="9.53812" transform="matrix(-0.737179 0.675697 0.675697 0.737179 358.541 74.3125)" fill="black"/>
<rect width="9.53812" height="9.53812" transform="matrix(-0.737179 0.675697 0.675697 0.737179 351.5 80.7705)" fill="black"/>
<rect width="9.53812" height="9.53812" transform="matrix(-0.737179 0.675697 0.675697 0.737179 344.479 87.208)" fill="black"/>
<rect width="9.53812" height="9.53812" transform="matrix(-0.737179 0.675697 0.675697 0.737179 246.041 177.438)" fill="black"/>
<rect width="9.53812" height="9.53812" transform="matrix(-0.737179 0.675697 0.675697 0.737179 239 183.864)" fill="#2A536A"/>
<rect width="9.53812" height="9.53812" transform="matrix(-0.737179 0.675697 0.675697 0.737179 231.979 190.333)" fill="#A7F900"/>
<rect width="9.53812" height="9.53812" transform="matrix(-0.737179 0.675697 0.675697 0.737179 224.959 196.771)" fill="black"/>
<rect width="9.53812" height="9.53812" transform="matrix(-0.737179 0.675697 0.675697 0.737179 217.916 203.219)" fill="#94C800"/>
<rect width="9.53812" height="9.53812" transform="matrix(-0.737179 0.675697 0.675697 0.737179 210.896 209.656)" fill="#A6F800"/>
<rect width="9.53812" height="9.53812" transform="matrix(-0.737179 0.675697 0.675697 0.737179 203.834 216.114)" fill="black"/>
<rect width="9.53812" height="9.53812" transform="matrix(-0.737179 0.675697 0.675697 0.737179 196.812 222.552)" fill="#AEFF01"/>
<rect width="9.53812" height="9.53812" transform="matrix(-0.737179 0.675697 0.675697 0.737179 189.791 229.011)" fill="#99CE00"/>
<rect width="9.53812" height="9.53812" transform="matrix(-0.737179 0.675697 0.675697 0.737179 182.75 235.438)" fill="black"/>
<rect width="9.53812" height="9.53812" transform="matrix(-0.737179 0.675697 0.675697 0.737179 175.729 241.886)" fill="black"/>
<rect width="9.53812" height="9.53812" transform="matrix(-0.737179 0.675697 0.675697 0.737179 168.688 248.323)" fill="black"/>
<rect width="9.53812" height="9.53812" transform="matrix(-0.737179 0.675697 0.675697 0.737179 161.646 254.792)" fill="#9ED400"/>
<rect width="9.53812" height="9.53812" transform="matrix(-0.737179 0.675697 0.675697 0.737179 154.646 261.219)" fill="#A7FC00"/>
<rect width="9.53812" height="9.53812" transform="matrix(-0.737179 0.675697 0.675697 0.737179 147.584 267.658)" fill="black"/>
<rect width="9.53812" height="9.53812" transform="matrix(-0.737179 0.675697 0.675697 0.737179 357.959 87.8018)" fill="black"/>
<rect width="9.53812" height="9.53812" transform="matrix(-0.737179 0.675697 0.675697 0.737179 350.938 94.2393)" fill="black"/>
<rect width="9.53812" height="9.53812" transform="matrix(-0.737179 0.675697 0.675697 0.737179 343.875 100.688)" fill="black"/>
<rect width="9.53812" height="9.53812" transform="matrix(-0.737179 0.675697 0.675697 0.737179 336.875 107.125)" fill="black"/>
<rect width="9.53812" height="9.53812" transform="matrix(-0.737179 0.675697 0.675697 0.737179 329.812 113.583)" fill="black"/>
<rect width="9.53812" height="9.53812" transform="matrix(-0.737179 0.675697 0.675697 0.737179 322.791 120.011)" fill="black"/>
<rect width="9.53812" height="9.53812" transform="matrix(-0.737179 0.675697 0.675697 0.737179 266.541 171.581)" fill="black"/>
<rect width="9.53812" height="9.53812" transform="matrix(-0.737179 0.675697 0.675697 0.737179 259.521 178.011)" fill="black"/>
<rect width="9.53812" height="9.53812" transform="matrix(-0.737179 0.675697 0.675697 0.737179 252.479 184.469)" fill="black"/>
<rect width="9.53812" height="9.53812" transform="matrix(-0.737179 0.675697 0.675697 0.737179 245.459 190.896)" fill="#A5F700"/>
<rect width="9.53812" height="9.53812" transform="matrix(-0.737179 0.675697 0.675697 0.737179 238.438 197.354)" fill="black"/>
<rect width="9.53812" height="9.53812" transform="matrix(-0.737179 0.675697 0.675697 0.737179 231.396 203.802)" fill="#A9FF02"/>
<rect width="9.53812" height="9.53812" transform="matrix(-0.737179 0.675697 0.675697 0.737179 224.354 210.252)" fill="#A7F900"/>
<rect width="9.53812" height="9.53812" transform="matrix(-0.737179 0.675697 0.675697 0.737179 217.312 216.677)" fill="#A6F800"/>
<rect width="9.53812" height="9.53812" transform="matrix(-0.737179 0.675697 0.675697 0.737179 210.312 223.136)" fill="black"/>
<rect width="9.53812" height="9.53812" transform="matrix(-0.737179 0.675697 0.675697 0.737179 203.27 229.571)" fill="black"/>
<rect width="9.53812" height="9.53812" transform="matrix(-0.737179 0.675697 0.675697 0.737179 196.209 236.031)" fill="black"/>
<rect width="9.53812" height="9.53812" transform="matrix(-0.737179 0.675697 0.675697 0.737179 189.209 242.469)" fill="black"/>
<rect width="9.53812" height="9.53812" transform="matrix(-0.737179 0.675697 0.675697 0.737179 182.188 248.927)" fill="black"/>
<rect width="9.53812" height="9.53812" transform="matrix(-0.737179 0.675697 0.675697 0.737179 175.125 255.354)" fill="#9BE400"/>
<rect width="9.53812" height="9.53812" transform="matrix(-0.737179 0.675697 0.675697 0.737179 168.125 261.802)" fill="#ADFF00"/>
<rect width="9.53812" height="9.53812" transform="matrix(-0.737179 0.675697 0.675697 0.737179 161.084 268.239)" fill="black"/>
<rect width="9.53812" height="9.53812" transform="matrix(-0.737179 0.675697 0.675697 0.737179 154.041 274.708)" fill="black"/>
<rect width="9.53812" height="9.53812" transform="matrix(-0.737179 0.675697 0.675697 0.737179 147.021 281.146)" fill="black"/>
<rect width="9.53812" height="9.53812" transform="matrix(-0.737179 0.675697 0.675697 0.737179 357.354 101.261)" fill="black"/>
<rect width="9.53812" height="9.53812" transform="matrix(-0.737179 0.675697 0.675697 0.737179 350.354 107.729)" fill="black"/>
<rect width="9.53812" height="9.53812" transform="matrix(-0.737179 0.675697 0.675697 0.737179 343.312 114.156)" fill="#A4E9C1"/>
<rect width="9.53812" height="9.53812" transform="matrix(-0.737179 0.675697 0.675697 0.737179 336.271 120.604)" fill="#FAFCF8"/>
<rect width="9.53812" height="9.53812" transform="matrix(-0.737179 0.675697 0.675697 0.737179 329.25 127.042)" fill="#F5E6EF"/>
<rect width="9.53812" height="9.53812" transform="matrix(-0.737179 0.675697 0.675697 0.737179 322.209 133.489)" fill="black"/>
<rect width="9.53812" height="9.53812" transform="matrix(-0.737179 0.675697 0.675697 0.737179 315.188 139.938)" fill="black"/>
<rect width="9.53812" height="9.53812" transform="matrix(-0.737179 0.675697 0.675697 0.737179 308.166 146.396)" fill="black"/>
<rect width="9.53812" height="9.53812" transform="matrix(-0.737179 0.675697 0.675697 0.737179 301.125 152.823)" fill="black"/>
<rect width="9.53812" height="9.53812" transform="matrix(-0.737179 0.675697 0.675697 0.737179 294.084 159.271)" fill="black"/>
<rect width="9.53812" height="9.53812" transform="matrix(-0.737179 0.675697 0.675697 0.737179 287.041 165.719)" fill="black"/>
<rect width="9.53812" height="9.53812" transform="matrix(-0.737179 0.675697 0.675697 0.737179 280.021 172.167)" fill="black"/>
<rect width="9.53812" height="9.53812" transform="matrix(-0.737179 0.675697 0.675697 0.737179 273 178.594)" fill="black"/>
<rect width="9.53812" height="9.53812" transform="matrix(-0.737179 0.675697 0.675697 0.737179 265.959 185.062)" fill="#A7FF36"/>
<rect width="9.53812" height="9.53812" transform="matrix(-0.737179 0.675697 0.675697 0.737179 258.938 191.5)" fill="#AEFF04"/>
<rect width="9.53812" height="9.53812" transform="matrix(-0.737179 0.675697 0.675697 0.737179 251.877 197.946)" fill="#2E7A5B"/>
<rect width="9.53812" height="9.53812" transform="matrix(-0.737179 0.675697 0.675697 0.737179 244.854 204.386)" fill="#A1E200"/>
<rect width="9.53812" height="9.53812" transform="matrix(-0.737179 0.675697 0.675697 0.737179 237.854 210.833)" fill="black"/>
<rect width="9.53812" height="9.53812" transform="matrix(-0.737179 0.675697 0.675697 0.737179 230.791 217.281)" fill="black"/>
<rect width="9.53812" height="9.53812" transform="matrix(-0.737179 0.675697 0.675697 0.737179 223.771 223.739)" fill="#A6FA00"/>
<rect width="9.53812" height="9.53812" transform="matrix(-0.737179 0.675697 0.675697 0.737179 216.75 230.167)" fill="#A7F900"/>
<rect width="9.53812" height="9.53812" transform="matrix(-0.737179 0.675697 0.675697 0.737179 209.709 236.614)" fill="black"/>
<rect width="9.53812" height="9.53812" transform="matrix(-0.737179 0.675697 0.675697 0.737179 202.666 243.052)" fill="black"/>
<rect width="9.53812" height="9.53812" transform="matrix(-0.737179 0.675697 0.675697 0.737179 195.666 249.489)" fill="black"/>
<rect width="9.53812" height="9.53812" transform="matrix(-0.737179 0.675697 0.675697 0.737179 188.627 255.947)" fill="black"/>
<rect width="9.53812" height="9.53812" transform="matrix(-0.737179 0.675697 0.675697 0.737179 181.584 262.386)" fill="black"/>
<rect width="9.53812" height="9.53812" transform="matrix(-0.737179 0.675697 0.675697 0.737179 174.541 268.833)" fill="black"/>
<rect width="9.53812" height="9.53812" transform="matrix(-0.737179 0.675697 0.675697 0.737179 167.521 275.281)" fill="black"/>
<rect width="9.53812" height="9.53812" transform="matrix(-0.737179 0.675697 0.675697 0.737179 160.5 281.729)" fill="black"/>
<rect width="9.53812" height="9.53812" transform="matrix(-0.737179 0.675697 0.675697 0.737179 153.459 288.167)" fill="black"/>
<rect width="9.53812" height="9.53812" transform="matrix(-0.737179 0.675697 0.675697 0.737179 146.438 294.614)" fill="black"/>
<rect width="9.53812" height="9.53812" transform="matrix(-0.737179 0.675697 0.675697 0.737179 139.396 301.062)" fill="black"/>
<rect width="9.53812" height="9.53812" transform="matrix(-0.737179 0.675697 0.675697 0.737179 349.75 121.211)" fill="black"/>
<rect width="9.53812" height="9.53812" transform="matrix(-0.737179 0.675697 0.675697 0.737179 342.729 127.636)" fill="black"/>
<rect width="9.53812" height="9.53812" transform="matrix(-0.737179 0.675697 0.675697 0.737179 335.688 134.094)" fill="#B0ECCA"/>
<rect width="9.53812" height="9.53812" transform="matrix(-0.737179 0.675697 0.675697 0.737179 328.668 140.529)" fill="#A7EBC3"/>
<rect width="9.53812" height="9.53812" transform="matrix(-0.737179 0.675697 0.675697 0.737179 321.604 146.979)" fill="#FAFCF8"/>
<rect width="9.53812" height="9.53812" transform="matrix(-0.737179 0.675697 0.675697 0.737179 314.604 153.406)" fill="#FAFCF8"/>
<rect width="9.53812" height="9.53812" transform="matrix(-0.737179 0.675697 0.675697 0.737179 307.562 159.844)" fill="#FAFCF8"/>
<rect width="9.53812" height="9.53812" transform="matrix(-0.737179 0.675697 0.675697 0.737179 300.521 166.312)" fill="#FAFCF8"/>
<rect width="9.53812" height="9.53812" transform="matrix(-0.737179 0.675697 0.675697 0.737179 293.521 172.739)" fill="#FAFCF8"/>
<rect width="9.53812" height="9.53812" transform="matrix(-0.737179 0.675697 0.675697 0.737179 286.479 179.198)" fill="black"/>
<rect width="9.53812" height="9.53812" transform="matrix(-0.737179 0.675697 0.675697 0.737179 279.416 185.625)" fill="#A7FF36"/>
<rect width="9.53812" height="9.53812" transform="matrix(-0.737179 0.675697 0.675697 0.737179 272.416 192.083)" fill="#A8FF38"/>
<rect width="9.53812" height="9.53812" transform="matrix(-0.737179 0.675697 0.675697 0.737179 265.395 198.531)" fill="#A8FF39"/>
<rect width="9.53812" height="9.53812" transform="matrix(-0.737179 0.675697 0.675697 0.737179 258.334 204.979)" fill="black"/>
<rect width="9.53812" height="9.53812" transform="matrix(-0.737179 0.675697 0.675697 0.737179 251.334 211.406)" fill="black"/>
<rect width="9.53812" height="9.53812" transform="matrix(-0.737179 0.675697 0.675697 0.737179 244.271 217.875)" fill="black"/>
<rect width="9.53812" height="9.53812" transform="matrix(-0.737179 0.675697 0.675697 0.737179 237.25 224.302)" fill="black"/>
<rect width="9.53812" height="9.53812" transform="matrix(-0.737179 0.675697 0.675697 0.737179 230.229 230.761)" fill="#9BD900"/>
<rect width="9.53812" height="9.53812" transform="matrix(-0.737179 0.675697 0.675697 0.737179 223.188 237.198)" fill="#A6F800"/>
<rect width="9.53812" height="9.53812" transform="matrix(-0.737179 0.675697 0.675697 0.737179 216.166 243.656)" fill="black"/>
<rect width="9.53812" height="9.53812" transform="matrix(-0.737179 0.675697 0.675697 0.737179 209.104 250.083)" fill="black"/>
<rect width="9.53812" height="9.53812" transform="matrix(-0.737179 0.675697 0.675697 0.737179 202.084 256.531)" fill="#47B122"/>
<rect width="9.53812" height="9.53812" transform="matrix(-0.737179 0.675697 0.675697 0.737179 195.062 262.969)" fill="#ADFF03"/>
<rect width="9.53812" height="9.53812" transform="matrix(-0.737179 0.675697 0.675697 0.737179 188.021 269.438)" fill="black"/>
<rect width="9.53812" height="9.53812" transform="matrix(-0.737179 0.675697 0.675697 0.737179 181 275.875)" fill="black"/>
<rect width="9.53812" height="9.53812" transform="matrix(-0.737179 0.675697 0.675697 0.737179 173.979 282.323)" fill="black"/>
<rect width="9.53812" height="9.53812" transform="matrix(-0.737179 0.675697 0.675697 0.737179 166.916 288.75)" fill="#48B221"/>
<rect width="9.53812" height="9.53812" transform="matrix(-0.737179 0.675697 0.675697 0.737179 159.916 295.198)" fill="black"/>
<rect width="9.53812" height="9.53812" transform="matrix(-0.737179 0.675697 0.675697 0.737179 152.855 301.653)" fill="black"/>
<rect width="9.53812" height="9.53812" transform="matrix(-0.737179 0.675697 0.675697 0.737179 145.834 308.083)" fill="black"/>
<rect width="9.53812" height="9.53812" transform="matrix(-0.737179 0.675697 0.675697 0.737179 138.834 314.542)" fill="black"/>
<rect width="9.53812" height="9.53812" transform="matrix(-0.737179 0.675697 0.675697 0.737179 349.146 134.667)" fill="#2C3718"/>
<rect width="9.53812" height="9.53812" transform="matrix(-0.737179 0.675697 0.675697 0.737179 342.146 141.125)" fill="black"/>
<rect width="9.53812" height="9.53812" transform="matrix(-0.737179 0.675697 0.675697 0.737179 335.084 147.554)" fill="black"/>
<rect width="9.53812" height="9.53812" transform="matrix(-0.737179 0.675697 0.675697 0.737179 328.062 154)" fill="#B4EDC9"/>
<rect width="9.53812" height="9.53812" transform="matrix(-0.737179 0.675697 0.675697 0.737179 321.062 160.448)" fill="black"/>
<rect width="9.53812" height="9.53812" transform="matrix(-0.737179 0.675697 0.675697 0.737179 314.002 166.895)" fill="black"/>
<rect width="9.53812" height="9.53812" transform="matrix(-0.737179 0.675697 0.675697 0.737179 306.959 173.333)" fill="black"/>
<rect width="9.53812" height="9.53812" transform="matrix(-0.737179 0.675697 0.675697 0.737179 299.959 179.792)" fill="black"/>
<rect width="9.53812" height="9.53812" transform="matrix(-0.737179 0.675697 0.675697 0.737179 292.916 186.229)" fill="#99FF26"/>
<rect width="9.53812" height="9.53812" transform="matrix(-0.737179 0.675697 0.675697 0.737179 285.875 192.677)" fill="#A6F600"/>
<rect width="9.53812" height="9.53812" transform="matrix(-0.737179 0.675697 0.675697 0.737179 278.854 199.114)" fill="#A7FF36"/>
<rect width="9.53812" height="9.53812" transform="matrix(-0.737179 0.675697 0.675697 0.737179 271.812 205.562)" fill="black"/>
<rect width="9.53812" height="9.53812" transform="matrix(-0.737179 0.675697 0.675697 0.737179 264.791 212.011)" fill="#50A224"/>
<rect width="9.53812" height="9.53812" transform="matrix(-0.737179 0.675697 0.675697 0.737179 257.75 218.448)" fill="#8E3C70"/>
<rect width="9.53812" height="9.53812" transform="matrix(-0.737179 0.675697 0.675697 0.737179 250.729 224.896)" fill="#FAFCF8"/>
<rect width="9.53812" height="9.53812" transform="matrix(-0.737179 0.675697 0.675697 0.737179 243.709 231.333)" fill="black"/>
<rect width="9.53812" height="9.53812" transform="matrix(-0.737179 0.675697 0.675697 0.737179 236.666 237.781)" fill="black"/>
<rect width="9.53812" height="9.53812" transform="matrix(-0.737179 0.675697 0.675697 0.737179 229.625 244.219)" fill="#271D5A"/>
<rect width="9.53812" height="9.53812" transform="matrix(-0.737179 0.675697 0.675697 0.737179 222.584 250.677)" fill="#A8FF38"/>
<rect width="9.53812" height="9.53812" transform="matrix(-0.737179 0.675697 0.675697 0.737179 215.584 257.114)" fill="#A6F600"/>
<rect width="9.53812" height="9.53812" transform="matrix(-0.737179 0.675697 0.675697 0.737179 208.541 263.562)" fill="black"/>
<rect width="9.53812" height="9.53812" transform="matrix(-0.737179 0.675697 0.675697 0.737179 201.5 270.011)" fill="black"/>
<rect width="9.53812" height="9.53812" transform="matrix(-0.737179 0.675697 0.675697 0.737179 194.479 276.458)" fill="black"/>
<rect width="9.53812" height="9.53812" transform="matrix(-0.737179 0.675697 0.675697 0.737179 187.457 282.897)" fill="black"/>
<rect width="9.53812" height="9.53812" transform="matrix(-0.737179 0.675697 0.675697 0.737179 180.396 289.344)" fill="black"/>
<rect width="9.53812" height="9.53812" transform="matrix(-0.737179 0.675697 0.675697 0.737179 173.396 295.792)" fill="#9BCE00"/>
<rect width="9.53812" height="9.53812" transform="matrix(-0.737179 0.675697 0.675697 0.737179 166.352 302.238)" fill="#A7F900"/>
<rect width="9.53812" height="9.53812" transform="matrix(-0.737179 0.675697 0.675697 0.737179 159.312 308.677)" fill="black"/>
<rect width="9.53812" height="9.53812" transform="matrix(-0.737179 0.675697 0.675697 0.737179 152.291 315.136)" fill="black"/>
<rect width="9.53812" height="9.53812" transform="matrix(-0.737179 0.675697 0.675697 0.737179 145.25 321.573)" fill="black"/>
<rect width="9.53812" height="9.53812" transform="matrix(-0.737179 0.675697 0.675697 0.737179 138.229 328.021)" fill="black"/>
<rect width="9.53812" height="9.53812" transform="matrix(-0.737179 0.675697 0.675697 0.737179 334.521 161.042)" fill="black"/>
<rect width="9.53812" height="9.53812" transform="matrix(-0.737179 0.675697 0.675697 0.737179 327.479 167.469)" fill="black"/>
<rect width="9.53812" height="9.53812" transform="matrix(-0.737179 0.675697 0.675697 0.737179 320.459 173.927)" fill="black"/>
<rect width="9.53812" height="9.53812" transform="matrix(-0.737179 0.675697 0.675697 0.737179 313.438 180.354)" fill="black"/>
<rect width="9.53812" height="9.53812" transform="matrix(-0.737179 0.675697 0.675697 0.737179 306.396 186.812)" fill="black"/>
<rect width="9.53812" height="9.53812" transform="matrix(-0.737179 0.675697 0.675697 0.737179 299.354 193.261)" fill="#A7FF36"/>
<rect width="9.53812" height="9.53812" transform="matrix(-0.737179 0.675697 0.675697 0.737179 292.312 199.708)" fill="#A9FB00"/>
<rect width="9.53812" height="9.53812" transform="matrix(-0.737179 0.675697 0.675697 0.737179 285.291 206.136)" fill="black"/>
<rect width="9.53812" height="9.53812" transform="matrix(-0.737179 0.675697 0.675697 0.737179 278.271 212.604)" fill="black"/>
<rect width="9.53812" height="9.53812" transform="matrix(-0.737179 0.675697 0.675697 0.737179 271.229 219.031)" fill="black"/>
<rect width="9.53812" height="9.53812" transform="matrix(-0.737179 0.675697 0.675697 0.737179 264.209 225.489)" fill="black"/>
<rect width="9.53812" height="9.53812" transform="matrix(-0.737179 0.675697 0.675697 0.737179 257.166 231.927)" fill="black"/>
<rect width="9.53812" height="9.53812" transform="matrix(-0.737179 0.675697 0.675697 0.737179 250.125 238.386)" fill="black"/>
<rect width="9.53812" height="9.53812" transform="matrix(-0.737179 0.675697 0.675697 0.737179 243.125 244.812)" fill="#A8FF39"/>
<rect width="9.53812" height="9.53812" transform="matrix(-0.737179 0.675697 0.675697 0.737179 236.064 251.272)" fill="#A2EC00"/>
<rect width="9.53812" height="9.53812" transform="matrix(-0.737179 0.675697 0.675697 0.737179 229.041 257.698)" fill="black"/>
<rect width="9.53812" height="9.53812" transform="matrix(-0.737179 0.675697 0.675697 0.737179 222.021 264.167)" fill="#56D019"/>
<rect width="9.53812" height="9.53812" transform="matrix(-0.737179 0.675697 0.675697 0.737179 214.98 270.603)" fill="#A6F800"/>
<rect width="9.53812" height="9.53812" transform="matrix(-0.737179 0.675697 0.675697 0.737179 207.938 277.031)" fill="#A6F800"/>
<rect width="9.53812" height="9.53812" transform="matrix(-0.737179 0.675697 0.675697 0.737179 200.938 283.479)" fill="#A6F800"/>
<rect width="9.53812" height="9.53812" transform="matrix(-0.737179 0.675697 0.675697 0.737179 193.896 289.917)" fill="black"/>
<rect width="9.53812" height="9.53812" transform="matrix(-0.737179 0.675697 0.675697 0.737179 186.854 296.386)" fill="black"/>
<rect width="9.53812" height="9.53812" transform="matrix(-0.737179 0.675697 0.675697 0.737179 179.812 302.812)" fill="black"/>
<rect width="9.53812" height="9.53812" transform="matrix(-0.737179 0.675697 0.675697 0.737179 172.791 309.273)" fill="#95CB00"/>
<rect width="9.53812" height="9.53812" transform="matrix(-0.737179 0.675697 0.675697 0.737179 165.771 315.698)" fill="#A6F800"/>
<rect width="9.53812" height="9.53812" transform="matrix(-0.737179 0.675697 0.675697 0.737179 158.729 322.156)" fill="black"/>
<rect width="9.53812" height="9.53812" transform="matrix(-0.737179 0.675697 0.675697 0.737179 151.709 328.592)" fill="black"/>
<rect width="9.53812" height="9.53812" transform="matrix(-0.737179 0.675697 0.675697 0.737179 144.666 335.052)" fill="black"/>
<rect width="9.53812" height="9.53812" transform="matrix(-0.737179 0.675697 0.675697 0.737179 137.646 341.479)" fill="black"/>
<rect width="9.53812" height="9.53812" transform="matrix(-0.737179 0.675697 0.675697 0.737179 326.916 180.958)" fill="black"/>
<rect width="9.53812" height="9.53812" transform="matrix(-0.737179 0.675697 0.675697 0.737179 319.875 187.396)" fill="#21274F"/>
<rect width="9.53812" height="9.53812" transform="matrix(-0.737179 0.675697 0.675697 0.737179 312.832 193.845)" fill="#A6F100"/>
<rect width="9.53812" height="9.53812" transform="matrix(-0.737179 0.675697 0.675697 0.737179 305.791 200.271)" fill="#A7FF36"/>
<rect width="9.53812" height="9.53812" transform="matrix(-0.737179 0.675697 0.675697 0.737179 298.791 206.75)" fill="#9AFF07"/>
<rect width="9.53812" height="9.53812" transform="matrix(-0.737179 0.675697 0.675697 0.737179 291.75 213.177)" fill="black"/>
<rect width="9.53812" height="9.53812" transform="matrix(-0.737179 0.675697 0.675697 0.737179 284.688 219.625)" fill="black"/>
<rect width="9.53812" height="9.53812" transform="matrix(-0.737179 0.675697 0.675697 0.737179 277.688 226.062)" fill="#85FF07"/>
<rect width="9.53812" height="9.53812" transform="matrix(-0.737179 0.675697 0.675697 0.737179 270.666 232.511)" fill="#A6F800"/>
<rect width="9.53812" height="9.53812" transform="matrix(-0.737179 0.675697 0.675697 0.737179 263.604 238.948)" fill="black"/>
<rect width="9.53812" height="9.53812" transform="matrix(-0.737179 0.675697 0.675697 0.737179 256.604 245.406)" fill="#A7FF36"/>
<rect width="9.53812" height="9.53812" transform="matrix(-0.737179 0.675697 0.675697 0.737179 249.541 251.844)" fill="#A6F800"/>
<rect width="9.53812" height="9.53812" transform="matrix(-0.737179 0.675697 0.675697 0.737179 242.521 258.292)" fill="#A6F800"/>
<rect width="9.53812" height="9.53812" transform="matrix(-0.737179 0.675697 0.675697 0.737179 235.5 264.739)" fill="#A6F800"/>
<rect width="9.53812" height="9.53812" transform="matrix(-0.737179 0.675697 0.675697 0.737179 228.459 271.188)" fill="#A6F800"/>
<rect width="9.53812" height="9.53812" transform="matrix(-0.737179 0.675697 0.675697 0.737179 221.438 277.614)" fill="#A1E800"/>
<rect width="9.53812" height="9.53812" transform="matrix(-0.737179 0.675697 0.675697 0.737179 214.416 284.073)" fill="#A9FF02"/>
<rect width="9.53812" height="9.53812" transform="matrix(-0.737179 0.675697 0.675697 0.737179 207.354 290.521)" fill="#A7FC00"/>
<rect width="9.53812" height="9.53812" transform="matrix(-0.737179 0.675697 0.675697 0.737179 200.334 296.969)" fill="#A7FC00"/>
<rect width="9.53812" height="9.53812" transform="matrix(-0.737179 0.675697 0.675697 0.737179 193.291 303.406)" fill="black"/>
<rect width="9.53812" height="9.53812" transform="matrix(-0.737179 0.675697 0.675697 0.737179 186.271 309.864)" fill="black"/>
<rect width="9.53812" height="9.53812" transform="matrix(-0.737179 0.675697 0.675697 0.737179 179.25 316.302)" fill="#9DD400"/>
<rect width="9.53812" height="9.53812" transform="matrix(-0.737179 0.675697 0.675697 0.737179 172.188 322.75)" fill="#95CB00"/>
<rect width="9.53812" height="9.53812" transform="matrix(-0.737179 0.675697 0.675697 0.737179 165.188 329.188)" fill="#A6F800"/>
<rect width="9.53812" height="9.53812" transform="matrix(-0.737179 0.675697 0.675697 0.737179 158.127 335.616)" fill="black"/>
<rect width="9.53812" height="9.53812" transform="matrix(-0.737179 0.675697 0.675697 0.737179 151.104 342.073)" fill="#1C092C"/>
<rect width="9.53812" height="9.53812" transform="matrix(-0.737179 0.675697 0.675697 0.737179 144.104 348.511)" fill="black"/>
<rect width="9.53812" height="9.53812" transform="matrix(-0.737179 0.675697 0.675697 0.737179 137.043 354.969)" fill="black"/>
<rect width="9.53812" height="9.53812" transform="matrix(-0.737179 0.675697 0.675697 0.737179 333.334 187.989)" fill="black"/>
<rect width="9.53812" height="9.53812" transform="matrix(-0.737179 0.675697 0.675697 0.737179 326.334 194.438)" fill="#A5F300"/>
<rect width="9.53812" height="9.53812" transform="matrix(-0.737179 0.675697 0.675697 0.737179 319.271 200.864)" fill="#AFFF03"/>
<rect width="9.53812" height="9.53812" transform="matrix(-0.737179 0.675697 0.675697 0.737179 312.229 207.333)" fill="#A6F800"/>
<rect width="9.53812" height="9.53812" transform="matrix(-0.737179 0.675697 0.675697 0.737179 305.229 213.761)" fill="black"/>
<rect width="9.53812" height="9.53812" transform="matrix(-0.737179 0.675697 0.675697 0.737179 298.189 220.21)" fill="black"/>
<rect width="9.53812" height="9.53812" transform="matrix(-0.737179 0.675697 0.675697 0.737179 291.146 226.656)" fill="#A4F500"/>
<rect width="9.53812" height="9.53812" transform="matrix(-0.737179 0.675697 0.675697 0.737179 284.125 233.114)" fill="#95CB00"/>
<rect width="9.53812" height="9.53812" transform="matrix(-0.737179 0.675697 0.675697 0.737179 277.084 239.54)" fill="#96CA00"/>
<rect width="9.53812" height="9.53812" transform="matrix(-0.737179 0.675697 0.675697 0.737179 270.062 245.979)" fill="#A8FF38"/>
<rect width="9.53812" height="9.53812" transform="matrix(-0.737179 0.675697 0.675697 0.737179 263.021 252.427)" fill="#A6F800"/>
<rect width="9.53812" height="9.53812" transform="matrix(-0.737179 0.675697 0.675697 0.737179 256 258.886)" fill="#A6F800"/>
<rect width="9.53812" height="9.53812" transform="matrix(-0.737179 0.675697 0.675697 0.737179 248.979 265.333)" fill="#A6F800"/>
<rect width="9.53812" height="9.53812" transform="matrix(-0.737179 0.675697 0.675697 0.737179 241.938 271.761)" fill="#95CF00"/>
<rect width="9.53812" height="9.53812" transform="matrix(-0.737179 0.675697 0.675697 0.737179 234.895 278.211)" fill="#96CA00"/>
<rect width="9.53812" height="9.53812" transform="matrix(-0.737179 0.675697 0.675697 0.737179 227.854 284.646)" fill="black"/>
<rect width="9.53812" height="9.53812" transform="matrix(-0.737179 0.675697 0.675697 0.737179 220.854 291.104)" fill="#9CFF0C"/>
<rect width="9.53812" height="9.53812" transform="matrix(-0.737179 0.675697 0.675697 0.737179 213.812 297.552)" fill="#A6F800"/>
<rect width="9.53812" height="9.53812" transform="matrix(-0.737179 0.675697 0.675697 0.737179 206.771 304)" fill="#95CB00"/>
<rect width="9.53812" height="9.53812" transform="matrix(-0.737179 0.675697 0.675697 0.737179 199.75 310.427)" fill="#9ACF00"/>
<rect width="9.53812" height="9.53812" transform="matrix(-0.737179 0.675697 0.675697 0.737179 192.729 316.886)" fill="#97EE01"/>
<rect width="9.53812" height="9.53812" transform="matrix(-0.737179 0.675697 0.675697 0.737179 185.666 323.323)" fill="black"/>
<rect width="9.53812" height="9.53812" transform="matrix(-0.737179 0.675697 0.675697 0.737179 178.666 329.781)" fill="#95CB00"/>
<rect width="9.53812" height="9.53812" transform="matrix(-0.737179 0.675697 0.675697 0.737179 171.646 336.208)" fill="#95CB00"/>
<rect width="9.53812" height="9.53812" transform="matrix(-0.737179 0.675697 0.675697 0.737179 164.584 342.677)" fill="#A6F800"/>
<rect width="9.53812" height="9.53812" transform="matrix(-0.737179 0.675697 0.675697 0.737179 157.562 349.104)" fill="black"/>
<rect width="9.53812" height="9.53812" transform="matrix(-0.737179 0.675697 0.675697 0.737179 150.521 355.552)" fill="black"/>
<rect width="9.53812" height="9.53812" transform="matrix(-0.737179 0.675697 0.675697 0.737179 143.5 361.989)" fill="black"/>
<rect width="9.53812" height="9.53812" transform="matrix(-0.737179 0.675697 0.675697 0.737179 136.479 368.458)" fill="black"/>
<rect width="9.53812" height="9.53812" transform="matrix(-0.737179 0.675697 0.675697 0.737179 339.791 195)" fill="black"/>
<rect width="9.53812" height="9.53812" transform="matrix(-0.737179 0.675697 0.675697 0.737179 332.75 201.469)" fill="black"/>
<rect width="9.53812" height="9.53812" transform="matrix(-0.737179 0.675697 0.675697 0.737179 325.729 207.906)" fill="black"/>
<rect width="9.53812" height="9.53812" transform="matrix(-0.737179 0.675697 0.675697 0.737179 318.709 214.354)" fill="black"/>
<rect width="9.53812" height="9.53812" transform="matrix(-0.737179 0.675697 0.675697 0.737179 311.666 220.792)" fill="#A6F800"/>
<rect width="9.53812" height="9.53812" transform="matrix(-0.737179 0.675697 0.675697 0.737179 304.646 227.239)" fill="#91C200"/>
<rect width="9.53812" height="9.53812" transform="matrix(-0.737179 0.675697 0.675697 0.737179 297.584 233.677)" fill="#95CB00"/>
<rect width="9.53812" height="9.53812" transform="matrix(-0.737179 0.675697 0.675697 0.737179 290.562 240.146)" fill="#95CB00"/>
<rect width="9.53812" height="9.53812" transform="matrix(-0.737179 0.675697 0.675697 0.737179 283.541 246.573)" fill="#A7F900"/>
<rect width="9.53812" height="9.53812" transform="matrix(-0.737179 0.675697 0.675697 0.737179 276.5 253.021)" fill="#A6F800"/>
<rect width="9.53812" height="9.53812" transform="matrix(-0.737179 0.675697 0.675697 0.737179 269.479 259.469)" fill="#A6F800"/>
<rect width="9.53812" height="9.53812" transform="matrix(-0.737179 0.675697 0.675697 0.737179 262.439 265.916)" fill="#A6F800"/>
<rect width="9.53812" height="9.53812" transform="matrix(-0.737179 0.675697 0.675697 0.737179 255.396 272.344)" fill="#94C900"/>
<rect width="9.53812" height="9.53812" transform="matrix(-0.737179 0.675697 0.675697 0.737179 248.396 278.802)" fill="black"/>
<rect width="9.53812" height="9.53812" transform="matrix(-0.737179 0.675697 0.675697 0.737179 241.334 285.25)" fill="black"/>
<rect width="9.53812" height="9.53812" transform="matrix(-0.737179 0.675697 0.675697 0.737179 234.312 291.698)" fill="#E3A8FF"/>
<rect width="9.53812" height="9.53812" transform="matrix(-0.737179 0.675697 0.675697 0.737179 227.291 298.136)" fill="black"/>
<rect width="9.53812" height="9.53812" transform="matrix(-0.737179 0.675697 0.675697 0.737179 220.25 304.583)" fill="#A6F800"/>
<rect width="9.53812" height="9.53812" transform="matrix(-0.737179 0.675697 0.675697 0.737179 213.209 311.031)" fill="#A4F700"/>
<rect width="9.53812" height="9.53812" transform="matrix(-0.737179 0.675697 0.675697 0.737179 206.209 317.469)" fill="#9BD900"/>
<rect width="9.53812" height="9.53812" transform="matrix(-0.737179 0.675697 0.675697 0.737179 199.168 323.917)" fill="#95CB00"/>
<rect width="9.53812" height="9.53812" transform="matrix(-0.737179 0.675697 0.675697 0.737179 192.125 330.344)" fill="#95CB00"/>
<rect width="9.53812" height="9.53812" transform="matrix(-0.737179 0.675697 0.675697 0.737179 185.084 336.802)" fill="#95CB00"/>
<rect width="9.53812" height="9.53812" transform="matrix(-0.737179 0.675697 0.675697 0.737179 178.062 343.239)" fill="#95CB00"/>
<rect width="9.53812" height="9.53812" transform="matrix(-0.737179 0.675697 0.675697 0.737179 171.041 349.698)" fill="#94C900"/>
<rect width="9.53812" height="9.53812" transform="matrix(-0.737179 0.675697 0.675697 0.737179 164 356.136)" fill="#A6F800"/>
<rect width="9.53812" height="9.53812" transform="matrix(-0.737179 0.675697 0.675697 0.737179 156.979 362.583)" fill="#A6F800"/>
<rect width="9.53812" height="9.53812" transform="matrix(-0.737179 0.675697 0.675697 0.737179 149.938 369.021)" fill="black"/>
<rect width="9.53812" height="9.53812" transform="matrix(-0.737179 0.675697 0.675697 0.737179 142.916 375.479)" fill="black"/>
<rect width="9.53812" height="9.53812" transform="matrix(-0.737179 0.675697 0.675697 0.737179 135.875 381.918)" fill="#030402"/>
<rect width="9.53812" height="9.53812" transform="matrix(-0.737179 0.675697 0.675697 0.737179 353.271 195.604)" fill="#161C0C"/>
<rect width="9.53812" height="9.53812" transform="matrix(-0.737179 0.675697 0.675697 0.737179 346.229 202.062)" fill="black"/>
<rect width="9.53812" height="9.53812" transform="matrix(-0.737179 0.675697 0.675697 0.737179 339.209 208.488)" fill="#A7FF36"/>
<rect width="9.53812" height="9.53812" transform="matrix(-0.737179 0.675697 0.675697 0.737179 332.188 214.938)" fill="#A9FA00"/>
<rect width="9.53812" height="9.53812" transform="matrix(-0.737179 0.675697 0.675697 0.737179 325.146 221.386)" fill="#A7F900"/>
<rect width="9.53812" height="9.53812" transform="matrix(-0.737179 0.675697 0.675697 0.737179 318.104 227.823)" fill="#93C500"/>
<rect width="9.53812" height="9.53812" transform="matrix(-0.737179 0.675697 0.675697 0.737179 311.062 234.271)" fill="#95CB00"/>
<rect width="9.53812" height="9.53812" transform="matrix(-0.737179 0.675697 0.675697 0.737179 304.062 240.708)" fill="#95CB00"/>
<rect width="9.53812" height="9.53812" transform="matrix(-0.737179 0.675697 0.675697 0.737179 297.021 247.156)" fill="#95CB00"/>
<rect width="9.53812" height="9.53812" transform="matrix(-0.737179 0.675697 0.675697 0.737179 289.959 253.594)" fill="#A6F800"/>
<rect width="9.53812" height="9.53812" transform="matrix(-0.737179 0.675697 0.675697 0.737179 282.959 260.062)" fill="#91C300"/>
<rect width="9.53812" height="9.53812" transform="matrix(-0.737179 0.675697 0.675697 0.737179 275.938 266.489)" fill="#A6F800"/>
<rect width="9.53812" height="9.53812" transform="matrix(-0.737179 0.675697 0.675697 0.737179 268.875 272.938)" fill="#95CA00"/>
<rect width="9.53812" height="9.53812" transform="matrix(-0.737179 0.675697 0.675697 0.737179 261.875 279.375)" fill="black"/>
<rect width="9.53812" height="9.53812" transform="matrix(-0.737179 0.675697 0.675697 0.737179 254.834 285.833)" fill="#444E1E"/>
<rect width="9.53812" height="9.53812" transform="matrix(-0.737179 0.675697 0.675697 0.737179 247.791 292.281)" fill="#FAFCF8"/>
<rect width="9.53812" height="9.53812" transform="matrix(-0.737179 0.675697 0.675697 0.737179 240.771 298.729)" fill="#D18FCF"/>
<rect width="9.53812" height="9.53812" transform="matrix(-0.737179 0.675697 0.675697 0.737179 233.729 305.156)" fill="black"/>
<rect width="9.53812" height="9.53812" transform="matrix(-0.737179 0.675697 0.675697 0.737179 226.709 311.614)" fill="#A6F800"/>
<rect width="9.53812" height="9.53812" transform="matrix(-0.737179 0.675697 0.675697 0.737179 219.688 318.052)" fill="#A7F900"/>
<rect width="9.53812" height="9.53812" transform="matrix(-0.737179 0.675697 0.675697 0.737179 212.625 324.511)" fill="#A6F800"/>
<rect width="9.53812" height="9.53812" transform="matrix(-0.737179 0.675697 0.675697 0.737179 205.604 330.948)" fill="#95CB00"/>
<rect width="9.53812" height="9.53812" transform="matrix(-0.737179 0.675697 0.675697 0.737179 198.562 337.406)" fill="#95CB00"/>
<rect width="9.53812" height="9.53812" transform="matrix(-0.737179 0.675697 0.675697 0.737179 191.541 343.833)" fill="#95CB00"/>
<rect width="9.53812" height="9.53812" transform="matrix(-0.737179 0.675697 0.675697 0.737179 184.521 350.281)" fill="#95CB00"/>
<rect width="9.53812" height="9.53812" transform="matrix(-0.737179 0.675697 0.675697 0.737179 177.479 356.719)" fill="#95CB00"/>
<rect width="9.53812" height="9.53812" transform="matrix(-0.737179 0.675697 0.675697 0.737179 170.459 363.188)" fill="#A9FE00"/>
<rect width="9.53812" height="9.53812" transform="matrix(-0.737179 0.675697 0.675697 0.737179 163.42 369.612)" fill="#A6F800"/>
<rect width="9.53812" height="9.53812" transform="matrix(-0.737179 0.675697 0.675697 0.737179 156.375 376.052)" fill="black"/>
<rect width="9.53812" height="9.53812" transform="matrix(-0.737179 0.675697 0.675697 0.737179 149.375 382.5)" fill="black"/>
<rect width="9.53812" height="9.53812" transform="matrix(-0.737179 0.675697 0.675697 0.737179 142.312 388.938)" fill="black"/>
<rect width="9.53812" height="9.53812" transform="matrix(-0.737179 0.675697 0.675697 0.737179 366.75 196.198)" fill="black"/>
<rect width="9.53812" height="9.53812" transform="matrix(-0.737179 0.675697 0.675697 0.737179 359.709 202.636)" fill="black"/>
<rect width="9.53812" height="9.53812" transform="matrix(-0.737179 0.675697 0.675697 0.737179 352.688 209.083)" fill="#B0FF02"/>
<rect width="9.53812" height="9.53812" transform="matrix(-0.737179 0.675697 0.675697 0.737179 345.627 215.523)" fill="#AEFF03"/>
<rect width="9.53812" height="9.53812" transform="matrix(-0.737179 0.675697 0.675697 0.737179 338.604 221.969)" fill="black"/>
<rect width="9.53812" height="9.53812" transform="matrix(-0.737179 0.675697 0.675697 0.737179 331.604 228.406)" fill="black"/>
<rect width="9.53812" height="9.53812" transform="matrix(-0.737179 0.675697 0.675697 0.737179 324.543 234.875)" fill="#A7FE00"/>
<rect width="9.53812" height="9.53812" transform="matrix(-0.737179 0.675697 0.675697 0.737179 317.5 241.302)" fill="#95CB00"/>
<rect width="9.53812" height="9.53812" transform="matrix(-0.737179 0.675697 0.675697 0.737179 310.5 247.75)" fill="#95CB00"/>
<rect width="9.53812" height="9.53812" transform="matrix(-0.737179 0.675697 0.675697 0.737179 303.459 254.198)" fill="#95CB00"/>
<rect width="9.53812" height="9.53812" transform="matrix(-0.737179 0.675697 0.675697 0.737179 296.416 260.646)" fill="#95CB00"/>
<rect width="9.53812" height="9.53812" transform="matrix(-0.737179 0.675697 0.675697 0.737179 289.416 267.073)" fill="#A6F800"/>
<rect width="9.53812" height="9.53812" transform="matrix(-0.737179 0.675697 0.675697 0.737179 282.375 273.542)" fill="#95CA00"/>
<rect width="9.53812" height="9.53812" transform="matrix(-0.737179 0.675697 0.675697 0.737179 275.334 279.979)" fill="black"/>
<rect width="9.53812" height="9.53812" transform="matrix(-0.737179 0.675697 0.675697 0.737179 268.291 286.417)" fill="#E1A9FF"/>
<rect width="9.53812" height="9.53812" transform="matrix(-0.737179 0.675697 0.675697 0.737179 261.271 292.865)" fill="#FAFCF8"/>
<rect width="9.53812" height="9.53812" transform="matrix(-0.737179 0.675697 0.675697 0.737179 254.25 299.292)" fill="#FAFCF8"/>
<rect width="9.53812" height="9.53812" transform="matrix(-0.737179 0.675697 0.675697 0.737179 247.209 305.761)" fill="black"/>
<rect width="9.53812" height="9.53812" transform="matrix(-0.737179 0.675697 0.675697 0.737179 240.166 312.195)" fill="black"/>
<rect width="9.53812" height="9.53812" transform="matrix(-0.737179 0.675697 0.675697 0.737179 233.125 318.646)" fill="#A6F800"/>
<rect width="9.53812" height="9.53812" transform="matrix(-0.737179 0.675697 0.675697 0.737179 226.125 325.073)" fill="#A6F800"/>
<rect width="9.53812" height="9.53812" transform="matrix(-0.737179 0.675697 0.675697 0.737179 219.084 331.531)" fill="#95CB00"/>
<rect width="9.53812" height="9.53812" transform="matrix(-0.737179 0.675697 0.675697 0.737179 212.041 337.969)" fill="#A6F800"/>
<rect width="9.53812" height="9.53812" transform="matrix(-0.737179 0.675697 0.675697 0.737179 205.041 344.427)" fill="#9BD000"/>
<rect width="9.53812" height="9.53812" transform="matrix(-0.737179 0.675697 0.675697 0.737179 198 350.866)" fill="#9AD000"/>
<rect width="9.53812" height="9.53812" transform="matrix(-0.737179 0.675697 0.675697 0.737179 190.938 357.312)" fill="#95CB00"/>
<rect width="9.53812" height="9.53812" transform="matrix(-0.737179 0.675697 0.675697 0.737179 183.938 363.75)" fill="#95CB00"/>
<rect width="9.53812" height="9.53812" transform="matrix(-0.737179 0.675697 0.675697 0.737179 176.916 370.207)" fill="#95CB00"/>
<rect width="9.53812" height="9.53812" transform="matrix(-0.737179 0.675697 0.675697 0.737179 169.854 376.646)" fill="#A6F800"/>
<rect width="9.53812" height="9.53812" transform="matrix(-0.737179 0.675697 0.675697 0.737179 162.834 383.094)" fill="black"/>
<rect width="9.53812" height="9.53812" transform="matrix(-0.737179 0.675697 0.675697 0.737179 155.791 389.542)" fill="black"/>
<rect width="9.53812" height="9.53812" transform="matrix(-0.737179 0.675697 0.675697 0.737179 148.771 395.989)" fill="black"/>
<rect width="9.53812" height="9.53812" transform="matrix(-0.737179 0.675697 0.675697 0.737179 387.271 190.333)" fill="black"/>
<rect width="9.53812" height="9.53812" transform="matrix(-0.737179 0.675697 0.675697 0.737179 380.209 196.771)" fill="black"/>
<rect width="9.53812" height="9.53812" transform="matrix(-0.737179 0.675697 0.675697 0.737179 373.166 203.219)" fill="#9EFF36"/>
<rect width="9.53812" height="9.53812" transform="matrix(-0.737179 0.675697 0.675697 0.737179 366.166 209.656)" fill="#A7FF36"/>
<rect width="9.53812" height="9.53812" transform="matrix(-0.737179 0.675697 0.675697 0.737179 359.146 216.114)" fill="#9EFF29"/>
<rect width="9.53812" height="9.53812" transform="matrix(-0.737179 0.675697 0.675697 0.737179 352.084 222.552)" fill="black"/>
<rect width="9.53812" height="9.53812" transform="matrix(-0.737179 0.675697 0.675697 0.737179 345.084 229.011)" fill="#A6F800"/>
<rect width="9.53812" height="9.53812" transform="matrix(-0.737179 0.675697 0.675697 0.737179 338.021 235.438)" fill="#A6F800"/>
<rect width="9.53812" height="9.53812" transform="matrix(-0.737179 0.675697 0.675697 0.737179 331 241.886)" fill="#A7F900"/>
<rect width="9.53812" height="9.53812" transform="matrix(-0.737179 0.675697 0.675697 0.737179 323.979 248.323)" fill="#95CB00"/>
<rect width="9.53812" height="9.53812" transform="matrix(-0.737179 0.675697 0.675697 0.737179 316.938 254.792)" fill="#95CB00"/>
<rect width="9.53812" height="9.53812" transform="matrix(-0.737179 0.675697 0.675697 0.737179 309.916 261.219)" fill="#95CB00"/>
<rect width="9.53812" height="9.53812" transform="matrix(-0.737179 0.675697 0.675697 0.737179 302.854 267.667)" fill="#A6F800"/>
<rect width="9.53812" height="9.53812" transform="matrix(-0.737179 0.675697 0.675697 0.737179 295.834 274.104)" fill="#94C900"/>
<rect width="9.53812" height="9.53812" transform="matrix(-0.737179 0.675697 0.675697 0.737179 288.812 280.562)" fill="black"/>
<rect width="9.53812" height="9.53812" transform="matrix(-0.737179 0.675697 0.675697 0.737179 281.771 287.011)" fill="#E69BFF"/>
<rect width="9.53812" height="9.53812" transform="matrix(-0.737179 0.675697 0.675697 0.737179 274.75 293.458)" fill="#FAFCF8"/>
<rect width="9.53812" height="9.53812" transform="matrix(-0.737179 0.675697 0.675697 0.737179 267.709 299.886)" fill="#FAFCF8"/>
<rect width="9.53812" height="9.53812" transform="matrix(-0.737179 0.675697 0.675697 0.737179 260.666 306.344)" fill="#FAFCF8"/>
<rect width="9.53812" height="9.53812" transform="matrix(-0.737179 0.675697 0.675697 0.737179 253.666 312.781)" fill="#FAFCF8"/>
<rect width="9.53812" height="9.53812" transform="matrix(-0.737179 0.675697 0.675697 0.737179 246.605 319.23)" fill="black"/>
<rect width="9.53812" height="9.53812" transform="matrix(-0.737179 0.675697 0.675697 0.737179 239.584 325.677)" fill="#A6F800"/>
<rect width="9.53812" height="9.53812" transform="matrix(-0.737179 0.675697 0.675697 0.737179 232.584 332.136)" fill="#A6F800"/>
<rect width="9.53812" height="9.53812" transform="matrix(-0.737179 0.675697 0.675697 0.737179 225.521 338.561)" fill="#95CA00"/>
<rect width="9.53812" height="9.53812" transform="matrix(-0.737179 0.675697 0.675697 0.737179 218.479 345)" fill="#95CB00"/>
<rect width="9.53812" height="9.53812" transform="matrix(-0.737179 0.675697 0.675697 0.737179 211.479 351.448)" fill="#95CB00"/>
<rect width="9.53812" height="9.53812" transform="matrix(-0.737179 0.675697 0.675697 0.737179 204.438 357.875)" fill="black"/>
<rect width="9.53812" height="9.53812" transform="matrix(-0.737179 0.675697 0.675697 0.737179 197.396 364.354)" fill="#9ED400"/>
<rect width="9.53812" height="9.53812" transform="matrix(-0.737179 0.675697 0.675697 0.737179 190.354 370.781)" fill="#95CB00"/>
<rect width="9.53812" height="9.53812" transform="matrix(-0.737179 0.675697 0.675697 0.737179 183.334 377.231)" fill="#95CB00"/>
<rect width="9.53812" height="9.53812" transform="matrix(-0.737179 0.675697 0.675697 0.737179 176.312 383.667)" fill="black"/>
<rect width="9.53812" height="9.53812" transform="matrix(-0.737179 0.675697 0.675697 0.737179 169.271 390.136)" fill="black"/>
<rect width="9.53812" height="9.53812" transform="matrix(-0.737179 0.675697 0.675697 0.737179 162.25 396.562)" fill="black"/>
<rect width="9.53812" height="9.53812" transform="matrix(-0.737179 0.675697 0.675697 0.737179 393.709 197.354)" fill="black"/>
<rect width="9.53812" height="9.53812" transform="matrix(-0.737179 0.675697 0.675697 0.737179 386.668 203.812)" fill="#A6FF38"/>
<rect width="9.53812" height="9.53812" transform="matrix(-0.737179 0.675697 0.675697 0.737179 379.625 210.25)" fill="#A7FF36"/>
<rect width="9.53812" height="9.53812" transform="matrix(-0.737179 0.675697 0.675697 0.737179 372.604 216.698)" fill="#A0FF05"/>
<rect width="9.53812" height="9.53812" transform="matrix(-0.737179 0.675697 0.675697 0.737179 365.562 223.136)" fill="#A6F800"/>
<rect width="9.53812" height="9.53812" transform="matrix(-0.737179 0.675697 0.675697 0.737179 358.541 229.604)" fill="#A6F800"/>
<rect width="9.53812" height="9.53812" transform="matrix(-0.737179 0.675697 0.675697 0.737179 351.5 236.031)" fill="#A6F800"/>
<rect width="9.53812" height="9.53812" transform="matrix(-0.737179 0.675697 0.675697 0.737179 344.479 242.479)" fill="#A6F800"/>
<rect width="9.53812" height="9.53812" transform="matrix(-0.737179 0.675697 0.675697 0.737179 337.459 248.927)" fill="#A6F800"/>
<rect width="9.53812" height="9.53812" transform="matrix(-0.737179 0.675697 0.675697 0.737179 330.416 255.354)" fill="black"/>
<rect width="9.53812" height="9.53812" transform="matrix(-0.737179 0.675697 0.675697 0.737179 323.375 261.803)" fill="#99CE00"/>
<rect width="9.53812" height="9.53812" transform="matrix(-0.737179 0.675697 0.675697 0.737179 316.334 268.239)" fill="#A5F900"/>
<rect width="9.53812" height="9.53812" transform="matrix(-0.737179 0.675697 0.675697 0.737179 309.334 274.708)" fill="#93C500"/>
<rect width="9.53812" height="9.53812" transform="matrix(-0.737179 0.675697 0.675697 0.737179 302.291 281.144)" fill="black"/>
<rect width="9.53812" height="9.53812" transform="matrix(-0.737179 0.675697 0.675697 0.737179 295.229 287.594)" fill="#E69CFF"/>
<rect width="9.53812" height="9.53812" transform="matrix(-0.737179 0.675697 0.675697 0.737179 288.229 294.021)" fill="#FAFCF8"/>
<rect width="9.53812" height="9.53812" transform="matrix(-0.737179 0.675697 0.675697 0.737179 281.209 300.469)" fill="#FAFCF8"/>
<rect width="9.53812" height="9.53812" transform="matrix(-0.737179 0.675697 0.675697 0.737179 274.146 306.927)" fill="#FAFCF8"/>
<rect width="9.53812" height="9.53812" transform="matrix(-0.737179 0.675697 0.675697 0.737179 267.146 313.375)" fill="#FAFCF8"/>
<rect width="9.53812" height="9.53812" transform="matrix(-0.737179 0.675697 0.675697 0.737179 260.102 319.814)" fill="black"/>
<rect width="9.53812" height="9.53812" transform="matrix(-0.737179 0.675697 0.675697 0.737179 253.062 326.261)" fill="#A8FF39"/>
<rect width="9.53812" height="9.53812" transform="matrix(-0.737179 0.675697 0.675697 0.737179 246.041 332.698)" fill="#A6F800"/>
<rect width="9.53812" height="9.53812" transform="matrix(-0.737179 0.675697 0.675697 0.737179 239 339.156)" fill="#A6F800"/>
<rect width="9.53812" height="9.53812" transform="matrix(-0.737179 0.675697 0.675697 0.737179 231.979 345.594)" fill="#A8FF01"/>
<rect width="9.53812" height="9.53812" transform="matrix(-0.737179 0.675697 0.675697 0.737179 224.959 352.042)" fill="black"/>
<rect width="9.53812" height="9.53812" transform="matrix(-0.737179 0.675697 0.675697 0.737179 217.896 358.479)" fill="#AAFF01"/>
<rect width="9.53812" height="9.53812" transform="matrix(-0.737179 0.675697 0.675697 0.737179 210.875 364.938)" fill="#97CC00"/>
<rect width="9.53812" height="9.53812" transform="matrix(-0.737179 0.675697 0.675697 0.737179 203.834 371.364)" fill="black"/>
<rect width="9.53812" height="9.53812" transform="matrix(-0.737179 0.675697 0.675697 0.737179 196.812 377.823)" fill="#95CB00"/>
<rect width="9.53812" height="9.53812" transform="matrix(-0.737179 0.675697 0.675697 0.737179 189.791 384.271)" fill="#98CE00"/>
<rect width="9.53812" height="9.53812" transform="matrix(-0.737179 0.675697 0.675697 0.737179 182.75 390.719)" fill="black"/>
<rect width="9.53812" height="9.53812" transform="matrix(-0.737179 0.675697 0.675697 0.737179 175.729 397.146)" fill="black"/>
<rect width="9.53812" height="9.53812" transform="matrix(-0.737179 0.675697 0.675697 0.737179 168.688 403.604)" fill="black"/>
<rect width="9.53812" height="9.53812" transform="matrix(-0.737179 0.675697 0.675697 0.737179 400.146 204.386)" fill="black"/>
<rect width="9.53812" height="9.53812" transform="matrix(-0.737179 0.675697 0.675697 0.737179 393.104 210.833)" fill="#A4FB00"/>
<rect width="9.53812" height="9.53812" transform="matrix(-0.737179 0.675697 0.675697 0.737179 386.062 217.281)" fill="#A7FF36"/>
<rect width="9.53812" height="9.53812" transform="matrix(-0.737179 0.675697 0.675697 0.737179 379.041 223.739)" fill="#A6F800"/>
<rect width="9.53812" height="9.53812" transform="matrix(-0.737179 0.675697 0.675697 0.737179 372.021 230.167)" fill="#A6F800"/>
<rect width="9.53812" height="9.53812" transform="matrix(-0.737179 0.675697 0.675697 0.737179 364.979 236.614)" fill="#A6F800"/>
<rect width="9.53812" height="9.53812" transform="matrix(-0.737179 0.675697 0.675697 0.737179 357.959 243.052)" fill="#A6F800"/>
<rect width="9.53812" height="9.53812" transform="matrix(-0.737179 0.675697 0.675697 0.737179 350.896 249.519)" fill="#A6F800"/>
<rect width="9.53812" height="9.53812" transform="matrix(-0.737179 0.675697 0.675697 0.737179 343.875 255.948)" fill="#A6FA00"/>
<rect width="9.53812" height="9.53812" transform="matrix(-0.737179 0.675697 0.675697 0.737179 336.875 262.406)" fill="black"/>
<rect width="9.53812" height="9.53812" transform="matrix(-0.737179 0.675697 0.675697 0.737179 329.812 268.833)" fill="#54D41B"/>
<rect width="9.53812" height="9.53812" transform="matrix(-0.737179 0.675697 0.675697 0.737179 322.791 275.292)" fill="#92C200"/>
<rect width="9.53812" height="9.53812" transform="matrix(-0.737179 0.675697 0.675697 0.737179 315.771 281.729)" fill="black"/>
<rect width="9.53812" height="9.53812" transform="matrix(-0.737179 0.675697 0.675697 0.737179 308.73 288.19)" fill="#E69CFF"/>
<rect width="9.53812" height="9.53812" transform="matrix(-0.737179 0.675697 0.675697 0.737179 301.688 294.614)" fill="#FAFCF8"/>
<rect width="9.53812" height="9.53812" transform="matrix(-0.737179 0.675697 0.675697 0.737179 294.688 301.073)" fill="black"/>
<rect width="9.53812" height="9.53812" transform="matrix(-0.737179 0.675697 0.675697 0.737179 287.646 307.509)" fill="black"/>
<rect width="9.53812" height="9.53812" transform="matrix(-0.737179 0.675697 0.675697 0.737179 280.604 313.958)" fill="#92FF24"/>
<rect width="9.53812" height="9.53812" transform="matrix(-0.737179 0.675697 0.675697 0.737179 273.562 320.406)" fill="#99FF18"/>
<rect width="9.53812" height="9.53812" transform="matrix(-0.737179 0.675697 0.675697 0.737179 266.541 326.844)" fill="#A4F200"/>
<rect width="9.53812" height="9.53812" transform="matrix(-0.737179 0.675697 0.675697 0.737179 259.521 333.292)" fill="#A7F800"/>
<rect width="9.53812" height="9.53812" transform="matrix(-0.737179 0.675697 0.675697 0.737179 252.479 339.729)" fill="black"/>
<rect width="9.53812" height="9.53812" transform="matrix(-0.737179 0.675697 0.675697 0.737179 245.459 346.177)" fill="black"/>
<rect width="9.53812" height="9.53812" transform="matrix(-0.737179 0.675697 0.675697 0.737179 238.416 352.604)" fill="#A5F900"/>
<rect width="9.53812" height="9.53812" transform="matrix(-0.737179 0.675697 0.675697 0.737179 231.396 359.083)" fill="black"/>
<rect width="9.53812" height="9.53812" transform="matrix(-0.737179 0.675697 0.675697 0.737179 224.354 365.51)" fill="#9BD100"/>
<rect width="9.53812" height="9.53812" transform="matrix(-0.737179 0.675697 0.675697 0.737179 217.312 371.958)" fill="#95CB00"/>
<rect width="9.53812" height="9.53812" transform="matrix(-0.737179 0.675697 0.675697 0.737179 210.312 378.396)" fill="black"/>
<rect width="9.53812" height="9.53812" transform="matrix(-0.737179 0.675697 0.675697 0.737179 203.271 384.854)" fill="black"/>
<rect width="9.53812" height="9.53812" transform="matrix(-0.737179 0.675697 0.675697 0.737179 196.209 391.292)" fill="black"/>
<rect width="9.53812" height="9.53812" transform="matrix(-0.737179 0.675697 0.675697 0.737179 189.209 397.75)" fill="black"/>
<rect width="9.53812" height="9.53812" transform="matrix(-0.737179 0.675697 0.675697 0.737179 182.188 404.177)" fill="black"/>
<rect width="9.53812" height="9.53812" transform="matrix(-0.737179 0.675697 0.675697 0.737179 406.584 211.427)" fill="black"/>
<rect width="9.53812" height="9.53812" transform="matrix(-0.737179 0.675697 0.675697 0.737179 399.541 217.875)" fill="black"/>
<rect width="9.53812" height="9.53812" transform="matrix(-0.737179 0.675697 0.675697 0.737179 392.541 224.323)" fill="#A4F200"/>
<rect width="9.53812" height="9.53812" transform="matrix(-0.737179 0.675697 0.675697 0.737179 385.5 230.763)" fill="#A6F800"/>
<rect width="9.53812" height="9.53812" transform="matrix(-0.737179 0.675697 0.675697 0.737179 378.438 237.198)" fill="#A6F800"/>
<rect width="9.53812" height="9.53812" transform="matrix(-0.737179 0.675697 0.675697 0.737179 371.438 243.656)" fill="#A6F800"/>
<rect width="9.53812" height="9.53812" transform="matrix(-0.737179 0.675697 0.675697 0.737179 364.416 250.081)" fill="#A6F800"/>
<rect width="9.53812" height="9.53812" transform="matrix(-0.737179 0.675697 0.675697 0.737179 357.354 256.531)" fill="#A6F800"/>
<rect width="9.53812" height="9.53812" transform="matrix(-0.737179 0.675697 0.675697 0.737179 350.354 262.969)" fill="#96D000"/>
<rect width="9.53812" height="9.53812" transform="matrix(-0.737179 0.675697 0.675697 0.737179 343.291 269.438)" fill="black"/>
<rect width="9.53812" height="9.53812" transform="matrix(-0.737179 0.675697 0.675697 0.737179 336.271 275.875)" fill="#A9FE00"/>
<rect width="9.53812" height="9.53812" transform="matrix(-0.737179 0.675697 0.675697 0.737179 329.25 282.323)" fill="black"/>
<rect width="9.53812" height="9.53812" transform="matrix(-0.737179 0.675697 0.675697 0.737179 322.209 288.75)" fill="#D5BBFF"/>
<rect width="9.53812" height="9.53812" transform="matrix(-0.737179 0.675697 0.675697 0.737179 315.188 295.198)" fill="black"/>
<rect width="9.53812" height="9.53812" transform="matrix(-0.737179 0.675697 0.675697 0.737179 308.166 301.656)" fill="black"/>
<rect width="9.53812" height="9.53812" transform="matrix(-0.737179 0.675697 0.675697 0.737179 301.104 308.104)" fill="black"/>
<rect width="9.53812" height="9.53812" transform="matrix(-0.737179 0.675697 0.675697 0.737179 294.084 314.542)" fill="black"/>
<rect width="9.53812" height="9.53812" transform="matrix(-0.737179 0.675697 0.675697 0.737179 287.041 320.989)" fill="black"/>
<rect width="9.53812" height="9.53812" transform="matrix(-0.737179 0.675697 0.675697 0.737179 280.021 327.427)" fill="black"/>
<rect width="9.53812" height="9.53812" transform="matrix(-0.737179 0.675697 0.675697 0.737179 273 333.886)" fill="black"/>
<rect width="9.53812" height="9.53812" transform="matrix(-0.737179 0.675697 0.675697 0.737179 265.938 340.323)" fill="black"/>
<rect width="9.53812" height="9.53812" transform="matrix(-0.737179 0.675697 0.675697 0.737179 258.938 346.771)" fill="black"/>
<rect width="9.53812" height="9.53812" transform="matrix(-0.737179 0.675697 0.675697 0.737179 251.875 353.219)" fill="black"/>
<rect width="9.53812" height="9.53812" transform="matrix(-0.737179 0.675697 0.675697 0.737179 244.854 359.667)" fill="#9FE200"/>
<rect width="9.53812" height="9.53812" transform="matrix(-0.737179 0.675697 0.675697 0.737179 237.854 366.094)" fill="#95E903"/>
<rect width="9.53812" height="9.53812" transform="matrix(-0.737179 0.675697 0.675697 0.737179 230.791 372.552)" fill="black"/>
<rect width="9.53812" height="9.53812" transform="matrix(-0.737179 0.675697 0.675697 0.737179 223.75 379)" fill="#95CB00"/>
<rect width="9.53812" height="9.53812" transform="matrix(-0.737179 0.675697 0.675697 0.737179 216.75 385.427)" fill="black"/>
<rect width="9.53812" height="9.53812" transform="matrix(-0.737179 0.675697 0.675697 0.737179 209.709 391.875)" fill="black"/>
<rect width="9.53812" height="9.53812" transform="matrix(-0.737179 0.675697 0.675697 0.737179 202.666 398.312)" fill="black"/>
<rect width="9.53812" height="9.53812" transform="matrix(-0.737179 0.675697 0.675697 0.737179 195.666 404.781)" fill="black"/>
<rect width="9.53812" height="9.53812" transform="matrix(-0.737179 0.675697 0.675697 0.737179 405.979 224.896)" fill="black"/>
<rect width="9.53812" height="9.53812" transform="matrix(-0.737179 0.675697 0.675697 0.737179 398.979 231.344)" fill="#AEFF03"/>
<rect width="9.53812" height="9.53812" transform="matrix(-0.737179 0.675697 0.675697 0.737179 391.938 237.781)" fill="#A6F800"/>
<rect width="9.53812" height="9.53812" transform="matrix(-0.737179 0.675697 0.675697 0.737179 384.896 244.25)" fill="#A6F800"/>
<rect width="9.53812" height="9.53812" transform="matrix(-0.737179 0.675697 0.675697 0.737179 377.875 250.677)" fill="#A6F800"/>
<rect width="9.53812" height="9.53812" transform="matrix(-0.737179 0.675697 0.675697 0.737179 370.834 257.136)" fill="#A6F800"/>
<rect width="9.53812" height="9.53812" transform="matrix(-0.737179 0.675697 0.675697 0.737179 363.812 263.562)" fill="#A6F800"/>
<rect width="9.53812" height="9.53812" transform="matrix(-0.737179 0.675697 0.675697 0.737179 356.771 270.021)" fill="#92C400"/>
<rect width="9.53812" height="9.53812" transform="matrix(-0.737179 0.675697 0.675697 0.737179 349.75 276.457)" fill="#A7FC00"/>
<rect width="9.53812" height="9.53812" transform="matrix(-0.737179 0.675697 0.675697 0.737179 342.729 282.917)" fill="black"/>
<rect width="9.53812" height="9.53812" transform="matrix(-0.737179 0.675697 0.675697 0.737179 335.666 289.344)" fill="black"/>
<rect width="9.53812" height="9.53812" transform="matrix(-0.737179 0.675697 0.675697 0.737179 328.646 295.792)" fill="black"/>
<rect width="9.53812" height="9.53812" transform="matrix(-0.737179 0.675697 0.675697 0.737179 321.604 302.239)" fill="black"/>
<rect width="9.53812" height="9.53812" transform="matrix(-0.737179 0.675697 0.675697 0.737179 314.604 308.677)" fill="black"/>
<rect width="9.53812" height="9.53812" transform="matrix(-0.737179 0.675697 0.675697 0.737179 307.562 315.136)" fill="black"/>
<rect width="9.53812" height="9.53812" transform="matrix(-0.737179 0.675697 0.675697 0.737179 300.521 321.573)" fill="black"/>
<rect width="9.53812" height="9.53812" transform="matrix(-0.737179 0.675697 0.675697 0.737179 293.5 328.021)" fill="#ACFD00"/>
<rect width="9.53812" height="9.53812" transform="matrix(-0.737179 0.675697 0.675697 0.737179 286.479 334.459)" fill="#A5F900"/>
<rect width="9.53812" height="9.53812" transform="matrix(-0.737179 0.675697 0.675697 0.737179 279.416 340.906)" fill="#A8FF01"/>
<rect width="9.53812" height="9.53812" transform="matrix(-0.737179 0.675697 0.675697 0.737179 272.416 347.333)" fill="#96D100"/>
<rect width="9.53812" height="9.53812" transform="matrix(-0.737179 0.675697 0.675697 0.737179 265.395 353.811)" fill="#93C800"/>
<rect width="9.53812" height="9.53812" transform="matrix(-0.737179 0.675697 0.675697 0.737179 258.334 360.239)" fill="#95CB00"/>
<rect width="9.53812" height="9.53812" transform="matrix(-0.737179 0.675697 0.675697 0.737179 251.312 366.688)" fill="#98CE00"/>
<rect width="9.53812" height="9.53812" transform="matrix(-0.737179 0.675697 0.675697 0.737179 244.271 373.125)" fill="black"/>
<rect width="9.53812" height="9.53812" transform="matrix(-0.737179 0.675697 0.675697 0.737179 237.25 379.583)" fill="black"/>
<rect width="9.53812" height="9.53812" transform="matrix(-0.737179 0.675697 0.675697 0.737179 230.229 386.011)" fill="#95CB00"/>
<rect width="9.53812" height="9.53812" transform="matrix(-0.737179 0.675697 0.675697 0.737179 223.188 392.479)" fill="black"/>
<rect width="9.53812" height="9.53812" transform="matrix(-0.737179 0.675697 0.675697 0.737179 216.146 398.906)" fill="black"/>
<rect width="9.53812" height="9.53812" transform="matrix(-0.737179 0.675697 0.675697 0.737179 209.104 405.364)" fill="black"/>
<rect width="9.53812" height="9.53812" transform="matrix(-0.737179 0.675697 0.675697 0.737179 202.084 411.802)" fill="black"/>
<rect width="9.53812" height="9.53812" transform="matrix(-0.737179 0.675697 0.675697 0.737179 405.416 238.386)" fill="black"/>
<rect width="9.53812" height="9.53812" transform="matrix(-0.737179 0.675697 0.675697 0.737179 398.375 244.812)" fill="#A6F800"/>
<rect width="9.53812" height="9.53812" transform="matrix(-0.737179 0.675697 0.675697 0.737179 391.312 251.271)" fill="#A6F800"/>
<rect width="9.53812" height="9.53812" transform="matrix(-0.737179 0.675697 0.675697 0.737179 384.312 257.698)" fill="#A6F800"/>
<rect width="9.53812" height="9.53812" transform="matrix(-0.737179 0.675697 0.675697 0.737179 377.291 264.167)" fill="#A6F800"/>
<rect width="9.53812" height="9.53812" transform="matrix(-0.737179 0.675697 0.675697 0.737179 370.25 270.604)" fill="#A6F800"/>
<rect width="9.53812" height="9.53812" transform="matrix(-0.737179 0.675697 0.675697 0.737179 363.229 277.052)" fill="#A7FE00"/>
<rect width="9.53812" height="9.53812" transform="matrix(-0.737179 0.675697 0.675697 0.737179 356.189 283.481)" fill="black"/>
<rect width="9.53812" height="9.53812" transform="matrix(-0.737179 0.675697 0.675697 0.737179 349.146 289.927)" fill="black"/>
<rect width="9.53812" height="9.53812" transform="matrix(-0.737179 0.675697 0.675697 0.737179 342.146 296.386)" fill="black"/>
<rect width="9.53812" height="9.53812" transform="matrix(-0.737179 0.675697 0.675697 0.737179 335.084 302.834)" fill="black"/>
<rect width="9.53812" height="9.53812" transform="matrix(-0.737179 0.675697 0.675697 0.737179 328.062 309.271)" fill="black"/>
<rect width="9.53812" height="9.53812" transform="matrix(-0.737179 0.675697 0.675697 0.737179 321.041 315.719)" fill="black"/>
<rect width="9.53812" height="9.53812" transform="matrix(-0.737179 0.675697 0.675697 0.737179 314 322.156)" fill="#A8F900"/>
<rect width="9.53812" height="9.53812" transform="matrix(-0.737179 0.675697 0.675697 0.737179 306.959 328.604)" fill="#95CB00"/>
<rect width="9.53812" height="9.53812" transform="matrix(-0.737179 0.675697 0.675697 0.737179 299.959 335.052)" fill="#98CD00"/>
<rect width="9.53812" height="9.53812" transform="matrix(-0.737179 0.675697 0.675697 0.737179 292.916 341.5)" fill="black"/>
<rect width="9.53812" height="9.53812" transform="matrix(-0.737179 0.675697 0.675697 0.737179 285.875 347.948)" fill="black"/>
<rect width="9.53812" height="9.53812" transform="matrix(-0.737179 0.675697 0.675697 0.737179 278.834 354.375)" fill="black"/>
<rect width="9.53812" height="9.53812" transform="matrix(-0.737179 0.675697 0.675697 0.737179 271.812 360.823)" fill="black"/>
<rect width="9.53812" height="9.53812" transform="matrix(-0.737179 0.675697 0.675697 0.737179 264.791 367.271)" fill="black"/>
<rect width="9.53812" height="9.53812" transform="matrix(-0.737179 0.675697 0.675697 0.737179 257.75 373.729)" fill="black"/>
<rect width="9.53812" height="9.53812" transform="matrix(-0.737179 0.675697 0.675697 0.737179 250.729 380.153)" fill="black"/>
<rect width="9.53812" height="9.53812" transform="matrix(-0.737179 0.675697 0.675697 0.737179 243.688 386.614)" fill="black"/>
<rect width="9.53812" height="9.53812" transform="matrix(-0.737179 0.675697 0.675697 0.737179 236.666 393.042)" fill="#95CB00"/>
<rect width="9.53812" height="9.53812" transform="matrix(-0.737179 0.675697 0.675697 0.737179 229.625 399.489)" fill="black"/>
<rect width="9.53812" height="9.53812" transform="matrix(-0.737179 0.675697 0.675697 0.737179 222.584 405.948)" fill="black"/>
<rect width="9.53812" height="9.53812" transform="matrix(-0.737179 0.675697 0.675697 0.737179 215.584 412.396)" fill="black"/>
<rect width="9.53812" height="9.53812" transform="matrix(-0.737179 0.675697 0.675697 0.737179 404.812 251.864)" fill="black"/>
<rect width="9.53812" height="9.53812" transform="matrix(-0.737179 0.675697 0.675697 0.737179 397.812 258.292)" fill="#A6F800"/>
<rect width="9.53812" height="9.53812" transform="matrix(-0.737179 0.675697 0.675697 0.737179 390.771 264.739)" fill="#A6F800"/>
<rect width="9.53812" height="9.53812" transform="matrix(-0.737179 0.675697 0.675697 0.737179 383.709 271.188)" fill="#A6F800"/>
<rect width="9.53812" height="9.53812" transform="matrix(-0.737179 0.675697 0.675697 0.737179 376.709 277.614)" fill="#93C800"/>
<rect width="9.53812" height="9.53812" transform="matrix(-0.737179 0.675697 0.675697 0.737179 369.688 284.073)" fill="black"/>
<rect width="9.53812" height="9.53812" transform="matrix(-0.737179 0.675697 0.675697 0.737179 362.625 290.521)" fill="black"/>
<rect width="9.53812" height="9.53812" transform="matrix(-0.737179 0.675697 0.675697 0.737179 355.625 296.969)" fill="#A8FD00"/>
<rect width="9.53812" height="9.53812" transform="matrix(-0.737179 0.675697 0.675697 0.737179 348.562 303.406)" fill="black"/>
<rect width="9.53812" height="9.53812" transform="matrix(-0.737179 0.675697 0.675697 0.737179 341.541 309.864)" fill="black"/>
<rect width="9.53812" height="9.53812" transform="matrix(-0.737179 0.675697 0.675697 0.737179 334.521 316.302)" fill="black"/>
<rect width="9.53812" height="9.53812" transform="matrix(-0.737179 0.675697 0.675697 0.737179 327.479 322.75)" fill="black"/>
<rect width="9.53812" height="9.53812" transform="matrix(-0.737179 0.675697 0.675697 0.737179 320.459 329.188)" fill="black"/>
<rect width="9.53812" height="9.53812" transform="matrix(-0.737179 0.675697 0.675697 0.737179 313.438 335.636)" fill="black"/>
<rect width="9.53812" height="9.53812" transform="matrix(-0.737179 0.675697 0.675697 0.737179 306.375 342.073)" fill="black"/>
<rect width="9.53812" height="9.53812" transform="matrix(-0.737179 0.675697 0.675697 0.737179 299.354 348.542)" fill="black"/>
<rect width="9.53812" height="9.53812" transform="matrix(-0.737179 0.675697 0.675697 0.737179 292.312 354.969)" fill="black"/>
<rect width="9.53812" height="9.53812" transform="matrix(-0.737179 0.675697 0.675697 0.737179 285.291 361.417)" fill="black"/>
<rect width="9.53812" height="9.53812" transform="matrix(-0.737179 0.675697 0.675697 0.737179 278.271 367.854)" fill="black"/>
<rect width="9.53812" height="9.53812" transform="matrix(-0.737179 0.675697 0.675697 0.737179 271.209 374.312)" fill="black"/>
<rect width="9.53812" height="9.53812" transform="matrix(-0.737179 0.675697 0.675697 0.737179 264.209 380.739)" fill="black"/>
<rect width="9.53812" height="9.53812" transform="matrix(-0.737179 0.675697 0.675697 0.737179 257.17 387.211)" fill="black"/>
<rect width="9.53812" height="9.53812" transform="matrix(-0.737179 0.675697 0.675697 0.737179 250.125 393.636)" fill="black"/>
<rect width="9.53812" height="9.53812" transform="matrix(-0.737179 0.675697 0.675697 0.737179 243.125 400.094)" fill="black"/>
<rect width="9.53812" height="9.53812" transform="matrix(-0.737179 0.675697 0.675697 0.737179 236.064 406.53)" fill="black"/>
<rect width="9.53812" height="9.53812" transform="matrix(-0.737179 0.675697 0.675697 0.737179 229.021 412.958)" fill="black"/>
<rect width="9.53812" height="9.53812" transform="matrix(-0.737179 0.675697 0.675697 0.737179 411.25 258.896)" fill="black"/>
<rect width="9.53812" height="9.53812" transform="matrix(-0.737179 0.675697 0.675697 0.737179 404.25 265.333)" fill="#A6FA00"/>
<rect width="9.53812" height="9.53812" transform="matrix(-0.737179 0.675697 0.675697 0.737179 397.209 271.782)" fill="#93C500"/>
<rect width="9.53812" height="9.53812" transform="matrix(-0.737179 0.675697 0.675697 0.737179 390.166 278.208)" fill="black"/>
<rect width="9.53812" height="9.53812" transform="matrix(-0.737179 0.675697 0.675697 0.737179 383.166 284.677)" fill="black"/>
<rect width="9.53812" height="9.53812" transform="matrix(-0.737179 0.675697 0.675697 0.737179 376.125 291.104)" fill="#52D019"/>
<rect width="9.53812" height="9.53812" transform="matrix(-0.737179 0.675697 0.675697 0.737179 369.062 297.562)" fill="#A6F800"/>
<rect width="9.53812" height="9.53812" transform="matrix(-0.737179 0.675697 0.675697 0.737179 362.041 304)" fill="black"/>
<rect width="9.53812" height="9.53812" transform="matrix(-0.737179 0.675697 0.675697 0.737179 355.021 310.458)" fill="#95CA00"/>
<rect width="9.53812" height="9.53812" transform="matrix(-0.737179 0.675697 0.675697 0.737179 348 316.886)" fill="black"/>
<rect width="9.53812" height="9.53812" transform="matrix(-0.737179 0.675697 0.675697 0.737179 340.959 323.333)" fill="black"/>
<rect width="9.53812" height="9.53812" transform="matrix(-0.737179 0.675697 0.675697 0.737179 333.916 329.783)" fill="black"/>
<rect width="9.53812" height="9.53812" transform="matrix(-0.737179 0.675697 0.675697 0.737179 326.875 336.208)" fill="black"/>
<rect width="9.53812" height="9.53812" transform="matrix(-0.737179 0.675697 0.675697 0.737179 319.875 342.677)" fill="#2B7734"/>
<rect width="9.53812" height="9.53812" transform="matrix(-0.737179 0.675697 0.675697 0.737179 312.832 349.103)" fill="black"/>
<rect width="9.53812" height="9.53812" transform="matrix(-0.737179 0.675697 0.675697 0.737179 305.791 355.552)" fill="black"/>
<rect width="9.53812" height="9.53812" transform="matrix(-0.737179 0.675697 0.675697 0.737179 298.771 361.989)" fill="black"/>
<rect width="9.53812" height="9.53812" transform="matrix(-0.737179 0.675697 0.675697 0.737179 291.75 368.458)" fill="#9ED400"/>
<rect width="9.53812" height="9.53812" transform="matrix(-0.737179 0.675697 0.675697 0.737179 284.688 374.886)" fill="black"/>
<rect width="9.53812" height="9.53812" transform="matrix(-0.737179 0.675697 0.675697 0.737179 277.688 381.344)" fill="black"/>
<rect width="9.53812" height="9.53812" transform="matrix(-0.737179 0.675697 0.675697 0.737179 270.666 387.773)" fill="black"/>
<rect width="9.53812" height="9.53812" transform="matrix(-0.737179 0.675697 0.675697 0.737179 263.604 394.219)" fill="black"/>
<rect width="9.53812" height="9.53812" transform="matrix(-0.737179 0.675697 0.675697 0.737179 256.584 400.677)" fill="black"/>
<rect width="9.53812" height="9.53812" transform="matrix(-0.737179 0.675697 0.675697 0.737179 249.541 407.125)" fill="black"/>
<rect width="9.53812" height="9.53812" transform="matrix(-0.737179 0.675697 0.675697 0.737179 242.521 413.552)" fill="black"/>
<rect width="9.53812" height="9.53812" transform="matrix(-0.737179 0.675697 0.675697 0.737179 410.688 272.344)" fill="black"/>
<rect width="9.53812" height="9.53812" transform="matrix(-0.737179 0.675697 0.675697 0.737179 403.666 278.802)" fill="black"/>
<rect width="9.53812" height="9.53812" transform="matrix(-0.737179 0.675697 0.675697 0.737179 396.584 285.25)" fill="black"/>
<rect width="9.53812" height="9.53812" transform="matrix(-0.737179 0.675697 0.675697 0.737179 389.584 291.698)" fill="#A6F800"/>
<rect width="9.53812" height="9.53812" transform="matrix(-0.737179 0.675697 0.675697 0.737179 382.562 298.136)" fill="#A7FA00"/>
<rect width="9.53812" height="9.53812" transform="matrix(-0.737179 0.675697 0.675697 0.737179 375.521 304.583)" fill="#91C200"/>
<rect width="9.53812" height="9.53812" transform="matrix(-0.737179 0.675697 0.675697 0.737179 368.5 311.031)" fill="#A6FA00"/>
<rect width="9.53812" height="9.53812" transform="matrix(-0.737179 0.675697 0.675697 0.737179 361.461 317.478)" fill="#A8FD00"/>
<rect width="9.53812" height="9.53812" transform="matrix(-0.737179 0.675697 0.675697 0.737179 354.416 323.917)" fill="#95CB00"/>
<rect width="9.53812" height="9.53812" transform="matrix(-0.737179 0.675697 0.675697 0.737179 347.416 330.364)" fill="black"/>
<rect width="9.53812" height="9.53812" transform="matrix(-0.737179 0.675697 0.675697 0.737179 340.354 336.802)" fill="black"/>
<rect width="9.53812" height="9.53812" transform="matrix(-0.737179 0.675697 0.675697 0.737179 333.334 343.271)" fill="black"/>
<rect width="9.53812" height="9.53812" transform="matrix(-0.737179 0.675697 0.675697 0.737179 326.312 349.698)" fill="#A6F800"/>
<rect width="9.53812" height="9.53812" transform="matrix(-0.737179 0.675697 0.675697 0.737179 319.271 356.148)" fill="#A6F800"/>
<rect width="9.53812" height="9.53812" transform="matrix(-0.737179 0.675697 0.675697 0.737179 312.229 362.583)" fill="#A7F900"/>
<rect width="9.53812" height="9.53812" transform="matrix(-0.737179 0.675697 0.675697 0.737179 305.229 369.042)" fill="#9EEA00"/>
<rect width="9.53812" height="9.53812" transform="matrix(-0.737179 0.675697 0.675697 0.737179 298.189 375.479)" fill="black"/>
<rect width="9.53812" height="9.53812" transform="matrix(-0.737179 0.675697 0.675697 0.737179 291.146 381.938)" fill="black"/>
<rect width="9.53812" height="9.53812" transform="matrix(-0.737179 0.675697 0.675697 0.737179 284.104 388.364)" fill="black"/>
<rect width="9.53812" height="9.53812" transform="matrix(-0.737179 0.675697 0.675697 0.737179 277.084 394.812)" fill="black"/>
<rect width="9.53812" height="9.53812" transform="matrix(-0.737179 0.675697 0.675697 0.737179 270.062 401.261)" fill="black"/>
<rect width="9.53812" height="9.53812" transform="matrix(-0.737179 0.675697 0.675697 0.737179 263.021 407.688)" fill="black"/>
<rect width="9.53812" height="9.53812" transform="matrix(-0.737179 0.675697 0.675697 0.737179 256 414.146)" fill="black"/>
<rect width="9.53812" height="9.53812" transform="matrix(-0.737179 0.675697 0.675697 0.737179 403.084 292.292)" fill="black"/>
<rect width="9.53812" height="9.53812" transform="matrix(-0.737179 0.675697 0.675697 0.737179 396.041 298.731)" fill="black"/>
<rect width="9.53812" height="9.53812" transform="matrix(-0.737179 0.675697 0.675697 0.737179 388.979 305.156)" fill="black"/>
<rect width="9.53812" height="9.53812" transform="matrix(-0.737179 0.675697 0.675697 0.737179 381.979 311.614)" fill="#A6F800"/>
<rect width="9.53812" height="9.53812" transform="matrix(-0.737179 0.675697 0.675697 0.737179 374.957 318.051)" fill="#A6F800"/>
<rect width="9.53812" height="9.53812" transform="matrix(-0.737179 0.675697 0.675697 0.737179 367.896 324.511)" fill="#A6F800"/>
<rect width="9.53812" height="9.53812" transform="matrix(-0.737179 0.675697 0.675697 0.737179 360.896 330.948)" fill="black"/>
<rect width="9.53812" height="9.53812" transform="matrix(-0.737179 0.675697 0.675697 0.737179 353.854 337.406)" fill="black"/>
<rect width="9.53812" height="9.53812" transform="matrix(-0.737179 0.675697 0.675697 0.737179 339.791 350.281)" fill="black"/>
<rect width="9.53812" height="9.53812" transform="matrix(-0.737179 0.675697 0.675697 0.737179 332.75 356.719)" fill="black"/>
<rect width="9.53812" height="9.53812" transform="matrix(-0.737179 0.675697 0.675697 0.737179 325.729 363.188)" fill="#A6F800"/>
<rect width="9.53812" height="9.53812" transform="matrix(-0.737179 0.675697 0.675697 0.737179 318.709 369.614)" fill="#A6F800"/>
<rect width="9.53812" height="9.53812" transform="matrix(-0.737179 0.675697 0.675697 0.737179 311.646 376.073)" fill="#94C900"/>
<rect width="9.53812" height="9.53812" transform="matrix(-0.737179 0.675697 0.675697 0.737179 304.625 382.5)" fill="#A1DA00"/>
<rect width="9.53812" height="9.53812" transform="matrix(-0.737179 0.675697 0.675697 0.737179 297.584 388.948)" fill="#95CB00"/>
<rect width="9.53812" height="9.53812" transform="matrix(-0.737179 0.675697 0.675697 0.737179 290.562 395.406)" fill="black"/>
<rect width="9.53812" height="9.53812" transform="matrix(-0.737179 0.675697 0.675697 0.737179 283.541 401.854)" fill="black"/>
<rect width="9.53812" height="9.53812" transform="matrix(-0.737179 0.675697 0.675697 0.737179 276.5 408.281)" fill="black"/>
<rect width="9.53812" height="9.53812" transform="matrix(-0.737179 0.675697 0.675697 0.737179 269.479 414.75)" fill="black"/>
<rect width="9.53812" height="9.53812" transform="matrix(-0.737179 0.675697 0.675697 0.737179 395.438 312.208)" fill="#181F0D"/>
<rect width="9.53812" height="9.53812" transform="matrix(-0.737179 0.675697 0.675697 0.737179 388.438 318.646)" fill="black"/>
<rect width="9.53812" height="9.53812" transform="matrix(-0.737179 0.675697 0.675697 0.737179 381.396 325.094)" fill="black"/>
<rect width="9.53812" height="9.53812" transform="matrix(-0.737179 0.675697 0.675697 0.737179 374.334 331.531)" fill="black"/>
<rect width="9.53812" height="9.53812" transform="matrix(-0.737179 0.675697 0.675697 0.737179 367.312 338)" fill="black"/>
<rect width="9.53812" height="9.53812" transform="matrix(-0.737179 0.675697 0.675697 0.737179 346.229 357.312)" fill="black"/>
<rect width="9.53812" height="9.53812" transform="matrix(-0.737179 0.675697 0.675697 0.737179 339.188 363.75)" fill="black"/>
<rect width="9.53812" height="9.53812" transform="matrix(-0.737179 0.675697 0.675697 0.737179 332.166 370.208)" fill="#A6F800"/>
<rect width="9.53812" height="9.53812" transform="matrix(-0.737179 0.675697 0.675697 0.737179 325.146 376.646)" fill="#A6F800"/>
<rect width="9.53812" height="9.53812" transform="matrix(-0.737179 0.675697 0.675697 0.737179 318.104 383.094)" fill="#A6F800"/>
<rect width="9.53812" height="9.53812" transform="matrix(-0.737179 0.675697 0.675697 0.737179 311.062 389.542)" fill="#95CB00"/>
<rect width="9.53812" height="9.53812" transform="matrix(-0.737179 0.675697 0.675697 0.737179 304.062 395.989)" fill="black"/>
<rect width="9.53812" height="9.53812" transform="matrix(-0.737179 0.675697 0.675697 0.737179 297.02 402.417)" fill="black"/>
<rect width="9.53812" height="9.53812" transform="matrix(-0.737179 0.675697 0.675697 0.737179 289.959 408.886)" fill="black"/>
<rect width="9.53812" height="9.53812" transform="matrix(-0.737179 0.675697 0.675697 0.737179 352.688 364.354)" fill="black"/>
<rect width="9.53812" height="9.53812" transform="matrix(-0.737179 0.675697 0.675697 0.737179 345.627 370.803)" fill="black"/>
<rect width="9.53812" height="9.53812" transform="matrix(-0.737179 0.675697 0.675697 0.737179 338.604 377.229)" fill="#A6F800"/>
<rect width="9.53812" height="9.53812" transform="matrix(-0.737179 0.675697 0.675697 0.737179 331.604 383.677)" fill="#A6F800"/>
<rect width="9.53812" height="9.53812" transform="matrix(-0.737179 0.675697 0.675697 0.737179 324.521 390.133)" fill="#49B021"/>
<rect width="9.53812" height="9.53812" transform="matrix(-0.737179 0.675697 0.675697 0.737179 317.5 396.583)" fill="black"/>
<rect width="9.53812" height="9.53812" transform="matrix(-0.737179 0.675697 0.675697 0.737179 310.5 403.011)" fill="black"/>
<rect width="9.53812" height="9.53812" transform="matrix(-0.737179 0.675697 0.675697 0.737179 303.459 409.479)" fill="black"/>
<rect width="9.53812" height="9.53812" transform="matrix(-0.737179 0.675697 0.675697 0.737179 359.145 371.365)" fill="black"/>
<rect width="9.53812" height="9.53812" transform="matrix(-0.737179 0.675697 0.675697 0.737179 352.062 377.823)" fill="black"/>
<rect width="9.53812" height="9.53812" transform="matrix(-0.737179 0.675697 0.675697 0.737179 345.062 384.271)" fill="#AFFF04"/>
<rect width="9.53812" height="9.53812" transform="matrix(-0.737179 0.675697 0.675697 0.737179 338.021 390.719)" fill="black"/>
<rect width="9.53812" height="9.53812" transform="matrix(-0.737179 0.675697 0.675697 0.737179 331 397.146)" fill="black"/>
<rect width="9.53812" height="9.53812" transform="matrix(-0.737179 0.675697 0.675697 0.737179 323.979 403.604)" fill="black"/>
<rect width="9.53812" height="9.53812" transform="matrix(-0.737179 0.675697 0.675697 0.737179 358.541 384.854)" fill="black"/>
<rect width="9.53812" height="9.53812" transform="matrix(-0.737179 0.675697 0.675697 0.737179 351.5 391.312)" fill="black"/>
<rect width="9.53812" height="9.53812" transform="matrix(-0.737179 0.675697 0.675697 0.737179 344.48 397.753)" fill="black"/>
<rect width="9.53812" height="9.53812" transform="matrix(-0.737179 0.675697 0.675697 0.737179 337.438 404.208)" fill="black"/>
<rect width="9.53812" height="9.53812" transform="matrix(-0.737179 0.675697 0.675697 0.737179 364.959 391.875)" fill="black"/>
</svg>
