<svg width="17" height="17" viewBox="0 0 17 17" fill="none" xmlns="http://www.w3.org/2000/svg">
<g id="message-question-square">
<path id="Solid" fill-rule="evenodd" clip-rule="evenodd" d="M11.4942 1.83337H5.83918C5.30254 1.83337 4.85963 1.83336 4.49883 1.86284C4.1241 1.89345 3.77963 1.95916 3.45607 2.12402C2.95431 2.37969 2.54636 2.78763 2.2907 3.2894C2.12584 3.61296 2.06013 3.95743 2.02951 4.33216C2.00003 4.69295 2.00004 5.13586 2.00005 5.67251L2.00002 9.92509C1.99973 10.4554 1.99952 10.8491 2.09091 11.1902C2.33749 12.1105 3.05629 12.8293 3.97653 13.0758C4.18151 13.1308 4.40551 13.1526 4.66672 13.1612L4.66671 14.0807C4.66668 14.2375 4.66665 14.3974 4.67855 14.5284C4.68993 14.6537 4.72007 14.8902 4.88517 15.097C5.07516 15.335 5.36325 15.4735 5.6678 15.4732C5.93245 15.4729 6.13594 15.3487 6.2409 15.2793C6.35063 15.2067 6.47545 15.1068 6.5979 15.0088L8.20665 13.7218C8.55238 13.4453 8.65502 13.3672 8.76167 13.3127C8.86866 13.258 8.98254 13.2181 9.10022 13.1939C9.21755 13.1699 9.34647 13.1667 9.78922 13.1667H11.4943C12.0309 13.1667 12.4738 13.1667 12.8346 13.1372C13.2093 13.1066 13.5538 13.0409 13.8774 12.8761C14.3791 12.6204 14.7871 12.2124 15.0427 11.7107C15.2076 11.3871 15.2733 11.0427 15.3039 10.6679C15.3334 10.3071 15.3334 9.86423 15.3334 9.32759V5.67249C15.3334 5.13585 15.3334 4.69295 15.3039 4.33216C15.2733 3.95743 15.2076 3.61296 15.0427 3.2894C14.7871 2.78763 14.3791 2.37969 13.8774 2.12402C13.5538 1.95916 13.2093 1.89345 12.8346 1.86284C12.4738 1.83336 12.0309 1.83337 11.4942 1.83337ZM8.32578 5.61478C8.49522 5.5152 8.69443 5.4788 8.88814 5.51202C9.08185 5.54525 9.25754 5.64596 9.38411 5.79631C9.51068 5.94667 9.57995 6.13697 9.57966 6.3335V6.33449C9.57966 6.48021 9.46154 6.68099 9.12709 6.90396C8.98015 7.00191 8.82846 7.07823 8.71089 7.13049C8.65305 7.1562 8.60577 7.17506 8.57452 7.18696C8.55895 7.1929 8.54752 7.19704 8.54094 7.19938L8.53484 7.20152L8.53587 7.20117C8.18706 7.3179 7.99864 7.69515 8.11499 8.04419C8.23026 8.39001 8.61455 8.58012 8.95908 8.46556C8.98936 8.4554 9.01933 8.44432 9.04918 8.43295C9.0999 8.41363 9.16973 8.38565 9.2524 8.3489C9.41587 8.27625 9.6389 8.16521 9.86669 8.01336C10.2816 7.73673 10.9128 7.18816 10.913 6.33479C10.9136 5.82362 10.7333 5.32871 10.4041 4.93765C10.0748 4.5464 9.6176 4.28434 9.11355 4.19788C8.6095 4.11142 8.09111 4.20615 7.6502 4.46527C7.20929 4.7244 6.87432 5.1312 6.70461 5.61364C6.58243 5.96096 6.76495 6.34157 7.11227 6.46376C7.4596 6.58594 7.84021 6.40342 7.96239 6.0561C8.02761 5.8707 8.15634 5.71436 8.32578 5.61478ZM8.76677 9.16671C8.39858 9.16671 8.1001 9.46519 8.1001 9.83338C8.1001 10.2016 8.39858 10.5 8.76677 10.5H8.77344C9.14163 10.5 9.4401 10.2016 9.4401 9.83338C9.4401 9.46519 9.14163 9.16671 8.77344 9.16671H8.76677Z" fill="#2970FF"/>
</g>
</svg>
