<svg width="32" height="32" viewBox="0 0 32 32" fill="none" xmlns="http://www.w3.org/2000/svg">
<path fill-rule="evenodd" clip-rule="evenodd" d="M10.2986 25.9107L13.7918 26.8383V25.6252L14.0769 25.3398H16.0731V26.767V27.766H13.9344L11.2967 26.6242L10.2986 25.9107Z" fill="#CDBDB2"/>
<path fill-rule="evenodd" clip-rule="evenodd" d="M21.7049 25.9107L18.283 26.8383V25.6252L17.9978 25.3398H16.0017V26.767V27.766H18.1404L20.7781 26.6242L21.7049 25.9107Z" fill="#CDBDB2"/>
<path fill-rule="evenodd" clip-rule="evenodd" d="M14.0769 23.2705L13.7917 25.6252L14.1481 25.3398H17.8552L18.2829 25.6252L17.9978 23.2705L17.4275 22.9137L14.5759 22.985L14.0769 23.2705Z" fill="#393939"/>
<path fill-rule="evenodd" clip-rule="evenodd" d="M12.1521 7.35797L13.863 11.354L14.6472 22.9851H17.4275L18.283 11.354L19.8514 7.35797H12.1521Z" fill="#F89C35"/>
<path fill-rule="evenodd" clip-rule="evenodd" d="M4.66676 16.1348L2.67065 21.9147L7.66091 21.6293H10.8689V19.1318L10.7263 13.9941L10.0135 14.565L4.66676 16.1348Z" fill="#F89D35"/>
<path fill-rule="evenodd" clip-rule="evenodd" d="M8.44507 16.7771L14.2908 16.9198L13.6492 19.9168L10.8689 19.2032L8.44507 16.7771Z" fill="#D87C30"/>
<path fill-rule="evenodd" clip-rule="evenodd" d="M8.44507 16.8484L10.8689 19.1318V21.4152L8.44507 16.8484Z" fill="#EA8D3A"/>
<path fill-rule="evenodd" clip-rule="evenodd" d="M10.8689 19.2031L13.7205 19.9167L14.6472 22.9851L14.0056 23.3419L10.8689 21.4866V19.2031Z" fill="#F89D35"/>
<path fill-rule="evenodd" clip-rule="evenodd" d="M10.8689 21.4866L10.2986 25.9107L14.0769 23.2705L10.8689 21.4866Z" fill="#EB8F35"/>
<path fill-rule="evenodd" clip-rule="evenodd" d="M14.2907 16.9197L14.6472 22.9851L13.5779 19.8811L14.2907 16.9197Z" fill="#EA8E3A"/>
<path fill-rule="evenodd" clip-rule="evenodd" d="M7.5896 21.5579L10.8689 21.4866L10.2986 25.9107L7.5896 21.5579Z" fill="#D87C30"/>
<path fill-rule="evenodd" clip-rule="evenodd" d="M4.23902 27.8373L10.2986 25.9107L7.58962 21.5579L2.67065 21.9147L4.23902 27.8373Z" fill="#EB8F35"/>
<path fill-rule="evenodd" clip-rule="evenodd" d="M13.863 11.3539L10.7976 13.9227L8.44507 16.777L14.2908 16.9911L13.863 11.3539Z" fill="#E8821E"/>
<path fill-rule="evenodd" clip-rule="evenodd" d="M10.2986 25.9107L14.0769 23.2705L13.7918 25.5539V26.8383L11.2254 26.3388L10.2986 25.9107Z" fill="#DFCEC3"/>
<path fill-rule="evenodd" clip-rule="evenodd" d="M21.7049 25.9107L17.9978 23.2705L18.2829 25.5539V26.8383L20.8494 26.3388L21.7049 25.9107Z" fill="#DFCEC3"/>
<path fill-rule="evenodd" clip-rule="evenodd" d="M12.7225 18.2042L13.5066 19.8454L10.7263 19.1318L12.7225 18.2042Z" fill="#393939"/>
<path fill-rule="evenodd" clip-rule="evenodd" d="M4.16772 4.00421L13.8631 11.354L12.2234 7.35797L4.16772 4.00421Z" fill="#E88F35"/>
<path fill-rule="evenodd" clip-rule="evenodd" d="M4.16773 4.00421L2.88452 7.92883L3.59742 12.2102L3.09839 12.4957L3.81128 13.1379L3.24097 13.6374L4.02515 14.351L3.52612 14.7791L4.66676 16.2062L10.0135 14.565C12.6274 12.4719 13.9106 11.4015 13.8631 11.354C13.8155 11.3064 10.5837 8.85647 4.16773 4.00421Z" fill="#8E5A30"/>
<path fill-rule="evenodd" clip-rule="evenodd" d="M27.337 16.1348L29.333 21.9147L24.3428 21.6293H21.1348V19.1318L21.2773 13.9941L21.9902 14.565L27.337 16.1348Z" fill="#F89D35"/>
<path fill-rule="evenodd" clip-rule="evenodd" d="M23.5584 16.7771L17.7126 16.9198L18.3542 19.9168L21.1346 19.2032L23.5584 16.7771Z" fill="#D87C30"/>
<path fill-rule="evenodd" clip-rule="evenodd" d="M23.5586 16.8484L21.1348 19.1318V21.4152L23.5586 16.8484Z" fill="#EA8D3A"/>
<path fill-rule="evenodd" clip-rule="evenodd" d="M21.1345 19.2031L18.2829 19.9167L17.3562 22.9851L17.9978 23.3419L21.1345 21.4866V19.2031Z" fill="#F89D35"/>
<path fill-rule="evenodd" clip-rule="evenodd" d="M21.1345 21.4866L21.7049 25.9107L17.9978 23.3418L21.1345 21.4866Z" fill="#EB8F35"/>
<path fill-rule="evenodd" clip-rule="evenodd" d="M17.7127 16.9197L17.3562 22.9851L18.4255 19.8811L17.7127 16.9197Z" fill="#EA8E3A"/>
<path fill-rule="evenodd" clip-rule="evenodd" d="M24.414 21.5579L21.1348 21.4866L21.7051 25.9107L24.414 21.5579Z" fill="#D87C30"/>
<path fill-rule="evenodd" clip-rule="evenodd" d="M27.7645 27.8373L21.7048 25.9107L24.4138 21.5579L29.3328 21.9147L27.7645 27.8373Z" fill="#EB8F35"/>
<path fill-rule="evenodd" clip-rule="evenodd" d="M18.1404 11.3539L21.2058 13.9227L23.5584 16.777L17.7126 16.9911L18.1404 11.3539Z" fill="#E8821E"/>
<path fill-rule="evenodd" clip-rule="evenodd" d="M19.281 18.2042L18.4968 19.8454L21.2772 19.1318L19.281 18.2042Z" fill="#393939"/>
<path fill-rule="evenodd" clip-rule="evenodd" d="M27.836 4.00421L18.1406 11.354L19.7803 7.35797L27.836 4.00421Z" fill="#E88F35"/>
<path fill-rule="evenodd" clip-rule="evenodd" d="M27.8358 4.00421L29.119 7.92883L28.4061 12.2102L28.9051 12.4957L28.1922 13.1379L28.7626 13.6374L27.9784 14.351L28.4774 14.7791L27.3368 16.2062L21.9901 14.565C19.3761 12.4719 18.0929 11.4015 18.1404 11.354C18.188 11.3064 21.4198 8.85647 27.8358 4.00421Z" fill="#8E5A30"/>
</svg>
