<svg width="24" height="24" viewBox="0 0 24 24" fill="none" xmlns="http://www.w3.org/2000/svg">
<g id="Business, Products/Imac, Dollar, Money">
<g id="Group">
<g id="Group_2">
<path id="Path" fill-rule="evenodd" clip-rule="evenodd" d="M18.429 17H5.571C4.151 17 3 15.849 3 14.429V5.571C3 4.151 4.151 3 5.571 3H18.428C19.849 3 21 4.151 21 5.571V14.428C21 15.849 19.849 17 18.429 17Z" stroke="#828282" stroke-width="1.5" stroke-linecap="round" stroke-linejoin="round"/>
<path id="Path_2" d="M14 17L14.5 21" stroke="#828282" stroke-width="1.5" stroke-linecap="round" stroke-linejoin="round"/>
<path id="Path_3" d="M10 17L9.5 21" stroke="#828282" stroke-width="1.5" stroke-linecap="round" stroke-linejoin="round"/>
<path id="Path_4" d="M8.14001 21H15.86" stroke="#828282" stroke-width="1.5" stroke-linecap="round" stroke-linejoin="round"/>
<path id="Path_5" d="M12 7V6" stroke="#828282" stroke-width="1.5" stroke-linecap="round" stroke-linejoin="round"/>
<path id="Path_6" d="M12 13V14" stroke="#828282" stroke-width="1.5" stroke-linecap="round" stroke-linejoin="round"/>
<path id="Path_7" d="M10.264 12.286C10.523 12.71 10.965 13.004 11.5 13.004H12H12.596C13.372 13.004 14 12.375 14 11.6C14 10.956 13.562 10.395 12.937 10.238L11.062 9.768C10.438 9.61 10 9.048 10 8.404C10 7.629 10.629 7 11.404 7H12H12.5C13.033 7 13.474 7.292 13.734 7.714" stroke="#828282" stroke-width="1.5" stroke-linecap="round" stroke-linejoin="round"/>
</g>
</g>
</g>
</svg>
