<?xml version="1.0" standalone="no"?><!DOCTYPE svg PUBLIC "-//W3C//DTD SVG 1.1//EN" "http://www.w3.org/Graphics/SVG/1.1/DTD/svg11.dtd"><svg t="1732087992277" class="icon" viewBox="0 0 1061 1024" version="1.1" xmlns="http://www.w3.org/2000/svg" p-id="40148" xmlns:xlink="http://www.w3.org/1999/xlink" width="132.625" height="128"><path d="M539.346762 197.093946c17.539732 0 31.848461-14.308729 31.848461-31.84846V31.851207c0-17.770518-14.308729-32.079247-32.079247-31.848461-17.770518 0-31.848461 14.308729-31.848461 32.079247v133.394278c0 17.308946 14.308729 31.617675 32.079247 31.617675z m348.255996-87.929446c-11.770083-13.154799-31.848461-14.077943-45.00326-2.307859l-97.853242 88.621804c-13.154799 12.000869-14.077943 32.079247-2.30786 45.00326 6.231221 6.923578 15.001087 10.385368 23.770953 10.385367 7.615936 0 15.231873-2.769431 21.463093-8.308294l97.853243-88.621804c12.924013-11.539297 14.077943-31.848461 2.077073-44.772474z m-556.655708 137.086853c11.770083-13.154799 10.616154-33.463963-2.307859-45.00326L219.015865 102.471708c-13.154799-11.770083-33.233177-10.616154-45.00326 2.307859s-10.616154 33.233177 2.30786 45.00326l109.623325 98.776386c6.000435 5.538863 13.847157 8.308294 21.232307 8.308294 8.769866 0 17.539732-3.461789 23.770953-10.616154z" p-id="40149" fill="#dbdbdb"></path><path d="M936.067807 1011.306773H126.4707c-61.850634 0-112.854329-38.541253-112.854329-84.929229V615.970443c-2.307859-30.925317-2.307859-61.619848 22.155451-81.005868l216.708006-190.859979H810.058679l216.708006 190.859979c24.232525 19.38602 22.155451 54.003912 22.155451 92.545165v297.021516c0 48.234263-50.772909 86.775517-112.854329 86.775517zM57.927273 615.970443v310.407101c0 25.155668 30.925317 46.387976 68.543427 46.387975h809.597107c37.61811 0 68.543427-21.232307 68.543427-46.387975V614.124155H732.514601v42.464615c0 21.232307-22.155451 38.541253-48.695835 38.541253H380.796815c-26.540384 0-48.695835-17.308946-48.695835-38.541253v-42.464615H57.927273v1.846288z m316.17675 40.618327s2.307859 1.846288 6.692792 1.846288h303.021951c2.307859 0 4.384933-1.846288 6.692792-1.846288v-79.15958h314.099676c-2.307859-5.769649-2.307859-9.69301-6.692793-13.385585l-203.553206-181.16697H272.327419l-203.553206 181.16697c-4.384933 1.846288-6.692793 7.615936-6.692793 13.385585H376.181096v79.15958h-2.077073z m0 0" p-id="40150" fill="#dbdbdb"></path></svg>