<svg width="76" height="52" viewBox="0 0 76 52" fill="none" xmlns="http://www.w3.org/2000/svg">
<g clip-path="url(#clip0_5854_52952)">
<path fill-rule="evenodd" clip-rule="evenodd" d="M76.4921 48.4781C67.6659 37.5263 53.547 31.0781 38.3863 31.0781C23.6941 31.0781 10.5389 37.6585 1.70703 48.0329L76.4921 48.4781Z" fill="url(#paint0_linear_5854_52952)"/>
<path d="M21.3943 33.8058V14.8613L36.5771 11.3612V33.8058H21.3943Z" fill="#131416" stroke="#CCCCCC" stroke-width="0.351"/>
<path d="M54.8077 15.8183V33.8058H36.7666L36.9272 11.3648L54.8077 15.8183Z" fill="#131416" stroke="#CCCCCC" stroke-width="0.351"/>
<path d="M39.0736 41.5892L21.3943 33.8714V14.9637L39.0736 20.3643V41.5892Z" fill="#131416" stroke="#CCCCCC" stroke-width="0.351"/>
<path d="M54.8063 15.9169V33.6053L39.3845 41.5667V20.364L54.8063 15.9169Z" fill="#131416" stroke="#CCCCCC" stroke-width="0.351"/>
<path d="M59.9234 23.2555L44.9596 30.6238L39.4659 20.3405L54.9083 15.8875L59.9234 23.2555Z" fill="#131416" stroke="#CCCCCC" stroke-width="0.351"/>
<path d="M21.0422 24.2325L16.7902 22.4811L21.0422 15.3626V24.2325Z" fill="#131416" stroke="#CCCCCC" stroke-width="0.351"/>
<path d="M24.1152 21.2109L36.2631 25.0391" stroke="#CCCCCC" stroke-width="0.702" stroke-linecap="round" stroke-linejoin="round"/>
<path d="M24.2441 25.6289L30.8 27.6949" stroke="#CCCCCC" stroke-width="0.702" stroke-linecap="round" stroke-linejoin="round"/>
<path d="M24.2441 29.8398L29.5348 31.5071" stroke="#CCCCCC" stroke-width="0.702" stroke-linecap="round" stroke-linejoin="round"/>
<path d="M53.2771 3.56451L45.2595 10.7162V7.07721L53.2771 3.56451Z" fill="#131416" stroke="#CCCCCC" stroke-width="0.351"/>
<path d="M50.5608 10.3997L46.8677 7.91549L53.8022 3.43835L50.5608 10.3997Z" fill="#131416" stroke="#CCCCCC" stroke-width="0.351"/>
<path d="M53.0487 3.29115L45.1209 6.82693L42.7605 4.63697L53.0487 3.29115Z" fill="#131416" stroke="#CCCCCC" stroke-width="0.351"/>
<path d="M44.1256 8.22266C40.4427 11.0734 38.6013 13.0588 38.6013 14.1789C38.6013 15.859 39.7836 16.407 40.8648 16.407C41.9459 16.407 42.762 14.4806 40.6817 14.1789C39.2948 13.9777 37.9842 15.78 36.75 19.5855" stroke="#999999" stroke-width="0.351" stroke-linecap="round" stroke-linejoin="round" stroke-dasharray="0.7 0.7"/>
<path d="M17.3556 12.549C16.9903 12.549 16.7109 12.2696 16.7109 11.9043C16.7109 11.5606 17.0118 11.2597 17.3556 11.2597C17.7208 11.2597 18.0002 11.5391 18.0002 11.9043C18.0002 12.2696 17.7208 12.549 17.3556 12.549Z" fill="#A1A1AA"/>
<path d="M18.7522 11.1953C19.0316 10.1423 19.2464 9.92747 20.2993 9.64814C19.2464 9.3688 19.0101 9.15393 18.7522 8.10106C18.4729 9.13244 18.258 9.3688 17.2051 9.64814C18.258 9.92747 18.4729 10.1423 18.7522 11.1953Z" fill="#A1A1AA"/>
<path d="M56.1529 13.5693C56.3245 12.9246 56.4537 12.7957 57.0984 12.6238C56.4537 12.4519 56.3033 12.323 56.1529 11.6784C55.9814 12.323 55.8524 12.4519 55.2075 12.6238C55.8521 12.7957 55.981 12.9246 56.1529 13.5693Z" fill="#A1A1AA"/>
<path d="M57.3995 11.7858C57.8504 10.1098 58.1942 9.74452 59.8702 9.31478C58.1942 8.86355 57.8289 8.49826 57.3995 6.84375C56.9483 8.51975 56.6042 8.88503 54.9285 9.31478C56.6042 9.76601 56.9694 10.1098 57.3995 11.7858Z" fill="#A1A1AA"/>
<path fill-rule="evenodd" clip-rule="evenodd" d="M18.3651 39.2346H16.9629V34.4306C16.9629 34.0483 17.2751 33.7383 17.6603 33.7383H17.6676C18.0528 33.7383 18.3651 34.0483 18.3651 34.4306V39.2346Z" fill="#333333"/>
<path fill-rule="evenodd" clip-rule="evenodd" d="M19.0605 40.4092H17.6543V37.9006C17.6543 37.5284 17.9597 37.2266 18.3363 37.2266H18.3785C18.7552 37.2266 19.0605 37.5284 19.0605 37.9006V40.4092Z" fill="#999999"/>
<path fill-rule="evenodd" clip-rule="evenodd" d="M17.1676 39.2295H15.752V36.5021C15.752 36.1277 16.0581 35.8242 16.4358 35.8242H16.4838C16.8614 35.8242 17.1676 36.1277 17.1676 36.5021V39.2295Z" fill="#666666"/>
<path d="M19.1454 43.0685H15.4628C15.3986 43.0685 15.3492 43.0174 15.3492 42.9577V39.335C15.3492 39.2753 15.3986 39.2242 15.4628 39.2242H19.1454C19.2096 39.2242 19.2589 39.2753 19.2589 39.335V42.9577C19.2589 43.0174 19.2096 43.0685 19.1454 43.0685Z" fill="#555555" stroke="#CCCCCC" stroke-width="0.3"/>
<path fill-rule="evenodd" clip-rule="evenodd" d="M63.1658 35.637H61.7637V30.833C61.7637 30.4506 62.0759 30.1406 62.4611 30.1406H62.4684C62.8536 30.1406 63.1658 30.4506 63.1658 30.833V35.637Z" fill="#333333"/>
<path fill-rule="evenodd" clip-rule="evenodd" d="M63.8613 36.8115H62.4551V34.303C62.4551 33.9307 62.7604 33.6289 63.1371 33.6289H63.1793C63.556 33.6289 63.8613 33.9307 63.8613 34.303V36.8115Z" fill="#999999"/>
<path fill-rule="evenodd" clip-rule="evenodd" d="M61.9664 35.6319H60.5508V32.9045C60.5508 32.5301 60.8569 32.2266 61.2346 32.2266H61.2826C61.6603 32.2266 61.9664 32.5301 61.9664 32.9045V35.6319Z" fill="#666666"/>
<path d="M63.9442 39.4669H60.2616C60.1974 39.4669 60.148 39.4158 60.148 39.3561V35.7335C60.148 35.6737 60.1974 35.6227 60.2616 35.6227H63.9442C64.0084 35.6227 64.0578 35.6737 64.0578 35.7335V39.3561C64.0578 39.4158 64.0084 39.4669 63.9442 39.4669Z" fill="#555555" stroke="#CCCCCC" stroke-width="0.3"/>
</g>
<defs>
<linearGradient id="paint0_linear_5854_52952" x1="39.0996" y1="31.0781" x2="39.0996" y2="50.9101" gradientUnits="userSpaceOnUse">
<stop stop-color="#4D4D4D"/>
<stop offset="1" stop-color="#121316" stop-opacity="0"/>
</linearGradient>
<clipPath id="clip0_5854_52952">
<rect width="75" height="51" fill="white" transform="translate(0.5 0.804688)"/>
</clipPath>
</defs>
</svg>
