<svg width="18" height="18" viewBox="0 0 18 18" fill="none" xmlns="http://www.w3.org/2000/svg">
<g id="piggy-bank-02">
<path id="Icon" d="M3.74995 9.75C3.74995 7.26472 5.76467 5.25 8.24995 5.25M3.74995 9.75C3.74995 10.9863 4.24849 12.1061 5.0555 12.9195C5.13333 12.9979 5.17225 13.0371 5.19522 13.0748C5.21714 13.1108 5.2299 13.1418 5.23969 13.1828C5.24995 13.2257 5.24995 13.2746 5.24995 13.3724V15.15C5.24995 15.36 5.24995 15.465 5.29082 15.5452C5.32677 15.6158 5.38414 15.6732 5.4547 15.7091C5.53492 15.75 5.63993 15.75 5.84995 15.75H7.27495C7.48497 15.75 7.58998 15.75 7.67019 15.7091C7.74076 15.6732 7.79812 15.6158 7.83408 15.5452C7.87495 15.465 7.87495 15.36 7.87495 15.15V14.85C7.87495 14.64 7.87495 14.535 7.91582 14.4548C7.95177 14.3842 8.00914 14.3268 8.0797 14.2909C8.15992 14.25 8.26493 14.25 8.47495 14.25H9.52495C9.73497 14.25 9.83998 14.25 9.92019 14.2909C9.99076 14.3268 10.0481 14.3842 10.0841 14.4548C10.1249 14.535 10.1249 14.64 10.1249 14.85V15.15C10.1249 15.36 10.1249 15.465 10.1658 15.5452C10.2018 15.6158 10.2591 15.6732 10.3297 15.7091C10.4099 15.75 10.5149 15.75 10.7249 15.75H12.15C12.36 15.75 12.465 15.75 12.5452 15.7091C12.6158 15.6732 12.6732 15.6158 12.7091 15.5452C12.75 15.465 12.75 15.36 12.75 15.15V14.4182C12.75 14.2667 12.75 14.1909 12.7716 14.1301C12.7923 14.0718 12.8183 14.031 12.8625 13.9877C12.9086 13.9425 12.9866 13.9063 13.1428 13.8338C13.8794 13.4918 14.508 12.9563 14.9633 12.2926C15.0434 12.1759 15.0834 12.1176 15.1262 12.0831C15.1671 12.0501 15.2037 12.0308 15.2541 12.0157C15.3067 12 15.3691 12 15.4941 12H15.9C16.11 12 16.215 12 16.2952 11.9591C16.3658 11.9232 16.4232 11.8658 16.4591 11.7952C16.5 11.715 16.5 11.61 16.5 11.4V8.83931C16.5 8.63937 16.5 8.5394 16.4629 8.46228C16.426 8.38575 16.3643 8.324 16.2877 8.28715C16.2106 8.25 16.1106 8.25 15.9107 8.25C15.766 8.25 15.6936 8.25 15.6353 8.23035C15.5725 8.20917 15.5284 8.18099 15.4828 8.13283C15.4405 8.08817 15.406 8.01348 15.337 7.86411C15.1153 7.38467 14.8119 6.95083 14.4444 6.58053C14.3666 6.50209 14.3277 6.46287 14.3047 6.42516C14.2828 6.38917 14.27 6.35819 14.2603 6.31721C14.25 6.27425 14.25 6.22538 14.25 6.12763V5.29543C14.25 5.0254 14.25 4.89038 14.1938 4.79963C14.1445 4.72013 14.0673 4.66191 13.9773 4.63638C13.8746 4.60724 13.7448 4.64434 13.4852 4.71852L11.7057 5.22692C11.6755 5.23556 11.6604 5.23987 11.645 5.24291C11.6314 5.2456 11.6176 5.24753 11.6037 5.24869C11.5881 5.25 11.5722 5.25 11.5405 5.25H8.24995M3.74995 9.75H3C2.17157 9.75 1.5 9.07843 1.5 8.25C1.5 7.69479 1.80165 7.21003 2.25 6.95067M8.24995 5.25H11.2234C11.2409 5.12752 11.25 5.00232 11.25 4.875C11.25 3.42525 10.0747 2.25 8.625 2.25C7.17525 2.25 6 3.42525 6 4.875C6 5.1879 6.05475 5.48802 6.15519 5.76629C6.78086 5.43661 7.49358 5.25 8.24995 5.25Z" stroke="#627EEA" stroke-width="1.6" stroke-linecap="round" stroke-linejoin="round"/>
</g>
</svg>
