<svg width="27" height="27" viewBox="0 0 27 27" fill="none" xmlns="http://www.w3.org/2000/svg">
<path id="Icon" d="M9.125 16.8333C9.125 18.4442 10.4308 19.75 12.0417 19.75H14.75C16.4759 19.75 17.875 18.3509 17.875 16.625C17.875 14.8991 16.4759 13.5 14.75 13.5H12.25C10.5241 13.5 9.125 12.1009 9.125 10.375C9.125 8.64911 10.5241 7.25 12.25 7.25H14.9583C16.5692 7.25 17.875 8.55584 17.875 10.1667M13.5 5.375V7.25M13.5 19.75V21.625M26 13.5C26 20.4036 20.4036 26 13.5 26C6.59644 26 1 20.4036 1 13.5C1 6.59644 6.59644 1 13.5 1C20.4036 1 26 6.59644 26 13.5Z" stroke="#BF8C00" stroke-width="1.5" stroke-linecap="round" stroke-linejoin="round"/>
</svg>
