<svg width="54" height="14" viewBox="0 0 54 14" fill="none" xmlns="http://www.w3.org/2000/svg">
<path d="M1.842 5.61864H10.172V10.8546H1.842V5.61864ZM8.814 9.67864V8.76864H3.2V9.67864H8.814ZM3.2 7.69064H8.814V6.79464H3.2V7.69064ZM11.866 1.46064V4.10664H10.676V4.76464H1.324V4.09264H0.12V1.46064H5.23C5.12733 1.19931 4.992 0.90064 4.824 0.56464L6.364 0.31264C6.476 0.611307 6.602 0.993974 6.742 1.46064H11.866ZM1.464 3.60264H10.522V2.73464H1.464V3.60264ZM0.176 11.7786H11.838V12.9686H0.176V11.7786ZM15.184 5.82864C14.7547 6.36064 14.316 6.85064 13.868 7.29864L13.434 5.88464C14.8713 4.27931 15.9307 2.42197 16.612 0.31264L17.872 0.90064C17.5267 1.92731 17.0693 2.93531 16.5 3.92464V13.2766H15.184V5.82864ZM17.858 2.00664H20.546L20.924 0.31264L22.226 0.43864C22.2353 0.373307 22.1187 0.895973 21.876 2.00664H25.908V3.29464H21.54C21.484 3.46264 21.4187 3.68664 21.344 3.96664C21.2413 4.28397 21.176 4.49864 21.148 4.61064H26.482V5.88464H20.728C20.4853 6.54731 20.294 7.04197 20.154 7.36864H25.726V8.51664C25.166 9.42197 24.3027 10.3226 23.136 11.2186C23.7053 11.5173 24.2747 11.8486 24.844 12.2126L24.088 13.3606C22.408 12.2313 20.6533 11.3306 18.824 10.6586L19.538 9.60864C20.2847 9.87931 21.0967 10.22 21.974 10.6306C22.9727 9.94931 23.752 9.27264 24.312 8.60064H18.432C18.7587 7.81664 19.0993 6.91131 19.454 5.88464H17.242V4.61064H19.86C20.028 4.03197 20.1493 3.59331 20.224 3.29464H17.858V2.00664ZM39.768 3.53264L39.978 4.79264L35.456 5.39464C35.54 6.16931 35.638 6.83197 35.75 7.38264C36.0767 8.84797 36.5107 9.96331 37.052 10.7286C37.556 11.4566 38.0367 11.8346 38.494 11.8626C38.8207 11.8346 39.068 10.9853 39.236 9.31464L40.398 9.98664C40.202 11.1066 39.9453 11.9606 39.628 12.5486C39.348 12.978 38.9933 13.1973 38.564 13.2066C37.864 13.2066 37.1407 12.7586 36.394 11.8626C35.5727 10.8733 34.9613 9.58997 34.56 8.01264C34.3827 7.32197 34.2473 6.50997 34.154 5.57664L31.242 5.96864L31.032 4.70864L34.042 4.30264C33.9487 3.05197 33.8973 1.71731 33.888 0.29864H35.232C35.232 1.72664 35.274 3.00064 35.358 4.12064L39.768 3.53264ZM29.198 5.80064C28.778 6.31397 28.33 6.81797 27.854 7.31264L27.434 5.92664C28.89 4.30264 29.954 2.41264 30.626 0.25664L31.872 0.84464C31.5267 1.88997 31.0833 2.87931 30.542 3.81264V13.2766H29.198V5.80064ZM36.73 0.35464C37.5607 1.05464 38.27 1.74997 38.858 2.44064L37.948 3.33664C37.4627 2.66464 36.772 1.94597 35.876 1.18064L36.73 0.35464ZM50.632 11.5546L50.282 10.2246L51.5 10.2806C51.7987 10.2806 51.948 10.1266 51.948 9.81864V5.70264H48.7V13.2766H47.356V5.70264H44.094V11.5826H42.778V4.41464H47.356V2.52464C45.788 2.63664 44.094 2.69264 42.274 2.69264L41.868 1.44664C46.32 1.44664 50.1047 1.09197 53.222 0.38264L53.894 1.54464C52.466 1.91797 50.7347 2.20731 48.7 2.41264V4.41464H53.264V10.1126C53.264 11.074 52.8207 11.5546 51.934 11.5546H50.632Z" fill="url(#paint0_linear_5038_47419)"/>
<defs>
<linearGradient id="paint0_linear_5038_47419" x1="55" y1="6.80664" x2="-1" y2="6.80664" gradientUnits="userSpaceOnUse">
<stop stop-color="#70F6FF"/>
<stop offset="1" stop-color="#CCFF00"/>
</linearGradient>
</defs>
</svg>
