<svg width="147" height="107" viewBox="0 0 147 107" fill="none" xmlns="http://www.w3.org/2000/svg">
<path d="M55.1403 2.62712L56.3063 8.02912L51.7876 11.2341L57.162 10.2266L60.3946 14.5869L59.4619 9.21621L63.7473 5.97987L58.5142 7.05911L55.1403 2.62712Z" fill="black"/>
<path d="M127.244 79.1482L126.093 84.3962L122.147 86.8029L127.172 87.9057L129.802 91.9003L130.965 86.6007L134.899 84.2456L130.239 83.223L127.244 79.1482Z" fill="black"/>
<path d="M132.62 54.6835C133.247 55.7586 132.954 57.3931 131.698 59.5186C130.455 61.6233 128.318 64.1216 125.444 66.8522C119.699 72.3108 111.053 78.6592 100.866 84.5983C90.6797 90.5374 80.8957 94.9345 73.3154 97.245C69.5233 98.4009 66.2964 99.0302 63.8522 99.0754C61.3841 99.121 59.8174 98.5705 59.1906 97.4954C58.5638 96.4203 58.8565 94.7858 60.112 92.6603C61.3553 90.5556 63.4927 88.0573 66.3666 85.3267C72.1115 79.8681 80.7578 73.5197 90.9443 67.5806C101.131 61.6415 110.915 57.2444 118.495 54.9339C122.287 53.778 125.514 53.1487 127.958 53.1035C130.426 53.0579 131.993 53.6084 132.62 54.6835Z" stroke="black" stroke-width="0.5"/>
<path d="M129.145 48.23C129.772 49.3051 129.479 50.9396 128.224 53.0651C126.98 55.1698 124.843 57.6681 121.969 60.3987C116.224 65.8572 107.578 72.2057 97.3913 78.1448C87.2049 84.0838 77.4208 88.481 69.8406 90.7915C66.0485 91.9473 62.8215 92.5767 60.3774 92.6219C57.9092 92.6675 56.3426 92.117 55.7157 91.0419C55.0889 89.9668 55.3817 88.3323 56.6372 86.2068C57.8805 84.1021 60.0178 81.6038 62.8917 78.8732C68.6366 73.4146 77.283 67.0662 87.4694 61.1271C97.6559 55.188 107.44 50.7909 115.02 48.4804C118.812 47.3245 122.039 46.6951 124.483 46.65C126.952 46.6044 128.518 47.1549 129.145 48.23Z" stroke="black" stroke-width="0.5"/>
<path d="M125.67 41.7765C126.297 42.8516 126.004 44.4861 124.748 46.6116C123.505 48.7163 121.368 51.2145 118.494 53.9452C112.749 59.4037 104.103 65.7522 93.9162 71.6913C83.7297 77.6303 73.9457 82.0275 66.3654 84.338C62.5734 85.4938 59.3464 86.1232 56.9023 86.1684C54.4341 86.2139 52.8674 85.6635 52.2406 84.5884C51.6138 83.5133 51.9065 81.8788 53.162 79.7533C54.4053 77.6486 56.5427 75.1503 59.4166 72.4197C65.1615 66.9611 73.8078 60.6127 83.9943 54.6736C94.1808 48.7345 103.965 44.3374 111.545 42.0269C115.337 40.871 118.564 40.2416 121.008 40.1965C123.476 40.1509 125.043 40.7014 125.67 41.7765Z" stroke="black" stroke-width="0.5"/>
<rect width="5.70892" height="28.7928" rx="2.85446" transform="matrix(-0.861767 -0.507304 -0.507304 0.861767 100.544 58.8028)" fill="black"/>
<path d="M79.995 48.6995L79.9951 48.6996L79.9907 48.7063C78.0117 51.6994 74.8274 55.6362 72.1439 58.8185C70.801 60.4111 69.5814 61.8171 68.6975 62.825C68.2967 63.2821 67.9649 63.6573 67.7219 63.931L90.0629 60.7022L94.982 52.346L87.7853 29.8862C87.65 30.2803 87.4623 30.8225 87.2319 31.4772C86.7334 32.8942 86.0348 34.8385 85.2349 36.9474C83.6382 41.157 81.6279 46.049 79.995 48.6995Z" fill="white" stroke="black" stroke-width="0.5"/>
<path d="M66.5472 40.2297C63.571 45.2853 61.8363 50.4132 61.4292 54.6099C61.02 58.8291 61.9566 62.0077 64.1855 63.3198C66.4144 64.6319 69.6482 63.9084 73.1387 61.503C76.6105 59.1105 80.2523 55.1053 83.2285 50.0496C86.2046 44.9939 87.9393 39.866 88.3464 35.6694C88.7557 31.4501 87.819 28.2715 85.5901 26.9594C83.3612 25.6473 80.1274 26.3709 76.6369 28.7763C73.1651 31.1688 69.5233 35.174 66.5472 40.2297Z" fill="white" stroke="black" stroke-width="0.5"/>
<path d="M67.7296 41.6459C65.2925 45.7858 63.8782 49.986 63.5533 53.4229C63.2262 56.8819 64.0062 59.47 65.8224 60.5391C67.6386 61.6082 70.28 61.0343 73.1456 59.0698C75.993 57.1178 78.9792 53.8429 81.4163 49.7029C83.8534 45.563 85.2676 41.3628 85.5926 37.9259C85.9196 34.4669 85.1396 31.8789 83.3234 30.8097C81.5073 29.7406 78.8658 30.3146 76.0002 32.2791C73.1528 34.2311 70.1667 37.5059 67.7296 41.6459Z" fill="white" stroke="black" stroke-width="0.5"/>
<path d="M101.124 61.7361C99.658 64.2257 100.404 67.3592 102.757 68.744C105.109 70.1289 108.211 69.2607 109.677 66.7711C111.142 64.2816 110.396 61.1481 108.043 59.7632C105.691 58.3783 102.589 59.2466 101.124 61.7361Z" fill="white" stroke="black" stroke-width="0.5"/>
<rect width="5.21249" height="10.9214" transform="matrix(-0.861767 -0.507304 -0.507304 0.861767 108.17 59.5478)" fill="black"/>
<path d="M104.02 57.2982L93.5249 47.3382C93.5256 47.3931 93.526 47.4513 93.526 47.5125C93.5261 48.0166 93.4986 48.7317 93.3883 49.5801C93.1679 51.2757 92.616 53.5128 91.2862 55.6634L91.2863 55.6635L91.2815 55.6707C89.6687 58.0879 87.9885 59.6512 86.7071 60.6119C86.0666 61.0921 85.5259 61.4216 85.1433 61.6318C85.1219 61.6435 85.101 61.6549 85.0806 61.6659L98.6521 66.4165L104.02 57.2982Z" fill="#9147FF" stroke="black" stroke-width="0.5"/>
<path d="M81.4678 48.8781L81.4677 48.878L81.4618 48.8888C80.5999 50.497 79.754 51.8132 79.1242 52.7262C78.8459 53.1298 78.61 53.4543 78.434 53.69L73.8194 48.9273L77.0297 43.474L83.3595 44.6959C83.2907 44.9063 83.1968 45.177 83.0742 45.4986C82.7552 46.3352 82.2418 47.5155 81.4678 48.8781Z" fill="#9147FF" stroke="black"/>
<path d="M74.1483 45.4244C73.6737 46.2305 73.4152 47.0325 73.3632 47.6631C73.308 48.3326 73.4882 48.632 73.6425 48.7229C73.7969 48.8137 74.1461 48.826 74.7046 48.4528C75.2308 48.1013 75.8066 47.4861 76.2811 46.6799C76.7557 45.8738 77.0142 45.0718 77.0662 44.4412C77.1214 43.7717 76.9413 43.4723 76.7869 43.3814C76.6325 43.2906 76.2833 43.2783 75.7248 43.6515C75.1986 44.003 74.6228 44.6182 74.1483 45.4244Z" fill="white" stroke="black"/>
<path d="M106.188 38.9472C107.559 42.9019 111.735 45.0335 115.507 43.7257C119.278 42.4179 121.239 38.1588 119.867 34.2041C118.496 30.2493 114.32 28.1178 110.548 29.4255C106.777 30.7333 104.817 34.9924 106.188 38.9472Z" fill="white" stroke="black" stroke-width="0.3"/>
<path fill-rule="evenodd" clip-rule="evenodd" d="M117.279 43.1568L117.583 42.7043L110.999 38.5676L108.441 42.3766C110.511 44.2046 113.5 44.8168 116.204 43.7044C116.582 43.5487 116.941 43.3651 117.279 43.1568Z" fill="black"/>
<path d="M108.027 38.3079C109.398 42.2627 113.574 44.3942 117.346 43.0864C121.117 41.7787 123.077 37.5196 121.706 33.5648C120.335 29.6101 116.159 27.4785 112.387 28.7863C108.615 30.0941 106.655 34.3532 108.027 38.3079Z" fill="white" stroke="black" stroke-width="0.3"/>
<path fill-rule="evenodd" clip-rule="evenodd" d="M114.233 34.5871L117.318 31.9073L117.398 32.766L114.849 34.9487L115.778 35.4937L115.835 36.106L115.018 36.8159L117.934 38.4916L118.015 39.3505L114.485 37.2786L111.4 39.9585L111.32 39.0997L113.872 36.9189L112.94 36.372L112.883 35.7597L113.692 35.0574L110.783 33.3739L110.703 32.5152L114.233 34.5871ZM114.306 35.4134L113.612 36.0082L114.405 36.4637L115.098 35.8716L114.306 35.4134Z" fill="black"/>
<path d="M44.1344 78.6613C45.5056 82.6161 49.6815 84.7476 53.4533 83.4399C57.225 82.1321 59.1852 77.873 57.8139 73.9182C56.4427 69.9635 52.2668 67.8319 48.495 69.1397C44.7232 70.4475 42.7631 74.7066 44.1344 78.6613Z" fill="white" stroke="black" stroke-width="0.3"/>
<path fill-rule="evenodd" clip-rule="evenodd" d="M55.2251 82.8711L55.5291 82.4184L48.9455 78.2818L46.3871 82.0908C48.4579 83.9189 51.4461 84.5311 54.1504 83.4187C54.5289 83.263 54.8876 83.0794 55.2251 82.8711Z" fill="black"/>
<path d="M45.9731 78.0221C47.3443 81.9769 51.5202 84.1084 55.292 82.8006C59.0637 81.4929 61.0239 77.2338 59.6526 73.279C58.2814 69.3243 54.1055 67.1927 50.3337 68.5005C46.5619 69.8083 44.6018 74.0674 45.9731 78.0221Z" fill="white" stroke="black" stroke-width="0.3"/>
<path fill-rule="evenodd" clip-rule="evenodd" d="M52.1795 74.3013L55.2645 71.6214L55.3449 72.4802L52.7956 74.6629L53.7241 75.2079L53.7814 75.8202L52.9642 76.5301L55.881 78.2058L55.9614 79.0647L52.4315 76.9928L49.3464 79.6726L49.266 78.8138L51.8185 76.633L50.8869 76.0862L50.8296 75.4739L51.638 74.7716L48.73 73.0881L48.6496 72.2294L52.1795 74.3013ZM52.2529 75.1276L51.5583 75.7223L52.3513 76.1779L53.0443 75.5857L52.2529 75.1276Z" fill="black"/>
<path d="M32.567 49.9998C34.7938 56.4221 41.5785 59.8899 47.7128 57.763C53.847 55.6361 57.0288 48.7126 54.802 42.2903C52.5752 35.8681 45.7905 32.4003 39.6562 34.5272C33.522 36.6541 30.3402 43.5776 32.567 49.9998Z" fill="white" stroke="black" stroke-width="0.3"/>
<path fill-rule="evenodd" clip-rule="evenodd" d="M50.5404 56.7589L51.0307 56.029L40.4131 49.3577L36.2871 55.5007C39.6267 58.4487 44.4459 59.436 48.807 57.6421C49.4175 57.3909 49.996 57.0947 50.5404 56.7589Z" fill="black"/>
<path d="M35.5327 48.9689C37.7595 55.3912 44.5442 58.859 50.6785 56.7321C56.8128 54.6051 59.9945 47.6817 57.7677 41.2594C55.5409 34.8372 48.7562 31.3693 42.6219 33.4963C36.4877 35.6232 33.3059 42.5467 35.5327 48.9689Z" fill="white" stroke="black" stroke-width="0.3"/>
<path fill-rule="evenodd" clip-rule="evenodd" d="M45.6287 42.9384L50.6039 38.6165L50.7336 40.0015L46.6223 43.5216L48.1197 44.4005L48.2121 45.3879L46.8942 46.5328L51.5981 49.2353L51.7278 50.6204L46.0351 47.2791L41.0598 51.6009L40.9301 50.2159L45.0466 46.6989L43.5441 45.817L43.4516 44.8295L44.7555 43.6969L40.0656 40.9818L39.9359 39.597L45.6287 42.9384ZM45.7471 44.271L44.6269 45.2301L45.9057 45.9648L47.0234 45.0098L45.7471 44.271Z" fill="black"/>
<path d="M99.7598 7.0562C99.7598 8.76976 101.149 10.1589 102.862 10.1589C104.576 10.1589 105.965 8.76976 105.965 7.0562C105.965 5.34264 104.576 3.95353 102.862 3.95353C101.149 3.95353 99.7598 5.34264 99.7598 7.0562Z" fill="black"/>
<circle cx="3.10267" cy="3.10267" r="3.10267" transform="matrix(-1 0 0 1 103.173 90.0148)" fill="#9147FF"/>
<path d="M20.4993 90.3459L22.9124 93.433L26.7091 92.4265L23.7209 94.8965L24.6286 98.6363L22.1266 95.6906L18.4187 96.5558L21.3819 94.1953L20.4993 90.3459Z" fill="#9147FF"/>
<path d="M138.464 17.4138L139.94 24.6446L147.186 26.1359L140.075 27.7909L138.464 34.8581L136.72 27.7909L129.742 26.1359L136.72 24.6446L138.464 17.4138Z" fill="#9147FF"/>
<path d="M6.39212 33.6807L10.1133 38.4411L15.968 36.8891L11.3601 40.6979L12.7597 46.465L8.90158 41.9225L3.18378 43.2566L7.7531 39.6167L6.39212 33.6807Z" fill="black"/>
</svg>
