<svg width="95" height="61" viewBox="0 0 95 61" fill="none" xmlns="http://www.w3.org/2000/svg">
<path d="M43.6589 8.90603L51.9248 28.7183C52.9829 31.2545 51.1196 34.0507 48.3716 34.0507H31.8398C29.0918 34.0507 27.2285 31.2544 28.2867 28.7183L36.5526 8.90602C37.8696 5.74924 42.3418 5.74925 43.6589 8.90603Z" fill="#AEFFC2" stroke="black" stroke-width="0.3"/>
<path d="M45.1056 10.4204L53.3715 30.2327C54.4297 32.7689 52.5664 35.5651 49.8184 35.5651H33.2866C30.5385 35.5651 28.6753 32.7689 29.7334 30.2327L37.9993 10.4204C39.3164 7.26365 43.7886 7.26365 45.1056 10.4204Z" fill="black" stroke="black" stroke-width="0.3"/>
<mask id="path-3-inside-1_564_527" fill="white">
<path fill-rule="evenodd" clip-rule="evenodd" d="M0.147211 27.0039L0 27.0303L11.0099 39.5145L95 24.4305L83.9901 11.9463L2.73259 26.5396V24.3981H0.020878L0 26.9993L0.147211 27.0039Z"/>
</mask>
<path fill-rule="evenodd" clip-rule="evenodd" d="M0.147211 27.0039L0 27.0303L11.0099 39.5145L95 24.4305L83.9901 11.9463L2.73259 26.5396V24.3981H0.020878L0 26.9993L0.147211 27.0039Z" fill="white"/>
<path d="M0 27.0303L-0.0530288 26.735L-0.57736 26.8292L-0.225001 27.2287L0 27.0303ZM0.147211 27.0039L0.20024 27.2992L0.156442 26.704L0.147211 27.0039ZM11.0099 39.5145L10.7849 39.713L10.8967 39.8397L11.063 39.8098L11.0099 39.5145ZM95 24.4305L95.053 24.7258L95.5774 24.6316L95.225 24.2321L95 24.4305ZM83.9901 11.9463L84.2151 11.7479L84.1033 11.6211L83.937 11.651L83.9901 11.9463ZM2.73259 26.5396H2.43259V26.8982L2.78562 26.8348L2.73259 26.5396ZM2.73259 24.3981H3.03259V24.0981H2.73259V24.3981ZM0.020878 24.3981V24.0981H-0.276724L-0.279112 24.3957L0.020878 24.3981ZM0 26.9993L-0.29999 26.9969L-0.302344 27.2902L-0.00923105 27.2992L0 26.9993ZM0.0530288 27.3256L0.20024 27.2992L0.0941824 26.7086L-0.0530288 26.735L0.0530288 27.3256ZM11.2349 39.3161L0.225001 26.8319L-0.225001 27.2287L10.7849 39.713L11.2349 39.3161ZM94.947 24.1352L10.9569 39.2193L11.063 39.8098L95.053 24.7258L94.947 24.1352ZM83.7651 12.1447L94.775 24.6289L95.225 24.2321L84.2151 11.7479L83.7651 12.1447ZM2.78562 26.8348L84.0431 12.2416L83.937 11.651L2.67956 26.2443L2.78562 26.8348ZM2.43259 24.3981V26.5396H3.03259V24.3981H2.43259ZM0.020878 24.6981H2.73259V24.0981H0.020878V24.6981ZM0.29999 27.0018L0.320868 24.4005L-0.279112 24.3957L-0.29999 26.9969L0.29999 27.0018ZM0.156442 26.704L0.00923105 26.6995L-0.00923105 27.2992L0.13798 27.3037L0.156442 26.704Z" fill="black" mask="url(#path-3-inside-1_564_527)"/>
<mask id="path-5-inside-2_564_527" fill="white">
<path d="M0 24.3418L0.131937 24.3983V27.0836L0 27.021V24.3418Z"/>
</mask>
<path d="M0 24.3418L0.131937 24.3983V27.0836L0 27.021V24.3418Z" fill="black"/>
<path d="M0 24.3418L0.11813 24.066L-0.3 23.8869L-0.3 24.3418H0ZM0.131937 24.3983H0.431937V24.2005L0.250066 24.1226L0.131937 24.3983ZM0.131937 27.0836L0.00318424 27.3546L0.431937 27.5583V27.0836H0.131937ZM0 27.021H-0.3V27.2106L-0.128752 27.2919L0 27.021ZM-0.11813 24.6176L0.013807 24.6741L0.250066 24.1226L0.11813 24.066L-0.11813 24.6176ZM-0.168063 24.3983V27.0836H0.431937V24.3983H-0.168063ZM0.260689 26.8127L0.128752 26.75L-0.128752 27.2919L0.00318424 27.3546L0.260689 26.8127ZM0.3 27.021V24.3418H-0.3V27.021H0.3Z" fill="black" mask="url(#path-5-inside-2_564_527)"/>
<rect x="10.9312" y="36.5134" width="0.148815" height="2.86057" fill="black"/>
<path d="M92.2554 21.6843H94.9688V24.0878L92.2554 24.5247V21.6843Z" fill="white"/>
<path d="M94.8673 21.7567L94.9993 21.7314L94.9993 24.4219L94.8257 24.3985L94.8673 21.7567Z" fill="black"/>
<rect x="0.246853" y="0.0859858" width="85.0338" height="16.3456" transform="matrix(0.984253 -0.176765 0.661434 0.750003 -0.0529867 24.4035)" fill="white" stroke="black" stroke-width="0.3"/>
<path d="M59.4113 22.367L67.6772 42.1792C68.7353 44.7154 66.8721 47.5116 64.124 47.5116H47.5923C44.8442 47.5116 42.981 44.7154 44.0391 42.1792L52.305 22.367C53.622 19.2102 58.0943 19.2102 59.4113 22.367Z" fill="#AEFFC2" stroke="black" stroke-width="0.3"/>
<path d="M60.8586 23.8816L69.1245 43.6939C70.1826 46.23 68.3193 49.0263 65.5713 49.0263H49.0395C46.2915 49.0263 44.4282 46.23 45.4864 43.6939L53.7523 23.8816C55.0693 20.7248 59.5415 20.7248 60.8586 23.8816Z" fill="black" stroke="black" stroke-width="0.3"/>
<path d="M51.591 38.5128H53.055V38.8128H51.591V38.5128ZM49.631 40.3528H53.235V40.6488H49.631V40.3528ZM51.431 37.1808H51.747V40.5048H51.431V37.1808ZM50.187 38.0528H50.495V40.4928H50.187V38.0528ZM53.619 40.4728H57.259V40.7368H53.619V40.4728ZM53.691 37.3768H56.199V37.6368H53.691V37.3768ZM54.071 39.4808H56.811V40.6088H56.519V39.7248H55.975V40.6088H55.695V39.7248H55.163V40.6088H54.883V39.7248H54.351V40.6088H54.071V39.4808ZM56.115 38.0528H56.931V38.3088H56.039L56.115 38.0528ZM54.563 37.9808H55.539V38.2128H54.471L54.563 37.9808ZM56.827 38.0528H57.123C57.123 38.0528 57.119 38.1368 57.111 38.1808C57.051 38.8368 56.995 39.1088 56.891 39.2088C56.819 39.2848 56.743 39.3088 56.627 39.3168C56.527 39.3248 56.339 39.3208 56.139 39.3088C56.131 39.2248 56.095 39.1168 56.051 39.0408C56.247 39.0608 56.439 39.0608 56.511 39.0608C56.575 39.0608 56.619 39.0608 56.651 39.0248C56.727 38.9528 56.779 38.7088 56.827 38.0928V38.0528ZM54.523 37.4248L54.823 37.4648C54.675 38.3768 54.347 39.0328 53.779 39.4488C53.731 39.3968 53.615 39.2888 53.543 39.2448C54.107 38.8768 54.403 38.2568 54.523 37.4248ZM55.463 37.9808H55.519L55.567 37.9768L55.723 38.0288C55.547 38.7888 55.123 39.1768 54.547 39.3808C54.515 39.3168 54.427 39.2168 54.375 39.1688C54.915 39.0008 55.315 38.6608 55.463 38.0248V37.9808ZM54.591 38.5408L54.767 38.3808C55.155 38.5448 55.611 38.8408 55.839 39.0648L55.655 39.2488C55.431 39.0168 54.987 38.7168 54.591 38.5408ZM56.111 37.3768H56.403C56.335 37.7488 56.235 38.2168 56.159 38.5128L55.879 38.4728C55.959 38.1848 56.051 37.7288 56.111 37.3768ZM59.591 38.5128H61.055V38.8128H59.591V38.5128ZM57.631 40.3528H61.235V40.6488H57.631V40.3528ZM59.431 37.1808H59.747V40.5048H59.431V37.1808ZM58.187 38.0528H58.495V40.4928H58.187V38.0528ZM61.555 39.3488C61.883 39.2608 62.379 39.1048 62.863 38.9488L62.903 39.2208C62.451 39.3688 61.975 39.5208 61.611 39.6368L61.555 39.3488ZM61.603 37.9768H62.863V38.2568H61.603V37.9768ZM62.111 37.1728H62.407V40.4688C62.407 40.6408 62.371 40.7288 62.267 40.7768C62.167 40.8248 62.003 40.8368 61.743 40.8368C61.731 40.7568 61.691 40.6248 61.651 40.5368C61.827 40.5448 61.991 40.5448 62.039 40.5408C62.087 40.5408 62.111 40.5248 62.111 40.4648V37.1728ZM63.467 37.5528V38.0688H64.583V37.5528H63.467ZM63.171 37.3248H64.887V38.2968H63.171V37.3248ZM63.887 39.1168H64.179V39.5168C64.179 39.9368 64.031 40.4688 62.895 40.8288C62.859 40.7568 62.779 40.6408 62.711 40.5768C63.795 40.2808 63.887 39.8288 63.887 39.5128V39.1168ZM64.179 40.2368L64.359 40.0448C64.663 40.2248 65.083 40.4848 65.295 40.6448L65.107 40.8648C64.899 40.7008 64.487 40.4288 64.179 40.2368ZM63.063 38.5928H65.015V40.0328H64.723V38.8408H63.347V40.0448H63.063V38.5928Z" fill="white"/>
<path d="M38.8405 14.6765L39.9423 14.481L39.9725 14.6676L38.8707 14.8631L38.8405 14.6765ZM38.667 16.5322C38.931 16.4366 39.3454 16.2747 39.7456 16.1184L39.792 16.3112C39.4337 16.4632 39.0518 16.6193 38.7758 16.7353L38.667 16.5322ZM38.6229 14.1394L38.8385 14.1011L39.2192 16.4525L39.0036 16.4907L38.6229 14.1394ZM38.7499 14.1168L39.9551 13.903L40.168 15.2179L38.9628 15.4317L38.9312 15.2362L39.9207 15.0607L39.7711 14.1367L38.7815 14.3123L38.7499 14.1168ZM39.5123 15.2032C39.729 15.7344 40.0726 16.1487 40.5443 16.2661C40.5013 16.3194 40.4498 16.4139 40.4264 16.4759C39.9277 16.3237 39.5719 15.872 39.3349 15.2712L39.5123 15.2032ZM40.1317 15.2944L40.3266 15.3908C40.1862 15.5741 40.0033 15.7772 39.8556 15.9161L39.6986 15.8282C39.8394 15.6844 40.0307 15.4585 40.1317 15.2944ZM37.5501 14.3267L38.3063 14.1925L38.3389 14.3939L37.7925 14.4908L38.1804 16.8866L37.9707 16.9238L37.5501 14.3267ZM38.2414 14.204L38.2827 14.1967L38.3138 14.182L38.4793 14.2471C38.4245 14.5097 38.3499 14.8367 38.2785 15.0901C38.5575 15.2934 38.6477 15.4937 38.6774 15.6773C38.7038 15.8402 38.6851 15.9684 38.6065 16.0463C38.567 16.0838 38.5138 16.1115 38.4527 16.1285C38.3862 16.1494 38.3035 16.1641 38.2287 16.1713C38.2171 16.1185 38.185 16.0328 38.1399 15.9798C38.2182 15.9751 38.2832 15.9636 38.3359 15.9512C38.3738 15.9414 38.4078 15.9262 38.4344 15.9032C38.4794 15.8617 38.4846 15.7816 38.4668 15.6903C38.4404 15.5274 38.3468 15.343 38.079 15.1529C38.1535 14.8624 38.2166 14.4826 38.2514 14.2662L38.2414 14.204ZM42.1004 13.6777C41.968 14.0424 41.6822 14.5105 41.3429 14.8357C41.3042 14.7847 41.2351 14.7147 41.1827 14.6722C41.5298 14.3578 41.8295 13.8628 41.9483 13.4701L42.161 13.4324C42.4586 13.7878 42.9137 14.1214 43.3017 14.2658C43.2665 14.3299 43.2293 14.4188 43.2044 14.4902C42.8081 14.3137 42.3628 13.9845 42.1004 13.6777ZM42.5573 14.4161L42.7788 14.3768L43.0416 15.9997L42.82 16.039L42.5573 14.4161ZM41.7395 14.5643L41.9552 14.526L42.0247 14.9554C42.0813 15.3049 42.1125 15.8355 41.6934 16.2876C41.6503 16.2466 41.5718 16.1935 41.5095 16.1649C41.9012 15.7694 41.8561 15.2839 41.8081 14.9878L41.7395 14.5643ZM41.0254 13.5882L41.2457 13.6161C41.1322 14.1541 40.909 14.7086 40.6437 15.0969C40.6119 15.0507 40.5307 14.9433 40.4812 14.9003C40.7271 14.5611 40.9329 14.0676 41.0254 13.5882ZM40.8419 14.4067L41.0146 14.1598L41.021 14.1617L41.3696 16.3146L41.1569 16.3524L40.8419 14.4067ZM44.6501 13.5665L44.8805 13.5256L45.2215 15.6312L44.9911 15.6721L44.6501 13.5665ZM44.044 14.2711L44.0953 14.588L45.7584 14.2929L45.7071 13.9761L44.044 14.2711ZM43.964 13.7766L44.0153 14.0935L45.6783 13.7984L45.627 13.4815L43.964 13.7766ZM43.7176 13.6253L45.8237 13.2516L46.0165 14.4421L43.9104 14.8158L43.7176 13.6253ZM43.6753 15.1469L46.319 14.6779L46.3526 14.8852L43.7089 15.3542L43.6753 15.1469ZM43.9084 13.171L44.0831 13.0487C44.2228 13.161 44.3914 13.3199 44.4701 13.4309L44.2885 13.5667C44.2128 13.4552 44.0487 13.2863 43.9084 13.171ZM45.2942 12.8338L45.5459 12.8683C45.4585 13.0788 45.3453 13.3182 45.2551 13.4744L45.0541 13.4339C45.1399 13.2694 45.2442 13.0132 45.2942 12.8338Z" fill="white"/>
<mask id="path-15-inside-3_564_527" fill="white">
<path fill-rule="evenodd" clip-rule="evenodd" d="M74.7467 50.0791V50.3005H74.7368C74.5451 52.4637 71.6002 54.182 67.9954 54.182C64.3906 54.182 61.4457 52.4637 61.2541 50.3005H61.2441V50.076V48.0608H62.1118C63.27 46.8127 65.4709 45.97 67.9954 45.97C70.5199 45.97 72.7208 46.8127 73.879 48.0608H74.7467V50.0729C74.7467 50.0739 74.7467 50.0749 74.7467 50.076C74.7467 50.077 74.7467 50.0781 74.7467 50.0791Z"/>
</mask>
<path fill-rule="evenodd" clip-rule="evenodd" d="M74.7467 50.0791V50.3005H74.7368C74.5451 52.4637 71.6002 54.182 67.9954 54.182C64.3906 54.182 61.4457 52.4637 61.2541 50.3005H61.2441V50.076V48.0608H62.1118C63.27 46.8127 65.4709 45.97 67.9954 45.97C70.5199 45.97 72.7208 46.8127 73.879 48.0608H74.7467V50.0729C74.7467 50.0739 74.7467 50.0749 74.7467 50.076C74.7467 50.077 74.7467 50.0781 74.7467 50.0791Z" fill="black"/>
<path d="M74.7467 50.3005V50.6005H75.0467V50.3005H74.7467ZM74.7368 50.3005V50.0005H74.4622L74.4379 50.274L74.7368 50.3005ZM61.2541 50.3005L61.5529 50.274L61.5287 50.0005H61.2541V50.3005ZM61.2441 50.3005H60.9441V50.6005H61.2441V50.3005ZM61.2441 48.0608V47.7608H60.9441V48.0608H61.2441ZM62.1118 48.0608V48.3608H62.2427L62.3317 48.2649L62.1118 48.0608ZM73.879 48.0608L73.6591 48.2649L73.7482 48.3608H73.879V48.0608ZM74.7467 48.0608H75.0467V47.7608H74.7467V48.0608ZM74.4467 50.0791V50.3005H75.0467V50.0791H74.4467ZM74.7467 50.0005H74.7368V50.6005H74.7467V50.0005ZM74.4379 50.274C74.354 51.2214 73.6602 52.1196 72.4959 52.7927C71.3373 53.4625 69.7532 53.882 67.9954 53.882V54.482C69.8424 54.482 71.5332 54.0423 72.7962 53.3122C74.0534 52.5854 74.9279 51.5428 75.0356 50.3269L74.4379 50.274ZM67.9954 53.882C66.2376 53.882 64.6535 53.4625 63.495 52.7927C62.3306 52.1196 61.6368 51.2214 61.5529 50.274L60.9552 50.3269C61.0629 51.5428 61.9375 52.5854 63.1947 53.3122C64.4577 54.0423 66.1485 54.482 67.9954 54.482V53.882ZM61.2541 50.0005H61.2441V50.6005H61.2541V50.0005ZM61.5441 50.3005V50.076H60.9441V50.3005H61.5441ZM61.5441 50.076V48.0608H60.9441V50.076H61.5441ZM61.2441 48.3608H62.1118V47.7608H61.2441V48.3608ZM62.3317 48.2649C63.4157 47.0967 65.5247 46.27 67.9954 46.27V45.67C65.417 45.67 63.1243 46.5287 61.8919 47.8568L62.3317 48.2649ZM67.9954 46.27C70.4661 46.27 72.5751 47.0967 73.6591 48.2649L74.0989 47.8568C72.8665 46.5287 70.5738 45.67 67.9954 45.67V46.27ZM73.879 48.3608H74.7467V47.7608H73.879V48.3608ZM74.4467 48.0608V50.0729H75.0467V48.0608H74.4467ZM74.4467 50.0729C74.4467 50.0735 74.4467 50.0742 74.4467 50.0747C74.4467 50.0752 74.4467 50.0756 74.4467 50.076H75.0467C75.0467 50.0753 75.0467 50.0746 75.0467 50.0741C75.0467 50.0736 75.0467 50.0732 75.0467 50.0729H74.4467ZM74.4467 50.076C74.4467 50.0763 74.4467 50.0767 74.4467 50.0773C74.4467 50.0778 74.4467 50.0784 74.4467 50.0791H75.0467C75.0467 50.0787 75.0467 50.0784 75.0467 50.0778C75.0467 50.0773 75.0467 50.0767 75.0467 50.076H74.4467Z" fill="white" mask="url(#path-15-inside-3_564_527)"/>
<path d="M74.5967 47.7039C74.5967 48.7702 73.8883 49.76 72.6911 50.491C71.4965 51.2204 69.8367 51.6765 67.9954 51.6765C66.1541 51.6765 64.4943 51.2204 63.2997 50.491C62.1026 49.76 61.3941 48.7702 61.3941 47.7039C61.3941 46.6376 62.1026 45.6478 63.2997 44.9168C64.4943 44.1874 66.1541 43.7313 67.9954 43.7313C69.8367 43.7313 71.4965 44.1874 72.6911 44.9168C73.8883 45.6478 74.5967 46.6376 74.5967 47.7039Z" fill="black" stroke="white" stroke-width="0.3"/>
<mask id="path-18-inside-4_564_527" fill="white">
<path fill-rule="evenodd" clip-rule="evenodd" d="M22.2794 26.523H23.1472V28.7626H23.1372C22.9455 30.9259 20.0006 32.6441 16.3958 32.6441C12.791 32.6441 9.8461 30.9259 9.65445 28.7626H9.64465V28.5628C9.64457 28.5546 9.64453 28.5464 9.64453 28.5381C9.64453 28.5299 9.64457 28.5217 9.64465 28.5134V26.523H10.5122C11.6704 25.2748 13.8713 24.4321 16.3958 24.4321C18.9203 24.4321 21.1212 25.2748 22.2794 26.523Z"/>
</mask>
<path fill-rule="evenodd" clip-rule="evenodd" d="M22.2794 26.523H23.1472V28.7626H23.1372C22.9455 30.9259 20.0006 32.6441 16.3958 32.6441C12.791 32.6441 9.8461 30.9259 9.65445 28.7626H9.64465V28.5628C9.64457 28.5546 9.64453 28.5464 9.64453 28.5381C9.64453 28.5299 9.64457 28.5217 9.64465 28.5134V26.523H10.5122C11.6704 25.2748 13.8713 24.4321 16.3958 24.4321C18.9203 24.4321 21.1212 25.2748 22.2794 26.523Z" fill="black"/>
<path d="M22.2794 26.523L22.0595 26.727L22.1486 26.823H22.2794V26.523ZM23.1472 26.523H23.4472V26.223H23.1472V26.523ZM23.1472 28.7626V29.0626H23.4472V28.7626H23.1472ZM23.1372 28.7626V28.4626H22.8626L22.8383 28.7361L23.1372 28.7626ZM9.65445 28.7626L9.95328 28.7361L9.92905 28.4626H9.65445V28.7626ZM9.64465 28.7626H9.34465V29.0626H9.64465V28.7626ZM9.64465 28.5628H9.94466L9.94464 28.5599L9.64465 28.5628ZM9.64465 28.5134L9.94465 28.5163V28.5134H9.64465ZM9.64465 26.523V26.223H9.34465V26.523H9.64465ZM10.5122 26.523V26.823H10.6431L10.7321 26.727L10.5122 26.523ZM22.2794 26.823H23.1472V26.223H22.2794V26.823ZM22.8472 26.523V28.7626H23.4472V26.523H22.8472ZM23.1472 28.4626H23.1372V29.0626H23.1472V28.4626ZM22.8383 28.7361C22.7544 29.6836 22.0606 30.5817 20.8963 31.2549C19.7377 31.9247 18.1536 32.3441 16.3958 32.3441V32.9441C18.2427 32.9441 19.9335 32.5045 21.1966 31.7743C22.4537 31.0475 23.3283 30.005 23.436 28.7891L22.8383 28.7361ZM16.3958 32.3441C14.638 32.3441 13.0539 31.9247 11.8954 31.2549C10.731 30.5817 10.0372 29.6836 9.95328 28.7361L9.35562 28.7891C9.46334 30.005 10.3379 31.0475 11.5951 31.7743C12.8581 32.5045 14.5489 32.9441 16.3958 32.9441V32.3441ZM9.65445 28.4626H9.64465V29.0626H9.65445V28.4626ZM9.94465 28.7626V28.5628H9.34465V28.7626H9.94465ZM9.94464 28.5599C9.94457 28.5527 9.94453 28.5454 9.94453 28.5381H9.34453C9.34453 28.5473 9.34458 28.5565 9.34466 28.5657L9.94464 28.5599ZM9.94453 28.5381C9.94453 28.5309 9.94457 28.5236 9.94464 28.5163L9.34466 28.5105C9.34458 28.5197 9.34453 28.5289 9.34453 28.5381H9.94453ZM9.94465 28.5134V26.523H9.34465V28.5134H9.94465ZM9.64465 26.823H10.5122V26.223H9.64465V26.823ZM10.7321 26.727C11.8161 25.5589 13.9251 24.7321 16.3958 24.7321V24.1321C13.8174 24.1321 11.5247 24.9908 10.2923 26.3189L10.7321 26.727ZM16.3958 24.7321C18.8665 24.7321 20.9755 25.5589 22.0595 26.727L22.4993 26.3189C21.2669 24.9908 18.9742 24.1321 16.3958 24.1321V24.7321Z" fill="white" mask="url(#path-18-inside-4_564_527)"/>
<path d="M22.9971 26.1656C22.9971 27.2319 22.2886 28.2216 21.0915 28.9527C19.8969 29.6821 18.2371 30.1382 16.3958 30.1382C14.5545 30.1382 12.8947 29.6821 11.7001 28.9527C10.503 28.2216 9.79453 27.2319 9.79453 26.1656C9.79453 25.0992 10.503 24.1095 11.7001 23.3785C12.8947 22.649 14.5545 22.193 16.3958 22.193C18.2371 22.193 19.8969 22.649 21.0915 23.3785C22.2886 24.1095 22.9971 25.0992 22.9971 26.1656Z" fill="black" stroke="white" stroke-width="0.3"/>
<mask id="path-21-inside-5_564_527" fill="white">
<path fill-rule="evenodd" clip-rule="evenodd" d="M25.7198 25.0206C25.7199 25.0151 25.7199 25.0095 25.7199 25.004C25.7199 24.9984 25.7199 24.9928 25.7198 24.9873V22.9886H24.852C23.6937 21.7406 21.493 20.8979 18.9686 20.8979C16.4442 20.8979 14.2435 21.7406 13.0852 22.9886H12.2173V25.2282H12.2272C12.4187 27.3916 15.3637 29.11 18.9686 29.11C22.5735 29.11 25.5185 27.3916 25.71 25.2282H25.7198V25.0206Z"/>
</mask>
<path fill-rule="evenodd" clip-rule="evenodd" d="M25.7198 25.0206C25.7199 25.0151 25.7199 25.0095 25.7199 25.004C25.7199 24.9984 25.7199 24.9928 25.7198 24.9873V22.9886H24.852C23.6937 21.7406 21.493 20.8979 18.9686 20.8979C16.4442 20.8979 14.2435 21.7406 13.0852 22.9886H12.2173V25.2282H12.2272C12.4187 27.3916 15.3637 29.11 18.9686 29.11C22.5735 29.11 25.5185 27.3916 25.71 25.2282H25.7198V25.0206Z" fill="black"/>
<path d="M25.7198 25.0206L25.4198 25.0186V25.0206H25.7198ZM25.7198 24.9873L25.4198 24.9873L25.4198 24.9893L25.7198 24.9873ZM25.7198 22.9886H26.0198V22.6886H25.7198V22.9886ZM24.852 22.9886L24.6321 23.1926L24.7212 23.2886H24.852V22.9886ZM13.0852 22.9886V23.2886H13.2161L13.3051 23.1926L13.0852 22.9886ZM12.2173 22.9886V22.6886H11.9173V22.9886H12.2173ZM12.2173 25.2282H11.9173V25.5282H12.2173V25.2282ZM12.2272 25.2282L12.5261 25.2018L12.5019 24.9282H12.2272V25.2282ZM25.71 25.2282V24.9282H25.4354L25.4112 25.2018L25.71 25.2282ZM25.7198 25.2282V25.5282H26.0198V25.2282H25.7198ZM25.4199 25.004C25.4199 25.0089 25.4199 25.0138 25.4198 25.0186L26.0198 25.0226C26.0199 25.0164 26.0199 25.0102 26.0199 25.004H25.4199ZM25.4198 24.9893C25.4199 24.9942 25.4199 24.9991 25.4199 25.004H26.0199C26.0199 24.9977 26.0199 24.9915 26.0198 24.9853L25.4198 24.9893ZM25.4198 22.9886V24.9873H26.0198V22.9886H25.4198ZM24.852 23.2886H25.7198V22.6886H24.852V23.2886ZM18.9686 21.1979C21.4391 21.1979 23.548 22.0246 24.6321 23.1926L25.0719 22.7845C23.8395 21.4566 21.5468 20.5979 18.9686 20.5979V21.1979ZM13.3051 23.1926C14.3892 22.0246 16.4981 21.1979 18.9686 21.1979V20.5979C16.3904 20.5979 14.0978 21.4566 12.8653 22.7845L13.3051 23.1926ZM12.2173 23.2886H13.0852V22.6886H12.2173V23.2886ZM12.5173 25.2282V22.9886H11.9173V25.2282H12.5173ZM12.2272 24.9282H12.2173V25.5282H12.2272V24.9282ZM18.9686 28.81C17.2107 28.81 15.6266 28.3905 14.468 27.7206C13.3036 27.0474 12.6099 26.1492 12.5261 25.2018L11.9284 25.2546C12.036 26.4706 12.9105 27.5132 14.1677 28.2401C15.4307 28.9703 17.1216 29.41 18.9686 29.41V28.81ZM25.4112 25.2018C25.3273 26.1492 24.6336 27.0474 23.4692 27.7206C22.3106 28.3905 20.7265 28.81 18.9686 28.81V29.41C20.8156 29.41 22.5065 28.9703 23.7695 28.2401C25.0267 27.5132 25.9012 26.4706 26.0088 25.2546L25.4112 25.2018ZM25.7198 24.9282H25.71V25.5282H25.7198V24.9282ZM25.4198 25.0206V25.2282H26.0198V25.0206H25.4198Z" fill="white" mask="url(#path-21-inside-5_564_527)"/>
<path d="M25.5698 22.6319C25.5698 23.6982 24.8614 24.6879 23.6643 25.419C22.4697 26.1484 20.8099 26.6045 18.9686 26.6045C17.1272 26.6045 15.4674 26.1484 14.2729 25.419C13.0757 24.6879 12.3673 23.6982 12.3673 22.6319C12.3673 21.5655 13.0757 20.5758 14.2729 19.8448C15.4674 19.1153 17.1272 18.6593 18.9686 18.6593C20.8099 18.6593 22.4697 19.1153 23.6643 19.8448C24.8614 20.5758 25.5698 21.5655 25.5698 22.6319Z" fill="black" stroke="white" stroke-width="0.3"/>
<circle cx="7.95284" cy="7.95284" r="7.80284" transform="matrix(0.855836 0.517247 -0.855836 0.517247 76.1431 9.73999)" fill="#AEFFC2" stroke="black" stroke-width="0.3"/>
<circle cx="7.95284" cy="7.95284" r="7.80284" transform="matrix(0.855836 0.517247 -0.855836 0.517247 76.1426 9.23071)" fill="#F5F6F6" stroke="black" stroke-width="0.3"/>
<rect width="12.8535" height="2.00145" transform="matrix(0.988677 -0.150062 0.616229 0.787567 69.4395 17.9275)" fill="black"/>
<path d="M80.7921 15.0936C80.7921 18.3406 78.3735 20.951 75.4159 20.951C72.4582 20.951 70.0396 18.3406 70.0396 15.0936C70.0396 11.8466 72.4582 9.23618 75.4159 9.23618C78.3735 9.23618 80.7921 11.8466 80.7921 15.0936Z" fill="black" stroke="white" stroke-width="0.3"/>
<path d="M82.067 15.0936C82.067 18.3406 79.6484 20.951 76.6908 20.951C73.7331 20.951 71.3146 18.3406 71.3146 15.0936C71.3146 11.8466 73.7331 9.23618 76.6908 9.23618C79.6484 9.23618 82.067 11.8466 82.067 15.0936Z" fill="black" stroke="white" stroke-width="0.3"/>
<path fill-rule="evenodd" clip-rule="evenodd" d="M75.8378 13.9015L72.7944 12.6707L72.9568 13.3548L75.4633 14.3474L74.8991 15.0194L75.0148 15.5072L75.821 15.8332L74.039 17.9162L74.2014 18.6004L76.3465 16.0458L79.3899 17.2766L79.2275 16.5924L76.719 15.6022L77.2852 14.9279L77.1694 14.4401L76.3719 14.1175L78.1452 12.0309L77.9829 11.3468L75.8378 13.9015ZM75.9969 14.5587L76.6799 14.8292L76.1955 15.3955L75.5143 15.1266L75.9969 14.5587Z" fill="white"/>
<rect width="12.8535" height="2.00145" transform="matrix(0.988677 -0.150062 0.616229 0.787567 70.6396 19.4983)" fill="#F5F6F6"/>
<rect width="12.8448" height="0.358427" transform="matrix(0.988677 -0.150062 0.616229 0.787567 70.6743 19.4929)" fill="black"/>
<rect width="12.8535" height="2.00145" transform="matrix(0.988677 -0.150062 0.616229 0.787567 70.4937 20.4954)" fill="#F5F6F6"/>
<mask id="path-33-inside-6_564_527" fill="white">
<path fill-rule="evenodd" clip-rule="evenodd" d="M76.1287 44.0223H76.9968V46.262H76.9868C76.7955 48.4255 73.8504 50.1439 70.2454 50.1439C66.6404 50.1439 63.6954 48.4255 63.504 46.262H63.4943V46.0653C63.4942 46.0562 63.4941 46.047 63.4941 46.0379C63.4941 46.0287 63.4942 46.0196 63.4943 46.0105V44.0223H64.3621C65.5205 42.7744 67.7211 41.9319 70.2454 41.9319C72.7697 41.9319 74.9704 42.7744 76.1287 44.0223Z"/>
</mask>
<path fill-rule="evenodd" clip-rule="evenodd" d="M76.1287 44.0223H76.9968V46.262H76.9868C76.7955 48.4255 73.8504 50.1439 70.2454 50.1439C66.6404 50.1439 63.6954 48.4255 63.504 46.262H63.4943V46.0653C63.4942 46.0562 63.4941 46.047 63.4941 46.0379C63.4941 46.0287 63.4942 46.0196 63.4943 46.0105V44.0223H64.3621C65.5205 42.7744 67.7211 41.9319 70.2454 41.9319C72.7697 41.9319 74.9704 42.7744 76.1287 44.0223Z" fill="black"/>
<path d="M76.1287 44.0223L75.9088 44.2264L75.9978 44.3223H76.1287V44.0223ZM76.9968 44.0223H77.2968V43.7223H76.9968V44.0223ZM76.9968 46.262V46.562H77.2968V46.262H76.9968ZM76.9868 46.262V45.962H76.7122L76.688 46.2356L76.9868 46.262ZM63.504 46.262L63.8029 46.2356L63.7787 45.962H63.504V46.262ZM63.4943 46.262H63.1943V46.562H63.4943V46.262ZM63.4943 46.0653H63.7943L63.7943 46.0621L63.4943 46.0653ZM63.4943 46.0105L63.7943 46.0137V46.0105H63.4943ZM63.4943 44.0223V43.7223H63.1943V44.0223H63.4943ZM64.3621 44.0223V44.3223H64.493L64.582 44.2264L64.3621 44.0223ZM76.1287 44.3223H76.9968V43.7223H76.1287V44.3223ZM76.6968 44.0223V46.262H77.2968V44.0223H76.6968ZM76.9968 45.962H76.9868V46.562H76.9968V45.962ZM76.688 46.2356C76.6042 47.183 75.9105 48.0813 74.7461 48.7545C73.5875 49.4244 72.0034 49.8439 70.2454 49.8439V50.4439C72.0925 50.4439 73.7834 50.0042 75.0464 49.274C76.3036 48.5471 77.1781 47.5044 77.2856 46.2884L76.688 46.2356ZM70.2454 49.8439C68.4875 49.8439 66.9033 49.4244 65.7448 48.7545C64.5804 48.0813 63.8867 47.183 63.8029 46.2356L63.2052 46.2884C63.3127 47.5044 64.1872 48.5471 65.4444 49.274C66.7075 50.0042 68.3984 50.4439 70.2454 50.4439V49.8439ZM63.504 45.962H63.4943V46.562H63.504V45.962ZM63.7943 46.262V46.0653H63.1943V46.262H63.7943ZM63.7943 46.0621C63.7942 46.054 63.7941 46.046 63.7941 46.0379H63.1941C63.1941 46.0481 63.1942 46.0583 63.1943 46.0685L63.7943 46.0621ZM63.7941 46.0379C63.7941 46.0298 63.7942 46.0218 63.7943 46.0137L63.1943 46.0072C63.1942 46.0175 63.1941 46.0277 63.1941 46.0379H63.7941ZM63.7943 46.0105V44.0223H63.1943V46.0105H63.7943ZM63.4943 44.3223H64.3621V43.7223H63.4943V44.3223ZM64.582 44.2264C65.6662 43.0584 67.775 42.2319 70.2454 42.2319V41.6319C67.6673 41.6319 65.3747 42.4904 64.1423 43.8183L64.582 44.2264ZM70.2454 42.2319C72.7158 42.2319 74.8247 43.0584 75.9088 44.2264L76.3486 43.8183C75.1161 42.4904 72.8235 41.6319 70.2454 41.6319V42.2319Z" fill="white" mask="url(#path-33-inside-6_564_527)"/>
<path d="M76.8467 43.6656C76.8467 44.7319 76.1383 45.7216 74.9411 46.4527C73.7465 47.1821 72.0867 47.6382 70.2454 47.6382C68.4041 47.6382 66.7443 47.1821 65.5497 46.4527C64.3526 45.7216 63.6441 44.7319 63.6441 43.6656C63.6441 42.5992 64.3526 41.6095 65.5497 40.8785C66.7443 40.149 68.4041 39.693 70.2454 39.693C72.0867 39.693 73.7465 40.149 74.9411 40.8785C76.1383 41.6095 76.8467 42.5992 76.8467 43.6656Z" fill="black" stroke="white" stroke-width="0.3"/>
</svg>
