<svg width="445" height="367" viewBox="0 0 445 367" fill="none" xmlns="http://www.w3.org/2000/svg">
<path d="M116.09 141.932L117.47 148.69L124.243 150.084L117.595 151.631L116.09 158.237L114.46 151.631L107.938 150.084L114.46 148.69L116.09 141.932Z" fill="white"/>
<path d="M169.656 62.248L171.895 73.2159L182.886 75.4781L172.098 77.9884L169.656 88.7081L167.01 77.9884L156.426 75.4781L167.01 73.2159L169.656 62.248Z" fill="white"/>
<path d="M403.105 66.0137L406.23 50.7063L421.57 47.5491L406.514 44.0456L403.105 29.0846L399.412 44.0456L384.641 47.5491L399.412 50.7063L403.105 66.0137Z" fill="white"/>
<path d="M206.796 340.379L209.035 351.347L220.026 353.609L209.239 356.119L206.796 366.839L204.15 356.119L193.566 353.609L204.15 351.347L206.796 340.379Z" fill="white"/>
<rect x="-2.62856e-08" y="0.441" width="203.676" height="203.676" rx="23.079" transform="matrix(0.866025 0.5 -0.866025 0.5 268.202 162.5)" fill="black" stroke="white" stroke-width="0.882"/>
<path d="M104.868 260.395L104.994 206.077H429.589L429.463 260.395H104.868Z" stroke="white" stroke-width="2.94"/>
<mask id="path-7-inside-1_5612_39400" fill="white">
<path d="M103.926 201.713H105.198L105.198 262.152H103.926L103.926 201.713Z"/>
</mask>
<path d="M103.926 201.713V198.773H100.986L100.986 201.713L103.926 201.713ZM105.198 201.713L108.138 201.713L108.138 198.773H105.198V201.713ZM105.198 262.152V265.092H108.138L108.138 262.152L105.198 262.152ZM103.926 262.152L100.986 262.152L100.986 265.092H103.926V262.152ZM103.926 204.653H105.198V198.773H103.926V204.653ZM102.258 201.713L102.258 262.152L108.138 262.152L108.138 201.713L102.258 201.713ZM105.198 259.212H103.926V265.092H105.198V259.212ZM106.866 262.152L106.866 201.713L100.986 201.713L100.986 262.152L106.866 262.152Z" fill="black" mask="url(#path-7-inside-1_5612_39400)"/>
<mask id="path-9-inside-2_5612_39400" fill="white">
<path d="M431.032 204.607H431.818L431.818 263.614H431.031L431.032 204.607Z"/>
</mask>
<path d="M431.032 204.607V201.667H428.092L428.092 204.607L431.032 204.607ZM431.818 204.607L434.758 204.607L434.758 201.667H431.818V204.607ZM431.818 263.614V266.554H434.758L434.758 263.614L431.818 263.614ZM431.031 263.614L428.091 263.614L428.091 266.554H431.031V263.614ZM431.032 207.547H431.818V201.667H431.032V207.547ZM428.878 204.607L428.878 263.614L434.758 263.614L434.758 204.607L428.878 204.607ZM431.818 260.674H431.031V266.554H431.818V260.674ZM433.971 263.614L433.972 204.607L428.092 204.607L428.091 263.614L433.971 263.614Z" fill="black" mask="url(#path-9-inside-2_5612_39400)"/>
<rect x="-2.62856e-08" y="0.441" width="203.676" height="203.676" rx="23.079" transform="matrix(0.866025 0.5 -0.866025 0.5 268.202 102.183)" fill="black" stroke="white" stroke-width="0.882"/>
<rect x="-2.62856e-08" y="0.441" width="168.152" height="168.152" rx="23.079" transform="matrix(0.866025 0.5 -0.866025 0.5 268.026 120.541)" fill="black"/>
<rect x="-2.62856e-08" y="0.441" width="168.152" height="168.152" rx="23.079" transform="matrix(0.866025 0.5 -0.866025 0.5 268.026 120.541)" stroke="black" stroke-width="0.882"/>
<rect x="-2.62856e-08" y="0.441" width="168.152" height="168.152" rx="23.079" transform="matrix(0.866025 0.5 -0.866025 0.5 268.026 120.541)" stroke="black" stroke-width="0.882"/>
<rect x="-2.62856e-08" y="0.441" width="168.152" height="168.152" rx="23.079" transform="matrix(0.866025 0.5 -0.866025 0.5 268.026 120.541)" stroke="black" stroke-width="0.882"/>
<rect x="-2.62856e-08" y="0.441" width="155.313" height="155.313" rx="11.319" transform="matrix(0.866025 0.5 -0.866025 0.5 268.026 133.379)" fill="black" stroke="white" stroke-width="0.882"/>
<rect x="265.689" y="136.253" width="0.39338" height="75.6601" stroke="black" stroke-width="0.39338"/>
<mask id="path-15-inside-3_5612_39400" fill="white">
<path d="M265.492 211.75L265.89 211.071L334.264 251.374L332.771 251.211L265.492 211.75Z"/>
</mask>
<path d="M265.492 211.75L262.956 210.263L261.469 212.799L264.005 214.286L265.492 211.75ZM265.89 211.071L267.383 208.539L264.845 207.042L263.354 209.584L265.89 211.071ZM334.264 251.374L333.945 254.296L335.757 248.841L334.264 251.374ZM332.771 251.211L331.284 253.747L331.827 254.065L332.452 254.133L332.771 251.211ZM268.028 213.237L268.426 212.559L263.354 209.584L262.956 210.263L268.028 213.237ZM264.397 213.604L332.771 253.906L335.757 248.841L267.383 208.539L264.397 213.604ZM334.583 248.451L333.091 248.288L332.452 254.133L333.945 254.296L334.583 248.451ZM334.259 248.675L266.98 209.214L264.005 214.286L331.284 253.747L334.259 248.675Z" fill="black" mask="url(#path-15-inside-3_5612_39400)"/>
<mask id="path-17-inside-4_5612_39400" fill="white">
<path d="M266.395 212.406L265.996 211.728L200.645 250.479L201.415 250.479L266.395 212.406Z"/>
</mask>
<path d="M266.395 212.406L268.931 210.919L270.419 213.456L267.881 214.943L266.395 212.406ZM265.996 211.728L264.497 209.199L267.038 207.692L268.532 210.24L265.996 211.728ZM200.645 250.479L200.645 253.419L189.923 253.419L199.146 247.95L200.645 250.479ZM201.415 250.479L202.901 253.016L202.213 253.419L201.415 253.419L201.415 250.479ZM263.859 213.894L263.461 213.215L268.532 210.24L268.931 210.919L263.859 213.894ZM267.496 214.256L202.145 253.008L199.146 247.95L264.497 209.199L267.496 214.256ZM200.645 247.539L201.415 247.539L201.415 253.419L200.645 253.419L200.645 247.539ZM199.929 247.942L264.908 209.87L267.881 214.943L202.901 253.016L199.929 247.942Z" fill="black" mask="url(#path-17-inside-4_5612_39400)"/>
<path d="M278.521 202.197H263.021C262.725 202.197 262.449 202.345 262.286 202.592L244.459 229.474C244.07 230.06 244.491 230.843 245.194 230.843H256.688C257.256 230.843 257.675 231.372 257.547 231.925L252.249 254.694C252.042 255.584 253.157 256.163 253.766 255.481L283.399 222.287C283.906 221.718 283.503 220.817 282.741 220.817H271.903C271.244 220.817 270.818 220.121 271.117 219.534L279.307 203.48C279.607 202.893 279.18 202.197 278.521 202.197Z" fill="black" stroke="white" stroke-width="1.764"/>
<rect x="1.27306" y="2.205" width="112.452" height="17.0289" rx="8.51447" transform="matrix(0.866025 0.5 -2.20305e-08 1 131.913 243.953)" stroke="black" stroke-width="2.94"/>
<rect x="0.381917" y="0.6615" width="117.219" height="17.4757" rx="8.73787" transform="matrix(0.866025 0.5 -2.20305e-08 1 129.172 246.01)" fill="black" stroke="white" stroke-width="0.882"/>
<rect x="1.27306" y="0.735" width="115.48" height="16.1935" rx="8.09677" transform="matrix(0.866025 -0.5 2.20305e-08 1 310.249 300.803)" stroke="black" stroke-width="2.94"/>
<rect x="0.381917" y="0.2205" width="114.51" height="17.4757" rx="8.73787" transform="matrix(0.866025 -0.5 2.20305e-08 1 312.746 301.466)" fill="black" stroke="white" stroke-width="0.882"/>
<path d="M367.613 181.747C336.33 216.799 284.62 221.571 252.121 192.567C219.623 163.563 218.506 111.645 249.789 76.5926C281.072 41.5404 332.782 36.7688 365.281 65.7728C397.779 94.7768 398.896 146.695 367.613 181.747Z" fill="black" stroke="white" stroke-width="1.5"/>
<path fill-rule="evenodd" clip-rule="evenodd" d="M242.762 183.207L241.438 177.401L325.45 155.813L336.583 204.636C308.065 216.994 274.957 213.426 251.615 192.594C248.35 189.68 245.398 186.538 242.762 183.207Z" fill="white"/>
<path d="M356.937 169.77C325.654 204.823 273.944 209.594 241.445 180.59C208.947 151.586 207.83 99.6682 239.113 64.616C270.396 29.5639 322.106 24.7923 354.605 53.7963C387.104 82.8003 388.22 134.718 356.937 169.77Z" fill="black" stroke="white" stroke-width="1.5"/>
<path fill-rule="evenodd" clip-rule="evenodd" d="M305.269 104.012L285.996 64.1621L281.453 72.5793L297.518 105.186L285.837 106.954L282.597 112.956L287.703 123.512L251.165 128.699L246.622 137.118L291.031 130.393L310.305 170.243L314.848 161.825L298.743 129.226L310.464 127.451L313.703 121.449L308.652 111.006L345.137 105.704L349.679 97.2874L305.269 104.012ZM300.938 112.127L305.315 121.012L295.381 122.422L291.008 113.57L300.938 112.127Z" fill="white"/>
<path d="M223.092 296.03C223.092 305.252 217.485 313.654 208.31 319.771C199.137 325.886 186.44 329.682 172.393 329.682C158.346 329.682 145.649 325.886 136.477 319.771C127.301 313.654 121.695 305.252 121.695 296.03C121.695 286.809 127.301 278.407 136.477 272.29C145.649 266.175 158.346 262.378 172.393 262.378C186.44 262.378 199.137 266.175 208.31 272.29C217.485 278.407 223.092 286.809 223.092 296.03Z" fill="black" stroke="white" stroke-width="0.882"/>
<mask id="mask0_5612_39400" style="mask-type:alpha" maskUnits="userSpaceOnUse" x="121" y="261" width="103" height="70">
<path d="M223.092 296.028C223.092 305.25 217.485 313.652 208.31 319.769C199.137 325.884 186.44 329.68 172.393 329.68C158.346 329.68 145.649 325.884 136.477 319.769C127.301 313.652 121.695 305.25 121.695 296.028C121.695 286.807 127.301 278.405 136.477 272.288C145.649 266.173 158.346 262.377 172.393 262.377C186.44 262.377 199.137 266.173 208.31 272.288C217.485 278.405 223.092 286.807 223.092 296.028Z" fill="white" stroke="black" stroke-width="0.882"/>
</mask>
<g mask="url(#mask0_5612_39400)">
<rect x="108.141" y="280.293" width="52.4507" height="55.0732" fill="white"/>
</g>
<path d="M223.092 280.294C223.092 289.515 217.485 297.917 208.31 304.035C199.137 310.15 186.44 313.946 172.393 313.946C158.346 313.946 145.649 310.15 136.477 304.035C127.301 297.917 121.695 289.515 121.695 280.294C121.695 271.073 127.301 262.671 136.477 256.554C145.649 250.439 158.346 246.642 172.393 246.642C186.44 246.642 199.137 250.439 208.31 256.554C217.485 262.671 223.092 271.073 223.092 280.294Z" fill="black" stroke="white" stroke-width="0.882"/>
<path fill-rule="evenodd" clip-rule="evenodd" d="M198.745 288.847C194.426 290.573 190.323 290.699 186.425 289.218C187.29 291.089 187.165 292.738 186.062 294.164C184.96 295.585 182.583 296.769 178.924 297.713C177.23 298.162 175.422 298.443 173.575 298.545C171.882 298.624 170.338 298.535 168.939 298.267C167.54 298 166.159 297.556 164.797 296.932C163.432 296.306 162.187 295.591 161.067 294.787C159.804 293.868 158.642 292.904 157.587 291.9L148.003 294.998L144.922 291.751L154.351 288.697C153.283 287.573 152.482 286.712 151.945 286.111L142.476 289.175L139.39 285.926L148.97 282.826C148.588 282.451 148.165 282.091 147.702 281.749C147.095 281.282 146.665 280.917 146.408 280.648L142.402 276.427L149.9 274.857L152.124 277.201C152.792 277.902 153.817 278.103 155.203 277.802L170.307 272.919L170.63 273.255C170.551 273.134 170.454 273.018 170.342 272.906L181.128 269.417C182.659 268.684 182.916 267.78 181.9 266.712L179.675 264.371L185.837 262.379L190.047 266.863C190.901 267.763 191.562 268.44 192.029 268.897L201.499 265.833L204.588 269.084L195.305 272.085C196.448 273.223 197.288 274.075 197.823 274.637L207.03 271.658L210.115 274.907L200.646 277.971C201.525 279.14 202.18 280.216 202.608 281.199C203.032 282.18 203.224 283.16 203.181 284.129C203.135 285.1 202.707 285.996 201.903 286.816C201.094 287.638 199.906 288.361 198.333 288.979L198.749 288.845L198.745 288.847ZM173.96 290.935C174.857 290.642 175.559 290.278 176.061 289.84C176.54 289.434 176.877 288.979 177.052 288.5C177.209 287.974 177.206 287.438 177.044 286.915C176.904 286.372 176.697 285.836 176.425 285.311C176.108 284.739 175.726 284.18 175.283 283.637C174.521 282.658 173.651 281.709 172.68 280.796L171.689 279.807L158.991 283.914C159.1 284.027 159.285 284.308 159.543 284.756C159.807 285.204 160.066 285.561 160.323 285.83C161.076 286.613 161.89 287.376 162.762 288.116C163.15 288.439 163.637 288.808 164.22 289.215C164.806 289.624 165.355 289.957 165.861 290.217C166.368 290.476 166.953 290.722 167.599 290.962C168.252 291.202 168.896 291.358 169.52 291.431C170.15 291.504 170.811 291.515 171.518 291.462C172.257 291.401 172.97 291.258 173.62 291.042L173.957 290.933L173.96 290.935ZM192.37 282.676C191.897 283.06 191.246 283.382 190.421 283.65L190.087 283.761C189.495 283.952 188.793 284.095 187.985 284.19C187.181 284.287 186.51 284.253 185.999 284.087C185.436 283.911 184.85 283.76 184.246 283.636C183.553 283.481 182.968 283.202 182.576 282.838C182.178 282.481 181.691 282.159 181.131 281.883C180.553 281.584 180.105 281.21 179.823 280.791C179.574 280.412 179.208 280.062 178.742 279.76C178.31 279.478 177.993 279.143 177.815 278.779C177.669 278.511 177.5 278.247 177.309 277.989L188.848 274.257C189.05 274.32 189.375 274.578 189.825 275.029C190.268 275.484 190.648 275.861 190.943 276.157C191.246 276.456 191.596 276.875 192.009 277.413C192.423 277.95 192.737 278.415 192.942 278.807C193.153 279.2 193.314 279.654 193.428 280.169C193.542 280.684 193.51 281.135 193.337 281.521C193.163 281.908 192.843 282.293 192.37 282.676Z" fill="white"/>
<path d="M321.01 290.786C321.01 300.007 326.616 308.41 335.792 314.527C344.964 320.642 357.661 324.438 371.708 324.438C385.755 324.438 398.452 320.642 407.625 314.527C416.8 308.41 422.407 300.007 422.407 290.786C422.407 281.565 416.8 273.163 407.625 267.046C398.452 260.931 385.755 257.134 371.708 257.134C357.661 257.134 344.964 260.931 335.792 267.046C326.616 273.163 321.01 281.565 321.01 290.786Z" fill="black" stroke="white" stroke-width="0.882"/>
<mask id="mask1_5612_39400" style="mask-type:alpha" maskUnits="userSpaceOnUse" x="320" y="256" width="103" height="69">
<path d="M321.01 290.784C321.01 300.006 326.616 308.408 335.792 314.525C344.964 320.64 357.661 324.436 371.708 324.436C385.755 324.436 398.452 320.64 407.625 314.525C416.8 308.408 422.407 300.006 422.407 290.784C422.407 281.563 416.8 273.161 407.625 267.044C398.452 260.929 385.755 257.132 371.708 257.132C357.661 257.132 344.964 260.929 335.792 267.044C326.616 273.161 321.01 281.563 321.01 290.784Z" fill="white" stroke="white" stroke-width="0.882"/>
</mask>
<g mask="url(#mask1_5612_39400)">
<rect width="52.4507" height="55.0732" transform="matrix(-1 0 0 1 435.961 275.049)" fill="white"/>
</g>
<path d="M321.01 275.05C321.01 284.271 326.616 292.673 335.792 298.79C344.964 304.905 357.661 308.702 371.708 308.702C385.755 308.702 398.452 304.905 407.625 298.79C416.8 292.673 422.407 284.271 422.407 275.05C422.407 265.829 416.8 257.427 407.625 251.31C398.452 245.195 385.755 241.398 371.708 241.398C357.661 241.398 344.964 245.195 335.792 251.31C326.616 257.427 321.01 265.829 321.01 275.05Z" fill="black" stroke="white" stroke-width="0.882"/>
<path d="M345.356 258.494L365.695 270.236C365.781 270.286 365.781 270.386 365.695 270.436C365.354 270.937 365.098 271.387 364.755 271.887C364.326 272.536 363.812 273.237 363.472 273.938L361.93 276.338L360.648 278.289L359.108 280.69C358.681 281.341 358.252 281.99 357.826 282.741C357.483 283.241 357.142 283.842 356.799 284.342C356.713 284.391 356.799 284.441 356.627 284.441L356.54 284.491C356.363 284.089 356.271 283.738 356.096 283.337C355.119 281.178 354.231 278.971 353.255 276.812C352.194 274.505 351.214 272.145 350.151 269.836C349.177 267.678 348.203 265.521 347.314 263.413C346.602 261.805 345.982 260.251 345.183 258.693C345.356 258.593 345.27 258.543 345.356 258.494C345.356 258.494 345.27 258.543 345.356 258.494Z" fill="white"/>
<path d="M390.213 265.051C389.791 266.303 389.194 267.553 388.683 268.754C386.986 272.659 385.287 276.463 383.587 280.367C383.501 280.416 383.587 280.466 383.501 280.516C383.414 280.566 383.328 280.516 383.328 280.516L365.782 270.386C365.695 270.336 365.782 270.286 365.868 270.236C366.386 270.137 366.909 270.04 367.513 269.89C369.075 269.595 370.634 269.199 372.193 268.903C373.579 268.607 374.879 268.361 376.177 268.013C377.563 267.717 378.863 267.47 380.249 267.174C381.377 266.928 382.588 266.63 383.802 266.434C384.929 266.187 386.28 265.529 387.494 265.332C388.359 265.134 389.097 265.332 389.097 265.332C389.097 265.332 390.126 265.101 390.213 265.051Z" fill="white"/>
<path d="M400.611 290.393C400.524 290.443 400.611 290.393 400.611 290.393C400.524 290.443 400.524 290.443 400.349 290.442C396.18 290.028 392.181 289.614 388.01 289.2L375.498 287.958C371.502 287.545 367.42 287.182 363.332 286.716L360.204 286.405C360.118 286.355 360.032 286.405 359.945 286.355C360.032 286.306 360.118 286.355 360.204 286.306C363.932 285.766 367.745 285.176 371.473 284.636C375.809 284.05 380.143 283.362 384.478 282.774C385.171 282.675 385.95 282.527 386.643 282.429C386.73 282.379 386.819 282.43 386.905 282.48L400.611 290.393Z" fill="white"/>
<path d="M356.69 284.509C356.603 284.46 356.603 284.46 356.69 284.509C357.116 283.759 357.462 282.249 357.888 281.499L358.85 278.628C359.277 277.877 359.867 277.158 360.293 276.407C360.89 275.356 361.3 274.681 361.897 273.63C362.41 272.929 362.985 271.552 363.5 270.853C363.843 270.353 365.331 270.955 365.585 270.404C364.302 269.464 365.845 269.499 365.671 270.255L383.477 280.534C383.479 280.636 383.39 280.584 383.304 280.634C382.872 280.684 382.525 280.782 382.177 280.781L356.951 284.461C356.776 284.46 356.69 284.509 356.69 284.509ZM393.334 267.084C393.42 267.134 393.42 267.134 393.42 267.234C395.571 274.258 397.634 281.231 399.785 288.255C400.051 289.007 400.231 289.709 400.5 290.463L386.619 282.449C387.044 281.398 387.468 280.347 387.981 279.347L393.334 267.184C393.248 267.134 393.334 267.084 393.334 267.084Z" fill="white"/>
<path d="M365.783 270.287L345.449 258.547L389.783 265.001C389.955 265.001 390.128 265.001 390.217 265.053C389.699 265.152 389.176 265.249 388.571 265.399C387.965 265.547 387.271 265.645 386.665 265.793C386.319 265.893 385.885 265.941 385.451 266.089C384.846 266.239 384.064 266.386 383.46 266.535C383.112 266.634 382.681 266.683 382.333 266.782L379.735 267.376C379.215 267.474 378.869 267.574 378.349 267.672C377.742 267.82 377.049 267.918 376.442 268.066C376.097 268.166 375.663 268.214 375.317 268.314L372.717 268.907C372.199 269.006 371.851 269.105 371.331 269.203C370.727 269.352 370.031 269.449 369.424 269.597C368.992 269.647 368.558 269.795 368.127 269.845L365.786 270.288L365.783 270.287Z" fill="white"/>
<rect x="0.381917" y="-0.2205" width="117.219" height="16.4172" transform="matrix(0.866025 0.5 2.20305e-08 -1 129.172 243.057)" fill="black" stroke="white" stroke-width="0.882"/>
<rect x="0.381917" y="-0.2205" width="117.219" height="15.4314" rx="3.559" transform="matrix(0.866025 0.5 2.20305e-08 -1 134.418 228.255)" fill="#0D0D0D" stroke="white" stroke-width="0.882"/>
<mask id="path-44-inside-5_5612_39400" fill="white">
<path d="M133.691 229.029L236.643 288.468L236.643 287.682L133.691 228.243L133.691 229.029Z"/>
</mask>
<path d="M133.691 229.029L133.691 229.911L132.927 229.47L132.927 228.588L133.691 229.029ZM236.643 288.468L237.407 288.909L237.407 289.791L236.643 289.35L236.643 288.468ZM236.643 287.682L236.643 286.8L237.407 287.241L237.407 288.123L236.643 287.682ZM133.691 228.243L132.927 227.802L132.927 226.92L133.691 227.361L133.691 228.243ZM133.691 228.147L236.643 287.586L236.643 289.35L133.691 229.911L133.691 228.147ZM235.879 288.027L235.879 287.241L237.407 288.123L237.407 288.909L235.879 288.027ZM236.643 288.564L133.691 229.125L133.691 227.361L236.643 286.8L236.643 288.564ZM134.455 228.684L134.455 229.47L132.927 228.588L132.927 227.802L134.455 228.684Z" fill="black" mask="url(#path-44-inside-5_5612_39400)"/>
<rect x="0.381917" y="-0.2205" width="99.05" height="2.84472" transform="matrix(0.866025 0.5 2.20305e-08 -1 139.661 252.731)" fill="black" stroke="white" stroke-width="0.882"/>
<path d="M409.35 225.292L409.35 242.301L307.835 300.911L307.835 283.141L409.35 225.292Z" fill="black" stroke="white" stroke-width="0.882"/>
<rect x="0.381917" y="0.2205" width="117.219" height="15.4314" rx="4.559" transform="matrix(0.866025 -0.5 2.20305e-08 1 299.633 271.349)" fill="black" stroke="white" stroke-width="0.882"/>
<path d="M295.358 290.127L397.546 231.129L397.546 231.154L295.358 290.153L295.358 290.127Z" stroke="white" stroke-width="0.882"/>
<path d="M318.592 298.194L319.511 295.01L403.012 246.956L403.981 248.894L318.592 298.194Z" stroke="black" stroke-width="0.882"/>
<path d="M9.53765 242.032C14.4272 256.134 28.9998 263.837 42.0524 259.312C55.105 254.786 61.7811 239.715 56.8915 225.613C52.002 211.511 37.4293 203.807 24.3768 208.333C11.3242 212.859 4.64808 227.93 9.53765 242.032Z" fill="black" stroke="white" stroke-width="0.75"/>
<path fill-rule="evenodd" clip-rule="evenodd" d="M46.0079 257.834L47.1091 256.289L25.0151 239.618L15.7411 252.634C22.6238 259.773 32.8119 262.785 42.2432 259.515C43.5644 259.057 44.821 258.493 46.0079 257.834Z" fill="white"/>
<path d="M14.1548 239.815C19.0444 253.917 33.617 261.62 46.6696 257.095C59.7222 252.569 66.3983 237.498 61.5087 223.396C56.6192 209.294 42.0465 201.591 28.9939 206.116C15.9413 210.642 9.26527 225.713 14.1548 239.815Z" fill="black" stroke="white" stroke-width="0.75"/>
<path d="M45.9468 222.632C44.5055 219.129 41.124 218.876 37.2845 219.73L35.7493 214.789L32.9137 215.74L34.4049 220.508C33.6652 220.745 32.9196 221.001 32.1799 221.256L30.6828 216.488L27.9265 217.412L29.45 222.236C28.8629 222.438 28.2876 222.635 27.724 222.817L27.7181 222.802L24.0195 223.985L25.0029 227.051C25.0029 227.051 26.9637 226.399 26.9432 226.446C28.0351 226.109 28.6075 226.678 28.8981 227.233L30.6124 232.626C30.6887 232.605 30.7885 232.579 30.9059 232.564C30.8149 232.59 30.7181 232.617 30.6183 232.646L32.9989 240.137C33.0664 240.513 33.0458 241.143 32.2797 241.346C32.3237 241.369 30.3247 241.859 30.3247 241.859L30.8648 245.348L34.3726 244.462C35.0331 244.295 35.6877 244.142 36.3334 243.984L37.8246 248.693L40.5985 248.033L39.1221 243.335C39.8941 243.156 40.6426 242.974 41.3764 242.789L42.8471 247.496L45.7002 246.815L44.2061 242.006C49.0143 240.483 52.1375 238.33 51.1366 233.479C50.3264 229.545 48.0074 228.339 44.9693 228.465C46.4047 227.077 47.0036 225.188 45.9468 222.632ZM45.0926 234.483C46.2257 238.151 39.9939 239.342 38.0917 239.844L36.0927 233.477C37.9919 232.94 43.9067 230.639 45.0926 234.483ZM40.8892 225.634C41.9283 228.999 36.7503 230.082 35.1681 230.542L33.3306 224.698C34.9127 224.211 39.7972 222.107 40.8892 225.634Z" fill="white" stroke="black" stroke-width="0.049497" stroke-miterlimit="10"/>
</svg>
