<svg width="238" height="245" viewBox="0 0 238 245" fill="none" xmlns="http://www.w3.org/2000/svg">
<g id="Group 2056">
<path id="Polygon 2" d="M17.848 84.4688L20.5015 97.4677L33.528 100.149L20.7427 103.124L17.848 115.829L14.712 103.124L2.16797 100.149L14.712 97.4677L17.848 84.4688Z" fill="black"/>
<path id="Polygon 4" d="M53.5583 41.5918L55.0509 48.9037L62.3783 50.4118L55.1866 52.0853L53.5583 59.2318L51.7943 52.0853L44.7383 50.4118L51.7943 48.9037L53.5583 41.5918Z" fill="black"/>
<path id="Polygon 5" d="M209.19 13.1719L212.341 28.6082L227.81 31.7919L212.628 35.3249L209.19 50.4119L205.466 35.3249L190.57 31.7919L205.466 28.6082L209.19 13.1719Z" fill="black"/>
<path id="Polygon 3" d="M78.32 227.012L79.8126 234.324L87.14 235.832L79.9483 237.505L78.32 244.652L76.556 237.505L69.5 235.832L76.556 234.324L78.32 227.012Z" fill="black"/>
<g id="Group 2055">
<rect id="Rectangle 146" x="-1.75238e-08" y="0.294" width="135.784" height="135.784" rx="15.386" transform="matrix(0.866025 0.5 -0.866025 0.5 119.255 108.426)" fill="white" stroke="black" stroke-width="0.588"/>
<path id="Rectangle 161" d="M9.47166 136.498H227.828L227.739 174.67H9.38281L9.47166 136.498Z" fill="white"/>
<path id="Rectangle 147" d="M9.73863 134.568H10.5865L10.5862 174.861H9.73828L9.73863 134.568Z" fill="black"/>
<path id="Rectangle 148" d="M227.809 136.498H228.333L228.333 175.836H227.809L227.809 136.498Z" fill="black"/>
<rect id="Rectangle 140" x="-1.75238e-08" y="0.294" width="135.784" height="135.784" rx="15.386" transform="matrix(0.866025 0.5 -0.866025 0.5 119.255 68.2154)" fill="white" stroke="black" stroke-width="0.588"/>
<g id="Rectangle 141">
<rect x="-1.75238e-08" y="0.294" width="112.101" height="112.101" rx="15.386" transform="matrix(0.866025 0.5 -0.866025 0.5 119.137 80.4536)" fill="black"/>
<rect x="-1.75238e-08" y="0.294" width="112.101" height="112.101" rx="15.386" transform="matrix(0.866025 0.5 -0.866025 0.5 119.137 80.4536)" fill="black"/>
<rect x="-1.75238e-08" y="0.294" width="112.101" height="112.101" rx="15.386" transform="matrix(0.866025 0.5 -0.866025 0.5 119.137 80.4536)" fill="black"/>
<rect x="-1.75238e-08" y="0.294" width="112.101" height="112.101" rx="15.386" transform="matrix(0.866025 0.5 -0.866025 0.5 119.137 80.4536)" stroke="black" stroke-width="0.588"/>
</g>
<rect id="Rectangle 142" x="-1.75238e-08" y="0.294" width="103.542" height="103.542" rx="7.546" transform="matrix(0.866025 0.5 -0.866025 0.5 119.137 89.0122)" fill="white" stroke="black" stroke-width="0.588"/>
<rect id="Rectangle 143" x="117.449" y="90.7969" width="0.524507" height="50.7023" fill="black"/>
<path id="Rectangle 144" d="M117.449 141.26L117.715 140.807L163.297 167.676L162.302 167.567L117.449 141.26Z" fill="black"/>
<path id="Rectangle 145" d="M118.051 141.697L117.785 141.245L74.2179 167.079L74.7311 167.079L118.051 141.697Z" fill="black"/>
<path id="Vector 1" d="M126.134 134.891H115.801C115.603 134.891 115.419 134.989 115.31 135.154L103.426 153.075C103.167 153.466 103.447 153.988 103.916 153.988H111.578C111.957 153.988 112.237 154.341 112.151 154.709L108.619 169.888C108.481 170.482 109.225 170.868 109.63 170.413L129.386 148.284C129.724 147.905 129.455 147.304 128.947 147.304H121.722C121.283 147.304 120.999 146.84 121.198 146.449L126.658 135.746C126.857 135.355 126.573 134.891 126.134 134.891Z" fill="white" stroke="black" stroke-width="1.176"/>
<rect id="Rectangle 149" width="76.9277" height="13.3126" rx="6.65631" transform="matrix(0.866025 0.5 -2.20305e-08 1 28.2812 163.152)" fill="black"/>
<rect id="Rectangle 151" x="0.254611" y="0.441" width="78.1463" height="11.6505" rx="5.82525" transform="matrix(0.866025 0.5 -2.20305e-08 1 26.5693 164.099)" fill="white" stroke="black" stroke-width="0.588"/>
<rect id="Rectangle 150" width="78.9465" height="12.7557" rx="6.37785" transform="matrix(0.866025 -0.5 2.20305e-08 1 147.172 200.203)" fill="black"/>
<rect id="Rectangle 152" x="0.254611" y="0.147" width="76.3397" height="11.6505" rx="5.82525" transform="matrix(0.866025 -0.5 2.20305e-08 1 148.952 201.071)" fill="white" stroke="black" stroke-width="0.588"/>
<g id="Group 2008">
<path id="Ellipse 892" d="M185.53 121.257C164.674 144.625 130.201 147.806 108.535 128.47C86.8695 109.134 86.1251 74.5223 106.98 51.1542C127.836 27.7861 162.309 24.605 183.975 43.941C205.641 63.277 206.385 97.8889 185.53 121.257Z" fill="white" stroke="black"/>
<path id="Intersect" fill-rule="evenodd" clip-rule="evenodd" d="M102.295 122.229L101.413 118.36L157.421 103.968L164.844 136.519C145.832 144.757 123.761 142.378 108.2 128.491C106.022 126.547 104.054 124.451 102.295 122.229Z" fill="black"/>
<path id="Ellipse 891" d="M178.413 113.273C157.557 136.641 123.084 139.822 101.418 120.486C79.7523 101.15 79.0079 66.5379 99.8632 43.1698C120.719 19.8017 155.192 16.6206 176.858 35.9566C198.523 55.2926 199.268 89.9046 178.413 113.273Z" fill="white" stroke="black"/>
<path id="Union" fill-rule="evenodd" clip-rule="evenodd" d="M143.966 69.4337L131.117 42.8672L128.089 48.4787L138.798 70.2162L131.011 71.3954L128.851 75.3964L132.255 82.4338L107.896 85.8921L104.867 91.5043L134.474 87.0213L147.323 113.588L150.352 107.976L139.615 86.2429L147.429 85.0597L149.588 81.0586L146.221 74.0964L170.544 70.5618L173.573 64.9507L143.966 69.4337ZM141.078 74.8438L143.996 80.7668L137.374 81.707L134.459 75.8057L141.078 74.8438Z" fill="black"/>
</g>
<g id="Group 2053">
<path id="Ellipse 928" d="M89.181 197.445C89.181 203.593 85.4433 209.194 79.3263 213.272C73.2113 217.349 64.7466 219.88 55.382 219.88C46.0175 219.88 37.5527 217.349 31.4377 213.272C25.3207 209.194 21.5831 203.593 21.5831 197.445C21.5831 191.298 25.3207 185.697 31.4377 181.618C37.5527 177.542 46.0175 175.011 55.382 175.011C64.7466 175.011 73.2113 177.542 79.3263 181.618C85.4433 185.697 89.181 191.298 89.181 197.445Z" fill="white" stroke="black" stroke-width="0.588"/>
<g id="Mask group">
<mask id="mask0_5608_24502" style="mask-type:alpha" maskUnits="userSpaceOnUse" x="21" y="174" width="69" height="47">
<path id="Ellipse 930" d="M89.181 197.445C89.181 203.593 85.4433 209.194 79.3263 213.272C73.2113 217.349 64.7466 219.88 55.382 219.88C46.0175 219.88 37.5527 217.349 31.4377 213.272C25.3207 209.194 21.5831 203.593 21.5831 197.445C21.5831 191.298 25.3207 185.697 31.4377 181.618C37.5527 177.542 46.0175 175.011 55.382 175.011C64.7466 175.011 73.2113 177.542 79.3263 181.618C85.4433 185.697 89.181 191.298 89.181 197.445Z" fill="white" stroke="black" stroke-width="0.588"/>
</mask>
<g mask="url(#mask0_5608_24502)">
<rect id="Rectangle 154" x="12.5469" y="186.955" width="34.9671" height="36.7155" fill="black"/>
</g>
</g>
<path id="Ellipse 929" d="M89.181 186.955C89.181 193.103 85.4433 198.704 79.3263 202.782C73.2113 206.859 64.7466 209.39 55.382 209.39C46.0175 209.39 37.5527 206.859 31.4377 202.782C25.3207 198.704 21.5831 193.103 21.5831 186.955C21.5831 180.808 25.3207 175.206 31.4377 171.128C37.5527 167.052 46.0175 164.521 55.382 164.521C64.7466 164.521 73.2113 167.052 79.3263 171.128C85.4433 175.206 89.181 180.808 89.181 186.955Z" fill="white" stroke="black" stroke-width="0.588"/>
<path id="Vector" fill-rule="evenodd" clip-rule="evenodd" d="M72.9501 192.657C70.0702 193.808 67.3348 193.892 64.7367 192.904C65.313 194.152 65.23 195.251 64.4947 196.201C63.7596 197.149 62.1748 197.939 59.7359 198.568C58.6066 198.867 57.4009 199.055 56.17 199.123C55.0413 199.175 54.0118 199.115 53.0793 198.937C52.1468 198.759 51.2255 198.463 50.318 198.047C49.408 197.63 48.5775 197.153 47.8312 196.617C46.989 196.004 46.2142 195.362 45.5112 194.693L39.1221 196.758L37.0675 194.593L43.3539 192.557C42.6417 191.808 42.1077 191.234 41.7496 190.833L35.4369 192.876L33.3799 190.71L39.7668 188.643C39.512 188.393 39.2295 188.153 38.9208 187.925C38.5162 187.614 38.2295 187.37 38.0585 187.191L35.3877 184.377L40.3863 183.33L41.8692 184.893C42.3144 185.361 42.9977 185.495 43.9216 185.294L53.9908 182.038L54.2064 182.263C54.1535 182.182 54.0894 182.104 54.0147 182.03L61.205 179.704C62.226 179.215 62.3968 178.613 61.7198 177.9L60.2368 176.34L64.3448 175.012L67.1509 178.001C67.7202 178.601 68.1608 179.052 68.4728 179.357L74.7855 177.314L76.8448 179.482L70.6565 181.483C71.4185 182.241 71.9788 182.809 72.3349 183.183L78.473 181.198L80.53 183.364L74.2173 185.407C74.8029 186.185 75.2396 186.903 75.5249 187.558C75.8078 188.212 75.9361 188.866 75.9074 189.512C75.8763 190.159 75.5913 190.757 75.0549 191.303C74.516 191.851 73.7236 192.333 72.6751 192.745L72.9525 192.656L72.9501 192.657ZM56.4267 194.049C57.0245 193.854 57.4921 193.611 57.8273 193.319C58.1467 193.049 58.3712 192.745 58.4879 192.426C58.5923 192.075 58.5904 191.718 58.4822 191.369C58.389 191.007 58.2512 190.65 58.0699 190.3C57.8581 189.918 57.6038 189.546 57.3084 189.184C56.8002 188.531 56.2207 187.899 55.5734 187.29L54.9122 186.631L46.4474 189.368C46.5201 189.444 46.6434 189.631 46.815 189.93C46.9914 190.228 47.1639 190.467 47.335 190.646C47.8374 191.168 48.38 191.676 48.9613 192.17C49.2198 192.385 49.5446 192.631 49.9331 192.902C50.3241 193.175 50.6896 193.397 51.0273 193.57C51.365 193.743 51.7552 193.907 52.1859 194.067C52.6214 194.227 53.0505 194.331 53.4662 194.38C53.8867 194.428 54.3268 194.436 54.7985 194.401C55.291 194.36 55.7668 194.265 56.1995 194.12L56.4243 194.048L56.4267 194.049ZM68.6997 188.543C68.3841 188.799 67.9502 189.014 67.4002 189.193L67.1778 189.267C66.7833 189.394 66.3154 189.489 65.7767 189.552C65.2403 189.617 64.7933 189.594 64.4523 189.483C64.0769 189.366 63.6862 189.266 63.2836 189.183C62.8218 189.08 62.4318 188.894 62.1708 188.651C61.905 188.413 61.5804 188.198 61.207 188.014C60.8215 187.815 60.523 187.566 60.335 187.287C60.1693 187.033 59.9253 186.801 59.6148 186.599C59.3264 186.411 59.1152 186.188 58.9963 185.945C58.899 185.766 58.7864 185.59 58.6591 185.418L66.3515 182.93C66.4865 182.972 66.7029 183.144 67.003 183.445C67.2983 183.748 67.5515 184 67.7485 184.197C67.9502 184.396 68.184 184.676 68.4594 185.034C68.7348 185.393 68.9444 185.702 69.0809 185.964C69.2221 186.226 69.3294 186.529 69.4052 186.872C69.481 187.215 69.4598 187.516 69.3442 187.773C69.2285 188.031 69.0152 188.287 68.6997 188.543Z" fill="black"/>
</g>
<g id="Group 2054">
<path id="Ellipse 928_2" d="M154.46 193.949C154.46 200.097 158.197 205.698 164.314 209.776C170.429 213.853 178.894 216.384 188.259 216.384C197.623 216.384 206.088 213.853 212.203 209.776C218.32 205.698 222.058 200.097 222.058 193.949C222.058 187.802 218.32 182.2 212.203 178.122C206.088 174.046 197.623 171.515 188.259 171.515C178.894 171.515 170.429 174.046 164.314 178.122C158.197 182.2 154.46 187.802 154.46 193.949Z" fill="white" stroke="black" stroke-width="0.588"/>
<g id="Mask group_2">
<mask id="mask1_5608_24502" style="mask-type:alpha" maskUnits="userSpaceOnUse" x="154" y="171" width="69" height="46">
<path id="Ellipse 930_2" d="M154.46 193.949C154.46 200.097 158.197 205.698 164.314 209.776C170.429 213.853 178.894 216.384 188.259 216.384C197.623 216.384 206.088 213.853 212.203 209.776C218.32 205.698 222.058 200.097 222.058 193.949C222.058 187.802 218.32 182.2 212.203 178.122C206.088 174.046 197.623 171.515 188.259 171.515C178.894 171.515 170.429 174.046 164.314 178.122C158.197 182.2 154.46 187.802 154.46 193.949Z" fill="white" stroke="black" stroke-width="0.588"/>
</mask>
<g mask="url(#mask1_5608_24502)">
<rect id="Rectangle 154_2" width="34.9671" height="36.7155" transform="matrix(-1 0 0 1 231.094 183.459)" fill="black"/>
</g>
</g>
<path id="Ellipse 929_2" d="M154.46 183.459C154.46 189.607 158.197 195.208 164.314 199.286C170.429 203.363 178.894 205.894 188.259 205.894C197.623 205.894 206.088 203.363 212.203 199.286C218.32 195.208 222.058 189.607 222.058 183.459C222.058 177.312 218.32 171.71 212.203 167.632C206.088 163.555 197.623 161.024 188.259 161.024C178.894 161.024 170.429 163.555 164.314 167.632C158.197 171.71 154.46 177.312 154.46 183.459Z" fill="white" stroke="black" stroke-width="0.588"/>
<g id="Group">
<path id="Vector_2" d="M170.692 172.422L184.251 180.251C184.308 180.284 184.308 180.35 184.251 180.383C184.024 180.718 183.853 181.018 183.624 181.351C183.338 181.784 182.996 182.251 182.769 182.718L181.741 184.318L180.886 185.619L179.86 187.22C179.575 187.654 179.289 188.087 179.005 188.587C178.776 188.92 178.549 189.321 178.321 189.654C178.263 189.687 178.321 189.721 178.206 189.721L178.148 189.754C178.03 189.486 177.969 189.252 177.852 188.985C177.201 187.545 176.609 186.074 175.957 184.634C175.25 183.096 174.597 181.523 173.889 179.984C173.239 178.545 172.589 177.107 171.997 175.702C171.522 174.63 171.109 173.594 170.577 172.555C170.692 172.489 170.634 172.455 170.692 172.422C170.692 172.422 170.634 172.455 170.692 172.422Z" fill="black"/>
<path id="Vector_3" d="M200.595 176.793C200.314 177.628 199.916 178.461 199.575 179.262C198.444 181.865 197.311 184.401 196.178 187.004C196.12 187.037 196.178 187.07 196.12 187.103C196.063 187.136 196.005 187.103 196.005 187.103L184.308 180.35C184.25 180.316 184.308 180.283 184.365 180.25C184.71 180.183 185.059 180.119 185.462 180.019C186.503 179.823 187.542 179.559 188.582 179.361C189.506 179.164 190.373 178.999 191.238 178.768C192.162 178.57 193.029 178.406 193.953 178.209C194.704 178.044 195.512 177.846 196.321 177.715C197.072 177.551 197.973 177.112 198.782 176.981C199.359 176.849 199.851 176.981 199.851 176.981C199.851 176.981 200.537 176.826 200.595 176.793Z" fill="black"/>
<path id="Vector_4" d="M207.528 193.688C207.471 193.721 207.528 193.688 207.528 193.688C207.471 193.721 207.471 193.721 207.354 193.72C204.575 193.445 201.909 193.168 199.128 192.892L190.787 192.064C188.123 191.789 185.401 191.547 182.676 191.236L180.591 191.029C180.533 190.996 180.476 191.029 180.418 190.996C180.476 190.963 180.533 190.996 180.591 190.963C183.076 190.603 185.618 190.21 188.103 189.85C190.994 189.459 193.883 189 196.773 188.608C197.235 188.543 197.755 188.444 198.217 188.378C198.274 188.345 198.334 188.379 198.391 188.413L207.528 193.688Z" fill="black"/>
<path id="Vector_5" d="M178.248 189.766C178.19 189.733 178.19 189.733 178.248 189.766C178.532 189.266 178.762 188.259 179.047 187.759L179.688 185.845C179.972 185.345 180.366 184.865 180.65 184.364C181.048 183.664 181.321 183.214 181.719 182.513C182.061 182.046 182.444 181.128 182.788 180.661C183.017 180.328 184.008 180.73 184.178 180.363C183.322 179.736 184.351 179.759 184.235 180.263L196.106 187.116C196.107 187.184 196.048 187.149 195.99 187.183C195.703 187.216 195.471 187.281 195.239 187.28L178.422 189.734C178.305 189.733 178.248 189.766 178.248 189.766ZM202.677 178.149C202.735 178.183 202.735 178.183 202.735 178.249C204.169 182.932 205.544 187.58 206.978 192.263C207.155 192.765 207.275 193.233 207.454 193.735L198.201 188.392C198.484 187.691 198.766 186.991 199.108 186.324L202.677 178.216C202.62 178.183 202.677 178.149 202.677 178.149Z" fill="black"/>
<path id="Vector_6" d="M184.31 180.284L170.754 172.457L200.309 176.76C200.425 176.76 200.54 176.76 200.599 176.794C200.254 176.861 199.905 176.925 199.502 177.025C199.097 177.124 198.635 177.189 198.231 177.288C198.001 177.354 197.711 177.387 197.422 177.485C197.019 177.585 196.497 177.683 196.095 177.783C195.863 177.848 195.575 177.881 195.343 177.947L193.611 178.343C193.264 178.408 193.034 178.475 192.687 178.54C192.282 178.639 191.82 178.705 191.416 178.803C191.186 178.87 190.896 178.902 190.666 178.969L188.933 179.363C188.587 179.43 188.355 179.495 188.008 179.561C187.605 179.661 187.142 179.725 186.737 179.824C186.449 179.857 186.16 179.956 185.872 179.989L184.311 180.284L184.31 180.284Z" fill="black"/>
</g>
</g>
<rect id="Rectangle 157" width="78.7343" height="11.5328" transform="matrix(0.866025 0.5 2.20305e-08 -1 26.5352 162.553)" fill="white"/>
<rect id="Rectangle 159" width="78.7343" height="10.8756" transform="matrix(0.866025 0.5 2.20305e-08 -1 30.0312 152.684)" fill="white"/>
<path id="Rectangle 160" d="M29.582 152.779L98.2163 192.405L98.2163 191.881L29.582 152.255L29.582 152.779Z" fill="black"/>
<rect id="Rectangle 158" width="66.6213" height="2.48448" transform="matrix(0.866025 0.5 2.20305e-08 -1 33.5273 169.002)" fill="black"/>
<path id="Rectangle 162" d="M145.422 188.705L213.608 149.849L213.608 161.774L145.422 201.141L145.422 188.705Z" fill="white"/>
<rect id="Rectangle 163" width="78.7343" height="10.8756" transform="matrix(0.866025 -0.5 2.20305e-08 1 140.176 180.865)" fill="white"/>
<path id="Rectangle 164" d="M137.105 193.363L205.74 153.737L205.74 154.342L137.105 193.968L137.105 193.363Z" fill="black"/>
<path id="Rectangle 165" d="M153.29 196.571L209.294 164.341L210.168 166.089L152.473 199.4L153.29 196.571Z" fill="black"/>
</g>
</g>
</svg>
