<svg width="13" height="13" viewBox="0 0 13 13" fill="none" xmlns="http://www.w3.org/2000/svg">
<path d="M0.4875 6.71668C0.216667 6.71668 0 6.93335 0 7.20418V8.82918C0 9.10001 0.216667 9.31668 0.4875 9.31668C0.758333 9.31668 0.975 9.10001 0.975 8.82918V7.20418C0.975 6.93335 0.758333 6.71668 0.4875 6.71668ZM12.5125 6.71668C12.2417 6.71668 12.025 6.93335 12.025 7.20418V8.82918C12.025 9.10001 12.2417 9.31668 12.5125 9.31668C12.7833 9.31668 13 9.10001 13 8.82918V7.20418C13 6.93335 12.7833 6.71668 12.5125 6.71668ZM10.0208 3.90001H6.825V2.27501C7.20417 2.16668 7.52917 1.78751 7.52917 1.35418C7.52917 0.812514 7.09583 0.379181 6.55417 0.379181C6.0125 0.379181 5.57917 0.812514 5.57917 1.35418C5.57917 1.78751 5.85 2.16668 6.28333 2.27501V3.90001H3.14167C2.32917 3.90001 1.67917 4.55001 1.67917 5.36251V10.4C1.67917 11.2125 2.32917 11.8625 3.14167 11.8625H10.075C10.8875 11.8625 11.5375 11.2125 11.5375 10.4V5.30835C11.4833 4.55001 10.8333 3.90001 10.0208 3.90001ZM4.3875 8.82918C3.84583 8.82918 3.46667 8.45002 3.46667 7.90835C3.46667 7.36668 3.84583 7.04168 4.3875 7.04168C4.92917 7.04168 5.30833 7.42085 5.30833 7.96251C5.30833 8.50418 4.92917 8.82918 4.3875 8.82918ZM8.82917 8.82918C8.2875 8.82918 7.90833 8.45002 7.90833 7.90835C7.90833 7.36668 8.2875 6.98751 8.82917 6.98751C9.37083 6.98751 9.75 7.36668 9.75 7.90835C9.75 8.45002 9.37083 8.82918 8.82917 8.82918Z" fill="#828282"/>
</svg>
