<svg width="13" height="13" viewBox="0 0 13 13" fill="none" xmlns="http://www.w3.org/2000/svg">
<g id="&#230;&#156;&#186;&#229;&#153;&#168;&#228;&#186;&#186;&#232;&#174;&#190;&#231;&#189;&#174; 1">
<path id="Vector" d="M0.4875 6.71667C0.216667 6.71667 0 6.93333 0 7.20417V8.82917C0 9.1 0.216667 9.31667 0.4875 9.31667C0.758333 9.31667 0.975 9.1 0.975 8.82917V7.20417C0.975 6.93333 0.758333 6.71667 0.4875 6.71667ZM12.5125 6.71667C12.2417 6.71667 12.025 6.93333 12.025 7.20417V8.82917C12.025 9.1 12.2417 9.31667 12.5125 9.31667C12.7833 9.31667 13 9.1 13 8.82917V7.20417C13 6.93333 12.7833 6.71667 12.5125 6.71667ZM10.0208 3.9H6.825V2.275C7.20417 2.16667 7.52917 1.7875 7.52917 1.35417C7.52917 0.812499 7.09583 0.379166 6.55417 0.379166C6.0125 0.379166 5.57917 0.812499 5.57917 1.35417C5.57917 1.7875 5.85 2.16667 6.28333 2.275V3.9H3.14167C2.32917 3.9 1.67917 4.55 1.67917 5.3625V10.4C1.67917 11.2125 2.32917 11.8625 3.14167 11.8625H10.075C10.8875 11.8625 11.5375 11.2125 11.5375 10.4V5.30833C11.4833 4.55 10.8333 3.9 10.0208 3.9ZM4.3875 8.82917C3.84583 8.82917 3.46667 8.45 3.46667 7.90833C3.46667 7.36667 3.84583 7.04167 4.3875 7.04167C4.92917 7.04167 5.30833 7.42083 5.30833 7.9625C5.30833 8.50417 4.92917 8.82917 4.3875 8.82917ZM8.82917 8.82917C8.2875 8.82917 7.90833 8.45 7.90833 7.90833C7.90833 7.36667 8.2875 6.9875 8.82917 6.9875C9.37083 6.9875 9.75 7.36667 9.75 7.90833C9.75 8.45 9.37083 8.82917 8.82917 8.82917Z" fill="#E0E0E0"/>
</g>
</svg>
