<svg width="18" height="18" viewBox="0 0 18 18" fill="none" xmlns="http://www.w3.org/2000/svg">
<rect width="18" height="18" rx="4" fill="#2F2F2F"/>
<path d="M6.578 7.602C7.03533 7.602 7.56267 7.75133 8.16 8.05C8.552 8.25533 8.972 8.49333 9.42 8.764C10.344 9.296 11.072 9.562 11.604 9.562C12.332 9.562 13.06 9.016 13.788 7.924L14.376 8.372C13.5173 9.66933 12.5933 10.318 11.604 10.318C10.96 10.318 10.176 10.052 9.252 9.52C8.72933 9.19333 8.30933 8.95067 7.992 8.792C7.44133 8.50267 6.97 8.358 6.578 8.358C5.738 8.358 4.954 8.88067 4.226 9.926L3.638 9.464C4.48733 8.22267 5.46733 7.602 6.578 7.602Z" fill="#828282"/>
</svg>
