<svg width="268" height="172" viewBox="0 0 268 172" fill="none" xmlns="http://www.w3.org/2000/svg">
<path d="M46.875 150.383L99.6175 122.406H204.138L254.95 150.383H46.875Z" fill="#020202" stroke="url(#paint0_linear_2148_954)" stroke-width="0.5"/>
<path d="M64.3594 146.885L101.408 126.777H201.055L237.464 146.885H64.3594Z" fill="black" stroke="url(#paint1_linear_2148_954)" stroke-width="0.5" stroke-linecap="round"/>
<rect x="47.25" y="150.25" width="207.5" height="9.5" fill="black" stroke="url(#paint2_linear_2148_954)" stroke-width="0.5"/>
<path d="M48 152L52.1464 157H111.153L113.704 153.25H190.572L192.485 157H251.492L255 152" stroke="url(#paint3_linear_2148_954)" stroke-width="0.5"/>
<path d="M171.395 136.396C171.395 137.292 170.923 138.202 169.945 139.088C168.967 139.973 167.524 140.793 165.699 141.493C162.051 142.89 156.978 143.764 151.35 143.764C145.722 143.764 140.649 142.89 137.001 141.493C135.176 140.793 133.733 139.973 132.755 139.088C131.777 138.202 131.305 137.292 131.305 136.396C131.305 135.5 131.777 134.589 132.755 133.704C133.733 132.818 135.176 131.998 137.001 131.299C140.649 129.902 145.722 129.027 151.35 129.027C156.978 129.027 162.051 129.902 165.699 131.299C167.524 131.998 168.967 132.818 169.945 133.704C170.923 134.589 171.395 135.5 171.395 136.396Z" fill="url(#paint4_linear_2148_954)" stroke="url(#paint5_linear_2148_954)"/>
<path d="M167.9 137.705C167.9 138.416 167.518 139.154 166.695 139.884C165.872 140.613 164.653 141.293 163.103 141.874C160.009 143.034 155.699 143.762 150.915 143.762C146.131 143.762 141.822 143.034 138.727 141.874C137.177 141.293 135.958 140.613 135.135 139.884C134.312 139.154 133.93 138.416 133.93 137.705C133.93 136.994 134.312 136.257 135.135 135.527C135.958 134.798 137.177 134.118 138.727 133.537C141.822 132.377 146.131 131.648 150.915 131.648C155.699 131.648 160.009 132.377 163.103 133.537C164.653 134.118 165.872 134.798 166.695 135.527C167.518 136.257 167.9 136.994 167.9 137.705Z" fill="black" stroke="url(#paint6_linear_2148_954)"/>
<path d="M154.41 63.8304C126.287 63.8304 99.2837 66.4726 79.187 71.1908C59.0902 75.9089 47.4997 82.3275 46.8995 89.0708C46.2993 95.8141 56.7373 102.346 75.9763 107.265C95.2153 112.185 121.724 115.101 149.821 115.389C177.918 115.676 205.367 113.313 226.285 108.805C247.203 104.297 259.925 98.0025 261.724 91.2714C263.524 84.5404 254.257 77.9082 235.911 72.7962C217.565 67.6843 191.599 64.4994 163.579 63.9243L163.452 64.2805C191.084 64.8477 216.689 67.9884 234.781 73.0294C252.873 78.0705 262.011 84.6109 260.237 91.2486C258.462 97.8863 245.917 104.093 225.289 108.539C204.661 112.985 177.592 115.315 149.885 115.031C122.177 114.748 96.0358 111.872 77.0636 107.02C58.0913 102.169 47.798 95.7283 48.3898 89.0785C48.9817 82.4286 60.4116 76.099 80.2297 71.4463C100.048 66.7935 126.677 64.1879 154.41 64.1879L154.41 63.8304Z" fill="url(#paint7_linear_2148_954)"/>
<path d="M46 40.2246H267.189L171.957 137.268H130.609L46 40.2246Z" fill="url(#paint8_linear_2148_954)"/>
<path opacity="0.6" d="M61.7344 40.2246H252.325L172.035 137.268H130.788L61.7344 40.2246Z" fill="url(#paint9_linear_2148_954)"/>
<path d="M123.992 110.633C117.581 111.402 116.833 106.893 117.26 104.542L65.5514 51.3286C63.9486 49.6189 62.6663 45.5585 71.3216 41.7117L142.166 24.0806L213.75 1C223.752 1 226.038 8.90726 225.932 12.8609C224.222 28.0343 220.418 62.2278 218.879 77.6149C217.34 93.002 207.882 94.9082 202.851 95.8871C179.236 100.482 130.404 109.864 123.992 110.633Z" fill="black" stroke="url(#paint10_linear_2148_954)" stroke-width="0.5"/>
<path d="M146.789 13.0011C136.531 15.3092 130.625 26.9657 130.625 26.9657L139.095 24.862C151.063 21.8898 157.047 25.0757 158.65 27.4265C171.152 42.4931 197.63 74.3572 203.529 81.2814C209.427 88.2056 212.611 80.106 213.466 75.1906C215.71 57.0253 220.262 18.4507 220.519 9.47492C220.775 0.499118 212.718 0.392263 208.658 1.46081C192.309 4.34589 157.047 10.6931 146.789 13.0011Z" fill="black" stroke="url(#paint11_linear_2148_954)" stroke-width="0.5"/>
<path d="M151.245 17.7646C142.976 19.5026 143.131 20.4328 142.164 23.7597L146.011 23.1186C156.589 23.1186 158.726 26.3241 160.436 28.8886L160.436 28.8889L202.43 79.538C204.756 63.7523 209.827 24.4903 210.295 16.6674C210.763 8.84459 204.325 8.53514 201.047 9.35827C187.892 11.4362 159.514 16.0265 151.245 17.7646Z" fill="black" stroke="url(#paint12_linear_2148_954)"/>
<path d="M64.2342 57.673L75.454 69.8545L105.619 99.7337C107.948 102.254 114.602 106.538 122.577 103.514L187.652 90.0501C197.653 88.2549 194.17 81.6085 191.178 78.5097C181.881 67.3968 162.071 43.6964 157.198 37.7981C151.043 27.2835 142.025 27.8606 138.285 29.4634C122.043 33.8444 86.7379 43.1194 75.454 45.171C64.1701 47.2226 63.2725 54.3605 64.2342 57.673Z" fill="black" stroke="url(#paint13_linear_2148_954)" stroke-width="0.5"/>
<path d="M107.547 37.5449L157.234 96.2082" stroke="url(#paint14_linear_2148_954)" stroke-width="1.5"/>
<path d="M135.758 70.5622L175.508 60.9453" stroke="url(#paint15_linear_2148_954)"/>
<path d="M120.688 95.2467L135.113 92.041" stroke="url(#paint16_linear_2148_954)" stroke-width="3" stroke-linecap="round"/>
<mask id="path-17-inside-1_2148_954" fill="white">
<path fill-rule="evenodd" clip-rule="evenodd" d="M90.331 53.7012L90.4511 54.2414L90.4246 54.2456C91.106 59.7019 84.1472 65.2026 74.4673 66.7084C64.7874 68.2141 55.9305 65.1736 54.2223 59.877L54.1958 59.8812L52.959 54.3156L55.2901 53.953C57.7112 50.3682 63.1548 47.3555 69.9323 46.3012C76.7099 45.247 83.0839 46.4214 86.8833 49.0385L89.2143 48.6759L90.3238 53.6687C90.325 53.6741 90.3262 53.6795 90.3274 53.6849C90.3286 53.6904 90.3298 53.6958 90.331 53.7012Z"/>
</mask>
<path fill-rule="evenodd" clip-rule="evenodd" d="M90.331 53.7012L90.4511 54.2414L90.4246 54.2456C91.106 59.7019 84.1472 65.2026 74.4673 66.7084C64.7874 68.2141 55.9305 65.1736 54.2223 59.877L54.1958 59.8812L52.959 54.3156L55.2901 53.953C57.7112 50.3682 63.1548 47.3555 69.9323 46.3012C76.7099 45.247 83.0839 46.4214 86.8833 49.0385L89.2143 48.6759L90.3238 53.6687C90.325 53.6741 90.3262 53.6795 90.3274 53.6849C90.3286 53.6904 90.3298 53.6958 90.331 53.7012Z" fill="black"/>
<path d="M90.331 53.7012L90.0344 53.7466L90.0346 53.7474L90.331 53.7012ZM90.4511 54.2414L90.5162 54.5343L90.8126 54.4882L90.7475 54.1953L90.4511 54.2414ZM90.4246 54.2456L90.3595 53.9527L90.0897 53.9947L90.1234 54.264L90.4246 54.2456ZM54.2223 59.877L54.5113 59.8036L54.427 59.5422L54.1573 59.5842L54.2223 59.877ZM54.1958 59.8812L53.8994 59.9273L53.9645 60.2201L54.2609 60.174L54.1958 59.8812ZM52.959 54.3156L52.8939 54.0227L52.5975 54.0688L52.6626 54.3617L52.959 54.3156ZM55.2901 53.953L55.3552 54.2458L55.4787 54.2266L55.5465 54.1263L55.2901 53.953ZM86.8833 49.0385L86.7185 49.2774L86.8248 49.3505L86.9483 49.3313L86.8833 49.0385ZM89.2143 48.6759L89.5107 48.6298L89.4456 48.3369L89.1492 48.383L89.2143 48.6759ZM90.3238 53.6687L90.0274 53.7148L90.0275 53.7156L90.3238 53.6687ZM90.0346 53.7474L90.1546 54.2876L90.7475 54.1953L90.6275 53.6551L90.0346 53.7474ZM90.386 53.9486L90.3595 53.9527L90.4897 54.5384L90.5162 54.5343L90.386 53.9486ZM90.1234 54.264C90.4464 56.8512 88.9609 59.5061 86.133 61.7229C83.3127 63.9336 79.2013 65.669 74.4022 66.4155L74.5323 67.0012C79.4131 66.242 83.621 64.4741 86.5298 62.194C89.4309 59.9199 91.0841 57.0963 90.7258 54.2272L90.1234 54.264ZM74.4022 66.4155C69.6031 67.162 65.0209 66.779 61.4394 65.5641C57.8481 64.3459 55.3213 62.3151 54.5113 59.8036L53.9333 59.9504C54.8315 62.7356 57.5873 64.8733 61.2714 66.1231C64.9654 67.3761 69.6515 67.7605 74.5323 67.0012L74.4022 66.4155ZM54.1573 59.5842L54.1307 59.5883L54.2609 60.174L54.2874 60.1699L54.1573 59.5842ZM54.4922 59.835L53.2555 54.2695L52.6626 54.3617L53.8994 59.9273L54.4922 59.835ZM53.0241 54.6084L55.3552 54.2458L55.225 53.6601L52.8939 54.0227L53.0241 54.6084ZM55.5465 54.1263C57.9098 50.6273 63.2678 47.6409 69.9974 46.5941L69.8673 46.0084C63.0418 47.0701 57.5127 50.1092 55.0337 53.7796L55.5465 54.1263ZM69.9974 46.5941C76.727 45.5473 83.01 46.7228 86.7185 49.2774L87.048 48.7996C83.1579 46.12 76.6927 44.9466 69.8673 46.0084L69.9974 46.5941ZM86.9483 49.3313L89.2794 48.9687L89.1492 48.383L86.8182 48.7456L86.9483 49.3313ZM88.9178 48.722L90.0274 53.7148L90.6202 53.6225L89.5107 48.6298L88.9178 48.722ZM90.0275 53.7156C90.0287 53.7207 90.0299 53.7259 90.031 53.7311L90.6239 53.6388C90.6226 53.6331 90.6213 53.6274 90.62 53.6217L90.0275 53.7156ZM90.031 53.7311C90.0321 53.7362 90.0333 53.7414 90.0344 53.7466L90.6276 53.6559C90.6264 53.6502 90.6251 53.6445 90.6239 53.6388L90.031 53.7311Z" fill="url(#paint17_linear_2148_954)" mask="url(#path-17-inside-1_2148_954)"/>
<path d="M88.868 47.8117C89.48 50.5656 88.064 53.3948 85.2148 55.7431C82.3692 58.0884 78.1175 59.9315 73.1327 60.7069C68.1479 61.4823 63.3886 61.041 59.7256 59.7081C56.058 58.3735 53.5212 56.1592 52.9092 53.4053C52.2972 50.6515 53.7133 47.8223 56.5625 45.474C59.408 43.1286 63.6598 41.2856 68.6445 40.5102C73.6293 39.7348 78.3887 40.1761 82.0516 41.509C85.7192 42.8436 88.2561 45.0579 88.868 47.8117Z" fill="black" stroke="url(#paint18_linear_2148_954)" stroke-width="0.3"/>
<path fill-rule="evenodd" clip-rule="evenodd" d="M70.5125 48.078L62.5 45.4688L62.6699 46.6154L69.2781 48.73L67.4179 49.7124L67.539 50.53L69.6615 51.2212L63.803 54.2601L63.973 55.4068L71.0452 51.6717L79.0577 54.281L78.8878 53.1343L72.2732 51.0232L74.1398 50.0373L74.0186 49.2198L71.9188 48.536L77.7547 45.4894L77.5847 44.3429L70.5125 48.078ZM70.6848 49.1802L72.4854 49.7564L70.8927 50.5825L69.0966 50.0093L70.6848 49.1802Z" fill="white" stroke="white" stroke-width="0.5" stroke-miterlimit="10"/>
<path d="M111.445 21.6893L134.119 47.1969L108.447 54.0426L85.7737 28.535C80.8995 23.0515 82.6949 17.0737 89.7838 15.1833C96.8728 13.2929 106.571 16.2057 111.445 21.6893Z" fill="black" stroke="url(#paint19_linear_2148_954)"/>
<path d="M110.805 23.6131L133.478 49.1207L107.807 55.9665L85.1331 30.4588C80.2588 24.9753 82.0542 18.9976 89.1432 17.1072C96.2322 15.2168 105.93 18.1296 110.805 23.6131Z" fill="black" stroke="url(#paint20_linear_2148_954)"/>
<circle cx="97.2848" cy="27.2867" r="3.9879" fill="white" stroke="url(#paint21_linear_2148_954)"/>
<ellipse cx="49.9342" cy="92.6807" rx="3.9342" ry="3.49707" fill="white"/>
<circle cx="232.653" cy="72.1354" r="3.9342" fill="white"/>
<mask id="path-26-inside-2_2148_954" fill="white">
<path fill-rule="evenodd" clip-rule="evenodd" d="M70.565 153.642C70.5651 153.631 70.5651 153.621 70.5651 153.61C70.5651 153.599 70.5651 153.589 70.565 153.578V146.593H67.3392C63.0349 142.249 54.8575 139.316 45.4779 139.316C36.0982 139.316 27.9209 142.249 23.6166 146.593H20.3906V154.39H20.4274C21.138 161.921 32.0817 167.903 45.4779 167.903C58.874 167.903 69.8178 161.921 70.5284 154.39H70.565V153.642Z"/>
</mask>
<path fill-rule="evenodd" clip-rule="evenodd" d="M70.565 153.642C70.5651 153.631 70.5651 153.621 70.5651 153.61C70.5651 153.599 70.5651 153.589 70.565 153.578V146.593H67.3392C63.0349 142.249 54.8575 139.316 45.4779 139.316C36.0982 139.316 27.9209 142.249 23.6166 146.593H20.3906V154.39H20.4274C21.138 161.921 32.0817 167.903 45.4779 167.903C58.874 167.903 69.8178 161.921 70.5284 154.39H70.565V153.642Z" fill="black"/>
<path d="M70.565 153.642L70.265 153.641V153.642H70.565ZM70.565 153.578H70.265L70.265 153.579L70.565 153.578ZM70.565 146.593H70.865V146.293H70.565V146.593ZM67.3392 146.593L67.1261 146.804L67.2141 146.893H67.3392V146.593ZM23.6166 146.593V146.893H23.7416L23.8297 146.804L23.6166 146.593ZM20.3906 146.593V146.293H20.0906V146.593H20.3906ZM20.3906 154.39H20.0906V154.69H20.3906V154.39ZM20.4274 154.39L20.726 154.361L20.7004 154.09H20.4274V154.39ZM70.5284 154.39V154.09H70.2554L70.2297 154.361L70.5284 154.39ZM70.565 154.39V154.69H70.865V154.39H70.565ZM70.2651 153.61C70.2651 153.62 70.2651 153.63 70.265 153.641L70.865 153.643C70.8651 153.632 70.8651 153.621 70.8651 153.61H70.2651ZM70.265 153.579C70.2651 153.589 70.2651 153.6 70.2651 153.61H70.8651C70.8651 153.599 70.8651 153.588 70.865 153.577L70.265 153.579ZM70.265 146.593V153.578H70.865V146.593H70.265ZM67.3392 146.893H70.565V146.293H67.3392V146.893ZM45.4779 139.616C54.809 139.616 62.897 142.536 67.1261 146.804L67.5523 146.382C63.1728 141.962 54.906 139.016 45.4779 139.016V139.616ZM23.8297 146.804C28.0588 142.536 36.1468 139.616 45.4779 139.616V139.016C36.0497 139.016 27.783 141.962 23.4035 146.382L23.8297 146.804ZM20.3906 146.893H23.6166V146.293H20.3906V146.893ZM20.6906 154.39V146.593H20.0906V154.39H20.6906ZM20.4274 154.09H20.3906V154.69H20.4274V154.09ZM45.4779 167.603C38.8211 167.603 32.7869 166.116 28.3384 163.707C23.8811 161.293 21.0679 157.985 20.726 154.361L20.1287 154.418C20.4974 158.326 23.5114 161.775 28.0527 164.235C32.6028 166.699 38.7385 168.203 45.4779 168.203V167.603ZM70.2297 154.361C69.8879 157.985 67.0746 161.293 62.6173 163.707C58.1689 166.116 52.1346 167.603 45.4779 167.603V168.203C52.2173 168.203 58.353 166.699 62.9031 164.235C67.4444 161.775 70.4584 158.326 70.8271 154.418L70.2297 154.361ZM70.565 154.09H70.5284V154.69H70.565V154.09ZM70.265 153.642V154.39H70.865V153.642H70.265Z" fill="url(#paint22_linear_2148_954)" mask="url(#path-26-inside-2_2148_954)"/>
<path d="M70.415 145.351C70.415 149.237 67.6602 152.785 63.1427 155.369C58.6293 157.951 52.3842 159.552 45.4778 159.552C38.5715 159.552 32.3263 157.951 27.813 155.369C23.2954 152.785 20.5406 149.237 20.5406 145.351C20.5406 141.465 23.2954 137.918 27.813 135.334C32.3263 132.752 38.5715 131.15 45.4778 131.15C52.3842 131.15 58.6293 132.752 63.1427 135.334C67.6602 137.918 70.415 141.465 70.415 145.351Z" fill="black" stroke="url(#paint23_linear_2148_954)" stroke-width="0.3"/>
<path fill-rule="evenodd" clip-rule="evenodd" d="M45.7238 141.844L35.7812 136.623L35.6677 138.211L43.8787 142.466L41.0983 143.405L41.0174 144.537L43.6511 145.92L34.911 148.801L34.7974 150.39L45.368 146.822L55.3106 152.043L55.4241 150.454L47.2036 146.202L49.9935 145.261L50.0744 144.128L47.4688 142.76L56.1809 139.864L56.2944 138.276L45.7238 141.844ZM45.6267 143.372L47.864 144.532L45.4879 145.315L43.2557 144.16L45.6267 143.372Z" fill="white"/>
<mask id="path-30-inside-3_2148_954" fill="white">
<path fill-rule="evenodd" clip-rule="evenodd" d="M39.3866 160.437V161.049H39.3578C38.8 166.961 30.2092 171.657 19.6933 171.657C9.17736 171.657 0.586545 166.961 0.0287937 161.049H0V160.437V154.929H2.53234C5.9112 151.519 12.3304 149.217 19.6933 149.217C27.0562 149.217 33.4754 151.519 36.8542 154.929H39.3866V160.437Z"/>
</mask>
<path fill-rule="evenodd" clip-rule="evenodd" d="M39.3866 160.437V161.049H39.3578C38.8 166.961 30.2092 171.657 19.6933 171.657C9.17736 171.657 0.586545 166.961 0.0287937 161.049H0V160.437V154.929H2.53234C5.9112 151.519 12.3304 149.217 19.6933 149.217C27.0562 149.217 33.4754 151.519 36.8542 154.929H39.3866V160.437Z" fill="black"/>
<path d="M39.3866 161.049V161.349H39.6866V161.049H39.3866ZM39.3578 161.049V160.749H39.0848L39.0591 161.021L39.3578 161.049ZM0.0287937 161.049L0.327468 161.021L0.301824 160.749H0.0287937V161.049ZM0 161.049H-0.3V161.349H0V161.049ZM0 154.929V154.629H-0.3V154.929H0ZM2.53234 154.929V155.229H2.65741L2.74544 155.14L2.53234 154.929ZM36.8542 154.929L36.6411 155.14L36.7292 155.229H36.8542V154.929ZM39.3866 154.929H39.6866V154.629H39.3866V154.929ZM39.0866 160.437V161.049H39.6866V160.437H39.0866ZM39.3866 160.749H39.3578V161.349H39.3866V160.749ZM39.0591 161.021C38.7937 163.835 36.6069 166.416 33.117 168.307C29.6359 170.192 24.9099 171.357 19.6933 171.357V171.957C24.9926 171.957 29.82 170.775 33.4027 168.834C36.9767 166.898 39.3642 164.176 39.6565 161.077L39.0591 161.021ZM19.6933 171.357C14.4767 171.357 9.75069 170.192 6.26961 168.307C2.77971 166.416 0.59292 163.835 0.327468 161.021L-0.26988 161.077C0.0224192 164.176 2.40991 166.898 5.98385 168.834C9.56659 170.775 14.394 171.957 19.6933 171.957V171.357ZM0.0287937 160.749H0V161.349H0.0287937V160.749ZM0.3 161.049V160.437H-0.3V161.049H0.3ZM0.3 160.437V154.929H-0.3V160.437H0.3ZM0 155.229H2.53234V154.629H0V155.229ZM2.74544 155.14C6.0491 151.806 12.3789 149.517 19.6933 149.517V148.917C12.2819 148.917 5.77331 151.232 2.31924 154.718L2.74544 155.14ZM19.6933 149.517C27.0077 149.517 33.3375 151.806 36.6411 155.14L37.0673 154.718C33.6133 151.232 27.1047 148.917 19.6933 148.917V149.517ZM36.8542 155.229H39.3866V154.629H36.8542V155.229ZM39.0866 154.929V160.437H39.6866V154.929H39.0866Z" fill="url(#paint24_linear_2148_954)" mask="url(#path-30-inside-3_2148_954)"/>
<path d="M39.2366 153.955C39.2366 156.989 37.0855 159.765 33.5441 161.791C30.0068 163.814 25.1102 165.071 19.6933 165.071C14.2764 165.071 9.37976 163.814 5.84251 161.791C2.30105 159.765 0.15 156.989 0.15 153.955C0.15 150.921 2.30105 148.145 5.84251 146.119C9.37976 144.096 14.2764 142.839 19.6933 142.839C25.1102 142.839 30.0068 144.096 33.5441 146.119C37.0855 148.145 39.2366 150.921 39.2366 153.955Z" fill="black" stroke="url(#paint25_linear_2148_954)" stroke-width="0.3"/>
<path fill-rule="evenodd" clip-rule="evenodd" d="M19.8829 151.202L12.0781 147.104L11.989 148.35L18.4346 151.691L16.252 152.427L16.1884 153.316L18.2559 154.402L11.395 156.663L11.3058 157.91L19.6037 155.11L27.4086 159.208L27.4977 157.961L21.0446 154.623L23.2346 153.884L23.2982 152.995L21.2528 151.921L28.0918 149.648L28.1808 148.401L19.8829 151.202ZM19.8067 152.402L21.563 153.312L19.6978 153.927L17.9455 153.02L19.8067 152.402Z" fill="white"/>
<defs>
<linearGradient id="paint0_linear_2148_954" x1="110.264" y1="147.59" x2="112.282" y2="117.242" gradientUnits="userSpaceOnUse">
<stop stop-color="#B4FCFE"/>
<stop offset="1" stop-color="#E1FF9D"/>
</linearGradient>
<linearGradient id="paint1_linear_2148_954" x1="117.095" y1="144.878" x2="118.349" y2="123.041" gradientUnits="userSpaceOnUse">
<stop stop-color="#B4FCFE"/>
<stop offset="1" stop-color="#E1FF9D"/>
</linearGradient>
<linearGradient id="paint2_linear_2148_954" x1="110.366" y1="159.002" x2="110.625" y2="148.112" gradientUnits="userSpaceOnUse">
<stop stop-color="#B4FCFE"/>
<stop offset="1" stop-color="#E1FF9D"/>
</linearGradient>
<linearGradient id="paint3_linear_2148_954" x1="111.062" y1="156.501" x2="111.127" y2="151.054" gradientUnits="userSpaceOnUse">
<stop stop-color="#B4FCFE"/>
<stop offset="1" stop-color="#E1FF9D"/>
</linearGradient>
<linearGradient id="paint4_linear_2148_954" x1="143.323" y1="142.693" x2="146.457" y2="126.14" gradientUnits="userSpaceOnUse">
<stop stop-color="#B4FCFE"/>
<stop offset="1" stop-color="#E1FF9D"/>
</linearGradient>
<linearGradient id="paint5_linear_2148_954" x1="143.323" y1="142.693" x2="146.457" y2="126.14" gradientUnits="userSpaceOnUse">
<stop stop-color="#B4FCFE"/>
<stop offset="1" stop-color="#E1FF9D"/>
</linearGradient>
<linearGradient id="paint6_linear_2148_954" x1="144.083" y1="142.953" x2="146.644" y2="129.14" gradientUnits="userSpaceOnUse">
<stop stop-color="#B4FCFE"/>
<stop offset="1" stop-color="#E1FF9D"/>
</linearGradient>
<linearGradient id="paint7_linear_2148_954" x1="112.395" y1="68.9803" x2="118.967" y2="124.402" gradientUnits="userSpaceOnUse">
<stop stop-color="#B4FCFE"/>
<stop offset="1" stop-color="#E1FF9D"/>
</linearGradient>
<linearGradient id="paint8_linear_2148_954" x1="149.863" y1="40.2246" x2="149.863" y2="137.268" gradientUnits="userSpaceOnUse">
<stop stop-color="#14C784" stop-opacity="0"/>
<stop offset="0.363667" stop-color="#14C784" stop-opacity="0.05"/>
<stop offset="0.640295" stop-color="#14C784" stop-opacity="0.15"/>
<stop offset="1" stop-color="#14C784" stop-opacity="0.15"/>
</linearGradient>
<linearGradient id="paint9_linear_2148_954" x1="149.994" y1="40.2246" x2="149.994" y2="137.268" gradientUnits="userSpaceOnUse">
<stop stop-color="white" stop-opacity="0"/>
<stop offset="0.363667" stop-color="white" stop-opacity="0.05"/>
<stop offset="0.640295" stop-color="white" stop-opacity="0.15"/>
<stop offset="1" stop-color="white" stop-opacity="0.15"/>
</linearGradient>
<linearGradient id="paint10_linear_2148_954" x1="113.605" y1="99.7657" x2="149.68" y2="-7.66655" gradientUnits="userSpaceOnUse">
<stop stop-color="#B4FCFE"/>
<stop offset="1" stop-color="#E1FF9D"/>
</linearGradient>
<linearGradient id="paint11_linear_2148_954" x1="158.013" y1="75.6809" x2="192.149" y2="0.862266" gradientUnits="userSpaceOnUse">
<stop stop-color="#B4FCFE"/>
<stop offset="1" stop-color="#E1FF9D"/>
</linearGradient>
<linearGradient id="paint12_linear_2148_954" x1="161.259" y1="71.1135" x2="194.496" y2="11.4184" gradientUnits="userSpaceOnUse">
<stop stop-color="#B4FCFE"/>
<stop offset="1" stop-color="#E1FF9D"/>
</linearGradient>
<linearGradient id="paint13_linear_2148_954" x1="103.653" y1="96.9674" x2="125.685" y2="20.5271" gradientUnits="userSpaceOnUse">
<stop stop-color="#B4FCFE"/>
<stop offset="1" stop-color="#E1FF9D"/>
</linearGradient>
<linearGradient id="paint14_linear_2148_954" x1="122.684" y1="90.3512" x2="150.512" y2="42.6778" gradientUnits="userSpaceOnUse">
<stop stop-color="#B4FCFE"/>
<stop offset="1" stop-color="#E1FF9D"/>
</linearGradient>
<linearGradient id="paint15_linear_2148_954" x1="147.867" y1="69.6021" x2="149.103" y2="59.2717" gradientUnits="userSpaceOnUse">
<stop stop-color="#B4FCFE"/>
<stop offset="1" stop-color="#E1FF9D"/>
</linearGradient>
<linearGradient id="paint16_linear_2148_954" x1="125.082" y1="94.9266" x2="125.461" y2="91.4755" gradientUnits="userSpaceOnUse">
<stop stop-color="#B4FCFE"/>
<stop offset="1" stop-color="#E1FF9D"/>
</linearGradient>
<linearGradient id="paint17_linear_2148_954" x1="66.9319" y1="65.7726" x2="69.4028" y2="44.3946" gradientUnits="userSpaceOnUse">
<stop stop-color="#B4FCFE"/>
<stop offset="1" stop-color="#E1FF9D"/>
</linearGradient>
<linearGradient id="paint18_linear_2148_954" x1="65.628" y1="59.9094" x2="68.1299" y2="38.4551" gradientUnits="userSpaceOnUse">
<stop stop-color="#B4FCFE"/>
<stop offset="1" stop-color="#E1FF9D"/>
</linearGradient>
<linearGradient id="paint19_linear_2148_954" x1="113.2" y1="48.7685" x2="120.476" y2="20.0745" gradientUnits="userSpaceOnUse">
<stop stop-color="#B4FCFE"/>
<stop offset="1" stop-color="#E1FF9D"/>
</linearGradient>
<linearGradient id="paint20_linear_2148_954" x1="112.559" y1="50.6924" x2="119.835" y2="21.9983" gradientUnits="userSpaceOnUse">
<stop stop-color="#B4FCFE"/>
<stop offset="1" stop-color="#E1FF9D"/>
</linearGradient>
<linearGradient id="paint21_linear_2148_954" x1="95.5313" y1="30.8785" x2="99.4167" y2="23.0198" gradientUnits="userSpaceOnUse">
<stop stop-color="#B4FCFE"/>
<stop offset="1" stop-color="#E1FF9D"/>
</linearGradient>
<linearGradient id="paint22_linear_2148_954" x1="35.6761" y1="165.049" x2="43.8048" y2="136.192" gradientUnits="userSpaceOnUse">
<stop stop-color="#B4FCFE"/>
<stop offset="1" stop-color="#E1FF9D"/>
</linearGradient>
<linearGradient id="paint23_linear_2148_954" x1="35.6761" y1="156.837" x2="43.8658" y2="127.88" gradientUnits="userSpaceOnUse">
<stop stop-color="#B4FCFE"/>
<stop offset="1" stop-color="#E1FF9D"/>
</linearGradient>
<linearGradient id="paint24_linear_2148_954" x1="11.999" y1="169.417" x2="18.38" y2="146.764" gradientUnits="userSpaceOnUse">
<stop stop-color="#B4FCFE"/>
<stop offset="1" stop-color="#E1FF9D"/>
</linearGradient>
<linearGradient id="paint25_linear_2148_954" x1="11.999" y1="162.971" x2="18.4278" y2="140.24" gradientUnits="userSpaceOnUse">
<stop stop-color="#B4FCFE"/>
<stop offset="1" stop-color="#E1FF9D"/>
</linearGradient>
</defs>
</svg>
