<svg width="21" height="21" viewBox="0 0 21 21" fill="none" xmlns="http://www.w3.org/2000/svg">
<g clip-path="url(#clip0_586_1415)">
<path d="M10.5 21C4.701 21 0 16.299 0 10.5C0 4.701 4.701 0 10.5 0C16.299 0 21 4.701 21 10.5C21 16.299 16.299 21 10.5 21ZM10.5 1.5C5.8055 1.5 1.5 5.8055 1.5 10.5C1.5 15.1945 5.8055 19.5 10.5 19.5C15.1945 19.5 19.5 15.1945 19.5 10.5C19.5 5.8055 15.1945 1.5 10.5 1.5ZM15.2055 15.2805C15.1127 15.3734 15.0025 15.4472 14.8812 15.4975C14.7599 15.5478 14.6298 15.5737 14.4985 15.5737C14.3672 15.5737 14.2371 15.5478 14.1158 15.4975C13.9945 15.4472 13.8843 15.3734 13.7915 15.2805L10.6095 12.099L7.4275 15.2805C7.23999 15.4681 6.98565 15.5735 6.72043 15.5735C6.4552 15.5736 6.20082 15.4683 6.01325 15.2808C5.82568 15.0932 5.72027 14.8389 5.72022 14.5737C5.72018 14.3085 5.82549 14.0541 6.013 13.8665L9.195 10.6845L6.013 7.5025C5.82549 7.31493 5.72018 7.06055 5.72022 6.79532C5.72027 6.5301 5.82568 6.27576 6.01325 6.08825C6.20082 5.90074 6.4552 5.79543 6.72043 5.79547C6.98565 5.79552 7.23999 5.90093 7.4275 6.0885L10.6095 9.2705L13.7915 6.0885C13.8837 5.99299 13.9941 5.91681 14.1161 5.8644C14.2381 5.81199 14.3693 5.7844 14.5021 5.78325C14.6349 5.7821 14.7666 5.8074 14.8895 5.85768C15.0124 5.90796 15.124 5.98221 15.2179 6.0761C15.3118 6.17 15.386 6.28165 15.4363 6.40455C15.4866 6.52744 15.5119 6.65912 15.5108 6.7919C15.5096 6.92468 15.482 7.0559 15.4296 7.1779C15.3772 7.29991 15.301 7.41025 15.2055 7.5025L12.0235 10.6845L15.2055 13.8665C15.393 14.054 15.4983 14.3083 15.4983 14.5735C15.4983 14.8387 15.393 15.093 15.2055 15.2805Z" fill="#999999"/>
</g>
<defs>
<clipPath id="clip0_586_1415">
<rect width="21" height="21" fill="white"/>
</clipPath>
</defs>
</svg>
