<svg width="20" height="20" viewBox="0 0 20 20" fill="none" xmlns="http://www.w3.org/2000/svg">
<g id="shield-tick">
<path id="Solid" fill-rule="evenodd" clip-rule="evenodd" d="M9.76165 0.907025C9.91974 0.884182 10.0803 0.884182 10.2384 0.907025C10.4206 0.933352 10.5901 0.997397 10.7247 1.04825L10.7608 1.06185L15.3378 2.77811C15.8526 2.97032 16.3048 3.13912 16.6529 3.44597C16.9575 3.71441 17.1922 4.05298 17.3366 4.43244C17.5016 4.8662 17.5009 5.34879 17.5001 5.89833L17.5 9.99989C17.5 12.3554 16.2189 14.3192 14.8341 15.7619C13.44 17.2142 11.845 18.24 11.0016 18.7321L10.9674 18.7521C10.8135 18.8425 10.6138 18.9598 10.3495 19.0165C10.1333 19.0628 9.86676 19.0628 9.65055 19.0165C9.38628 18.9598 9.1865 18.8425 9.03259 18.7521L8.99843 18.7321C8.15501 18.24 6.55998 17.2142 5.1659 15.7619C3.78109 14.3192 2.50001 12.3554 2.50001 9.99989L2.4999 5.89833C2.49911 5.3488 2.49841 4.8662 2.66347 4.43244C2.80786 4.05298 3.04249 3.71441 3.34709 3.44597C3.69527 3.13912 4.14739 2.97032 4.66222 2.77811L9.23925 1.06185L9.27532 1.04825C9.40993 0.997398 9.57946 0.933352 9.76165 0.907025ZM13.5059 8.08926C13.8314 7.76382 13.8314 7.23618 13.5059 6.91074C13.1805 6.58531 12.6528 6.58531 12.3274 6.91074L9.16666 10.0715L8.08925 8.99408C7.76382 8.66864 7.23618 8.66864 6.91074 8.99408C6.5853 9.31952 6.5853 9.84715 6.91074 10.1726L8.57741 11.8393C8.90284 12.1647 9.43048 12.1647 9.75592 11.8393L13.5059 8.08926Z" fill="#17B26A"/>
</g>
</svg>
