<svg width="16" height="17" viewBox="0 0 16 17" fill="none" xmlns="http://www.w3.org/2000/svg">
<g id="shield-off">
<g id="Solid">
<path fill-rule="evenodd" clip-rule="evenodd" d="M2.47141 2.0286C2.21107 1.76825 1.78896 1.76825 1.52861 2.0286C1.26826 2.28894 1.26826 2.71106 1.52861 2.9714L2.19375 3.63655C2.06955 3.84857 2.00001 4.09382 2.00001 4.35083V8.49995C2.00001 10.3844 3.02487 11.9554 4.13272 13.1096C5.24798 14.2714 6.52401 15.0921 7.19874 15.4857L7.22607 15.5017C7.34921 15.574 7.50904 15.6679 7.72049 15.7132C7.89347 15.7503 8.10671 15.7503 8.27969 15.7132C8.49116 15.6678 8.65142 15.5737 8.7749 15.5012L8.80243 15.485C9.45453 15.1045 10.676 14.3208 11.7684 13.2112L13.5286 14.9714C13.789 15.2318 14.2111 15.2318 14.4714 14.9714C14.7318 14.7111 14.7318 14.2889 14.4714 14.0286L2.47141 2.0286Z" fill="#828282"/>
<path d="M13.3686 11.0402C13.7522 10.2774 14 9.42653 14 8.49991L14.0001 5.21866C14.0008 4.77904 14.0013 4.39296 13.8693 4.04595C13.7537 3.74239 13.566 3.47152 13.3224 3.25678C13.0438 3.0113 12.6821 2.87626 12.2703 2.72249L8.60864 1.34948L8.57978 1.3386C8.47209 1.29792 8.33647 1.24668 8.19071 1.22562C8.06424 1.20735 7.9358 1.20735 7.80934 1.22562C7.66358 1.24668 7.52796 1.29792 7.42027 1.3386L7.39141 1.34948L4.69063 2.3622L13.3686 11.0402Z" fill="#828282"/>
</g>
</g>
</svg>
