<svg width="12" height="12" viewBox="0 0 12 12" fill="none" xmlns="http://www.w3.org/2000/svg">
<g id="8899 2" clip-path="url(#clip0_6359_40170)">
<path id="Vector" d="M7.20078 0.601562H4.80078V1.80156H7.20078V0.601562Z" fill="#FFCF39"/>
<path id="Vector_2" d="M11.3984 7.20078V4.80078H10.1984V7.20078H11.3984Z" fill="#FFCF39"/>
<path id="Vector_3" d="M1.80078 7.20078L1.80078 4.80078H0.600781L0.600781 7.20078H1.80078Z" fill="#FFCF39"/>
<path id="Vector_4" d="M7.20078 10.2031H4.80078V11.4031H7.20078V10.2031Z" fill="#FFCF39"/>
<path id="Vector_5" d="M5.99891 7.62281C6.89361 7.62281 7.61891 6.89751 7.61891 6.00281C7.61891 5.10811 6.89361 4.38281 5.99891 4.38281C5.1042 4.38281 4.37891 5.10811 4.37891 6.00281C4.37891 6.89751 5.1042 7.62281 5.99891 7.62281Z" fill="#FFCF39"/>
<path id="Vector_6" fill-rule="evenodd" clip-rule="evenodd" d="M5.99922 2.39922C5.04444 2.39922 4.12877 2.7785 3.45363 3.45363C2.7785 4.12877 2.39922 5.04444 2.39922 5.99922C2.39922 6.954 2.7785 7.86967 3.45363 8.5448C4.12877 9.21993 5.04444 9.59922 5.99922 9.59922C6.954 9.59922 7.86967 9.21993 8.5448 8.5448C9.21993 7.86967 9.59922 6.954 9.59922 5.99922C9.59922 5.04444 9.21993 4.12877 8.5448 3.45363C7.86967 2.7785 6.954 2.39922 5.99922 2.39922ZM1.19922 5.99922C1.19922 4.72618 1.70493 3.50528 2.60511 2.60511C3.50528 1.70493 4.72618 1.19922 5.99922 1.19922C7.27226 1.19922 8.49316 1.70493 9.39333 2.60511C10.2935 3.50528 10.7992 4.72618 10.7992 5.99922C10.7992 7.27226 10.2935 8.49316 9.39333 9.39333C8.49316 10.2935 7.27226 10.7992 5.99922 10.7992C4.72618 10.7992 3.50528 10.2935 2.60511 9.39333C1.70493 8.49316 1.19922 7.27226 1.19922 5.99922Z" fill="#FFCF39"/>
</g>
<defs>
<clipPath id="clip0_6359_40170">
<rect width="12" height="12" fill="white"/>
</clipPath>
</defs>
</svg>
