<svg width="18" height="18" viewBox="0 0 18 18" fill="none" xmlns="http://www.w3.org/2000/svg">
<g id="target-03" clip-path="url(#clip0_2526_15082)">
<path id="Icon" d="M16.5 9H13.5M4.5 9H1.5M9 4.5V1.5M9 16.5V13.5M15 9C15 12.3137 12.3137 15 9 15C5.68629 15 3 12.3137 3 9C3 5.68629 5.68629 3 9 3C12.3137 3 15 5.68629 15 9ZM11.25 9C11.25 10.2426 10.2426 11.25 9 11.25C7.75736 11.25 6.75 10.2426 6.75 9C6.75 7.75736 7.75736 6.75 9 6.75C10.2426 6.75 11.25 7.75736 11.25 9Z" stroke="#14C784" stroke-width="1.6" stroke-linecap="round" stroke-linejoin="round"/>
</g>
<defs>
<clipPath id="clip0_2526_15082">
<rect width="18" height="18" fill="white"/>
</clipPath>
</defs>
</svg>
