<svg width="24" height="24" viewBox="0 0 24 24" fill="none" xmlns="http://www.w3.org/2000/svg">
<g clip-path="url(#clip0_1343_1022)">
<path d="M15.924 17.5046L17.8929 8.22342C18.0669 7.40658 17.598 7.08513 17.0623 7.28571L5.49087 11.7454C4.70055 12.0532 4.71429 12.4954 5.35713 12.696L8.31687 13.62L15.1877 9.294C15.5091 9.07971 15.804 9.20058 15.5631 9.41487L10.0054 14.4369L9.79113 17.4909C10.0989 17.4909 10.2334 17.3571 10.3937 17.196L11.8397 15.8031L14.8397 18.0129C15.3891 18.3206 15.7774 18.1603 15.9249 17.5037L15.924 17.5046ZM24 12C24 18.6291 18.6291 24 12 24C5.37087 24 0 18.6291 0 12C0 5.37087 5.37087 0 12 0C18.6291 0 24 5.37087 24 12Z" fill="#E0E0E0"/>
</g>
<defs>
<clipPath id="clip0_1343_1022">
<rect width="24" height="24" fill="white"/>
</clipPath>
</defs>
</svg>
