<svg width="24" height="25" viewBox="0 0 24 25" fill="none" xmlns="http://www.w3.org/2000/svg">
<g id="thumbs-up">
<path id="Solid" d="M11.5342 1.5C10.8141 1.5 10.1617 1.92403 9.86925 2.58198L6.50849 10.1437C6.42696 10.3271 6.38438 10.4217 6.34948 10.4884L6.34638 10.4942L6.33975 10.4947C6.26471 10.4995 6.16096 10.5 5.96021 10.5L5.16146 10.5C4.63431 10.5 4.17955 10.5 3.80497 10.5306C3.40963 10.5629 3.01641 10.6342 2.63803 10.827C2.07354 11.1146 1.6146 11.5735 1.32698 12.138C1.13419 12.5164 1.06287 12.9096 1.03057 13.305C0.999969 13.6795 0.999984 14.1343 1 14.6614V19.3385C0.999984 19.8657 0.999969 20.3205 1.03057 20.695C1.06287 21.0904 1.13419 21.4836 1.32698 21.862C1.6146 22.4265 2.07354 22.8854 2.63803 23.173C3.01641 23.3658 3.40963 23.4371 3.80497 23.4694C4.17954 23.5 4.6343 23.5 5.16144 23.5C5.62456 23.5 6 23.1246 6 22.6614L6 14.5C6 13.9477 6.44772 13.5 7 13.5C7.55229 13.5 8 13.9477 8 14.5L8 21.9C8 22.4601 8 22.7401 8.10899 22.954C8.20487 23.1422 8.35785 23.2951 8.54601 23.391C8.75992 23.5 9.03995 23.5 9.6 23.5H15.9196C16.6184 23.5 17.1985 23.5 17.6758 23.4637C18.1742 23.4257 18.6336 23.3444 19.0771 23.1434C19.7707 22.8291 20.3602 22.3234 20.7763 21.6857C21.0423 21.2779 21.1926 20.8362 21.3059 20.3494C21.4144 19.8832 21.5026 19.3098 21.6088 18.6192L22.1444 15.1377C22.2852 14.2227 22.4006 13.4726 22.4414 12.8604C22.4836 12.2288 22.456 11.6394 22.2405 11.0745C21.9097 10.2071 21.2874 9.48175 20.4804 9.02284C19.9548 8.72398 19.3765 8.60713 18.7458 8.55272C18.1345 8.49997 17.3756 8.49999 16.4498 8.5H15.6C15.3035 8.5 15.1412 8.49922 15.0246 8.4897L15.0115 8.48855L15.0103 8.47537C15.0008 8.35878 15 8.19653 15 7.9V4.96584C15 3.05171 13.4483 1.5 11.5342 1.5Z" fill="#17B26A"/>
</g>
</svg>
