<svg width="24" height="25" viewBox="0 0 24 25" fill="none" xmlns="http://www.w3.org/2000/svg">
<g id="thumbs-down">
<path id="Solid" d="M16 3.1C16 2.53995 16 2.25992 15.891 2.04601C15.7951 1.85785 15.6422 1.70487 15.454 1.60899C15.2401 1.5 14.9601 1.5 14.4 1.5H8.08051C7.38178 1.49999 6.80158 1.49998 6.32427 1.53632C5.8259 1.57425 5.3665 1.65561 4.92296 1.85658C4.22939 2.17085 3.63992 2.67657 3.22384 3.31429C2.95777 3.7221 2.8075 4.16379 2.69422 4.6506C2.58573 5.11685 2.49752 5.69025 2.39128 6.3809L1.85568 9.8623C1.7149 10.7773 1.59949 11.5274 1.55867 12.1396C1.51655 12.7712 1.5441 13.3606 1.75957 13.9255C2.09042 14.7929 2.7127 15.5183 3.51973 15.9772C4.04531 16.276 4.62364 16.3929 5.25433 16.4473C5.86562 16.5 6.62451 16.5 7.55026 16.5H8.40011C8.69664 16.5 8.85889 16.5008 8.97548 16.5103L8.98866 16.5115L8.98981 16.5246C8.99933 16.6412 9.00011 16.8035 9.00011 17.1V20.0342C9.00011 21.9483 10.5518 23.5 12.4659 23.5C13.186 23.5 13.8384 23.076 14.1309 22.418L17.4916 14.8563C17.5732 14.6729 17.6157 14.5783 17.6506 14.5116L17.6537 14.5058L17.6604 14.5053C17.7354 14.5005 17.8392 14.5 18.0399 14.5H18.8386C19.3658 14.5 19.8206 14.5 20.1951 14.4694C20.5905 14.4371 20.9837 14.3658 21.3621 14.173C21.9266 13.8854 22.3855 13.4265 22.6731 12.862C22.8659 12.4836 22.9372 12.0904 22.9695 11.695C23.0001 11.3205 23.0001 10.8657 23.0001 10.3386V5.66144C23.0001 5.1343 23.0001 4.67954 22.9695 4.30497C22.9372 3.90963 22.8659 3.51641 22.6731 3.13803C22.3855 2.57354 21.9266 2.1146 21.3621 1.82698C20.9837 1.63419 20.5905 1.56287 20.1951 1.53057C19.8206 1.49997 19.3658 1.49998 18.8387 1.5C18.3755 1.5 18 1.8755 18 2.3387V10.5C18 11.0523 17.5523 11.5 17 11.5C16.4477 11.5 16 11.0523 16 10.5V3.1Z" fill="#F6465D"/>
</g>
</svg>
