<svg width="18" height="18" viewBox="0 0 18 18" fill="none" xmlns="http://www.w3.org/2000/svg">
<g id="Phosphoricons fill" clip-path="url(#clip0_6813_86982)">
<path id="Vector" d="M16.3125 9.60886C16.1929 10.9982 15.6791 12.3245 14.8314 13.4318C13.9837 14.539 12.8374 15.3812 11.5274 15.8591C10.2173 16.337 8.79806 16.4308 7.43652 16.1294C6.07498 15.8281 4.82782 15.1442 3.84176 14.1581C2.85571 13.1721 2.17179 11.9249 1.87047 10.5634C1.56914 9.20185 1.66295 7.78257 2.14085 6.47253C2.61875 5.16249 3.46086 4.01619 4.56811 3.16849C5.67536 2.32079 7.00169 1.80697 8.39105 1.68746C8.46491 1.68136 8.53926 1.68988 8.60984 1.71252C8.68042 1.73515 8.74584 1.77147 8.80239 1.8194C8.85893 1.86732 8.90548 1.92591 8.93938 1.99182C8.97327 2.05774 8.99386 2.12968 8.99995 2.20355C9.00605 2.27742 8.99753 2.35177 8.97489 2.42234C8.95226 2.49292 8.91594 2.55835 8.86801 2.61489C8.82009 2.67143 8.7615 2.71798 8.69559 2.75188C8.62967 2.78578 8.55773 2.80636 8.48386 2.81246C7.30794 2.91349 6.18535 3.34829 5.24815 4.06568C4.31096 4.78308 3.59817 5.75323 3.19363 6.86198C2.7891 7.97074 2.70966 9.17197 2.96467 10.3243C3.21967 11.4767 3.79851 12.5323 4.63307 13.3668C5.46763 14.2014 6.5232 14.7802 7.67557 15.0352C8.82794 15.2902 10.0292 15.2108 11.1379 14.8063C12.2467 14.4017 13.2168 13.6889 13.9342 12.7518C14.6516 11.8146 15.0864 10.692 15.1875 9.51605C15.1998 9.36687 15.2708 9.22868 15.385 9.1319C15.4992 9.03511 15.6472 8.98765 15.7964 8.99996C15.9455 9.01227 16.0837 9.08333 16.1805 9.19752C16.2773 9.31172 16.3248 9.45968 16.3125 9.60886ZM11.25 3.37496C11.4168 3.37496 11.58 3.32547 11.7187 3.23276C11.8575 3.14005 11.9656 3.00827 12.0295 2.8541C12.0933 2.69992 12.11 2.53027 12.0775 2.3666C12.0449 2.20293 11.9646 2.05259 11.8466 1.93459C11.7286 1.81659 11.5782 1.73623 11.4146 1.70367C11.2509 1.67111 11.0812 1.68782 10.9271 1.75168C10.7729 1.81555 10.6411 1.92369 10.5484 2.06245C10.4557 2.2012 10.4062 2.36433 10.4062 2.53121C10.4062 2.75498 10.4951 2.9696 10.6533 3.12783C10.8116 3.28606 11.0262 3.37496 11.25 3.37496ZM13.7812 5.06246C13.9481 5.06246 14.1112 5.01297 14.25 4.92026C14.3887 4.82755 14.4969 4.69577 14.5607 4.5416C14.6246 4.38742 14.6413 4.21777 14.6087 4.0541C14.5762 3.89043 14.4958 3.74009 14.3778 3.62209C14.2598 3.50409 14.1095 3.42373 13.9458 3.39117C13.7821 3.35861 13.6125 3.37532 13.4583 3.43918C13.3041 3.50305 13.1724 3.61119 13.0797 3.74995C12.9869 3.8887 12.9375 4.05183 12.9375 4.21871C12.9375 4.44248 13.0263 4.6571 13.1846 4.81533C13.3428 4.97356 13.5574 5.06246 13.7812 5.06246ZM15.4687 7.59371C15.6356 7.59371 15.7987 7.54422 15.9375 7.45151C16.0762 7.3588 16.1844 7.22702 16.2482 7.07285C16.3121 6.91867 16.3288 6.74902 16.2962 6.58535C16.2637 6.42168 16.1833 6.27134 16.0653 6.15334C15.9473 6.03534 15.797 5.95498 15.6333 5.92242C15.4696 5.88986 15.3 5.90657 15.1458 5.97043C14.9916 6.0343 14.8599 6.14244 14.7672 6.2812C14.6744 6.41995 14.625 6.58308 14.625 6.74996C14.625 6.97373 14.7138 7.18835 14.8721 7.34658C15.0303 7.50481 15.2449 7.59371 15.4687 7.59371ZM8.99995 3.93746C10.0012 3.93746 10.98 4.23437 11.8125 4.79064C12.6451 5.34692 13.2939 6.13757 13.6771 7.06262C14.0603 7.98767 14.1605 9.00557 13.9652 9.9876C13.7698 10.9696 13.2877 11.8717 12.5797 12.5797C11.8717 13.2877 10.9696 13.7698 9.9876 13.9652C9.00557 14.1605 7.98767 14.0603 7.06262 13.6771C6.13757 13.2939 5.34691 12.6451 4.79064 11.8125C4.23436 10.98 3.93745 10.0012 3.93745 8.99996C3.93894 7.65776 4.47279 6.37095 5.42187 5.42187C6.37095 4.47279 7.65775 3.93895 8.99995 3.93746ZM8.43745 8.99996C8.43745 9.14914 8.49672 9.29222 8.60221 9.39771C8.70769 9.50319 8.85077 9.56246 8.99995 9.56246H12.375C12.5241 9.56246 12.6672 9.50319 12.7727 9.39771C12.8782 9.29222 12.9375 9.14914 12.9375 8.99996C12.9375 8.85077 12.8782 8.7077 12.7727 8.60221C12.6672 8.49672 12.5241 8.43746 12.375 8.43746H9.56245V5.62496C9.56245 5.47577 9.50319 5.3327 9.3977 5.22721C9.29221 5.12172 9.14914 5.06246 8.99995 5.06246C8.85077 5.06246 8.70769 5.12172 8.60221 5.22721C8.49672 5.3327 8.43745 5.47577 8.43745 5.62496V8.99996Z" fill="#71777A"/>
</g>
<defs>
<clipPath id="clip0_6813_86982">
<rect width="18" height="18" fill="white"/>
</clipPath>
</defs>
</svg>
