<svg width="24" height="24" viewBox="0 0 24 24" fill="none" xmlns="http://www.w3.org/2000/svg">
<g id="Construction, Tools/tools-shovel">
<g id="Group">
<path id="Path" fill-rule="evenodd" clip-rule="evenodd" d="M4.31043 13.3622L6.73576 10.9368C7.01545 10.6571 7.3948 10.5 7.79034 10.5C8.18589 10.5 8.56523 10.6571 8.84492 10.9368L13.0632 15.1551C13.3429 15.4348 13.5 15.8141 13.5 16.2097C13.5 16.6052 13.3429 16.9846 13.0632 17.2642L10.6378 19.6896C8.89057 21.4368 6.05769 21.4368 4.31043 19.6896V19.6896C2.56317 17.9423 2.56317 15.1094 4.31043 13.3622L4.31043 13.3622Z" stroke="#828282" stroke-width="1.5" stroke-linecap="round" stroke-linejoin="round"/>
<path id="Path_2" fill-rule="evenodd" clip-rule="evenodd" d="M16.2175 4.31806L17.2426 3.29294C17.6332 2.90241 18.2663 2.90241 18.6569 3.29294L20.7071 5.34319C21.0976 5.73372 21.0976 6.36688 20.7071 6.75741L19.682 7.78253C18.7253 8.73921 17.1742 8.73921 16.2175 7.78253V7.78253C15.7581 7.32311 15.5 6.70001 15.5 6.05029C15.5 5.40058 15.7581 4.77747 16.2175 4.31806Z" stroke="#828282" stroke-width="1.5" stroke-linecap="round" stroke-linejoin="round"/>
<path id="Path_3" d="M16.2092 7.79077L8.5 15.5" stroke="#828282" stroke-width="1.5" stroke-linecap="round" stroke-linejoin="round"/>
</g>
</g>
</svg>
