<svg width="24" height="12" viewBox="0 0 24 12" fill="none" xmlns="http://www.w3.org/2000/svg">
<path d="M0.924 1.05464H11.088V1.67864H6.336V2.86664H10.08V7.49864H6.204C6.06 8.34664 5.804 9.03064 5.436 9.55064C7.132 10.3026 9.164 10.7266 11.532 10.8226L11.352 11.4466C8.896 11.3346 6.784 10.8626 5.016 10.0306C4.192 10.7506 2.808 11.2266 0.864 11.4586L0.576 10.8706C2.36 10.7026 3.636 10.3186 4.404 9.71864C3.652 9.31064 2.96 8.83464 2.328 8.29064L2.844 7.93064C3.444 8.45064 4.112 8.89864 4.848 9.27464C5.192 8.79464 5.428 8.20264 5.556 7.49864H1.956V2.86664H5.688V1.67864H0.924V1.05464ZM9.444 6.91064V5.44664H6.336V5.97464C6.32 6.39064 6.304 6.70264 6.288 6.91064H9.444ZM5.628 6.91064C5.66 6.49464 5.68 6.18264 5.688 5.97464V5.44664H2.604V6.91064H5.628ZM2.604 4.88264H5.688V3.45464H2.604V4.88264ZM6.336 3.45464V4.88264H9.444V3.45464H6.336ZM23.064 1.25864C21.976 1.72264 20.78 1.99064 19.476 2.06264V4.41464H23.568V5.02664H22.164V11.5306H21.528V5.02664H19.476V6.61064C19.42 8.64264 18.968 10.2626 18.12 11.4706L17.652 10.9786C18.396 9.93064 18.792 8.47464 18.84 6.61064V1.52264C20.264 1.49064 21.568 1.20664 22.752 0.67064L23.064 1.25864ZM12.756 1.63064H15.204C14.964 1.16664 14.728 0.78664 14.496 0.49064L15.156 0.37064C15.372 0.69064 15.596 1.11064 15.828 1.63064H18.108V2.25464H12.756V1.63064ZM12.648 4.35464H14.1C13.892 3.79464 13.656 3.30664 13.392 2.89064L13.968 2.66264C14.232 3.14264 14.472 3.70664 14.688 4.35464H16.14C16.42 3.81064 16.66 3.23464 16.86 2.62664L17.448 2.83064C17.24 3.39864 17 3.90664 16.728 4.35464H18.192V4.96664H15.804V6.50264H17.976V7.10264H15.804V10.5706C15.804 11.2106 15.492 11.5306 14.868 11.5306H14.208L14.064 10.9186C14.336 10.9506 14.532 10.9666 14.652 10.9666C14.988 10.9666 15.156 10.7826 15.156 10.4146V7.10264H12.816V6.50264H15.156V4.96664H12.648V4.35464ZM14.364 7.96664C14.044 9.17464 13.58 10.2346 12.972 11.1466L12.432 10.7986C13.032 9.93464 13.476 8.95064 13.764 7.84664L14.364 7.96664ZM16.968 7.75064C17.368 8.55864 17.676 9.28664 17.892 9.93464L17.34 10.1506C17.092 9.39864 16.784 8.64664 16.416 7.89464L16.968 7.75064Z" fill="url(#paint0_linear_5038_47395)"/>
<defs>
<linearGradient id="paint0_linear_5038_47395" x1="12" y1="-2.69336" x2="12" y2="14.3066" gradientUnits="userSpaceOnUse">
<stop stop-color="#CCFF00"/>
<stop offset="1" stop-color="#70F6FF"/>
</linearGradient>
</defs>
</svg>
