<svg width="32" height="32" viewBox="0 0 32 32" fill="none" xmlns="http://www.w3.org/2000/svg">
<path fill-rule="evenodd" clip-rule="evenodd" d="M16.0001 2.66663C23.3639 2.66663 29.3334 8.63616 29.3334 16C29.3334 23.3638 23.3639 29.3333 16.0001 29.3333C8.63628 29.3333 2.66675 23.3638 2.66675 16C2.66675 8.63616 8.63628 2.66663 16.0001 2.66663Z" fill="url(#paint0_radial_390_13189)"/>
<path d="M11.1404 12.964C13.8244 10.3453 18.176 10.3453 20.86 12.964L21.183 13.2791C21.3172 13.4101 21.3172 13.6224 21.183 13.7533L20.078 14.8314C20.0109 14.8969 19.9021 14.8969 19.835 14.8314L19.3905 14.3977C17.5181 12.5709 14.4823 12.5709 12.6098 14.3977L12.1338 14.8622C12.0667 14.9277 11.9579 14.9277 11.8908 14.8622L10.7858 13.7841C10.6516 13.6531 10.6516 13.4409 10.7858 13.3099L11.1404 12.964ZM23.1452 15.1936L24.1287 16.1531C24.2629 16.2841 24.2629 16.4963 24.1287 16.6273L19.6942 20.9539C19.56 21.0848 19.3424 21.0848 19.2082 20.9539L16.061 17.8832C16.0274 17.8505 15.973 17.8505 15.9394 17.8832L12.7922 20.9539C12.658 21.0848 12.4404 21.0848 12.3062 20.9539L7.87164 16.6273C7.73745 16.4963 7.73745 16.284 7.87164 16.1531L8.8551 15.1936C8.9893 15.0627 9.20688 15.0627 9.34109 15.1936L12.4884 18.2643C12.522 18.2971 12.5764 18.2971 12.6099 18.2643L15.7571 15.1936C15.8913 15.0627 16.1089 15.0627 16.2431 15.1935C16.2431 15.1936 16.2431 15.1936 16.2431 15.1936L19.3904 18.2643C19.424 18.2971 19.4784 18.2971 19.512 18.2643L22.6592 15.1936C22.7934 15.0627 23.011 15.0627 23.1452 15.1936Z" fill="white"/>
<defs>
<radialGradient id="paint0_radial_390_13189" cx="0" cy="0" r="1" gradientUnits="userSpaceOnUse" gradientTransform="translate(2.66675 16) scale(26.6667)">
<stop stop-color="#5D9DF6"/>
<stop offset="1" stop-color="#006FFF"/>
</radialGradient>
</defs>
</svg>
