<svg width="20" height="21" viewBox="0 0 20 21" fill="none" xmlns="http://www.w3.org/2000/svg">
<path fill-rule="evenodd" clip-rule="evenodd" d="M16.25 9.66667H17.5C17.9602 9.66667 18.3333 10.0398 18.3333 10.5V13C18.3333 13.4602 17.9602 13.8333 17.5 13.8333H16.25C15.0994 13.8333 14.1666 12.9006 14.1666 11.75V11.75C14.1666 10.5994 15.0994 9.66667 16.25 9.66667Z" stroke="#111928" stroke-width="1.5" stroke-linecap="round" stroke-linejoin="round"/>
<path d="M15 2.99999H4.16663" stroke="#111928" stroke-width="1.5" stroke-linecap="round" stroke-linejoin="round"/>
<path d="M17.5 13.8333V15.9167C17.5 17.0673 16.5673 18 15.4167 18H4.58333C3.43274 18 2.5 17.0673 2.5 15.9167V7.58333C2.5 6.43274 3.43274 5.5 4.58333 5.5H15.4167C16.5673 5.5 17.5 6.43274 17.5 7.58333V9.66667" stroke="#111928" stroke-width="1.5" stroke-linecap="round" stroke-linejoin="round"/>
</svg>
