<svg width="14" height="14" viewBox="0 0 14 14" fill="none" xmlns="http://www.w3.org/2000/svg">
<g id="Phosphoricons line" clip-path="url(#clip0_5038_49121)">
<g id="Group 1312319620">
<path id="Vector" d="M6.69922 12.5566C9.87486 12.5566 12.4492 9.98228 12.4492 6.80664C12.4492 3.631 9.87486 1.05664 6.69922 1.05664C3.52358 1.05664 0.949219 3.631 0.949219 6.80664C0.949219 9.98228 3.52358 12.5566 6.69922 12.5566Z" stroke="#9AA0AA" stroke-linecap="round" stroke-linejoin="round"/>
<path id="Vector_2" d="M4.30469 6.80671C4.30469 9.05041 5.1031 11.0545 6.35792 12.4064C6.40151 12.4538 6.45446 12.4916 6.51344 12.5175C6.57241 12.5434 6.63611 12.5568 6.70052 12.5568C6.76493 12.5568 6.82863 12.5434 6.8876 12.5175C6.94658 12.4916 6.99953 12.4538 7.04313 12.4064C8.29794 11.0545 9.09635 9.05041 9.09635 6.80671C9.09635 4.56302 8.29794 2.5589 7.04313 1.20705C6.99953 1.15964 6.94658 1.12179 6.8876 1.0959C6.82863 1.07001 6.76493 1.05664 6.70052 1.05664C6.63611 1.05664 6.57241 1.07001 6.51344 1.0959C6.45446 1.12179 6.40151 1.15964 6.35792 1.20705C5.1031 2.5589 4.30469 4.56302 4.30469 6.80671Z" stroke="#9AA0AA" stroke-linecap="round" stroke-linejoin="round"/>
<path id="Vector_3" d="M0.949219 6.80664H12.4492" stroke="#9AA0AA" stroke-linecap="round" stroke-linejoin="round"/>
</g>
</g>
<defs>
<clipPath id="clip0_5038_49121">
<rect width="13" height="13" fill="white" transform="translate(0.199219 0.306641)"/>
</clipPath>
</defs>
</svg>
