<svg width="15" height="15" viewBox="0 0 15 15" fill="none" xmlns="http://www.w3.org/2000/svg">
<g id="&#233;&#178;&#184;&#233;&#177;&#188; 1">
<path id="Vector" d="M13.8384 6.38232C14.0068 6.58008 14.0786 6.83935 14.0376 7.09424C14.0376 7.09717 14.0376 7.1001 14.0361 7.10156C13.8779 8.0625 13.4282 8.93555 12.7368 9.62549C12.3677 9.99463 11.9429 10.2949 11.4814 10.5205C11.02 10.7446 10.522 10.8926 10.0063 10.9541C9.91846 11.1357 9.76611 11.2837 9.57568 11.3628L7.1001 12.4058C7.01074 12.4365 6.92432 12.4204 6.89209 12.4072C6.82471 12.3794 6.77197 12.3267 6.74414 12.2607C6.55811 11.8198 6.55225 11.3481 6.69141 10.9263C5.6748 10.7622 4.7417 10.2642 4.03418 9.49951C3.23584 8.63818 2.79639 7.51611 2.79639 6.33984V4.81201C2.79639 4.74902 2.80518 4.6875 2.81982 4.62891H2.34229C1.56885 4.62891 0.94043 4.00049 0.94043 3.22705V2.85205C0.94043 2.70117 1.06201 2.57959 1.21289 2.57959H2.03027C2.63086 2.57959 3.17725 2.88574 3.50098 3.36182C3.82471 2.88721 4.37109 2.57959 4.97168 2.57959H5.78906C5.93994 2.57959 6.06152 2.70117 6.06152 2.85205V3.22705C6.06152 4.00049 5.43311 4.62891 4.65967 4.62891H4.22754C4.23193 4.64502 4.23633 4.66113 4.23926 4.67725C4.3916 5.48291 5.09912 6.06885 5.92236 6.06885H13.1616C13.4209 6.06885 13.6685 6.18311 13.8384 6.38232Z" fill="#2970FF"/>
<path id="Vector_2" d="M13.4238 6.73535C13.4473 6.76318 13.4663 6.79395 13.4795 6.82617C11.5181 7.17334 9.95215 8.6792 9.54053 10.645C9.54053 10.6479 9.53906 10.6509 9.53906 10.6553C9.51855 10.7476 9.4541 10.8252 9.36621 10.8618L7.16602 11.7891C7.0415 11.168 7.3667 10.522 7.97314 10.2656C8.1123 10.207 8.17676 10.0474 8.11816 9.90967C8.05957 9.77051 7.8999 9.70605 7.76221 9.76465C7.42529 9.90674 7.1499 10.1353 6.95215 10.4136C5.98828 10.2993 5.09912 9.84668 4.43408 9.13037C3.72803 8.37012 3.33984 7.37988 3.33984 6.34131V4.81201C3.33984 4.76221 3.35889 4.7168 3.39258 4.68311C3.42773 4.64795 3.47314 4.62891 3.52295 4.62891C3.61084 4.62891 3.68701 4.69189 3.70313 4.77978C3.90381 5.84326 4.83691 6.61377 5.9209 6.61377H13.1602C13.2612 6.6123 13.3579 6.65771 13.4238 6.73535Z" fill="#2970FF"/>
<path id="Vector_3" d="M13.418 7.3916C13.2349 8.08887 12.8701 8.72314 12.3516 9.24023C11.7554 9.83643 10.9907 10.2334 10.1689 10.3784C10.6289 8.86816 11.874 7.72412 13.418 7.3916Z" fill="#2970FF"/>
<path id="Vector_4" d="M13.0137 4.39307C13.0137 4.54395 12.8921 4.66553 12.7412 4.66553C12.5903 4.66553 12.4688 4.54395 12.4688 4.39307C12.4688 4.11182 12.2402 3.8833 11.959 3.8833C11.6792 3.8833 11.4507 4.11182 11.4507 4.3916V5.33057C11.4507 5.48145 11.3291 5.60303 11.1782 5.60303C11.0273 5.60303 10.9058 5.48145 10.9058 5.33057C10.9058 5.33057 10.9072 4.36963 10.9072 4.35791H10.9043C10.8867 4.09277 10.6655 3.8833 10.396 3.8833C10.1147 3.8833 9.88623 4.11182 9.88623 4.39307C9.88623 4.54395 9.76465 4.66553 9.61377 4.66553C9.46289 4.66553 9.34131 4.54395 9.34131 4.39307C9.34131 3.81152 9.81445 3.33984 10.3945 3.33984C10.7051 3.33984 10.9834 3.47461 11.1768 3.68701C11.3701 3.47314 11.6484 3.33984 11.9575 3.33984C12.5405 3.33984 13.0137 3.81299 13.0137 4.39307ZM9.80713 7.2041C9.98584 7.2041 10.1309 7.34912 10.1309 7.52783C10.1309 7.70654 9.98584 7.85156 9.80713 7.85156C9.62842 7.85156 9.4834 7.70654 9.4834 7.52783C9.4834 7.34912 9.62842 7.2041 9.80713 7.2041ZM6.36182 8.95019C6.50098 9.00732 6.5669 9.16699 6.50977 9.30615C6.46582 9.41162 6.36475 9.47461 6.25781 9.47461C6.22266 9.47461 6.1875 9.46729 6.15381 9.4541C5.70264 9.26807 5.30566 8.99121 4.97168 8.63086C4.75635 8.39941 4.57617 8.14014 4.43408 7.85889C4.3667 7.72412 4.4209 7.56152 4.5542 7.49268C4.68897 7.42529 4.85156 7.47949 4.92041 7.61279C5.03906 7.84863 5.19141 8.06543 5.37158 8.26025C5.65137 8.56201 5.98389 8.79346 6.36182 8.95019Z" fill="#2970FF"/>
<path id="Vector_5" d="M5.5166 3.12451V3.22705C5.5166 3.7002 5.13281 4.08398 4.65967 4.08398H3.76904C3.89502 3.52734 4.39746 3.12451 4.97021 3.12451H5.5166ZM3.23145 4.08398H2.34082C1.86768 4.08398 1.48389 3.7002 1.48389 3.22705V3.12451H2.02881C2.60303 3.12451 3.10693 3.52734 3.23145 4.08398Z" fill="#2970FF"/>
</g>
</svg>
