<svg width="24" height="24" viewBox="0 0 24 24" fill="none" xmlns="http://www.w3.org/2000/svg">
<rect width="24" height="24" rx="12" fill="#E0E0E0"/>
<path d="M17.2316 6.09766L13.0328 10.9453L12.983 11.0029L13.0267 11.0653L17.8124 17.9023H14.4802L11.2113 13.2325L11.1395 13.1299L11.0575 13.2246L7.00473 17.9023H6.21383L10.7365 12.6827L10.7863 12.6251L10.7427 12.5627L6.2169 6.09766H9.54916L12.5573 10.3948L12.6291 10.4973L12.7111 10.4027L16.4406 6.09766H17.2316ZM9.29267 6.76975L9.26351 6.72809H9.21267H7.57267H7.572H7.38443L7.492 6.88176L14.7367 17.2303L14.7658 17.2719H14.8167H16.4567H16.6442L16.5367 17.1182L9.29267 6.76975Z" fill="#121212" stroke="#121212" stroke-width="0.195312"/>
</svg>
